<svg id="agences" xmlns="http://www.w3.org/2000/svg" width="108.005" height="90" viewBox="0 0 108.005 90">
  <path id="Tracé_30417" data-name="Tracé 30417" d="M100.058,323.553a1.582,1.582,0,0,0-1.582-1.582H84.412a1.582,1.582,0,0,0-1.582,1.582v34.089a1.583,1.583,0,0,0,1.582,1.582H98.476a1.582,1.582,0,0,0,1.582-1.582Zm-14.064,1.582h10.9V356.06h-10.9Z" transform="translate(-65.357 -275.095)" fill="#f59a00"/>
  <path id="Tracé_30418" data-name="Tracé 30418" d="M282.141,315.588v-18.24a3.216,3.216,0,0,0-3.213-3.212H256.511a1.582,1.582,0,0,0,0,3.164h22.417a.048.048,0,0,1,.049.048v26.629a.049.049,0,0,1-.049.049H245.2a.049.049,0,0,1-.049-.049V297.348a.049.049,0,0,1,.049-.048h3.927a1.582,1.582,0,1,0,0-3.164H245.2a3.216,3.216,0,0,0-3.213,3.212v26.63a3.216,3.216,0,0,0,3.213,3.212h33.727a3.216,3.216,0,0,0,3.213-3.212v-8.389Z" transform="translate(-190.941 -253.132)" fill="#f59a00"/>
  <path id="Tracé_30419" data-name="Tracé 30419" d="M108,131.856V108.036a8.288,8.288,0,0,0-8.279-8.279H8.279A8.288,8.288,0,0,0,0,108.036v23.821A3.254,3.254,0,0,0,3.167,135.1v44.028H1.582A1.583,1.583,0,0,0,0,180.714v7.461a1.582,1.582,0,0,0,1.582,1.582H106.423A1.582,1.582,0,0,0,108,188.175v-7.461a1.582,1.582,0,0,0-1.582-1.582h-1.585V135.1A3.254,3.254,0,0,0,108,131.856m-23.3-28.935h8.485v29.024H84.707Zm-11.649,0h8.485v29.024H73.058Zm-11.649,0h8.485v29.024H61.408Zm-11.649,0h8.485v29.024H49.76Zm-11.648,0H46.6v29.024H38.111Zm-11.649,0h8.485v29.024H26.462Zm-23.3,28.935V108.036a5.121,5.121,0,0,1,5.115-5.115h3.37v3.857a1.582,1.582,0,1,0,3.164,0v-3.857H23.3v29.024H14.813V114.161a1.582,1.582,0,1,0-3.164,0v17.784h-8.4a.089.089,0,0,1-.088-.089M11.6,186.593H3.164v-4.3H11.6Zm0-7.461H6.331V165.377H11.6Zm25.807-24.348v31.809H14.765V143.925H37.408ZM104.841,182.3v4.3H40.573v-4.3H85.559a1.582,1.582,0,0,0,0-3.164H40.573v-36.79a1.582,1.582,0,0,0-1.582-1.582H13.183a1.582,1.582,0,0,0-1.582,1.582v19.87H6.331v-27.1h95.343v44.023H92.942a1.582,1.582,0,1,0,0,3.164Zm-.088-50.352h-8.4V102.921h3.37a5.121,5.121,0,0,1,5.115,5.115v23.821a.089.089,0,0,1-.088.088" transform="translate(0 -99.757)" fill="#fff"/>
</svg>
