<svg xmlns="http://www.w3.org/2000/svg" width="90" height="90" viewBox="0 0 90 90">
  <g id="biens" transform="translate(0 0)">
    <path id="Tracé_30420" data-name="Tracé 30420" d="M820.667,86.485h-7.734V72.6a1.758,1.758,0,0,0-3.516,0V86.485H788.323v-33.4a1.758,1.758,0,0,0-1.758-1.758H768.284a1.758,1.758,0,0,0-1.758,1.758v33.4H745.432V46.758h.676a1.758,1.758,0,0,0,1.243-.515L777.425,16.17,807.5,46.243a1.758,1.758,0,0,0,1.243.515h.677V59.941a1.758,1.758,0,0,0,3.516,0V46.758h7.734a1.758,1.758,0,0,0,1.243-3L778.668.515a1.758,1.758,0,0,0-2.486,0L759.658,17.039a1.758,1.758,0,0,0,2.486,2.486L777.425,4.244l39,39h-6.954l-30.8-30.8a1.758,1.758,0,0,0-2.486,0l-30.8,30.8h-6.954L752.3,29.368a1.758,1.758,0,1,0-2.486-2.486L732.939,43.757a1.758,1.758,0,0,0,1.243,3h7.734V86.485h-7.734a1.758,1.758,0,0,0,0,3.516h86.484a1.758,1.758,0,1,0,0-3.515M770.042,54.844h14.766V86.485H770.042Z" transform="translate(-732.424 0)" fill="#fff"/>
    <path id="Tracé_30421" data-name="Tracé 30421" d="M1074.184,292a1.758,1.758,0,0,0-1.758,1.758v17.578a1.758,1.758,0,0,0,1.758,1.758h9.844a1.758,1.758,0,0,0,1.758-1.758V293.759a1.758,1.758,0,0,0-1.758-1.758Zm8.086,17.578h-6.328V295.517h6.328Z" transform="translate(-1012.659 -240.673)" fill="#fff"/>
    <path id="Tracé_30422" data-name="Tracé 30422" d="M830.184,292a1.758,1.758,0,0,0-1.758,1.758v17.578a1.758,1.758,0,0,0,1.758,1.758h9.844a1.758,1.758,0,0,0,1.758-1.758V293.759A1.758,1.758,0,0,0,840.028,292Zm8.086,17.578h-6.328V295.517h6.328Z" transform="translate(-811.55 -240.673)" fill="#f59a00"/>
    <path id="Tracé_30423" data-name="Tracé 30423" d="M942.426,172.407a8.086,8.086,0,1,0,8.086-8.086,8.1,8.1,0,0,0-8.086,8.086m12.656,0a4.57,4.57,0,1,1-4.57-4.57,4.575,4.575,0,0,1,4.57,4.57" transform="translate(-905.511 -135.436)" fill="#f59a00"/>
    <path id="Tracé_30424" data-name="Tracé 30424" d="M961.184,392a1.759,1.759,0,1,0,1.242.515,1.771,1.771,0,0,0-1.242-.515" transform="translate(-919.523 -323.095)" fill="#f59a00"/>
    <path id="Tracé_30425" data-name="Tracé 30425" d="M857.184,126.517a1.759,1.759,0,1,0-1.243-.515,1.77,1.77,0,0,0,1.243.515" transform="translate(-833.804 -101.38)" fill="#f59a00"/>
    <path id="Tracé_30426" data-name="Tracé 30426" d="M1172.184,364.329a1.759,1.759,0,1,0,1.243.515,1.772,1.772,0,0,0-1.243-.515" transform="translate(-1093.433 -300.287)" fill="#f59a00"/>
  </g>
</svg>
