<svg xmlns="http://www.w3.org/2000/svg" width="76.418" height="90" viewBox="0 0 76.418 90">
  <g id="pros" transform="translate(0 0)">
    <path id="Tracé_30427" data-name="Tracé 30427" d="M1498.162,150.14s0-.01,0-.015,0,.018,0,.027Z" transform="translate(-1475.344 -130.589)" fill="#f59a00"/>
    <path id="Tracé_30428" data-name="Tracé 30428" d="M1496.631,150.044l-.968-.034c0-.016,0-.031,0-.047l.968.052Z" transform="translate(-1473.329 -130.459)" fill="#f59a00"/>
    <path id="Tracé_30429" data-name="Tracé 30429" d="M1516.737,68.678l0-.038c-.462-9.858-5.1-14.523-8.9-16.7a20.487,20.487,0,0,0-9.921-2.595h-.3a20.466,20.466,0,0,0-9.9,2.519c-3.858,2.186-8.554,6.871-9.014,16.764l0,.035c-.151,1.532-1.269,15.2,5.8,23.166,3.194,3.615,7.538,5.5,12.921,5.589h.6a16.914,16.914,0,0,0,12.923-5.588c7.077-7.979,5.949-21.635,5.8-23.152m-8.9,20.389h0c-2.461,2.775-5.743,4.142-10.028,4.181h-.193c-4.3-.039-7.581-1.408-10.026-4.185-6.02-6.761-4.836-19.437-4.783-19.973l0-.029a.855.855,0,0,1,.014-.122l.007-.063c.283-5.968,2.317-10.291,6.044-12.849a15.468,15.468,0,0,1,8.719-2.492h.214a16.007,16.007,0,0,1,9.125,2.82c3.482,2.582,5.383,6.8,5.65,12.54l.016.127c.015.129,1.386,13.126-4.761,20.047" transform="translate(-1459.524 -49.345)" fill="#f59a00"/>
    <path id="Tracé_30430" data-name="Tracé 30430" d="M1456.861,324.1v-.069c0-.055,0-.11-.007-.166l0-.027c-.005-.085-.01-.173-.011-.277-.118-3.934-.365-12.121-8.219-14.8l-.073-.022-.085-.025-.025-.007a54.4,54.4,0,0,1-15.748-7.178,2.058,2.058,0,0,0-1.554-.347,2.086,2.086,0,0,0-.837,3.762,58.28,58.28,0,0,0,17.028,7.778l.061.019c4.632,1.657,5.164,6.524,5.3,10.947v.022a3.444,3.444,0,0,0,.014.4l.006.082a34.355,34.355,0,0,1-.4,5.9l-.041.2-.182.1a54.454,54.454,0,0,1-9.97,4.223l-.608.2.011-.638c.023-1.313.038-3.324-.023-5.445-.216-7.527-1.141-9.548-2.017-10.532a1.9,1.9,0,0,0-2.865,2.485l.05.071c.205.365.888,2.05,1.049,8.4.067,2.65.016,5.136-.02,6.381l-.01.348-.338.083a79.758,79.758,0,0,1-37.621-.079l-.336-.084-.01-.346c-.035-1.227-.083-3.675-.019-6.279.16-6.366.844-8.054,1.05-8.42l.049-.071a1.908,1.908,0,0,0-.187-2.641,1.9,1.9,0,0,0-2.678.155c-.876.984-1.8,3-2.017,10.532-.06,2.07-.046,4.046-.025,5.34l.011.641-.609-.2a55.063,55.063,0,0,1-9.719-4.135l-.182-.1-.041-.205a32.754,32.754,0,0,1-.4-5.93c0-.062,0-.142.01-.226v-.023c0-.064.007-.13.007-.193v-.02c.137-4.432.671-9.3,5.3-10.956l.061-.019a58.568,58.568,0,0,0,16.954-7.729l.082-.055a2.085,2.085,0,0,0,.851-1.343,2.057,2.057,0,0,0-.347-1.554,2.091,2.091,0,0,0-2.539-.716l-.029-.029-.333.232a54.172,54.172,0,0,1-15.774,7.187c-.058.014-.1.027-.137.04l-.036.012c-7.834,2.69-8.083,10.854-8.2,14.78v.027a4.46,4.46,0,0,1-.016.46l0,.044c-.012.587-.083,5.813.926,8.365a1.957,1.957,0,0,0,.791.967l.018.011c.133.089,13.606,8.923,36.5,8.923,21.826,0,35.062-8.012,36.5-8.928a2.054,2.054,0,0,0,.8-.968c.772-2.055.911-6.2.872-8.33" transform="translate(-1380.449 -252.328)" fill="#fff"/>
  </g>
</svg>
