<svg xmlns="http://www.w3.org/2000/svg" xmlns:xlink="http://www.w3.org/1999/xlink" width="836.537" height="1045.611" viewBox="0 0 836.537 1045.611">
  <defs>
    <linearGradient id="linear-gradient" x1="0.5" y1="0.205" x2="0.5" y2="1" gradientUnits="objectBoundingBox">
      <stop offset="0" stop-color="#bed000"/>
      <stop offset="1" stop-color="#62aa42"/>
    </linearGradient>
  </defs>
  <path id="shape_1" data-name="shape 1" d="M24597.881,22949.109v0h-.049c-5.238,0-10.656-.072-16.1-.215-21.354-.562-42.08-1.848-61.6-3.818-19.029-1.922-37.467-4.553-54.8-7.82-16.877-3.182-33.176-7.053-48.445-11.508a414.359,414.359,0,0,1-42.535-14.881,347.049,347.049,0,0,1-37.064-17.941,305.806,305.806,0,0,1-32.043-20.689,284.737,284.737,0,0,1-27.463-23.127,281.787,281.787,0,0,1-23.328-25.246,297.649,297.649,0,0,1-19.637-27.057c-5.8-9-11.311-18.607-16.389-28.553-4.793-9.381-9.365-19.385-13.588-29.736-3.936-9.646-7.713-19.943-11.229-30.605-13.594-41.248-22.037-83.752-30.2-124.855l0-.008,0-.012c-9.49-47.773-18.455-92.9-34.461-130.246-20.043-46.76-54.354-93.035-90.678-142.027-20.033-27.014-40.748-54.949-60.2-84.473-10.488-15.918-19.613-30.779-27.9-45.434-9.342-16.52-17.338-32.277-24.445-48.172a464.847,464.847,0,0,1-19.5-51.365c-2.8-8.977-5.3-18.068-7.434-27.023-2.215-9.26-4.111-18.678-5.639-27.992-1.574-9.582-2.807-19.346-3.66-29.02-.877-9.937-1.379-20.064-1.492-30.1-.117-10.314.174-20.826.861-31.242.705-10.7,1.848-21.613,3.4-32.441H24724.5l0,.5,0,1028.941c-9.273,2.615-18.908,4.943-28.635,6.918-9.9,2.008-20.2,3.715-30.609,5.068A524.978,524.978,0,0,1,24597.881,22949.109Z" transform="translate(-23887.965 -21903.498)" fill="url(#linear-gradient)"/>
</svg>
