<svg xmlns="http://www.w3.org/2000/svg" xmlns:xlink="http://www.w3.org/1999/xlink" width="468" height="65" viewBox="0 0 468 65">
  <defs>
    <clipPath id="clip-path">
      <rect id="Rectangle_4282" data-name="Rectangle 4282" width="468" height="65" transform="translate(1149 2144)" fill="#333" stroke="#707070" stroke-width="1"/>
    </clipPath>
  </defs>
  <g id="_2" data-name="///// 2" transform="translate(-1149 -2144)" opacity="0.25" clip-path="url(#clip-path)">
    <g id="Groupe_20324" data-name="Groupe 20324" transform="translate(378.484 -1032.34)">
      <rect id="Rectangle_3644" data-name="Rectangle 3644" width="354.052" height="1.335" transform="translate(646.516 3222.693) rotate(-45)" fill="#333"/>
      <rect id="Rectangle_3645" data-name="Rectangle 3645" width="354.052" height="1.335" transform="translate(651.385 3227.562) rotate(-45)" fill="#333"/>
      <rect id="Rectangle_3646" data-name="Rectangle 3646" width="354.051" height="1.335" transform="translate(656.255 3232.43) rotate(-45)" fill="#333"/>
      <rect id="Rectangle_3647" data-name="Rectangle 3647" width="354.052" height="1.335" transform="translate(661.124 3237.301) rotate(-45)" fill="#333"/>
      <rect id="Rectangle_3648" data-name="Rectangle 3648" width="354.052" height="1.335" transform="translate(665.993 3242.17) rotate(-45)" fill="#333"/>
      <rect id="Rectangle_3649" data-name="Rectangle 3649" width="354.052" height="1.335" transform="translate(670.862 3247.039) rotate(-45)" fill="#333"/>
      <rect id="Rectangle_3650" data-name="Rectangle 3650" width="354.051" height="1.335" transform="translate(675.732 3251.907) rotate(-45)" fill="#333"/>
      <rect id="Rectangle_3651" data-name="Rectangle 3651" width="354.052" height="1.335" transform="translate(680.601 3256.778) rotate(-45)" fill="#333"/>
      <rect id="Rectangle_3652" data-name="Rectangle 3652" width="354.052" height="1.335" transform="translate(685.47 3261.646) rotate(-45)" fill="#333"/>
      <rect id="Rectangle_3653" data-name="Rectangle 3653" width="354.051" height="1.335" transform="translate(690.339 3266.516) rotate(-45)" fill="#333"/>
      <rect id="Rectangle_3654" data-name="Rectangle 3654" width="354.052" height="1.335" transform="translate(695.208 3271.385) rotate(-45)" fill="#333"/>
      <rect id="Rectangle_3655" data-name="Rectangle 3655" width="354.052" height="1.335" transform="translate(700.078 3276.255) rotate(-45)" fill="#333"/>
      <rect id="Rectangle_3656" data-name="Rectangle 3656" width="354.052" height="1.335" transform="translate(704.947 3281.124) rotate(-45)" fill="#333"/>
      <rect id="Rectangle_3657" data-name="Rectangle 3657" width="354.051" height="1.335" transform="translate(709.816 3285.992) rotate(-45)" fill="#333"/>
      <rect id="Rectangle_3658" data-name="Rectangle 3658" width="354.052" height="1.335" transform="translate(714.685 3290.863) rotate(-45)" fill="#333"/>
      <rect id="Rectangle_3659" data-name="Rectangle 3659" width="354.052" height="1.335" transform="translate(719.554 3295.731) rotate(-45)" fill="#333"/>
      <rect id="Rectangle_3660" data-name="Rectangle 3660" width="354.052" height="1.335" transform="translate(724.423 3300.601) rotate(-45)" fill="#333"/>
      <rect id="Rectangle_3661" data-name="Rectangle 3661" width="354.051" height="1.335" transform="translate(729.293 3305.469) rotate(-45)" fill="#333"/>
      <rect id="Rectangle_3662" data-name="Rectangle 3662" width="354.052" height="1.335" transform="translate(734.162 3310.339) rotate(-45)" fill="#333"/>
      <rect id="Rectangle_3663" data-name="Rectangle 3663" width="354.052" height="1.335" transform="translate(739.031 3315.208) rotate(-45)" fill="#333"/>
      <rect id="Rectangle_3664" data-name="Rectangle 3664" width="354.051" height="1.335" transform="translate(743.901 3320.077) rotate(-45)" fill="#333"/>
      <rect id="Rectangle_3665" data-name="Rectangle 3665" width="354.052" height="1.335" transform="translate(748.77 3324.947) rotate(-45)" fill="#333"/>
      <rect id="Rectangle_3666" data-name="Rectangle 3666" width="354.052" height="1.335" transform="translate(753.639 3329.816) rotate(-45)" fill="#333"/>
      <rect id="Rectangle_3667" data-name="Rectangle 3667" width="354.052" height="1.335" transform="translate(758.508 3334.685) rotate(-45)" fill="#333"/>
      <rect id="Rectangle_3668" data-name="Rectangle 3668" width="354.051" height="1.335" transform="translate(763.378 3339.553) rotate(-45)" fill="#333"/>
      <rect id="Rectangle_3669" data-name="Rectangle 3669" width="354.052" height="1.335" transform="translate(768.247 3344.424) rotate(-45)" fill="#333"/>
      <rect id="Rectangle_3670" data-name="Rectangle 3670" width="354.052" height="1.335" transform="translate(773.116 3349.292) rotate(-45)" fill="#333"/>
      <rect id="Rectangle_3671" data-name="Rectangle 3671" width="354.051" height="1.335" transform="translate(777.986 3354.161) rotate(-45)" fill="#333"/>
      <rect id="Rectangle_3672" data-name="Rectangle 3672" width="354.052" height="1.335" transform="translate(782.855 3359.031) rotate(-45)" fill="#333"/>
      <rect id="Rectangle_3673" data-name="Rectangle 3673" width="354.052" height="1.335" transform="translate(787.724 3363.901) rotate(-45)" fill="#333"/>
      <rect id="Rectangle_3674" data-name="Rectangle 3674" width="354.052" height="1.335" transform="translate(792.593 3368.77) rotate(-45)" fill="#333"/>
      <rect id="Rectangle_3675" data-name="Rectangle 3675" width="354.051" height="1.335" transform="translate(797.462 3373.638) rotate(-45)" fill="#333"/>
      <rect id="Rectangle_3676" data-name="Rectangle 3676" width="354.052" height="1.335" transform="translate(802.332 3378.509) rotate(-45)" fill="#333"/>
      <rect id="Rectangle_3677" data-name="Rectangle 3677" width="354.052" height="1.335" transform="translate(807.201 3383.377) rotate(-45)" fill="#333"/>
      <rect id="Rectangle_3678" data-name="Rectangle 3678" width="354.052" height="1.335" transform="translate(812.07 3388.247) rotate(-45)" fill="#333"/>
      <rect id="Rectangle_3679" data-name="Rectangle 3679" width="354.051" height="1.335" transform="translate(816.939 3393.115) rotate(-45)" fill="#333"/>
      <rect id="Rectangle_3680" data-name="Rectangle 3680" width="354.052" height="1.335" transform="translate(821.808 3397.986) rotate(-45)" fill="#333"/>
      <rect id="Rectangle_3681" data-name="Rectangle 3681" width="354.052" height="1.335" transform="translate(826.677 3402.854) rotate(-45)" fill="#333"/>
      <rect id="Rectangle_3682" data-name="Rectangle 3682" width="354.051" height="1.335" transform="translate(831.547 3407.723) rotate(-45)" fill="#333"/>
      <rect id="Rectangle_3683" data-name="Rectangle 3683" width="354.052" height="1.335" transform="translate(836.416 3412.594) rotate(-45)" fill="#333"/>
      <rect id="Rectangle_3684" data-name="Rectangle 3684" width="354.052" height="1.335" transform="translate(841.285 3417.463) rotate(-45)" fill="#333"/>
      <rect id="Rectangle_3685" data-name="Rectangle 3685" width="354.052" height="1.335" transform="translate(846.154 3422.332) rotate(-45)" fill="#333"/>
      <rect id="Rectangle_3686" data-name="Rectangle 3686" width="354.051" height="1.335" transform="translate(851.024 3427.2) rotate(-45)" fill="#333"/>
      <rect id="Rectangle_3687" data-name="Rectangle 3687" width="354.052" height="1.335" transform="translate(855.893 3432.07) rotate(-45)" fill="#333"/>
      <rect id="Rectangle_3688" data-name="Rectangle 3688" width="354.052" height="1.335" transform="translate(860.762 3436.938) rotate(-45)" fill="#333"/>
      <rect id="Rectangle_3689" data-name="Rectangle 3689" width="354.051" height="1.335" transform="translate(865.632 3441.807) rotate(-45)" fill="#333"/>
      <rect id="Rectangle_3690" data-name="Rectangle 3690" width="354.052" height="1.335" transform="translate(870.501 3446.677) rotate(-45)" fill="#333"/>
      <rect id="Rectangle_3691" data-name="Rectangle 3691" width="354.052" height="1.335" transform="translate(875.37 3451.547) rotate(-45)" fill="#333"/>
      <rect id="Rectangle_3692" data-name="Rectangle 3692" width="354.052" height="1.335" transform="translate(880.239 3456.416) rotate(-45)" fill="#333"/>
      <rect id="Rectangle_3693" data-name="Rectangle 3693" width="354.051" height="1.335" transform="translate(885.109 3461.284) rotate(-45)" fill="#333"/>
      <rect id="Rectangle_3694" data-name="Rectangle 3694" width="354.052" height="1.335" transform="translate(889.978 3466.155) rotate(-45)" fill="#333"/>
      <rect id="Rectangle_3695" data-name="Rectangle 3695" width="354.052" height="1.335" transform="translate(894.847 3471.024) rotate(-45)" fill="#333"/>
      <rect id="Rectangle_3644-2" data-name="Rectangle 3644" width="354.052" height="1.335" transform="translate(938.678 3222.693) rotate(-45)" fill="#333"/>
      <rect id="Rectangle_3645-2" data-name="Rectangle 3645" width="354.052" height="1.335" transform="translate(943.547 3227.562) rotate(-45)" fill="#333"/>
      <rect id="Rectangle_3646-2" data-name="Rectangle 3646" width="354.051" height="1.335" transform="translate(948.417 3232.43) rotate(-45)" fill="#333"/>
      <rect id="Rectangle_3647-2" data-name="Rectangle 3647" width="354.052" height="1.335" transform="translate(953.286 3237.301) rotate(-45)" fill="#333"/>
      <rect id="Rectangle_3648-2" data-name="Rectangle 3648" width="354.052" height="1.335" transform="translate(958.155 3242.17) rotate(-45)" fill="#333"/>
      <rect id="Rectangle_3649-2" data-name="Rectangle 3649" width="354.052" height="1.335" transform="translate(963.024 3247.039) rotate(-45)" fill="#333"/>
      <rect id="Rectangle_3650-2" data-name="Rectangle 3650" width="354.051" height="1.335" transform="translate(967.894 3251.907) rotate(-45)" fill="#333"/>
      <rect id="Rectangle_3651-2" data-name="Rectangle 3651" width="354.052" height="1.335" transform="translate(972.763 3256.778) rotate(-45)" fill="#333"/>
      <rect id="Rectangle_3652-2" data-name="Rectangle 3652" width="354.052" height="1.335" transform="translate(977.632 3261.646) rotate(-45)" fill="#333"/>
      <rect id="Rectangle_3653-2" data-name="Rectangle 3653" width="354.051" height="1.335" transform="translate(982.501 3266.516) rotate(-45)" fill="#333"/>
      <rect id="Rectangle_3654-2" data-name="Rectangle 3654" width="354.052" height="1.335" transform="translate(987.37 3271.385) rotate(-45)" fill="#333"/>
      <rect id="Rectangle_3655-2" data-name="Rectangle 3655" width="354.052" height="1.335" transform="translate(992.24 3276.255) rotate(-45)" fill="#333"/>
      <rect id="Rectangle_3656-2" data-name="Rectangle 3656" width="354.052" height="1.335" transform="translate(997.109 3281.124) rotate(-45)" fill="#333"/>
      <rect id="Rectangle_3657-2" data-name="Rectangle 3657" width="354.051" height="1.335" transform="translate(1001.978 3285.992) rotate(-45)" fill="#333"/>
      <rect id="Rectangle_3658-2" data-name="Rectangle 3658" width="354.052" height="1.335" transform="translate(1006.847 3290.863) rotate(-45)" fill="#333"/>
      <rect id="Rectangle_3659-2" data-name="Rectangle 3659" width="354.052" height="1.335" transform="translate(1011.716 3295.731) rotate(-45)" fill="#333"/>
      <rect id="Rectangle_3660-2" data-name="Rectangle 3660" width="354.052" height="1.335" transform="translate(1016.585 3300.601) rotate(-45)" fill="#333"/>
      <rect id="Rectangle_3661-2" data-name="Rectangle 3661" width="354.051" height="1.335" transform="translate(1021.455 3305.469) rotate(-45)" fill="#333"/>
      <rect id="Rectangle_3662-2" data-name="Rectangle 3662" width="354.052" height="1.335" transform="translate(1026.324 3310.339) rotate(-45)" fill="#333"/>
      <rect id="Rectangle_3663-2" data-name="Rectangle 3663" width="354.052" height="1.335" transform="translate(1031.193 3315.208) rotate(-45)" fill="#333"/>
      <rect id="Rectangle_3664-2" data-name="Rectangle 3664" width="354.051" height="1.335" transform="translate(1036.063 3320.077) rotate(-45)" fill="#333"/>
      <rect id="Rectangle_3665-2" data-name="Rectangle 3665" width="354.052" height="1.335" transform="translate(1040.932 3324.947) rotate(-45)" fill="#333"/>
      <rect id="Rectangle_3666-2" data-name="Rectangle 3666" width="354.052" height="1.335" transform="translate(1045.801 3329.816) rotate(-45)" fill="#333"/>
      <rect id="Rectangle_3667-2" data-name="Rectangle 3667" width="354.052" height="1.335" transform="translate(1050.67 3334.685) rotate(-45)" fill="#333"/>
      <rect id="Rectangle_3668-2" data-name="Rectangle 3668" width="354.051" height="1.335" transform="translate(1055.54 3339.553) rotate(-45)" fill="#333"/>
      <rect id="Rectangle_3669-2" data-name="Rectangle 3669" width="354.052" height="1.335" transform="translate(1060.409 3344.424) rotate(-45)" fill="#333"/>
      <rect id="Rectangle_3670-2" data-name="Rectangle 3670" width="354.052" height="1.335" transform="translate(1065.278 3349.292) rotate(-45)" fill="#333"/>
      <rect id="Rectangle_3671-2" data-name="Rectangle 3671" width="354.051" height="1.335" transform="translate(1070.148 3354.161) rotate(-45)" fill="#333"/>
      <rect id="Rectangle_3672-2" data-name="Rectangle 3672" width="354.052" height="1.335" transform="translate(1075.017 3359.031) rotate(-45)" fill="#333"/>
      <rect id="Rectangle_3673-2" data-name="Rectangle 3673" width="354.052" height="1.335" transform="translate(1079.886 3363.901) rotate(-45)" fill="#333"/>
      <rect id="Rectangle_3674-2" data-name="Rectangle 3674" width="354.052" height="1.335" transform="translate(1084.755 3368.77) rotate(-45)" fill="#333"/>
      <rect id="Rectangle_3675-2" data-name="Rectangle 3675" width="354.051" height="1.335" transform="translate(1089.624 3373.638) rotate(-45)" fill="#333"/>
      <rect id="Rectangle_3676-2" data-name="Rectangle 3676" width="354.052" height="1.335" transform="translate(1094.494 3378.509) rotate(-45)" fill="#333"/>
      <rect id="Rectangle_3677-2" data-name="Rectangle 3677" width="354.052" height="1.335" transform="translate(1099.363 3383.377) rotate(-45)" fill="#333"/>
      <rect id="Rectangle_3678-2" data-name="Rectangle 3678" width="354.052" height="1.335" transform="translate(1104.232 3388.247) rotate(-45)" fill="#333"/>
      <rect id="Rectangle_3679-2" data-name="Rectangle 3679" width="354.051" height="1.335" transform="translate(1109.101 3393.115) rotate(-45)" fill="#333"/>
      <rect id="Rectangle_3680-2" data-name="Rectangle 3680" width="354.052" height="1.335" transform="translate(1113.97 3397.986) rotate(-45)" fill="#333"/>
      <rect id="Rectangle_3681-2" data-name="Rectangle 3681" width="354.052" height="1.335" transform="translate(1118.839 3402.854) rotate(-45)" fill="#333"/>
      <rect id="Rectangle_3682-2" data-name="Rectangle 3682" width="354.051" height="1.335" transform="translate(1123.709 3407.724) rotate(-45)" fill="#333"/>
      <rect id="Rectangle_3683-2" data-name="Rectangle 3683" width="354.052" height="1.335" transform="translate(1128.578 3412.594) rotate(-45)" fill="#333"/>
      <rect id="Rectangle_3684-2" data-name="Rectangle 3684" width="354.052" height="1.335" transform="translate(1133.447 3417.463) rotate(-45)" fill="#333"/>
      <rect id="Rectangle_3685-2" data-name="Rectangle 3685" width="354.052" height="1.335" transform="translate(1138.316 3422.332) rotate(-45)" fill="#333"/>
      <rect id="Rectangle_3686-2" data-name="Rectangle 3686" width="354.051" height="1.335" transform="translate(1143.186 3427.2) rotate(-45)" fill="#333"/>
      <rect id="Rectangle_3687-2" data-name="Rectangle 3687" width="354.052" height="1.335" transform="translate(1148.055 3432.07) rotate(-45)" fill="#333"/>
      <rect id="Rectangle_3688-2" data-name="Rectangle 3688" width="354.052" height="1.335" transform="translate(1152.924 3436.938) rotate(-45)" fill="#333"/>
      <rect id="Rectangle_3689-2" data-name="Rectangle 3689" width="354.051" height="1.335" transform="translate(1157.794 3441.808) rotate(-45)" fill="#333"/>
      <rect id="Rectangle_3690-2" data-name="Rectangle 3690" width="354.052" height="1.335" transform="translate(1162.663 3446.677) rotate(-45)" fill="#333"/>
      <rect id="Rectangle_3691-2" data-name="Rectangle 3691" width="354.052" height="1.335" transform="translate(1167.532 3451.547) rotate(-45)" fill="#333"/>
      <rect id="Rectangle_3692-2" data-name="Rectangle 3692" width="354.052" height="1.335" transform="translate(1172.401 3456.416) rotate(-45)" fill="#333"/>
      <rect id="Rectangle_3693-2" data-name="Rectangle 3693" width="354.051" height="1.335" transform="translate(1177.271 3461.284) rotate(-45)" fill="#333"/>
      <rect id="Rectangle_3694-2" data-name="Rectangle 3694" width="354.052" height="1.335" transform="translate(1182.14 3466.155) rotate(-45)" fill="#333"/>
      <rect id="Rectangle_3695-2" data-name="Rectangle 3695" width="354.052" height="1.335" transform="translate(1187.009 3471.024) rotate(-45)" fill="#333"/>
    </g>
  </g>
</svg>
