<svg xmlns="http://www.w3.org/2000/svg" width="174" height="69" viewBox="0 0 174 69">
  <g id="dot_1" data-name="dot 1" transform="translate(-5408 -243)">
    <circle id="Ellipse_29" data-name="Ellipse 29" cx="3" cy="3" r="3" transform="translate(5408 243)" fill="#fff"/>
    <circle id="Ellipse_29-2" data-name="Ellipse 29" cx="3" cy="3" r="3" transform="translate(5429 243)" fill="#fff"/>
    <circle id="Ellipse_29-3" data-name="Ellipse 29" cx="3" cy="3" r="3" transform="translate(5450 243)" fill="#fff"/>
    <circle id="Ellipse_29-4" data-name="Ellipse 29" cx="3" cy="3" r="3" transform="translate(5471 243)" fill="#fff"/>
    <circle id="Ellipse_29-5" data-name="Ellipse 29" cx="3" cy="3" r="3" transform="translate(5492 243)" fill="#fff"/>
    <circle id="Ellipse_29-6" data-name="Ellipse 29" cx="3" cy="3" r="3" transform="translate(5513 243)" fill="#fff"/>
    <circle id="Ellipse_29-7" data-name="Ellipse 29" cx="3" cy="3" r="3" transform="translate(5534 243)" fill="#fff"/>
    <circle id="Ellipse_29-8" data-name="Ellipse 29" cx="3" cy="3" r="3" transform="translate(5555 243)" fill="#fff"/>
    <circle id="Ellipse_29-9" data-name="Ellipse 29" cx="3" cy="3" r="3" transform="translate(5576 243)" fill="#fff"/>
    <circle id="Ellipse_29-10" data-name="Ellipse 29" cx="3" cy="3" r="3" transform="translate(5408 264)" fill="#fff"/>
    <circle id="Ellipse_29-11" data-name="Ellipse 29" cx="3" cy="3" r="3" transform="translate(5429 264)" fill="#fff"/>
    <circle id="Ellipse_29-12" data-name="Ellipse 29" cx="3" cy="3" r="3" transform="translate(5450 264)" fill="#fff"/>
    <circle id="Ellipse_29-13" data-name="Ellipse 29" cx="3" cy="3" r="3" transform="translate(5471 264)" fill="#fff"/>
    <circle id="Ellipse_29-14" data-name="Ellipse 29" cx="3" cy="3" r="3" transform="translate(5492 264)" fill="#fff"/>
    <circle id="Ellipse_29-15" data-name="Ellipse 29" cx="3" cy="3" r="3" transform="translate(5513 264)" fill="#fff"/>
    <circle id="Ellipse_29-16" data-name="Ellipse 29" cx="3" cy="3" r="3" transform="translate(5534 264)" fill="#fff"/>
    <circle id="Ellipse_29-17" data-name="Ellipse 29" cx="3" cy="3" r="3" transform="translate(5555 264)" fill="#fff"/>
    <circle id="Ellipse_29-18" data-name="Ellipse 29" cx="3" cy="3" r="3" transform="translate(5576 264)" fill="#fff"/>
    <circle id="Ellipse_29-19" data-name="Ellipse 29" cx="3" cy="3" r="3" transform="translate(5408 285)" fill="#fff"/>
    <circle id="Ellipse_29-20" data-name="Ellipse 29" cx="3" cy="3" r="3" transform="translate(5429 285)" fill="#fff"/>
    <circle id="Ellipse_29-21" data-name="Ellipse 29" cx="3" cy="3" r="3" transform="translate(5450 285)" fill="#fff"/>
    <circle id="Ellipse_29-22" data-name="Ellipse 29" cx="3" cy="3" r="3" transform="translate(5471 285)" fill="#fff"/>
    <circle id="Ellipse_29-23" data-name="Ellipse 29" cx="3" cy="3" r="3" transform="translate(5492 285)" fill="#fff"/>
    <circle id="Ellipse_29-24" data-name="Ellipse 29" cx="3" cy="3" r="3" transform="translate(5513 285)" fill="#fff"/>
    <circle id="Ellipse_29-25" data-name="Ellipse 29" cx="3" cy="3" r="3" transform="translate(5534 285)" fill="#fff"/>
    <circle id="Ellipse_29-26" data-name="Ellipse 29" cx="3" cy="3" r="3" transform="translate(5555 285)" fill="#fff"/>
    <circle id="Ellipse_29-27" data-name="Ellipse 29" cx="3" cy="3" r="3" transform="translate(5576 285)" fill="#fff"/>
    <circle id="Ellipse_29-28" data-name="Ellipse 29" cx="3" cy="3" r="3" transform="translate(5408 306)" fill="#fff"/>
    <circle id="Ellipse_29-29" data-name="Ellipse 29" cx="3" cy="3" r="3" transform="translate(5429 306)" fill="#fff"/>
    <circle id="Ellipse_29-30" data-name="Ellipse 29" cx="3" cy="3" r="3" transform="translate(5450 306)" fill="#fff"/>
    <circle id="Ellipse_29-31" data-name="Ellipse 29" cx="3" cy="3" r="3" transform="translate(5471 306)" fill="#fff"/>
    <circle id="Ellipse_29-32" data-name="Ellipse 29" cx="3" cy="3" r="3" transform="translate(5492 306)" fill="#fff"/>
    <circle id="Ellipse_29-33" data-name="Ellipse 29" cx="3" cy="3" r="3" transform="translate(5513 306)" fill="#fff"/>
    <circle id="Ellipse_29-34" data-name="Ellipse 29" cx="3" cy="3" r="3" transform="translate(5534 306)" fill="#fff"/>
    <circle id="Ellipse_29-35" data-name="Ellipse 29" cx="3" cy="3" r="3" transform="translate(5555 306)" fill="#fff"/>
    <circle id="Ellipse_29-36" data-name="Ellipse 29" cx="3" cy="3" r="3" transform="translate(5576 306)" fill="#fff"/>
  </g>
</svg>
