<svg xmlns="http://www.w3.org/2000/svg" width="35.899" height="26.099" viewBox="0 0 35.899 26.099"><defs><style>.a{fill:#1f1f1f;}</style></defs><g transform="translate(0)"><path class="a" d="M192.682,289H159.217A1.217,1.217,0,0,0,158,290.217v23.664a1.217,1.217,0,0,0,1.217,1.217h33.464a1.217,1.217,0,0,0,1.217-1.217V290.217A1.217,1.217,0,0,0,192.682,289Zm-1.217,23.664h-31.03V291.435h31.03Zm0,0" transform="translate(-158 -289)"/><path class="a" d="M200.027,339.843l11.686,7.2a1.216,1.216,0,0,0,1.277,0l11.686-7.2a1.217,1.217,0,1,0-1.277-2.073l-11.048,6.807L201.3,337.771a1.217,1.217,0,0,0-1.277,2.073Zm0,0" transform="translate(-194.403 -331.674)"/></g></svg>