<svg xmlns="http://www.w3.org/2000/svg" width="35" height="35" viewBox="0 0 35 35"><defs><style>.a{fill:#39579a;}.b{fill:#494b52;}</style></defs><circle class="a" cx="0.5" cy="0.5" r="0.5" transform="translate(17.04 17.04)"/><path class="b" d="M-1514.927-1753.319h-14.147a10.439,10.439,0,0,0-10.427,10.427v14.147a10.438,10.438,0,0,0,10.427,10.427h14.147a10.438,10.438,0,0,0,10.427-10.427v-14.147A10.438,10.438,0,0,0-1514.927-1753.319Zm6.906,24.574a6.906,6.906,0,0,1-6.906,6.906h-5.343l.018-10.47h3.853a.684.684,0,0,0,.679-.6l.426-3.6a.684.684,0,0,0-.679-.764h-4.3v-3.008c0-1.363.379-2.293,2.334-2.293h1.811a.684.684,0,0,0,.683-.684v-3.031a.684.684,0,0,0-.684-.684h-2.951c-3.6,0-6.058,2.195-6.058,6.226v3.474h-2.892a.683.683,0,0,0-.683.686l.013,3.6a.684.684,0,0,0,.683.681h2.9l-.018,10.47h-3.94a6.906,6.906,0,0,1-6.906-6.906v-14.147a6.906,6.906,0,0,1,6.906-6.906h14.147a6.906,6.906,0,0,1,6.906,6.906Z" transform="translate(1539.5 1753.319)"/></svg>