<svg xmlns="http://www.w3.org/2000/svg" width="35" height="35" viewBox="0 0 35 35"><defs><style>.a{fill:#0e76a8;}.b{fill:#494b52;}</style></defs><circle class="a" cx="0.5" cy="0.5" r="0.5" transform="translate(17.026 17.026)"/><path class="b" d="M-32.394-1753.319H-46.54a10.438,10.438,0,0,0-10.427,10.427v14.147a10.438,10.438,0,0,0,10.427,10.426h14.147a10.438,10.438,0,0,0,10.427-10.426v-14.147A10.438,10.438,0,0,0-32.394-1753.319Zm0,31.479H-46.54a6.906,6.906,0,0,1-6.906-6.906v-14.147a6.906,6.906,0,0,1,6.906-6.905h14.147a6.906,6.906,0,0,1,6.906,6.905v14.147A6.906,6.906,0,0,1-32.394-1721.84Z" transform="translate(56.967 1753.319)"/><rect class="b" width="3.454" height="10.955" rx="1.727" transform="translate(9.457 14.983)"/><circle class="b" cx="2.232" cy="2.232" r="2.232" transform="translate(8.936 8.878)"/><path class="b" d="M181.582-1527.2a3.463,3.463,0,0,0-3.256,1.532v-.859a.508.508,0,0,0-.508-.508H175.38a.508.508,0,0,0-.508.508v9.94a.507.507,0,0,0,.508.508h2.439a.507.507,0,0,0,.508-.508v-5.329c.063-.716.379-2.312,1.933-2.312,2,0,1.8,2.331,1.8,3.021v4.62a.507.507,0,0,0,.508.508h2.522a.507.507,0,0,0,.508-.508v-4.768C185.6-1523.43,185.62-1527.2,181.582-1527.2Z" transform="translate(-159.71 1542.014)"/></svg>