<svg xmlns="http://www.w3.org/2000/svg" xmlns:xlink="http://www.w3.org/1999/xlink" width="35" height="35" viewBox="0 0 35 35"><defs><style>.a{fill:url(#a);}.b{fill:#fff;}.c{fill:#494b52;}</style><linearGradient id="a" x1="0.195" y1="1" x2="0.896" y2="0.262" gradientUnits="objectBoundingBox"><stop offset="0" stop-color="#ffd500"/><stop offset="0.502" stop-color="#f40000"/><stop offset="1" stop-color="#ce00bd"/></linearGradient></defs><circle class="a" cx="0.5" cy="0.5" r="0.5" transform="translate(16.993 16.993)"/><circle class="b" cx="9.504" cy="9.504" r="9.504" transform="translate(7.996 7.996)"/><path class="c" d="M1433.336-1753.318H1419.19a10.438,10.438,0,0,0-10.427,10.426v14.147a10.439,10.439,0,0,0,10.427,10.427h14.147a10.439,10.439,0,0,0,10.427-10.427v-14.147A10.438,10.438,0,0,0,1433.336-1753.318Zm6.906,24.573a6.906,6.906,0,0,1-6.906,6.906H1419.19a6.905,6.905,0,0,1-6.906-6.906v-14.147a6.905,6.905,0,0,1,6.906-6.905h14.147a6.906,6.906,0,0,1,6.906,6.905v14.147Z" transform="translate(-1408.763 1753.318)"/><path class="c" d="M1551.331-1620.319a9.579,9.579,0,0,0-9.568,9.568,9.58,9.58,0,0,0,9.568,9.569,9.579,9.579,0,0,0,9.568-9.569A9.579,9.579,0,0,0,1551.331-1620.319Zm0,15.415a5.847,5.847,0,0,1-5.847-5.847,5.847,5.847,0,0,1,5.847-5.847,5.847,5.847,0,0,1,5.847,5.847A5.847,5.847,0,0,1,1551.331-1604.9Z" transform="translate(-1533.831 1628.251)"/><circle class="c" cx="2.037" cy="2.037" r="2.037" transform="translate(24.612 6.402)"/></svg>