<svg xmlns="http://www.w3.org/2000/svg" width="35" height="35" viewBox="0 0 35 35"><defs><style>.a{fill:#23cbff;}.b{fill:#494b52;}</style></defs><circle class="a" cx="0.5" cy="0.5" r="0.5" transform="translate(17 17)"/><path class="b" d="M-772.965-1753.319h-14.147a10.438,10.438,0,0,0-10.427,10.427v14.147a10.439,10.439,0,0,0,10.427,10.427h14.147a10.439,10.439,0,0,0,10.427-10.427v-14.147A10.439,10.439,0,0,0-772.965-1753.319Zm0,31.479h-14.147a6.905,6.905,0,0,1-6.906-6.905v-14.147a6.905,6.905,0,0,1,6.906-6.906h14.147a6.906,6.906,0,0,1,6.906,6.906v14.147A6.906,6.906,0,0,1-772.965-1721.84Z" transform="translate(797.538 1753.319)"/><path class="b" d="M-652.669-1601.176a8.718,8.718,0,0,1-1.385.417,3.829,3.829,0,0,0,1.14-1.621c.063-.177-.152-.33-.331-.235a8.56,8.56,0,0,1-2.116.782.623.623,0,0,1-.132.014.6.6,0,0,1-.371-.126,4.638,4.638,0,0,0-2.864-.966,5.136,5.136,0,0,0-1.371.189,3.954,3.954,0,0,0-2.826,2.7,3.7,3.7,0,0,0-.1,1.424.131.131,0,0,1-.039.108.169.169,0,0,1-.12.048h-.015a11.8,11.8,0,0,1-7.8-3.723.242.242,0,0,0-.371.025,3.554,3.554,0,0,0-.586,1.944,3.671,3.671,0,0,0,1.29,2.757,4.146,4.146,0,0,1-.987-.342.227.227,0,0,0-.336.174,3.868,3.868,0,0,0,2.528,3.568h-.093a4.3,4.3,0,0,1-.729-.062.212.212,0,0,0-.258.26,4.227,4.227,0,0,0,3.427,2.637,8.677,8.677,0,0,1-4.474,1.214h-.5a.327.327,0,0,0-.324.223.3.3,0,0,0,.164.339,12.988,12.988,0,0,0,5.97,1.438,13.266,13.266,0,0,0,5.1-.967,11.253,11.253,0,0,0,3.733-2.5,10.784,10.784,0,0,0,2.286-3.42,9.792,9.792,0,0,0,.777-3.743v-.059a.635.635,0,0,1,.275-.513,8.017,8.017,0,0,0,1.721-1.688C-652.263-1601.047-652.462-1601.259-652.669-1601.176Z" transform="translate(679.888 1612.951)"/></svg>