<svg id="logo_deep_flow" data-name="logo deep flow" xmlns="http://www.w3.org/2000/svg" xmlns:xlink="http://www.w3.org/1999/xlink" width="464.974" height="110.318" viewBox="0 0 464.974 110.318">
  <defs>
    <clipPath id="clip-path">
      <rect id="Rectangle_3907" data-name="Rectangle 3907" width="464.974" height="110.318" transform="translate(0 0)" fill="none"/>
    </clipPath>
  </defs>
  <g id="Groupe_18665" data-name="Groupe 18665" clip-path="url(#clip-path)">
    <path id="Tracé_30103" data-name="Tracé 30103" d="M101.474,64.875c-5.641-1.41-11.542-1.82-17.285-2.556q-1.242-.164-2.5-.318v0l-.2-.023q-.856-.105-1.718-.2l-.368-.04c-.489-.054-.979-.107-1.469-.156h0l-9.6-1.073L83.41,59.216l-.045-.027c3.477-.26,6.98-.974,9.668-2.952,3.494-2.505,4.3-6.43,4.875-10.446,1.37-9.567-2.415-20.061-6.622-28.5C88.139,10.985,83.23,1.987,75.755.258c-9.343-2.116-12.36,9.289-14.063,16.1C60.282,22,59.872,27.9,59.136,33.645c-.109.828-.215,1.664-.318,2.5h0l-.023.2q-.1.857-.2,1.718c-.014.123-.026.246-.04.369-.054.489-.107.978-.156,1.469h0l-.9,8.042-.608-7.136c-.044-.635-.1-1.268-.162-1.9l-.009-.1h0c-.263-2.634-.66-5.27-1.022-7.988a60.731,60.731,0,0,0-3.738-15.883A28.649,28.649,0,0,0,48.2,7.932C41.495-.75,30.632,4.088,23.46,9.644,13.389,17.447,1.4,34.092,11.1,46.705a26.142,26.142,0,0,0,7.227,6.043c4.9,3.024,10.744,4.795,16.35,6,1.11.239,2.226.486,3.347.719v.005a62.74,62.74,0,0,0,6.429.889l-6.817.581c-.635.044-1.268.1-1.9.161l-.1.009h0c-2.634.263-5.27.661-7.988,1.023a60.729,60.729,0,0,0-15.883,3.737,28.649,28.649,0,0,0-7.007,3.757C-3.933,76.339.906,87.2,6.461,94.374c7.8,10.071,24.448,22.058,37.061,12.366a26.114,26.114,0,0,0,6.043-7.228c3.024-4.9,4.8-10.744,6.005-16.35.24-1.109.485-2.226.719-3.347h.006a72.1,72.1,0,0,0,1.048-8.147l1.275,14.924.028-.045c.259,3.477.973,6.979,2.951,9.668,2.5,3.494,6.43,4.3,10.447,4.875,9.566,1.37,20.06-2.414,28.5-6.621,6.311-3.148,15.308-8.058,17.038-15.532,2.116-9.343-9.289-12.36-16.1-14.063M58.836,57.034c0,.02,0,.04.005.059l1.7-15.211v.012c.247-2.916.533-5.848.88-8.776q.194-1.639.416-3.275c.037-.273.074-.545.112-.818q.113-.8.23-1.592.167-1.1.348-2.2.081-.5.167-.992.224-1.295.47-2.582c.035-.184.073-.367.109-.55.191-.965.389-1.927.6-2.882,1.122-5.018,2.5-12.056,7.2-14.948,2.584-1.664,5.268-.333,7.474,1.291C83.23,8.037,86.9,14.025,89.4,19.163c3.468,7.215,6.592,15.7,6.432,23.825-.077,3.935-1.07,8.408-4.24,10.962-2.1,1.737-4.854,2.118-7.431,2.639-1.215.267-2.46.485-3.714.681v0l-.044,0c-.1.016-.2.035-.308.051L68.3,58.333c-.04,0-.08,0-.121,0l-3.927.34,0,0-5.646.481ZM12.857,44.369C4.252,32.377,17.266,17.444,26.73,10.693c3.6-2.569,9.811-6.646,14.482-4.864C46.331,7.8,49,13.82,50.541,18.677a111.7,111.7,0,0,1,3.993,20.136L56.26,59l-.017.152L38.286,57.145c-9.453-1.882-19.9-5.075-25.429-12.776m41.105,35.18C52.08,89,48.887,99.452,41.186,104.978c-11.992,8.6-26.925-4.41-33.676-13.874C4.941,87.5.864,81.294,2.646,76.622c1.966-5.119,7.991-7.784,12.847-9.329A111.744,111.744,0,0,1,35.63,63.3l20.343-1.74Zm59.3,2.192c-3.466,4.671-9.454,8.341-14.592,10.845-7.214,3.468-15.7,6.592-23.825,6.432-3.934-.077-8.408-1.07-10.962-4.24-1.736-2.1-2.118-4.854-2.639-7.431-.266-1.215-.484-2.46-.681-3.715l0,0,0-.044c-.016-.1-.035-.2-.05-.308L59.5,71.481l0-.121-.34-3.927v0l-.481-5.645,2.124.227-.059,0,15.211,1.7h-.011c2.916.247,5.847.534,8.775.88q1.639.193,3.276.416c.272.037.545.074.817.113.531.074,1.062.149,1.592.229q1.1.167,2.2.348c.331.054.662.111.993.167.863.15,1.724.3,2.582.47l.55.109c.964.191,1.926.388,2.881.6,5.018,1.123,12.056,2.5,14.949,7.206,1.664,2.584.333,5.268-1.291,7.474" fill="#545454"/>
    <path id="Tracé_30104" data-name="Tracé 30104" d="M94.836,64.047c-4.761-1.19-9.741-1.535-14.589-2.157-.7-.092-1.4-.182-2.111-.269h0l-.173-.019q-.723-.089-1.449-.171L76.2,61.4c-.413-.045-.826-.09-1.24-.131h0l-8.1-.906,12.727-1.088-.037-.023c2.934-.219,5.89-.822,8.159-2.491,2.95-2.115,3.629-5.427,4.115-8.817,1.156-8.074-2.038-16.932-5.589-24.052-2.656-5.326-6.8-12.92-13.108-14.38C65.243,7.722,62.7,17.348,61.259,23.1c-1.19,4.761-1.536,9.741-2.158,14.588-.091.7-.181,1.4-.268,2.112h0l-.019.172q-.089.723-.171,1.45l-.033.312c-.046.413-.091.825-.132,1.239h0l-.759,6.788L57.2,43.738c-.037-.535-.084-1.07-.137-1.6l-.007-.086h0c-.222-2.223-.557-4.449-.863-6.742A51.272,51.272,0,0,0,53.042,21.9a24.189,24.189,0,0,0-3.172-5.914c-5.658-7.328-14.827-3.245-20.88,1.445-8.5,6.585-18.618,20.635-10.437,31.28a22.047,22.047,0,0,0,6.1,5.1,44.152,44.152,0,0,0,13.8,5.069c.937.2,1.879.41,2.825.607v.005a53.262,53.262,0,0,0,5.425.749l-5.753.491c-.536.037-1.07.084-1.6.136l-.087.008h0c-2.223.221-4.448.557-6.742.863a51.265,51.265,0,0,0-13.4,3.154A24.158,24.158,0,0,0,13.2,68.065c-7.328,5.658-3.244,14.828,1.445,20.881,6.586,8.5,20.635,18.618,31.281,10.437a22.078,22.078,0,0,0,5.1-6.1,44.186,44.186,0,0,0,5.069-13.8c.2-.937.409-1.879.607-2.825h0a60.606,60.606,0,0,0,.885-6.876l1.077,12.6.023-.038c.219,2.934.821,5.891,2.491,8.16,2.114,2.95,5.427,3.629,8.817,4.115,8.074,1.156,16.932-2.038,24.051-5.589,5.326-2.657,12.921-6.8,14.38-13.109,1.786-7.885-7.84-10.432-13.591-11.87M58.848,57.429c0,.017,0,.034,0,.05L60.289,44.64v.011c.21-2.462.451-4.936.744-7.407q.162-1.385.351-2.765c.031-.23.062-.46.1-.69q.093-.672.194-1.343.139-.93.293-1.856.069-.418.141-.837.189-1.094.4-2.18c.03-.155.061-.31.092-.464.161-.814.328-1.626.508-2.432.948-4.236,2.109-10.176,6.082-12.617,2.182-1.4,4.447-.281,6.308,1.09,3.943,2.925,7.04,7.978,9.154,12.316,2.927,6.088,5.564,13.251,5.429,20.108-.065,3.321-.9,7.1-3.58,9.252-1.773,1.466-4.1,1.788-6.271,2.228-1.026.225-2.076.409-3.135.575v0l-.037,0c-.087.013-.173.029-.26.043l-9.96.848-.1,0-3.314.286,0,0-4.765.406ZM20.04,46.74c-7.262-10.122,3.722-22.726,11.71-28.424,3.039-2.168,8.28-5.609,12.223-4.1,4.321,1.659,6.57,6.744,7.875,10.843a94.417,94.417,0,0,1,3.369,17l1.457,17.04-.014.128L41.5,57.523C33.525,55.935,24.7,53.24,20.04,46.74M54.734,76.432c-1.588,7.978-4.283,16.8-10.783,21.463-10.121,7.263-22.726-3.721-28.424-11.71-2.168-3.039-5.609-8.279-4.105-12.222,1.66-4.321,6.745-6.571,10.844-7.875a94.3,94.3,0,0,1,17-3.369l17.17-1.468Zm50.052,1.851c-2.925,3.943-7.979,7.04-12.316,9.154C86.381,90.364,79.219,93,72.362,92.866c-3.322-.066-7.1-.9-9.253-3.58-1.466-1.774-1.787-4.1-2.227-6.272-.225-1.025-.409-2.076-.575-3.135l0,0,0-.038c-.014-.087-.03-.173-.043-.26l-.848-9.96,0-.1-.287-3.314v0l-.406-4.765,1.793.192-.05,0,12.839,1.438h-.01c2.461.209,4.936.451,7.407.743q1.383.164,2.764.352l.69.094q.673.095,1.344.194.93.14,1.856.293l.837.142c.728.126,1.456.257,2.179.4.155.03.31.062.465.093.813.161,1.626.327,2.432.508,4.235.948,10.175,2.108,12.617,6.081,1.4,2.182.281,4.447-1.09,6.309" fill="#888787"/>
    <path id="Tracé_30105" data-name="Tracé 30105" d="M88.132,63.451A104.371,104.371,0,0,0,76.04,61.663q-.87-.115-1.75-.223h0l-.143-.016q-.6-.073-1.2-.142l-.257-.028c-.343-.037-.685-.074-1.028-.108l-6.716-.751,10.55-.9-.03-.019a12.966,12.966,0,0,0,6.764-2.065c2.445-1.753,3.006-4.5,3.409-7.309.959-6.693-1.689-14.035-4.631-19.936-2.2-4.415-5.638-10.71-10.867-11.92-6.536-1.48-8.647,6.5-9.84,11.266A104.665,104.665,0,0,0,58.512,41.6c-.076.579-.151,1.164-.222,1.75h0l-.017.142c-.049.4-.1.8-.141,1.2-.009.086-.019.172-.028.258-.037.342-.075.685-.11,1.028l-.628,5.627-.426-4.993c-.03-.443-.07-.886-.113-1.329l-.007-.072h0c-.183-1.843-.461-3.687-.715-5.589a42.5,42.5,0,0,0-2.615-11.111,20.027,20.027,0,0,0-2.628-4.9c-4.69-6.074-12.292-2.689-17.308,1.2C26.507,30.269,18.119,41.915,24.9,50.739a18.264,18.264,0,0,0,5.056,4.227,36.617,36.617,0,0,0,11.438,4.2c.777.167,1.558.339,2.341.5v0a44.155,44.155,0,0,0,4.5.621l-4.77.407c-.443.03-.886.069-1.329.113l-.072.006h0c-1.842.183-3.686.462-5.588.715a42.472,42.472,0,0,0-11.112,2.615,20.018,20.018,0,0,0-4.9,2.628c-6.076,4.691-2.69,12.291,1.2,17.308,5.458,7.046,17.1,15.433,25.929,8.652a18.327,18.327,0,0,0,4.227-5.056,36.648,36.648,0,0,0,4.2-11.439c.167-.777.339-1.558.5-2.342h0a50.228,50.228,0,0,0,.732-5.7l.894,10.442.019-.032a12.954,12.954,0,0,0,2.065,6.764c1.751,2.445,4.5,3.008,7.307,3.411,6.693.958,14.035-1.689,19.937-4.633,4.416-2.2,10.71-5.636,11.92-10.866,1.48-6.537-6.5-8.647-11.267-9.839M58.3,57.965c0,.014,0,.028,0,.042L59.5,47.364v.009c.174-2.04.374-4.092.615-6.14q.138-1.148.291-2.292c.027-.19.053-.381.08-.571q.078-.558.161-1.114.115-.771.243-1.538c.037-.232.077-.463.117-.695.1-.6.212-1.206.329-1.806.025-.129.05-.257.076-.385.133-.674.272-1.347.422-2.016.785-3.511,1.746-8.435,5.04-10.458,1.808-1.164,3.685-.233,5.229.9,3.268,2.425,5.836,6.614,7.588,10.209,2.426,5.047,4.611,10.984,4.5,16.668-.055,2.753-.749,5.883-2.967,7.67-1.471,1.214-3.4,1.482-5.2,1.846-.849.186-1.721.339-2.6.476v0l-.03,0-.216.036-8.255.7h-.085l-2.748.238h0l-3.95.337ZM26.133,49.1c-6.019-8.39,3.085-18.838,9.707-23.562,2.52-1.8,6.864-4.649,10.132-3.4,3.582,1.375,5.446,5.59,6.528,8.988a78.319,78.319,0,0,1,2.792,14.088L56.5,59.342l-.013.106L43.924,58.043C37.312,56.726,30,54.492,26.133,49.1M54.892,73.717c-1.316,6.613-3.551,13.925-8.938,17.791-8.39,6.02-18.837-3.085-23.561-9.707-1.8-2.519-4.65-6.863-3.4-10.131,1.376-3.582,5.59-5.446,8.989-6.527A78.114,78.114,0,0,1,42.067,62.35L56.3,61.133Zm41.489,1.534c-2.425,3.269-6.614,5.835-10.208,7.588-5.049,2.426-10.985,4.612-16.67,4.5-2.753-.054-5.882-.749-7.669-2.967-1.215-1.471-1.481-3.4-1.847-5.2-.185-.85-.338-1.721-.475-2.6l0,0v-.032c-.011-.072-.024-.143-.036-.215l-.7-8.256c0-.029,0-.056,0-.085l-.237-2.747v0l-.338-3.95,1.488.159-.042,0,10.642,1.191H70.27c2.04.174,4.09.374,6.139.616q1.148.136,2.292.292l.571.078c.372.053.743.1,1.113.161q.771.115,1.539.243l.694.117c.6.105,1.207.213,1.806.329l.385.077c.675.133,1.347.271,2.017.421,3.51.786,8.434,1.748,10.458,5.041,1.163,1.808.233,3.686-.9,5.229" fill="#95b602"/>
    <path id="Tracé_30106" data-name="Tracé 30106" d="M155.718,57.047a8.612,8.612,0,0,1-6.951,2.971h-9.116V24.155h9.116a8.612,8.612,0,0,1,6.951,2.972c2.67,2.973,2.62,8.059,2.62,14.96s.05,11.988-2.62,14.96M151.488,30.7a3.264,3.264,0,0,0-2.871-1.461h-3.325V54.932h3.325a3.264,3.264,0,0,0,2.871-1.461c1.058-1.663,1.208-5.189,1.208-11.434s-.15-9.671-1.208-11.333" fill="#545454"/>
    <path id="Tracé_30107" data-name="Tracé 30107" d="M163.429,60.018V24.155H178.49v5.088h-9.42V39.417h8.11V44.5h-8.11V54.931h9.42v5.087Z" fill="#545454"/>
    <path id="Tracé_30108" data-name="Tracé 30108" d="M183.377,60.018V24.155h15.061v5.088h-9.42V39.417h8.11V44.5h-8.11V54.931h9.42v5.087Z" fill="#545454"/>
    <path id="Tracé_30109" data-name="Tracé 30109" d="M212.341,46.015h-3.375v14h-5.64V24.155h9.015c6.5,0,9.218,3.375,9.218,10.88,0,7.253-2.418,10.98-9.218,10.98m.1-16.772h-3.477V40.929h3.477c3.021,0,3.476-2.67,3.476-5.843s-.455-5.843-3.476-5.843" fill="#545454"/>
    <path id="Tracé_30110" data-name="Tracé 30110" d="M241.107,29.243V39.418h8.11V44.5h-8.11V60.018h-5.641V24.155h15.061v5.088Z" fill="#545454"/>
    <path id="Tracé_30111" data-name="Tracé 30111" d="M255.112,60.018V24.155h5.641V54.931h9.42v5.087Z" fill="#545454"/>
    <path id="Tracé_30112" data-name="Tracé 30112" d="M289.113,57.4a9.5,9.5,0,0,1-13.9,0c-2.67-3.022-2.619-8.261-2.619-15.312s-.051-12.29,2.619-15.313a9.506,9.506,0,0,1,13.9,0c2.67,3.023,2.62,8.261,2.62,15.313s.05,12.29-2.62,15.312m-4.23-27.2a2.974,2.974,0,0,0-2.72-1.36,2.887,2.887,0,0,0-2.67,1.36c-1.057,1.712-1.259,5.339-1.259,11.887s.2,10.175,1.259,11.887a2.889,2.889,0,0,0,2.67,1.36,2.976,2.976,0,0,0,2.72-1.36c1.058-1.712,1.209-5.339,1.209-11.887s-.151-10.175-1.209-11.887" fill="#545454"/>
    <path id="Tracé_30113" data-name="Tracé 30113" d="M323.619,60.018h-5.894l-5.137-27.25L307.5,60.018h-5.894l-6.8-35.863H301l3.526,27.2,4.937-27.2h6.245l4.986,27.2,3.476-27.2h6.2Z" fill="#545454"/>
    <path id="Tracé_30114" data-name="Tracé 30114" d="M356.113,60.018,351.428,45.31h-3.174V60.018h-5.64V24.155h9.066c6.548,0,9.167,3.174,9.167,10.578,0,4.433-.906,7.606-4.18,9.368l5.338,15.917ZM351.73,29.243h-3.476v10.98h3.476c3.022,0,3.476-2.518,3.476-5.49s-.454-5.49-3.476-5.49" fill="#95b602"/>
    <path id="Tracé_30115" data-name="Tracé 30115" d="M366.694,60.018V24.155h15.061v5.088h-9.42V39.417h8.11V44.5h-8.11V54.931h9.42v5.087Z" fill="#95b602"/>
    <path id="Tracé_30116" data-name="Tracé 30116" d="M401,60.018l-1.46-7.1h-8.312l-1.41,7.1h-5.943l8.814-35.863h5.491l8.713,35.863Zm-5.591-27.2-3.072,15.01h6.145Z" fill="#95b602"/>
    <path id="Tracé_30117" data-name="Tracé 30117" d="M410.218,60.018V24.155h5.641V54.931h9.42v5.087Z" fill="#95b602"/>
    <path id="Tracé_30118" data-name="Tracé 30118" d="M436.664,29.243V60.018h-5.642V29.243h-5.994V24.155h17.68v5.088Z" fill="#95b602"/>
    <path id="Tracé_30119" data-name="Tracé 30119" d="M458.024,45.966V60.019h-5.642V45.966l-6.951-21.811h6.246L455.2,38.36l3.576-14.205h6.2Z" fill="#95b602"/>
    <path id="Tracé_30120" data-name="Tracé 30120" d="M142.869,88.093a2.924,2.924,0,0,1-2.2.762,2.968,2.968,0,0,1-2.218-.762c-.674-.695-.891-1.413-.891-3.131h.869c0,1.326.153,2,.675,2.523a2.14,2.14,0,0,0,1.565.565,2.062,2.062,0,0,0,1.588-.565c.587-.587.695-1.349.695-2.7,0-2.044-.326-2.827-1.7-3.392l-1.587-.652c-1.587-.652-2-1.544-2-3.849a4.1,4.1,0,0,1,.979-2.979,2.873,2.873,0,0,1,2.131-.8,2.976,2.976,0,0,1,2.174.8,3.634,3.634,0,0,1,.87,2.87h-.87A3.124,3.124,0,0,0,142.3,74.5a1.949,1.949,0,0,0-1.544-.608,2.013,2.013,0,0,0-1.457.521,3.375,3.375,0,0,0-.761,2.457c0,1.957.261,2.567,1.8,3.2l1.587.652c1.609.652,1.892,1.935,1.892,4.045a4.445,4.445,0,0,1-.957,3.326" fill="#888787"/>
    <path id="Tracé_30121" data-name="Tracé 30121" d="M164.206,88.136a3.184,3.184,0,0,1-4.131,0c-.914-.935-1.087-1.8-1.087-7.154s.173-6.219,1.087-7.153a3.184,3.184,0,0,1,4.131,0c.913.934,1.087,1.8,1.087,7.153s-.174,6.219-1.087,7.154M163.6,74.394a2.223,2.223,0,0,0-2.914,0c-.695.761-.826,1.435-.826,6.588s.131,5.828.826,6.589a2.223,2.223,0,0,0,2.914,0c.7-.761.827-1.436.827-6.589s-.131-5.827-.827-6.588" fill="#888787"/>
    <path id="Tracé_30122" data-name="Tracé 30122" d="M181.824,74.024v6.567h3.566v.783h-3.566v7.349h-.87V73.242h5v.782Z" fill="#888787"/>
    <path id="Tracé_30123" data-name="Tracé 30123" d="M203.726,74.024v14.7h-.87v-14.7h-2.587v-.782h6.044v.782Z" fill="#888787"/>
    <rect id="Rectangle_3905" data-name="Rectangle 3905" width="0.87" height="15.481" transform="translate(238.374 73.242)" fill="#888787"/>
    <path id="Tracé_30124" data-name="Tracé 30124" d="M260.644,88.723l-4.566-13.09v13.09h-.871V73.242h.958l4.587,13.089-.021-13.089h.869V88.723Z" fill="#888787"/>
    <path id="Tracé_30125" data-name="Tracé 30125" d="M279.936,74.024v14.7h-.87v-14.7h-2.587v-.782h6.045v.782Z" fill="#888787"/>
    <path id="Tracé_30126" data-name="Tracé 30126" d="M297.4,88.723V73.242h5v.782h-4.131v6.567h3.566v.782h-3.566V87.94H302.4v.783Z" fill="#888787"/>
    <path id="Tracé_30127" data-name="Tracé 30127" d="M317.89,88.723V73.242h.87v14.7h4.131v.783Z" fill="#888787"/>
    <path id="Tracé_30128" data-name="Tracé 30128" d="M337.769,88.723V73.242h.87v14.7h4.131v.783Z" fill="#888787"/>
    <rect id="Rectangle_3906" data-name="Rectangle 3906" width="0.87" height="15.481" transform="translate(357.648 73.242)" fill="#888787"/>
    <path id="Tracé_30129" data-name="Tracé 30129" d="M377.331,88.9a2.807,2.807,0,0,1-2.065-.761c-.914-.935-1.088-1.8-1.088-7.154s.174-6.219,1.088-7.153a3.149,3.149,0,0,1,4.13.021,3.911,3.911,0,0,1,.871,2.74H379.4c0-1.37-.413-2.74-2.065-2.74a1.934,1.934,0,0,0-1.457.544c-.7.761-.826,1.435-.826,6.588s.131,5.828.826,6.589a1.938,1.938,0,0,0,1.457.544c1.131,0,2.065-.827,2.065-2.436V81.374h-2.065v-.783h2.936v5.131a2.909,2.909,0,0,1-2.936,3.175" fill="#888787"/>
    <path id="Tracé_30130" data-name="Tracé 30130" d="M395.928,88.723V73.242h5v.782H396.8v6.567h3.566v.782H396.8V87.94h4.131v.783Z" fill="#888787"/>
    <path id="Tracé_30131" data-name="Tracé 30131" d="M421.852,88.723l-4.566-13.09v13.09h-.871V73.242h.958l4.587,13.089-.021-13.089h.869V88.723Z" fill="#888787"/>
    <path id="Tracé_30132" data-name="Tracé 30132" d="M443.536,88.245a2.748,2.748,0,0,1-1.913.652,2.81,2.81,0,0,1-2.066-.76c-.913-.936-1.087-1.805-1.087-7.155s.174-6.218,1.087-7.153a2.811,2.811,0,0,1,2.066-.761,2.737,2.737,0,0,1,2.044.761,3.913,3.913,0,0,1,.891,2.762h-.87a3.188,3.188,0,0,0-.695-2.241,1.883,1.883,0,0,0-1.37-.5,1.938,1.938,0,0,0-1.457.544c-.695.761-.826,1.435-.826,6.588s.131,5.828.826,6.589a1.934,1.934,0,0,0,1.457.544,1.875,1.875,0,0,0,1.37-.5,3.181,3.181,0,0,0,.695-2.239h.87a3.75,3.75,0,0,1-1.022,2.87" fill="#888787"/>
    <path id="Tracé_30133" data-name="Tracé 30133" d="M459.915,88.723V73.242h5v.782h-4.131v6.567h3.566v.782h-3.566V87.94h4.131v.783Z" fill="#888787"/>
  </g>
</svg>
