<svg xmlns="http://www.w3.org/2000/svg" width="67.791" height="44.417" viewBox="0 0 67.791 44.417">
  <g id="optimisée" transform="translate(-908 -5717.859)">
    <path id="Tracé_30141" data-name="Tracé 30141" d="M3.766,114.859H59a3.758,3.758,0,0,1,3.766,3.767V148.5A3.757,3.757,0,0,1,59,152.264H3.766A3.757,3.757,0,0,1,0,148.5V118.626a3.758,3.758,0,0,1,3.766-3.767" transform="translate(908 5603)" fill="#98c21d"/>
    <path id="Tracé_30142" data-name="Tracé 30142" d="M52.726,150.488A6.276,6.276,0,1,1,59,144.212a6.273,6.273,0,0,1-6.277,6.276m15.065-4.2v-4.155l-3.485-.872A11.876,11.876,0,0,0,63,138.11l1.85-3.082L61.91,132.09l-3.082,1.849a12.488,12.488,0,0,0-1.427-.724,11.678,11.678,0,0,0-1.726-.582l-.871-3.486H50.649l-.872,3.486a11.867,11.867,0,0,0-3.152,1.306l-3.082-1.849L40.6,135.028l1.85,3.082a11.843,11.843,0,0,0-1.307,3.153l-3.485.872v4.155l3.485.87a11.849,11.849,0,0,0,1.307,3.153L40.6,153.4l2.939,2.94,3.082-1.851a11.905,11.905,0,0,0,3.152,1.308l.872,3.484H54.8l.871-3.484a11.9,11.9,0,0,0,3.153-1.308l3.082,1.851,2.939-2.94L63,150.313a11.882,11.882,0,0,0,1.307-3.153Z" transform="translate(908 5603)" fill="#4a4a52"/>
    <path id="Tracé_30143" data-name="Tracé 30143" d="M67.791,146.29v-4.155l-3.485-.872A11.876,11.876,0,0,0,63,138.11l1.85-3.082L62.016,132.2a45.115,45.115,0,0,1-4.329,8.211,6.243,6.243,0,0,1-8.143,9.187,45.11,45.11,0,0,1-7.5,5.241l1.5,1.5,3.082-1.851a11.892,11.892,0,0,0,3.152,1.308l.873,3.484H54.8l.871-3.484a11.9,11.9,0,0,0,3.153-1.308l3.082,1.851,2.939-2.94L63,150.313a11.882,11.882,0,0,0,1.307-3.153Z" transform="translate(908 5603)" fill="#303338"/>
    <rect id="Rectangle_3910" data-name="Rectangle 3910" width="12.554" height="2.511" transform="translate(913.021 5734.207)" fill="#303338"/>
    <rect id="Rectangle_3911" data-name="Rectangle 3911" width="17.575" height="2.511" transform="translate(913.021 5739.229)" fill="#fff"/>
    <rect id="Rectangle_3912" data-name="Rectangle 3912" width="15.065" height="2.511" transform="translate(913.021 5744.25)" fill="#fff"/>
    <path id="Tracé_30144" data-name="Tracé 30144" d="M5.021,146.272H26.363v2.511H7.105A2.084,2.084,0,0,1,5.021,146.7Z" transform="translate(908 5603)" fill="#303338"/>
    <rect id="Rectangle_3913" data-name="Rectangle 3913" width="10.043" height="2.511" transform="translate(928.086 5734.207)" fill="#fff"/>
    <rect id="Rectangle_3914" data-name="Rectangle 3914" width="2.511" height="2.511" transform="translate(940.64 5734.207)" fill="#fff"/>
    <rect id="Rectangle_3915" data-name="Rectangle 3915" width="2.511" height="2.511" transform="translate(933.108 5739.229)" fill="#303338"/>
    <rect id="Rectangle_3916" data-name="Rectangle 3916" width="2.511" height="2.511" transform="translate(936.874 5749.272)" fill="#fff"/>
    <path id="Tracé_30145" data-name="Tracé 30145" d="M7.106,118.34H35.151v10.467H5.022v-8.383a2.085,2.085,0,0,1,2.084-2.084" transform="translate(908 5603)" fill="#4a4a52"/>
  </g>
</svg>
