<svg id="provenance" xmlns="http://www.w3.org/2000/svg" xmlns:xlink="http://www.w3.org/1999/xlink" width="118.832" height="106.083" viewBox="0 0 118.832 106.083">
  <defs>
    <clipPath id="clip-path">
      <rect id="Rectangle_3867" data-name="Rectangle 3867" width="118.832" height="106.083" fill="none"/>
    </clipPath>
  </defs>
  <g id="Groupe_18629" data-name="Groupe 18629" clip-path="url(#clip-path)">
    <path id="Tracé_29839" data-name="Tracé 29839" d="M397.124,230.076l-9.336-51.435a1.741,1.741,0,0,0-.868-1.212l-23.5-13.069a1.738,1.738,0,0,0-.982-.211l4.275,55.148-.143.064,28.122,12.616a1.744,1.744,0,0,0,2.431-1.9" transform="translate(-278.32 -126.047)" fill="#aab204"/>
    <path id="Tracé_29840" data-name="Tracé 29840" d="M160.121,176.854l-24.033-12.517a1.741,1.741,0,0,0-.922-.19,1.768,1.768,0,0,1,.25,0L131.142,219.3l28.264,12.68a1.744,1.744,0,0,0,.714.153Z" transform="translate(-100.705 -126.046)" fill="#aab204"/>
    <path id="Tracé_29841" data-name="Tracé 29841" d="M34.712,164.15a1.739,1.739,0,0,0-.982.211l-23.5,13.069a1.743,1.743,0,0,0-.868,1.212L.028,230.077a1.744,1.744,0,0,0,2.43,1.9l27.968-12.547Z" transform="translate(0 -126.048)" fill="#bed000"/>
    <path id="Tracé_29842" data-name="Tracé 29842" d="M280.7,164.162a1.745,1.745,0,0,0-.672.19L256,176.869v55.275h0a1.748,1.748,0,0,0,.714-.153l28.265-12.68Z" transform="translate(-196.584 -126.061)" fill="#bed000"/>
    <path id="Tracé_29843" data-name="Tracé 29843" d="M21.88,246.82l-1.9,10.449,28.082-14.832.652-8.411.108-1.4Z" transform="translate(-15.345 -178.638)" fill="#efefef"/>
    <path id="Tracé_29844" data-name="Tracé 29844" d="M32.973,260.829l-.253,3.261L4.638,278.923l-4.61,25.4a1.744,1.744,0,0,0,2.43,1.9l27.968-12.547Z" transform="translate(0 -200.292)" fill="#eded6b"/>
    <path id="Tracé_29845" data-name="Tracé 29845" d="M167.68,236.341l-25.943-3.71-.76,9.806,26.7,40.542V268.237l-15.93-25.085,15.937,1.906Z" transform="translate(-108.257 -178.639)" fill="#cecece"/>
    <path id="Tracé_29846" data-name="Tracé 29846" d="M387.242,196.183,375.955,189.9l-10.686,2.5.134,1.726.528,6.808Z" transform="translate(-280.491 -145.829)" fill="#cecece"/>
    <path id="Tracé_29847" data-name="Tracé 29847" d="M282.992,221.423l-1.012-13.055-.6-7.705-25.354,11.129v8.718l16.562-7.2Z" transform="translate(-196.606 -154.09)" fill="#efefef"/>
    <path id="Tracé_29848" data-name="Tracé 29848" d="M401.485,286.356l-2.345-12.92-31.021-36,.948,12.227,31.814,38.347a1.74,1.74,0,0,0,.6-1.651" transform="translate(-282.681 -182.326)" fill="#cecece"/>
    <path id="Tracé_29849" data-name="Tracé 29849" d="M175.759,0a24.415,24.415,0,0,0-24.4,24.378c0,8.315,3.948,17.242,11.734,26.534a83.386,83.386,0,0,0,11.6,11.4,1.746,1.746,0,0,0,2.135,0,83.409,83.409,0,0,0,11.6-11.4c7.786-9.291,11.734-18.219,11.734-26.534A24.416,24.416,0,0,0,175.759,0m9.035,24.378a9.035,9.035,0,1,1-9.035-9.028,9.032,9.032,0,0,1,9.035,9.028" transform="translate(-116.231)" fill="#7f7f7f"/>
    <path id="Tracé_29850" data-name="Tracé 29850" d="M246.068,0a24.539,24.539,0,0,0-3.147.2,24.421,24.421,0,0,1,21.251,24.175c0,8.315-3.948,17.242-11.734,26.534a87.229,87.229,0,0,1-9.517,9.671c1.219,1.056,2,1.66,2.08,1.726a1.746,1.746,0,0,0,2.135,0,83.4,83.4,0,0,0,11.6-11.4c7.786-9.291,11.734-18.219,11.734-26.534A24.416,24.416,0,0,0,246.068,0" transform="translate(-186.54)" fill="#333"/>
    <path id="Tracé_29851" data-name="Tracé 29851" d="M256.714,402.374l10.51-4.715L256,386.042v16.485h0a1.743,1.743,0,0,0,.714-.153" transform="translate(-196.584 -296.444)" fill="#efefef"/>
    <path id="Tracé_29852" data-name="Tracé 29852" d="M392.148,219.2a1.742,1.742,0,0,0-.868-1.212l-1.85-1.029-21.313,4.753,31.021,36Z" transform="translate(-282.68 -166.601)" fill="#aab204"/>
    <path id="Tracé_29853" data-name="Tracé 29853" d="M160.12,317.166h0v-1.743l-26.7-40.542-2.283,29.452,28.265,12.681a1.748,1.748,0,0,0,.714.152" transform="translate(-100.704 -211.083)" fill="#aab204"/>
  </g>
</svg>
