<svg xmlns="http://www.w3.org/2000/svg" width="50.843" height="51.043" viewBox="0 0 50.843 51.043">
  <g id="trafic" transform="translate(-916.474 -5825.885)">
    <path id="Rectangle_3917" data-name="Rectangle 3917" d="M4.985,0H44.864a4.983,4.983,0,0,1,4.983,4.983v31.1a4.985,4.985,0,0,1-4.985,4.985H4.985A4.985,4.985,0,0,1,0,36.088V4.985A4.985,4.985,0,0,1,4.985,0Z" transform="translate(916.972 5826.384)" fill="#fff"/>
    <path id="Tracé_30146" data-name="Tracé 30146" d="M53.834,222.885H13.957a5.49,5.49,0,0,0-5.483,5.483v31.1a5.489,5.489,0,0,0,5.483,5.483H53.834a5.489,5.489,0,0,0,5.483-5.483v-31.1a5.49,5.49,0,0,0-5.483-5.483m0,1a4.491,4.491,0,0,1,4.486,4.486v31.1a4.491,4.491,0,0,1-4.486,4.486H13.957a4.491,4.491,0,0,1-4.486-4.486v-31.1a4.491,4.491,0,0,1,4.486-4.486Z" transform="translate(908 5603)" fill="#4a4a52"/>
    <rect id="Rectangle_3918" data-name="Rectangle 3918" width="14.954" height="6.978" transform="translate(934.418 5867.457)" fill="#303338"/>
    <path id="Tracé_30147" data-name="Tracé 30147" d="M8.474,254.488v4.985a5.49,5.49,0,0,0,5.483,5.483H53.834a5.49,5.49,0,0,0,5.483-5.483v-4.985Z" transform="translate(908 5603)" fill="#4a4a52"/>
    <path id="Tracé_30148" data-name="Tracé 30148" d="M45.858,273.928H21.932a1.5,1.5,0,1,1,0-2.991H45.858a1.5,1.5,0,0,1,0,2.991" transform="translate(908 5603)" fill="#4a4a52"/>
    <path id="Tracé_30149" data-name="Tracé 30149" d="M22.578,243.781a4,4,0,0,0-2.16-2.068l3.708-3.994.006,0a4.011,4.011,0,0,0,1.967,2.28Z" transform="translate(908 5603)" fill="#303338"/>
    <path id="Tracé_30150" data-name="Tracé 30150" d="M36.721,239.282l.466.2A3.975,3.975,0,0,0,35.9,242.2c-.019-.007-.038-.016-.057-.024l-5.015-2.417-.38-.238a3.984,3.984,0,0,0,1.427-2.577Z" transform="translate(908 5603)" fill="#303338"/>
    <path id="Tracé_30151" data-name="Tracé 30151" d="M47.3,237.126l-3.719,3.813a4.017,4.017,0,0,0-2.087-2.161l3.689-3.766a4.005,4.005,0,0,0,2.117,2.114" transform="translate(908 5603)" fill="#303338"/>
    <path id="Tracé_30152" data-name="Tracé 30152" d="M18.941,249.9a4.486,4.486,0,1,1,4.486-4.486,4.491,4.491,0,0,1-4.486,4.486" transform="translate(908 5603)" fill="#98c21d"/>
    <path id="Tracé_30153" data-name="Tracé 30153" d="M39.877,246.911a4.486,4.486,0,1,1,4.486-4.486,4.492,4.492,0,0,1-4.486,4.486" transform="translate(908 5603)" fill="#d1d1d1"/>
    <path id="Tracé_30154" data-name="Tracé 30154" d="M48.849,237.939a4.486,4.486,0,1,1,4.486-4.486,4.491,4.491,0,0,1-4.486,4.486" transform="translate(908 5603)" fill="#98c21d"/>
    <path id="Tracé_30155" data-name="Tracé 30155" d="M27.914,240.929a4.486,4.486,0,1,1,4.486-4.485,4.491,4.491,0,0,1-4.486,4.485" transform="translate(908 5603)" fill="#98c21d"/>
  </g>
</svg>
