<svg xmlns="http://www.w3.org/2000/svg" width="51.251" height="51.251" viewBox="0 0 51.251 51.251">
  <g id="visibilité" transform="translate(-916.27 -5603)">
    <path id="Tracé_30134" data-name="Tracé 30134" d="M59.521,47.174h0a4.128,4.128,0,0,1-4.077,4.077,4.229,4.229,0,0,1-3.028-1.281L39.37,35.759a1.126,1.126,0,0,1,0-1.631L42.4,31.1a1.126,1.126,0,0,1,1.631,0L58.24,44.262a3.972,3.972,0,0,1,1.281,2.912" transform="translate(908 5603)" fill="#4a4a52"/>
    <rect id="Rectangle_3908" data-name="Rectangle 3908" width="3.261" height="4.892" transform="translate(944.253 5633.29) rotate(-45)" fill="#d1d1d1"/>
    <path id="Tracé_30135" data-name="Tracé 30135" d="M25.742,31.45A13.978,13.978,0,1,1,39.719,17.472,14.018,14.018,0,0,1,25.742,31.45m0-31.45A17.472,17.472,0,1,0,43.214,17.472,17.448,17.448,0,0,0,25.742,0" transform="translate(908 5603)" fill="#303338"/>
    <path id="Tracé_30136" data-name="Tracé 30136" d="M25.742,3.494A13.978,13.978,0,1,1,11.764,17.472,13.978,13.978,0,0,1,25.742,3.494" transform="translate(908 5603)" fill="#fff"/>
    <path id="Tracé_30137" data-name="Tracé 30137" d="M25.742,5.874a11.6,11.6,0,1,1-11.6,11.6,11.6,11.6,0,0,1,11.6-11.6" transform="translate(908 5603)" fill="#98c21d"/>
    <path id="Tracé_30138" data-name="Tracé 30138" d="M25.742,11.881a5.591,5.591,0,1,1-5.59,5.59,5.59,5.59,0,0,1,5.59-5.59" transform="translate(908 5603)" fill="#303338"/>
    <path id="Tracé_30139" data-name="Tracé 30139" d="M22.91,9.858a2.035,2.035,0,1,1-2.036,2.035A2.035,2.035,0,0,1,22.91,9.858" transform="translate(908 5603)" fill="#fff"/>
    <path id="Tracé_30140" data-name="Tracé 30140" d="M25.4,14.591a1.324,1.324,0,1,1-1.324,1.324A1.324,1.324,0,0,1,25.4,14.591" transform="translate(908 5603)" fill="#fff"/>
  </g>
</svg>
