<svg xmlns="http://www.w3.org/2000/svg" xmlns:xlink="http://www.w3.org/1999/xlink" width="101.407" height="101.519" viewBox="0 0 101.407 101.519">
  <defs>
    <linearGradient id="linear-gradient" x1="0.5" x2="0.5" y2="1" gradientUnits="objectBoundingBox">
      <stop offset="0" stop-color="#bed000"/>
      <stop offset="1" stop-color="#62aa42"/>
    </linearGradient>
  </defs>
  <g id="picto_identité_visuelle" data-name="picto identité visuelle" transform="translate(-0.106 0.006)">
    <g id="_035---Creative-Thinking" data-name="035---Creative-Thinking" transform="translate(0.107 -0.006)">
      <path id="Shape" d="M87.675,74.442a22.761,22.761,0,0,0-.04-8.629l7.749-18.7a.12.12,0,0,0,0-.038,31.762,31.762,0,0,1,5.441-9.444,2.52,2.52,0,0,0,.623-2.31L98.271,21.6a1.707,1.707,0,0,0-.169-.408c-.014-.026-.02-.056-.034-.079s-.071-.081-.105-.125a1.7,1.7,0,0,0-.24-.28,1.229,1.229,0,0,0-.184-.111,1.14,1.14,0,0,0-.658-.256c-.038,0-.071-.026-.111-.03a1.693,1.693,0,0,0-.932.208c-.026.014-.056.02-.081.034h-.018L83.792,28.007a2.521,2.521,0,0,0-1.194,2.08,31.762,31.762,0,0,1-2.845,10.546v.02l-3.872,9.361a22.783,22.783,0,0,0-6.044-2.183A91.539,91.539,0,0,0,70.714,31.2a18.47,18.47,0,0,0,4.2-13.556C73.855,7.777,64.944.657,64.563.358a1.692,1.692,0,0,0-2.683,1.765c.872,3.272.117,6.726-6.319,13.826a9.9,9.9,0,0,0-2.32,10.79,13.2,13.2,0,0,0,2.409,3.892c-.408,2.613-.73,5.088-.952,7.5a84.78,84.78,0,0,0-.3,12,23.021,23.021,0,0,0-4.211,2.936L41.986,17.975c0-.036-.034-.061-.044-.093a1.616,1.616,0,0,0-.119-.327L33.442,2.075A3.907,3.907,0,0,0,26.1,3.794l-.636,17.587a1.745,1.745,0,0,0,.042.379v.075l8.373,35.73a19.027,19.027,0,0,0-3.912.583l-9.21-22.241A3.419,3.419,0,0,0,16.342,34.1L2.266,39.926A3.393,3.393,0,0,0,.434,44.347l12.49,30.13a13.527,13.527,0,0,0,.7,27.035H88.067a13.537,13.537,0,1,0-.393-27.071Zm-1.723-43.8,7.092-4.426-2.51,6.063a1.693,1.693,0,0,0,3.127,1.3l2.51-6.065,1.88,8.145a33.458,33.458,0,0,0-4.907,8.1,6.96,6.96,0,0,1-9.458-3.91A33.424,33.424,0,0,0,85.952,30.646ZM82.059,43.931A10.3,10.3,0,0,0,86.279,47a10.726,10.726,0,0,0,4.14.874,8.891,8.891,0,0,0,1.025-.063l-5.4,13.029a22.994,22.994,0,0,0-7.265-8.984ZM58.07,18.22h0c4.493-4.955,6.821-8.768,7.362-12.351A22.612,22.612,0,0,1,71.541,18a15.164,15.164,0,0,1-3.424,11.016q-5.014-.3-9.918-.609A7.057,7.057,0,0,1,58.07,18.22Zm.815,18.61c-.212-.03-.42-.054-.633-.083.169-1.594.375-3.208.625-4.9h0l8.5.519c.052,1.58.034,3.214-.02,4.876A35.593,35.593,0,0,1,58.885,36.831Zm8.314,3.8c-.153,2.177-.4,4.451-.726,6.8-.418-.022-.827-.063-1.247-.063a22.683,22.683,0,0,0-7.5,1.293,81.852,81.852,0,0,1,.214-8.542h0l.49.063a48.241,48.241,0,0,0,6.587.561C65.721,40.745,66.459,40.689,67.2,40.632ZM29.478,3.915a.526.526,0,0,1,.987-.23l3.628,6.71a5.8,5.8,0,0,1-2.284,1.269,5.74,5.74,0,0,1-2.607-.125Zm-.609,17.014.214-5.96a9.822,9.822,0,0,0,1.786.169,7.5,7.5,0,0,0,1.719-.19,8.619,8.619,0,0,0,3.137-1.56l2.849,5.258a5.612,5.612,0,0,1-4.057,4.548v0A5.616,5.616,0,0,1,28.869,20.929Zm1.089,5.078a8.016,8.016,0,0,0,3.311.722c.107,0,.22-.016.329-.02l1.2,5.108a1.692,1.692,0,1,0,3.3-.771l-1.2-5.112a8.017,8.017,0,0,0,2.954-2.25L47.4,55.965a22.572,22.572,0,0,0-2.54,3.942l-4.84-20.621a1.693,1.693,0,0,0-3.3.771l4.35,18.561a19.2,19.2,0,0,0-3.688-.92ZM3.557,43.045l14.082-5.827,1.293,3.125-6.26,2.591a1.691,1.691,0,0,0,1.3,3.123l6.262-2.593,1.293,3.127-3.131,1.3a1.691,1.691,0,0,0,.65,3.254,1.73,1.73,0,0,0,.646-.127l3.131-1.3,1.295,3.127-6.266,2.6A1.692,1.692,0,0,0,18.5,58.7a1.764,1.764,0,0,0,.646-.129l6.26-2.593,1.368,3.305A19.646,19.646,0,0,0,15.821,72.614Zm84.51,55.084H13.622a10.152,10.152,0,0,1,0-20.3,10.017,10.017,0,0,1,2.895.42A1.692,1.692,0,0,0,18.7,76.657,16.073,16.073,0,0,1,44.414,64.12a1.689,1.689,0,0,0,2.593-.761A19.463,19.463,0,0,1,83.83,75.921a1.692,1.692,0,0,0,1.979,2.151,10.678,10.678,0,0,1,2.258-.248,10.152,10.152,0,1,1,0,20.3Z" transform="translate(-0.107 0.006)" fill="#333"/>
      <path id="Tracé_29412" data-name="Tracé 29412" d="M40.728,209.791a19.646,19.646,0,0,0-10.955,13.334L17.51,193.556l14.082-5.827,1.293,3.125-6.26,2.591a1.691,1.691,0,0,0,1.3,3.123l6.262-2.593,1.293,3.127-3.131,1.3a1.691,1.691,0,0,0,.65,3.254,1.73,1.73,0,0,0,.646-.127l3.131-1.3,1.295,3.127-6.266,2.6a1.692,1.692,0,0,0,.65,3.256,1.764,1.764,0,0,0,.646-.129l6.26-2.593Z" transform="translate(-14.059 -150.505)" fill="url(#linear-gradient)"/>
      <path id="Tracé_29413" data-name="Tracé 29413" d="M436,141.709a33.46,33.46,0,0,0-4.907,8.1,6.96,6.96,0,0,1-9.458-3.91,33.425,33.425,0,0,0,2.266-9.2l7.092-4.426-2.51,6.063a1.693,1.693,0,0,0,3.127,1.3l2.51-6.065Z" transform="translate(-338.051 -106.042)" fill="url(#linear-gradient)"/>
      <path id="Tracé_29414" data-name="Tracé 29414" d="M297.387,41.758a22.612,22.612,0,0,0-6.107-12.129c-.541,3.583-2.869,7.4-7.362,12.351h0a7.057,7.057,0,0,0,.129,10.186q4.9.306,9.918.609A15.164,15.164,0,0,0,297.387,41.758Zm-4.648,7.891a1.688,1.688,0,0,1-1.348.668l0,0a1.692,1.692,0,0,1-1.352-2.708,9.4,9.4,0,0,0,1.677-7.049,1.692,1.692,0,1,1,3.27-.87A12.692,12.692,0,0,1,292.739,49.649Z" transform="translate(-225.952 -23.753)" fill="url(#linear-gradient)"/>
      <path id="Tracé_29415" data-name="Tracé 29415" d="M151.742,24.213a4.767,4.767,0,0,1-4.892,1.144l.276-7.624a.526.526,0,0,1,.987-.23Z" transform="translate(-117.754 -13.812)" fill="url(#linear-gradient)"/>
      <path id="Tracé_29416" data-name="Tracé 29416" d="M324.668,85.088a1.688,1.688,0,0,1-1.348.668l0,0a1.692,1.692,0,0,1-1.352-2.708A9.4,9.4,0,0,0,323.649,76a1.692,1.692,0,1,1,3.27-.87A12.691,12.691,0,0,1,324.668,85.088Z" transform="translate(-257.881 -59.192)" fill="#333"/>
      <path id="Shape-2" data-name="Shape" d="M230.02,379.122a8.319,8.319,0,0,0-3.629.846,10.152,10.152,0,0,0-17.537,9.966,1.692,1.692,0,1,0,3.113-1.326,6.89,6.89,0,0,1-.558-2.717,6.768,6.768,0,0,1,6.768-6.768,6.7,6.7,0,0,1,6.116,3.892,1.821,1.821,0,0,0,.119.159,1.642,1.642,0,0,0,.09.169c.031.037.074.054.108.09a2.38,2.38,0,0,0,.533.389,1.677,1.677,0,0,0,.3.095,1.557,1.557,0,0,0,.318.049,2.083,2.083,0,0,0,.646-.108,1.23,1.23,0,0,0,.134-.032,1.537,1.537,0,0,0,.157-.117,1.807,1.807,0,0,0,.178-.091,4.99,4.99,0,0,1,3.14-1.11,5.076,5.076,0,0,1,4.6,2.953,1.692,1.692,0,1,0,3.079-1.4A8.46,8.46,0,0,0,230.02,379.122Z" transform="translate(-166.812 -301.29)" fill="#333"/>
      <path id="Shape-3" data-name="Shape" d="M125.7,332.849c-.255.083-6.233,2.151-6.233,8.374a1.692,1.692,0,0,0,3.384,0,5.817,5.817,0,0,1,3.929-5.166,1.7,1.7,0,0,0-1.08-3.215Z" transform="translate(-95.8 -266.775)" fill="#333"/>
      <path id="Shape-4" data-name="Shape" d="M265.813,283.168a1.651,1.651,0,0,0,.411.051,1.692,1.692,0,0,0,1.639-1.281,7.217,7.217,0,0,1,6.829-5.487,1.692,1.692,0,1,0-.009-3.384,10.539,10.539,0,0,0-10.1,8.049A1.692,1.692,0,0,0,265.813,283.168Z" transform="translate(-212.102 -218.923)" fill="#333"/>
    </g>
  </g>
</svg>
