<svg xmlns="http://www.w3.org/2000/svg" width="60.955" height="77.927" viewBox="0 0 60.955 77.927">
  <g id="carte_de_visite" data-name="carte de visite" transform="translate(-466.958 -5416.199)">
    <path id="Tracé_29436" data-name="Tracé 29436" d="M743.538,207.817a1.765,1.765,0,0,0,2.4,0,1.545,1.545,0,0,0,0-2.271l-10.182-9.635a1.768,1.768,0,0,0-2.4,0,1.547,1.547,0,0,0,0,2.271Zm0,0" transform="translate(-234.825 5251.609)" fill="#333"/>
    <path id="Tracé_29437" data-name="Tracé 29437" d="M758.818,183.054a1.7,1.7,0,1,0,2.4-2.4l-5.091-5.092a1.7,1.7,0,0,0-2.4,2.4Zm0,0" transform="translate(-250.876 5267.663)" fill="#333"/>
    <path id="Tracé_29438" data-name="Tracé 29438" d="M638.283,152.338a1.7,1.7,0,0,0,1.683,2.948,4.731,4.731,0,0,1,6.454,6.453,1.7,1.7,0,1,0,2.947,1.683,8.126,8.126,0,0,0-11.084-11.084Zm0,0" transform="translate(-159.638 5286.408)" fill="#333"/>
    <path id="Tracé_29439" data-name="Tracé 29439" d="M724.509,229.949a1.7,1.7,0,0,0,0-2.4l-10.183-10.183a1.7,1.7,0,0,0-2.4,2.4l10.182,10.182a1.7,1.7,0,0,0,2.4,0Zm0,0" transform="translate(-217.942 5234.726)" fill="#333"/>
    <path id="Tracé_29440" data-name="Tracé 29440" d="M644.422,247.564,623.7,268.288,589.26,233.849a1.7,1.7,0,0,0-2.4,2.4L622.5,271.888a1.7,1.7,0,0,0,2.4,0l21.923-21.923a1.7,1.7,0,0,0-2.4-2.4Zm0,0" transform="translate(-119.405 5221.74)" fill="#333"/>
    <path id="Tracé_29441" data-name="Tracé 29441" d="M644.422,207.564,623.7,228.288,589.26,193.849a1.7,1.7,0,0,0-2.4,2.4L622.5,231.888a1.7,1.7,0,0,0,2.4,0l21.923-21.923a1.7,1.7,0,0,0-2.4-2.4Zm0,0" transform="translate(-119.405 5253.255)" fill="#333"/>
    <path id="Tracé_29442" data-name="Tracé 29442" d="M622.5,110.46a1.7,1.7,0,0,0,2.4,0l21.923-21.924a1.7,1.7,0,0,0,0-2.4L611.183,50.5a1.7,1.7,0,0,0-2.4,0L586.86,72.421a1.7,1.7,0,0,0,0,2.4ZM609.984,54.1l33.239,33.239L623.7,106.859,590.46,73.621Zm0,0" transform="translate(-119.405 5366.199)" fill="#333"/>
    <path id="Tracé_29443" data-name="Tracé 29443" d="M694.785,118.738a4.911,4.911,0,1,0,1.438,3.472A4.876,4.876,0,0,0,694.785,118.738Zm-2.4,4.546a1.517,1.517,0,1,1,0-2.147,1.516,1.516,0,0,1,0,2.147Z" transform="translate(-198.222 5313.175)" fill="#333"/>
    <path id="Tracé_29444" data-name="Tracé 29444" d="M705.435,134.817a1.5,1.5,0,0,1-.445,1.073,1.517,1.517,0,1,1,0-2.147A1.5,1.5,0,0,1,705.435,134.817Z" transform="translate(-210.828 5300.569)" fill="#bed000"/>
  </g>
</svg>
