<svg xmlns="http://www.w3.org/2000/svg" width="69.831" height="86.291" viewBox="0 0 69.831 86.291">
  <g id="papier_entete" data-name="papier entete" transform="translate(-361.923 -5416.709)">
    <g id="Groupe_18357" data-name="Groupe 18357" transform="translate(361.922 5416.708)">
      <path id="Tracé_29428" data-name="Tracé 29428" d="M151.528,52.4H109.7a9.507,9.507,0,0,0-9.5,9.333A9.485,9.485,0,0,0,91.2,71.152v58.037a9.488,9.488,0,0,0,9.5,9.5h41.831a9.507,9.507,0,0,0,9.5-9.333,9.485,9.485,0,0,0,8.994-9.418V61.9A9.488,9.488,0,0,0,151.528,52.4Zm-2.545,76.873H148.9a6.265,6.265,0,0,1-6.279,6.279H100.788a6.265,6.265,0,0,1-6.279-6.279V71.237a6.265,6.265,0,0,1,6.279-6.279h33.77V79.552a1.611,1.611,0,0,0,1.612,1.612h12.812ZM137.7,77.94V67.5l9.333,10.436Zm14.424,48.279V79.552c0-.17-.085-.424-.085-.594,0-.085-.085-.085-.085-.17-.085-.085-.085-.17-.17-.255L137.358,62.327c-.085-.085-.255-.17-.339-.255-.085,0-.085-.085-.17-.085a1.573,1.573,0,0,0-.594-.17H103.418a6.359,6.359,0,0,1,6.279-6.194h41.831a6.265,6.265,0,0,1,6.279,6.279V119.94h.085A6.29,6.29,0,0,1,152.122,126.219Z" transform="translate(-91.2 -52.4)" fill="#333"/>
      <path id="Tracé_29429" data-name="Tracé 29429" d="M319.733,134.036H310.4V123.6Z" transform="translate(-263.903 -108.497)" fill="#bed000"/>
      <path id="Tracé_29430" data-name="Tracé 29430" d="M152.812,172.8h-14a1.612,1.612,0,0,0,0,3.224h13.915a1.613,1.613,0,0,0,.085-3.224Z" transform="translate(-127.442 -147.26)" fill="#333"/>
      <path id="Tracé_29431" data-name="Tracé 29431" d="M152.812,368.8h-14a1.612,1.612,0,1,0,0,3.224h13.915a1.613,1.613,0,0,0,.085-3.224Z" transform="translate(-127.442 -301.684)" fill="#333"/>
      <path id="Tracé_29432" data-name="Tracé 29432" d="M176.546,222.4H139.212a1.612,1.612,0,0,0,0,3.224h37.334a1.611,1.611,0,0,0,1.612-1.612A1.733,1.733,0,0,0,176.546,222.4Z" transform="translate(-127.757 -186.339)" fill="#333"/>
      <path id="Tracé_29433" data-name="Tracé 29433" d="M176.546,259.2H139.212a1.612,1.612,0,1,0,0,3.224h37.334a1.611,1.611,0,0,0,1.612-1.612A1.733,1.733,0,0,0,176.546,259.2Z" transform="translate(-127.757 -215.333)" fill="#333"/>
      <path id="Tracé_29434" data-name="Tracé 29434" d="M176.546,296H139.212a1.612,1.612,0,1,0,0,3.224h37.334a1.611,1.611,0,0,0,1.612-1.612A1.733,1.733,0,0,0,176.546,296Z" transform="translate(-127.757 -244.327)" fill="#333"/>
      <path id="Tracé_29435" data-name="Tracé 29435" d="M176.546,332.8H139.212a1.612,1.612,0,1,0,0,3.224h37.334a1.611,1.611,0,0,0,1.612-1.612A1.733,1.733,0,0,0,176.546,332.8Z" transform="translate(-127.757 -273.321)" fill="#333"/>
    </g>
  </g>
</svg>
