<?xml version="1.0" encoding="utf-8"?>
<!-- Generator: Adobe Illustrator 25.2.1, SVG Export Plug-In . SVG Version: 6.00 Build 0)  -->
<svg version="1.1" id="logo_VV" xmlns="http://www.w3.org/2000/svg" xmlns:xlink="http://www.w3.org/1999/xlink" x="0px" y="0px"
	 viewBox="0 0 146.4 169" style="enable-background:new 0 0 146.4 169;" xml:space="preserve">
<style type="text/css">
	.st0{fill:#F39300;}
</style>
<g id="Groupe_19030" transform="translate(0 0)">
	<g>
		<g id="Groupe_19029">
			<path id="Tracé_31174" class="st0" d="M64,66.1c5.5-1.8,11.4-1.9,16.9-0.4c1.1,0.3,1.7,1.3,1.5,2.4c-0.1,0.3-0.2,0.6-0.5,0.9
				c-4.7,5.3-4.1,13.4,1.1,18c4.8,4.2,12,4.2,16.9,0c0.8-0.7,2.1-0.7,2.8,0.1c0.2,0.2,0.4,0.5,0.5,0.9c1.5,5.6,1.4,11.5-0.4,16.9
				c-3.7,11.6-14.1,20.5-26.3,21.8c-17.1,1.8-32.4-10.5-34.3-27.6c-0.2-2.2-0.2-4.4,0-6.7C43.5,80.2,52.4,69.8,64,66.1"/>
			<path id="Tracé_31175" class="st0" d="M73.2,169C32.8,169,0,136.2,0,95.8c0-21.1,9.1-41.2,25-55.1c4.1-3.5,10.3-3,13.8,1.2
				c3.4,4,3,10-0.9,13.6c-22.3,19.5-24.5,53.4-5,75.7s53.4,24.5,75.7,5s24.5-53.4,5-75.7c-10.2-11.6-24.9-18.3-40.3-18.3
				c-0.7,0-1.5-0.1-2.2-0.3c-0.2,0-0.4-0.1-0.6-0.2c-0.5-0.1-1-0.3-1.5-0.6c-0.2-0.1-0.4-0.2-0.6-0.4c-0.4-0.3-0.9-0.5-1.3-0.9
				c-0.2-0.1-0.4-0.3-0.5-0.4c-0.5-0.5-1-1.1-1.5-1.7l0,0c-0.1-0.1-0.1-0.2-0.2-0.4c-0.3-0.4-0.5-0.9-0.7-1.3
				c-0.1-0.3-0.2-0.6-0.3-0.9c-0.1-0.3-0.2-0.6-0.3-0.9c-0.1-0.5-0.1-1-0.2-1.5c0-0.2,0-0.3,0-0.4l0,0c0-0.6,0.1-1.3,0.2-1.9
				c0.1-0.3,0.2-0.6,0.3-0.9s0.2-0.6,0.3-0.9c0.1-0.3,0.3-0.6,0.5-0.9c0.1-0.3,0.3-0.5,0.4-0.8c0.2-0.3,0.4-0.6,0.7-0.9
				c0.2-0.2,0.3-0.4,0.5-0.6c0.5-0.5,1-0.9,1.5-1.2l0,0L98.1,4c4.5-3,10.6-1.9,13.6,2.6c3,4.5,1.9,10.6-2.6,13.6
				c-0.1,0-0.1,0.1-0.2,0.1l-10.4,6.9c37.9,14,57.3,56.1,43.3,94C131.3,149.9,103.8,169,73.2,169"/>
		</g>
	</g>
</g>
</svg>
