<svg xmlns="http://www.w3.org/2000/svg" width="340.347" height="340.348" viewBox="0 0 340.347 340.348">
  <g id="stats_internationale" data-name="stats internationale" transform="translate(-1152.631 -8413.63)" opacity="0.18">
    <path id="Tracé_30286" data-name="Tracé 30286" d="M339.847,169.924A169.923,169.923,0,1,0,169.922,339.849,169.925,169.925,0,0,0,339.847,169.924" transform="translate(1152.631 8413.63)" fill="#efefef"/>
    <path id="Union_87" data-name="Union 87" d="M81.566,331.287c.247-.6.452-1.047.627-1.384a25.158,25.158,0,0,1,6.231-8.547c.84-.694,1.414-1.047,6.591-3.562,9.744-4.738,11.779-5.479,13-8.014,1.089-2.263.581-3.991,1.781-4.454,1.762-.678,4.537,2.4,6.235,4.275,3.269,3.624,2.9,4.911,5.34,7.126a16.9,16.9,0,0,0,8.016,3.739c1.638.381,4.9.941,11.4-.18,9.762-1.684,11.338-4.5,19.057-4.627,3.292-.06,6.212.4,8.724,2.136,1.9,1.31,1.719,2.076,3.384,3.382a10.526,10.526,0,0,0,6,2.1,170.74,170.74,0,0,1-96.381,8.012Zm24.422-28.641a2.211,2.211,0,0,1-.669-2.6c.524-.81,1.859-.457,2.208-1.236.185-.42-.078-.805-.337-1.469-.175-.452-1.054-2.854-.2-4.607a3.355,3.355,0,0,1,2.4-1.806,2.245,2.245,0,0,1,1.869.57c.734.948-.171,2.77-.766,3.972-1.089,2.2-1.986,2.454-1.972,3.675.018,1.5,1.393,2.046,1.07,2.907a2.358,2.358,0,0,1-2.141,1.089A2.285,2.285,0,0,1,105.988,302.645ZM87.847,286.581c-.228-.194-1-.856-.847-1.38.2-.646,1.55-.279,2.627-1.2,1.137-.976.92-2.5,1.469-2.538s.563,1.516,1.827,2.4c1.343.95,2.86.265,3.2.983.263.556-.411,1.456-.893,1.915a4.836,4.836,0,0,1-3.373,1.2A6.34,6.34,0,0,1,87.847,286.581Zm-2.095-4.669c-1.917-.54-2.577-3.133-3.07-5.077-.683-2.687-.044-3.414-.4-7.347-.334-3.7-.932-3.432-1.068-6.411-.182-3.984.89-4.482.4-7.612-.468-2.987-1.541-3.176-1.869-5.61-.464-3.416,1.416-4.844,2.535-8.547,1.592-5.271-1.246-5.592-.934-15.093.182-5.522,1.22-7.852,0-11.084a28.942,28.942,0,0,1-1.6-5.209c-.424-2.069-.228-2.328-.537-3.206-.957-2.731-3.755-2.8-6.943-5.075-2.874-2.055-6.588-6.288-6.812-10.953-.1-2.035.5-3.435-.265-6.143-.586-2.053-1.28-2.468-1.469-3.873-.364-2.655,1.615-4.863,3.469-7.08,5.559-6.644,8.339-9.965,8.15-12.155-.4-4.551-8.088-9.225-13.356-8.012-1.832.42-2.6,1.373-4.943,1.469-.646.025-3.029.055-7.075-2.406-5.338-3.239-5.552-5.935-10.422-8.281-1.07-.514-.6-.164-4.941-1.6-6.4-2.12-9.663-3.223-13.089-5.345-2.611-1.617-4.634-2.9-6.277-5.474a13.549,13.549,0,0,1-2.4-7.077c-.053-2.717.916-4.09,0-6.413-.591-1.5-1.135-1.278-1.869-2.8-1.3-2.69-.076-4.346-.535-8.016-.413-3.31-1.928-6.113-2.406-6.009-.445.095-.06,2.738-.131,9.216-.042,3.751-.2,5.029-.533,5.077S6.7,114.6,5.884,112.823c-1.306-2.83-2.217-3.458-3.07-5.075-1.474-2.8-.256-3.788-.937-9.352C1.243,93.2.106,93.513.006,89.45c-.069-2.812.429-4.84,1.338-8.549.754-3.084,1.356-4.3,2.27-5.345a9.855,9.855,0,0,1,3.472-2.4c3.107-1.546,3.8-3.481,7.749-8.145A90.686,90.686,0,0,1,26.719,52.719c1.315-1.066,3.815-2.99,4.272-5.875.067-.408.134-1.345.27-3.206.205-2.824.122-2.784.265-3.873.344-2.57.8-2.734.535-3.739-.221-.858-.644-1.112-2.4-3.073-2.115-2.36-1.815-2.337-2.406-2.805-1.615-1.287-3.481-1.126-7.746-.934-2.567.115-4.5.2-5.827.217a170,170,0,0,1,27.714-17.1c5.608.4,10.556,2.138,11.64,4.8a11.338,11.338,0,0,0,3.07,4.943,15.892,15.892,0,0,0,2.072,1.467c2.171,1.331,2.641,1.027,3.871,1.871,2.431,1.663,2.092,3.866,3.806,4.164A2.319,2.319,0,0,0,67.2,29.34a2.33,2.33,0,0,1,1.638-.173c1.027.284,1.149.978,2.136,1.472a5.2,5.2,0,0,0,3.917-.092c3.112-1.008,3.624-3.377,6.148-3.423.078,0,1.389-.018,1.555.487.157.473-.826.95-.713,1.382.221.833,4.092-.277,5.075,1.2a2.7,2.7,0,0,1-.669,3.07c-1.412,1.317-3.882.254-4.316,1.2-.307.674.842,1.426.533,2.36-.221.683-1.063.964-1.958,1.246-4.927,1.566-5.306,1.511-6.189,2.048-1.654,1.01-1.013,1.629-3.07,3.294-2.314,1.88-3.317,1.253-4.9,2.849-1.984,2-2.586,5.2-1.739,5.878a.75.75,0,0,0,.664.072,1.467,1.467,0,0,1,.9.062c1.163.482.75,2,2.048,3.562a7.339,7.339,0,0,0,2.849,1.915c1.458.621,2.27.5,2.761,1.246.385.586.231,1.183.134,2.138a13.962,13.962,0,0,0,.535,5.7c.464,1.333,1.626,3.442,2.847,3.338.948-.083,1.629-1.479,1.869-2.316.427-1.456-.242-1.993-.044-3.739a10.006,10.006,0,0,1,1.336-3.426c1.271-2.489,1.732-2.323,2.272-3.829.713-2-.058-2.394.623-4.54A9.541,9.541,0,0,1,85.886,48.4a6.765,6.765,0,0,1,4.408-2.311,5.843,5.843,0,0,1,3.739,1.246c1.218.95,1.776,2.311,2.851,4.987,1.142,2.844,1.23,3.949,2.046,4.138.687.159.985-.535,3.2-1.825,2.678-1.555,3.509-1.278,3.785-1.158a1.966,1.966,0,0,1,1.07,1.246,3.142,3.142,0,0,1-.533,2.092c-.946,2.217.42,4.939.976,6.055.99,1.975,1.968,2.24,2.228,4.053a3.724,3.724,0,0,1-.224,2.178c-.489,1.047-1.262,1.08-2.671,2.118-2.318,1.7-2.457,3.23-3.963,3.338a5.017,5.017,0,0,1-1.714-.489c-2.574-.962-3.345-1.961-4.45-1.626-.353.108-.189.182-1.068.78-1.338.907-1.91.867-3.093,1.629-.96.611-1.765,1.391-1.672,1.532.074.115.651-.3,1.506-.713a5.68,5.68,0,0,1,3.589-.644,12.636,12.636,0,0,1,2.072.8c1.209.528,1.52.764,1.557,1.068.065.48-.6.71-.512,1.112.1.484,1.082.316,1.961,1.047a2.973,2.973,0,0,1,.98,1.76,3.235,3.235,0,0,1-.734,2.272,4.729,4.729,0,0,1-3.875,1.956c-.489-.009-.987-.016-1.112-.288-.341-.74,2.2-3.227,2.494-3.518.221-.217.6-.579.51-.89a.755.755,0,0,0-.911-.378c-.489.208-.221,1.075-.692,1.737-.586.83-1.931.787-2.4.8-4.175.136-6.143,7.075-11.887,8.016a8.644,8.644,0,0,1-1.569.1,2.532,2.532,0,0,0-1.772.436c-1.557,1.14-.939,3.052-1.869,6.277a15.628,15.628,0,0,1-4.671,7.479c-2.637,2.157-4.078,1.34-5.345,3.34-.93,1.469-.98,3.22-1.066,6.411-.072,2.415.194,3.529-.669,4.807-.588.87-1.749,1.9-2.671,1.606-.657-.208-.946-1-1.068-1.338-.431-1.17.028-1.912.131-3.469a7.105,7.105,0,0,0-.4-3.34c-.805-1.779-2.75-2.484-4.007-2.939a12.039,12.039,0,0,0-6.542-.4c-2.9.664-3.506,2-5.612,1.735-1.606-.2-1.954-1.066-3.338-1.6-4.261-1.652-9.779,3.158-10.284,3.606-2.738,2.441-6.563,7.612-4.941,12.288.639,1.843,2.316,4.155,4.141,4.138,1.769-.012,2.069-2.21,6.009-4.939a9.761,9.761,0,0,1,4.807-2c.364-.032,3.151-.3,3.739.937.208.429.113.983-1.336,3.336-2.083,3.386-2.953,3.961-3.34,5.744-.291,1.356-.265,3.225.537,3.608.609.288,1.223-.5,2.535-1.07,2.108-.909,5.246-.9,6.544.535.494.542.507,1.054.537,5.875.018,3.841.014,4.281.4,4.946,1.1,1.9,3.726,2.731,5.61,2.8a7.222,7.222,0,0,0,2.332-.309,3.793,3.793,0,0,1,2.74-.09c1.46.567,1.647,1.622,2.807,1.6.8-.012,1.511-.676,2.939-2a28.488,28.488,0,0,0,2.268-2.406c1.564-1.822,1.446-1.993,2.138-2.535.992-.773,2.973-1.774,4.143-1.068,1.562.946.729,4.413,1.467,4.542.5.088,1.243-1.416,1.6-2.408.637-1.76.358-2.8.934-3.07s1.49.537,2.272,1.2a53.623,53.623,0,0,0,5.209,3.873c3.5,2.254,5.123.563,8.277,2.807,1.873,1.331,1.257,1.887,3.34,3.873,4.175,3.972,7.889,2.913,9.218,5.878,1.14,2.549-1.006,4.694.265,5.875.752.694,1.887.3,3.435-.1a10.918,10.918,0,0,1,5.114-.3c1.5.3,2.556.96,4.676,2.27,3.624,2.247,4.577,3.885,7.878,6.411a41.869,41.869,0,0,0,6.277,3.873c9.862,5.338,13.827,4.014,16.3,8.016,1.492,2.415,1.419,5.126,1.338,8.279a19.335,19.335,0,0,1-2,8.547c-1.772,3.421-3.167,3.165-5.075,6.012-4.194,6.242-.161,11.463-4.007,15.227-2.1,2.055-3.35.544-8.817,3.073a28.294,28.294,0,0,0-9.347,6.674c-4.45,4.955-4.508,9.17-8.415,10.152-1.587.4-2.768.007-3.873,1.07-1.566,1.506-.367,3.437-2,5.209-1.294,1.4-2.651.849-3.875,2.54-.854,1.174-.362,1.661-1.068,2.535-.824,1.015-2.023,1.01-3.289,1.006a5.129,5.129,0,0,0-3.52.863c-.8.655-.311.844-2.272,6.012-.362.948-.817,2.055-1.737,4.272a25.2,25.2,0,0,1-1.739,3.875c-1.446,2.245-2.394,2.044-2.934,3.606-.676,1.949.623,2.773,0,4.544a5.066,5.066,0,0,1-4.322,3.171A2.8,2.8,0,0,1,85.753,281.912Zm168.819-23.243c-1.509-.351-4.3-1.709-8.544-1.426-3.4.231-5.486,1.368-6.411.358-.824-.9-.009-2.7,1.068-5.52a132.377,132.377,0,0,0,4.452-14.424,52.306,52.306,0,0,0,1.426-8.9c.427-6.2-.722-6.694,0-10.507.8-4.235,2.341-4.291,5.163-11.04a55.713,55.713,0,0,0,3.206-10.33c1.266-6.254,1.991-9.832.533-13.712-1.832-4.874-4.87-4.275-6.411-9.617-.669-2.311-1.755-6.092,0-9.257.77-1.389,1.949-2.413,1.781-4.1-.106-1.084-.77-2.443-1.781-2.671-.768-.173-1.349.4-1.975.964a2.868,2.868,0,0,1-1.942,1c-1.963-.051-2.148-3.246-4.452-4.095-2.231-.824-3.815,1.518-8.369,3.379a25.79,25.79,0,0,1-10.863,1.785c-2.837-.09-6.651-.208-10.33-2.671a17.419,17.419,0,0,1-4.63-4.81c-.443-.627-.736-1.107-4.141-8.729-1.2-2.678-1.493-3.354-1.606-4.54-.074-.8-.028-1.428.669-5.61.621-3.723.722-4.055.535-4.807-.554-2.2-2.15-2.284-3.206-4.275-1.758-3.315.24-7.67,1.07-9.483,1.785-3.889,3.4-3.629,5.077-7.746a25.9,25.9,0,0,0,1.6-6.408c.332-3.426-.251-5.919,1.4-7.347.639-.551,1.29-.669,1.6-1.472.36-.909-.219-1.423-.2-3.07.012-.907.028-2.065.738-2.607.394-.3.759-.215,1.276-.129a4.387,4.387,0,0,0,1.661,0,8.331,8.331,0,0,0,3.07-1.536,17.371,17.371,0,0,1,1.672-1.2,8.632,8.632,0,0,1,5.054-.39,3.937,3.937,0,0,0,1.689.189,7.721,7.721,0,0,0,3.407-1.333c1.665-1.047,1.656-1.716,2.736-1.938a3.273,3.273,0,0,1,3.206,1.2c.381.551.3.969.4,2.468.178,2.669.268,4.007.934,4.411.872.531,1.765-.844,3.873-1,1.23-.095,1.546.328,4.674,1.536,3.756,1.451,6.152,1.945,6.078,2.471-.012.095-.108.166-.212.224.685-.254,2.235-.9,2.217-1.626-.014-.438-.584-.484-1.2-1.269-.081-.1-1.181-1.529-.734-2.607.478-1.149,2.588-1.564,3.806-.865.766.438.7,1.038,1.536,1.933a6.175,6.175,0,0,0,3.073,1.672c3.534.95,6.835-1.31,7.947-2.072a10,10,0,0,0,.819-.618,170.041,170.041,0,0,1-8.987,172.078,8.217,8.217,0,0,1-2,.261A6.445,6.445,0,0,1,254.572,258.668ZM78.053,138.463c-3.49-.074-4.238-.242-4.584-.844a1.843,1.843,0,0,1,0-1.693c.5-.93,1.809-.927,1.825-1.423.012-.431-.967-.5-1.07-1.024-.159-.8,1.871-1.882,3.294-2.406,1.375-.5,2.394-.872,3.43-.4,1.37.625,2.129,2.436,1.691,2.983-.249.3-.872.21-1.391.115-.406-.074-.747-.145-.789-.028-.108.291,1.922.821,2.491,2.45a2.021,2.021,0,0,1,0,1.6c-.286.494-.875.688-3.331.688C79.164,138.482,78.646,138.476,78.053,138.463Zm-11.442-5.61c-.321-.032-2.851-.344-3.253-1.689-.189-.646.27-.983.178-1.781-.028-.272-.2-1.257-2.136-2.494-3.006-1.915-4.106-.508-6.367-2.18-.879-.651-2.161-1.938-3.516-1.737-.136.021-.36.067-.445-.046-.291-.367.888-2.4,2.448-2.985,1.894-.7,4.078.835,6.768,2.717,2.9,2.035,2.5,2.549,4.316,3.34,2.687,1.172,4.277.364,5.924,1.915.118.113,1.682,1.622,1.292,3.027-.4,1.428-2.589,1.959-4.342,1.959A7.716,7.716,0,0,1,66.611,132.853ZM202.355,84.906c-1.389-1.038-.152-3.857-1.739-4.854-.764-.482-1.377-.028-2.044-.623-.8-.706-.5-1.855-.625-3.116-.348-3.377-3.513-4.687-3.029-5.7.328-.685,1.928-.411,3.693-.136,2.018.314,4.249.627,5.033-.489.747-1.063-.055-3.077-.98-4.275-2.51-3.248-7.518-2.494-7.656-3.917-.078-.812,1.5-1.7,2.4-2.048a5.984,5.984,0,0,1,2.418-.339,2.355,2.355,0,0,0,1.859-.461c.284-.27.3-.466.715-2.314.6-2.669.9-4.007,1.243-4.454,1.142-1.474,2.8-1.239,2.939-2.224.072-.514-.344-.814-1.6-2.138a18.143,18.143,0,0,1-3.3-4.187c-.551-1.091-1.031-2.035-.623-2.937a2.613,2.613,0,0,1,3.117-1.248c.909.418.745,1.451,1.516,3.116.095.208,2.03,4.27,5.253,4.632a5.7,5.7,0,0,0,3.827-1.246c1.721-1.17,4.016-3.767,3.474-6.058-.8-3.352-7.05-3.227-7.659-6.764-.277-1.617.849-2.662.09-3.652-.994-1.3-3.4-.088-4.54-1.426-1.087-1.273.341-3.26-.535-4.007-.625-.533-1.716.168-3.1.87a7.048,7.048,0,0,1-4.3,1,6.992,6.992,0,0,1-4.254-3.068,24.98,24.98,0,0,0,4.254,4.761c4.4,3.822,6.812,3.3,11.306,7.479,1.377,1.278,4.6,4.27,3.829,5.878-.524,1.107-2.886,1.453-3.469.715-.524-.657.74-1.682.445-2.941-.563-2.376-6.381-4.323-9.709-2.314-1.839,1.11-1.885,2.812-3.469,3.024-.607.085-1.324-.067-4.275-2.579-3.174-2.7-4.761-4.055-5.608-5.97-.8-1.783-.231-1.91-1.16-4.448a24.233,24.233,0,0,0-3.027-5.522c-2.48-3.7-3.64-4.233-3.827-6.321a5,5,0,0,1,.978-3.652A5.033,5.033,0,0,1,182.9,9.534c.309-.09.784-.226,1.354-.378A170.565,170.565,0,0,1,259.762,73.91c-.362.1-.727.187-1.089.265-.941.205-4.092.865-4.764-.288-.459-.789.54-1.915-.067-2.671-.427-.528-1.036-.134-2.072-.6a4.828,4.828,0,0,1-2.268-2.807,6.842,6.842,0,0,1-.406-2.736c.048-1.292.418-2.247.205-2.339-.168-.072-.4.521-1.068.937a3.976,3.976,0,0,1-1.871.4c-1.266.18-2.87,1.119-3.008,2.072-.182,1.269,2.364,1.571,3.407,4.205a6.051,6.051,0,0,1,.2,3.608,3.486,3.486,0,0,1-1.4,2.471,3.143,3.143,0,0,1-3.875-1.133c-.671-1.213.51-2.187-.2-3.541-.5-.95-1.255-.812-2.4-2a7.631,7.631,0,0,1-1.536-2.537c-1.7-3.661-9.038-6.346-10.884-4.475a2.688,2.688,0,0,0-.27,2.74c.618,1.474,2.448,2.055,5.345,2.939,2.293.7,4.33,1.031,4.339,1.67,0,.344-.593.436-.736,1.066s.36.916.468,1.67c.164,1.137-.692,2.436-1.269,2.4-.378-.021-.556-.614-.865-1.2-.542-1.024-1.562-1.728-3.608-3.14a23.667,23.667,0,0,0-5.278-2.872c-2.009-.75-2.556-.591-2.87-.4-1.015.621-.667,2.245-1.737,2.736a1.242,1.242,0,0,1-1-.023,2.154,2.154,0,0,0-.872-.108c-1.887.175-3.91,3.031-3.675,5.476.136,1.421.939,1.749.8,3.2a5.881,5.881,0,0,1-1.2,2.671c-1.036,1.629-1.693,2.662-2.87,3.14-1.2.482-1.578-.155-3.875-.2a10.59,10.59,0,0,0-2.89.318,7.565,7.565,0,0,1-1.53.324A1.142,1.142,0,0,1,202.355,84.906Zm-9.483-63.887s.045.1.141.281c-.091-.172-.138-.281-.141-.281Zm54.18,59.566a1.793,1.793,0,0,1,.09-1.6c.565-1.008,2-1.084,3.384-1.158s2.517-.136,3.073.623a2.018,2.018,0,0,1,.044,2.09c-.537.929-1.937,1.362-3.322,1.362C248.893,81.9,247.481,81.44,247.052,80.585Zm-15.4-3.426c.136-.641,2.477-.943,4-.09.307.166,1,.558,1.07,1.2a1.11,1.11,0,0,1-.314.89,1.135,1.135,0,0,1-.77.229C234.138,79.391,231.5,77.888,231.649,77.16Zm-120.9.378c-.45-.129-.427-.554-1.469-1.336-.681-.512-.89-.482-1.225-.89a2.215,2.215,0,0,1-.535-1.8c.251-.775,1.114-.614,2.161-1.67.844-.854.708-1.393,1.2-1.536,1.017-.293,3.183,1.557,3.137,3.7-.038,1.948-1.9,3.573-3.013,3.573A.937.937,0,0,1,110.754,77.538ZM191.8,56.86a2.136,2.136,0,0,1-1.511-1.649c-.032-.877,1.112-1.082,1.426-2.18.328-1.153-.528-2.339-1.382-3.518a21.363,21.363,0,0,0-3.07-3.116c-2.484-2.321-2.9-2.77-3.029-3.562-.2-1.273.464-2.819,1.379-3.024.819-.187,1.636.743,2.717,2,1.682,1.961,1.887,3,3.07,4.632a15.641,15.641,0,0,0,4.007,3.739c3.336,2.318,6.189,2.607,6.1,3.294-.062.475-1.419.27-3.7,1.022-2.963.983-4.093,2.462-5.416,2.462A1.873,1.873,0,0,1,191.8,56.86Zm-9.149-.4c-.907-.51-.828-2.134-.734-4.141.095-2.069.182-3.933,1.269-4.339,1.186-.452,3.17,1,3.2,2.2.018.651-.54.9-.471,1.672.088.9.909,1.082,1.006,1.735.171,1.166-2.071,3.032-3.6,3.033A1.369,1.369,0,0,1,182.652,56.459ZM97.421,46.085c-1.977-2.108-2.964-3.16-4.275-3.474-.817-.194-1.73-.18-2.226-.888a2.09,2.09,0,0,1-.27-1.469c.332-1.866,2.833-2,4.1-4.544a2.1,2.1,0,0,0,.311-1.379c-.161-.817-.9-.9-1.915-2.048-.96-1.087-.66-1.421-1.469-2.046-.888-.683-1.414-.411-2.048-1.114-.478-.531-.854-1.446-.533-2s1-.286,1.779-.893a3.5,3.5,0,0,0,.983-1.6c.817-1.9,1.227-2.849,1.689-3.253,1.539-1.333,5.322-.531,6.277,1.382.457.911-.108,1.308.36,2.228.93,1.832,3.661,1.176,4.448,2.8.531,1.093-.565,1.652-.263,3.253.385,2.048,2.367,2.088,3.469,4.362.99,2.035.8,4.863-.4,5.566-.69.4-1.585.037-2.39-.332-.768-.351-1.453-.7-1.795-.378-.976.907,2.558,5.629,1.469,6.676-.323.307-.907.161-1.529.014-.683-.161-1.416-.325-1.9.12-.78.71-.106,2.245-.579,2.448a.228.228,0,0,1-.092.019C100.128,49.529,99.268,48.056,97.421,46.085Zm39,1.2c-1.64-.651-1.562-1.061-2.669-1.426a5.136,5.136,0,0,0-2.867-.037,2.858,2.858,0,0,1-2.388-.141c-.579-.381-.249-.542-1.516-2.136-1.23-1.555-1.649-1.541-1.956-2.406-.286-.81.023-.98,0-2.939a13.153,13.153,0,0,0-.268-2.934c-.434-1.915-1.223-2.734-.759-3.52.217-.364.471-.33.805-.625,1.269-1.114.775-4.4-.669-6.63-.475-.729-1.767-2.72-3.829-2.987a3.519,3.519,0,0,0-1.982.374,4.431,4.431,0,0,1-2.205.385c-1.626-.122-3.421-.98-3.516-1.958-.071-.74.863-1.253.623-2.134-.122-.459-.411-.464-.487-.893a2.1,2.1,0,0,1,1.333-2c.856-.355,1.356.173,2.584.224a5.657,5.657,0,0,0,3.2-.98c2.344-1.423,1.746-3.313,3.608-4.138a3.793,3.793,0,0,1,2.275-.166c.731.115,1.356.231,1.864-.279.851-.854.083-2.155,1.117-3.119a2.558,2.558,0,0,1,2.18-.579c1.02.208,1.133.99,2.048,1.6a3.7,3.7,0,0,0,2.909.339,3.748,3.748,0,0,1,2.611.194c1.2.681.687,1.642,1.958,3.562,2.106,3.183,4.724,2.351,6.5,5.345,1.153,1.942.323,2.754,1.691,4.272,1.481,1.649,3.024,1.326,3.649,2.761.736,1.684-.662,3.772-.888,4.095-1.218,1.753-2.637,1.735-4.985,3.384a17.3,17.3,0,0,0-3.739,3.739c-3.589,5.149-.967,11.647-3.206,12.466a1.319,1.319,0,0,1-.461.078A8.4,8.4,0,0,1,136.417,47.287ZM80.322,44.7c-.185-.078.334-1.163.355-2.939.014-1.031-.159-1.126,0-1.6.127-.374.4-.8,2.537-2,2.166-1.213,2.644-1.2,2.983-1.024a1.506,1.506,0,0,1,.669.844,3.01,3.01,0,0,1-.89,3.16c-1.13.98-2.138.106-3.608,1.024-1.416.893-1.806,2.542-2.028,2.541A.045.045,0,0,1,80.322,44.7Zm75.686-7.546c-.563-.385-.888-1.126-1.536-2.6-.708-1.612-1.211-2.773-.734-3.34.231-.275.579-.272,1.022-.27a3.4,3.4,0,0,0,1.85-.4c.641-.364.664-.664,1.135-1,1.437-1.038,4.71-.77,5.742,1.2.967,1.843-.611,4.081-1.536,5.008a6.406,6.406,0,0,1-4.237,1.875A3,3,0,0,1,156.009,37.158Zm-82.9-8.482c-.854-.344-.678-1.16-1.691-1.555a2.13,2.13,0,0,0-1.193-.076,4.748,4.748,0,0,1-1.481-.016c-.754-.122-1.488-.245-1.779-.8a1.764,1.764,0,0,1,.489-1.961c.651-.558,1.416-.2,1.912-.847.224-.286.115-.42.316-.886a3.606,3.606,0,0,1,1.645-1.652c1.126-.651,1.391-.242,2.448-.757,1.476-.717,1.345-1.707,2.717-2.224.943-.355,2.171-.33,2.45.178.291.533-.752,1.082-.893,2.448-.129,1.26.676,1.578.713,2.893a4.876,4.876,0,0,1-1.472,3.253c-.753.863-2.266,2.12-3.551,2.119A1.676,1.676,0,0,1,73.111,28.675Zm11.218-3.649a3.067,3.067,0,0,1-2.584-2.45c-.108-1.527,1.619-2.556,1.961-2.759,2.023-1.209,5.116-.927,5.656.309.636,1.468-2.025,4.934-4.6,4.933A2.755,2.755,0,0,1,84.329,25.026ZM100.046,21.2c-.517-.291-3.979-2.226-3.606-3.654.2-.784,1.373-.634,2.45-2.09.627-.847.775-1.64.932-1.6.24.058-.584,1.79.046,3.253.967,2.247,4.547,1.956,4.851,3.781a1.464,1.464,0,0,1-.4,1.292,1.283,1.283,0,0,1-.883.287A8.52,8.52,0,0,1,100.046,21.2Zm-33.08-1.336a8.1,8.1,0,0,0-1.926.053,7.221,7.221,0,0,1-2.57-.053c-.824-.161-1.2-.346-1.336-.667-.228-.533.392-.969.713-2.051.438-1.486-.355-1.984.134-2.847.591-1.05,2.334-1.347,3.562-1.07.752.171.662.408,1.379.623a3.887,3.887,0,0,0,2.632-.275,3.617,3.617,0,0,1,2.577-.258,3.309,3.309,0,0,1,1.338.893c.747.782,1.437,2.224.932,3.07-.475.791-1.509.249-2.759,1.246-.93.74-.738,1.347-1.513,1.735a1.287,1.287,0,0,1-.593.149C68.94,20.409,68.335,20,66.966,19.861Zm38.78-1.557c-.358-.1-.074-.955-.8-2-.644-.93-1.315-.911-1.426-1.559-.085-.5.293-.669,1.024-1.961.752-1.324.865-2.055,1.336-2.092.394-.025.512.475.98.491.579.023.849-.731,1.423-1.25a4.045,4.045,0,0,1,3-.676c.431.03.722.06.74-.035.065-.351-3.986-.8-4.187-2.182-.1-.731.893-1.506,1.649-1.869,1.361-.646,2.473-.166,4.761.309,4.8,1.01,6.408.288,7.527,1.785a2.481,2.481,0,0,1,.489,2.4c-.521.925-1.975.364-4.5,1.2-1.8.6-1.615,1.068-3.518,1.735-2.565.907-3.089.115-4.584.89-2.591,1.345-3.174,4.818-3.86,4.818A.21.21,0,0,1,105.746,18.3ZM90.295,16.122c-.4-.572-.148-1.562,0-2.136.182-.71.528-1.391.314-1.557a.252.252,0,0,0-.194-.032c-.055.007-.1.014-.12-.014-.085-.134.484-.817,1.158-1.156a2.94,2.94,0,0,1,3.562.623,2.794,2.794,0,0,1,.178,2.4A3.491,3.491,0,0,1,93.411,16.3a4.066,4.066,0,0,1-1.68.377A1.713,1.713,0,0,1,90.295,16.122ZM81.88,13.363c-.694-.157-.249-2.189-1.509-3.073a2.517,2.517,0,0,0-1.642-.348c-.438.016-.789.032-.941-.231-.427-.734,1.34-2.466,1.825-2.941.973-.953,3.063-3,4.452-2.4.376.161.86.879,1.825,2.316.572.844.676,1.1,1.068,1.29a2.013,2.013,0,0,0,1.345.053c.388-.085.713-.171.927.035a1.625,1.625,0,0,1-.268,1.915c-.512.57-1.209.5-2.014.441a4.247,4.247,0,0,0-2.528.362c-1.564.844-1.857,2.591-2.468,2.591A.338.338,0,0,1,81.88,13.363ZM99.868,9.755c-.136-.051-1.25-.487-1.292-1.246-.078-1.594,4.657-3.649,5.608-2.627.348.371.127,1.073,0,1.469a3.839,3.839,0,0,1-3.432,2.561A2.485,2.485,0,0,1,99.868,9.755Zm49.73-.777c-1.871-.641-4.155-2.224-3.875-3.206.3-1.057,3.458-1.02,5.278-.736.579.092,3.968.627,4.138,2.072.106.886-1.059,1.668-1.269,1.8a3.543,3.543,0,0,1-1.945.533A7.252,7.252,0,0,1,149.6,8.978ZM85.534,1.741a5.856,5.856,0,0,0-3.4.7,4.763,4.763,0,0,1-3.772.544c-.256-.085-1.024-.351-1.07-.8C77.211,1.331,79.82.456,79.967.408,81.012.064,82.56-.238,86.023.272c2.228.33,6.009.89,6.053,1.917.023.528-.95,1.073-1.781,1.246a2.7,2.7,0,0,1-.545.058C88.224,3.492,87.54,2.038,85.534,1.741Z" transform="translate(1206.314 8418.644)" fill="#86868c" stroke="rgba(0,0,0,0)" stroke-miterlimit="10" stroke-width="1"/>
  </g>
</svg>
