<?xml version="1.0" encoding="utf-8"?>
<!-- Generator: Adobe Illustrator 25.2.1, SVG Export Plug-In . SVG Version: 6.00 Build 0)  -->
<svg version="1.1" id="logo_Pix" xmlns="http://www.w3.org/2000/svg" xmlns:xlink="http://www.w3.org/1999/xlink" x="0px" y="0px"
	 viewBox="0 0 144.1 145.6" style="enable-background:new 0 0 144.1 145.6;" xml:space="preserve">
<style type="text/css">
	.st0{fill:#F39300;}
</style>
<g>
	<g id="Groupe_19201" transform="translate(0 0)">
		<path id="Tracé_32667" class="st0" d="M79.6,40.9c-1.7,1.7-1.7,4.5,0,6.3c0.5,0.5,1.2,0.9,2,1.1L93,51.4l44.4,11.9
			c2.4,0.6,4.8-0.8,5.5-3.2c0.2-0.7,0.2-1.3,0.1-2c-2.8-14-9.7-26.8-19.8-36.9c-3.2-3.2-6.6-6-10.4-8.5c-1.8-1.1-4.1-0.9-5.5,0.6
			L79.6,40.9z"/>
		<path id="Tracé_32668" class="st0" d="M48.6,50c0.6,2.4,3.1,3.8,5.4,3.1c0.8-0.2,1.4-0.6,2-1.1l8.3-8.3l32.5-32.5
			c1.7-1.7,1.7-4.6,0-6.3c-0.5-0.5-1.1-0.8-1.7-1.1C81.7-0.8,67.1-1.3,53.3,2.5C49,3.6,44.8,5.2,40.8,7.2c-1.9,0.9-2.8,3.1-2.3,5.1
			L48.6,50z"/>
		<path id="Tracé_32669" class="st0" d="M41.1,81.4c2.4,0.6,4.8-0.8,5.4-3.1c0.2-0.8,0.2-1.5,0-2.3l-3.1-11.4L31.5,20.2
			c-0.6-2.4-3.1-3.8-5.5-3.1c-0.7,0.2-1.3,0.5-1.8,1C13.6,27.4,5.9,39.8,2.2,53.6C1.1,57.9,0.3,62.3,0,66.8c-0.1,2.1,1.3,4,3.3,4.5
			L41.1,81.4z"/>
		<path id="Tracé_32670" class="st0" d="M64.5,103.7c1.7-1.7,1.7-4.5,0-6.3c-0.5-0.5-1.2-0.9-2-1.1l-11.4-3.1L6.7,81.4
			c-2.4-0.6-4.8,0.8-5.5,3.2c-0.2,0.7-0.2,1.3-0.1,2c2.8,14,9.7,26.8,19.8,36.9c3.2,3.2,6.6,6,10.4,8.5c1.8,1.1,4.1,0.9,5.5-0.6
			L64.5,103.7z"/>
		<path id="Tracé_32671" class="st0" d="M95.5,94.6c-0.6-2.4-3.1-3.8-5.4-3.1c-0.8,0.2-1.4,0.6-2,1.1l-8.3,8.3l-32.5,32.5
			c-1.7,1.7-1.7,4.6,0,6.3c0.5,0.5,1.1,0.8,1.7,1.1c13.5,4.6,28.1,5.1,41.9,1.3c4.3-1.2,8.5-2.7,12.6-4.7c1.9-0.9,2.8-3.1,2.3-5.1
			L95.5,94.6z"/>
		<path id="Tracé_32672" class="st0" d="M103,63.2c-2.4-0.6-4.8,0.8-5.4,3.1c-0.2,0.8-0.2,1.5,0,2.3l3.1,11.4l11.9,44.4
			c0.6,2.4,3.1,3.8,5.5,3.1c0.7-0.2,1.3-0.5,1.8-1c10.7-9.4,18.4-21.8,22.1-35.5c1.2-4.3,1.9-8.8,2.2-13.2c0.1-2.1-1.3-4-3.3-4.5
			L103,63.2z"/>
	</g>
</g>
</svg>
