<svg xmlns="http://www.w3.org/2000/svg" width="1920" height="720.757" viewBox="0 0 1920 720.757">
  <path id="Shape_8_Pix" data-name="Shape 8 Pix" d="M-333.972,1791.627l-.025.04a401.911,401.911,0,0,1,45.91,3.184,454.977,454.977,0,0,1,50.3,9.351c16.46,4.011,33.372,9.06,50.262,15,16.425,5.782,33.291,12.573,50.126,20.184,16.347,7.391,33.132,15.765,49.89,24.89,16.236,8.842,32.909,18.641,49.553,29.124,16.085,10.131,32.609,21.195,49.114,32.884,15.9,11.264,32.247,23.434,48.576,36.171,15.688,12.239,31.814,25.356,47.933,38.986,15.43,13.046,31.307,26.951,47.2,41.327,15.136,13.7,30.731,28.229,46.351,43.2,14.8,14.174,30.073,29.177,45.408,44.589,28.039,28.179,56.687,58.1,87.584,91.471,25.313,27.342,52.332,57.231,82.6,91.374a193.789,193.789,0,0,0,19.082,18.673,230.885,230.885,0,0,0,22.168,16.675,285.314,285.314,0,0,0,25.09,14.813c8.685,4.565,18.052,8.967,27.845,13.084,9.543,4.014,19.783,7.881,30.433,11.494,10.349,3.511,21.4,6.888,32.852,10.037,11.093,3.051,22.9,5.983,35.108,8.715,11.784,2.639,24.3,5.173,37.193,7.531,101.827,18.626,223.665,26.028,352.658,33.864,86.285,5.242,175.506,10.663,263.176,19.76,47.349,4.913,89.818,10.422,129.831,16.843,11.217,1.8,22.291,3.685,33.149,5.64V1769.773h-1920v21.841Z" transform="translate(494.61 -1769.773)" fill="#fff"/>
</svg>
