<svg xmlns="http://www.w3.org/2000/svg" xmlns:xlink="http://www.w3.org/1999/xlink" viewBox="0 0 37.1 36.04"><defs><style>.cls-1{fill:url(#Dégradé_sans_nom);}.cls-2{fill:#1f1f1f;}</style><linearGradient id="Dégradé_sans_nom" x1="-3657.73" y1="750.86" x2="-3657.73" y2="751.86" gradientTransform="translate(18808.63 91466.7) rotate(90) scale(25)" gradientUnits="userSpaceOnUse"><stop offset="0" stop-color="#f8b500"/><stop offset="1" stop-color="#f27f00"/></linearGradient></defs><g id="Calque_2" data-name="Calque 2"><g id="Calque_1-2" data-name="Calque 1"><g id="comparatifs_mandats_exclusifs" data-name="comparatifs mandats exclusifs"><circle id="Ellipse_448" data-name="Ellipse 448" class="cls-1" cx="24.6" cy="23.54" r="12.5"/><g id="Groupe_16797" data-name="Groupe 16797"><path id="Tracé_26085" data-name="Tracé 26085" class="cls-2" d="M14,8.6c-.3,0-.6-.1-.9-.1a.65.65,0,0,0-.6.6h0l.1,5.1a.65.65,0,0,0,.6.6h0l5.1-.1a.65.65,0,0,0,.6-.6A5.52,5.52,0,0,0,14,8.6Zm-.2,5-.1-3.9h.1a4.67,4.67,0,0,1,3.9,3.9Z"/><path id="Tracé_26086" data-name="Tracé 26086" class="cls-2" d="M16,15.8l-4.5.1-.1-4.5a.65.65,0,0,0-.6-.6A5.7,5.7,0,0,0,11,22.2a5.76,5.76,0,0,0,5.6-5.8.52.52,0,0,0-.2-.4A.76.76,0,0,0,16,15.8Zm-9.6,0a4.67,4.67,0,0,1,3.9-3.9l.1,4.3L7.7,19.5A4.19,4.19,0,0,1,6.4,15.8ZM10.3,21a6.36,6.36,0,0,1-1.8-.6l2.4-3,2.4,3a5.25,5.25,0,0,1-3,.6Zm5.1-3.9a4.87,4.87,0,0,1-1.2,2.5L12.1,17l3.3-.1v.2Z"/><path id="Tracé_26087" data-name="Tracé 26087" class="cls-2" d="M31.3,26.1h-.6V4.5h.6A1.75,1.75,0,0,0,33,2.8a1.75,1.75,0,0,0-1.7-1.7H17.1V.6a.6.6,0,1,0-1.2,0v.6H1.7A1.75,1.75,0,0,0,0,2.9,1.75,1.75,0,0,0,1.7,4.6h.6V26.2H1.7a1.7,1.7,0,0,0,0,3.4h8.7L8.5,33.3a.78.78,0,0,0,.2.8.78.78,0,0,0,.8-.2h0l2.1-4.2h4.2v4a.6.6,0,0,0,1.2,0v-4h4.2l2.1,4.2a.6.6,0,0,0,1.1-.5h0l-1.9-3.7h8.7A1.75,1.75,0,0,0,32.9,28a1.62,1.62,0,0,0-1.6-1.9ZM1.2,2.8a.65.65,0,0,1,.6-.6H31.3a.65.65,0,0,1,.6.6.65.65,0,0,1-.6.6H1.8a.58.58,0,0,1-.6-.6ZM3.5,4.5H29.6V26.1H3.5ZM31.3,28.4H1.8a.6.6,0,0,1,0-1.2H31.3a.6.6,0,1,1,0,1.2Z"/><path id="Tracé_26088" data-name="Tracé 26088" class="cls-2" d="M21.7,6.8A1.75,1.75,0,0,0,20,8.5a1.7,1.7,0,1,0,3.4,0,1.75,1.75,0,0,0-1.7-1.7Zm0,2.3a.65.65,0,0,1-.6-.6.6.6,0,1,1,1.2,0h0c-.1.3-.3.6-.6.6Z"/><path id="Tracé_26089" data-name="Tracé 26089" class="cls-2" d="M24.5,8h3.4a.65.65,0,0,1,.6.6h0a.65.65,0,0,1-.6.6H24.5a.65.65,0,0,1-.6-.6h0Q24.05,8,24.5,8Z"/><path id="Tracé_26090" data-name="Tracé 26090" class="cls-2" d="M24.5,10.2h3.4a.65.65,0,0,1,.6.6h0a.65.65,0,0,1-.6.6H24.5a.65.65,0,0,1-.6-.6h0C24,10.5,24.2,10.2,24.5,10.2Z"/><path id="Tracé_26091" data-name="Tracé 26091" class="cls-2" d="M21.7,13.6a1.7,1.7,0,1,0,1.7,1.7,1.75,1.75,0,0,0-1.7-1.7Zm0,2.3a.6.6,0,1,1,.6-.6h0c-.1.3-.3.6-.6.6Z"/><path id="Tracé_26092" data-name="Tracé 26092" class="cls-2" d="M24.5,14.8h3.4a.65.65,0,0,1,.6.6h0a.65.65,0,0,1-.6.6H24.5a.65.65,0,0,1-.6-.6h0Q24.05,14.8,24.5,14.8Z"/><path id="Tracé_26093" data-name="Tracé 26093" class="cls-2" d="M24.5,17h2.3a.65.65,0,0,1,.6.6h0a.65.65,0,0,1-.6.6H24.5a.65.65,0,0,1-.6-.6h0C24,17.3,24.2,17,24.5,17Z"/><path id="Tracé_26094" data-name="Tracé 26094" class="cls-2" d="M21.7,19.3A1.7,1.7,0,1,0,23.4,21a1.75,1.75,0,0,0-1.7-1.7Zm0,2.3a.6.6,0,1,1,.6-.6h0c-.1.3-.3.6-.6.6Z"/><path id="Tracé_26095" data-name="Tracé 26095" class="cls-2" d="M24.5,20.4h3.4a.65.65,0,0,1,.6.6h0a.65.65,0,0,1-.6.6H24.5a.65.65,0,0,1-.6-.6h0C24,20.7,24.2,20.4,24.5,20.4Z"/><path id="Tracé_26096" data-name="Tracé 26096" class="cls-2" d="M24.5,22.7h3.4a.65.65,0,0,1,.6.6h0a.65.65,0,0,1-.6.6H24.5a.65.65,0,0,1-.6-.6h0C24,23,24.2,22.7,24.5,22.7Z"/></g></g></g></g></svg>