<svg xmlns="http://www.w3.org/2000/svg" xmlns:xlink="http://www.w3.org/1999/xlink" viewBox="0 0 40.7 35.44"><defs><style>.cls-1{fill:url(#Dégradé_sans_nom);}.cls-2{fill:#1f1f1f;}</style><linearGradient id="Dégradé_sans_nom" x1="-4607.83" y1="3501.85" x2="-4607.83" y2="3500.85" gradientTransform="matrix(0, 24, 24, 0, -84020.01, 110600.03)" gradientUnits="userSpaceOnUse"><stop offset="0" stop-color="#f8b500"/><stop offset="1" stop-color="#f27f00"/></linearGradient></defs><g id="Calque_2" data-name="Calque 2"><g id="Calque_1-2" data-name="Calque 1"><rect id="Rectangle_3029" data-name="Rectangle 3029" class="cls-1" x="0.5" width="24" height="24" rx="4"/><g id="Groupe_16798" data-name="Groupe 16798"><path id="Tracé_26097" data-name="Tracé 26097" class="cls-2" d="M20.35,17.72H13.78V11.15a.65.65,0,0,0-.65-.65h0A7.88,7.88,0,1,0,21,18.38a.65.65,0,0,0-.65-.66Zm-7.88-.93L9,13.3a6.51,6.51,0,0,1,3.49-1.46Zm.66,8.15A6.55,6.55,0,0,1,8.05,14.23l4.61,4.61a.67.67,0,0,0,.47.19h6.53a6.56,6.56,0,0,1-6.53,5.91Z"/><path id="Tracé_26098" data-name="Tracé 26098" class="cls-2" d="M15.75,16.41H23a.66.66,0,0,0,.66-.66h0a7.9,7.9,0,0,0-7.88-7.88.67.67,0,0,0-.66.66h0v7.22a.67.67,0,0,0,.66.66Zm.66-7.19a6.56,6.56,0,0,1,5.87,5.87H16.41Z"/><path id="Tracé_26099" data-name="Tracé 26099" class="cls-2" d="M21.66,22.32h0a.66.66,0,0,1,.66.65h0a.67.67,0,0,1-.66.66h0A.67.67,0,0,1,21,23h0a.66.66,0,0,1,.66-.65Z"/><path id="Tracé_26100" data-name="Tracé 26100" class="cls-2" d="M24.29,21h0a.66.66,0,0,1,.65.66h0a.66.66,0,0,1-.65.66h0a.67.67,0,0,1-.66-.66h0A.66.66,0,0,1,24.29,21Z"/><path id="Tracé_26101" data-name="Tracé 26101" class="cls-2" d="M26.91,23.63h0a.66.66,0,0,1,.66.65h0a.66.66,0,0,1-.66.66h0a.65.65,0,0,1-.65-.66h0A.65.65,0,0,1,26.91,23.63Z"/><path id="Tracé_26102" data-name="Tracé 26102" class="cls-2" d="M29.54,18.38h0a.65.65,0,0,1,.65.65h0a.65.65,0,0,1-.65.66h0a.66.66,0,0,1-.66-.66h0A.66.66,0,0,1,29.54,18.38Z"/><path id="Tracé_26103" data-name="Tracé 26103" class="cls-2" d="M32.16,19.69h0a.65.65,0,0,1,.66.66h0a.65.65,0,0,1-.66.65h0a.65.65,0,0,1-.65-.65h0A.65.65,0,0,1,32.16,19.69Z"/><path id="Tracé_26104" data-name="Tracé 26104" class="cls-2" d="M34.79,15.75h0a.66.66,0,0,1,.66.66h0a.66.66,0,0,1-.66.65h0a.66.66,0,0,1-.66-.65h0a.66.66,0,0,1,.66-.66Z"/><path id="Tracé_26105" data-name="Tracé 26105" class="cls-2" d="M25.6,7.87h9.19a.67.67,0,0,1,.66.66h0a.67.67,0,0,1-.66.66H25.6a.67.67,0,0,1-.66-.66h0A.67.67,0,0,1,25.6,7.87Z"/><path id="Tracé_26106" data-name="Tracé 26106" class="cls-2" d="M25.6,10.5h9.19a.66.66,0,0,1,.66.65h0a.66.66,0,0,1-.66.66H25.6a.66.66,0,0,1-.66-.66h0A.66.66,0,0,1,25.6,10.5Z"/><path id="Tracé_26107" data-name="Tracé 26107" class="cls-2" d="M40,31.51h-2V6.44a2,2,0,0,0-.65-3.82H3.28a2,2,0,0,0-.66,3.82V31.51h-2a.65.65,0,0,0-.66.65H0v2.63a.65.65,0,0,0,.66.65H40.05a.65.65,0,0,0,.65-.65h0V32.16a.65.65,0,0,0-.65-.65ZM3.28,3.93H37.42a.66.66,0,0,1,0,1.32H3.28a.66.66,0,0,1,0-1.32ZM34.13,19v9.85H32.82V23a.65.65,0,0,0-.66-.65h0a.65.65,0,0,0-.65.65v5.91H30.2V21.66a.67.67,0,0,0-.66-.66h0a.67.67,0,0,0-.66.66v7.22H27.57v-2a.66.66,0,0,0-.66-.66h0a.66.66,0,0,0-.65.66h0v2H25v-4.6a.67.67,0,0,0-.66-.66h0a.67.67,0,0,0-.66.66v4.6H22.32V25.6a.66.66,0,0,0-.66-.66h0a.66.66,0,0,0-.65.66v3.28h-.66a.65.65,0,0,0-.65.66h0a.65.65,0,0,0,.65.65H36.76V31.5H3.94V6.56H36.76V28.88H35.45V19a.65.65,0,0,0-.66-.65h0a.66.66,0,0,0-.66.65Zm5.26,15.1H1.31V32.82H39.39Z"/></g></g></g></svg>