<svg xmlns="http://www.w3.org/2000/svg" xmlns:xlink="http://www.w3.org/1999/xlink" viewBox="0 0 30.98 31.41"><defs><style>.cls-1{fill:url(#Dégradé_sans_nom);}.cls-2{fill:#1f1f1f;}</style><linearGradient id="Dégradé_sans_nom" x1="-3610.98" y1="1609.86" x2="-3610.98" y2="1610.86" gradientTransform="translate(83064.04 -37021.82) scale(23)" gradientUnits="userSpaceOnUse"><stop offset="0" stop-color="#f8b500"/><stop offset="1" stop-color="#f27f00"/></linearGradient></defs><g id="Calque_2" data-name="Calque 2"><g id="Calque_1-2" data-name="Calque 1"><g id="chiffre"><path id="Rectangle_3026" data-name="Rectangle 3026" class="cls-1" d="M5,5H18a5,5,0,0,1,5,5V23a5,5,0,0,1-5,5H5a5,5,0,0,1-5-5V10A5,5,0,0,1,5,5Z"/><g id="Groupe_16793" data-name="Groupe 16793"><g id="Groupe_16793-2" data-name="Groupe 16793-2"><path id="Tracé_26066" data-name="Tracé 26066" class="cls-2" d="M29.7,28.34A13.67,13.67,0,0,1,12,20.44h0c0-.1-.1-.3-.1-.4H26a1,1,0,0,0,1-1,.94.94,0,0,0-1-1H11.4a14.21,14.21,0,0,1-.1-4.6H27.5a1,1,0,0,0,0-2H11.7a13.64,13.64,0,0,1,17-9.1c.3.1.6.2,1,.3a.88.88,0,0,0,1.2-.5.88.88,0,0,0-.5-1.2h0A15.82,15.82,0,0,0,10.3,10a8.45,8.45,0,0,0-.5,1.7H6a1,1,0,0,0,0,2H9.4a14.21,14.21,0,0,0,.1,4.6H6a1,1,0,0,0,0,2H9.9a15.59,15.59,0,0,0,19.4,10.4,4.87,4.87,0,0,0,1.1-.4.88.88,0,0,0,.5-1.2C30.7,28.34,30.2,28.14,29.7,28.34Z"/></g></g></g></g></g></svg>