<svg xmlns="http://www.w3.org/2000/svg" xmlns:xlink="http://www.w3.org/1999/xlink" viewBox="0 0 38.4 22.19"><defs><style>.cls-1{fill:url(#Dégradé_sans_nom);}.cls-2{fill:#1f1f1f;}</style><linearGradient id="Dégradé_sans_nom" x1="-3598.62" y1="1468.05" x2="-3598.62" y2="1469.05" gradientTransform="translate(79183.87 -32296.84) scale(22)" gradientUnits="userSpaceOnUse"><stop offset="0" stop-color="#f8b500"/><stop offset="1" stop-color="#f27f00"/></linearGradient></defs><g id="Calque_2" data-name="Calque 2"><g id="Calque_1-2" data-name="Calque 1"><g id="suivi"><circle id="Ellipse_447" data-name="Ellipse 447" class="cls-1" cx="14.29" cy="11.19" r="11"/><g id="Groupe_16796" data-name="Groupe 16796"><path id="Tracé_26075" data-name="Tracé 26075" class="cls-2" d="M15.25,10.9a.65.65,0,0,0-.6-.6h-2.3a.6.6,0,0,0,0,1.2h2.3a.58.58,0,0,0,.6-.6Z"/><path id="Tracé_26076" data-name="Tracé 26076" class="cls-2" d="M23.35,10.9a.65.65,0,0,0,.6.6h2.3a.6.6,0,1,0,0-1.2H24C23.65,10.4,23.35,10.6,23.35,10.9Z"/><path id="Tracé_26077" data-name="Tracé 26077" class="cls-2" d="M19.25,7.9a3,3,0,0,0,0,6,3.07,3.07,0,0,0,3-3A3,3,0,0,0,19.25,7.9Zm0,4.8a1.8,1.8,0,1,1,1.8-1.8A1.79,1.79,0,0,1,19.25,12.7Z"/><path id="Tracé_26078" data-name="Tracé 26078" class="cls-2" d="M13.85,9.1a.65.65,0,0,0,.6-.6V5.9h2.6a.65.65,0,0,0,.6-.6.65.65,0,0,0-.6-.6h-2.8a.9.9,0,0,0-.9.9V8.4c0,.5.2.7.5.7Z"/><path id="Tracé_26079" data-name="Tracé 26079" class="cls-2" d="M21.55,6h2.6V8.6a.6.6,0,1,0,1.2,0V5.8a.9.9,0,0,0-.9-.9h-2.8a.65.65,0,0,0-.6.6c-.1.2.2.5.5.5Z"/><path id="Tracé_26080" data-name="Tracé 26080" class="cls-2" d="M24.65,12.5a.65.65,0,0,0-.6.6v2.6h-2.6a.6.6,0,0,0,0,1.2h2.8a.9.9,0,0,0,.9-.9V13.2a.51.51,0,0,0-.5-.7Z"/><path id="Tracé_26081" data-name="Tracé 26081" class="cls-2" d="M17.05,15.7h-2.6V13.1a.6.6,0,0,0-1.2,0v2.8a.9.9,0,0,0,.9.9H17a.65.65,0,0,0,.6-.6.47.47,0,0,0-.5-.5Z"/><path id="Tracé_26082" data-name="Tracé 26082" class="cls-2" d="M19.25,6.7a.65.65,0,0,0,.6-.6V3.9a.6.6,0,1,0-1.2,0V6.1Q18.8,6.7,19.25,6.7Z"/><path id="Tracé_26083" data-name="Tracé 26083" class="cls-2" d="M19.25,14.9a.65.65,0,0,0-.6.6v2.4a.6.6,0,0,0,1.2,0V15.5A.65.65,0,0,0,19.25,14.9Z"/><path id="Tracé_26084" data-name="Tracé 26084" class="cls-2" d="M3.05,15.3l1.1,1a23.26,23.26,0,0,0,5,3.1,28.42,28.42,0,0,0,7.6,2,20.08,20.08,0,0,0,4.9,0,22.52,22.52,0,0,0,7.6-2,19.9,19.9,0,0,0,5-3.1l1.1-1a20.89,20.89,0,0,0,2-2.2c1.4-1.7,1.4-3,0-4.7h0a20.89,20.89,0,0,0-2-2.2l-1.1-1a23.26,23.26,0,0,0-5-3.1,25.1,25.1,0,0,0-20.1,0,.54.54,0,1,0,.4,1A17.26,17.26,0,0,1,12.75,2a8.56,8.56,0,0,0-1.9,1.9,11,11,0,0,0-2.4,6.8,10.66,10.66,0,0,0,2.4,6.8,17,17,0,0,0,1.9,1.9A20.24,20.24,0,0,1,2,12.4H2c-1-1.3-1-2,0-3.3a20.11,20.11,0,0,1,5.4-4.7.54.54,0,0,0,.2-.8h0a.54.54,0,0,0-.8-.2h0a24,24,0,0,0-2.6,1.8l-1.1,1a20.89,20.89,0,0,0-2,2.2c-1.4,1.7-1.4,3,0,4.7A14.16,14.16,0,0,0,3.05,15.3Zm33.6-6.1c1,1.3,1,2,0,3.3a21,21,0,0,1-10.8,7,8.56,8.56,0,0,0,1.9-1.9,11,11,0,0,0,2.4-6.8A10.66,10.66,0,0,0,27.75,4a17,17,0,0,0-1.9-1.9,21.84,21.84,0,0,1,10.8,7.1Zm-27,1.6a9.54,9.54,0,0,1,7.4-9.4,17.7,17.7,0,0,1,2.3-.1,17.7,17.7,0,0,1,2.3.1,9.54,9.54,0,0,1,7.4,9.4,9.64,9.64,0,0,1-7.4,9.4h0a16.2,16.2,0,0,1-2.2.1h0a15.48,15.48,0,0,1-2.2-.1,9.51,9.51,0,0,1-7.6-9.4Z"/></g></g></g></g></svg>