<svg xmlns="http://www.w3.org/2000/svg" xmlns:xlink="http://www.w3.org/1999/xlink" viewBox="0 0 35.2 31.6"><defs><style>.cls-1{fill:url(#Dégradé_sans_nom);}.cls-2{fill:#1f1f1f;}</style><linearGradient id="Dégradé_sans_nom" x1="-3623.26" y1="1249.64" x2="-3623.26" y2="1250.64" gradientTransform="translate(72490.48 -24991.74) scale(20)" gradientUnits="userSpaceOnUse"><stop offset="0" stop-color="#f8b500"/><stop offset="1" stop-color="#f27f00"/></linearGradient></defs><g id="Calque_2" data-name="Calque 2"><g id="Calque_1-2" data-name="Calque 1"><g id="taux_honoraires" data-name="taux honoraires"><path id="Rectangle_3028" data-name="Rectangle 3028" class="cls-1" d="M19.2,1.11h12a4,4,0,0,1,4,4v12a4,4,0,0,1-4,4h-12a4,4,0,0,1-4-4v-12A4,4,0,0,1,19.2,1.11Z"/><g id="Groupe_16795" data-name="Groupe 16795"><path id="Tracé_26073" data-name="Tracé 26073" class="cls-2" d="M32.4,30.2h-.7V17.9a1.37,1.37,0,0,0-1.4-1.4H24.8a1.37,1.37,0,0,0-1.4,1.4V30.2H20.7V15.1a1.37,1.37,0,0,0-1.4-1.4H13.8a1.37,1.37,0,0,0-1.4,1.4V30.2H9.7V23.4A1.37,1.37,0,0,0,8.3,22H2.8a1.37,1.37,0,0,0-1.4,1.4v6.8H.7a.7.7,0,0,0,0,1.4H32.2a.68.68,0,0,0,.7-.7c0-.4-.1-.7-.5-.7Zm-24,0H2.9V23.4H8.4Zm11,0H13.9V15.1h5.5Zm10.9,0H24.8V17.9h5.5Z"/><path id="Tracé_26074" data-name="Tracé 26074" class="cls-2" d="M3.6,13.8a.76.76,0,0,0,.5-.2L10.7,7,21.3,9.6a.66.66,0,0,0,.7-.2l7-7V6.2a.7.7,0,1,0,1.4,0V.7a.76.76,0,0,0-.2-.5.76.76,0,0,0-.5-.2H24.2a.68.68,0,0,0-.7.7.68.68,0,0,0,.7.7H28L21.2,8.2,10.6,5.5a.66.66,0,0,0-.7.2L3.1,12.5a.67.67,0,0,0,0,1C3.3,13.7,3.4,13.8,3.6,13.8Z"/></g></g></g></g></svg>