<svg xmlns="http://www.w3.org/2000/svg" xmlns:xlink="http://www.w3.org/1999/xlink" viewBox="0 0 36.12 33.2"><defs><style>.cls-1{fill:url(#Dégradé_sans_nom);}.cls-2{fill:#1f1f1f;}</style><linearGradient id="Dégradé_sans_nom" x1="-3417.04" y1="1362.72" x2="-3417.04" y2="1363.72" gradientTransform="translate(30510.9 -70968.62) rotate(-45) scale(21)" gradientUnits="userSpaceOnUse"><stop offset="0" stop-color="#f8b500"/><stop offset="1" stop-color="#f27f00"/></linearGradient></defs><g id="Calque_2" data-name="Calque 2"><g id="Calque_1-2" data-name="Calque 1"><g id="répartition"><path id="Rectangle_3031" data-name="Rectangle 3031" class="cls-1" d="M1.2,11.52l9.2-9.2a4,4,0,0,1,5.7,0l9.2,9.2a4,4,0,0,1,0,5.7l-9.2,9.2a4,4,0,0,1-5.7,0l-9.2-9.2A4,4,0,0,1,1.2,11.52Z"/><g id="Groupe_16800" data-name="Groupe 16800"><path id="Tracé_26113" data-name="Tracé 26113" class="cls-2" d="M23.62,9a4.12,4.12,0,0,0-4.1-4.1A4.19,4.19,0,0,0,15.42,9a4.19,4.19,0,0,0,4.1,4.1h0A4.05,4.05,0,0,0,23.62,9Zm-7.3,0a3.2,3.2,0,1,1,3.2,3.2h0A3.16,3.16,0,0,1,16.32,9Z"/><path id="Tracé_26114" data-name="Tracé 26114" class="cls-2" d="M36.12,32.6l-4-10.5a.55.55,0,0,0-.5-.3H24l.1-.2c2.9-4.8,4.4-9,4.4-12.5a9.1,9.1,0,1,0-18.2,0c0,3.5,1.4,7.7,4.4,12.5,0,.1.1.1.1.2H7.22a.55.55,0,0,0-.5.3l-4,10.5a.42.42,0,0,0,.3.6h32.5a.47.47,0,0,0,.5-.5.1.1,0,0,0,.1-.1ZM11.32,9a8.1,8.1,0,1,1,16.2,0h0c0,7-6.5,15.5-8.1,17.6-1.6-2-8.1-10.6-8.1-17.6Zm7.8,18.7a.62.62,0,0,0,.7.1h0l.1-.1a45.38,45.38,0,0,0,3.6-5h7.8l.6,1.6-15.3,5.4-5.5-7.1h4.3a51.49,51.49,0,0,0,3.7,5.1Zm-2.5,3.2h0l9.1-3.2,3.5,4.6H12.72Zm-9-8.1h2.3l5.7,7.4-5.8,2.1H4Zm22.9,9.4-3.8-5,5.6-2,2.6,6.9h-4.4Z"/></g></g></g></g></svg>