<svg xmlns="http://www.w3.org/2000/svg" xmlns:xlink="http://www.w3.org/1999/xlink" viewBox="0 0 33.79 35.88"><defs><style>.cls-1{fill:url(#Dégradé_sans_nom);}.cls-2{fill:#1f1f1f;}</style><linearGradient id="Dégradé_sans_nom" x1="-3287.29" y1="1286.58" x2="-3287.29" y2="1287.58" gradientTransform="translate(72341.45 -28304.83) scale(22)" gradientUnits="userSpaceOnUse"><stop offset="0" stop-color="#f8b500"/><stop offset="1" stop-color="#f27f00"/></linearGradient></defs><g id="Calque_2" data-name="Calque 2"><g id="Calque_1-2" data-name="Calque 1"><g id="analyse"><circle id="Ellipse_452" data-name="Ellipse 452" class="cls-1" cx="21" cy="11" r="11"/><g id="Groupe_16811" data-name="Groupe 16811"><g id="Groupe_16802" data-name="Groupe 16802"><g id="Groupe_16801" data-name="Groupe 16801"><path id="Tracé_26115" data-name="Tracé 26115" class="cls-2" d="M4.65,8.59a.7.7,0,0,0,0,1.4.86.86,0,0,0,.6-.7h0a.67.67,0,0,0-.6-.7Z"/></g></g><g id="Groupe_16804" data-name="Groupe 16804"><g id="Groupe_16803" data-name="Groupe 16803"><path id="Tracé_26116" data-name="Tracé 26116" class="cls-2" d="M11.84,4.64a9.88,9.88,0,0,0-5.9,2.1.77.77,0,0,0-.1,1,.63.63,0,0,0,.9.1h0a7.88,7.88,0,1,1-1,11.1,8.11,8.11,0,0,1-1.6-7,.66.66,0,0,0-.5-.8c-.2-.2-.6,0-.7.3h0a9.25,9.25,0,1,0,11.3-6.6A19.42,19.42,0,0,0,11.84,4.64Z"/></g></g><g id="Groupe_16806" data-name="Groupe 16806"><g id="Groupe_16805" data-name="Groupe 16805"><path id="Tracé_26117" data-name="Tracé 26117" class="cls-2" d="M32.8,30.1l-7.3-7.3a2,2,0,0,0-2.2-.4l-1.7-1.7a12,12,0,0,0,2.2-6.9,11.9,11.9,0,1,0-11.9,12,12,12,0,0,0,6.9-2.2l1.7,1.7a2,2,0,0,0,.4,2.3l7.3,7.3a3.32,3.32,0,0,0,4.7,0,3.54,3.54,0,0,0-.1-4.8ZM11.9,24.4a10.55,10.55,0,1,1,0-21.1A10.46,10.46,0,0,1,22.4,13.9h0A10.5,10.5,0,0,1,11.9,24.4Zm7.9-1.7.9-.9,1.5,1.5-.9.9Zm12,11.1a1.93,1.93,0,0,1-2.8,0h0l-7.3-7.3a.56.56,0,0,1,0-.9h0l1.9-1.9h0a.56.56,0,0,1,.9,0L31.8,31a1.93,1.93,0,0,1,0,2.8Z"/></g></g><g id="Groupe_16808" data-name="Groupe 16808"><g id="Groupe_16807" data-name="Groupe 16807"><path id="Tracé_26118" data-name="Tracé 26118" class="cls-2" d="M11.89,7.27a5.34,5.34,0,0,0-5.3,5.3c0,2.4,3.3,6.2,4.8,7.7a.56.56,0,0,0,.9,0h0c1.6-1.6,4.8-5.4,4.8-7.7A5.25,5.25,0,0,0,11.89,7.27Zm0,11.6c-1.4-1.5-4-4.6-4-6.3a4,4,0,0,1,8,0C15.79,14.17,13.29,17.27,11.89,18.87Z"/></g></g><g id="Groupe_16810" data-name="Groupe 16810"><g id="Groupe_16809" data-name="Groupe 16809"><path id="Tracé_26119" data-name="Tracé 26119" class="cls-2" d="M11.82,9.91a2.6,2.6,0,1,0,0,5.2,2.58,2.58,0,0,0,2.6-2.6h0A2.52,2.52,0,0,0,11.82,9.91Zm0,4a1.35,1.35,0,0,1-1.3-1.4,1.32,1.32,0,0,1,1.3-1.3,1.35,1.35,0,0,1,1.4,1.3h0A1.37,1.37,0,0,1,11.82,13.91Z"/></g></g></g></g></g></g></svg>