<svg xmlns="http://www.w3.org/2000/svg" xmlns:xlink="http://www.w3.org/1999/xlink" viewBox="0 0 37.12 37.1"><defs><style>.cls-1{fill:url(#Dégradé_sans_nom);}.cls-2{fill:#1f1f1f;}</style><linearGradient id="Dégradé_sans_nom" x1="-3292.68" y1="1358.67" x2="-3292.68" y2="1359.67" gradientTransform="translate(75757.25 -31249.49) scale(23)" gradientUnits="userSpaceOnUse"><stop offset="0" stop-color="#f8b500"/><stop offset="1" stop-color="#f27f00"/></linearGradient></defs><g id="Calque_2" data-name="Calque 2"><g id="Calque_1-2" data-name="Calque 1"><g id="temps_moyen" data-name="temps moyen"><path id="Rectangle_3030" data-name="Rectangle 3030" class="cls-1" d="M19.12,0h13a5,5,0,0,1,5,5V18a5,5,0,0,1-5,5h-13a5,5,0,0,1-5-5V5A5,5,0,0,1,19.12,0Z"/><g id="Layer_9" data-name="Layer 9"><path id="Tracé_26110" data-name="Tracé 26110" class="cls-2" d="M0,19A18.1,18.1,0,1,0,18.1.9h0A18.1,18.1,0,0,0,0,19Zm34.7,0A16.5,16.5,0,1,1,18.2,2.5,16.52,16.52,0,0,1,34.7,19Z"/><path id="Tracé_26111" data-name="Tracé 26111" class="cls-2" d="M3.2,19a15,15,0,1,0,15-15h0A15,15,0,0,0,3.2,19Zm23.9-7.9,1-1a13.43,13.43,0,0,1,3.4,8.1H29.9a.86.86,0,0,0-.8.8h0a.86.86,0,0,0,.8.8h1.6a13.69,13.69,0,0,1-3.4,8.1l-1-1a.78.78,0,0,0-1.1,0h0A.78.78,0,0,0,26,28l1,1a13.43,13.43,0,0,1-8.1,3.4V30.8a.86.86,0,0,0-.8-.8h0a.86.86,0,0,0-.8.8h0v1.6A13.69,13.69,0,0,1,9.2,29l1-1a.78.78,0,0,0,0-1.1h0a.78.78,0,0,0-1.1,0l-1,1a13.69,13.69,0,0,1-3.4-8.1H6.2A.86.86,0,0,0,7,19H7a.86.86,0,0,0-.8-.8H4.7a13.69,13.69,0,0,1,3.4-8.1l1,1a.78.78,0,0,0,1.1,0h0a.78.78,0,0,0,0-1.1h0l-1-1a13.43,13.43,0,0,1,8.1-3.4V7.1a.86.86,0,0,0,.8.8h0a.86.86,0,0,0,.8-.8h0V5.6A13.69,13.69,0,0,1,27,9l-1,1a.78.78,0,0,0,0,1.1h0A.78.78,0,0,0,27.1,11.1Z"/><path id="Tracé_26112" data-name="Tracé 26112" class="cls-2" d="M18.1,9.5h0a.86.86,0,0,0-.8.8h0V19a1.42,1.42,0,0,0,.2.6l4.2,4.2a.78.78,0,0,0,1.1,0h0a.78.78,0,0,0,0-1.1h0l-3.9-3.9V10.5a.91.91,0,0,0-.8-1Z"/></g></g></g></g></svg>