<svg xmlns="http://www.w3.org/2000/svg" xmlns:xlink="http://www.w3.org/1999/xlink" viewBox="0 0 37.2 34.5"><defs><style>.cls-1{fill:url(#Dégradé_sans_nom);}.cls-2{fill:#1f1f1f;}</style><linearGradient id="Dégradé_sans_nom" x1="-3781.35" y1="1568.62" x2="-3781.35" y2="1569.62" gradientTransform="translate(36001.03 -86999.94) rotate(-45) scale(23)" gradientUnits="userSpaceOnUse"><stop offset="0" stop-color="#f8b500"/><stop offset="1" stop-color="#f27f00"/></linearGradient></defs><g id="Calque_2" data-name="Calque 2"><g id="Calque_1-2" data-name="Calque 1"><g id="tableau"><path id="Rectangle_3027" data-name="Rectangle 3027" class="cls-1" d="M9.1,14.68,19.7,4.08a4,4,0,0,1,5.7,0L36,14.68a4,4,0,0,1,0,5.7L25.4,31a4,4,0,0,1-5.7,0L9.1,20.38A4,4,0,0,1,9.1,14.68Z"/><path class="cls-2" d="M36,3a3,3,0,0,0-3-3H3A3,3,0,0,0,0,3,3,3,0,0,0,3,6h.1V23.3a2.22,2.22,0,0,0,2.2,2.2H17.2v3.4l-6.5,4.3a.6.6,0,0,0-.3.6.77.77,0,0,0,.8.7.44.44,0,0,0,.3-.1l5.7-3.77V33.7a.79.79,0,0,0,.8.8.86.86,0,0,0,.8-.8v-3l5.6,3.71a.6.6,0,0,0,.4.1.86.86,0,0,0,.6-.3.78.78,0,0,0-.2-1L18.8,29V25.5h12a2.56,2.56,0,0,0,2.4-2.2V6A2.93,2.93,0,0,0,36,3ZM31.6,23.2a.79.79,0,0,1-.8.8H5.3a.79.79,0,0,1-.8-.8V6H31.6ZM33,4.5H3A1.54,1.54,0,0,1,1.5,3,1.54,1.54,0,0,1,3,1.5H33A1.54,1.54,0,0,1,34.5,3,1.54,1.54,0,0,1,33,4.5Z"/><path class="cls-2" d="M9.8,21c.2,0,.3-.1.4-.1l5.6-5.6,4,2.7a.78.78,0,0,0,1-.2l6-7.5a.71.71,0,0,0-.1-1.1.78.78,0,0,0-1.1.1l-5.6,7-3.9-2.6a.64.64,0,0,0-.9.1l-6,6a.76.76,0,0,0-.2.5A.85.85,0,0,0,9.8,21Z"/></g></g></g></svg>