<svg xmlns="http://www.w3.org/2000/svg" xmlns:xlink="http://www.w3.org/1999/xlink" viewBox="0 0 32.64 39.62"><defs><style>.cls-1{fill:url(#Dégradé_sans_nom);}.cls-2{fill:#1f1f1f;}</style><linearGradient id="Dégradé_sans_nom" x1="-3285.25" y1="1372.54" x2="-3285.25" y2="1373.54" gradientTransform="translate(72297.23 -30186.95) scale(22)" gradientUnits="userSpaceOnUse"><stop offset="0" stop-color="#f8b500"/><stop offset="1" stop-color="#f27f00"/></linearGradient></defs><g id="Calque_2" data-name="Calque 2"><g id="Calque_1-2" data-name="Calque 1"><g id="typologie"><circle id="Ellipse_451" data-name="Ellipse 451" class="cls-1" cx="21.64" cy="19.9" r="11"/><g id="Groupe_16799" data-name="Groupe 16799"><circle id="Ellipse_449" data-name="Ellipse 449" class="cls-2" cx="14.6" cy="14.9" r="1"/><path id="Tracé_26108" data-name="Tracé 26108" class="cls-2" d="M8.9,23H20.4a.79.79,0,0,0,.8-.8h0V15l1,.9a.79.79,0,0,0,1.1-.1.76.76,0,0,0-.1-1L15.1,7.9a.91.91,0,0,0-1,0L6,14.8a.78.78,0,0,0,0,1.1A.77.77,0,0,0,7,16l1-.9v7.2a1,1,0,0,0,.9.7Zm.7-9.3,5-4.3,5,4.3v7.8H15.4V18.4a.79.79,0,0,0-.8-.8.74.74,0,0,0-.8.8v3.1H9.6Z"/><path id="Tracé_26109" data-name="Tracé 26109" class="cls-2" d="M14.1,39.4a.78.78,0,0,0,1.1,0h0c4.9-5.1,14.1-16.5,14.1-24.1a14.86,14.86,0,0,0-2.1-7.7.81.81,0,0,0-1.4.8,14,14,0,0,1,1.9,6.9c0,7.8-10.5,19.7-13.1,22.4C12,34.9,1.5,23.1,1.5,15.3,1.5,8,7.5,1.7,14.6,1.7a13,13,0,0,1,6.7,1.9.81.81,0,0,0,1.1-.2.81.81,0,0,0-.2-1.1.1.1,0,0,1-.1-.1A14,14,0,0,0,14.6,0C6.4,0,0,7.1,0,15.1c0,7.8,9.2,19.2,14.1,24.3Z"/><circle id="Ellipse_450" data-name="Ellipse 450" class="cls-2" cx="24.6" cy="4.9" r="1"/></g></g></g></g></svg>