<svg xmlns="http://www.w3.org/2000/svg" width="1206.846" height="1300.906" viewBox="0 0 1206.846 1300.906">
  <path id="Soustraction_8" data-name="Soustraction 8" d="M9011.866,12902.406h-.055a293.705,293.705,0,0,1-46.418-3.7,304.812,304.812,0,0,1-44.676-10.733,338.115,338.115,0,0,1-42.975-17.206,394.263,394.263,0,0,1-41.309-23.116,474.633,474.633,0,0,1-39.686-28.467c-12.683-10.1-25.5-21.286-38.1-33.258-12.162-11.56-24.46-24.172-36.552-37.487-11.645-12.825-23.436-26.673-35.043-41.156-11.142-13.905-22.438-28.8-33.574-44.266-10.651-14.8-21.465-30.546-32.143-46.814-10.157-15.475-20.5-31.895-30.752-48.8-9.676-15.963-19.567-32.863-29.4-50.23-17.875-31.573-35.832-65.1-54.9-102.5-15.391-30.2-31.73-63.394-49.952-101.491-49.142-102.738-145.111-142.573-246.715-184.748-34.486-14.314-70.143-29.114-104.945-46.754-18.786-9.521-35.631-19-51.5-28.963-8.62-5.413-17.035-11.039-25.013-16.721-8.386-5.972-16.573-12.207-24.333-18.534-8.112-6.612-16.023-13.539-23.513-20.589-7.792-7.332-15.378-15.032-22.55-22.884-7.437-8.144-14.653-16.7-21.447-25.421-7.022-9.017-13.819-18.5-20.2-28.2-6.569-9.977-12.9-20.479-18.815-31.216-6.076-11.027-11.893-22.626-17.288-34.474-5.537-12.158-10.792-24.935-15.619-37.974-4.946-13.359-9.593-27.394-13.809-41.713-4.4-14.949-8.358-30-11.759-44.728-3.366-14.577-6.286-29.265-8.679-43.655-2.366-14.226-4.28-28.554-5.69-42.585-1.395-13.879-2.334-27.848-2.792-41.518H9027.5v1299.492C9022.319,12902.267,9017.061,12902.405,9011.866,12902.406Z" transform="translate(-7821.153 -11602)" fill="#efefef" stroke="rgba(0,0,0,0)" stroke-miterlimit="10" stroke-width="1" opacity="0.7"/>
</svg>
