<svg id="visuel_interkab" data-name="visuel interkab" xmlns="http://www.w3.org/2000/svg" width="589" height="269.235" viewBox="0 0 589 269.235">
  <g id="Groupe_363" data-name="Groupe 363" transform="translate(4.838 257.495)" opacity="0.2">
    <path id="Tracé_2650" data-name="Tracé 2650" d="M193.772,377.656a140.614,140.614,0,0,0-18.51,1.114,140.6,140.6,0,0,0-18.51-1.114c-10.177,0-19.153.878-24.473,2.213-5.405-1.2-13.873-1.973-23.42-1.973-16.332,0-29.572,2.258-29.572,5.043s13.24,5.042,29.572,5.042c10.179,0,19.153-.878,24.474-2.213,5.407,1.2,13.873,1.973,23.42,1.973a140.908,140.908,0,0,0,18.51-1.113,140.925,140.925,0,0,0,18.51,1.113c16.333,0,29.573-2.258,29.573-5.042S210.105,377.656,193.772,377.656Z" transform="translate(-79.286 -376.241)"/>
    <path id="Tracé_2651" data-name="Tracé 2651" d="M323.313,376.753a150.058,150.058,0,0,0-15.576.762,150.064,150.064,0,0,0-15.578-.762,133.855,133.855,0,0,0-20.15,1.359,133.839,133.839,0,0,0-20.15-1.359,122.829,122.829,0,0,0-22.552,1.784,122.83,122.83,0,0,0-22.552-1.784c-16.332,0-29.573,2.257-29.573,5.042s13.241,5.042,29.573,5.042a122.823,122.823,0,0,0,22.552-1.785,122.822,122.822,0,0,0,22.552,1.785,134.048,134.048,0,0,0,20.15-1.359,134.064,134.064,0,0,0,20.15,1.359,150.488,150.488,0,0,0,15.578-.762,150.482,150.482,0,0,0,15.576.762c16.333,0,29.573-2.257,29.573-5.042S339.646,376.753,323.313,376.753Z" transform="translate(-23.759 -376.753)"/>
    <path id="Tracé_2652" data-name="Tracé 2652" d="M419.517,376.753a147.68,147.68,0,0,0-16.663.876,147.679,147.679,0,0,0-16.663-.876c-15.128,0-27.581,1.937-29.338,4.435-1.758-2.5-14.211-4.435-29.34-4.435-16.332,0-29.572,2.257-29.572,5.042s13.24,5.042,29.572,5.042c15.128,0,27.581-1.939,29.34-4.437,1.757,2.5,14.21,4.437,29.338,4.437a147.277,147.277,0,0,0,16.663-.878,147.277,147.277,0,0,0,16.663.878c16.332,0,29.572-2.257,29.572-5.042S435.849,376.753,419.517,376.753Z" transform="translate(44.738 -376.753)"/>
    <path id="Tracé_2653" data-name="Tracé 2653" d="M457.892,376.753a115.887,115.887,0,0,0-15.793,1,143.783,143.783,0,0,0-17.6-1c-16.333,0-29.573,2.257-29.573,5.042s13.24,5.042,29.573,5.042a143.767,143.767,0,0,0,17.6-1,115.874,115.874,0,0,0,15.793,1c14.649,0,26.525-2.257,26.525-5.042S472.541,376.753,457.892,376.753Z" transform="translate(99.745 -376.753)"/>
  </g>
  <g id="Groupe_364" data-name="Groupe 364" transform="translate(44.532 136.231)">
    <path id="Tracé_2654" data-name="Tracé 2654" d="M131.181,321.708c-.837,3.149-4.546,6.822-7.695,5.985s-4.543-5.869-3.706-9.018a5.9,5.9,0,0,1,11.4,3.032Z" transform="translate(-96.147 -290.917)" fill="#ffcfd3"/>
    <path id="Tracé_2655" data-name="Tracé 2655" d="M110.079,302.109a2.732,2.732,0,1,1-2.732-2.732A2.732,2.732,0,0,1,110.079,302.109Z" transform="translate(-104.614 -299.377)" fill="#ffcfd3"/>
    <path id="Tracé_2656" data-name="Tracé 2656" d="M111.3,377.835l6.537-1.159.458.687-9.7,3.741-.942-1.9Z" transform="translate(-102.89 -255.533)" fill="#333"/>
    <path id="Tracé_2657" data-name="Tracé 2657" d="M132.85,343l-4.886,27.288,1.106,29.5H117.639l-.615-2.2,7.836-1.045-4.179-26.12-2.2-26.214Z" transform="translate(-97.575 -274.632)" fill="#333"/>
    <path id="Tracé_2658" data-name="Tracé 2658" d="M135.114,342.763l1.033,22.316,17.5,23.247-2.09,10.97h-5.224l3.134-2.351.522-7.052-16.717-18.806-13.583-27.426Z" transform="translate(-96.062 -274.768)" fill="#333"/>
    <path id="Tracé_2659" data-name="Tracé 2659" d="M106.358,303.852l2.732-2.732,8.33,19.913,9.956,12.169,8.85,4.056,7.375,31.068-19.544,1.844-2.213-31.805-11.8-14.75Z" transform="translate(-103.625 -298.388)" fill="#f59a00"/>
    <path id="Tracé_2660" data-name="Tracé 2660" d="M125.975,320.6l-.136,1.9c.788-.132,1.425.871,1.139,1.617a1.907,1.907,0,0,1-1.97,1.048,7.718,7.718,0,0,1,.161,2.473,12.627,12.627,0,0,0,4.424-3.166,5.6,5.6,0,0,0,1.213-5.119,8.554,8.554,0,0,0-.743-1.547q-.6-1.072-1.21-2.144a2.824,2.824,0,0,0-3.042-1.857c-1.1-.034-4.432-.2-3.427,1.566C123.416,317.189,124.793,318.88,125.975,320.6Z" transform="translate(-94.64 -291.203)" fill="#333"/>
  </g>
  <g id="Groupe_365" data-name="Groupe 365" transform="translate(100.427 136.952)">
    <path id="Tracé_2661" data-name="Tracé 2661" d="M147.856,370.756l1.258-17.374-1.944-12.788-6.6-37.686,3.187-.455,7.286,33.241,11.384.911,11.839-33.7,3.187.455L168.8,339.336l-3.036,13.751.357,16.758Z" transform="translate(-140.114 -298.354)" fill="#efefef"/>
    <path id="Tracé_2662" data-name="Tracé 2662" d="M159.645,320.264c0,3.258-2.641,7.762-5.9,7.762s-5.9-4.5-5.9-7.762a5.9,5.9,0,1,1,11.8,0Z" transform="translate(-135.986 -291.597)" fill="#ffcfd3"/>
    <path id="Tracé_2663" data-name="Tracé 2663" d="M145.744,302.57a2.732,2.732,0,1,1-2.732-2.733A2.732,2.732,0,0,1,145.744,302.57Z" transform="translate(-140.279 -299.837)" fill="#ffcfd3"/>
    <path id="Tracé_2664" data-name="Tracé 2664" d="M150.844,318.875a1.559,1.559,0,0,0-1.376-.63.968.968,0,0,0-.346.113,1.158,1.158,0,0,0-.508.818,2.372,2.372,0,0,0,1.128,2.327,1.72,1.72,0,0,0,.719.281.976.976,0,0,0,.733-.191C151.932,320.981,151.318,319.467,150.844,318.875Z" transform="translate(-135.569 -289.402)" fill="#ffcfd3"/>
    <path id="Tracé_2665" data-name="Tracé 2665" d="M151.708,320.881a.541.541,0,0,1-.426.072c-.138-.053-.208-.2-.3-.32a1.073,1.073,0,0,0-1.544-.05,1.379,1.379,0,0,0-.168,1.617,1.949,1.949,0,0,0,1.421.909,12.991,12.991,0,0,1,.461,4.167l-2.815.208a.569.569,0,0,1-.748-.544,22.921,22.921,0,0,1-.522-4.9,8.972,8.972,0,0,1,1.022-4.642c.992-1.645,5.059-4.352,7.043-2.835C157.32,316.236,153.22,320.156,151.708,320.881Z" transform="translate(-136.428 -291.738)" fill="#333"/>
    <path id="Tracé_2666" data-name="Tracé 2666" d="M153.825,318.567a6.708,6.708,0,0,0,3.742,2.917,6.1,6.1,0,0,0-1.036-5.134c-.614-.809-2.84-2.783-4.025-2.319C151.282,314.51,153.222,317.654,153.825,318.567Z" transform="translate(-133.569 -291.826)" fill="#333"/>
    <path id="Tracé_2667" data-name="Tracé 2667" d="M147.034,338.466l17.415-.814,13.4,60.006,6.217-3.784-7.568,9.19L158.656,353.6l.27,22.434-12.1,16.027-.772,5.784-.321,2.46-2.155-.256-.392-8.816,9.363-15.224-6.607-25.2Z" transform="translate(-138.627 -278.388)" fill="#333"/>
    <path id="Tracé_2668" data-name="Tracé 2668" d="M147.421,319.166l-3.772,1.323-3.079-17.581,3.187-.455Z" transform="translate(-140.114 -298.354)" fill="#ffcfd3"/>
    <path id="Tracé_2669" data-name="Tracé 2669" d="M158.952,316.656l4.42,1.744,3.656-15.2-3.187-.455Z" transform="translate(-129.688 -298.189)" fill="#ffcfd3"/>
    <path id="Tracé_2670" data-name="Tracé 2670" d="M149.526,323.845l3.268,5.8,1.646-5.41Z" transform="translate(-135.034 -286.22)" fill="#ffcfd3"/>
  </g>
  <g id="Groupe_366" data-name="Groupe 366" transform="translate(246.139 136.952)">
    <path id="Tracé_2671" data-name="Tracé 2671" d="M239.561,350.3l4.554,21.4-2.732,27.321,3.643.456,7.286-28.688-3.188-25.045-10.929.455Z" transform="translate(-230.453 -273.798)" fill="#333"/>
    <path id="Tracé_2672" data-name="Tracé 2672" d="M255.641,345.454l-10.473.455,23.223,51,3.643-1.366-16.393-50.089" transform="translate(-226.498 -273.963)" fill="#333"/>
    <path id="Tracé_2673" data-name="Tracé 2673" d="M240.832,370.756l-3.188-32.786-4.1-35.063,3.187-.455,7.286,33.241,11.384.911,11.839-33.7,3.188.455-8.652,35.973.455,30.509Z" transform="translate(-233.09 -298.354)" fill="#f59a00"/>
    <path id="Tracé_2674" data-name="Tracé 2674" d="M252.621,320.264c0,3.258-2.641,7.762-5.9,7.762s-5.9-4.5-5.9-7.762a5.9,5.9,0,0,1,11.8,0Z" transform="translate(-228.962 -291.597)" fill="#ffcfd3"/>
    <path id="Tracé_2675" data-name="Tracé 2675" d="M238.72,302.57a2.732,2.732,0,1,1-2.732-2.733A2.733,2.733,0,0,1,238.72,302.57Z" transform="translate(-233.255 -299.837)" fill="#ffcfd3"/>
    <path id="Tracé_2676" data-name="Tracé 2676" d="M259.059,303.151a2.732,2.732,0,1,1-2.733-2.733A2.732,2.732,0,0,1,259.059,303.151Z" transform="translate(-221.719 -299.508)" fill="#ffcfd3"/>
    <path id="Tracé_2677" data-name="Tracé 2677" d="M249.048,317.405a3.309,3.309,0,0,0,2.141-.682.818.818,0,0,0,.108-.143,5.876,5.876,0,0,0-10.474,3.683,9.353,9.353,0,0,0,3.305,6.783,10.028,10.028,0,0,0,.152-1.9q.04-3.853-.144-7.7A31.515,31.515,0,0,0,249.048,317.405Z" transform="translate(-228.962 -291.597)" fill="#333"/>
    <path id="Tracé_2678" data-name="Tracé 2678" d="M243.82,318.875a1.559,1.559,0,0,0-1.376-.63.968.968,0,0,0-.346.113,1.158,1.158,0,0,0-.508.818,2.372,2.372,0,0,0,1.128,2.327,1.72,1.72,0,0,0,.719.281.978.978,0,0,0,.733-.191C244.908,320.981,244.294,319.467,243.82,318.875Z" transform="translate(-228.545 -289.402)" fill="#ffcfd3"/>
    <path id="Tracé_2679" data-name="Tracé 2679" d="M263.629,377.415h6.949v1.366l-10.188,1.49-.4-1.49Z" transform="translate(-218.093 -255.834)" fill="#333"/>
  </g>
  <g id="Groupe_367" data-name="Groupe 367" transform="translate(202.991 136.952)">
    <path id="Tracé_2680" data-name="Tracé 2680" d="M221.352,313.649a1.375,1.375,0,0,1,1.553.29,3.967,3.967,0,0,0,1.387.947c.219.053.45.049.672.1a1.581,1.581,0,0,1,1,2.225,1.84,1.84,0,0,0-.3.583c-.08.5.47.837.738,1.265.633,1-.373,2.387.083,3.484a4.007,4.007,0,0,0,1.053,1.2,1.5,1.5,0,0,1,.556,1.422c-.212.674-1.119.829-1.8.647a7.439,7.439,0,0,0-2.03-.561c-.365.009-.722.132-1.088.119a2.166,2.166,0,0,1-1.733-1.359,15.082,15.082,0,0,1-.641-2.224,7.367,7.367,0,0,0-1.378-2.619c-.549-.669-1.268-1.47-.943-2.271.221-.544.834-.791,1.32-1.122a1.276,1.276,0,0,0,.617-1.411C220.813,314.221,221.014,313.881,221.352,313.649Z" transform="translate(-198.532 -292.085)" fill="#333"/>
    <path id="Tracé_2681" data-name="Tracé 2681" d="M236.231,370.756l-1.257-17.374,1.944-12.788,6.6-37.686-3.188-.455-7.286,33.241-11.384.911-11.839-33.7-3.187.455,8.652,35.973,3.036,13.751-.357,16.758Z" transform="translate(-205.207 -298.354)" fill="#939393"/>
    <path id="Tracé_2682" data-name="Tracé 2682" d="M215.363,320.264c0,3.258,2.641,7.762,5.9,7.762s5.9-4.5,5.9-7.762a5.9,5.9,0,0,0-11.8,0Z" transform="translate(-200.255 -291.597)" fill="#ffcfd3"/>
    <path id="Tracé_2683" data-name="Tracé 2683" d="M226.972,302.57a2.732,2.732,0,1,0,2.732-2.733A2.732,2.732,0,0,0,226.972,302.57Z" transform="translate(-193.67 -299.837)" fill="#ffcfd3"/>
    <path id="Tracé_2684" data-name="Tracé 2684" d="M220.963,318.875a1.559,1.559,0,0,1,1.376-.63.968.968,0,0,1,.346.113,1.158,1.158,0,0,1,.508.818,2.372,2.372,0,0,1-1.128,2.327,1.719,1.719,0,0,1-.719.281.976.976,0,0,1-.733-.191C219.875,320.981,220.489,319.467,220.963,318.875Z" transform="translate(-197.472 -289.402)" fill="#ffcfd3"/>
    <path id="Tracé_2685" data-name="Tracé 2685" d="M215.307,338.466l17.415-.814,13.4,60.006,11.466,5.167-12.817.239L226.929,353.6l.27,22.434-12.1,16.027-.772,5.784-.321,2.46-2.155-.256-.392-8.816,9.363-15.224-6.607-25.2Z" transform="translate(-202.467 -278.388)" fill="#333"/>
    <path id="Tracé_2686" data-name="Tracé 2686" d="M225.8,319.166l3.772,1.323,3.079-17.581-3.188-.455Z" transform="translate(-194.337 -298.354)" fill="#ffcfd3"/>
    <path id="Tracé_2687" data-name="Tracé 2687" d="M214.709,316.656l-4.42,1.744-3.656-15.2,3.187-.455Z" transform="translate(-205.207 -298.189)" fill="#ffcfd3"/>
    <path id="Tracé_2688" data-name="Tracé 2688" d="M205.723,302.57a2.732,2.732,0,1,0,2.732-2.733A2.733,2.733,0,0,0,205.723,302.57Z" transform="translate(-205.723 -299.837)" fill="#ffcfd3"/>
    <path id="Tracé_2689" data-name="Tracé 2689" d="M225.628,316.862a3.079,3.079,0,0,1-1.558,1.067c-.585.265-1.207.679-1.282,1.315-.086.732.6,1.429.4,2.139-.284,1.009-2.077,1.084-2.139,2.131a2.212,2.212,0,0,0,.315.976,1.41,1.41,0,0,1-.141,1.556,2.624,2.624,0,0,1-1.078.448c-.373.119-.771.395-.766.787,0,.423.478.828.271,1.2-.157.282-.564.252-.879.183a2.429,2.429,0,0,1-1.653-.857c-.19-.307-.23-.682-.389-1.006-.523-1.08-2.025-1.2-2.928-1.989a2.461,2.461,0,0,1,.157-3.666,9.923,9.923,0,0,0,1.359-.879,2.375,2.375,0,0,0,.492-1.979c-.1-.7-.359-1.363-.492-2.055a1.493,1.493,0,0,1,.143-1.175,1.416,1.416,0,0,1,1.548-.3,5.6,5.6,0,0,0,1.616.439c1.345-.017,2.24-1.666,3.583-1.69.983-.017,1.666.8,2.4,1.321C225.31,315.328,226.224,315.807,225.628,316.862Z" transform="translate(-201.561 -292.084)" fill="#333"/>
  </g>
  <g id="Groupe_368" data-name="Groupe 368" transform="translate(425.446 132.941)">
    <path id="Tracé_2690" data-name="Tracé 2690" d="M386.776,297.278c.212.519-14.608,24.991-14.608,24.991l-8.56,17.169,6.065.1,7.6-19.206L387.3,300.27Z" transform="translate(-338.625 -297.278)" fill="#686868"/>
    <path id="Tracé_2691" data-name="Tracé 2691" d="M364.734,318.246c-.945,3.117.276,8.193,3.393,9.14s6.952-2.6,7.9-5.717a5.9,5.9,0,0,0-11.29-3.423Z" transform="translate(-338.163 -287.761)" fill="#ffcfd3"/>
    <path id="Tracé_2692" data-name="Tracé 2692" d="M361.9,343l4.886,27.288-1.106,29.5h11.431l.615-2.2-7.836-1.045,4.179-26.12-.522-26.9Z" transform="translate(-339.592 -271.343)" fill="#333"/>
    <path id="Tracé_2693" data-name="Tracé 2693" d="M366.2,342.763l-1.033,22.316-17.5,23.247,2.09,10.97h5.224l-3.135-2.351-.522-7.052,16.717-18.806,13.583-27.426Z" transform="translate(-347.667 -271.479)" fill="#333"/>
    <path id="Tracé_2694" data-name="Tracé 2694" d="M368.74,317.1c-.295.563-.362,3.537-.658,4.1a1.2,1.2,0,0,0-1.819.776,1.907,1.907,0,0,0,1.124,1.929,7.709,7.709,0,0,0-1.439,2.019,12.609,12.609,0,0,1-2.1-5.023,5.6,5.6,0,0,1,1.663-4.99,8.631,8.631,0,0,1,1.445-.925l2.158-1.183a2.819,2.819,0,0,1,3.564.02c.958.553,3.873,2.164,2.091,3.136C372.941,317.955,370.652,316.256,368.74,317.1Z" transform="translate(-338.518 -288.261)" fill="#333"/>
    <path id="Tracé_2695" data-name="Tracé 2695" d="M391.926,298.676l-3.324-.141-12.339,26.716-4.632,8.971-5.688,4.5-6.45,29.125,15.423.9,1.129-28.281,4.794-13.983Z" transform="translate(-340.959 -296.565)" fill="#939393"/>
  </g>
  <path id="Tracé_2696" data-name="Tracé 2696" d="M387.559,299.083a2.732,2.732,0,1,1-2.733-2.732A2.732,2.732,0,0,1,387.559,299.083Z" transform="translate(97.307 -164.862)" fill="#ffcfd3"/>
  <g id="Groupe_369" data-name="Groupe 369" transform="translate(405.914 136.952)">
    <path id="Tracé_2697" data-name="Tracé 2697" d="M343.416,370.756l1.257-17.374-1.944-12.788-6.6-37.686,3.188-.455,7.286,33.241,11.384.911,11.839-33.7,3.188.455-8.652,35.973-3.036,13.751.357,16.758Z" transform="translate(-334.678 -298.354)" fill="#efefef"/>
    <path id="Tracé_2698" data-name="Tracé 2698" d="M355.206,320.264c0,3.258-2.642,7.762-5.9,7.762s-5.9-4.5-5.9-7.762a5.9,5.9,0,0,1,11.8,0Z" transform="translate(-330.551 -291.597)" fill="#ffcfd3"/>
    <path id="Tracé_2699" data-name="Tracé 2699" d="M346.406,318.875a1.559,1.559,0,0,0-1.376-.63.958.958,0,0,0-.346.113,1.16,1.16,0,0,0-.509.818A2.378,2.378,0,0,0,345.3,321.5a1.735,1.735,0,0,0,.721.281.973.973,0,0,0,.732-.191C347.493,320.981,346.879,319.467,346.406,318.875Z" transform="translate(-330.133 -289.402)" fill="#ffcfd3"/>
    <path id="Tracé_2700" data-name="Tracé 2700" d="M347.269,320.881a.542.542,0,0,1-.426.072c-.138-.053-.21-.2-.3-.32a1.075,1.075,0,0,0-1.545-.05,1.382,1.382,0,0,0-.168,1.617,1.955,1.955,0,0,0,1.423.909,12.946,12.946,0,0,1,.459,4.167q-1.406.106-2.813.208a.759.759,0,0,1-.528-.091.74.74,0,0,1-.219-.453,22.826,22.826,0,0,1-.522-4.9,8.972,8.972,0,0,1,1.022-4.642c.992-1.645,5.059-4.352,7.043-2.835C352.881,316.236,348.781,320.156,347.269,320.881Z" transform="translate(-330.992 -291.738)" fill="#333"/>
    <path id="Tracé_2701" data-name="Tracé 2701" d="M349.386,318.567a6.71,6.71,0,0,0,3.741,2.917,6.1,6.1,0,0,0-1.034-5.134c-.614-.809-2.84-2.783-4.025-2.319C346.841,314.51,348.783,317.654,349.386,318.567Z" transform="translate(-328.133 -291.826)" fill="#333"/>
    <path id="Tracé_2702" data-name="Tracé 2702" d="M342.595,338.466l17.415-.814,13.4,60.006,6.216-3.784-7.568,9.19L354.217,353.6l.27,22.434-12.1,16.027-.772,5.784-.321,2.46-2.155-.256-.392-8.816,9.363-15.224-6.607-25.2Z" transform="translate(-333.191 -278.388)" fill="#333"/>
    <path id="Tracé_2703" data-name="Tracé 2703" d="M342.981,319.166l-3.772,1.323-3.079-17.581,3.188-.455Z" transform="translate(-334.678 -298.354)" fill="#ffcfd3"/>
    <path id="Tracé_2704" data-name="Tracé 2704" d="M354.512,316.656l4.42,1.744,3.656-15.2-3.188-.455Z" transform="translate(-324.252 -298.189)" fill="#ffcfd3"/>
    <path id="Tracé_2705" data-name="Tracé 2705" d="M345.086,323.845l3.268,5.8,1.646-5.41Z" transform="translate(-329.599 -286.22)" fill="#ffcfd3"/>
    <path id="Tracé_2706" data-name="Tracé 2706" d="M362.554,302.57a2.732,2.732,0,1,1-2.733-2.733A2.733,2.733,0,0,1,362.554,302.57Z" transform="translate(-322.791 -299.837)" fill="#ffcfd3"/>
    <path id="Tracé_2707" data-name="Tracé 2707" d="M340.667,302.9a2.732,2.732,0,1,1-2.732-2.733A2.732,2.732,0,0,1,340.667,302.9Z" transform="translate(-335.204 -299.652)" fill="#ffcfd3"/>
  </g>
  <g id="Groupe_370" data-name="Groupe 370" transform="translate(465.34 135.131)">
    <path id="Tracé_2708" data-name="Tracé 2708" d="M383.506,301.388c-.025.478-.6,15.987-.6,15.987l-3.489,19.74,6.065.1,1.893-20.09-.53-15.757Z" transform="translate(-369.552 -297.146)" fill="#e2e2e2"/>
    <path id="Tracé_2709" data-name="Tracé 2709" d="M380.543,318.246c-.945,3.117.276,8.193,3.393,9.14s6.952-2.6,7.9-5.717a5.9,5.9,0,0,0-11.29-3.423Z" transform="translate(-369.091 -289.95)" fill="#ffcfd3"/>
    <path id="Tracé_2710" data-name="Tracé 2710" d="M379.056,341.852,385.2,371.5,373.122,401h11.431l.615-2.2-7.836-1.045,15.15-26.12-1.959-30.767Z" transform="translate(-373.122 -274.741)" fill="#333"/>
    <path id="Tracé_2711" data-name="Tracé 2711" d="M383.891,321.2a1.2,1.2,0,0,0-1.82.776,1.908,1.908,0,0,0,1.122,1.929,7.746,7.746,0,0,0-1.439,2.019,12.63,12.63,0,0,1-2.094-5.023,5.6,5.6,0,0,1,1.663-4.99,8.635,8.635,0,0,1,1.445-.925l2.158-1.183a2.819,2.819,0,0,1,3.564.02c.958.553,3.873,2.164,2.091,3.136C388.75,317.955,384.186,320.633,383.891,321.2Z" transform="translate(-369.446 -290.451)" fill="#333"/>
    <path id="Tracé_2712" data-name="Tracé 2712" d="M393.266,301.53l-3.324-.141-.158,20.109L386.527,332.6l-5.687,4.5.255,18.365-4.186,8.776,14.2-1.215-2.732-6.817.956-5.769,1.411-3.265,1.169-2.1a4.408,4.408,0,0,0,.088-4.114l-1.058-2.114,4.224-14.384Z" transform="translate(-370.975 -297.136)" fill="#efefef"/>
    <path id="Tracé_2713" data-name="Tracé 2713" d="M389.691,301.407a2.732,2.732,0,1,1-2.733-2.732A2.734,2.734,0,0,1,389.691,301.407Z" transform="translate(-366.825 -298.675)" fill="#ffcfd3"/>
    <ellipse id="Ellipse_20" data-name="Ellipse 20" cx="3.171" cy="3.171" rx="3.171" ry="3.171" transform="translate(5.934 23.686)" fill="#333"/>
    <path id="Tracé_2714" data-name="Tracé 2714" d="M378.814,320.361a2.808,2.808,0,0,0,2.236,3.136,1.09,1.09,0,0,0,1.132-.547,1.943,1.943,0,0,0-.171-1.208,7.611,7.611,0,0,1,.016-2.671C382.32,315.164,379.035,318.147,378.814,320.361Z" transform="translate(-369.902 -288.183)" fill="#333"/>
    <path id="Tracé_2715" data-name="Tracé 2715" d="M389.414,340.722l11.336,26.649L390.983,388.6h7.034l-.348.942-11.21.7,7.824-21.623s-14.5-26.213-14.385-26.68S389.414,340.722,389.414,340.722Z" transform="translate(-369.281 -274.826)" fill="#333"/>
  </g>
  <g id="Groupe_371" data-name="Groupe 371" transform="translate(509.147 129.139)">
    <path id="Tracé_2717" data-name="Tracé 2717" d="M410.962,313.649a1.378,1.378,0,0,1,1.555.29,3.961,3.961,0,0,0,1.385.947c.221.053.451.049.674.1a1.581,1.581,0,0,1,1,2.225,1.841,1.841,0,0,0-.3.583c-.08.5.47.837.74,1.265.633,1-.373,2.387.083,3.484a4.024,4.024,0,0,0,1.052,1.2,1.5,1.5,0,0,1,.558,1.422c-.212.674-1.119.829-1.8.647a7.439,7.439,0,0,0-2.03-.561c-.365.009-.722.132-1.088.119a2.164,2.164,0,0,1-1.733-1.359,14.891,14.891,0,0,1-.641-2.224,7.4,7.4,0,0,0-1.379-2.619c-.549-.669-1.266-1.47-.942-2.271.221-.544.832-.791,1.318-1.122a1.279,1.279,0,0,0,.619-1.411C410.424,314.221,410.625,313.881,410.962,313.649Z" transform="translate(-397.139 -284.272)" fill="#333"/>
    <path id="Tracé_2718" data-name="Tracé 2718" d="M422.711,373.419l-1.258-17.374,1.944-12.788,9.7-39.5-3.188-.455-10.386,35.058-11.384.911,5.491-41.51-3.188.455L401.764,342,404.8,355.75l-.357,16.758Z" transform="translate(-400.683 -293.204)" fill="#f59a00"/>
    <path id="Tracé_2719" data-name="Tracé 2719" d="M404.973,320.264c0,3.258,2.642,7.762,5.9,7.762s5.9-4.5,5.9-7.762a5.9,5.9,0,0,0-11.8,0Z" transform="translate(-398.863 -283.784)" fill="#ffcfd3"/>
    <path id="Tracé_2720" data-name="Tracé 2720" d="M419.506,301.493a2.732,2.732,0,1,0,2.732-2.733A2.731,2.731,0,0,0,419.506,301.493Z" transform="translate(-390.62 -292.635)" fill="#ffcfd3"/>
    <path id="Tracé_2721" data-name="Tracé 2721" d="M410.572,318.875a1.56,1.56,0,0,1,1.376-.63.966.966,0,0,1,.348.113,1.163,1.163,0,0,1,.508.818,2.378,2.378,0,0,1-1.128,2.327,1.737,1.737,0,0,1-.719.281.975.975,0,0,1-.733-.191C409.485,320.981,410.1,319.467,410.572,318.875Z" transform="translate(-396.079 -281.59)" fill="#ffcfd3"/>
    <path id="Tracé_2722" data-name="Tracé 2722" d="M404.917,338.466l17.415-.814,13.4,60.006,11.466,5.167-12.817.239L416.539,353.6l.27,22.434-12.1,16.027-.772,5.784-.321,2.46-2.155-.256-.392-8.816,9.363-15.224-6.607-25.2Z" transform="translate(-401.074 -270.575)" fill="#333"/>
    <path id="Tracé_2723" data-name="Tracé 2723" d="M416.143,320.228l3.922,1.375,4.875-19.855-3.188-.455Z" transform="translate(-392.527 -291.199)" fill="#ffcfd3"/>
    <path id="Tracé_2724" data-name="Tracé 2724" d="M409.378,315.576h-4.272l3.441-17.363,3.188-.455Z" transform="translate(-398.787 -293.204)" fill="#ffcfd3"/>
    <path id="Tracé_2725" data-name="Tracé 2725" d="M406.392,297.584a2.732,2.732,0,1,0,2.732-2.732A2.731,2.731,0,0,0,406.392,297.584Z" transform="translate(-398.058 -294.852)" fill="#ffcfd3"/>
    <path id="Tracé_2726" data-name="Tracé 2726" d="M415.24,316.862a3.086,3.086,0,0,1-1.558,1.067c-.585.265-1.208.679-1.283,1.315-.086.732.607,1.429.406,2.139-.285,1.009-2.078,1.084-2.141,2.131a2.251,2.251,0,0,0,.315.976,1.407,1.407,0,0,1-.139,1.556,2.634,2.634,0,0,1-1.078.448c-.375.119-.771.395-.766.787,0,.423.478.828.271,1.2-.158.282-.566.252-.881.183a2.429,2.429,0,0,1-1.652-.857,10.451,10.451,0,0,1-.389-1.006c-.524-1.08-2.025-1.2-2.929-1.989a2.461,2.461,0,0,1,.158-3.666,9.814,9.814,0,0,0,1.357-.879,2.364,2.364,0,0,0,.492-1.979c-.1-.7-.359-1.363-.492-2.055a1.5,1.5,0,0,1,.143-1.175,1.419,1.419,0,0,1,1.55-.3,5.587,5.587,0,0,0,1.614.439c1.345-.017,2.24-1.666,3.584-1.69.981-.017,1.664.8,2.4,1.321C414.921,315.328,415.835,315.807,415.24,316.862Z" transform="translate(-400.168 -284.272)" fill="#333"/>
    <path id="Tracé_2727" data-name="Tracé 2727" d="M411.019,327a1.056,1.056,0,1,1-1.056-1.056A1.057,1.057,0,0,1,411.019,327Z" transform="translate(-396.632 -277.215)" fill="#333"/>
    <ellipse id="Ellipse_21" data-name="Ellipse 21" cx="1.056" cy="1.056" rx="1.056" ry="1.056" transform="translate(12.274 55.253)" fill="#333"/>
  </g>
  <g id="Groupe_373" data-name="Groupe 373" transform="translate(0 0)">
    <g id="Groupe_372" data-name="Groupe 372">
      <path id="Tracé_2728" data-name="Tracé 2728" d="M86.295,249.786q-10.1,0-10.1-6.5v-6.846q0-6.841,10.1-6.844t10.1,6.844v6.846Q96.391,249.788,86.295,249.786Zm0,94.12q-10.1,0-10.1-6.5V270.15q0-7.015,10.1-7.016t10.1,7.016V337.4Q96.391,343.909,86.295,343.906Z" transform="translate(-76.199 -202.727)" fill="#494b52"/>
      <path id="Tracé_2729" data-name="Tracé 2729" d="M163.348,331.472q-10.268,0-10.268-6.846V278.081q0-13.86-3.423-17.285-3.08-2.908-13.177-2.909-10.44,0-13.519,2.909-3.425,3.766-3.421,17.285v47.058q0,6.507-10.1,6.5t-10.1-6.5V278.081q0-16.256,11.122-22.417,7.7-4.448,26.011-4.449,18.651,0,26.868,4.962,10.094,5.992,10.1,21.9v46.546Q173.443,331.472,163.348,331.472Z" transform="translate(-63.07 -190.464)" fill="#494b52"/>
      <path id="Tracé_2730" data-name="Tracé 2730" d="M203.947,273.489H177.082v69.134q0,6.5-10.1,6.5t-10.1-6.5V228.141q0-6.843,10.1-6.846t10.1,6.846v38.5h26.865q3.423,0,3.423,3.252Q207.37,273.488,203.947,273.489Z" transform="translate(-30.431 -207.435)" fill="#494b52"/>
      <path id="Tracé_2731" data-name="Tracé 2731" d="M259.061,327.408q-8.729,4.793-25.842,4.792-17.8,0-26.011-4.792-11.124-5.988-11.122-22.247V278.295q0-15.229,10.1-21.733a37.3,37.3,0,0,1,11.98-4.706,67.328,67.328,0,0,1,14.887-1.625,68.482,68.482,0,0,1,14.973,1.625,37.341,37.341,0,0,1,12.066,4.706q10.094,6.674,10.1,21.733,0,16.773-36.964,16.771-16.94,0-16.94,10.1a59.57,59.57,0,0,0,.683,9.925,16.363,16.363,0,0,0,1.884,5.819q3.249,4.452,14.373,4.449t14.376-4.62a12.16,12.16,0,0,0,1.8-5.733,92.607,92.607,0,0,0,.428-9.84q0-6.674,10.268-6.673,10.094,0,10.1,6.673Q270.184,321.248,259.061,327.408Zm-9.67-59.123a10.992,10.992,0,0,0-1.8-5.562,9,9,0,0,0-5.22-3.509,32.186,32.186,0,0,0-9.156-1.111q-10.438,0-13.517,3.08-3.427,3.425-3.423,17.112v11.124a70.92,70.92,0,0,1,7.615-.685q4.189-.169,9.325-.171,16.6,0,16.6-10.268A94.637,94.637,0,0,0,249.391,268.285Z" transform="translate(-8.198 -191.022)" fill="#494b52"/>
      <path id="Tracé_2732" data-name="Tracé 2732" d="M297.437,257.887q-14.206,0-16.771,1.2-6.846,3.94-6.844,19v47.058q0,6.507-10.1,6.5t-10.1-6.5V278.081q0-18.31,13.69-23.616A47.866,47.866,0,0,1,278.7,252.07a169.109,169.109,0,0,1,18.739-.856q3.249,0,3.25,3.25Q300.688,257.889,297.437,257.887Z" transform="translate(24.44 -190.464)" fill="#494b52"/>
      <path id="Tracé_2733" data-name="Tracé 2733" d="M353.662,353.63q-10.268,0-10.267-6.5V333.779q0-11.977-2.4-15.4-3.425-4.624-14.547-4.622h-16.6v33.369q0,6.507-10.1,6.5t-10.1-6.5V219.295q0-6.841,10.1-6.844t10.1,6.844v87.789h16.94q11.122,0,14.374-4.622a10.97,10.97,0,0,0,1.8-5.562,96.7,96.7,0,0,0,.428-10.181v-6.846q0-7.015,10.267-7.016,10.1,0,10.1,7.016v9.069h-.172q-.684,15.917-13.517,21.391,13.686,5.649,13.69,23.445v13.346Q363.759,353.633,353.662,353.63Z" transform="translate(44.877 -212.451)" fill="#f59a00"/>
      <path id="Tracé_2734" data-name="Tracé 2734" d="M410.178,326.975q-8.559,4.793-25.84,4.792-17.114,0-25.84-4.792-11.293-5.816-11.295-21.9,0-16.942,37.135-16.942,16.6,0,16.6-9.925,0-13.86-3.423-17.285-3.08-2.908-13.177-2.909-10.44,0-13.519,2.909-3.425,3.766-3.423,16.941v.343q0,6.5-10.1,6.5t-10.1-6.5q0-16.256,11.124-22.417,8.214-4.789,26.011-4.793,17.283,0,25.84,4.793Q421.3,261.947,421.3,278.2v26.867Q421.3,320.984,410.178,326.975Zm-9.24-33.026a65.588,65.588,0,0,1-7.444.683q-4.2.172-9.156.172-16.942,0-16.942,10.267,0,11.639,2.567,15.572a9.8,9.8,0,0,0,5.3,3.509,31.158,31.158,0,0,0,9.069,1.111q11.122,0,14.374-4.791a10.986,10.986,0,0,0,1.8-5.56,92.625,92.625,0,0,0,.428-9.84Z" transform="translate(77.516 -190.589)" fill="#f59a00"/>
      <path id="Tracé_2735" data-name="Tracé 2735" d="M467.721,348.837q-8.559,4.793-25.84,4.792-17.114,0-25.84-4.792-11.293-5.816-11.295-21.9V219.295q0-6.841,10.1-6.844t10.1,6.844v55.1a77.276,77.276,0,0,1,16.941-1.541q17.283,0,25.84,4.793,11.119,6.159,11.124,22.417v26.867Q478.845,342.846,467.721,348.837Zm-9.242-48.77q0-13.86-3.421-17.285-3.082-2.908-13.177-2.909-10.442,0-13.519,2.909-3.425,3.766-3.423,17.285v26.867q0,11.639,2.567,15.572a9.8,9.8,0,0,0,5.3,3.509,31.158,31.158,0,0,0,9.069,1.111q11.122,0,14.374-4.791a10.97,10.97,0,0,0,1.8-5.561,92.192,92.192,0,0,0,.428-9.84Z" transform="translate(110.155 -212.451)" fill="#f59a00"/>
    </g>
  </g>
  <g id="Groupe_374" data-name="Groupe 374" transform="translate(169.787 135.131)">
    <path id="Tracé_2736" data-name="Tracé 2736" d="M205.588,301.416c.089.553-4.183,15.862-4.183,15.862l-7.86,18.441,5.886,1.47,6.383-19.143,3.308-16.242Z" transform="translate(-179.426 -297.12)" fill="#cc7900"/>
    <path id="Tracé_2737" data-name="Tracé 2737" d="M197.059,318.246c-.945,3.117.276,8.193,3.393,9.14s6.952-2.6,7.9-5.717a5.9,5.9,0,1,0-11.29-3.423Z" transform="translate(-177.611 -289.95)" fill="#ffcfd3"/>
    <path id="Tracé_2738" data-name="Tracé 2738" d="M194.425,342.878l13.98,26.7-10.51,31.068h11.431l.615-2.2L202.1,397.4l13.583-27.687-9.4-28.218Z" transform="translate(-178.928 -274.386)" fill="#333"/>
    <path id="Tracé_2739" data-name="Tracé 2739" d="M200.407,321.2a1.2,1.2,0,0,0-1.82.776,1.907,1.907,0,0,0,1.124,1.929,7.708,7.708,0,0,0-1.439,2.019,12.611,12.611,0,0,1-2.1-5.023,5.6,5.6,0,0,1,1.663-4.99,8.633,8.633,0,0,1,1.445-.925l2.158-1.183a2.819,2.819,0,0,1,3.564.02c.958.553,3.873,2.164,2.091,3.136C205.266,317.955,200.7,320.633,200.407,321.2Z" transform="translate(-177.965 -290.451)" fill="#333"/>
    <path id="Tracé_2740" data-name="Tracé 2740" d="M209.216,301.53l-3.326-.141-.157,20.109L202.477,332.6l-5.689,4.5-1.581,11.47-.782,17.051,11.859-1.381-1-13.8,1.409-3.265,1.169-2.1a4.408,4.408,0,0,0,.088-4.114l-1.058-2.114,4.225-14.384Z" transform="translate(-178.928 -297.136)" fill="#f59a00"/>
    <path id="Tracé_2741" data-name="Tracé 2741" d="M206.207,301.407a2.732,2.732,0,1,1-2.732-2.732A2.733,2.733,0,0,1,206.207,301.407Z" transform="translate(-175.345 -298.675)" fill="#ffcfd3"/>
    <path id="Tracé_2742" data-name="Tracé 2742" d="M195.33,320.361a2.808,2.808,0,0,0,2.236,3.136,1.09,1.09,0,0,0,1.131-.547,1.942,1.942,0,0,0-.171-1.208,7.647,7.647,0,0,1,.016-2.671C198.837,315.164,195.551,318.147,195.33,320.361Z" transform="translate(-178.422 -288.183)" fill="#333"/>
    <path id="Tracé_2743" data-name="Tracé 2743" d="M201.833,319.1a10.309,10.309,0,0,1,3.13.143,4.828,4.828,0,0,0,.718-.066c.281-1.708.837-3.387,1.061-5.089a3.4,3.4,0,0,0-3.258-.461c-1.82.429-3.822.983-4.822,2.562-.318.5-.508,1.08-.829,1.581-.577.9-1.533,1.5-2.128,2.392a3.764,3.764,0,0,0-.628,2.279c.053.987.489,2.019.1,2.924-.52,1.2-2.272,1.6-2.539,2.881-.241,1.15.9,2.139,1.041,3.305.155,1.309-.97,2.478-.947,3.794a3.036,3.036,0,0,0,2.023,2.562,8.767,8.767,0,0,0,3.412.414,6.179,6.179,0,0,0,3.29-.665,4.289,4.289,0,0,0,1.456-1.732,13.659,13.659,0,0,0,1.064-5.277,40.643,40.643,0,0,0,.124-4.41,2.389,2.389,0,0,0-.544-1.675c-.5-.465-1.257-.451-1.9-.679a2.509,2.509,0,0,1,.18-4.785Z" transform="translate(-179.964 -290.307)" fill="#333"/>
    <path id="Tracé_2744" data-name="Tracé 2744" d="M198.44,368.177l1.594-25.3,11.859-1.381-6.907,30.251-16.1,18.95-1.267,5.659,1.175,1.175-.392,1.621-3-1.882-.859-7.836,2.3-.522Z" transform="translate(-184.536 -274.386)" fill="#333"/>
  </g>
  <g id="Groupe_375" data-name="Groupe 375" transform="translate(4.341 136.952)">
    <path id="Tracé_2745" data-name="Tracé 2745" d="M85.869,350.3l4.554,21.4L87.69,399.022l3.643.456,7.286-28.688-3.188-25.045L84.5,346.2Z" transform="translate(-75.83 -273.798)" fill="#333"/>
    <path id="Tracé_2746" data-name="Tracé 2746" d="M101.949,345.454l-10.473.455,23.223,51,3.643-1.366-16.393-50.089" transform="translate(-71.875 -273.963)" fill="#333"/>
    <path id="Tracé_2747" data-name="Tracé 2747" d="M87.139,370.756,83.952,337.97l-4.1-35.063,3.188-.455,7.286,33.241,11.384.911,11.839-33.7,3.188.455-8.652,35.973.455,30.509Z" transform="translate(-78.467 -298.354)" fill="#efefef"/>
    <path id="Tracé_2748" data-name="Tracé 2748" d="M98.929,320.264c0,3.258-2.642,7.762-5.9,7.762s-5.9-4.5-5.9-7.762a5.9,5.9,0,1,1,11.8,0Z" transform="translate(-74.339 -291.597)" fill="#ffcfd3"/>
    <path id="Tracé_2749" data-name="Tracé 2749" d="M84.434,302.57a2.732,2.732,0,1,1-2.732-2.733A2.733,2.733,0,0,1,84.434,302.57Z" transform="translate(-78.969 -299.837)" fill="#ffcfd3"/>
    <path id="Tracé_2750" data-name="Tracé 2750" d="M106.3,303.151a2.732,2.732,0,1,1-2.732-2.733A2.732,2.732,0,0,1,106.3,303.151Z" transform="translate(-66.564 -299.508)" fill="#ffcfd3"/>
    <path id="Tracé_2751" data-name="Tracé 2751" d="M95.356,317.405a3.312,3.312,0,0,0,2.141-.682.89.89,0,0,0,.107-.143,5.875,5.875,0,0,0-10.472,3.683,9.353,9.353,0,0,0,3.305,6.783,10.028,10.028,0,0,0,.15-1.9q.042-3.853-.144-7.7A31.534,31.534,0,0,0,95.356,317.405Z" transform="translate(-74.339 -291.597)" fill="#333"/>
    <path id="Tracé_2752" data-name="Tracé 2752" d="M90.321,380.194l5.816.011s.152,1.069-.077.992-9.773.23-9.773.23l.39-1.688Z" transform="translate(-74.818 -254.516)" fill="#333"/>
    <path id="Tracé_2753" data-name="Tracé 2753" d="M90.129,318.875a1.56,1.56,0,0,0-1.376-.63.966.966,0,0,0-.348.113,1.163,1.163,0,0,0-.508.818,2.378,2.378,0,0,0,1.128,2.327,1.736,1.736,0,0,0,.719.281.975.975,0,0,0,.733-.191C91.216,320.981,90.6,319.467,90.129,318.875Z" transform="translate(-73.922 -289.402)" fill="#ffcfd3"/>
  </g>
  <g id="Groupe_376" data-name="Groupe 376" transform="translate(294.301 136.231)">
    <path id="Tracé_2754" data-name="Tracé 2754" d="M281.766,331.986a1.5,1.5,0,0,0,.887-.118,1.428,1.428,0,0,0,.52-.782c1.627-4.462.969-9.4.072-14.069a5.155,5.155,0,0,0-.68-1.992,4.331,4.331,0,0,0-3.689-1.469,4.7,4.7,0,0,0-1.816.3,4.028,4.028,0,0,0-2.171,3.445,12.351,12.351,0,0,0,.65,4.209q1.008,3.7,1.876,7.44c.193.831.2,2.348.981,2.769C279.156,332.135,280.894,331.922,281.766,331.986Z" transform="translate(-257.814 -291.334)" fill="#333"/>
    <path id="Tracé_2755" data-name="Tracé 2755" d="M274.874,321.708c.837,3.149,4.546,6.822,7.695,5.985s4.543-5.869,3.706-9.018a5.9,5.9,0,0,0-11.4,3.032Z" transform="translate(-257.924 -290.917)" fill="#ffcfd3"/>
    <path id="Tracé_2756" data-name="Tracé 2756" d="M293.669,302.109a2.732,2.732,0,1,0,2.732-2.732A2.731,2.731,0,0,0,293.669,302.109Z" transform="translate(-247.15 -299.377)" fill="#ffcfd3"/>
    <path id="Tracé_2757" data-name="Tracé 2757" d="M276.539,340.359l1.922,31.43-1.106,29.5h11.431l.615-2.2-8.7-.173,3.472-26.992,3.565-30.176Z" transform="translate(-256.866 -276.131)" fill="#ffcfd3"/>
    <path id="Tracé_2758" data-name="Tracé 2758" d="M280.019,340.071l-2.566,26.535-13.467,27.117,2.758,7.1h5.224l-3.134-2.351-1.52-5.49,13.013-20.369L292.342,341.6Z" transform="translate(-263.986 -276.295)" fill="#ffcfd3"/>
    <path id="Tracé_2759" data-name="Tracé 2759" d="M307.435,303.852,304.7,301.12l-5.812,20.757L286.416,333.2l-8.85,4.056-.086,15.918-3.263,8.988,14.842,1.844-.246-11.616.246-12.76,14.688-16.018Z" transform="translate(-258.184 -298.388)" fill="#f59a00"/>
    <path id="Tracé_2760" data-name="Tracé 2760" d="M281.874,317.393a10.407,10.407,0,0,1-1.216,3.493,1.532,1.532,0,0,0-2.3-.124,1.921,1.921,0,0,0-.024,2.428,2.593,2.593,0,0,0,2.377.857,66.274,66.274,0,0,1-.448,9.657q-2.706-.1-5.41-.21c-.58-4.584-1.16-9.223-.6-13.81a10.142,10.142,0,0,1,.677-2.838,4.49,4.49,0,0,1,1.873-2.183,4.842,4.842,0,0,1,2.092-.519,5.724,5.724,0,0,1,1.829.008C281.777,314.543,281.968,316.475,281.874,317.393Z" transform="translate(-258.29 -291.044)" fill="#333"/>
    <path id="Tracé_2761" data-name="Tracé 2761" d="M275.145,340.071l-2.566,26.535,13.843,5.485,3.565-30.176Z" transform="translate(-259.112 -276.295)" fill="#333"/>
    <path id="Tracé_2762" data-name="Tracé 2762" d="M289.105,378.965l-.615,2.2H277.059l.2-5.316h3.529l-.379,2.946Z" transform="translate(-256.571 -256.004)" fill="#333"/>
  </g>
  <g id="Groupe_377" data-name="Groupe 377" transform="translate(347.592 136.952)">
    <path id="Tracé_2763" data-name="Tracé 2763" d="M337.248,370.921l3.187-32.786,4.1-35.062-3.187-.455-7.286,33.241-11.384.911L302.3,302.162l-3.188.455L316.3,339.5l-.455,30.509Z" transform="translate(-297.352 -298.518)" fill="#efefef"/>
    <path id="Tracé_2764" data-name="Tracé 2764" d="M325.089,320.264c0,3.258-2.641,7.762-5.9,7.762s-5.9-4.5-5.9-7.762a5.9,5.9,0,0,1,11.8,0Z" transform="translate(-289.311 -291.597)" fill="#ffcfd3"/>
    <path id="Tracé_2765" data-name="Tracé 2765" d="M324.9,302.57a2.732,2.732,0,1,0,2.732-2.733A2.732,2.732,0,0,0,324.9,302.57Z" transform="translate(-282.726 -299.837)" fill="#ffcfd3"/>
    <path id="Tracé_2766" data-name="Tracé 2766" d="M297.99,302.726a2.732,2.732,0,1,0,2.732-2.732A2.732,2.732,0,0,0,297.99,302.726Z" transform="translate(-297.99 -299.748)" fill="#ffcfd3"/>
    <path id="Tracé_2767" data-name="Tracé 2767" d="M321.516,317.405a3.309,3.309,0,0,0,2.141-.682.817.817,0,0,0,.108-.143,5.876,5.876,0,0,0-10.474,3.683,9.354,9.354,0,0,0,3.305,6.783,10.036,10.036,0,0,0,.152-1.9q.04-3.853-.144-7.7A31.516,31.516,0,0,0,321.516,317.405Z" transform="translate(-289.311 -291.597)" fill="#333"/>
    <path id="Tracé_2768" data-name="Tracé 2768" d="M316.289,318.875a1.559,1.559,0,0,0-1.376-.63.968.968,0,0,0-.346.113,1.165,1.165,0,0,0-.509.818,2.378,2.378,0,0,0,1.128,2.327,1.734,1.734,0,0,0,.721.281.978.978,0,0,0,.733-.191C317.376,320.981,316.762,319.467,316.289,318.875Z" transform="translate(-288.894 -289.402)" fill="#ffcfd3"/>
    <path id="Tracé_2769" data-name="Tracé 2769" d="M309.791,347.378l3.159,50.288h3.48l2.954-49.879,3.107.132,1.9,50.977,2.684-.062,4.119-50.545.605-6.227-21.932.285Z" transform="translate(-291.296 -275.887)" fill="#333"/>
    <path id="Tracé_2770" data-name="Tracé 2770" d="M314.575,377.542l-7.649.843.277,1.185h11.2l-.35-2.028Z" transform="translate(-292.921 -255.762)" fill="#333"/>
    <path id="Tracé_2771" data-name="Tracé 2771" d="M319.107,378.349v1.428l10.507.4v-1.314l-7.824-.574Z" transform="translate(-286.013 -255.34)" fill="#333"/>
  </g>
  <g id="Groupe_378" data-name="Groupe 378" transform="translate(539.69 133.622)">
    <path id="Tracé_2772" data-name="Tracé 2772" d="M423.964,350.3l4.554,21.4-2.732,27.321,3.643.456,7.286-28.688-3.188-25.045L422.6,346.2Z" transform="translate(-419.41 -270.467)" fill="#333"/>
    <path id="Tracé_2773" data-name="Tracé 2773" d="M440.044,345.454l-10.473.455,23.223,51,3.643-1.366-16.393-50.089" transform="translate(-415.455 -270.632)" fill="#333"/>
    <path id="Tracé_2774" data-name="Tracé 2774" d="M423.751,372.126l-3.187-32.786,6.965-37.483,3.255.241-3.845,34.965,11.384.911,4.885-37.938,3.187.455-1.7,40.215.455,30.509Z" transform="translate(-420.564 -296.394)" fill="#efefef"/>
    <path id="Tracé_2775" data-name="Tracé 2775" d="M437.024,320.264c0,3.258-2.642,7.762-5.9,7.762s-5.9-4.5-5.9-7.762a5.9,5.9,0,1,1,11.8,0Z" transform="translate(-417.919 -288.266)" fill="#ffcfd3"/>
    <path id="Tracé_2776" data-name="Tracé 2776" d="M424.134,302a2.732,2.732,0,1,1,3,2.437A2.734,2.734,0,0,1,424.134,302Z" transform="translate(-418.547 -296.987)" fill="#ffcfd3"/>
    <path id="Tracé_2777" data-name="Tracé 2777" d="M439.024,300.444a2.732,2.732,0,1,1-2.732-2.732A2.733,2.733,0,0,1,439.024,300.444Z" transform="translate(-413.192 -297.712)" fill="#ffcfd3"/>
    <path id="Tracé_2778" data-name="Tracé 2778" d="M433.451,317.405a3.312,3.312,0,0,0,2.141-.682.906.906,0,0,0,.108-.143,5.876,5.876,0,0,0-10.474,3.683,9.354,9.354,0,0,0,3.305,6.783,10.165,10.165,0,0,0,.152-1.9q.04-3.853-.146-7.7A31.535,31.535,0,0,0,433.451,317.405Z" transform="translate(-417.919 -288.266)" fill="#333"/>
    <path id="Tracé_2779" data-name="Tracé 2779" d="M428.224,318.875a1.559,1.559,0,0,0-1.376-.63.959.959,0,0,0-.346.113,1.16,1.16,0,0,0-.509.818,2.378,2.378,0,0,0,1.128,2.327,1.735,1.735,0,0,0,.721.281.972.972,0,0,0,.732-.191C429.311,320.981,428.7,319.467,428.224,318.875Z" transform="translate(-417.502 -286.072)" fill="#ffcfd3"/>
    <path id="Tracé_2780" data-name="Tracé 2780" d="M444.743,381.257v1l11.616-5.34L455.3,376.1l-7.271,2.064-3.643,1.366Z" transform="translate(-407.05 -253.251)" fill="#333"/>
    <path id="Tracé_2781" data-name="Tracé 2781" d="M428.275,380.194l4.78,1.224v.47s-8.414-.332-8.386-.442-.038-1.707-.038-1.707Z" transform="translate(-418.256 -251.185)" fill="#333"/>
  </g>
  <path id="Tracé_19630" data-name="Tracé 19630" d="M273.292,372.035l2.476,1.383-.917,1.435,1.521,5.49,3.134,2.351h-5.224l-2.758-7.1Z" transform="translate(22.591 -121.934)" fill="#333"/>
</svg>
