<?xml version="1.0" encoding="utf-8"?>
<!-- Generator: Adobe Illustrator 25.2.1, SVG Export Plug-In . SVG Version: 6.00 Build 0)  -->
<svg version="1.1" id="Calque_1" xmlns="http://www.w3.org/2000/svg" xmlns:xlink="http://www.w3.org/1999/xlink" x="0px" y="0px"
	 viewBox="0 0 150.1 146.1" style="enable-background:new 0 0 150.1 146.1;" xml:space="preserve">
<style type="text/css">
	.st0{fill:#F39300;}
</style>
<g id="logo_SV" transform="translate(-56.665 -58.858)">
	<g id="Groupe_19500" transform="translate(56.665 73.319)">
		<path id="Tracé_33143" class="st0" d="M150,42.2c-0.4-2.8-2.2-5.3-4.7-6.7L60.1-13.1c-4.7-2.6-10.6-1.2-13.5,3.4
			c-2.7,4.3-1.4,10,2.9,12.7c0.1,0.1,0.3,0.2,0.4,0.3l75,42.8l-59.1,63c-3.5,3.7-3.4,9.5,0.2,13c0.1,0.1,0.2,0.2,0.4,0.3
			c4.1,3.5,10.2,3.1,13.9-0.8L147.5,50C149.5,47.9,150.4,45,150,42.2z"/>
		<path id="Tracé_33144" class="st0" d="M102.1,49.4c-0.4-3-2.1-5.6-4.7-7.1L12.1-6.4C9.4-8,5.9-7.8,3.4-5.7
			c-2.6,2.2-3.8,5.6-3.3,9l18.1,120.2c0.4,3.4,2.6,6.3,5.8,7.6c1.3,0.5,2.7,0.7,4,0.5c1.8-0.3,3.4-1.1,4.6-2.4l67.2-71.6
			C101.8,55.4,102.6,52.4,102.1,49.4z"/>
	</g>
</g>
</svg>
