<svg xmlns="http://www.w3.org/2000/svg" width="1497.217" height="1565.063" viewBox="0 0 1497.217 1565.063">
  <g id="shape_3" data-name="shape 3" transform="translate(-765.906 -924.323)">
    <path id="Tracé_28842" data-name="Tracé 28842" d="M1235.468,460.659s13.507-269.142-238.6-395.919C803.49-32.506,227.822-56.743,51.431,257.1S190.146,651.992,426.524,696.064c155.4,28.976,150.183,256.751,398.956,262.863C1107.558,965.859,1220.563,719.534,1235.468,460.659Z" transform="matrix(-0.574, 0.819, -0.819, -0.574, 2261.676, 1475.691)" fill="none" stroke="#efefef" stroke-width="2"/>
    <path id="Tracé_28843" data-name="Tracé 28843" d="M929.8,346.686S939.963,144.134,750.229,48.722C604.7-24.463,171.456-42.7,38.706,193.491S143.1,490.681,321,523.849c116.949,21.807,113.026,193.228,300.249,197.827C833.535,726.894,918.581,541.513,929.8,346.686Z" transform="matrix(-0.574, 0.819, -0.819, -0.574, 2076.818, 1532.848)" fill="none" stroke="#efefef" stroke-width="2"/>
    <path id="Tracé_28844" data-name="Tracé 28844" d="M737.373,274.938s8.061-160.634-142.407-236.3C479.553-19.4,135.973-33.866,30.7,153.447s82.79,235.686,223.87,261.99c92.746,17.294,89.635,153.239,238.112,156.886C661.032,576.46,728.477,429.445,737.373,274.938Z" transform="matrix(-0.574, 0.819, -0.819, -0.574, 1960.445, 1568.828)" fill="none" stroke="#efefef" stroke-width="2"/>
  </g>
</svg>
