<svg xmlns="http://www.w3.org/2000/svg" width="48" height="174" viewBox="0 0 48 174"><defs><style>.a{fill:#333;}</style></defs><g transform="translate(207 -5408) rotate(90)"><circle class="a" cx="3" cy="3" r="3" transform="translate(5408 159)"/><circle class="a" cx="3" cy="3" r="3" transform="translate(5429 159)"/><circle class="a" cx="3" cy="3" r="3" transform="translate(5450 159)"/><circle class="a" cx="3" cy="3" r="3" transform="translate(5471 159)"/><circle class="a" cx="3" cy="3" r="3" transform="translate(5492 159)"/><circle class="a" cx="3" cy="3" r="3" transform="translate(5513 159)"/><circle class="a" cx="3" cy="3" r="3" transform="translate(5534 159)"/><circle class="a" cx="3" cy="3" r="3" transform="translate(5555 159)"/><circle class="a" cx="3" cy="3" r="3" transform="translate(5576 159)"/><circle class="a" cx="3" cy="3" r="3" transform="translate(5408 180)"/><circle class="a" cx="3" cy="3" r="3" transform="translate(5429 180)"/><circle class="a" cx="3" cy="3" r="3" transform="translate(5450 180)"/><circle class="a" cx="3" cy="3" r="3" transform="translate(5471 180)"/><circle class="a" cx="3" cy="3" r="3" transform="translate(5492 180)"/><circle class="a" cx="3" cy="3" r="3" transform="translate(5513 180)"/><circle class="a" cx="3" cy="3" r="3" transform="translate(5534 180)"/><circle class="a" cx="3" cy="3" r="3" transform="translate(5555 180)"/><circle class="a" cx="3" cy="3" r="3" transform="translate(5576 180)"/><circle class="a" cx="3" cy="3" r="3" transform="translate(5408 201)"/><circle class="a" cx="3" cy="3" r="3" transform="translate(5429 201)"/><circle class="a" cx="3" cy="3" r="3" transform="translate(5450 201)"/><circle class="a" cx="3" cy="3" r="3" transform="translate(5471 201)"/><circle class="a" cx="3" cy="3" r="3" transform="translate(5492 201)"/><circle class="a" cx="3" cy="3" r="3" transform="translate(5513 201)"/><circle class="a" cx="3" cy="3" r="3" transform="translate(5534 201)"/><circle class="a" cx="3" cy="3" r="3" transform="translate(5555 201)"/><circle class="a" cx="3" cy="3" r="3" transform="translate(5576 201)"/></g></svg>