<?xml version="1.0" encoding="utf-8"?>
<!-- Generator: Adobe Illustrator 25.1.0, SVG Export Plug-In . SVG Version: 6.00 Build 0)  -->
<svg version="1.1" id="Calque_1" xmlns="http://www.w3.org/2000/svg" xmlns:xlink="http://www.w3.org/1999/xlink" x="0px" y="0px"
	 viewBox="0 0 284 79.4" style="enable-background:new 0 0 284 79.4;" xml:space="preserve">
<style type="text/css">
	.st0{fill:#EFEFEF;}
	.st1{fill:#333333;}
	.st2{fill:#F59A00;}
	.st3{fill:#FFFFFF;}
</style>
<g>
	<rect id="Rectangle_3445" y="27.4" class="st0" width="284" height="52"/>
	<g>
		<polygon class="st1" points="60,1.6 60,58.4 44.4,58.4 44.4,36.2 25.3,36.2 25.3,58.4 9.7,58.4 9.7,1.6 25.3,1.6 25.3,22.6 
			44.4,22.6 44.4,1.6 		"/>
		<path class="st1" d="M110.2,29.1c-1-2.6-2.5-5-4.4-7c-2.1-2.1-4.5-3.7-7.2-4.8c-3.2-1.3-6.5-1.9-9.9-1.8c-3.4-0.1-6.8,0.5-10,1.8
			c-2.7,1.1-5.2,2.7-7.2,4.8c-2,2-3.5,4.5-4.4,7.1c-1,2.8-1.5,5.7-1.5,8.6c0,2.8,0.5,5.5,1.5,8.1c1,2.5,2.5,4.9,4.4,6.8
			c2.1,2,4.5,3.6,7.2,4.7c3.1,1.2,6.5,1.8,9.8,1.7c4.6,0.2,9.1-1,13.1-3.2c3.4-1.9,6.1-4.8,7.9-8.2l-12.9-3.7
			c-0.5,1.4-1.6,2.5-2.9,3.1c-1.4,0.7-3.1,1.1-4.7,1.1c-1.7,0-3.4-0.5-4.9-1.5c-1.6-1.1-2.5-2.9-2.5-4.8h29.5
			c0.1-0.6,0.2-1.4,0.3-2.2s0.1-1.6,0.1-2.4C111.7,34.5,111.2,31.7,110.2,29.1z M81.5,32.9c0.2-1.8,1-3.5,2.2-4.8
			c1.3-1.2,3-1.8,4.7-1.8c1.7-0.1,3.4,0.6,4.7,1.8c1.3,1.3,2.1,3,2.2,4.8H81.5z"/>
		<polygon class="st1" points="144.4,58.4 134.9,43 131.9,46.4 131.9,58.4 116.7,58.4 116.7,0 131.9,0 131.9,31.9 143.1,16.3 
			159.1,16.3 144.6,34.7 160.5,58.4 		"/>
		<path class="st1" d="M192.8,56.1c-2.2,0.9-4.5,1.7-6.8,2.3c-2.3,0.6-4.7,0.9-7.2,0.9c-1.6,0-3.3-0.2-4.9-0.6
			c-1.5-0.4-2.9-1.1-4-2.1c-1.2-1-2.1-2.3-2.7-3.8c-0.7-1.8-1.1-3.8-1-5.8V27.8h-5.2V16.3h5.2V3.1h15.2v13.2h8.2v11.4h-8.2v13.9
			c-0.1,1.1,0.2,2.1,0.9,2.9c0.7,0.6,1.5,0.9,2.4,0.8c0.9,0,1.7-0.1,2.6-0.4c1-0.2,2-0.6,2.9-1L192.8,56.1z"/>
		<path class="st1" d="M209.9,37.4c-0.1,2.4,0.6,4.8,2.1,6.6c1.3,1.6,3.3,2.5,5.4,2.4c2.1,0.1,4-0.8,5.4-2.4
			c1.5-1.9,2.2-4.2,2.1-6.6c0.1-2.4-0.6-4.8-2.1-6.6c-1.3-1.6-3.3-2.5-5.4-2.4c-2.1-0.1-4,0.8-5.4,2.4
			C210.5,32.6,209.7,35,209.9,37.4z"/>
		<path class="st1" d="M274.3,29.3c-2.7,0-5.4,0.3-8,1c-2.1,0.5-4,1.6-5.4,3.2v25h-15.2V16.3h13.9v8c1.3-2.6,3.2-4.8,5.6-6.5
			c2.1-1.5,4.6-2.3,7.2-2.3c0.6,0,1.3,0,1.9,0.1L274.3,29.3z"/>
		<path class="st2" d="M238.9,29.1c-1-2.6-2.5-5-4.4-7c-2.1-2.1-4.5-3.7-7.2-4.8c-3.2-1.3-6.5-1.9-9.9-1.8c-3.4-0.1-6.8,0.5-10,1.8
			c-2.7,1.1-5.1,2.7-7.2,4.8c-1.9,2-3.4,4.4-4.4,7c-1,2.6-1.5,5.5-1.5,8.3c0,2.8,0.5,5.6,1.5,8.3c1,2.6,2.5,5,4.4,7
			c2.1,2.1,4.5,3.7,7.2,4.8c3.2,1.3,6.6,1.9,10,1.8c3.4,0.1,6.8-0.5,9.9-1.8c2.7-1.1,5.2-2.7,7.2-4.8c1.9-2,3.4-4.4,4.4-7
			c1-2.6,1.5-5.5,1.5-8.3C240.4,34.5,239.9,31.7,238.9,29.1z"/>
		<path id="Tracé_21051" class="st3" d="M205.1,43.3c-3.9-1.6-6.1-5.2-8.2-8.5c1.9,2.4,4.9,4.9,8.2,3.5c2.9-1,5.3-2.8,8.2-4
			c1.4,0.3,2.7,0.8,4,1.2c1.4-0.4,2.6-0.9,4-1.2c2.6,1,4.9,2.8,7.4,3.9c3.4,1.6,6.6-0.4,8.9-2.7c-2.4,3.3-4.9,6.9-8.9,8.2
			c-4.2,0.6-7.8-1.6-11.4-3.5C213.4,42.2,209.6,44.3,205.1,43.3L205.1,43.3z"/>
	</g>
</g>
</svg>
