<svg xmlns="http://www.w3.org/2000/svg" width="67.423" height="79.717" viewBox="0 0 67.423 79.717">
  <g id="datadock" transform="translate(-1248.357 -433.04)">
    <path id="Tracé_19709" data-name="Tracé 19709" d="M1248.357,433.04h67.423v67.188H1308a9.178,9.178,0,0,1-.118-2.475h5.422V435.515h-62.473v62.119h6.837v2.475l-9.312.118Zm32.769,55.99c4.424-.1,7.046,1.27,9.194,3.418.446.445.964.73,1.179,1.414h-.354c-2.162-4.21-10.413-5.462-14.97-2.593a11.6,11.6,0,0,0-2.829,2.475c-.462.622-.571,1.516-1.532,1.65v-.236c.376-.3.424-.78.707-1.179a13.016,13.016,0,0,1,3.183-3.065,15.466,15.466,0,0,1,3.418-1.532C1279.724,489.19,1280.623,489.35,1281.126,489.03Zm22.867,3.065h1.179v.236c-.546.56-.549,1.381-1.65,1.414v-.236Zm1.768,2v.943l-2.358.118v.236a2.185,2.185,0,0,1,.118,1.061l2.357-.118v.825a6.305,6.305,0,0,1-1.768.118c-.139.095-.2.091-.471.118l.118,1.532,2.593-.118v.825l-3.654.354v-.236c-.3-.474-.474-4.388-.471-5.3h.118v-.118Zm-7.072,6.247-1.179.118v-.118h-.118c-.008-1.126-.649-4.924-.354-5.422a2.519,2.519,0,0,1,1.179-.118q.059,1.061.118,2.122h.118v-.118c.683-.692.948-2.195,2.24-2.24a1.277,1.277,0,0,1,.707-.118v.236a7.732,7.732,0,0,0-1.768,2.593,13.446,13.446,0,0,1,2.358,2.711,2.858,2.858,0,0,1-1.3.118c-.54-.836-1.368-1.382-1.886-2.24l-.354.118v.589A5.361,5.361,0,0,1,1298.689,500.346Zm-4.6-5.422a3.124,3.124,0,0,1,2,.354c.089.126.071.112.118.354a3.385,3.385,0,0,0-.236.589,2.781,2.781,0,0,0-2.122-.118c-.183.282-.344.345-.472.707-.472.583-.107,1.559,0,2.24l.825.707a3.841,3.841,0,0,0,2.122-.471,4.273,4.273,0,0,1,.236.943c-2.423,1.194-3.1.3-4.479-1.179-.14-1.635-.108-2.917.943-3.654C1293.343,495.176,1293.813,495.164,1294.092,494.923Zm-6.247.589a4.02,4.02,0,0,1,2.24.354c.693.465,1.834,2.58.943,3.772-.351,1.355-1.622,1.7-3.418,1.65-.426-.363-1.086-.486-1.414-.943a3.326,3.326,0,0,1,.589-4.361C1287.068,495.765,1287.549,495.73,1287.845,495.513ZM1280.183,502q-.236-2.829-.471-5.658c1.933-.06,4.288-.427,4.833,1.179a2.352,2.352,0,0,1,.354,2C1284.322,501.542,1282.693,502,1280.183,502Zm7.9-5.54a1.38,1.38,0,0,1-.589.236l-.589.825c-.082,1.919.177,2.9,2.122,2.829a.841.841,0,0,1,.472-.236,3.192,3.192,0,0,0,.589-2.122c-.364-.541-.255-1.057-.943-1.3A1.561,1.561,0,0,0,1288.08,496.456Zm-13.555,6.012a29.479,29.479,0,0,1,1.532-5.658,2.878,2.878,0,0,1,1.061-.236l2.475,5.422h-.236a1.864,1.864,0,0,1-.943.118,8.264,8.264,0,0,0-.707-1.65,8.174,8.174,0,0,1-1.532.118v.118h-.118l-.354,1.65A3.875,3.875,0,0,1,1274.525,502.467Zm-.471-5.54v.825h-.236a5.326,5.326,0,0,1-1.3.236V499.4a12.543,12.543,0,0,1,.354,3.183,3.879,3.879,0,0,1-1.179.118c-.093-1.5-.341-2.866-.354-4.479a4.357,4.357,0,0,0-1.3-.118c-.126.089-.111.071-.354.118v-.236a1.277,1.277,0,0,1-.118-.707Zm7.19,4.008a2.883,2.883,0,0,0,2.475-1.061,7.137,7.137,0,0,0-.236-2.122,3.612,3.612,0,0,0-2.357-.589,4.354,4.354,0,0,0-.118,1.3A5.963,5.963,0,0,1,1281.244,500.935Zm-11.2,2h-1.179c-.124-.6-.425-1.522-1.061-1.65-.22.131-.626-.011-.943.118-.471.192-.6,1.224-.707,1.768l-1.179.118,1.532-5.776h1.179C1268.163,499.443,1269.723,500.945,1270.046,502.939Zm-10.491.825-.472-5.54c2.972-.171,4.555-.633,5.187,2.357a1.758,1.758,0,0,1-.118,1.3C1263.717,503.511,1261.624,503.784,1259.555,503.764Zm17.092-5.54a15.742,15.742,0,0,0-.236,1.65h.236c.27-.171.525-.061.707-.354C1277.042,499.164,1276.973,498.565,1276.647,498.224Zm-16.031,4.479a4.206,4.206,0,0,0,2-.354,1.852,1.852,0,0,0,.471-1.179c.3-.51-.22-1.615-.589-1.886a2.862,2.862,0,0,0-2.122-.236v1.061A6.406,6.406,0,0,1,1260.616,502.7Zm6.247-2,.943-.118v-.236c-.292-.343-.3-.946-.707-1.179Zm4.361,3.183a7.02,7.02,0,0,0,1.532,3.418c1.77,2.631,6.369,6.165,11.552,4.833a16.092,16.092,0,0,0,6.011-3.065,11.078,11.078,0,0,0,2.711-4.008c.28-.666.26-2.442.825-2.829v.118c-.543.864-.433,2.255-.825,3.183a12.335,12.335,0,0,1-3.772,4.951,13.892,13.892,0,0,1-3.065,1.65c-5.16,1.881-10.891-.816-13.084-3.772a18.679,18.679,0,0,1-2.24-4.479Z" fill="#333" fill-rule="evenodd"/>
    <path id="Tracé_19710" data-name="Tracé 19710" d="M1412.548,621.064h-2.24a32.414,32.414,0,0,0,0-4.243h-.236v.118a11.331,11.331,0,0,0-.943,1.3c-1.153,1.53-3.427,2.515-5.54,3.065a9.557,9.557,0,0,1-4.715-.471c-3.844-1.273-5.779-3.475-6.955-7.426a9.332,9.332,0,0,1-.354-4.126,14.752,14.752,0,0,1,1.179-3.772c.468-.842,1.441-1.533,1.768-2.475-.234-.3-.182-.654-.354-1.061a14.876,14.876,0,0,0-1.532-2.711c-1.59-2.187-4.322-3.312-7.426-4.008h-7.544V618c3.96.037,8.226.225,10.962-.943.651-.278,2.922-1.941,2.947-1.886a23.725,23.725,0,0,1,1.414,2.593c-.455.656-1.193.868-1.886,1.3-4.038,2.5-10.2,2-16.738,2V592.185h7.78a19.654,19.654,0,0,1,4.715.236,14.559,14.559,0,0,1,9.312,6.719c1.021,1.654,2.734,5.935,2,9.194a23.84,23.84,0,0,1-.943,3.89c-.389.929-1.212,1.805-1.415,2.829.23.188.164.362.354.589a8.814,8.814,0,0,0,3.3,2.357,7.73,7.73,0,0,0,9.9-4.833c2.239-6.823-4.81-12.016-10.609-9.312v-.236l-.825-2.711h.118v-.118c.9-.142,1.894-.5,2.829-.707,2.036-.454,4.961.724,6.011,1.414.909.6,1.974,2.458,2.711,2.829V592.185a9.928,9.928,0,0,1,2.947,0Z" transform="translate(-111.148 -140.285)" fill="#bed000" fill-rule="evenodd"/>
    <path id="Tracé_19711" data-name="Tracé 19711" d="M1515.547,1026.04a8.594,8.594,0,0,1,.236,2.947c-2.056.986-2.768,2.939-4.244,4.479v-.118c-.589-.388-.862-1.12-1.414-1.532a13.5,13.5,0,0,1-1.768-1.179h.118a5.957,5.957,0,0,1,2-1.179,4.733,4.733,0,0,1,.943,1.768h.118v-.118c.534-.682.7-1.631,1.179-2.357A19.74,19.74,0,0,1,1515.547,1026.04Z" transform="translate(-229.353 -523.101)" fill="#bed000" fill-rule="evenodd"/>
  </g>
</svg>
