<svg id="elearning" xmlns="http://www.w3.org/2000/svg" width="79.916" height="79.917" viewBox="0 0 79.916 79.917">
  <rect id="Rectangle_2343" data-name="Rectangle 2343" width="4.128" height="5.181" transform="translate(60.469 17.968)" fill="#bed000"/>
  <ellipse id="Ellipse_342" data-name="Ellipse 342" cx="2.475" cy="2.475" rx="2.475" ry="2.475" transform="translate(37.484 8.181)" fill="#bed000"/>
  <path id="Tracé_19695" data-name="Tracé 19695" d="M941.125,257.263V253.6l1.8-.653a1.331,1.331,0,0,0,0-2.5l-25.307-9.324a1.4,1.4,0,0,0-.932,0l-25.307,9.324a1.332,1.332,0,0,0,0,2.5l10.469,3.849-4.635,18.554a1.365,1.365,0,0,0,.24,1.145c.04.04.08.053.12.093a21.311,21.311,0,1,0,39.159,0c.04-.04.08-.053.12-.093a1.358,1.358,0,0,0,.24-1.145L932.454,256.8l6.007-2.211v2.677a4.009,4.009,0,0,0-2.664,3.756v4a1.333,1.333,0,0,0,1.332,1.332h5.328a1.333,1.333,0,0,0,1.332-1.332v-4A4.006,4.006,0,0,0,941.125,257.263Zm-38.972,38.759a18.456,18.456,0,0,1-3.583-9.7H905.2a35.3,35.3,0,0,0,1.172,8.085A24.164,24.164,0,0,0,902.152,296.022Zm-3.583-12.36A18.7,18.7,0,0,1,900.3,277h5.741a36.157,36.157,0,0,0-.839,6.66Zm5.341,14.452a24.255,24.255,0,0,1,3.263-1.159,19.756,19.756,0,0,0,2.864,5.261A18.514,18.514,0,0,1,903.91,298.113Zm11.908,5.3c-2.411-.719-4.542-3.356-5.994-7.086a37.746,37.746,0,0,1,5.994-.639Zm0-10.389a40.554,40.554,0,0,0-6.846.746,32.246,32.246,0,0,1-1.105-7.446h7.952Zm0-9.363h-7.952a33.69,33.69,0,0,1,.919-6.66h7.033Zm2.664,19.753v-7.725a37.746,37.746,0,0,1,5.994.639C923.024,300.058,920.893,302.7,918.482,303.415Zm7.952-17.089a32.128,32.128,0,0,1-1.105,7.446,40.528,40.528,0,0,0-6.846-.746v-6.7Zm-7.952-2.664V277h7.033a33.519,33.519,0,0,1,.919,6.66Zm5.781,18.554a19.758,19.758,0,0,0,2.864-5.261,24.252,24.252,0,0,1,3.263,1.159A18.514,18.514,0,0,1,924.262,302.216Zm7.885-6.194a24.093,24.093,0,0,0-4.222-1.612,35.3,35.3,0,0,0,1.172-8.085h6.633A18.437,18.437,0,0,1,932.147,296.022Zm-3.05-12.36a35.96,35.96,0,0,0-.839-6.66H934a18.654,18.654,0,0,1,1.732,6.66Zm4.995-9.324H900.208l4.156-16.609,12.32,4.542a1.4,1.4,0,0,0,.932,0l12.32-4.542ZM917.15,247.7a4,4,0,1,0,3.756,5.328h14.079l-17.835,6.566-21.457-7.9,21.457-7.9,17.835,6.566H920.906A4.006,4.006,0,0,0,917.15,247.7Zm1.332,4a1.332,1.332,0,1,1-1.332-1.332A1.333,1.333,0,0,1,918.482,251.7Zm22.643,11.987h-2.664v-2.664a1.332,1.332,0,1,1,2.664,0Z" transform="translate(-877.192 -241.04)" fill="#333"/>
  <path id="Tracé_19696" data-name="Tracé 19696" d="M1048.717,494.079a18.513,18.513,0,0,1-6.127,4.1,19.751,19.751,0,0,0,2.864-5.261A24.242,24.242,0,0,1,1048.717,494.079Z" transform="translate(-995.52 -437.005)" fill="#bed000"/>
  <path id="Tracé_19697" data-name="Tracé 19697" d="M1022.544,487.859c-1.452,3.729-3.583,6.367-5.994,7.086V487.22A37.742,37.742,0,0,1,1022.544,487.859Z" transform="translate(-975.26 -432.57)" fill="#bed000"/>
  <path id="Tracé_19698" data-name="Tracé 19698" d="M983.544,487.22v7.725c-2.411-.719-4.542-3.356-5.994-7.086A37.744,37.744,0,0,1,983.544,487.22Z" transform="translate(-944.918 -432.57)" fill="#bed000"/>
  <path id="Tracé_19699" data-name="Tracé 19699" d="M957.037,498.181a18.514,18.514,0,0,1-6.127-4.1,24.249,24.249,0,0,1,3.263-1.159A19.756,19.756,0,0,0,957.037,498.181Z" transform="translate(-924.192 -437.005)" fill="#bed000"/>
  <path id="Tracé_19700" data-name="Tracé 19700" d="M934.655,453.125a24.157,24.157,0,0,0-4.222,1.612,18.456,18.456,0,0,1-3.583-9.7h6.633A35.3,35.3,0,0,0,934.655,453.125Z" transform="translate(-905.473 -399.753)" fill="#bed000"/>
  <path id="Tracé_19701" data-name="Tracé 19701" d="M976.682,445.04v6.7a40.553,40.553,0,0,0-6.846.746,32.243,32.243,0,0,1-1.105-7.445Z" transform="translate(-938.056 -399.753)" fill="#bed000"/>
  <path id="Tracé_19702" data-name="Tracé 19702" d="M1024.5,445.04a32.132,32.132,0,0,1-1.106,7.445,40.528,40.528,0,0,0-6.846-.746v-6.7Z" transform="translate(-975.26 -399.753)" fill="#bed000"/>
  <path id="Tracé_19703" data-name="Tracé 19703" d="M1066.9,445.04a18.438,18.438,0,0,1-3.583,9.7,24.094,24.094,0,0,0-4.222-1.612,35.3,35.3,0,0,0,1.172-8.085Z" transform="translate(-1008.357 -399.753)" fill="#bed000"/>
  <path id="Tracé_19704" data-name="Tracé 19704" d="M1068.062,409.7h-6.633a35.96,35.96,0,0,0-.839-6.66h5.741A18.652,18.652,0,0,1,1068.062,409.7Z" transform="translate(-1009.524 -367.077)" fill="#bed000"/>
  <path id="Tracé_19705" data-name="Tracé 19705" d="M1024.5,409.7h-7.952v-6.66h7.033A33.532,33.532,0,0,1,1024.5,409.7Z" transform="translate(-975.26 -367.077)" fill="#bed000"/>
  <path id="Tracé_19706" data-name="Tracé 19706" d="M976.682,403.04v6.66H968.73a33.685,33.685,0,0,1,.919-6.66Z" transform="translate(-938.056 -367.077)" fill="#bed000"/>
  <path id="Tracé_19707" data-name="Tracé 19707" d="M934.322,403.04a36.157,36.157,0,0,0-.839,6.66H926.85a18.7,18.7,0,0,1,1.732-6.66Z" transform="translate(-905.473 -367.077)" fill="#bed000"/>
  <path id="Tracé_19708" data-name="Tracé 19708" d="M909.135,403.661H907.8V365.035a4.008,4.008,0,0,0-4-4H891.82V363.7h11.987a1.332,1.332,0,0,1,1.332,1.332v38.626h-2.664V367.7a1.332,1.332,0,0,0-1.332-1.332H891.82v2.664h7.992v34.63H841.207v-34.63H849.2v-2.664h-9.323a1.332,1.332,0,0,0-1.332,1.332v35.962h-2.664V365.035a1.332,1.332,0,0,1,1.332-1.332H849.2v-2.664H837.211a4.008,4.008,0,0,0-4,4v38.626h-1.332a1.332,1.332,0,0,0-1.332,1.332v5.328a4.008,4.008,0,0,0,4,4h71.924a4.008,4.008,0,0,0,4-4v-5.328a1.332,1.332,0,0,0-1.332-1.332Zm-42.622,2.664H874.5v1.332h-7.992Zm41.29,4a1.332,1.332,0,0,1-1.332,1.332H834.547a1.332,1.332,0,0,1-1.332-1.332v-4h30.634v2.664a1.332,1.332,0,0,0,1.332,1.332h10.656a1.332,1.332,0,0,0,1.332-1.332v-2.664H907.8Zm0,0" transform="translate(-830.551 -334.4)" fill="#333"/>
</svg>
