<svg xmlns="http://www.w3.org/2000/svg" xmlns:xlink="http://www.w3.org/1999/xlink" width="376.521" height="397.087" viewBox="0 0 376.521 397.087">
  <defs>
    <filter id="Tracé_28845" x="0" y="0" width="376.521" height="397.087" filterUnits="userSpaceOnUse">
      <feOffset dy="23" input="SourceAlpha"/>
      <feGaussianBlur stdDeviation="23" result="blur"/>
      <feFlood flood-color="#40527c" flood-opacity="0.298"/>
      <feComposite operator="in" in2="blur"/>
      <feComposite in="SourceGraphic"/>
    </filter>
  </defs>
  <g id="logo_lbi_academy" data-name="logo lbi academy" transform="translate(69 46)">
    <g transform="matrix(1, 0, 0, 1, -69, -46)" filter="url(#Tracé_28845)">
      <path id="Tracé_28845-2" data-name="Tracé 28845" d="M119.26,0,0,30.144v111.4c0,60.416,79.978,92.4,119.26,117.544,39.282-25.146,119.26-57.129,119.26-117.544V30.144Z" transform="translate(69 46)" fill="#dadada"/>
    </g>
    <g id="Groupe_18217" data-name="Groupe 18217" transform="translate(4.551 5.058)">
      <path id="Tracé_28846" data-name="Tracé 28846" d="M134.213,23.462,21.6,51.926V157.115c0,57.048,75.52,87.249,112.613,110.993,37.093-23.744,112.613-53.944,112.613-110.993V51.926Z" transform="translate(-19.503 -21.299)" fill="#fff"/>
      <path id="Tracé_28847" data-name="Tracé 28847" d="M129.5,265.733l-1.13-.724c-6.634-4.247-14.6-8.751-23.024-13.521C85.686,240.365,63.406,227.757,45.7,211.837c-20.8-18.71-30.917-38.2-30.917-59.586V45.429L129.5,16.435l.514.13,114.2,28.864V152.251c0,21.385-10.113,40.876-30.917,59.586-17.7,15.92-39.982,28.528-59.639,39.651-8.428,4.77-16.39,9.274-23.024,13.521ZM18.98,48.694V152.251c0,20.128,9.659,38.6,29.527,56.468,17.362,15.614,39.43,28.1,58.9,39.12,8.01,4.533,15.6,8.828,22.089,12.921,6.489-4.093,14.079-8.388,22.089-12.921,19.471-11.018,41.539-23.505,58.9-39.12,19.869-17.87,29.528-36.34,29.528-56.468V48.694L129.5,20.76Z" transform="translate(-14.787 -16.435)" fill="#fff"/>
    </g>
    <g id="Groupe_18218" data-name="Groupe 18218" transform="translate(21.875 30.719)">
      <path id="Tracé_28848" data-name="Tracé 28848" d="M72.28,161.715a1.2,1.2,0,0,1-1.2-1.2V116.943l67.6-17.087a1.2,1.2,0,0,1,.587,2.323l-65.793,16.63v41.708A1.2,1.2,0,0,1,72.28,161.715Z" transform="translate(-71.082 -99.818)" fill="#494b52"/>
      <path id="Tracé_28849" data-name="Tracé 28849" d="M547.892,162a1.2,1.2,0,0,1-1.2-1.2V119.092l-65.555-16.5a1.2,1.2,0,1,1,.585-2.324l67.365,16.961V160.8A1.2,1.2,0,0,1,547.892,162Z" transform="translate(-354.319 -100.101)" fill="#494b52"/>
    </g>
    <path id="Tracé_28850" data-name="Tracé 28850" d="M168.467,509.672l-.646-.414c-5.68-3.636-12.486-7.488-19.693-11.565-16.764-9.486-35.764-20.238-50.836-33.793-17.637-15.862-26.211-32.366-26.211-50.454V398.2a1.2,1.2,0,0,1,2.4,0v15.25c0,17.37,8.314,33.291,25.417,48.672,14.877,13.38,33.756,24.063,50.413,33.489,6.965,3.942,13.56,7.673,19.159,11.222,5.6-3.548,12.193-7.28,19.158-11.222,16.657-9.426,35.536-20.109,50.414-33.489,17.1-15.382,25.417-31.3,25.417-48.672V398.2a1.2,1.2,0,1,1,2.4,0v15.25c0,18.088-8.573,34.592-26.211,50.454-15.072,13.555-34.072,24.307-50.836,33.793-7.206,4.078-14.013,7.93-19.693,11.565Z" transform="translate(-49.207 -274.824)" fill="#494b52"/>
    <g id="Groupe_18219" data-name="Groupe 18219" transform="translate(30.611 127.461)">
      <path id="Tracé_28851" data-name="Tracé 28851" d="M99.47,430.181H101l4.4-12.27h-1.933v-2.685h9.988v2.685h-1.933l4.4,12.27h1.531v2.712h-6.793v-2.685h2.041l-.993-2.9h-6.605l-.993,2.9h2.148v2.685H99.47Zm11.411-5.4-2.47-6.954-2.47,6.954Z" transform="translate(-99.47 -414.904)" fill="#cad510"/>
      <path id="Tracé_28852" data-name="Tracé 28852" d="M187.508,423.336a9.047,9.047,0,0,1,9.29-9.156c4.108,0,6.847,2.148,6.847,4.269a1.992,1.992,0,0,1-1.933,2.175,1.87,1.87,0,0,1-2.041-1.906,2.2,2.2,0,0,1,.188-.913,5.155,5.155,0,0,0-3.141-.805,6.34,6.34,0,0,0,.134,12.673,6.773,6.773,0,0,0,5.075-2.336l2.014,2.094a9.494,9.494,0,0,1-7.089,3.061C191.4,432.492,187.508,428.84,187.508,423.336Z" transform="translate(-160.415 -414.18)" fill="#cad510"/>
      <path id="Tracé_28853" data-name="Tracé 28853" d="M269.874,430.181h1.53l4.4-12.27h-1.933v-2.685h9.988v2.685H281.93l4.4,12.27h1.53v2.712H281.07v-2.685h2.041l-.993-2.9h-6.605l-.994,2.9h2.148v2.685h-6.793Zm11.411-5.4-2.47-6.954-2.47,6.954Z" transform="translate(-217.433 -414.904)" fill="#cad510"/>
      <path id="Tracé_28854" data-name="Tracé 28854" d="M358.871,430.181h2.014V417.938h-2.014v-2.712h6.685c6.39,0,10.176,3.33,10.176,8.673,0,5.4-3.571,8.995-10.5,8.995h-6.364Zm6.793,0c4.564,0,6.927-2.47,6.927-6.256,0-3.866-2.739-5.987-7.142-5.987h-1.531v12.243Z" transform="translate(-279.042 -414.904)" fill="#cad510"/>
      <path id="Tracé_28855" data-name="Tracé 28855" d="M447.083,430.181H449.1V417.938h-2.014v-2.712h13.183v5.048h-2.9v-2.363h-5.236v4.726h5.343v2.578h-5.343v4.994h5.263v-2.363h2.9v5.048h-13.21Z" transform="translate(-340.107 -414.904)" fill="#cad510"/>
      <path id="Tracé_28856" data-name="Tracé 28856" d="M523.165,430.181h2.095l.564-12.243h-2.2v-2.712h4.833l5.424,9.827,5.424-9.827h4.806v2.712h-2.2l.564,12.243h2.094v2.712h-7.249v-2.712h2.121l-.349-9.1-5.048,8.861h-.4l-5.048-8.861-.349,9.1h2.121v2.712h-7.2Z" transform="translate(-392.775 -414.904)" fill="#cad510"/>
      <path id="Tracé_28857" data-name="Tracé 28857" d="M626.15,430.181h2.228v-4.027l-5.021-8.216h-1.772v-2.712h6.686v2.712h-1.557l3.249,5.665,3.222-5.665H631.52v-2.712h6.686v2.712h-1.772l-5.021,8.216v4.027h2.229v2.712H626.15Z" transform="translate(-460.907 -414.904)" fill="#cad510"/>
    </g>
    <g id="Groupe_18220" data-name="Groupe 18220" transform="translate(95.086 164.252)">
      <path id="Tracé_28858" data-name="Tracé 28858" d="M313.3,535.5a1.836,1.836,0,0,0-1.52-.715c-.9,0-1.328.375-1.328.851,0,.559.659.715,1.428.806,1.337.165,2.582.513,2.582,2.042,0,1.429-1.263,2.042-2.691,2.042a2.661,2.661,0,0,1-2.792-1.574l1.006-.522a1.827,1.827,0,0,0,1.8,1.016c.76,0,1.474-.265,1.474-.961,0-.6-.632-.851-1.483-.943-1.309-.156-2.517-.5-2.517-1.941,0-1.318,1.3-1.858,2.48-1.868A2.591,2.591,0,0,1,314.259,535Z" transform="translate(-308.977 -533.728)" fill="#86878c"/>
      <path id="Tracé_28859" data-name="Tracé 28859" d="M347.7,540.851v-6.408h1.2v6.408Z" transform="translate(-335.78 -534.223)" fill="#86878c"/>
      <path id="Tracé_28860" data-name="Tracé 28860" d="M377.538,534.412h1.208v6.418H378v.009l-3.369-4.33v4.321h-1.209v-6.409h.98l3.14,3.973Z" transform="translate(-353.587 -534.201)" fill="#86878c"/>
      <path id="Tracé_28861" data-name="Tracé 28861" d="M417.4,539.757a3.378,3.378,0,0,1-2.435.952,3.151,3.151,0,0,1-3.4-3.305,3.226,3.226,0,0,1,3.4-3.378,3.307,3.307,0,0,1,2.353.98l-.806.778a2.2,2.2,0,0,0-1.547-.6,2.1,2.1,0,0,0-2.207,2.225,2.054,2.054,0,0,0,2.207,2.17,2.36,2.36,0,0,0,1.611-.65Z" transform="translate(-379.998 -533.934)" fill="#86878c"/>
      <path id="Tracé_28862" data-name="Tracé 28862" d="M455.294,540.851h-4.8v-6.408h4.8v1.172h-3.6v1.474h3.47v1.126H451.7v1.447h3.6Z" transform="translate(-406.944 -534.223)" fill="#86878c"/>
      <path id="Tracé_28863" data-name="Tracé 28863" d="M309.013,567.778c.011-1.736,1.654-2.487,3.167-2.487,1.642,0,3.425.669,3.425,2.616,0,2.088-1.572,2.487-3.3,2.487-.68,0-1.783.176-1.783,1.068v.7h5.1v1.443h-6.652V571.45c0-1.889,1.713-2.452,3.331-2.452.622,0,1.76-.105,1.76-1.056,0-.891-.809-1.313-1.865-1.313-.81,0-1.643.41-1.654,1.149Z" transform="translate(-308.977 -555.578)" fill="#cad510"/>
      <path id="Tracé_28864" data-name="Tracé 28864" d="M356.531,568.769c0-4.9,7.2-4.892,7.2,0v1.185c0,4.892-7.2,4.9-7.2,0Zm1.537,1.185a2.071,2.071,0,1,0,4.129,0v-1.185a2.069,2.069,0,1,0-4.129,0Z" transform="translate(-341.897 -555.442)" fill="#cad510"/>
      <path id="Tracé_28865" data-name="Tracé 28865" d="M405.006,572.533h1.232v-5.49h-1.279v-1.407h2.816v6.9h1.138v1.314h-3.906Z" transform="translate(-375.421 -555.817)" fill="#cad510"/>
      <path id="Tracé_28866" data-name="Tracé 28866" d="M449.343,565.673v5.138h.962v1.5h-.962v1.56h-1.525v-1.56h-4.387l-.141-1.572,3.7-5.068Zm-1.525,5.138v-3.8l-2.78,3.8Z" transform="translate(-401.956 -555.842)" fill="#cad510"/>
    </g>
    <g id="Groupe_18221" data-name="Groupe 18221" transform="translate(94.124 200.915)">
      <path id="Tracé_28867" data-name="Tracé 28867" d="M372.147,670.383l1.641,4.932,5.2.037-4.184,3.085,1.571,4.955-4.227-3.026-4.227,3.026,1.571-4.955-4.184-3.085,5.2-.037Z" transform="translate(-347.01 -664.991)" fill="#86878c"/>
      <path id="Tracé_28868" data-name="Tracé 28868" d="M312.216,652.863l-.562,3.314,2.955,1.6-3.325.489-.609,3.305-1.493-3.011-3.332.442,2.4-2.35-1.45-3.032,2.978,1.559Z" transform="translate(-305.851 -652.863)" fill="#cad510"/>
      <path id="Tracé_28869" data-name="Tracé 28869" d="M443.144,652.863l.562,3.314-2.955,1.6,3.325.489.609,3.305,1.493-3.011,3.332.442-2.4-2.35,1.45-3.032-2.978,1.559Z" transform="translate(-399.236 -652.863)" fill="#cad510"/>
    </g>
    <g id="Groupe_18223" data-name="Groupe 18223" transform="translate(58.606 24.542)">
      <path id="Tracé_28870" data-name="Tracé 28870" d="M204.549,122.444l55.485-32,3.211,49.521-41.136,4.307-.325-11.418L203.33,125.33Z" transform="translate(-199.362 -87.156)" fill="#86878c"/>
      <path id="Tracé_28871" data-name="Tracé 28871" d="M290.43,130.094l20.147-11.2c1.549-.861,1.562-4.237.018-5.124L290.43,102.181l-14.893-8.562-23.828-13.7a1.194,1.194,0,0,0-1.234,0l-38.721,22.261-20.166,11.594c-1.543.887-1.531,4.263.018,5.124l20.148,11.2.014,7.3c0,.919.53,1.619,1.119,1.487a175.2,175.2,0,0,1,25.17-3.756l13.035-.494,13.035.494a175.688,175.688,0,0,1,25.2,3.755c.591.132,1.12-.574,1.119-1.5Zm-39.412-1.174-13.035.494-.045,0-.045,0a178.175,178.175,0,0,0-22.424,3.143v-6.48l-2.446-1.359-15.187-8.439,15.225-8.753,38.047-21.874v43.26Z" transform="translate(-190.437 -79.748)" fill="#494b52"/>
      <path id="Tracé_28872" data-name="Tracé 28872" d="M549.522,235.457h-1.663v-3.665l1.663-.894Z" transform="translate(-437.864 -184.383)" fill="#494b52"/>
      <g id="Groupe_18222" data-name="Groupe 18222" transform="translate(107.481 50.243)">
        <path id="Tracé_28873" data-name="Tracé 28873" d="M547.547,252.952h-4.826l.651-5.668a1.773,1.773,0,0,1,1.761-1.571h0a1.773,1.773,0,0,1,1.762,1.571Z" transform="translate(-541.788 -244.881)" fill="#86878c"/>
        <path id="Tracé_28874" data-name="Tracé 28874" d="M546.381,251.912H539.69l.758-6.595a2.6,2.6,0,0,1,5.176,0Zm-4.826-1.664h2.96l-.545-4.741a.942.942,0,0,0-1.871,0Z" transform="translate(-539.69 -243.01)" fill="#494b52"/>
      </g>
    </g>
    <g id="Groupe_18248" data-name="Groupe 18248" transform="translate(22.447 97.42)">
      <g id="Groupe_18247" data-name="Groupe 18247">
        <g id="Groupe_18246" data-name="Groupe 18246">
          <g id="Groupe_18225" data-name="Groupe 18225" transform="translate(0 0.225)">
            <g id="Groupe_18224" data-name="Groupe 18224">
              <path id="Tracé_28875" data-name="Tracé 28875" d="M78.055,317.293v19.7H72.94v-19.7Z" transform="translate(-72.94 -317.293)" fill="#535355"/>
            </g>
          </g>
          <g id="Groupe_18227" data-name="Groupe 18227" transform="translate(8.375 5.733)">
            <g id="Groupe_18226" data-name="Groupe 18226">
              <path id="Tracé_28876" data-name="Tracé 28876" d="M111.226,335.5h4.862v13.883H111.31l-.225-1.49a5.722,5.722,0,0,1-4.581,1.743c-4.075-.253-6.351-3.148-6.351-7.195,0-4.1,2.7-7.251,6.745-7.251a4.566,4.566,0,0,1,4.075,1.8Zm-5.93,6.941a2.759,2.759,0,0,0,2.782,3.035,2.882,2.882,0,0,0,2.867-3.035,2.743,2.743,0,0,0-2.867-3.063A2.783,2.783,0,0,0,105.3,342.443Z" transform="translate(-100.153 -335.192)" fill="#535355"/>
            </g>
          </g>
          <g id="Groupe_18229" data-name="Groupe 18229" transform="translate(35.69 0.253)">
            <g id="Groupe_18228" data-name="Groupe 18228">
              <path id="Tracé_28877" data-name="Tracé 28877" d="M194.085,324.354a4.8,4.8,0,0,1,3.85-1.49c4.047,0,6.745,3.007,6.745,7.251,0,4.384-2.276,6.942-6.352,7.195a5.721,5.721,0,0,1-4.581-1.743l-.225,1.49h-4.609V317.384h5.171Zm-.113,5.9a2.792,2.792,0,0,0,2.782,2.895,3.062,3.062,0,0,0,0-6.1C194.928,327.052,193.972,328.57,193.972,330.256Z" transform="translate(-188.914 -317.384)" fill="#535355"/>
            </g>
          </g>
          <g id="Groupe_18231" data-name="Groupe 18231" transform="translate(53.985 5.733)">
            <g id="Groupe_18230" data-name="Groupe 18230">
              <path id="Tracé_28878" data-name="Tracé 28878" d="M264.212,342.471c0,5.059-4.019,7.251-7.925,7.251-3.991,0-7.925-2.192-7.925-7.251,0-5.143,3.906-7.279,7.925-7.279C260.39,335.192,264.212,337.412,264.212,342.471Zm-5.059,0a2.87,2.87,0,1,0-2.867,3.007A2.848,2.848,0,0,0,259.154,342.471Z" transform="translate(-248.362 -335.192)" fill="#535355"/>
            </g>
          </g>
          <g id="Groupe_18233" data-name="Groupe 18233" transform="translate(73.095 6.043)">
            <g id="Groupe_18232" data-name="Groupe 18232">
              <path id="Tracé_28879" data-name="Tracé 28879" d="M315.629,350.08V336.2h-5.171V350.08Z" transform="translate(-310.458 -336.197)" fill="#535355"/>
            </g>
          </g>
          <g id="Groupe_18235" data-name="Groupe 18235" transform="translate(81.301 2.108)">
            <g id="Groupe_18234" data-name="Groupe 18234">
              <path id="Tracé_28880" data-name="Tracé 28880" d="M344.486,323.412v4.019h3.12v3.963h-3.148v4.553a1.234,1.234,0,0,0,1.377,1.349,2.933,2.933,0,0,0,1.518-.478l1.124,3.822a7.968,7.968,0,0,1-3.991.927c-2.754,0-5.227-1.265-5.143-5.621v-4.553h-2.22v-3.963h2.22v-3.457Z" transform="translate(-337.123 -323.412)" fill="#535355"/>
            </g>
          </g>
          <g id="Groupe_18237" data-name="Groupe 18237" transform="translate(94.537 5.705)">
            <g id="Groupe_18236" data-name="Groupe 18236">
              <path id="Tracé_28881" data-name="Tracé 28881" d="M395.056,343.841h-9.7c.365,1.237,1.967,1.771,3.092,1.771a5.752,5.752,0,0,0,3.569-1.124l2.529,2.839a9.185,9.185,0,0,1-6.323,2.3c-4.384,0-8.094-2.164-8.094-7.223s3.963-7.307,7.729-7.307C392.78,335.1,396.237,338.361,395.056,343.841Zm-4.637-3.316c-.14-2.192-4.693-2.276-5.03,0Z" transform="translate(-380.133 -335.101)" fill="#535355"/>
            </g>
          </g>
          <g id="Groupe_18239" data-name="Groupe 18239" transform="translate(120.251 5.986)">
            <g id="Groupe_18238" data-name="Groupe 18238">
              <path id="Tracé_28882" data-name="Tracé 28882" d="M463.689,336.014v13.94h1.377v-13.94Z" transform="translate(-463.689 -336.014)" fill="#535355"/>
            </g>
          </g>
          <g id="Groupe_18241" data-name="Groupe 18241" transform="translate(126.546 5.762)">
            <g id="Groupe_18240" data-name="Groupe 18240">
              <path id="Tracé_28883" data-name="Tracé 28883" d="M504.717,349.448V341.13a4.294,4.294,0,0,0-4.44-4.553,4.385,4.385,0,0,0-4.468,4.637v8.235h-1.377v-8.235a4.457,4.457,0,1,0-8.909,0v8.235h-1.377V335.565h1.293l.028,2.3a4.889,4.889,0,0,1,4.524-2.585,5.105,5.105,0,0,1,5.143,3.429,5.365,5.365,0,0,1,5.143-3.429,5.585,5.585,0,0,1,5.818,5.846v8.319Z" transform="translate(-484.145 -335.284)" fill="#535355"/>
            </g>
          </g>
          <g id="Groupe_18243" data-name="Groupe 18243" transform="translate(153.356 5.762)">
            <g id="Groupe_18242" data-name="Groupe 18242">
              <path id="Tracé_28884" data-name="Tracé 28884" d="M591.834,349.448V341.13a4.294,4.294,0,0,0-4.44-4.553,4.386,4.386,0,0,0-4.469,4.637v8.235h-1.377v-8.235a4.457,4.457,0,1,0-8.909,0v8.235h-1.377V335.565h1.293l.028,2.3a4.89,4.89,0,0,1,4.525-2.585,5.105,5.105,0,0,1,5.143,3.429,5.364,5.364,0,0,1,5.143-3.429,5.585,5.585,0,0,1,5.817,5.846v8.319Z" transform="translate(-571.262 -335.284)" fill="#535355"/>
            </g>
          </g>
          <g id="Groupe_18245" data-name="Groupe 18245" transform="translate(179.519 5.79)">
            <g id="Groupe_18244" data-name="Groupe 18244">
              <path id="Tracé_28885" data-name="Tracé 28885" d="M656.279,342.6a7.056,7.056,0,1,1,14.108,0,7.054,7.054,0,1,1-14.108,0Zm12.759,0a5.709,5.709,0,1,0-11.41,0,5.705,5.705,0,1,0,11.41,0Z" transform="translate(-656.279 -335.375)" fill="#535355"/>
            </g>
          </g>
          <path id="Tracé_28886" data-name="Tracé 28886" d="M308.141,316.562l3.766,4.469v.225h-3.991l-1.208-1.265-1.265,1.265h-3.935v-.225l3.794-4.469Z" transform="translate(-231.168 -316.562)" fill="#bed00b"/>
          <path id="Tracé_28887" data-name="Tracé 28887" d="M464.63,319.029a1.11,1.11,0,0,1-2.22,0A1.11,1.11,0,0,1,464.63,319.029Z" transform="translate(-342.553 -317.511)" fill="#bed00b"/>
        </g>
      </g>
    </g>
  </g>
</svg>
