<svg xmlns="http://www.w3.org/2000/svg" width="85.244" height="73.447" viewBox="0 0 85.244 73.447">
  <g id="presentielle" transform="translate(0)">
    <path id="Tracé_19687" data-name="Tracé 19687" d="M302.7,451.9H294.71a1.249,1.249,0,1,0,0,2.5H302.7a1.249,1.249,0,1,0,0-2.5Zm0,0" transform="translate(-227.985 -408.294)" fill="#333"/>
    <path id="Tracé_19688" data-name="Tracé 19688" d="M302.7,475.027H294.71a1.248,1.248,0,1,0,0,2.5H302.7a1.248,1.248,0,1,0,0-2.5Zm0,0" transform="translate(-227.985 -426.285)" fill="#333"/>
    <path id="Tracé_19689" data-name="Tracé 19689" d="M302.7,428.781H294.71a1.249,1.249,0,1,0,0,2.5H302.7a1.249,1.249,0,1,0,0-2.5Zm0,0" transform="translate(-227.985 -390.306)" fill="#333"/>
    <path id="Tracé_19690" data-name="Tracé 19690" d="M214.414,421.46H211a2.024,2.024,0,0,0-2.02,2.022v1.181h-2.93a2.023,2.023,0,0,0-2.018,2.02v1.068H201.09a2.023,2.023,0,0,0-2.02,2.02v5.847a1.855,1.855,0,0,0,1.854,1.854H214.58a1.854,1.854,0,0,0,1.851-1.854V423.482A2.023,2.023,0,0,0,214.414,421.46Zm-10.385,13.515h-2.462v-4.726h2.462Zm4.948,0h-2.451v-7.814h2.451Zm4.957,0h-2.451c0-8.076-.009-10.644-.009-11.017h2.46Z" transform="translate(-154.548 -384.61)" fill="#333"/>
    <path id="Tracé_19691" data-name="Tracé 19691" d="M257.41,432.71v11.017h-2.451c0-8.076-.009-10.644-.009-11.017Z" transform="translate(-198.023 -393.362)" fill="#bed000"/>
    <rect id="Rectangle_2372" data-name="Rectangle 2372" width="2.451" height="7.814" transform="translate(51.979 42.551)" fill="#bed000"/>
    <rect id="Rectangle_2373" data-name="Rectangle 2373" width="2.462" height="4.726" transform="translate(47.02 45.639)" fill="#bed000"/>
    <path id="Tracé_19692" data-name="Tracé 19692" d="M80.91,276.971H41.547a5.412,5.412,0,0,0-2.12-3.37,3.164,3.164,0,0,0,.186-1.061v-8.065a4.4,4.4,0,0,0-4.648-4.4.623.623,0,0,1-.69-.46c-.546-2.795-2.3-4.156-5.37-4.156h-10.6a8.3,8.3,0,0,0-8.291,8.291v7.73A4.2,4.2,0,0,0,11.1,274.3a5.129,5.129,0,0,0,3.232,8.8,11.354,11.354,0,0,0,4.413,7.485v2.475L4.772,298.517l-.022.009a10.556,10.556,0,0,0-6.24,9.637v17.673a3.074,3.074,0,0,0,3.07,3.072h21.1a1.249,1.249,0,1,0,0-2.5H9.849V309.634a1.249,1.249,0,1,0-2.5,0V326.41H1.58a.575.575,0,0,1-.573-.575V308.163a8.126,8.126,0,0,1,4.684-7.323l8.12-3.172,4.833,4.833a9.821,9.821,0,0,0,13.894,0l4.766-4.764v16.525a3.208,3.208,0,0,0,3.2,3.206h.828v8.944H28.505a1.249,1.249,0,0,0,0,2.5H49.6a3.076,3.076,0,0,0,3.072-3.072v-8.369h5.183V321.3a3.908,3.908,0,1,0,2.5,0v-3.829H77.7a3.209,3.209,0,0,0,3.2-3.206V303.232a1.249,1.249,0,1,0-2.5,0v11.028a.708.708,0,0,1-.706.708h-37.2a.708.708,0,0,1-.706-.708V285.067H78.41V297.4a1.249,1.249,0,0,0,2.5,0V285.067h0a2.846,2.846,0,0,0,2.844-2.844v-2.406A2.848,2.848,0,0,0,80.91,276.971Zm-21.8,46.616A1.412,1.412,0,1,1,57.694,325,1.414,1.414,0,0,1,59.106,323.586Zm-15.273-6.12h6.344v8.369a.575.575,0,0,1-.575.575H43.833Zm-4.866-40.5H37.3a3,3,0,0,0-.349.022v-1.339a3.413,3.413,0,0,0,.728-.209A2.891,2.891,0,0,1,38.967,276.971Zm-24.741,3.581a2.73,2.73,0,0,1-2.187-2.582,2.892,2.892,0,0,1,1.379-2.355,4.12,4.12,0,0,0,.6.075c.069,0,.135,0,.2,0Zm0-7.354a1.723,1.723,0,0,1-1.716-1.716v-7.73a5.8,5.8,0,0,1,5.794-5.794H28.9c2.313,0,2.691.968,2.919,2.138a3.119,3.119,0,0,0,3.332,2.469,1.912,1.912,0,0,1,1.96,1.911v8.065a.672.672,0,0,1-.657.657,2.4,2.4,0,0,1-2.389-2.389,1.438,1.438,0,0,0-2.7-.679,5.786,5.786,0,0,1-5.11,3.068Zm2.5,8.4v-5.9h9.534a8.288,8.288,0,0,0,5.936-2.5,4.908,4.908,0,0,0,2.264,2.073V281.6a8.869,8.869,0,0,1-17.735,0Zm13.211,11.674v.071c-1.447,1.439-2.073,2.06-3.481,3.456H24.709c-.879-.872-2.762-2.739-3.467-3.441,0-.031,0-.064,0-.1v-1.281a11.828,11.828,0,0,0,8.689.02Zm-13.583,3.4,3.365-1.314c1.9,1.885,1.174,1.168,2.921,2.9-1.265,1.276-.808.813-2.34,2.358Zm5.98,5.441c1.49-1.5.95-.955,2.444-2.46l0,0a2.289,2.289,0,0,0,.277-.355h1.048a2.1,2.1,0,0,0,.282.36l2.451,2.466A7.321,7.321,0,0,1,22.332,302.116Zm8.544-1.485c-.24-.24-2.076-2.089-2.353-2.366l2.9-2.875c1.76.682,1.665.644,3.388,1.312ZM37.3,294.99,32.432,293.1l0-2.506a11.27,11.27,0,0,0,4.02-5.661,2.856,2.856,0,0,0,.855.131Zm43.952-12.769a.349.349,0,0,1-.346.349H37.3a.348.348,0,0,1-.349-.349v-2.4a.348.348,0,0,1,.349-.349H80.91a.349.349,0,0,1,.346.349Z" transform="translate(1.49 -255.46)" fill="#333"/>
    <path id="Tracé_19693" data-name="Tracé 19693" d="M112.326,455.756a7.321,7.321,0,0,1-6.506-.007c1.49-1.5.95-.955,2.444-2.46l0,0a2.293,2.293,0,0,0,.277-.355h1.048a2.1,2.1,0,0,0,.282.36Z" transform="translate(-81.998 -409.094)" fill="#bed000"/>
    <path id="Tracé_19694" data-name="Tracé 19694" d="M86.193,273.228v8.065a.672.672,0,0,1-.657.657,2.4,2.4,0,0,1-2.389-2.389,1.438,1.438,0,0,0-2.7-.679,5.786,5.786,0,0,1-5.11,3.068H63.306a1.723,1.723,0,0,1-1.716-1.716V272.5a5.8,5.8,0,0,1,5.794-5.794h10.6c2.313,0,2.69.968,2.919,2.138a3.119,3.119,0,0,0,3.332,2.469A1.912,1.912,0,0,1,86.193,273.228Z" transform="translate(-47.587 -264.213)" fill="#bed000"/>
  </g>
</svg>
