<svg xmlns="http://www.w3.org/2000/svg" xmlns:xlink="http://www.w3.org/1999/xlink" width="285.385" height="904.217" viewBox="0 0 285.385 904.217">
  <defs>
    <linearGradient id="linear-gradient" x1="0.722" y1="0.5" x2="0.063" y2="0.5" gradientUnits="objectBoundingBox">
      <stop offset="0" stop-color="#bed000"/>
      <stop offset="1" stop-color="#62aa42"/>
    </linearGradient>
  </defs>
  <g id="shape_1" data-name="shape 1" transform="translate(-1462.679 -6144.177)">
    <path id="forme_gauche" data-name="forme gauche" d="M0,0S23.718,244.992,222.939,184.231c299.042-91.2,229,103.177,463.969,90.057C905.248,262.094,904.217,0,904.217,0Z" transform="translate(1473.138 7048.394) rotate(-90)" fill="url(#linear-gradient)"/>
    <g id="Groupe_10985" data-name="Groupe 10985" opacity="0.4">
      <path id="forme_gauche-2" data-name="forme gauche" d="M0,0S20.692,213.731,194.492,160.722c260.883-79.567,199.78,90.011,404.766,78.566C789.737,228.65,788.837,0,788.837,0Z" transform="translate(1463.679 6990.703) rotate(-90)" fill="none" stroke="#fff" stroke-width="2"/>
      <path id="forme_gauche-3" data-name="forme gauche" d="M0,0S17.48,180.559,164.306,135.778C384.7,68.56,333.08,211.819,506.251,202.15,667.168,193.163,666.407,0,666.407,0Z" transform="translate(1475.291 6929.488) rotate(-90)" fill="none" stroke="#fff" stroke-width="2"/>
      <path id="forme_gauche-4" data-name="forme gauche" d="M0,0S13.468,139.112,126.59,104.61c169.8-51.788,130.032,58.586,263.451,51.136C514.019,148.823,513.433,0,513.433,0Z" transform="translate(1492.547 6853.002) rotate(-90)" fill="none" stroke="#fff" stroke-width="2"/>
    </g>
  </g>
</svg>
