<svg xmlns="http://www.w3.org/2000/svg" width="82.58" height="82.58" viewBox="0 0 82.58 82.58">
  <g id="webinar" transform="translate(0 0)">
    <path id="Tracé_19683" data-name="Tracé 19683" d="M494.71,249.194A2.652,2.652,0,0,1,497,247.877h2.664v-.01h.229a9.088,9.088,0,0,0,6.431-2.664,9.091,9.091,0,0,0,6.431,2.664h.229v.01h2.664a2.652,2.652,0,0,1,2.286,1.316l.118-.164a8.263,8.263,0,0,0-6.681-13.14H501.273a8.265,8.265,0,0,0-6.682,13.14Zm0,0" transform="translate(-474.353 -235.89)" fill="#bed000"/>
    <rect id="Rectangle_2344" data-name="Rectangle 2344" width="45.286" height="13.319" transform="translate(5.328 53.278)" fill="#bed000"/>
    <path id="Tracé_19684" data-name="Tracé 19684" d="M689,267.882a4,4,0,1,1,4-4,4,4,0,0,1-4,4Zm0,0" transform="translate(-623.731 -254.562)" fill="#bed000"/>
    <rect id="Rectangle_2345" data-name="Rectangle 2345" width="2.664" height="2.664" transform="translate(37.294 53.278)" fill="#333"/>
    <rect id="Rectangle_2346" data-name="Rectangle 2346" width="2.664" height="2.664" transform="translate(31.966 53.278)" fill="#333"/>
    <rect id="Rectangle_2347" data-name="Rectangle 2347" width="2.664" height="2.664" transform="translate(10.656 53.278)" fill="#333"/>
    <rect id="Rectangle_2348" data-name="Rectangle 2348" width="2.664" height="2.664" transform="translate(5.328 53.278)" fill="#333"/>
    <rect id="Rectangle_2349" data-name="Rectangle 2349" width="2.664" height="2.664" transform="translate(42.622 53.278)" fill="#333"/>
    <rect id="Rectangle_2350" data-name="Rectangle 2350" width="2.664" height="2.664" transform="translate(26.639 53.278)" fill="#333"/>
    <rect id="Rectangle_2351" data-name="Rectangle 2351" width="2.664" height="2.664" transform="translate(15.983 53.278)" fill="#333"/>
    <rect id="Rectangle_2352" data-name="Rectangle 2352" width="2.664" height="2.664" transform="translate(47.95 53.278)" fill="#333"/>
    <rect id="Rectangle_2353" data-name="Rectangle 2353" width="2.664" height="2.664" transform="translate(21.311 53.278)" fill="#333"/>
    <rect id="Rectangle_2354" data-name="Rectangle 2354" width="2.664" height="2.664" transform="translate(47.95 58.606)" fill="#333"/>
    <rect id="Rectangle_2355" data-name="Rectangle 2355" width="2.664" height="2.664" transform="translate(31.966 58.606)" fill="#333"/>
    <rect id="Rectangle_2356" data-name="Rectangle 2356" width="2.664" height="2.664" transform="translate(10.656 58.606)" fill="#333"/>
    <rect id="Rectangle_2357" data-name="Rectangle 2357" width="2.664" height="2.664" transform="translate(15.983 58.606)" fill="#333"/>
    <rect id="Rectangle_2358" data-name="Rectangle 2358" width="2.664" height="2.664" transform="translate(5.328 58.606)" fill="#333"/>
    <rect id="Rectangle_2359" data-name="Rectangle 2359" width="2.664" height="2.664" transform="translate(21.311 58.606)" fill="#333"/>
    <rect id="Rectangle_2360" data-name="Rectangle 2360" width="2.664" height="2.664" transform="translate(42.622 58.606)" fill="#333"/>
    <rect id="Rectangle_2361" data-name="Rectangle 2361" width="2.664" height="2.664" transform="translate(37.294 58.606)" fill="#333"/>
    <rect id="Rectangle_2362" data-name="Rectangle 2362" width="2.664" height="2.664" transform="translate(26.639 58.606)" fill="#333"/>
    <rect id="Rectangle_2363" data-name="Rectangle 2363" width="2.664" height="2.664" transform="translate(26.639 63.933)" fill="#333"/>
    <rect id="Rectangle_2364" data-name="Rectangle 2364" width="2.664" height="2.664" transform="translate(21.311 63.933)" fill="#333"/>
    <rect id="Rectangle_2365" data-name="Rectangle 2365" width="2.664" height="2.664" transform="translate(10.656 63.933)" fill="#333"/>
    <rect id="Rectangle_2366" data-name="Rectangle 2366" width="2.664" height="2.664" transform="translate(31.966 63.933)" fill="#333"/>
    <rect id="Rectangle_2367" data-name="Rectangle 2367" width="2.664" height="2.664" transform="translate(5.328 63.933)" fill="#333"/>
    <rect id="Rectangle_2368" data-name="Rectangle 2368" width="2.664" height="2.664" transform="translate(15.983 63.933)" fill="#333"/>
    <rect id="Rectangle_2369" data-name="Rectangle 2369" width="2.664" height="2.664" transform="translate(47.95 63.933)" fill="#333"/>
    <rect id="Rectangle_2370" data-name="Rectangle 2370" width="2.664" height="2.664" transform="translate(42.622 63.933)" fill="#333"/>
    <rect id="Rectangle_2371" data-name="Rectangle 2371" width="2.664" height="2.664" transform="translate(37.294 63.933)" fill="#333"/>
    <path id="Tracé_19685" data-name="Tracé 19685" d="M659.655,475.89H649v13.319h10.655Zm-2.664,2.664v2.664h-5.328v-2.664Zm-5.328,7.992v-2.664h5.328v2.664Zm0,0" transform="translate(-595.723 -422.612)" fill="#333"/>
    <path id="Tracé_19686" data-name="Tracé 19686" d="M487.584,265.193a4,4,0,0,0,4-4V247.877a4,4,0,0,0-4-4h-4.1a9.311,9.311,0,0,0-18.434,0h-1.438a4,4,0,0,0-4,4v1.332H454.04a3.991,3.991,0,0,0-3.751-2.664h-1.332v-.01H447.4a7.714,7.714,0,0,1-5.49-2.274l-.942-.942-.942.942a7.715,7.715,0,0,1-5.49,2.274h-1.56v.01h-1.332a3.991,3.991,0,0,0-3.75,2.664H415.66a6.667,6.667,0,0,0-6.66,6.66v50.614a6.667,6.667,0,0,0,6.66,6.66h58.185a9.316,9.316,0,0,0,17.735-4v-5.328a6.667,6.667,0,0,0-6.66-6.66h-1.332V283.84a1.333,1.333,0,0,1,1.332-1.332h2.664a4,4,0,1,0,0-7.992h-9.324v-9.324Zm-13.319-26.639a6.66,6.66,0,0,1,5.328,10.655l-2,2.664h-2v-2.909a3.739,3.739,0,0,1-2.664,0v2.909h-2l-2-2.666a6.658,6.658,0,0,1,5.328-10.654ZM471.6,254.537h5.328v1.332A1.333,1.333,0,0,1,475.6,257.2h-2.664a1.333,1.333,0,0,1-1.332-1.332Zm-9.324-6.66a1.333,1.333,0,0,1,1.332-1.332h1.441a9.383,9.383,0,0,0,1.755,4.261l2.132,2.842v2.221a4,4,0,0,0,4,4H475.6a4,4,0,0,0,4-4v-2.221l2.132-2.841a9.376,9.376,0,0,0,1.757-4.262h4.1a1.333,1.333,0,0,1,1.332,1.332V261.2a1.333,1.333,0,0,1-1.332,1.332H473.713l-5.166,5.166a.572.572,0,0,1-.943-.389v-4.776h-4a1.333,1.333,0,0,1-1.332-1.332Zm-2.664,6.66H450.29a3.991,3.991,0,0,0,3.751-2.664h5.573Zm-9.324-5.328a1.332,1.332,0,1,1,0,2.664h-1.332v-2.664Zm-2.419,7.992h11.742v4a4,4,0,0,0,4,4h1.332v2.112a3.2,3.2,0,0,0,5.328,2.405v8.8H459.613v-7.2a9.082,9.082,0,0,0-7.591-8.96l-5.728-.955v-2.266a8.005,8.005,0,0,0,1.577-1.934Zm2.419,13.319v7.992H431.643V270.52h-2.664v7.992h-4v-7.2a6.417,6.417,0,0,1,5.365-6.332l5.921-.987a5.629,5.629,0,0,0,9.4,0l5.922.987a6.421,6.421,0,0,1,5.362,6.334v7.2h-4V270.52Zm-9.324-9.333a7.959,7.959,0,0,0,2.664-.466v1.493a2.979,2.979,0,0,1-5.328,0v-1.493a7.937,7.937,0,0,0,2.664.466Zm-5.328-12.045a10.317,10.317,0,0,0,5.328-2.16,10.317,10.317,0,0,0,5.328,2.16V253.2a5.328,5.328,0,0,1-10.655,0Zm0,9.994V261.4l-5.728.955a9.081,9.081,0,0,0-7.592,8.96v7.195h-5.328V257.2h17.07a8.048,8.048,0,0,0,1.577,1.936Zm-4-9.927h1.332v2.664h-1.332a1.332,1.332,0,0,1,0-2.664Zm49.282,50.614h2.664v1.332a1.332,1.332,0,0,1-2.664,0Zm-5.328-1.3a6.632,6.632,0,0,0-2.664,5.293v1.332H411.664V286.5H475.6ZM415.66,310.478a3.991,3.991,0,0,1-3.751-2.664h61.024v1.332a9.4,9.4,0,0,0,.107,1.332Zm66.6,5.328a6.672,6.672,0,0,1-6.525-5.328h13.051a6.672,6.672,0,0,1-6.525,5.328Zm6.66-11.987v4H475.6v-4a3.991,3.991,0,0,1,2.664-3.751v1.087a4,4,0,1,0,7.992,0v-1.087a3.991,3.991,0,0,1,2.664,3.751Zm-1.332-26.639a1.332,1.332,0,1,1,0,2.664H484.92a4,4,0,0,0-4,4v13.319h-1.332a6.688,6.688,0,0,0-1.332.134V277.18ZM475.6,283.84H411.664V255.869a4,4,0,0,1,4-4h12.233a3.991,3.991,0,0,0,3.75,2.664H416.992a2.667,2.667,0,0,0-2.664,2.664v21.311a2.667,2.667,0,0,0,2.664,2.664h53.277a2.667,2.667,0,0,0,2.664-2.664V267.076l1.883-1.883h.78Zm0,0" transform="translate(-409 -235.89)" fill="#333"/>
  </g>
</svg>
