<svg xmlns="http://www.w3.org/2000/svg" xmlns:xlink="http://www.w3.org/1999/xlink" width="105" height="105" viewBox="0 0 105 105">
  <defs>
    <clipPath id="clip-agenda">
      <rect width="105" height="105"/>
    </clipPath>
  </defs>
  <g id="agenda" clip-path="url(#clip-agenda)">
    <g id="Groupe_19569" data-name="Groupe 19569" transform="translate(-801.432 -221.316)">
      <rect id="Rectangle_2559" data-name="Rectangle 2559" width="60.679" height="12.371" transform="translate(823.592 248.489)" fill="#f59a00"/>
      <rect id="Rectangle_2560" data-name="Rectangle 2560" width="3.924" height="10.025" transform="translate(851.97 243.476)" fill="#fff"/>
      <rect id="Rectangle_2561" data-name="Rectangle 2561" width="3.924" height="10.025" transform="translate(867.631 243.476)" fill="#fff"/>
      <rect id="Rectangle_2562" data-name="Rectangle 2562" width="3.924" height="10.025" transform="translate(836.307 243.476)" fill="#fff"/>
      <path id="Tracé_20577" data-name="Tracé 20577" d="M952.421,384.485a3.3,3.3,0,1,1-3.3-3.3,3.3,3.3,0,0,1,3.3,3.3Zm0,0" transform="translate(-101.555 -114.325)" fill="#f59a00"/>
      <path id="Tracé_20578" data-name="Tracé 20578" d="M1025.1,384.485a3.3,3.3,0,1,1-3.3-3.3,3.3,3.3,0,0,1,3.3,3.3Zm0,0" transform="translate(-161.491 -114.325)" fill="#f59a00"/>
      <path id="Tracé_20580" data-name="Tracé 20580" d="M879.741,454.923a3.3,3.3,0,1,1-3.3-3.3,3.3,3.3,0,0,1,3.3,3.3Zm0,0" transform="translate(-41.616 -172.415)" fill="#f59a00"/>
      <path id="Tracé_20582" data-name="Tracé 20582" d="M1025.1,454.923a3.3,3.3,0,1,1-3.3-3.3,3.3,3.3,0,0,1,3.3,3.3Zm0,0" transform="translate(-161.491 -172.415)" fill="#f59a00"/>
      <path id="Tracé_20583" data-name="Tracé 20583" d="M1097.776,454.923a3.3,3.3,0,1,1-3.3-3.3,3.3,3.3,0,0,1,3.3,3.3Zm0,0" transform="translate(-221.431 -172.415)" fill="#f59a00"/>
      <path id="Tracé_20585" data-name="Tracé 20585" d="M952.421,525.368a3.3,3.3,0,1,1-3.3-3.3,3.3,3.3,0,0,1,3.3,3.3Zm0,0" transform="translate(-101.555 -230.513)" fill="#f59a00"/>
      <path id="Tracé_20588" data-name="Tracé 20588" d="M823.592,516.739a.92.92,0,0,0,.92-.92v-2.366a.92.92,0,1,0-1.84,0v2.366a.919.919,0,0,0,.92.92Zm0,0" transform="translate(0 -222.651)" fill="#333"/>
      <path id="Tracé_20589" data-name="Tracé 20589" d="M884.27,253.138a.92.92,0,0,0,.92-.92v-3.729a.919.919,0,0,0-.92-.92H872.476v-4.092a.92.92,0,0,0-.92-.92h-3.924a.919.919,0,0,0-.92.92v4.092h-9.9v-4.092a.919.919,0,0,0-.92-.92H851.97a.919.919,0,0,0-.92.92v4.092h-9.9v-4.092a.92.92,0,0,0-.92-.92h-3.926a.92.92,0,0,0-.92.92v4.092H823.592a.919.919,0,0,0-.92.92V286.25a.92.92,0,1,0,1.84,0V261.78H883.35v41.454H824.513V297.5a.92.92,0,1,0-1.84,0v6.655a.919.919,0,0,0,.92.92H884.27a.919.919,0,0,0,.92-.92v-47.9a.92.92,0,0,0-1.841,0v3.685H824.513V249.409h10.874V253.5a.92.92,0,0,0,.92.92h3.924a.919.919,0,0,0,.92-.92v-4.091h9.9V253.5a.919.919,0,0,0,.92.92h3.923a.919.919,0,0,0,.92-.92v-4.091h9.9V253.5a.92.92,0,0,0,.92.92h3.924a.92.92,0,0,0,.92-.92v-4.091H883.35v2.809a.92.92,0,0,0,.921.92Zm-44.958-.558h-2.085V244.4h2.085Zm15.662,0H852.89V244.4h2.083Zm15.662,0H868.55V244.4h2.084Zm0,0" transform="translate(0 0)" fill="#333"/>
      <path id="Tracé_20590" data-name="Tracé 20590" d="M872.107,384.376a4.224,4.224,0,1,0-4.224-4.224,4.223,4.223,0,0,0,4.224,4.224Zm0-6.608a2.383,2.383,0,1,1-2.383,2.384,2.383,2.383,0,0,1,2.383-2.384Zm0,0" transform="translate(-37.286 -109.993)" fill="#333"/>
      <path id="Tracé_20591" data-name="Tracé 20591" d="M944.786,384.376a4.224,4.224,0,1,0-4.224-4.224,4.225,4.225,0,0,0,4.224,4.224Zm0-6.608a2.383,2.383,0,1,1-2.384,2.384,2.385,2.385,0,0,1,2.384-2.384Zm0,0" transform="translate(-97.225 -109.993)" fill="#333"/>
      <path id="Tracé_20592" data-name="Tracé 20592" d="M1017.463,384.376a4.224,4.224,0,1,0-4.225-4.224,4.225,4.225,0,0,0,4.225,4.224Zm0-6.608a2.383,2.383,0,1,1-2.384,2.384,2.383,2.383,0,0,1,2.384-2.384Zm0,0" transform="translate(-157.161 -109.993)" fill="#333"/>
      <path id="Tracé_20593" data-name="Tracé 20593" d="M1090.146,384.376a4.224,4.224,0,1,0-4.224-4.224,4.224,4.224,0,0,0,4.224,4.224Zm0-6.608a2.384,2.384,0,1,1-2.384,2.384,2.383,2.383,0,0,1,2.384-2.384Zm0,0" transform="translate(-217.105 -109.993)" fill="#333"/>
      <path id="Tracé_20594" data-name="Tracé 20594" d="M872.107,454.815a4.225,4.225,0,1,0-4.224-4.225,4.225,4.225,0,0,0,4.224,4.225Zm0-6.606a2.384,2.384,0,1,1-2.383,2.384,2.384,2.384,0,0,1,2.383-2.384Zm0,0" transform="translate(-37.286 -168.083)" fill="#333"/>
      <path id="Tracé_20595" data-name="Tracé 20595" d="M944.786,454.815a4.225,4.225,0,1,0-4.224-4.225,4.225,4.225,0,0,0,4.224,4.225Zm0-6.609a2.384,2.384,0,1,1-2.384,2.384,2.385,2.385,0,0,1,2.384-2.384Zm0,0" transform="translate(-97.225 -168.083)" fill="#333"/>
      <path id="Tracé_20596" data-name="Tracé 20596" d="M1017.463,454.815a4.225,4.225,0,1,0-4.225-4.225,4.225,4.225,0,0,0,4.225,4.225Zm0-6.609a2.384,2.384,0,1,1-2.384,2.384,2.384,2.384,0,0,1,2.384-2.384Zm0,0" transform="translate(-157.161 -168.083)" fill="#333"/>
      <path id="Tracé_20597" data-name="Tracé 20597" d="M1090.146,454.815a4.225,4.225,0,1,0-4.224-4.225,4.225,4.225,0,0,0,4.224,4.225Zm0-6.609a2.384,2.384,0,1,1-2.384,2.384,2.385,2.385,0,0,1,2.384-2.384Zm0,0" transform="translate(-217.105 -168.083)" fill="#333"/>
      <path id="Tracé_20598" data-name="Tracé 20598" d="M872.107,525.259a4.224,4.224,0,1,0-4.224-4.224,4.223,4.223,0,0,0,4.224,4.224Zm0-6.608a2.383,2.383,0,1,1-2.383,2.384,2.383,2.383,0,0,1,2.383-2.384Zm0,0" transform="translate(-37.286 -226.18)" fill="#333"/>
      <path id="Tracé_20599" data-name="Tracé 20599" d="M944.786,525.259a4.224,4.224,0,1,0-4.224-4.224,4.225,4.225,0,0,0,4.224,4.224Zm0-6.608a2.383,2.383,0,1,1-2.384,2.384,2.385,2.385,0,0,1,2.384-2.384Zm0,0" transform="translate(-97.225 -226.18)" fill="#333"/>
      <path id="Tracé_20600" data-name="Tracé 20600" d="M1017.463,525.259a4.224,4.224,0,1,0-4.225-4.224,4.225,4.225,0,0,0,4.225,4.224Zm0-6.608a2.383,2.383,0,1,1-2.384,2.384,2.383,2.383,0,0,1,2.384-2.384Zm0,0" transform="translate(-157.161 -226.18)" fill="#333"/>
      <path id="Tracé_20601" data-name="Tracé 20601" d="M1090.146,525.259a4.224,4.224,0,1,0-4.224-4.224,4.224,4.224,0,0,0,4.224,4.224Zm0-6.608a2.384,2.384,0,1,1-2.384,2.384,2.383,2.383,0,0,1,2.384-2.384Zm0,0" transform="translate(-217.105 -226.18)" fill="#333"/>
    </g>
  </g>
</svg>
