<svg xmlns="http://www.w3.org/2000/svg" xmlns:xlink="http://www.w3.org/1999/xlink" width="105" height="105" viewBox="0 0 105 105">
  <defs>
    <clipPath id="clip-deepflow">
      <rect width="105" height="105"/>
    </clipPath>
  </defs>
  <g id="deepflow" clip-path="url(#clip-deepflow)">
    <g id="Groupe_19563" data-name="Groupe 19563" transform="translate(-154.76 -365.129)">
      <path id="Tracé_16500" data-name="Tracé 16500" d="M235.217,423.617a97.951,97.951,0,0,0-11.32-1.674q-.814-.107-1.638-.208h0l-.134-.015q-.561-.069-1.125-.132l-.242-.026c-.32-.035-.641-.07-.962-.1h0l-6.285-.7,9.875-.844-.03-.018a12.131,12.131,0,0,0,6.332-1.933c2.289-1.64,2.816-4.211,3.193-6.841.9-6.265-1.581-13.138-4.336-18.662-2.061-4.133-5.276-10.025-10.172-11.158-6.119-1.386-8.095,6.084-9.21,10.546a97.946,97.946,0,0,0-1.674,11.32q-.107.814-.208,1.638h0l-.015.134q-.069.561-.132,1.125c-.009.081-.017.161-.026.242-.035.32-.07.641-.1.962h0l-.589,5.267-.4-4.673c-.029-.416-.065-.83-.106-1.245l-.006-.067h0c-.172-1.725-.432-3.451-.67-5.231a39.778,39.778,0,0,0-2.448-10.4,18.768,18.768,0,0,0-2.461-4.589c-4.391-5.686-11.505-2.517-16.2,1.121-6.6,5.11-14.447,16.012-8.1,24.272a17.109,17.109,0,0,0,4.733,3.957,34.261,34.261,0,0,0,10.708,3.933c.727.157,1.458.318,2.192.471v0a41.247,41.247,0,0,0,4.21.581l-4.464.38c-.416.029-.83.065-1.245.106l-.067.006h0c-1.725.172-3.451.432-5.231.669a39.786,39.786,0,0,0-10.4,2.448,18.766,18.766,0,0,0-4.589,2.461c-5.686,4.391-2.517,11.505,1.121,16.2,5.11,6.6,16.012,14.447,24.272,8.1a17.114,17.114,0,0,0,3.957-4.733,34.259,34.259,0,0,0,3.933-10.708c.157-.727.318-1.458.471-2.192h0a47.171,47.171,0,0,0,.686-5.336l.836,9.774.018-.03a12.127,12.127,0,0,0,1.933,6.332c1.64,2.289,4.211,2.816,6.841,3.193,6.265.9,13.138-1.581,18.662-4.336,4.133-2.061,10.025-5.277,11.158-10.172C247.148,426.708,239.679,424.732,235.217,423.617Zm-27.924-5.135c0,.013,0,.026,0,.039l1.115-9.962v.008c.163-1.91.35-3.83.577-5.747q.127-1.074.273-2.145c.024-.179.048-.357.073-.536q.073-.521.15-1.042.109-.721.228-1.44.053-.325.11-.65.147-.848.308-1.691c.023-.12.048-.24.072-.36.125-.631.254-1.261.394-1.887.736-3.286,1.636-7.9,4.719-9.79,1.693-1.09,3.451-.218,4.9.845,3.059,2.27,5.463,6.191,7.1,9.557,2.271,4.724,4.317,10.282,4.212,15.6-.051,2.577-.7,5.507-2.777,7.179-1.377,1.137-3.179,1.387-4.867,1.728-.8.175-1.611.317-2.433.446v0l-.029,0-.2.034-7.728.658-.08,0-2.571.223h0l-3.7.315Zm-30.113-8.295c-5.635-7.853,2.888-17.634,9.086-22.055,2.358-1.682,6.425-4.352,9.484-3.185,3.353,1.288,5.1,5.233,6.11,8.414a73.232,73.232,0,0,1,2.615,13.188l1.13,13.222-.011.1-11.76-1.316C187.643,417.322,180.8,415.231,177.18,410.187Zm26.92,23.039c-1.232,6.191-3.323,13.035-8.367,16.654-7.854,5.635-17.634-2.888-22.055-9.086-1.682-2.358-4.352-6.425-3.185-9.484,1.288-3.352,5.233-5.1,8.414-6.11a73.235,73.235,0,0,1,13.188-2.615l13.323-1.139Zm38.837,1.436c-2.27,3.059-6.191,5.463-9.556,7.1-4.725,2.271-10.282,4.317-15.6,4.212-2.577-.051-5.507-.7-7.179-2.777-1.137-1.377-1.387-3.179-1.728-4.867-.175-.8-.318-1.611-.446-2.433h0l0-.029c-.01-.067-.023-.134-.033-.2l-.659-7.728c0-.027,0-.053,0-.08l-.222-2.571v0l-.315-3.7,1.392.149-.039,0,9.962,1.116h-.008c1.91.162,3.83.349,5.747.576q1.074.127,2.145.273l.535.073q.522.073,1.042.151.721.108,1.44.228l.65.11q.848.147,1.691.308l.36.072c.631.125,1.261.254,1.887.394,3.286.736,7.9,1.636,9.79,4.719C244.872,431.461,244,433.218,242.937,434.663Z" transform="translate(0)" fill="#545454"/>
      <path id="Tracé_16501" data-name="Tracé 16501" d="M244.953,437.314A82.629,82.629,0,0,0,235.4,435.9q-.687-.09-1.383-.176h0l-.113-.013q-.474-.058-.949-.112l-.2-.022c-.27-.03-.541-.059-.812-.086h0l-5.3-.593,8.335-.713-.025-.015a10.236,10.236,0,0,0,5.344-1.631c1.932-1.385,2.377-3.554,2.695-5.774.757-5.288-1.335-11.089-3.66-15.752-1.74-3.488-4.454-8.462-8.585-9.418-5.164-1.169-6.832,5.135-7.774,8.9a82.62,82.62,0,0,0-1.413,9.554q-.091.687-.176,1.383h0l-.013.113q-.058.473-.112.949c-.008.068-.014.136-.022.2-.03.27-.059.541-.086.812h0l-.5,4.445-.336-3.944c-.024-.351-.055-.7-.09-1.051l0-.057h0c-.145-1.456-.365-2.913-.565-4.415a33.574,33.574,0,0,0-2.066-8.78,15.832,15.832,0,0,0-2.077-3.873c-3.706-4.8-9.711-2.125-13.675.946-5.567,4.313-12.193,13.514-6.835,20.486a14.443,14.443,0,0,0,4,3.34,28.92,28.92,0,0,0,9.038,3.32c.613.133,1.23.268,1.85.4v0a34.813,34.813,0,0,0,3.553.491l-3.768.321c-.351.024-.7.055-1.051.09l-.057,0h0c-1.456.145-2.913.365-4.415.565a33.579,33.579,0,0,0-8.78,2.066,15.837,15.837,0,0,0-3.873,2.077c-4.8,3.706-2.124,9.711.946,13.675,4.313,5.567,13.514,12.193,20.486,6.835a14.443,14.443,0,0,0,3.34-4,28.919,28.919,0,0,0,3.319-9.038c.133-.613.269-1.23.4-1.85h0a39.672,39.672,0,0,0,.579-4.5l.705,8.25.015-.025a10.237,10.237,0,0,0,1.632,5.344c1.385,1.932,3.554,2.377,5.774,2.695,5.288.757,11.089-1.334,15.752-3.66,3.488-1.74,8.462-4.453,9.417-8.585C255.023,439.923,248.719,438.255,244.953,437.314Zm-23.569-4.334c0,.011,0,.022,0,.033l.942-8.408v.007c.137-1.612.295-3.233.486-4.851q.107-.906.23-1.811c.021-.151.041-.3.062-.452q.062-.44.127-.88.092-.609.192-1.215.045-.274.093-.548.124-.715.26-1.427c.019-.1.04-.2.06-.3.105-.533.215-1.065.333-1.593.621-2.774,1.381-6.664,3.983-8.263,1.429-.919,2.912-.184,4.131.714,2.582,1.916,4.611,5.226,6,8.066,1.917,3.988,3.644,8.678,3.556,13.169-.043,2.175-.592,4.648-2.344,6.06a8.914,8.914,0,0,1-4.108,1.458c-.672.148-1.36.268-2.053.377v0l-.025,0-.17.028-6.523.556h-.067l-2.171.188h0l-3.121.266Zm-25.416-7c-4.756-6.629,2.437-14.883,7.669-18.615,1.991-1.42,5.423-3.674,8.005-2.689,2.83,1.087,4.3,4.417,5.157,7.1a61.8,61.8,0,0,1,2.207,11.131l.954,11.16-.009.084-9.926-1.11C204.8,432,199.022,430.236,195.968,425.979Zm22.721,19.446c-1.04,5.225-2.805,11-7.062,14.056-6.629,4.756-14.883-2.437-18.615-7.669-1.42-1.99-3.673-5.423-2.689-8,1.087-2.83,4.417-4.3,7.1-5.157a61.813,61.813,0,0,1,11.131-2.207l11.245-.961Zm32.78,1.212c-1.916,2.582-5.225,4.611-8.066,5.995-3.988,1.917-8.679,3.644-13.169,3.556-2.175-.043-4.648-.592-6.06-2.344a8.918,8.918,0,0,1-1.459-4.107c-.147-.672-.268-1.36-.376-2.053h0l0-.025c-.009-.057-.019-.113-.028-.17l-.556-6.523c0-.022,0-.045,0-.067l-.188-2.17v0l-.266-3.121,1.175.126-.033,0,8.408.942h-.007c1.612.137,3.232.3,4.851.487q.906.107,1.81.23l.452.062c.293.041.587.083.88.127q.608.092,1.215.192l.548.092q.715.124,1.427.26l.3.06c.533.105,1.065.215,1.593.333,2.774.621,6.664,1.381,8.263,3.983C253.1,443.934,252.367,445.418,251.469,446.637Z" transform="translate(-14.083 -14.239)" fill="#888787"/>
      <path id="Tracé_16502" data-name="Tracé 16502" d="M252.746,450.367a68.509,68.509,0,0,0-7.92-1.171q-.569-.075-1.146-.146h0l-.093-.01q-.393-.048-.787-.093l-.169-.018c-.224-.025-.448-.049-.673-.071h0l-4.4-.492,6.909-.591-.021-.012a8.485,8.485,0,0,0,4.43-1.353c1.6-1.148,1.97-2.946,2.234-4.786.628-4.383-1.106-9.192-3.034-13.057-1.442-2.892-3.692-7.014-7.116-7.807-4.281-.969-5.663,4.256-6.444,7.379a68.424,68.424,0,0,0-1.171,7.92q-.075.569-.146,1.146h0l-.01.093q-.048.393-.093.787c-.006.056-.012.113-.018.169-.025.224-.049.448-.071.673h0l-.412,3.685-.279-3.27c-.02-.291-.045-.581-.074-.871l0-.047h0c-.12-1.207-.3-2.415-.469-3.66a27.84,27.84,0,0,0-1.712-7.278,13.132,13.132,0,0,0-1.722-3.21c-3.072-3.978-8.049-1.761-11.335.784-4.615,3.575-10.107,11.2-5.666,16.981a11.974,11.974,0,0,0,3.312,2.768,23.971,23.971,0,0,0,7.491,2.752c.508.11,1.02.222,1.534.329v0a28.847,28.847,0,0,0,2.945.407l-3.123.266c-.291.02-.581.046-.871.074l-.047,0h0c-1.207.12-2.415.3-3.66.469a27.821,27.821,0,0,0-7.277,1.712,13.123,13.123,0,0,0-3.211,1.721c-3.978,3.072-1.761,8.049.784,11.335,3.575,4.615,11.2,10.107,16.981,5.666a11.969,11.969,0,0,0,2.768-3.312,23.974,23.974,0,0,0,2.752-7.491c.11-.508.222-1.02.329-1.534h0a32.972,32.972,0,0,0,.48-3.733l.585,6.838.012-.021a8.486,8.486,0,0,0,1.352,4.43c1.148,1.6,2.946,1.97,4.787,2.234,4.383.628,9.192-1.106,13.056-3.034,2.892-1.442,7.014-3.691,7.807-7.116C261.093,452.53,255.868,451.147,252.746,450.367Zm-19.537-3.592c0,.009,0,.018,0,.027l.781-6.97v.005c.113-1.336.245-2.679.4-4.021q.089-.751.191-1.5c.017-.125.034-.25.051-.375q.051-.365.105-.729.076-.5.159-1.007.038-.228.077-.455c.068-.4.139-.79.215-1.183.016-.084.033-.168.05-.252.087-.442.178-.882.276-1.32.514-2.3,1.144-5.524,3.3-6.849,1.184-.762,2.414-.153,3.424.592a18.673,18.673,0,0,1,4.969,6.686c1.589,3.306,3.021,7.194,2.947,10.916-.036,1.8-.491,3.853-1.943,5.023a7.391,7.391,0,0,1-3.4,1.209c-.557.122-1.127.222-1.7.312v0l-.02,0-.141.023-5.407.461h-.056l-1.8.156h0l-2.587.22Zm-21.067-5.8c-3.942-5.494,2.02-12.337,6.357-15.43,1.65-1.177,4.495-3.045,6.635-2.229,2.346.9,3.567,3.662,4.275,5.887a51.226,51.226,0,0,1,1.829,9.226l.791,9.25-.008.069-8.228-.92C219.462,445.963,214.673,444.5,212.142,440.971Zm18.834,16.119c-.862,4.331-2.325,9.12-5.854,11.651-5.494,3.942-12.337-2.02-15.43-6.357-1.177-1.65-3.045-4.495-2.229-6.635.9-2.346,3.662-3.567,5.887-4.275a51.227,51.227,0,0,1,9.226-1.829l9.321-.8Zm27.171,1a18.677,18.677,0,0,1-6.686,4.969c-3.306,1.589-7.194,3.02-10.916,2.947-1.8-.036-3.853-.491-5.023-1.943a7.393,7.393,0,0,1-1.209-3.4c-.122-.557-.222-1.127-.312-1.7h0l0-.021c-.007-.047-.016-.094-.023-.141l-.461-5.407c0-.019,0-.037,0-.056l-.156-1.8v0l-.22-2.587.973.1-.027,0,6.97.781h-.005c1.336.113,2.679.245,4.021.4q.751.088,1.5.191l.375.051q.365.051.729.105.5.076,1.007.159l.455.077c.4.068.79.139,1.183.215l.252.05c.442.087.882.178,1.32.276,2.3.515,5.524,1.145,6.85,3.3C259.5,455.855,258.892,457.084,258.147,458.1Z" transform="translate(-26.266 -27.683)" fill="#95b602"/>
    </g>
  </g>
</svg>
