<svg xmlns="http://www.w3.org/2000/svg" xmlns:xlink="http://www.w3.org/1999/xlink" width="105" height="105" viewBox="0 0 105 105">
  <defs>
    <clipPath id="clip-demandes">
      <rect width="105" height="105"/>
    </clipPath>
  </defs>
  <g id="demandes" clip-path="url(#clip-demandes)">
    <g id="Groupe_19566" data-name="Groupe 19566" transform="translate(-357.604 -202.111)">
      <path id="Tracé_20544" data-name="Tracé 20544" d="M449.017,470.894v4.164a4.561,4.561,0,0,1-4.561,4.561h-56.9a4.561,4.561,0,0,1-4.562-4.561v-4.164Zm0,0" transform="translate(-5.901 -208.451)" fill="#f59a00"/>
      <path id="Tracé_20545" data-name="Tracé 20545" d="M635.192,265.767a7.793,7.793,0,0,1-7.719-7.8c0-.031,0-.062,0-.094a7.8,7.8,0,1,1,7.8,7.891c-.027,0-.052,0-.078,0Zm0,0" transform="translate(-212.223 -22.181)" fill="#f59a00"/>
      <path id="Tracé_20548" data-name="Tracé 20548" d="M438.555,223.89h-56.9A5.659,5.659,0,0,0,376,229.543v37.064a5.659,5.659,0,0,0,5.653,5.653h18.634v10.89h-4.2a1.092,1.092,0,0,0,0,2.183h28.856a1.092,1.092,0,1,0,0-2.183h-5.021V272.26h18.634a5.66,5.66,0,0,0,5.653-5.653V229.543a5.659,5.659,0,0,0-5.653-5.653Zm-56.9,2.183h56.9a3.473,3.473,0,0,1,3.47,3.47v31.808H378.183V229.543a3.474,3.474,0,0,1,3.47-3.47Zm36.084,57.076H402.47V272.26h15.267Zm20.817-13.073h-56.9a3.474,3.474,0,0,1-3.47-3.47v-3.072h63.841v3.072a3.473,3.473,0,0,1-3.47,3.47Zm0,0" fill="#333"/>
      <path id="Tracé_20549" data-name="Tracé 20549" d="M506.114,270.906a1.049,1.049,0,0,0,.091.08,3.948,3.948,0,0,0,2.821,1.187h20.014a3.951,3.951,0,0,0,3.95-3.952v-7.333a8.889,8.889,0,1,0-8.014-14.308,8.793,8.793,0,0,0-1.81,4.294H509.025a3.927,3.927,0,0,0-3.914,3.412,1.075,1.075,0,0,0-.032.362c0,.058,0,.116,0,.178v13.4a3.938,3.938,0,0,0,.877,2.474,1.085,1.085,0,0,0,.163.21Zm2.911-.916a1.756,1.756,0,0,1-.421-.053l5.465-5.591a1.091,1.091,0,0,0-1.561-1.525l-5.25,5.37V256.917l9.41,7.969a3.652,3.652,0,0,0,4.737,0l6.076-5.152a8.78,8.78,0,0,0,3.325,1.142v7.33l-5.29-5.385a1.092,1.092,0,1,0-1.558,1.53l5.494,5.59a1.739,1.739,0,0,1-.414.051ZM525.27,252.02c0-.013,0-.027,0-.041a6.705,6.705,0,1,1,6.7,6.786h-.016l-.052,0a6.64,6.64,0,0,1-3.879-1.282h0a6.7,6.7,0,0,1-2.757-5.42Zm-16.245,1.038h14.119a8.853,8.853,0,0,0,2.369,5.108c.065.068.133.135.2.2l-5.721,4.849a1.475,1.475,0,0,1-1.914,0l-10.691-9.051a1.782,1.782,0,0,1,1.638-1.108Zm0,0" transform="translate(-108.928 -16.27)" fill="#333"/>
      <path id="Tracé_20550" data-name="Tracé 20550" d="M649.913,285.978a1.092,1.092,0,0,0,1.519.138l5-4.068a1.092,1.092,0,1,0-1.378-1.694l-4.175,3.4-1.455-1.7a1.092,1.092,0,1,0-1.661,1.417Zm0,0" transform="translate(-229.123 -47.444)" fill="#333"/>
    </g>
  </g>
</svg>
