<svg xmlns="http://www.w3.org/2000/svg" xmlns:xlink="http://www.w3.org/1999/xlink" width="105" height="105" viewBox="0 0 105 105">
  <defs>
    <clipPath id="clip-docs_juridiques">
      <rect width="105" height="105"/>
    </clipPath>
  </defs>
  <g id="docs_juridiques" data-name="docs juridiques" clip-path="url(#clip-docs_juridiques)">
    <g id="Groupe_19571" data-name="Groupe 19571" transform="translate(5.531 16)">
      <path id="Tracé_20608" data-name="Tracé 20608" d="M61.143,437.969H23.784a4.9,4.9,0,0,0-4.9,4.9v3.806a.842.842,0,0,0,.842.842H65.2a.842.842,0,0,0,.842-.842v-3.806A4.9,4.9,0,0,0,61.143,437.969Z" transform="translate(-6.35 -375.19)" fill="#f59a00"/>
      <path id="Tracé_20610" data-name="Tracé 20610" d="M45.593,194.041l-2.542,2.542a2.179,2.179,0,0,1-3.082,0L25.617,182.23a2.179,2.179,0,0,1,0-3.082l2.542-2.542a2.179,2.179,0,0,1,3.082,0l14.353,14.353A2.179,2.179,0,0,1,45.593,194.041Z" transform="translate(-11.573 -150.745)" fill="#f59a00"/>
      <path id="Tracé_20611" data-name="Tracé 20611" d="M214.157,25.477l-2.542,2.542a2.179,2.179,0,0,1-3.082,0L194.181,13.666a2.179,2.179,0,0,1,0-3.082l2.542-2.542a2.179,2.179,0,0,1,3.082,0L214.157,22.4A2.179,2.179,0,0,1,214.157,25.477Z" transform="translate(-155.975 -6.343)" fill="#f59a00"/>
      <path id="Tracé_20613" data-name="Tracé 20613" d="M85.911,60.121l-17-17a3.01,3.01,0,0,0-3.451-.578L53.036,30.119l2.245-2.245a2.977,2.977,0,0,0,.169-4.019l1.5-1.5.076.076a3.246,3.246,0,0,0,4.585,0l2.542-2.542a3.246,3.246,0,0,0,0-4.585L56.178,7.323a1.063,1.063,0,0,0-1.5,1.5L62.653,16.8a1.118,1.118,0,0,1,0,1.579l-2.542,2.542a1.118,1.118,0,0,1-1.579,0L57.7,20.1h0l-6.349-6.349L44.18,6.572a1.118,1.118,0,0,1,0-1.579l2.542-2.542a1.118,1.118,0,0,1,1.579,0l1.691,1.691a1.063,1.063,0,0,0,1.5-1.5L49.8.948a3.246,3.246,0,0,0-4.585,0L42.677,3.49a3.246,3.246,0,0,0,0,4.585l.076.076-1.5,1.5a2.971,2.971,0,0,0-4.02.17l-9.842,9.842a2.977,2.977,0,0,0-.169,4.019l-1.5,1.5-.076-.076a3.246,3.246,0,0,0-4.585,0l-2.541,2.542a3.242,3.242,0,0,0,0,4.585L32.867,46.589a3.246,3.246,0,0,0,4.585,0l2.542-2.542a3.246,3.246,0,0,0,0-4.585l-.076-.076,1.5-1.5a2.974,2.974,0,0,0,4.019-.169l2.245-2.245L60.113,47.9a3.019,3.019,0,0,0,.578,3.45l17,17a3.02,3.02,0,0,0,4.266,0l3.958-3.958a3.017,3.017,0,0,0,0-4.266ZM44.256,9.654,55.45,20.848l-1.494,1.493L42.762,11.147ZM38.491,42.545l-2.542,2.542a1.118,1.118,0,0,1-1.579,0L20.017,30.734a1.117,1.117,0,0,1,0-1.579l2.541-2.542a1.118,1.118,0,0,1,1.579,0L38.491,40.966A1.118,1.118,0,0,1,38.491,42.545Zm-.076-4.661-5.6-5.6-5.6-5.6L28.714,25.2,39.908,36.391Zm5.522-1.672a.85.85,0,0,1-1.2,0l-.572-.572h0l-12.7-12.7h0l-.573-.573a.85.85,0,0,1,0-1.2l9.842-9.842a.849.849,0,0,1,1.2,0l.573.573h0l12.7,12.7h0l.573.573a.85.85,0,0,1,0,1.2Zm5.251-2.246,1.173-1.173,1.173-1.173L63.842,43.93,61.5,46.275Zm35.22,28.917L80.45,66.842a.892.892,0,0,1-1.26,0l-17-17a.892.892,0,0,1,0-1.26l1.979-1.979L66.1,44.681h0l.055-.055a.891.891,0,0,1,1.26,0l17,17A.892.892,0,0,1,84.408,62.884Z" transform="translate(-5.222 0)" fill="#333"/>
      <path id="Tracé_20614" data-name="Tracé 20614" d="M54.792,430.556H26.708a1.063,1.063,0,1,0,0,2.125H54.792a3.844,3.844,0,0,1,3.839,3.839V440.1H13.594v-3.584a3.844,3.844,0,0,1,3.839-3.839H20.1a1.063,1.063,0,1,0,0-2.125H17.434a5.971,5.971,0,0,0-5.965,5.965v3.806a1.906,1.906,0,0,0,1.9,1.9h45.48a1.906,1.906,0,0,0,1.9-1.9v-3.806A5.971,5.971,0,0,0,54.792,430.556Z" transform="translate(0 -368.839)" fill="#333"/>
    </g>
  </g>
</svg>
