<svg xmlns="http://www.w3.org/2000/svg" xmlns:xlink="http://www.w3.org/1999/xlink" width="105" height="105" viewBox="0 0 105 105">
  <defs>
    <clipPath id="clip-espace_personnel">
      <rect width="105" height="105"/>
    </clipPath>
  </defs>
  <g id="espace_personnel" data-name="espace personnel" clip-path="url(#clip-espace_personnel)">
    <g id="Groupe_19565" data-name="Groupe 19565" transform="translate(-1280.879 -659.386)">
      <path id="Tracé_20536" data-name="Tracé 20536" d="M1385.4,807.469V794.413h-30.469v30.469h49.892V814.1h-12.787A6.636,6.636,0,0,1,1385.4,807.469Z" transform="translate(-46.578 -93.093)" fill="#f59a00"/>
      <g id="Groupe_13927" data-name="Groupe 13927" transform="translate(1297.879 680.386)">
        <path id="Tracé_20537" data-name="Tracé 20537" d="M1367.338,805.2h-3.907V792.075a1.037,1.037,0,0,0-2.074,0V805.2h-46.608a1.037,1.037,0,1,0,0,2.075H1366.3v1.553a2.593,2.593,0,0,1-2.589,2.589h-61.168a2.593,2.593,0,0,1-2.59-2.589v-1.553h10.373a1.037,1.037,0,0,0,0-2.075H1304.9V769.49a1.258,1.258,0,0,1,1.256-1.256h4.541a1.037,1.037,0,1,0,0-2.075h-4.541a3.335,3.335,0,0,0-3.331,3.331V805.2h-3.906a1.038,1.038,0,0,0-1.038,1.038v2.59a4.67,4.67,0,0,0,4.664,4.664h61.168a4.67,4.67,0,0,0,4.664-4.664v-2.59a1.038,1.038,0,0,0-1.038-1.038Zm0,0" transform="translate(-1297.879 -750.412)" fill="#333"/>
        <path id="Tracé_20538" data-name="Tracé 20538" d="M1387.155,768.234h22.669a1.037,1.037,0,1,0,0-2.075h-22.669a1.037,1.037,0,1,0,0,2.075Zm0,0" transform="translate(-1369.918 -750.412)"/>
        <path id="Tracé_20539" data-name="Tracé 20539" d="M1378.226,790.836a1.038,1.038,0,0,0,0-2.075h-29.774a1.038,1.038,0,0,0-1.038,1.038v30.739a1.038,1.038,0,0,0,1.038,1.038h50.234a1.037,1.037,0,0,0,1.037-1.038v-10.01a1.037,1.037,0,0,0-2.075,0V819.5h-48.159V790.836Zm0,0" transform="translate(-1338.32 -768.865)" fill="#333"/>
        <path id="Tracé_20540" data-name="Tracé 20540" d="M1558.641,708.021a1.037,1.037,0,0,0,1.037-1.037V696.272a2.989,2.989,0,0,0-2.985-2.985h-.7v-2.849a10.051,10.051,0,1,0-20.1,0v2.849h-.7a2.989,2.989,0,0,0-2.987,2.985V713.76a5.183,5.183,0,0,0,5.177,5.177H1554.5a5.183,5.183,0,0,0,5.177-5.177V711.4a1.037,1.037,0,0,0-2.074,0v2.355a3.105,3.105,0,0,1-3.1,3.1h-17.125a3.106,3.106,0,0,1-3.1-3.1V696.272a.912.912,0,0,1,.912-.911h21.507a.912.912,0,0,1,.911.911v10.712A1.037,1.037,0,0,0,1558.641,708.021Zm-9.427-14.734h-6.549v-2.849a3.274,3.274,0,0,1,6.549,0Zm4.7,0h-2.627v-2.849a5.349,5.349,0,0,0-10.7,0v2.849h-2.629v-2.849a7.977,7.977,0,1,1,15.953,0Z" transform="translate(-1489.181 -680.386)" fill="#333"/>
        <path id="Tracé_20541" data-name="Tracé 20541" d="M1579.543,699.663v2.849h-2.627v-2.849a5.349,5.349,0,0,0-10.7,0v2.849h-2.629v-2.849a7.977,7.977,0,1,1,15.953,0Z" transform="translate(-1514.809 -689.612)" fill="#f59a00"/>
        <path id="Tracé_20542" data-name="Tracé 20542" d="M1591.407,787.451a4.205,4.205,0,1,0-6.126,0l-.639,2.069a2.179,2.179,0,0,0,2.084,2.822h3.237a2.179,2.179,0,0,0,2.082-2.822Zm-2.031.457.685,2.223a.094.094,0,0,1-.015.094.1.1,0,0,1-.084.042h-3.237a.1.1,0,0,1-.084-.042.1.1,0,0,1-.017-.094l.687-2.223a1.816,1.816,0,0,0-.466-1.825,2.111,2.111,0,0,1-.63-1.511,2.133,2.133,0,0,1,.709-1.588,2.1,2.1,0,0,1,1.419-.542c.081,0,.163.005.246.013a2.13,2.13,0,0,1,1.254,3.628A1.812,1.812,0,0,0,1589.377,787.908Z" transform="translate(-1531.586 -762.014)"/>
        <path id="Tracé_20543" data-name="Tracé 20543" d="M1599.3,799.355a.094.094,0,0,1-.015.094.1.1,0,0,1-.085.042h-3.237a.1.1,0,0,1-.084-.042.1.1,0,0,1-.017-.094l.687-2.223a1.816,1.816,0,0,0-.466-1.825,2.111,2.111,0,0,1-.63-1.511,2.133,2.133,0,0,1,.709-1.588,2.1,2.1,0,0,1,1.419-.542c.081,0,.163.005.246.013a2.13,2.13,0,0,1,1.254,3.628,1.812,1.812,0,0,0-.466,1.825Z" transform="translate(-1540.82 -771.237)" fill="#f59a00"/>
      </g>
    </g>
  </g>
</svg>
