<svg xmlns="http://www.w3.org/2000/svg" xmlns:xlink="http://www.w3.org/1999/xlink" width="105" height="105" viewBox="0 0 105 105">
  <defs>
    <clipPath id="clip-live_visit">
      <rect width="105" height="105"/>
    </clipPath>
  </defs>
  <g id="live_visit" data-name="live visit" clip-path="url(#clip-live_visit)">
    <g id="Groupe_19564" data-name="Groupe 19564" transform="translate(134.881 -123.071)">
      <path id="Tracé_16503" data-name="Tracé 16503" d="M-98.82,165.673a8.173,8.173,0,0,0,11.56,0,8.162,8.162,0,0,0,2.188-7.591c-.934.868-3.022.228-4.7-1.453s-2.319-3.767-1.453-4.7a8.172,8.172,0,0,0-7.591,2.19,8.174,8.174,0,0,0,0,11.558Zm0,0" transform="translate(10.4 10.382)" fill="#333"/>
      <path id="Tracé_16504" data-name="Tracé 16504" d="M-66.6,193.425a28.16,28.16,0,0,0,12.108-23.155,28.191,28.191,0,0,0-14.738-24.784c.015.241.025.484.025.724a13.384,13.384,0,0,1-1.167,5.486,1.156,1.156,0,0,1-1.057.685,1.142,1.142,0,0,1-.469-.1,1.158,1.158,0,0,1-.585-1.528,11.075,11.075,0,0,0,.965-4.544,11.134,11.134,0,0,0-.172-1.912,28.123,28.123,0,0,0-11-2.227,28.131,28.131,0,0,0-11,2.227,11.134,11.134,0,0,0-.172,1.912,11.075,11.075,0,0,0,.965,4.544,1.156,1.156,0,0,1-.585,1.528,1.135,1.135,0,0,1-.469.1A1.158,1.158,0,0,1-95,151.7a13.377,13.377,0,0,1-1.167-5.486c0-.241.01-.484.025-.724a28.2,28.2,0,0,0-14.738,24.784,28.16,28.16,0,0,0,12.108,23.155l-6.709,6.92a3.865,3.865,0,0,0-.716,2.24v2.35a3.858,3.858,0,0,0,3.859,3.859h39.31a3.858,3.858,0,0,0,3.859-3.859v-2.35a3.865,3.865,0,0,0-.716-2.24ZM-82.685,144.98a1.234,1.234,0,0,1,1.233,1.231,1.234,1.234,0,0,1-1.233,1.233,1.234,1.234,0,0,1-1.233-1.233A1.234,1.234,0,0,1-82.685,144.98Zm0,12.128a13.16,13.16,0,0,1,13.16,13.162,13.16,13.16,0,0,1-13.16,13.16,13.16,13.16,0,0,1-13.16-13.16A13.16,13.16,0,0,1-82.685,157.108Zm-14.976,44.908,5.15-5.312a28.1,28.1,0,0,0,9.826,1.762,28.117,28.117,0,0,0,9.828-1.762l5.148,5.312Z" transform="translate(0 0)" fill="#f39300"/>
    </g>
  </g>
</svg>
