<svg xmlns="http://www.w3.org/2000/svg" xmlns:xlink="http://www.w3.org/1999/xlink" width="105" height="105" viewBox="0 0 105 105">
  <defs>
    <clipPath id="clip-pige">
      <rect width="105" height="105"/>
    </clipPath>
  </defs>
  <g id="pige" clip-path="url(#clip-pige)">
    <g id="Groupe_19559" data-name="Groupe 19559" transform="translate(-52.601 -20.658)">
      <circle id="Ellipse_277" data-name="Ellipse 277" cx="18.837" cy="18.837" r="18.837" transform="translate(93.129 46.68)" fill="#f59a00"/>
      <path id="Tracé_16487" data-name="Tracé 16487" d="M128.827,48.659A23.824,23.824,0,0,0,94.27,81.442L92.45,83.262a3.764,3.764,0,0,0-5.324,0h0L74.7,95.684a3.764,3.764,0,0,0,0,5.324h0l1.774,1.774h0a3.764,3.764,0,0,0,5.323,0L94.223,90.36a3.764,3.764,0,0,0,0-5.324h0l1.819-1.819a23.824,23.824,0,0,0,32.785-34.558ZM92.45,88.585,80.028,101.007a1.255,1.255,0,0,1-1.774,0l-1.774-1.776a1.255,1.255,0,0,1,0-1.773L88.9,85.036a1.284,1.284,0,0,1,1.774,0l1.774,1.776A1.255,1.255,0,0,1,92.45,88.585Zm34.6-7.984a21.331,21.331,0,1,1,0-30.167A21.331,21.331,0,0,1,127.054,80.6Z" fill="#333"/>
      <path id="Tracé_16488" data-name="Tracé 16488" d="M393.542,108.92l-1.774,1.774a16.332,16.332,0,0,1,0,23.069l1.774,1.774a18.84,18.84,0,0,0,0-26.618Z" transform="translate(-268.263 -56.713)" fill="#333"/>
    </g>
  </g>
</svg>
