<svg xmlns="http://www.w3.org/2000/svg" xmlns:xlink="http://www.w3.org/1999/xlink" width="105" height="105" viewBox="0 0 105 105">
  <defs>
    <clipPath id="clip-rapprochements_2">
      <rect width="105" height="105"/>
    </clipPath>
  </defs>
  <g id="rapprochements_2" data-name="rapprochements 2" clip-path="url(#clip-rapprochements_2)">
    <g id="Groupe_10545" data-name="Groupe 10545" transform="translate(-1167.182 -39.157)">
      <path id="Tracé_16491" data-name="Tracé 16491" d="M1207.575,58.776a2.546,2.546,0,0,0-1.811.75,4.65,4.65,0,0,1-3.311,1.371h-8.228a5.311,5.311,0,0,0-5.285,4.861,8.24,8.24,0,0,0-2.139,5.565v.441a10.887,10.887,0,0,0,4.549,8.841l3.936,2.811V78.308a1.058,1.058,0,0,0-.311-.75l-1.061-1.061a2.562,2.562,0,0,1-.75-1.811,2.121,2.121,0,0,1,2.121-2.121V71.5a3.182,3.182,0,0,1,3.182-3.182h7.425s.207.277.513.773a5.293,5.293,0,0,0,3.73-5.038V61.337a2.563,2.563,0,0,0-2.56-2.561Zm0,0" fill="#f59a00"/>
      <path id="Tracé_16492" data-name="Tracé 16492" d="M1448,65.764a7.435,7.435,0,0,0-7.413-6.988h-8.508a5.276,5.276,0,0,0-1.553,10.32c.307-.5.515-.773.515-.773h7.425a3.182,3.182,0,0,1,3.182,3.182v1.061a2.121,2.121,0,0,1,2.121,2.121,2.56,2.56,0,0,1-.75,1.811l-1.061,1.061a1.06,1.06,0,0,0-.311.75v5.107l3.936-2.812a10.887,10.887,0,0,0,4.549-8.84v-.441A8.246,8.246,0,0,0,1448,65.764Zm0,0" transform="translate(-197.572)" fill="#f59a00"/>
      <path id="Tracé_16493" data-name="Tracé 16493" d="M1264.9,126.929v-9.107l1.061-1.061a3.6,3.6,0,0,0,1.061-2.561,3.188,3.188,0,0,0-2.121-3v-.182a4.248,4.248,0,0,0-4.243-4.243H1252.7l-.318.424a18.664,18.664,0,0,0-3.394,10.183v.764l3.182,1.061v1.979a4.637,4.637,0,0,0,4.166,4.632,7.535,7.535,0,0,1-1.74,3.9,18.891,18.891,0,0,0-4.491,11h-2.8l-1.209-1.209a3.116,3.116,0,0,0-4.987.805l-.225.443a3.027,3.027,0,0,0-.383-.039h-2.528l-.2-.4a3.119,3.119,0,0,0-4.993-.81l-1.208,1.209h-2.879l-.213-1.49a18.94,18.94,0,0,0-4.2-9.452,7.8,7.8,0,0,1-1.717-3.959,4.637,4.637,0,0,0,4.15-4.631v-1.979l3.182-1.061v-.764A18.67,18.67,0,0,0,1226.5,107.2l-.318-.423h-7.955a4.248,4.248,0,0,0-4.243,4.243v.182a3.188,3.188,0,0,0-2.121,3,3.593,3.593,0,0,0,1.061,2.561l1.061,1.061v9.554a5.312,5.312,0,0,0-2.444,2.136,5.368,5.368,0,0,0-.726,2.721h-.012v31.821h18.032V151.325h2.117a2.124,2.124,0,0,0,2.121-2.121H1245.8a2.124,2.124,0,0,0,2.121,2.121h2.121v12.728h14.85a4.248,4.248,0,0,0,4.243-4.243v-2.416a2.115,2.115,0,0,0,1.061-1.827V132.233a5.309,5.309,0,0,0-5.3-5.3Zm-38.517,12.6.159,1.114a5.278,5.278,0,0,1-4.391-4.353l-.7-4.19c.675.071,1.354.113,2.03.121a16.823,16.823,0,0,1,2.9,7.308Zm-11.336-26.388h1.061v-2.121a2.121,2.121,0,0,1,2.121-2.121h6.863a16.96,16.96,0,0,1,2.659,7.729l-3.159,1.053v3.508a2.578,2.578,0,0,1-.751,1.811,2.54,2.54,0,0,1-1.81.749h-2.743a1.061,1.061,0,0,0-1.061,1.061h0a1.061,1.061,0,0,0,1.061,1.061h1.128a9.947,9.947,0,0,0,1.438,4.15c-.339-.032-.675-.083-1.013-.133a5.293,5.293,0,0,0-4.736-2.956v-9.106a2.122,2.122,0,0,0-.622-1.5l-1.061-1.061a1.512,1.512,0,0,1-.439-1.061,1.063,1.063,0,0,1,1.061-1.061Zm5.3,48.792a2.125,2.125,0,0,1,1.425-2,1.009,1.009,0,0,0,.7-.946v-.147a.994.994,0,0,0-1.309-.939,4.25,4.25,0,0,0-2.934,4.036h-5.3v-6.364h13.789v6.364Zm6.364-8.486h-13.789V143.281a13.883,13.883,0,0,0,12.526,8.044h1.263Zm4.239-4.243h-5.5a11.736,11.736,0,0,1-11.551-9.978l-.945-6.455a3.42,3.42,0,0,1,.4-2.163,3.2,3.2,0,0,1,2.383-1.537,3.15,3.15,0,0,1,.364-.02,3.2,3.2,0,0,1,3.161,2.864l.791,4.728a7.4,7.4,0,0,0,7.325,6.2h3.569V149.2Zm37.129-16.971v19.093h-6.366V132.233a3.182,3.182,0,0,1,6.364,0Zm0,23.335h-6.366v-2.121h6.366Zm-13.791-34.382V117.68l-3.159-1.053a16.938,16.938,0,0,1,2.659-7.729h6.864a2.121,2.121,0,0,1,2.121,2.121v2.121h1.043a1.072,1.072,0,0,1,1.079,1.054,1.513,1.513,0,0,1-.439,1.067l-1.061,1.061a2.12,2.12,0,0,0-.621,1.5v9.557a5.327,5.327,0,0,0-2.335,2,19.66,19.66,0,0,1-3.443.635,9.661,9.661,0,0,0,1.47-4.147h1.127a1.061,1.061,0,0,0,1.06-1.061h0a1.061,1.061,0,0,0-1.061-1.061h-2.743a2.544,2.544,0,0,1-1.811-.75,2.578,2.578,0,0,1-.75-1.811Zm1.032,11.041a21.7,21.7,0,0,0,4.319-.465c-.014.158-.048.31-.048.471v21.214h-7.425V142.012a16.779,16.779,0,0,1,3.154-9.785Zm-22.25,14.855v-4.864l1.209-1.209a1.031,1.031,0,0,1,1.595.258l.786,1.572h3.838a1.063,1.063,0,0,1,1.062,1.061,3.187,3.187,0,0,1-3.183,3.182Zm9.523,0a5.249,5.249,0,0,0,1.088-3.182,3.167,3.167,0,0,0-.9-2.205l.216-.427a1.026,1.026,0,0,1,1.593-.259l1.209,1.209v4.864Zm5.331,2.121V142.84h2.121V149.2Zm4.243,6.364h7.425a2.114,2.114,0,0,0,1.061,1.827v2.416a4.2,4.2,0,0,0,.59,2.121h-9.075Zm12.728,6.364a2.124,2.124,0,0,1-2.121-2.121V157.69h4.243v2.121a2.124,2.124,0,0,1-2.121,2.121Zm0,0" transform="translate(-19.757 -39.514)" fill="#333"/>
      <path id="Tracé_16494" data-name="Tracé 16494" d="M1335.97,369.329h0a1.06,1.06,0,0,0-1.5,0l-3.542,3.542a.99.99,0,0,0,0,1.4l3.542,3.542a1.06,1.06,0,0,0,1.5,0h0a1.06,1.06,0,0,0,0-1.5l-1.682-1.682h11.3a.991.991,0,0,0,.991-.991v-.14a.991.991,0,0,0-.991-.991h-11.3l1.682-1.682A1.061,1.061,0,0,0,1335.97,369.329Zm.75.75" transform="translate(-118.41 -255.397)" fill="#333"/>
      <path id="Tracé_16495" data-name="Tracé 16495" d="M1341.407,167.815h0a1.06,1.06,0,0,0,1.5,0l3.542-3.542a.991.991,0,0,0,0-1.4l-3.542-3.542a1.06,1.06,0,0,0-1.5,0h0a1.061,1.061,0,0,0,0,1.5l1.682,1.682h-11.3a.991.991,0,0,0-.991.991v.14a.991.991,0,0,0,.991.991h11.3l-1.682,1.682A1.061,1.061,0,0,0,1341.407,167.815Zm-.75-.75" transform="translate(-118.543 -82.521)" fill="#f59a00"/>
    </g>
  </g>
</svg>
