<svg xmlns="http://www.w3.org/2000/svg" xmlns:xlink="http://www.w3.org/1999/xlink" width="105" height="105" viewBox="0 0 105 105">
  <defs>
    <clipPath id="clip-sign_elec">
      <rect width="105" height="105"/>
    </clipPath>
  </defs>
  <g id="sign_elec" data-name="sign elec" clip-path="url(#clip-sign_elec)">
    <g id="Groupe_19572" data-name="Groupe 19572" transform="translate(-436 -260.891)">
      <rect id="Rectangle_2579" data-name="Rectangle 2579" width="15.784" height="5.789" transform="translate(462.789 294.468)" fill="#f59a00"/>
      <path id="Tracé_20615" data-name="Tracé 20615" d="M618.2,445.272l4.086-3.7,19.669,19.207,1.087,2.863-1.087,1.612-2.315,1.728Z" transform="translate(-124.741 -122.796)" fill="#f59a00"/>
      <g id="Groupe_13937" data-name="Groupe 13937" transform="translate(457 282.89)">
        <path id="Tracé_20616" data-name="Tracé 20616" d="M516.05,282.89H460.474A3.478,3.478,0,0,0,457,286.364V329.2a3.479,3.479,0,0,0,3.474,3.475h41.161L512.56,343.6a4.053,4.053,0,0,0,5.731-5.732h0l-5.193-5.193h2.952a3.479,3.479,0,0,0,3.474-3.475V286.364a3.478,3.478,0,0,0-3.474-3.474Zm1.113,57.847a1.728,1.728,0,0,1-.509,1.229,1.778,1.778,0,0,1-2.457,0l-19-19,2.456-2.456,19,19a1.726,1.726,0,0,1,.509,1.228ZM493.808,321.08l-2.666-4.61,4.624,2.654Zm22.242,9.282h-5.268l-12.309-12.309a1.169,1.169,0,0,0-.242-.185l-9.67-5.548a1.158,1.158,0,0,0-1.579,1.584l5.576,9.641a1.194,1.194,0,0,0,.184.24l6.577,6.578H460.474a1.161,1.161,0,0,1-1.159-1.159V286.364a1.161,1.161,0,0,1,1.159-1.159H516.05a1.161,1.161,0,0,1,1.159,1.159v2.314H483.631a1.158,1.158,0,1,0,0,2.316h33.578V329.2a1.161,1.161,0,0,1-1.159,1.159Zm0,0" transform="translate(-457 -282.89)" fill="#333"/>
        <path id="Tracé_20617" data-name="Tracé 20617" d="M475.832,299.986a1.737,1.737,0,1,1-1.737-1.737,1.736,1.736,0,0,1,1.737,1.737Zm0,0" transform="translate(-468.886 -294.776)" fill="#f59a00"/>
        <path id="Tracé_20618" data-name="Tracé 20618" d="M496.313,299.986a1.737,1.737,0,1,1-1.737-1.737,1.736,1.736,0,0,1,1.737,1.737Zm0,0" transform="translate(-484.735 -294.776)" fill="#f59a00"/>
        <path id="Tracé_20619" data-name="Tracé 20619" d="M516.79,299.986a1.737,1.737,0,1,1-1.737-1.737,1.737,1.737,0,0,1,1.737,1.737Zm0,0" transform="translate(-500.58 -294.776)" fill="#333"/>
        <path id="Tracé_20620" data-name="Tracé 20620" d="M503.613,397.9a1.161,1.161,0,0,0-1.345.933,12.944,12.944,0,0,1-1.065,3.4,5.747,5.747,0,0,1-.371-.737c-.6-1.411-1.405-2.044-2.345-1.915-.415.06-1.259.182-2.1,2.5a1.159,1.159,0,0,0-2.115.334c-1.146,4.78-3.216,9.185-4.343,9.244-.008.014-.895.086-2.172-3.537-.053-.151-.1-.3-.153-.446,2.248-1.576,4.852-4.141,5.3-7.758a3.757,3.757,0,0,0-1.7-3.994,3.94,3.94,0,0,0-4.393.735c-.9.772-3.461,3.617-1.915,9.981a15.13,15.13,0,0,1-1.576.792,1.158,1.158,0,0,0,.861,2.149,15.34,15.34,0,0,0,1.4-.667c.775,2.192,2.06,5.06,4.326,5.06.047,0,.094,0,.141,0,2.059-.107,3.681-2.864,4.807-5.68l.119,1.071a1.158,1.158,0,0,0,1.147,1.03h0a1.159,1.159,0,0,0,1.15-1.022,33.793,33.793,0,0,1,1.442-6.915c.29.675,1.132,2.513,2.687,2.345,1.8-.2,2.7-3.128,3.136-5.547a1.155,1.155,0,0,0-.931-1.346Zm-15.29.51a2.08,2.08,0,0,1,1.314-.562,1.015,1.015,0,0,1,.476.108c.421.228.605.836.5,1.668a8.874,8.874,0,0,1-3.641,5.623c-.667-3.55.164-5.819,1.35-6.836Zm0,0" transform="translate(-476.81 -370.061)" fill="#f59a00"/>
        <path id="Tracé_20621" data-name="Tracé 20621" d="M496,335.915v-5.789a1.158,1.158,0,0,0-1.158-1.158h-16.21a1.158,1.158,0,0,0-1.158,1.158v5.789a1.158,1.158,0,0,0,1.158,1.158h16.21A1.158,1.158,0,0,0,496,335.915Zm-2.315-1.157H479.792v-3.474h13.895Zm0,0" transform="translate(-472.845 -318.548)" fill="#333"/>
        <path id="Tracé_20622" data-name="Tracé 20622" d="M587,328.968h-16.21a1.158,1.158,0,0,0-1.158,1.158v9.263a1.158,1.158,0,0,0,1.158,1.157H587a1.157,1.157,0,0,0,1.158-1.157v-9.263A1.158,1.158,0,0,0,587,328.968Zm-1.158,9.263H571.952v-6.948h13.894Zm0,0" transform="translate(-544.164 -318.548)" fill="#333"/>
        <path id="Tracé_20623" data-name="Tracé 20623" d="M662.955,336.4H669.9a1.158,1.158,0,1,0,0-2.315h-6.947a1.158,1.158,0,1,0,0,2.315Zm0,0" transform="translate(-615.483 -322.511)" fill="#333"/>
        <path id="Tracé_20624" data-name="Tracé 20624" d="M662.955,351.763h4.631a1.158,1.158,0,1,0,0-2.316h-4.631a1.158,1.158,0,1,0,0,2.316Zm0,0" transform="translate(-615.483 -334.396)" fill="#f59a00"/>
        <path id="Tracé_20625" data-name="Tracé 20625" d="M672.218,364.808h-9.263a1.158,1.158,0,1,0,0,2.316h9.263a1.158,1.158,0,1,0,0-2.316Zm0,0" transform="translate(-615.483 -346.283)" fill="#333"/>
      </g>
    </g>
  </g>
</svg>
