<svg xmlns="http://www.w3.org/2000/svg" xmlns:xlink="http://www.w3.org/1999/xlink" width="105" height="105" viewBox="0 0 105 105">
  <defs>
    <clipPath id="clip-sms">
      <rect width="105" height="105"/>
    </clipPath>
  </defs>
  <g id="sms" clip-path="url(#clip-sms)">
    <g id="Groupe_19567" data-name="Groupe 19567" transform="translate(-401.001 -211.891)">
      <path id="Tracé_20551" data-name="Tracé 20551" d="M550.069,236.288l-3.16,5.267a1.165,1.165,0,0,1-1,.567H528.563a1.165,1.165,0,0,1-1-.567l-3.16-5.267Zm0,0" transform="translate(-83.736 -5.232)" fill="#f59a00"/>
      <path id="Tracé_20554" data-name="Tracé 20554" d="M620.4,412.589v9.334a3.5,3.5,0,0,0,3.5,3.5h2.041l-.875,7,8-7h9.5a3.5,3.5,0,0,0,3.5-3.5v-9.334a3.5,3.5,0,0,0-3.5-3.5H623.9a3.5,3.5,0,0,0-3.5,3.5Zm0,0" transform="translate(-162.236 -146.532)" fill="#f59a00"/>
      <path id="Tracé_20557" data-name="Tracé 20557" d="M448.833,337.024a1.17,1.17,0,0,1-.767-.288l-7.674-6.712H426.667A4.667,4.667,0,0,1,422,325.357v-14a4.667,4.667,0,0,1,4.667-4.666H450a4.666,4.666,0,0,1,4.666,4.666v14A4.666,4.666,0,0,1,450,330.024h-.72l.711,5.689a1.167,1.167,0,0,1-1.158,1.311Zm-22.166-28a2.333,2.333,0,0,0-2.334,2.333v14a2.333,2.333,0,0,0,2.334,2.334H440.83a1.167,1.167,0,0,1,.768.288l5.7,4.984L446.8,329a1.167,1.167,0,0,1,1.158-1.312H450a2.333,2.333,0,0,0,2.334-2.334v-14A2.333,2.333,0,0,0,450,309.025Zm0,0" transform="translate(0 -62.801)" fill="#333"/>
      <path id="Tracé_20558" data-name="Tracé 20558" d="M451.1,353.825h-2.334a1.166,1.166,0,0,1,0-2.333H451.1a1.166,1.166,0,1,1,0,2.333Zm0,0" transform="translate(-20.935 -99.435)" fill="#333"/>
      <path id="Tracé_20559" data-name="Tracé 20559" d="M501.167,353.825h-14a1.166,1.166,0,1,1,0-2.333h14a1.166,1.166,0,1,1,0,2.333Zm0,0" transform="translate(-52.333 -99.435)" fill="#333"/>
      <path id="Tracé_20560" data-name="Tracé 20560" d="M553.5,379.423h-2.333a1.167,1.167,0,1,1,0-2.334H553.5a1.167,1.167,0,1,1,0,2.334Zm0,0" transform="translate(-104.666 -120.366)" fill="#333"/>
      <path id="Tracé_20561" data-name="Tracé 20561" d="M462.769,379.423h-14a1.167,1.167,0,0,1,0-2.334h14a1.167,1.167,0,0,1,0,2.334Zm0,0" transform="translate(-20.935 -120.366)" fill="#333"/>
      <path id="Tracé_20562" data-name="Tracé 20562" d="M619.833,428.358a1.167,1.167,0,0,1-1.157-1.312l.711-5.689h-.72A4.667,4.667,0,0,1,614,416.691v-9.334a4.667,4.667,0,0,1,4.667-4.666h18.666A4.667,4.667,0,0,1,642,407.357v9.334a4.667,4.667,0,0,1-4.667,4.666h-9.058L620.6,428.07a1.165,1.165,0,0,1-.768.288Zm-1.166-23.333a2.333,2.333,0,0,0-2.333,2.333v9.334a2.333,2.333,0,0,0,2.333,2.333h2.041a1.167,1.167,0,0,1,1.157,1.312l-.494,3.961,5.7-4.984a1.171,1.171,0,0,1,.77-.288h9.5a2.333,2.333,0,0,0,2.334-2.333v-9.334a2.333,2.333,0,0,0-2.334-2.333Zm0,0" transform="translate(-157 -141.301)" fill="#333"/>
      <path id="Tracé_20563" data-name="Tracé 20563" d="M719.9,437.025h-2.334a1.167,1.167,0,0,1,0-2.334H719.9a1.167,1.167,0,0,1,0,2.334Zm0,0" transform="translate(-240.736 -167.467)" fill="#333"/>
      <path id="Tracé_20564" data-name="Tracé 20564" d="M650.1,437.025h-9.333a1.167,1.167,0,0,1,0-2.334H650.1a1.167,1.167,0,1,1,0,2.334Zm0,0" transform="translate(-177.935 -167.467)" fill="#333"/>
      <path id="Tracé_20565" data-name="Tracé 20565" d="M643.1,462.622h-2.334a1.167,1.167,0,0,1,0-2.333H643.1a1.167,1.167,0,0,1,0,2.333Zm0,0" transform="translate(-177.935 -188.398)" fill="#333"/>
      <path id="Tracé_20566" data-name="Tracé 20566" d="M688.5,462.622h-9.333a1.167,1.167,0,1,1,0-2.333H688.5a1.167,1.167,0,0,1,0,2.333Zm0,0" transform="translate(-209.333 -188.398)" fill="#333"/>
      <path id="Tracé_20567" data-name="Tracé 20567" d="M474.366,241.557a1.166,1.166,0,0,0,1.166-1.166v-1.167a7.007,7.007,0,0,1,6.36-6.967l2.8,4.666a2.343,2.343,0,0,0,2,1.134h17.346a2.343,2.343,0,0,0,2-1.133l2.8-4.667a7.008,7.008,0,0,1,6.361,6.966v18.667a1.167,1.167,0,0,0,2.334,0V239.223a9.345,9.345,0,0,0-9.334-9.333H482.533a9.345,9.345,0,0,0-9.334,9.333v1.167a1.167,1.167,0,0,0,1.167,1.166Zm29.673-5.833H486.693l-2.1-3.5h21.546Zm0,0" transform="translate(-41.866)" fill="#333"/>
      <path id="Tracé_20568" data-name="Tracé 20568" d="M482.533,477.825H508.2a9.345,9.345,0,0,0,9.334-9.333v-7a1.167,1.167,0,0,0-2.334,0v7a7.007,7.007,0,0,1-7,7H482.533a7.007,7.007,0,0,1-7-7V448.658a1.167,1.167,0,0,0-2.334,0v19.834a9.345,9.345,0,0,0,9.334,9.333Zm0,0" transform="translate(-41.866 -177.935)" fill="#333"/>
      <path id="Tracé_20569" data-name="Tracé 20569" d="M525.569,569.089a1.167,1.167,0,0,0,0,2.334H548.9a1.167,1.167,0,0,0,0-2.334Zm0,0" transform="translate(-83.736 -277.366)" fill="#333"/>
    </g>
  </g>
</svg>
