<svg xmlns="http://www.w3.org/2000/svg" xmlns:xlink="http://www.w3.org/1999/xlink" width="36.06" height="36.04" viewBox="0 0 36.06 36.04">
  <defs>
    <linearGradient id="linear-gradient" x1="0.5" x2="0.5" y2="1" gradientUnits="objectBoundingBox">
      <stop offset="0" stop-color="#bed000"/>
      <stop offset="1" stop-color="#62aa42"/>
    </linearGradient>
  </defs>
  <g id="analyse" transform="translate(-15.983 -15.975)">
    <path id="Tracé_29525" data-name="Tracé 29525" d="M60.621,48A12.621,12.621,0,1,0,73.241,60.621,12.621,12.621,0,0,0,60.621,48Zm0,1.2a11.407,11.407,0,0,1,9.325,4.85l-1.5,1.5a2.372,2.372,0,0,0-1.212-.343,2.4,2.4,0,0,0-2.4,2.4,2.372,2.372,0,0,0,.341,1.213l-3.935,3.935a2.331,2.331,0,0,0-2.427,0l-2.733-2.733a2.372,2.372,0,0,0,.341-1.213,2.4,2.4,0,0,0-4.723-.6h-2.23A11.435,11.435,0,0,1,60.621,49.2Zm5.409,8.414a1.2,1.2,0,1,1,1.2,1.2A1.2,1.2,0,0,1,66.03,57.616Zm-6.01,6.01a1.2,1.2,0,1,1-1.2,1.2A1.2,1.2,0,0,1,60.02,63.626ZM54.01,60.02a1.2,1.2,0,1,1,1.2-1.2A1.2,1.2,0,0,1,54.01,60.02Zm6.611,12.02A11.411,11.411,0,0,1,49.266,59.419h2.425a2.4,2.4,0,0,0,2.319,1.8,2.372,2.372,0,0,0,1.213-.341l2.733,2.733a2.372,2.372,0,0,0-.341,1.213,2.4,2.4,0,1,0,4.808,0,2.372,2.372,0,0,0-.341-1.213l3.935-3.935a2.372,2.372,0,0,0,1.213.341,2.4,2.4,0,0,0,2.4-2.4,2.372,2.372,0,0,0-.341-1.213l1.31-1.31A11.409,11.409,0,0,1,60.621,72.04Z" transform="translate(-29.611 -29.62)" fill="url(#linear-gradient)"/>
    <path id="Tracé_29526" data-name="Tracé 29526" d="M46.283,41.819l-.85-.85-1.814-1.814a14.975,14.975,0,0,0,0-16.308s-.454-.678-.7-1a15.025,15.025,0,1,0-3.751,21.759l1.814,1.814.85.85,4.794,4.794a3.2,3.2,0,0,0,4.543,0,3.151,3.151,0,0,0-.043-4.412Zm-6.474-.165c-.249.206-.508.4-.773.591a13.844,13.844,0,1,1,3.217-3.217c-.189.264-.385.523-.591.773-.06.073-.124.143-.186.215q-.276.321-.57.623-.128.132-.26.26-.3.294-.623.57C39.952,41.527,39.881,41.593,39.808,41.654Zm.355,1.258c.085-.065.164-.136.248-.2s.18-.147.27-.222c.132-.111.261-.222.389-.337.066-.06.128-.12.192-.18q.37-.346.716-.716c.06-.064.12-.127.18-.192.115-.127.227-.257.337-.389q.113-.133.222-.27c.066-.083.138-.162.2-.247l1.664,1.664-2.756,2.756ZM50.3,50.263a1.949,1.949,0,0,1-2.756.031l-.031-.031-4.838-4.838,2.756-2.756,4.838,4.838A1.949,1.949,0,0,1,50.3,50.263Z" transform="translate(0 0)" fill="url(#linear-gradient)"/>
  </g>
</svg>
