<svg xmlns="http://www.w3.org/2000/svg" xmlns:xlink="http://www.w3.org/1999/xlink" width="31.195" height="32.732" viewBox="0 0 31.195 32.732">
  <defs>
    <linearGradient id="linear-gradient" x1="0.5" x2="0.5" y2="1" gradientUnits="objectBoundingBox">
      <stop offset="0" stop-color="#bed000"/>
      <stop offset="1" stop-color="#62aa42"/>
    </linearGradient>
  </defs>
  <g id="optimisation" transform="translate(-3459.585 -3386.181)">
    <path id="Tracé_29527" data-name="Tracé 29527" d="M3505.132,3444.549a8.649,8.649,0,0,0,6.158-2.552,1.052,1.052,0,0,0-1.487-1.487,6.606,6.606,0,1,1,1.935-4.671,6.666,6.666,0,0,1-.119,1.256,1.052,1.052,0,1,0,2.066.4,8.71,8.71,0,1,0-8.552,7.057Zm0,0" transform="translate(-29.949 -33.292)" fill="url(#linear-gradient)"/>
    <path id="Tracé_29528" data-name="Tracé 29528" d="M3459.891,3407.243a1.052,1.052,0,0,0-.165,1.267l2.565,4.442a1.052,1.052,0,0,0,1.179.491l3.727-.984,3.394,1.96,1.011,3.719a1.053,1.053,0,0,0,1.015.776h5.129a1.053,1.053,0,0,0,1.015-.776l1.011-3.719,3.395-1.96,3.727.984a1.05,1.05,0,0,0,1.179-.491l2.565-4.442a1.052,1.052,0,0,0-.164-1.267l-2.715-2.735v-3.919l2.715-2.735a1.052,1.052,0,0,0,.164-1.267l-2.565-4.443a1.051,1.051,0,0,0-1.179-.491l-3.727.984-3.395-1.96-1.011-3.718a1.052,1.052,0,0,0-1.015-.776h-5.129a1.052,1.052,0,0,0-1.015.776l-1.011,3.718-3.394,1.96-3.727-.984a1.053,1.053,0,0,0-1.179.491l-2.565,4.443a1.052,1.052,0,0,0,.165,1.267l2.715,2.735v3.919Zm4.513-7.829-2.454-2.473,1.761-3.049,3.368.889a1.054,1.054,0,0,0,.795-.106l4.145-2.394a1.05,1.05,0,0,0,.489-.635l.914-3.361h3.522l.914,3.361a1.052,1.052,0,0,0,.49.635l4.145,2.394a1.053,1.053,0,0,0,.795.106l3.368-.889,1.761,3.049-2.454,2.473a1.05,1.05,0,0,0-.305.741v4.786a1.05,1.05,0,0,0,.305.741l2.454,2.473-1.761,3.05-3.368-.889a1.047,1.047,0,0,0-.795.106l-4.145,2.393a1.056,1.056,0,0,0-.49.635l-.914,3.362h-3.522l-.914-3.362a1.054,1.054,0,0,0-.489-.635l-4.145-2.393a1.052,1.052,0,0,0-.795-.106l-3.368.889-1.761-3.05,2.454-2.473a1.05,1.05,0,0,0,.305-.741v-4.786a1.05,1.05,0,0,0-.305-.741Zm0,0" transform="translate(0 0)" fill="url(#linear-gradient)"/>
    <circle id="Ellipse_645" data-name="Ellipse 645" cx="1.625" cy="1.625" r="1.625" transform="translate(3473.557 3400.922)" fill="url(#linear-gradient)"/>
  </g>
</svg>
