<svg xmlns="http://www.w3.org/2000/svg" xmlns:xlink="http://www.w3.org/1999/xlink" width="32.14" height="32.172" viewBox="0 0 32.14 32.172">
  <defs>
    <linearGradient id="linear-gradient" x1="0.5" x2="0.5" y2="1" gradientUnits="objectBoundingBox">
      <stop offset="0" stop-color="#bed000"/>
      <stop offset="1" stop-color="#62aa42"/>
    </linearGradient>
  </defs>
  <g id="performance" transform="translate(473.655 -195.873)">
    <path id="Tracé_29520" data-name="Tracé 29520" d="M-429.243,253.655a13.218,13.218,0,0,0,13.2-13.2,13.219,13.219,0,0,0-13.2-13.2,13.219,13.219,0,0,0-13.2,13.2,13.218,13.218,0,0,0,13.2,13.2Zm-8.1-21.746.635.757a.713.713,0,0,0,.547.254.71.71,0,0,0,.458-.167.713.713,0,0,0,.088-1l-.636-.758a11.807,11.807,0,0,1,2.316-1.341l.34.933a.714.714,0,0,0,.671.47.713.713,0,0,0,.244-.043.714.714,0,0,0,.427-.914l-.34-.935a11.723,11.723,0,0,1,2.637-.464v.994a.714.714,0,0,0,.713.713.714.714,0,0,0,.713-.713V228.7a11.724,11.724,0,0,1,2.637.464l-.34.935a.714.714,0,0,0,.427.914.713.713,0,0,0,.244.043.714.714,0,0,0,.671-.47l.34-.933a11.805,11.805,0,0,1,2.316,1.341l-.636.758a.713.713,0,0,0,.088,1,.71.71,0,0,0,.458.167.712.712,0,0,0,.547-.254l.635-.757a11.87,11.87,0,0,1,1.721,2.049l-.858.495a.714.714,0,0,0-.261.974.714.714,0,0,0,.619.357.71.71,0,0,0,.356-.1l.859-.5a11.654,11.654,0,0,1,.918,2.515l-.98.173a.713.713,0,0,0-.579.826.714.714,0,0,0,.7.59.7.7,0,0,0,.124-.011l.979-.173a11.84,11.84,0,0,1,.077,1.339,11.835,11.835,0,0,1-.077,1.339l-.979-.172a.713.713,0,0,0-.826.579.713.713,0,0,0,.579.826l.98.173a11.8,11.8,0,0,1-11.454,9.033A11.8,11.8,0,0,1-440.7,243.2l.98-.173a.713.713,0,0,0,.579-.826.713.713,0,0,0-.826-.579l-.979.172a11.835,11.835,0,0,1-.077-1.339,11.84,11.84,0,0,1,.077-1.339l.979.173a.7.7,0,0,0,.124.011.714.714,0,0,0,.7-.59.713.713,0,0,0-.579-.826l-.98-.173a11.658,11.658,0,0,1,.918-2.515l.859.5a.705.705,0,0,0,.356.1.714.714,0,0,0,.619-.357.714.714,0,0,0-.261-.974l-.858-.495a11.877,11.877,0,0,1,1.721-2.049Zm0,0" transform="translate(-28.341 -28.493)" fill="url(#linear-gradient)"/>
    <path id="Tracé_29521" data-name="Tracé 29521" d="M-389.436,288.659a.714.714,0,0,0,.713-.713,6.98,6.98,0,0,1,6.973-6.973,6.981,6.981,0,0,1,6.973,6.973.714.714,0,0,0,.713.713.713.713,0,0,0,.713-.713,8.409,8.409,0,0,0-8.4-8.4,8.409,8.409,0,0,0-8.4,8.4.713.713,0,0,0,.713.713Zm0,0" transform="translate(-75.835 -75.987)" fill="url(#linear-gradient)"/>
    <path id="Tracé_29522" data-name="Tracé 29522" d="M-315.972,324.969a.714.714,0,0,0-1.009,0l-2.1,2.1a2.141,2.141,0,0,0-.933-.213,2.157,2.157,0,0,0-2.154,2.154,2.157,2.157,0,0,0,2.154,2.155,2.157,2.157,0,0,0,2.154-2.155,2.143,2.143,0,0,0-.212-.933l2.1-2.095a.714.714,0,0,0,0-1.009Zm-4.037,4.765a.729.729,0,0,1-.728-.728.728.728,0,0,1,.728-.728.728.728,0,0,1,.728.728.729.729,0,0,1-.728.728Zm0,0" transform="translate(-137.575 -117.048)" fill="url(#linear-gradient)"/>
    <path id="Tracé_29523" data-name="Tracé 29523" d="M-340.875,413.419h-5.765a1.676,1.676,0,0,0-1.674,1.674v1.537a1.676,1.676,0,0,0,1.674,1.674h5.765a1.676,1.676,0,0,0,1.674-1.674v-1.537a1.676,1.676,0,0,0-1.674-1.674Zm.247,3.211a.248.248,0,0,1-.247.248h-5.765a.248.248,0,0,1-.248-.248v-1.537a.248.248,0,0,1,.248-.248h5.765a.248.248,0,0,1,.247.248Zm0,0" transform="translate(-113.827 -197.562)" fill="url(#linear-gradient)"/>
    <g id="Groupe_18397" data-name="Groupe 18397" transform="translate(-473.655 195.873)">
      <path id="Tracé_29524" data-name="Tracé 29524" d="M-457.585,195.873a16.12,16.12,0,0,0-10.137,3.595.713.713,0,0,0-.1,1,.713.713,0,0,0,1,.1,14.69,14.69,0,0,1,9.237-3.275,14.676,14.676,0,0,1,14.659,14.659,14.676,14.676,0,0,1-14.659,14.659,14.676,14.676,0,0,1-14.659-14.659,14.5,14.5,0,0,1,3.18-9.119.713.713,0,0,0-.114-1,.714.714,0,0,0-1,.114,15.9,15.9,0,0,0-3.475,9.294v1.427a16.105,16.105,0,0,0,16.069,15.372,16.106,16.106,0,0,0,16.07-15.372v-1.427A16.1,16.1,0,0,0-457.585,195.873Z" transform="translate(473.655 -195.873)" fill="url(#linear-gradient)"/>
    </g>
  </g>
</svg>
