<svg xmlns="http://www.w3.org/2000/svg" width="1352.306" height="1353.685" viewBox="0 0 1352.306 1353.685">
  <g id="shape_4" data-name="shape 4" transform="translate(2304.755 -6784.057) rotate(16)">
    <path id="forme_fond_header" data-name="forme fond header" d="M4.225,808.962c8.248-49.046,27.423-96.273,48.3-141.716,23.843-51.922,51.228-105.771,55.634-163.695,4.127-54.206,1.068-113.423-.279-168.211-1.827-74.208-10.826-151.532,17.467-220.152C152.905,48.349,220.9-3.708,293.092.207,378.954,4.858,444.109,82.115,475.414,162.2c33.815,86.5,55.85,170.707,159.875,187.9,58.983,9.748,116.2-9.494,174.055.264,55.489,9.354,107.459,41.375,139.792,87.559,50.037,71.476,53.587,170.428,16.266,249.292S853.581,824.4,770.287,850.394c-58.3,18.19-120.559,21.291-180.864,12.885-57.557-8.027-104.391-19.218-162.767-3.328-47.434,12.914-89.1,40.879-130.3,67.7s-84.092,53.412-132.309,62.983-103.492-1.27-134.907-39.076C5.356,922.933-1.382,883.53.225,846.354A305.143,305.143,0,0,1,4.225,808.962Z" transform="translate(-210.625 7619.531) rotate(-45)" fill="none" stroke="#86868c" stroke-width="3" opacity="0.302"/>
    <path id="forme_fond_header-2" data-name="forme fond header" d="M3.72,712.238c7.262-43.181,24.144-84.762,42.521-124.772,20.992-45.713,45.1-93.125,48.982-144.122,3.633-47.725.94-99.862-.246-148.1-1.609-65.335-9.532-133.414,15.379-193.829C134.623,42.568,194.488-3.264,258.049.182c75.6,4.095,132.96,72.114,160.522,142.623,29.772,76.158,49.172,150.3,140.76,165.43,51.93,8.582,102.31-8.359,153.244.233,48.854,8.236,94.611,36.428,123.077,77.09,44.055,62.93,47.179,150.051,14.321,219.485S751.522,725.834,678.188,748.716c-51.332,16.015-106.144,18.745-159.239,11.344-50.675-7.068-91.909-16.92-143.306-2.931-41.763,11.37-78.444,35.992-114.719,59.6s-74.038,47.026-116.489,55.452-91.118-1.118-118.777-34.4C4.715,812.582-1.217,777.891.2,745.16A268.676,268.676,0,0,1,3.72,712.238Z" transform="translate(-126.741 7619.677) rotate(-45)" fill="none" stroke="#86868c" stroke-width="2" opacity="0.302"/>
    <path id="forme_fond_header-3" data-name="forme fond header" d="M3.428,656.365c6.692-39.794,22.251-78.113,39.186-114.984,19.345-42.127,41.565-85.82,45.139-132.816,3.348-43.981.866-92.028-.226-136.481C86.044,211.874,78.743,149.136,101.7,93.46,124.062,39.229,179.231-3.008,237.806.168,307.471,3.942,360.336,66.625,385.735,131.6c27.437,70.184,45.316,138.506,129.718,152.452,47.857,7.909,94.284-7.7,141.222.215,45.022,7.589,87.189,33.57,113.423,71.042,40.6,57.994,43.478,138.28,13.2,202.267s-90.728,111.316-158.31,132.4c-47.3,14.758-97.817,17.275-146.747,10.454-46.7-6.513-84.7-15.593-132.064-2.7-38.486,10.478-72.291,33.168-105.72,54.927S172.226,796,133.1,803.764s-83.97-1.03-109.459-31.7C4.345,748.837-1.122,716.867.183,686.7A247.645,247.645,0,0,1,3.428,656.365Z" transform="translate(-78.285 7619.762) rotate(-45)" fill="none" stroke="#86868c" stroke-width="1" opacity="0.302"/>
  </g>
</svg>
