<svg xmlns="http://www.w3.org/2000/svg" width="1475.356" height="1263.764" viewBox="0 0 1475.356 1263.764">
  <g id="shape_5" data-name="shape 5" transform="translate(-1031.291 -7065.621)" opacity="0.436">
    <path id="forme_fond_grise_foncée" data-name="forme fond grise foncée" d="M.14,639.248H0s-1.44,311.16,303.962,325.633c328.667,15.579,230.7-215.19,648.987-106.915,277.113,71.735,311.457-215.442,311.834-218.643h.006v-324.8s-132.9,0-208.909-183.14S632.394-49.018,595.577,174.9c-45.159,274.662-202.7,281.283-405.141,281.283C-11.533,456.186.083,638.4.14,639.248Z" transform="matrix(0.966, 0.259, -0.259, 0.966, 1283.114, 7067.485)" fill="none" stroke="#525254" stroke-width="3"/>
    <path id="forme_fond_grise_foncée-2" data-name="forme fond grise foncée" d="M.093,423.928H0S-.954,630.279,201.579,639.876c217.961,10.332,152.992-142.707,430.386-70.9,183.772,47.572,206.548-142.874,206.8-145h0v-215.4s-88.132,0-138.541-121.452S419.383-32.507,394.966,115.99C365.018,298.136,260.542,302.527,126.291,302.527-7.648,302.527.055,423.366.093,423.928Z" transform="matrix(0.966, 0.259, -0.259, 0.966, 1446.776, 7279.705)" fill="none" stroke="#525254" stroke-width="1"/>
  </g>
</svg>
