<svg xmlns="http://www.w3.org/2000/svg" width="94.001" height="88.091" viewBox="0 0 94.001 88.091">
  <g id="Accessible" transform="translate(-927 -7257.318)">
    <path id="Tracé_32736" data-name="Tracé 32736" d="M88.788,193.711a1.836,1.836,0,0,0-2.151,1.455,40.379,40.379,0,0,1-79.029,1.191l.479.479a1.836,1.836,0,0,0,2.6-2.6l-3.775-3.776a1.837,1.837,0,0,0-2.6,0L.537,194.239a1.836,1.836,0,0,0,2.6,2.6l.68-.68a44.05,44.05,0,0,0,86.43-.294,1.837,1.837,0,0,0-1.455-2.15" transform="translate(927 7113.885)" fill="#333"/>
    <path id="Tracé_32737" data-name="Tracé 32737" d="M104.944,34.689a1.835,1.835,0,0,0-2.6,0l-.68.68a44.05,44.05,0,0,0-86.43.294,1.836,1.836,0,0,0,3.606.7,40.379,40.379,0,0,1,79.029-1.191l-.479-.479a1.836,1.836,0,0,0-2.6,2.6l3.776,3.776a1.836,1.836,0,0,0,2.6,0l3.775-3.776a1.834,1.834,0,0,0,0-2.6" transform="translate(915.518 7257.318)" fill="#333"/>
    <path id="Tracé_32738" data-name="Tracé 32738" d="M96.255,115.221A31.034,31.034,0,1,0,65.221,84.187a31.069,31.069,0,0,0,31.034,31.034m0-58.4A27.362,27.362,0,1,1,68.893,84.187,27.392,27.392,0,0,1,96.255,56.825" transform="translate(877.744 7217.177)" fill="#bed000"/>
    <path id="Tracé_32739" data-name="Tracé 32739" d="M196.339,162.652a1.834,1.834,0,0,0,2.384-1.028l5.081-12.774a1.836,1.836,0,1,0-3.412-1.357l-5.081,12.774a1.836,1.836,0,0,0,1.028,2.385" transform="translate(779.598 7146.805)" fill="#bed000"/>
    <path id="Tracé_32740" data-name="Tracé 32740" d="M236.631,150.011h4.215l-4.484,10.2a1.836,1.836,0,0,0,3.362,1.478l5.615-12.775a1.835,1.835,0,0,0-1.68-2.574h-7.028a1.835,1.835,0,1,0,0,3.671" transform="translate(749.682 7146.801)" fill="#bed000"/>
    <path id="Tracé_32741" data-name="Tracé 32741" d="M145.5,158.106a1.837,1.837,0,0,0,1.581.9h4.54c0,.676-.011,1.324-.015,1.918a1.837,1.837,0,0,0,1.82,1.852h.016a1.836,1.836,0,0,0,1.836-1.821c0-.48.01-1.162.016-1.959a1.836,1.836,0,0,0,.024-3.65c.016-2.989.023-6-.014-6.448a2.74,2.74,0,0,0-1.838-2.462,2.646,2.646,0,0,0-2.859,1.014c-.727.892-3.831,6.474-5.133,8.832a1.837,1.837,0,0,0,.027,1.821m6.156-5.333c0,.793-.006,1.666-.011,2.563h-1.441c.511-.909,1.006-1.785,1.452-2.563" transform="translate(817.307 7146.809)" fill="#bed000"/>
    <path id="Tracé_32742" data-name="Tracé 32742" d="M114.367,162.495a1.836,1.836,0,0,0-.023-3.672h-.024c-1,.012-2.061.022-3.015.027.661-.895,1.509-2.066,2.58-3.6a10.106,10.106,0,0,0,1.643-3.411,3.826,3.826,0,0,0,.11-.909,5.105,5.105,0,0,0-10.114-.988,1.836,1.836,0,0,0,3.6.709,1.433,1.433,0,0,1,2.836.187l-.033.251a6.665,6.665,0,0,1-1.054,2.056c-2.019,2.885-3.223,4.462-3.871,5.309-.829,1.086-1.286,1.685-.981,2.678a1.915,1.915,0,0,0,1.229,1.246c.245.082.441.147,2.948.147.985,0,2.326-.01,4.165-.033" transform="translate(847.334 7147.188)" fill="#bed000"/>
  </g>
</svg>
