<svg xmlns="http://www.w3.org/2000/svg" width="74.026" height="45.713" viewBox="0 0 74.026 45.713">
  <g id="carte_pro" data-name="carte pro" transform="translate(-695.975 -7279.23)">
    <path id="Tracé_32729" data-name="Tracé 32729" d="M69.3,0H4.723A4.728,4.728,0,0,0,0,4.722V40.989a4.728,4.728,0,0,0,4.723,4.723H69.3a4.728,4.728,0,0,0,4.723-4.723V4.722A4.728,4.728,0,0,0,69.3,0m1.774,40.99A1.776,1.776,0,0,1,69.3,42.763H4.723a1.776,1.776,0,0,1-1.774-1.774V4.722A1.776,1.776,0,0,1,4.723,2.948H69.3a1.776,1.776,0,0,1,1.774,1.774V40.989Z" transform="translate(695.975 7279.231)" fill="#333"/>
    <path id="Tracé_32730" data-name="Tracé 32730" d="M302.28,87.46h19.377a1.475,1.475,0,1,0,0-2.949H302.28a1.475,1.475,0,0,0,0,2.949" transform="translate(438.66 7206.938)" fill="#bed000"/>
    <path id="Tracé_32731" data-name="Tracé 32731" d="M302.28,152.949h19.377a1.475,1.475,0,1,0,0-2.949H302.28a1.475,1.475,0,0,0,0,2.949" transform="translate(438.66 7150.918)" fill="#333"/>
    <path id="Tracé_32732" data-name="Tracé 32732" d="M429.983,215.488h-1.161a1.475,1.475,0,1,0,0,2.949h1.161a1.475,1.475,0,0,0,0-2.949" transform="translate(330.414 7094.898)" fill="#bed000"/>
    <path id="Tracé_32733" data-name="Tracé 32733" d="M314.972,215.488H302.28a1.475,1.475,0,0,0,0,2.949h12.692a1.475,1.475,0,1,0,0-2.949" transform="translate(438.66 7094.898)" fill="#333"/>
    <path id="Tracé_32734" data-name="Tracé 32734" d="M84.787,168.141c-7.1,0-12.88,5.452-12.88,12.154a1.475,1.475,0,0,0,1.475,1.475h22.81a1.475,1.475,0,0,0,1.475-1.475c0-6.7-5.778-12.154-12.879-12.154M83.2,171.21v7.611H74.984A9.616,9.616,0,0,1,83.2,171.21m2.949,7.611v-7.644a9.637,9.637,0,0,1,8.439,7.644Z" transform="translate(634.465 7135.399)" fill="#bed000"/>
    <path id="Tracé_32735" data-name="Tracé 32735" d="M114.759,67.495a7.668,7.668,0,1,0-7.668-7.668,7.677,7.677,0,0,0,7.668,7.668m0-12.387a4.719,4.719,0,1,1-4.719,4.719,4.724,4.724,0,0,1,4.719-4.719" transform="translate(604.367 7234.613)" fill="#bed000"/>
  </g>
</svg>
