<svg xmlns="http://www.w3.org/2000/svg" width="76.122" height="90.001" viewBox="0 0 76.122 90.001">
  <g id="Datadocké" transform="translate(-1248.357 -433.04)">
    <path id="Tracé_19709" data-name="Tracé 19709" d="M1248.357,433.04h76.122V508.9H1315.7a10.361,10.361,0,0,1-.133-2.795h6.122V435.835h-70.532v70.133h7.719v2.795l-10.513.133Zm37,63.213c4.995-.109,7.955,1.434,10.38,3.859.5.5,1.088.824,1.331,1.6h-.4c-2.441-4.753-11.756-6.167-16.9-2.928a13.093,13.093,0,0,0-3.194,2.795c-.522.7-.645,1.712-1.73,1.863v-.266c.425-.339.479-.881.8-1.331a14.7,14.7,0,0,1,3.593-3.46,17.461,17.461,0,0,1,3.859-1.73C1283.771,496.434,1284.785,496.614,1285.353,496.253Zm25.818,3.46h1.331v.266c-.616.632-.62,1.56-1.863,1.6v-.266Zm2,2.262v1.065l-2.662.133v.266a2.466,2.466,0,0,1,.133,1.2l2.661-.133v.932a7.117,7.117,0,0,1-2,.133c-.157.107-.224.1-.532.133q.067.865.133,1.73l2.928-.133v.932l-4.125.4v-.266c-.334-.535-.536-4.954-.532-5.989h.133v-.133Zm-7.985,7.053-1.331.133v-.133h-.133c-.009-1.272-.732-5.559-.4-6.122a2.845,2.845,0,0,1,1.331-.133q.066,1.2.133,2.4h.133v-.133c.771-.781,1.07-2.478,2.529-2.529a1.442,1.442,0,0,1,.8-.133v.266a8.729,8.729,0,0,0-2,2.928,15.183,15.183,0,0,1,2.662,3.061,3.227,3.227,0,0,1-1.464.133c-.609-.944-1.545-1.56-2.129-2.529l-.4.133v.665A6.052,6.052,0,0,1,1305.182,509.029Zm-5.19-6.122a3.527,3.527,0,0,1,2.262.4c.1.143.08.126.133.4a3.833,3.833,0,0,0-.266.665,3.139,3.139,0,0,0-2.4-.133c-.207.318-.389.389-.532.8-.532.658-.121,1.76,0,2.529l.932.8a4.336,4.336,0,0,0,2.4-.532,4.824,4.824,0,0,1,.266,1.065c-2.736,1.348-3.5.34-5.057-1.331-.158-1.846-.122-3.293,1.065-4.125C1299.147,503.192,1299.677,503.178,1299.992,502.907Zm-7.053.665a4.539,4.539,0,0,1,2.529.4c.782.525,2.07,2.913,1.065,4.259-.4,1.53-1.831,1.921-3.859,1.863-.481-.41-1.226-.549-1.6-1.065-1.083-1.505-.689-4.056.665-4.924C1292.062,503.857,1292.605,503.818,1292.939,503.572Zm-8.65,7.319q-.266-3.194-.532-6.388c2.182-.067,4.841-.482,5.456,1.331a2.656,2.656,0,0,1,.4,2.262C1288.961,510.38,1287.123,510.893,1284.289,510.892Zm8.916-6.255a1.559,1.559,0,0,1-.665.266l-.665.932c-.092,2.166.2,3.275,2.4,3.194a.951.951,0,0,1,.532-.266,3.6,3.6,0,0,0,.665-2.4c-.411-.61-.288-1.193-1.065-1.464A1.762,1.762,0,0,0,1293.2,504.637Zm-15.3,6.787a33.279,33.279,0,0,1,1.73-6.388,3.249,3.249,0,0,1,1.2-.266l2.795,6.122h-.266a2.1,2.1,0,0,1-1.064.133,9.33,9.33,0,0,0-.8-1.863,9.232,9.232,0,0,1-1.73.133v.133h-.133l-.4,1.863A4.374,4.374,0,0,1,1277.9,511.424Zm-.532-6.255v.931h-.266a6.015,6.015,0,0,1-1.464.266v1.6a14.161,14.161,0,0,1,.4,3.593,4.379,4.379,0,0,1-1.331.133c-.1-1.691-.385-3.235-.4-5.057a4.92,4.92,0,0,0-1.464-.133c-.143.1-.126.08-.4.133v-.266a1.442,1.442,0,0,1-.133-.8Zm8.118,4.525a3.255,3.255,0,0,0,2.795-1.2,8.059,8.059,0,0,0-.266-2.4,4.078,4.078,0,0,0-2.662-.665,4.917,4.917,0,0,0-.133,1.464A6.733,6.733,0,0,1,1285.486,509.694Zm-12.643,2.262h-1.331c-.14-.672-.48-1.718-1.2-1.863-.248.148-.707-.012-1.065.133-.531.216-.679,1.383-.8,2l-1.331.133,1.73-6.521h1.331C1270.718,508.01,1272.479,509.705,1272.844,511.956Zm-11.844.932-.532-6.255c3.355-.193,5.142-.715,5.856,2.662a1.985,1.985,0,0,1-.133,1.464C1265.7,512.6,1263.335,512.911,1261,512.888Zm19.3-6.255a17.776,17.776,0,0,0-.266,1.863h.266c.3-.193.593-.069.8-.4C1280.743,507.694,1280.665,507.018,1280.3,506.633Zm-18.1,5.057a4.749,4.749,0,0,0,2.262-.4,2.091,2.091,0,0,0,.532-1.331c.343-.575-.248-1.823-.666-2.129a3.231,3.231,0,0,0-2.4-.266v1.2A7.232,7.232,0,0,1,1262.2,511.69Zm7.053-2.262,1.065-.133v-.266c-.33-.388-.334-1.068-.8-1.331Zm4.924,3.593a7.925,7.925,0,0,0,1.73,3.859c2,2.97,7.191,6.96,13.042,5.456a18.167,18.167,0,0,0,6.787-3.46,12.508,12.508,0,0,0,3.061-4.525c.316-.752.293-2.757.932-3.194v.133c-.613.975-.489,2.546-.932,3.593a13.927,13.927,0,0,1-4.259,5.589,15.685,15.685,0,0,1-3.46,1.863c-5.826,2.124-12.3-.921-14.772-4.259a21.089,21.089,0,0,1-2.528-5.057Z" transform="translate(0 0)" fill="#333" fill-rule="evenodd"/>
    <path id="Tracé_19710" data-name="Tracé 19710" d="M1417.475,624.8h-2.529a36.6,36.6,0,0,0,0-4.791h-.266v.133a12.791,12.791,0,0,0-1.065,1.464c-1.3,1.727-3.869,2.84-6.255,3.46a10.79,10.79,0,0,1-5.323-.532c-4.34-1.437-6.525-3.923-7.852-8.384a10.536,10.536,0,0,1-.4-4.658,16.66,16.66,0,0,1,1.331-4.259c.529-.951,1.627-1.73,2-2.795-.264-.344-.205-.739-.4-1.2a16.8,16.8,0,0,0-1.73-3.061c-1.8-2.469-4.88-3.739-8.384-4.525h-8.517v25.684c4.471.042,9.287.254,12.376-1.065.735-.313,3.3-2.191,3.327-2.129a26.785,26.785,0,0,1,1.6,2.928c-.514.741-1.347.98-2.129,1.464-4.559,2.819-11.513,2.258-18.9,2.262V592.2h8.783a22.19,22.19,0,0,1,5.323.266,16.437,16.437,0,0,1,10.513,7.586c1.153,1.867,3.087,6.7,2.262,10.38a26.917,26.917,0,0,1-1.064,4.392c-.44,1.049-1.369,2.038-1.6,3.194.26.212.185.408.4.665a9.951,9.951,0,0,0,3.726,2.662c5.22,1.947,9.924-1.634,11.179-5.456,2.528-7.7-5.431-13.566-11.977-10.513v-.266l-.932-3.061h.133v-.133c1.016-.16,2.139-.563,3.194-.8,2.3-.513,5.6.817,6.787,1.6,1.026.675,2.229,2.776,3.061,3.194V592.2a11.208,11.208,0,0,1,3.327,0Z" transform="translate(-109.232 -137.867)" fill="#bed000" fill-rule="evenodd"/>
    <path id="Tracé_19711" data-name="Tracé 19711" d="M1516.475,1026.04c.374.586.265,2.568.266,3.327-2.322,1.114-3.125,3.319-4.791,5.057v-.133c-.666-.438-.973-1.265-1.6-1.73a15.235,15.235,0,0,1-2-1.331h.133a6.724,6.724,0,0,1,2.262-1.331,5.343,5.343,0,0,1,1.065,2h.133v-.133c.6-.77.785-1.842,1.331-2.662C1514.13,1027.826,1515.424,1027.1,1516.475,1026.04Z" transform="translate(-225.399 -514.084)" fill="#bed000" fill-rule="evenodd"/>
  </g>
</svg>
