<svg xmlns="http://www.w3.org/2000/svg" xmlns:xlink="http://www.w3.org/1999/xlink" width="256.76" height="267" viewBox="0 0 256.76 267">
  <defs>
    <filter id="Tracé_28845" x="0" y="0" width="256.76" height="267" filterUnits="userSpaceOnUse">
      <feOffset dy="23" input="SourceAlpha"/>
      <feGaussianBlur stdDeviation="23" result="blur"/>
      <feFlood flood-color="#40527c" flood-opacity="0.298"/>
      <feComposite operator="in" in2="blur"/>
      <feComposite in="SourceGraphic"/>
    </filter>
  </defs>
  <g id="Logo_LBI_Academy" data-name="Logo LBI Academy" transform="translate(69 46)">
    <g transform="matrix(1, 0, 0, 1, -69, -46)" filter="url(#Tracé_28845)">
      <path id="Tracé_28845-2" data-name="Tracé 28845" d="M59.38,0,0,15.009V70.474C0,100.555,39.821,116.48,59.38,129c19.559-12.52,59.38-28.445,59.38-58.526V15.009Z" transform="translate(69 46)" fill="#dadada"/>
    </g>
    <g id="Groupe_18217" data-name="Groupe 18217" transform="translate(2.266 2.518)">
      <path id="Tracé_28846" data-name="Tracé 28846" d="M77.67,23.462,21.6,37.634V90.008c0,28.4,37.6,43.441,56.07,55.264,18.469-11.822,56.071-26.859,56.071-55.264V37.634Z" transform="translate(-20.556 -22.385)" fill="#fff"/>
      <path id="Tracé_28847" data-name="Tracé 28847" d="M71.9,140.561l-.563-.36c-3.3-2.114-7.267-4.357-11.463-6.732-9.787-5.538-20.881-11.816-29.694-19.743-10.358-9.316-15.394-19.02-15.394-29.668V30.871L71.9,16.435l.256.065,56.859,14.372V84.058c0,10.648-5.035,20.352-15.394,29.668-8.814,7.927-19.907,14.2-29.695,19.743-4.2,2.375-8.16,4.618-11.464,6.732ZM16.875,32.5V84.058c0,10.022,4.809,19.218,14.7,28.116,8.644,7.774,19.632,13.992,29.327,19.478,3.988,2.257,7.767,4.4,11,6.433,3.231-2.038,7.01-4.176,11-6.433,9.695-5.486,20.682-11.7,29.327-19.478,9.893-8.9,14.7-18.094,14.7-28.116V32.5L71.9,18.588Z" transform="translate(-14.787 -16.435)" fill="#fff"/>
    </g>
    <g id="Groupe_18218" data-name="Groupe 18218" transform="translate(10.892 15.295)">
      <path id="Tracé_28848" data-name="Tracé 28848" d="M71.678,130.637a.6.6,0,0,1-.6-.6v-21.7l33.659-8.508a.6.6,0,0,1,.292,1.157l-32.759,8.28V130.04A.6.6,0,0,1,71.678,130.637Z" transform="translate(-71.082 -99.818)" fill="#494b52"/>
      <path id="Tracé_28849" data-name="Tracé 28849" d="M513.921,130.982a.6.6,0,0,1-.6-.6V109.62l-32.64-8.218a.6.6,0,1,1,.291-1.157l33.542,8.445v21.7A.6.6,0,0,1,513.921,130.982Z" transform="translate(-417.54 -100.164)" fill="#494b52"/>
    </g>
    <path id="Tracé_28850" data-name="Tracé 28850" d="M119.57,453.1l-.322-.206c-2.828-1.81-6.217-3.728-9.805-5.758-8.347-4.723-17.807-10.077-25.311-16.826-8.782-7.9-13.05-16.115-13.05-25.121v-7.593a.6.6,0,0,1,1.193,0v7.593c0,8.649,4.14,16.576,12.655,24.234,7.407,6.662,16.807,11.981,25.1,16.674,3.468,1.963,6.751,3.82,9.539,5.587,2.788-1.767,6.071-3.625,9.539-5.587,8.294-4.693,17.694-10.012,25.1-16.674,8.516-7.659,12.655-15.586,12.655-24.234v-7.593a.6.6,0,1,1,1.193,0v7.593c0,9.006-4.269,17.224-13.05,25.121-7.5,6.749-16.965,12.1-25.311,16.826-3.588,2.03-6.977,3.948-9.8,5.758Z" transform="translate(-60.19 -336.167)" fill="#494b52"/>
    <g id="Groupe_18219" data-name="Groupe 18219" transform="translate(15.241 63.463)">
      <path id="Tracé_28851" data-name="Tracé 28851" d="M99.47,422.672h.762l2.193-6.109h-.963v-1.337h4.973v1.337h-.963l2.192,6.109h.762v1.35h-3.382v-1.337h1.016l-.495-1.444h-3.289l-.495,1.444h1.069v1.337H99.47Zm5.682-2.687-1.23-3.463-1.23,3.463Z" transform="translate(-99.47 -415.066)" fill="#cad510"/>
      <path id="Tracé_28852" data-name="Tracé 28852" d="M187.508,418.739a4.5,4.5,0,0,1,4.626-4.559c2.045,0,3.409,1.069,3.409,2.125a.992.992,0,0,1-.963,1.083.931.931,0,0,1-1.016-.949,1.1,1.1,0,0,1,.094-.455,2.568,2.568,0,0,0-1.564-.4,3.157,3.157,0,0,0,.067,6.31,3.372,3.372,0,0,0,2.527-1.163l1,1.043a4.727,4.727,0,0,1-3.529,1.524A4.39,4.39,0,0,1,187.508,418.739Z" transform="translate(-174.018 -414.18)" fill="#cad510"/>
      <path id="Tracé_28853" data-name="Tracé 28853" d="M269.874,422.672h.762l2.193-6.109h-.963v-1.337h4.973v1.337h-.962l2.192,6.109h.762v1.35h-3.382v-1.337h1.016l-.495-1.444h-3.289l-.495,1.444h1.069v1.337h-3.382Zm5.682-2.687-1.23-3.463-1.23,3.463Z" transform="translate(-243.764 -415.066)" fill="#cad510"/>
      <path id="Tracé_28854" data-name="Tracé 28854" d="M358.871,422.672h1v-6.1h-1v-1.35H362.2c3.182,0,5.067,1.658,5.067,4.318,0,2.687-1.778,4.479-5.227,4.479h-3.168Zm3.382,0c2.273,0,3.449-1.23,3.449-3.115,0-1.925-1.364-2.981-3.556-2.981h-.762v6.1Z" transform="translate(-319.124 -415.066)" fill="#cad510"/>
      <path id="Tracé_28855" data-name="Tracé 28855" d="M447.083,422.672h1v-6.1h-1v-1.35h6.564v2.513H452.2v-1.176H449.6v2.353h2.66V420.2H449.6v2.487h2.62v-1.177h1.444v2.513h-6.577Z" transform="translate(-393.82 -415.066)" fill="#cad510"/>
      <path id="Tracé_28856" data-name="Tracé 28856" d="M523.165,422.672h1.043l.281-6.1h-1.1v-1.35H525.8l2.7,4.893,2.7-4.893h2.393v1.35h-1.1l.281,6.1h1.043v1.35H530.21v-1.35h1.056l-.174-4.532-2.513,4.412h-.2l-2.513-4.412-.174,4.532h1.056v1.35h-3.583Z" transform="translate(-458.244 -415.066)" fill="#cad510"/>
      <path id="Tracé_28857" data-name="Tracé 28857" d="M623.858,422.672h1.109v-2.005l-2.5-4.091h-.882v-1.35h3.329v1.35h-.775l1.618,2.821,1.6-2.821h-.829v-1.35h3.329v1.35h-.882l-2.5,4.091v2.005h1.11v1.35h-3.73Z" transform="translate(-541.583 -415.066)" fill="#cad510"/>
    </g>
    <g id="Groupe_18220" data-name="Groupe 18220" transform="translate(47.344 81.781)">
      <path id="Tracé_28858" data-name="Tracé 28858" d="M311.128,534.608a.914.914,0,0,0-.757-.356c-.447,0-.661.187-.661.424,0,.278.328.356.711.4.665.082,1.285.255,1.285,1.017,0,.711-.629,1.016-1.34,1.016a1.325,1.325,0,0,1-1.39-.784l.5-.26a.91.91,0,0,0,.9.506c.379,0,.734-.132.734-.478,0-.3-.315-.424-.738-.469-.652-.078-1.253-.251-1.253-.967,0-.656.647-.925,1.235-.93a1.29,1.29,0,0,1,1.254.634Z" transform="translate(-308.977 -533.728)" fill="#86878c"/>
      <path id="Tracé_28859" data-name="Tracé 28859" d="M347.695,537.634v-3.191h.6v3.191Z" transform="translate(-341.762 -534.333)" fill="#86878c"/>
      <path id="Tracé_28860" data-name="Tracé 28860" d="M375.469,534.412h.6v3.2H375.7v0l-1.677-2.156v2.151h-.6v-3.191h.488l1.564,1.978Z" transform="translate(-363.544 -534.307)" fill="#86878c"/>
      <path id="Tracé_28861" data-name="Tracé 28861" d="M414.474,536.879a1.682,1.682,0,0,1-1.212.474,1.569,1.569,0,0,1-1.691-1.646,1.606,1.606,0,0,1,1.691-1.682,1.646,1.646,0,0,1,1.172.488l-.4.388a1.1,1.1,0,0,0-.77-.3,1.046,1.046,0,0,0-1.1,1.108,1.023,1.023,0,0,0,1.1,1.081,1.176,1.176,0,0,0,.8-.324Z" transform="translate(-395.851 -533.98)" fill="#86878c"/>
      <path id="Tracé_28862" data-name="Tracé 28862" d="M452.885,537.634H450.5v-3.191h2.389v.583h-1.791v.734h1.728v.561h-1.728v.72h1.791Z" transform="translate(-428.812 -534.333)" fill="#86878c"/>
      <path id="Tracé_28863" data-name="Tracé 28863" d="M308.995,566.529c.006-.864.824-1.238,1.577-1.238.818,0,1.705.333,1.705,1.3,0,1.04-.783,1.238-1.641,1.238-.338,0-.888.088-.888.532v.35h2.541v.718h-3.312v-1.075c0-.94.853-1.221,1.659-1.221.31,0,.876-.052.876-.526,0-.444-.4-.654-.929-.654-.4,0-.818.2-.824.572Z" transform="translate(-308.977 -560.455)" fill="#cad510"/>
      <path id="Tracé_28864" data-name="Tracé 28864" d="M356.531,566.924a1.794,1.794,0,1,1,3.586,0v.59a1.794,1.794,0,1,1-3.586,0Zm.765.59a1.031,1.031,0,1,0,2.056,0v-.59a1.03,1.03,0,1,0-2.056,0Z" transform="translate(-349.244 -560.289)" fill="#cad510"/>
      <path id="Tracé_28865" data-name="Tracé 28865" d="M404.983,569.07h.613v-2.733h-.637v-.7h1.4v3.434h.567v.654h-1.945Z" transform="translate(-390.252 -560.747)" fill="#cad510"/>
      <path id="Tracé_28866" data-name="Tracé 28866" d="M446.3,565.673v2.558h.479v.747H446.3v.777h-.759v-.777H443.36l-.07-.782,1.84-2.523Zm-.759,2.558v-1.892l-1.384,1.892Z" transform="translate(-422.71 -560.778)" fill="#cad510"/>
    </g>
    <g id="Groupe_18221" data-name="Groupe 18221" transform="translate(46.864 100.036)">
      <path id="Tracé_28867" data-name="Tracé 28867" d="M368.713,670.383l.817,2.456,2.588.018-2.083,1.536.782,2.467-2.1-1.506-2.1,1.506.782-2.467-2.083-1.536,2.588-.018Z" transform="translate(-356.197 -667.698)" fill="#86878c"/>
      <path id="Tracé_28868" data-name="Tracé 28868" d="M309.02,652.863l-.28,1.65,1.471.8-1.656.244-.3,1.646-.743-1.5-1.659.22,1.2-1.17-.722-1.51,1.483.776Z" transform="translate(-305.851 -652.863)" fill="#cad510"/>
      <path id="Tracé_28869" data-name="Tracé 28869" d="M441.942,652.863l.28,1.65-1.471.8,1.656.244.3,1.646.743-1.5,1.659.22-1.2-1.17.722-1.51-1.483.776Z" transform="translate(-420.08 -652.863)" fill="#cad510"/>
    </g>
    <g id="Groupe_18223" data-name="Groupe 18223" transform="translate(29.18 12.22)">
      <path id="Tracé_28870" data-name="Tracé 28870" d="M203.937,106.379l27.626-15.931,1.6,24.657L212.68,117.25l-.162-5.685-9.188-3.748Z" transform="translate(-201.354 -88.809)" fill="#86878c"/>
      <path id="Tracé_28871" data-name="Tracé 28871" d="M240.223,104.816l10.031-5.574a1.7,1.7,0,0,0,.009-2.551l-10.04-5.773-7.415-4.263-11.864-6.821a.6.6,0,0,0-.614,0L201.05,90.917,191.01,96.69a1.7,1.7,0,0,0,.009,2.551l10.032,5.574.007,3.633c0,.458.264.806.557.74a87.234,87.234,0,0,1,12.532-1.87l6.49-.246,6.49.246a87.475,87.475,0,0,1,12.547,1.87c.294.066.558-.286.557-.745Zm-19.623-.585-6.49.246h-.022l-.022,0a88.712,88.712,0,0,0-11.165,1.565v-3.226l-1.218-.677-7.561-4.2,7.58-4.358L220.645,82.69v21.539Z" transform="translate(-190.437 -79.748)" fill="#494b52"/>
      <path id="Tracé_28872" data-name="Tracé 28872" d="M548.687,233.168h-.828v-1.825l.828-.445Z" transform="translate(-493.092 -207.738)" fill="#494b52"/>
      <g id="Groupe_18222" data-name="Groupe 18222" transform="translate(53.515 25.016)">
        <path id="Tracé_28873" data-name="Tracé 28873" d="M545.124,249.317h-2.4l.324-2.822a.883.883,0,0,1,.877-.782h0a.883.883,0,0,1,.877.782Z" transform="translate(-542.257 -245.299)" fill="#86878c"/>
        <path id="Tracé_28874" data-name="Tracé 28874" d="M543.022,247.443H539.69l.377-3.283a1.3,1.3,0,0,1,2.577,0Zm-2.4-.828h1.474l-.271-2.361a.469.469,0,0,0-.931,0Z" transform="translate(-539.69 -243.01)" fill="#494b52"/>
      </g>
    </g>
    <g id="Groupe_18248" data-name="Groupe 18248" transform="translate(11.176 48.506)">
      <g id="Groupe_18247" data-name="Groupe 18247">
        <g id="Groupe_18246" data-name="Groupe 18246">
          <g id="Groupe_18225" data-name="Groupe 18225" transform="translate(0 0.112)">
            <g id="Groupe_18224" data-name="Groupe 18224">
              <path id="Tracé_28875" data-name="Tracé 28875" d="M75.487,317.293V327.1H72.94v-9.809Z" transform="translate(-72.94 -317.293)" fill="#535355"/>
            </g>
          </g>
          <g id="Groupe_18227" data-name="Groupe 18227" transform="translate(4.17 2.855)">
            <g id="Groupe_18226" data-name="Groupe 18226">
              <path id="Tracé_28876" data-name="Tracé 28876" d="M105.666,335.346h2.421v6.913h-2.379l-.112-.742a2.849,2.849,0,0,1-2.281.868,3.266,3.266,0,0,1-3.162-3.582,3.364,3.364,0,0,1,3.358-3.61,2.273,2.273,0,0,1,2.029.9Zm-2.953,3.456a1.374,1.374,0,0,0,1.385,1.511,1.435,1.435,0,0,0,1.427-1.511,1.366,1.366,0,0,0-1.427-1.525A1.386,1.386,0,0,0,102.714,338.8Z" transform="translate(-100.153 -335.192)" fill="#535355"/>
            </g>
          </g>
          <g id="Groupe_18229" data-name="Groupe 18229" transform="translate(17.77 0.126)">
            <g id="Groupe_18228" data-name="Groupe 18228">
              <path id="Tracé_28877" data-name="Tracé 28877" d="M191.489,320.854a2.389,2.389,0,0,1,1.917-.742,3.326,3.326,0,0,1,3.358,3.61c0,2.183-1.133,3.456-3.162,3.582a2.849,2.849,0,0,1-2.281-.868l-.112.742h-2.295v-9.8h2.575Zm-.056,2.938a1.39,1.39,0,0,0,1.385,1.441,1.525,1.525,0,0,0,0-3.037A1.435,1.435,0,0,0,191.433,323.793Z" transform="translate(-188.914 -317.384)" fill="#535355"/>
            </g>
          </g>
          <g id="Groupe_18231" data-name="Groupe 18231" transform="translate(26.879 2.855)">
            <g id="Groupe_18230" data-name="Groupe 18230">
              <path id="Tracé_28878" data-name="Tracé 28878" d="M256.254,338.816c0,2.519-2,3.61-3.946,3.61-1.987,0-3.946-1.091-3.946-3.61,0-2.561,1.945-3.624,3.946-3.624C254.351,335.192,256.254,336.3,256.254,338.816Zm-2.519,0a1.429,1.429,0,1,0-1.427,1.5A1.418,1.418,0,0,0,253.735,338.816Z" transform="translate(-248.362 -335.192)" fill="#535355"/>
            </g>
          </g>
          <g id="Groupe_18233" data-name="Groupe 18233" transform="translate(36.394 3.009)">
            <g id="Groupe_18232" data-name="Groupe 18232">
              <path id="Tracé_28879" data-name="Tracé 28879" d="M313.033,343.109V336.2h-2.575v6.913Z" transform="translate(-310.458 -336.197)" fill="#535355"/>
            </g>
          </g>
          <g id="Groupe_18235" data-name="Groupe 18235" transform="translate(40.48 1.05)">
            <g id="Groupe_18234" data-name="Groupe 18234">
              <path id="Tracé_28880" data-name="Tracé 28880" d="M340.789,323.412v2h1.553v1.973h-1.567v2.267a.614.614,0,0,0,.686.672,1.46,1.46,0,0,0,.756-.238l.56,1.9a3.968,3.968,0,0,1-1.987.462c-1.371,0-2.6-.63-2.561-2.8v-2.267h-1.105v-1.973h1.105v-1.721Z" transform="translate(-337.123 -323.412)" fill="#535355"/>
            </g>
          </g>
          <g id="Groupe_18237" data-name="Groupe 18237" transform="translate(47.07 2.841)">
            <g id="Groupe_18236" data-name="Groupe 18236">
              <path id="Tracé_28881" data-name="Tracé 28881" d="M387.563,339.453h-4.828a1.588,1.588,0,0,0,1.539.882,2.864,2.864,0,0,0,1.777-.56l1.259,1.413a4.573,4.573,0,0,1-3.148,1.147c-2.183,0-4.03-1.077-4.03-3.6a3.577,3.577,0,0,1,3.848-3.638C386.43,335.1,388.151,336.724,387.563,339.453Zm-2.309-1.651c-.07-1.091-2.337-1.133-2.5,0Z" transform="translate(-380.133 -335.101)" fill="#535355"/>
            </g>
          </g>
          <g id="Groupe_18239" data-name="Groupe 18239" transform="translate(59.873 2.981)">
            <g id="Groupe_18238" data-name="Groupe 18238">
              <path id="Tracé_28882" data-name="Tracé 28882" d="M463.689,336.014v6.941h.686v-6.941Z" transform="translate(-463.689 -336.014)" fill="#535355"/>
            </g>
          </g>
          <g id="Groupe_18241" data-name="Groupe 18241" transform="translate(63.008 2.869)">
            <g id="Groupe_18240" data-name="Groupe 18240">
              <path id="Tracé_28883" data-name="Tracé 28883" d="M494.388,342.336v-4.142a2.138,2.138,0,0,0-2.211-2.267,2.183,2.183,0,0,0-2.225,2.309v4.1h-.686v-4.1a2.219,2.219,0,1,0-4.436,0v4.1h-.686v-6.912h.644l.014,1.147a2.434,2.434,0,0,1,2.253-1.287,2.542,2.542,0,0,1,2.561,1.707,2.671,2.671,0,0,1,2.561-1.707,2.781,2.781,0,0,1,2.9,2.911v4.142Z" transform="translate(-484.145 -335.284)" fill="#535355"/>
            </g>
          </g>
          <g id="Groupe_18243" data-name="Groupe 18243" transform="translate(76.356 2.869)">
            <g id="Groupe_18242" data-name="Groupe 18242">
              <path id="Tracé_28884" data-name="Tracé 28884" d="M581.5,342.336v-4.142a2.138,2.138,0,0,0-2.211-2.267,2.184,2.184,0,0,0-2.225,2.309v4.1h-.686v-4.1a2.219,2.219,0,1,0-4.436,0v4.1h-.686v-6.912h.644l.014,1.147a2.435,2.435,0,0,1,2.253-1.287,2.542,2.542,0,0,1,2.561,1.707,2.671,2.671,0,0,1,2.561-1.707,2.781,2.781,0,0,1,2.9,2.911v4.142Z" transform="translate(-571.262 -335.284)" fill="#535355"/>
            </g>
          </g>
          <g id="Groupe_18245" data-name="Groupe 18245" transform="translate(89.383 2.883)">
            <g id="Groupe_18244" data-name="Groupe 18244">
              <path id="Tracé_28885" data-name="Tracé 28885" d="M656.279,338.971a3.513,3.513,0,1,1,7.024,0,3.512,3.512,0,1,1-7.024,0Zm6.353,0a2.843,2.843,0,1,0-5.681,0,2.841,2.841,0,1,0,5.681,0Z" transform="translate(-656.279 -335.375)" fill="#535355"/>
            </g>
          </g>
          <path id="Tracé_28886" data-name="Tracé 28886" d="M304.811,316.562l1.875,2.225v.112H304.7l-.6-.63-.63.63h-1.959v-.112l1.889-2.225Z" transform="translate(-266.486 -316.562)" fill="#bed00b"/>
          <path id="Tracé_28887" data-name="Tracé 28887" d="M463.516,318.479a.553.553,0,0,1-1.106,0A.553.553,0,0,1,463.516,318.479Z" transform="translate(-402.733 -317.723)" fill="#bed00b"/>
        </g>
      </g>
    </g>
  </g>
</svg>
