<svg xmlns="http://www.w3.org/2000/svg" width="78.523" height="90" viewBox="0 0 78.523 90">
  <g id="Loi_ALUR" data-name="Loi ALUR" transform="translate(-610 -7286)">
    <rect id="Rectangle_4511" data-name="Rectangle 4511" width="29.756" height="20.512" transform="translate(634.384 7286)" fill="#bed000"/>
    <path id="Tracé_32721" data-name="Tracé 32721" d="M31.119,88.684V109.2L46,101.55,60.876,109.2V88.684Z" transform="translate(603.265 7266.805)" fill="#bed000"/>
    <path id="Tracé_32722" data-name="Tracé 32722" d="M5.425,71h2l.5-2.839h-2Zm4.7,2.61-.842,4.751H7.555a.964.964,0,0,1-.427-.1,1.075,1.075,0,0,1-.343-.259,1.2,1.2,0,0,1-.229-.385,1.318,1.318,0,0,1-.084-.474c0-.041,0-.085.006-.132s.01-.092.017-.132l.578-3.272H5.088L4.5,77.062a1.615,1.615,0,0,1-.216.6,1.381,1.381,0,0,1-.385.4,1.639,1.639,0,0,1-.5.229,2.2,2.2,0,0,1-.559.071H1.179l.842-4.751H.963a1.04,1.04,0,0,1-.71-.223A.961.961,0,0,1,0,72.636c0-.071,0-.149.013-.228s.02-.165.036-.252L.241,71H2.37l.505-2.839H.481L.77,66.645a1.264,1.264,0,0,1,.475-.818,2.02,2.02,0,0,1,1.161-.264h.817l.626-3.524a1.316,1.316,0,0,1,.541-.884,1.712,1.712,0,0,1,1.022-.32H7.122l-.842,4.728h2l.842-4.728h1.66a1.261,1.261,0,0,1,.86.289.948.948,0,0,1,.331.747v.09a.49.49,0,0,1-.013.1l-.625,3.5h2.333l-.288,1.516a1.241,1.241,0,0,1-.476.824,2.046,2.046,0,0,1-1.16.259h-.758L10.478,71h1.311a1.043,1.043,0,0,1,.71.222.961.961,0,0,1,.253.751c0,.073,0,.15-.013.229s-.02.165-.036.252l-.193,1.156Z" transform="translate(610 7272.832)" fill="#bed000"/>
    <path id="Tracé_32723" data-name="Tracé 32723" d="M24.433,71.661h4.787l-1.612-4.8q-.156-.456-.367-1.077t-.415-1.341c-.129.489-.26.943-.4,1.359s-.264.778-.386,1.082Zm11.259,6.7H32.541a1.453,1.453,0,0,1-.872-.246,1.267,1.267,0,0,1-.475-.632l-1.035-3.055H23.5L22.46,77.483a1.39,1.39,0,0,1-1.323.878H17.961l6.785-17.526h4.162Z" transform="translate(606.112 7272.832)" fill="#333"/>
    <path id="Tracé_32724" data-name="Tracé 32724" d="M46.9,75.114h6.5v3.248H42.832V60.835H46.9Z" transform="translate(600.73 7272.832)" fill="#333"/>
    <path id="Tracé_32725" data-name="Tracé 32725" d="M66.419,75.149a3.732,3.732,0,0,0,1.461-.271,2.96,2.96,0,0,0,1.089-.776,3.442,3.442,0,0,0,.679-1.233,5.4,5.4,0,0,0,.234-1.655V60.834h4.066V71.215a8.1,8.1,0,0,1-.523,2.96,6.645,6.645,0,0,1-1.5,2.322,6.768,6.768,0,0,1-2.369,1.515,9.4,9.4,0,0,1-6.291,0A6.757,6.757,0,0,1,60.9,76.5a6.564,6.564,0,0,1-1.491-2.322,8.18,8.18,0,0,1-.517-2.96V60.834h4.065V71.2a5.392,5.392,0,0,0,.235,1.653,3.474,3.474,0,0,0,.679,1.239,2.915,2.915,0,0,0,1.089.782,3.726,3.726,0,0,0,1.461.271" transform="translate(597.253 7272.833)" fill="#333"/>
    <path id="Tracé_32726" data-name="Tracé 32726" d="M85.983,69.076h1.636a4.188,4.188,0,0,0,1.414-.211,2.534,2.534,0,0,0,.956-.583,2.228,2.228,0,0,0,.541-.872,3.355,3.355,0,0,0,.168-1.077,2.262,2.262,0,0,0-.751-1.8,3.5,3.5,0,0,0-2.328-.65H85.983Zm0,2.8v6.483H81.917V60.836h5.7a11.687,11.687,0,0,1,3.242.391,6.1,6.1,0,0,1,2.189,1.088,4.133,4.133,0,0,1,1.233,1.648,5.47,5.47,0,0,1,.385,2.069,5.562,5.562,0,0,1-.229,1.612,4.857,4.857,0,0,1-.679,1.4,5.277,5.277,0,0,1-1.106,1.15,5.96,5.96,0,0,1-1.51.829,3.82,3.82,0,0,1,.764.505,3.029,3.029,0,0,1,.62.733l3.728,6.1H92.574a1.56,1.56,0,0,1-1.467-.769L88.2,72.5a1.222,1.222,0,0,0-.451-.48,1.51,1.51,0,0,0-.728-.145Z" transform="translate(592.268 7272.832)" fill="#333"/>
    <path id="Tracé_32727" data-name="Tracé 32727" d="M29.4,47.629h8.46v1.1H28.112V30.885H29.4Z" transform="translate(603.915 7279.315)" fill="#333"/>
    <path id="Tracé_32728" data-name="Tracé 32728" d="M58.009,39.744a10.188,10.188,0,0,0-.517-3.354,7.23,7.23,0,0,0-1.457-2.521,6.241,6.241,0,0,0-2.263-1.584,7.628,7.628,0,0,0-2.938-.548,7.513,7.513,0,0,0-2.906.548,6.39,6.39,0,0,0-2.27,1.584,7.191,7.191,0,0,0-1.475,2.521,11.026,11.026,0,0,0,0,6.713,7.205,7.205,0,0,0,1.475,2.515,6.311,6.311,0,0,0,2.27,1.576,7.555,7.555,0,0,0,2.906.541,7.671,7.671,0,0,0,2.938-.541,6.166,6.166,0,0,0,2.263-1.576A7.244,7.244,0,0,0,57.492,43.1a10.183,10.183,0,0,0,.517-3.36m1.336,0a10.836,10.836,0,0,1-.617,3.751,8.335,8.335,0,0,1-1.74,2.875A7.705,7.705,0,0,1,54.3,48.21a9.52,9.52,0,0,1-6.909,0,7.712,7.712,0,0,1-2.686-1.841,8.406,8.406,0,0,1-1.746-2.875,11.553,11.553,0,0,1,0-7.489,8.391,8.391,0,0,1,1.746-2.875,7.783,7.783,0,0,1,2.686-1.848,8.824,8.824,0,0,1,3.442-.656,8.972,8.972,0,0,1,3.466.65,7.65,7.65,0,0,1,2.686,1.848,8.385,8.385,0,0,1,1.74,2.881,10.792,10.792,0,0,1,.617,3.738" transform="translate(600.836 7279.371)" fill="#333"/>
    <rect id="Rectangle_4512" data-name="Rectangle 4512" width="1.298" height="17.841" transform="translate(665.198 7310.199)" fill="#333"/>
  </g>
</svg>
