<svg xmlns="http://www.w3.org/2000/svg" xmlns:xlink="http://www.w3.org/1999/xlink" width="51.245" height="42.659" viewBox="0 0 51.245 42.659"><defs><style>.a{fill:url(#a);}.b{fill:#cd7500;}.c{fill:#e39613;}.d{fill:url(#e);}.e{fill:url(#f);}.f{filter:url(#b);}</style><linearGradient id="a" y1="0.5" x2="1" y2="0.5" gradientUnits="objectBoundingBox"><stop offset="0.004" stop-color="#ffc641"/><stop offset="1" stop-color="#f3b63c"/></linearGradient><filter id="b" x="0" y="0" width="51.245" height="42.659" filterUnits="userSpaceOnUse"><feOffset dy="3" input="SourceAlpha"/><feGaussianBlur stdDeviation="3" result="c"/><feFlood flood-opacity="0.455"/><feComposite operator="in" in2="c"/><feComposite in="SourceGraphic"/></filter><linearGradient id="e" x1="0.019" y1="0.069" x2="0.838" y2="0.553" gradientUnits="objectBoundingBox"><stop offset="0" stop-color="#dda314"/><stop offset="1" stop-color="#e39613"/></linearGradient><linearGradient id="f" y1="0.5" x2="1" y2="0.5" gradientUnits="objectBoundingBox"><stop offset="0.004" stop-color="#ffe878"/><stop offset="1" stop-color="#ffdd57"/></linearGradient></defs><g transform="translate(-254 -5848)"><g class="f" transform="matrix(1, 0, 0, 1, 254, 5848)"><rect class="a" width="33.245" height="24.659" rx="3.113" transform="translate(9 6)"/></g><g transform="translate(981.944 5762.963)"><rect class="b" width="30.025" height="22.27" rx="3.113" transform="translate(-717.334 95.676)"/><rect class="c" width="31.594" height="23.434" rx="3.113" transform="translate(-718.118 93.466)"/><rect class="a" width="33.245" height="24.659" rx="3.113" transform="translate(-718.944 91.037)"/><path class="d" d="M-685.7,96.165v.8l-15.921,11.592a1.229,1.229,0,0,1-1.4,0l-15.921-11.592v-.8Z" transform="translate(0 -2.458)"/><path class="e" d="M-685.7,93.707V92.658a1.621,1.621,0,0,0-1.621-1.621h-30a1.62,1.62,0,0,0-1.62,1.621v1.049l15.739,10.006a1.648,1.648,0,0,0,1.768,0Z" transform="translate(0)"/></g></g></svg>