<svg xmlns="http://www.w3.org/2000/svg" xmlns:xlink="http://www.w3.org/1999/xlink" width="59.093" height="59.094" viewBox="0 0 59.093 59.094">
  <defs>
    <linearGradient id="linear-gradient" x1="0.5" x2="0.5" y2="1" gradientUnits="objectBoundingBox">
      <stop offset="0" stop-color="#bed000"/>
      <stop offset="1" stop-color="#62aa42"/>
    </linearGradient>
  </defs>
  <g id="barèmes_prix" data-name="barèmes prix" transform="translate(-704.658 -339.854)">
    <circle id="Ellipse_544" data-name="Ellipse 544" cx="29.5" cy="29.5" r="29.5" transform="translate(704.751 339.855)" fill="#bed000"/>
    <path id="Tracé_27497" data-name="Tracé 27497" d="M753.37,398.324A22.782,22.782,0,0,0,721.948,366.9a.949.949,0,0,1-1.453-.976A28.291,28.291,0,0,1,723,358.914a29.434,29.434,0,1,0,38.354,38.354,28.285,28.285,0,0,1-7.012,2.509A.949.949,0,0,1,753.37,398.324Z" transform="translate(0 -16.666)" fill="url(#linear-gradient)"/>
    <circle id="Ellipse_545" data-name="Ellipse 545" cx="20.889" cy="20.889" r="20.889" transform="translate(713.203 348.625)" fill="#edebed"/>
    <path id="Tracé_27498" data-name="Tracé 27498" d="M806.721,507.739a18.028,18.028,0,0,0,24.969,24.969.664.664,0,0,0-.265-1.2,28.5,28.5,0,0,1-23.5-23.5A.664.664,0,0,0,806.721,507.739Z" transform="translate(-87.703 -148.12)" fill="#dbd9dc"/>
    <path id="Tracé_27499" data-name="Tracé 27499" d="M863.529,506.912a8.761,8.761,0,0,1-6.07,2.517,9.379,9.379,0,0,1-8.726-6.831h9.676a1.187,1.187,0,0,0,0-2.374H848.248c-.029-.33-.046-.664-.046-1s.017-.672.046-1h10.161a1.187,1.187,0,0,0,0-2.374h-9.676a9.379,9.379,0,0,1,8.726-6.831,8.761,8.761,0,0,1,6.07,2.517,1.187,1.187,0,0,0,1.645-1.712,11.127,11.127,0,0,0-7.714-3.179,11.827,11.827,0,0,0-11.193,9.2h-2.1a1.187,1.187,0,0,0,0,2.374h1.708c-.024.332-.047.664-.047,1s.023.671.047,1h-1.708a1.187,1.187,0,0,0,0,2.374h2.1a11.827,11.827,0,0,0,11.193,9.2,11.128,11.128,0,0,0,7.714-3.179,1.187,1.187,0,0,0-1.645-1.712Z" transform="translate(-122.419 -129.709)" fill="#9c969e"/>
  </g>
</svg>
