<svg xmlns="http://www.w3.org/2000/svg" xmlns:xlink="http://www.w3.org/1999/xlink" width="155.412" height="59.204" viewBox="0 0 155.412 59.204">
  <defs>
    <linearGradient id="linear-gradient" x1="0.5" x2="0.5" y2="1" gradientUnits="objectBoundingBox">
      <stop offset="0" stop-color="#bed000"/>
      <stop offset="1" stop-color="#62aa42"/>
    </linearGradient>
  </defs>
  <g id="formulaires" transform="translate(-799.075 -25.418)">
    <rect id="Rectangle_3193" data-name="Rectangle 3193" width="59.204" height="59.204" rx="8.44" transform="translate(802.776 25.418)" fill="url(#linear-gradient)"/>
    <path id="Tracé_27494" data-name="Tracé 27494" d="M887.176,25.418h-29.6a7.4,7.4,0,0,0-7.4,7.4v44.4a7.4,7.4,0,0,0,7.4,7.4h29.6a7.4,7.4,0,0,0,7.4-7.4v-44.4A7.4,7.4,0,0,0,887.176,25.418Z" transform="translate(-32.596 0)" fill="#bed000"/>
    <path id="Tracé_27495" data-name="Tracé 27495" d="M1013.688,61.625v-3.7a1.851,1.851,0,0,1,1.85-1.852h66.606a1.851,1.851,0,0,1,1.85,1.852v3.7a1.851,1.851,0,0,1-1.85,1.85h-66.606A1.851,1.851,0,0,1,1013.688,61.625Zm1.85,16.652h74.006a1.851,1.851,0,0,0,1.85-1.85v-3.7a1.851,1.851,0,0,0-1.85-1.85h-74.006a1.851,1.851,0,0,0-1.85,1.85v3.7A1.851,1.851,0,0,0,1015.538,78.277Zm0,14.8h44.4a1.849,1.849,0,0,0,1.85-1.85v-3.7a1.85,1.85,0,0,0-1.85-1.85h-44.4a1.851,1.851,0,0,0-1.85,1.85v3.7A1.85,1.85,0,0,0,1015.538,93.077Z" transform="translate(-136.906 -19.556)" fill="#494b52"/>
    <path id="Tracé_27496" data-name="Tracé 27496" d="M864.38,29.078l4.143,4.143a2.931,2.931,0,0,1,0,4.144L828.369,77.517a5.858,5.858,0,0,1-8.285,0l-20.151-20.15a2.929,2.929,0,0,1,0-4.143l4.143-4.143a2.929,2.929,0,0,1,4.143,0l13.937,13.936a2.929,2.929,0,0,0,4.143,0l33.939-33.939A2.929,2.929,0,0,1,864.38,29.078Z" transform="translate(0 -1.787)" fill="#efefef"/>
  </g>
</svg>
