<svg xmlns="http://www.w3.org/2000/svg" viewBox="0 0 56.96 93.43"><defs><style>.cls-1{fill:#fff;}.cls-2{fill:#bed000;}</style></defs><g id="Calque_2" data-name="Calque 2"><g id="logo_VV" data-name="logo VV"><g id="Groupe_19563" data-name="Groupe 19563"><path id="Tracé_33224" data-name="Tracé 33224" class="cls-1" d="M30.27,56.21H17.61L3,29.51,16.62,8.15H41.94L53.41,29.51,41.15,56.21Z"/><path id="Tracé_15680" data-name="Tracé 15680" class="cls-2" d="M28.48,0C12.73,0,0,13.08,0,29.27A31.2,31.2,0,0,0,3.18,42.82l21.21,48a4.51,4.51,0,0,0,3.94,2.65,4.33,4.33,0,0,0,3.94-2.65l21.21-48A27.67,27.67,0,0,0,57,29.27C57,13.09,44.24,0,28.48,0ZM49.9,35.44,41.45,50.07a3.07,3.07,0,0,1-2.67,1.54H19.55a3.07,3.07,0,0,1-2.67-1.54L7.26,33.42a3.08,3.08,0,0,1,0-3.08l9.62-16.66a3.09,3.09,0,0,1,2.67-1.54H38.78a3.09,3.09,0,0,1,2.67,1.54L49.9,28.32a1.6,1.6,0,0,1-.58,2.16h0a1.56,1.56,0,0,1-.79.21H31.2a2.34,2.34,0,0,1-2-1.18l-6.37-11a.8.8,0,0,0-1.09-.29L21,18.6a.8.8,0,0,0-.3,1.09l6.37,11a2.35,2.35,0,0,1,0,2.35l-6.37,11a.79.79,0,0,0,.3,1.09l.67.39a.8.8,0,0,0,1.09-.29l6.37-11a2.36,2.36,0,0,1,2-1.18H48.52a1.59,1.59,0,0,1,1.58,1.59,1.55,1.55,0,0,1-.21.78Z"/></g></g></g></svg>