<?xml version="1.0" encoding="utf-8"?>
<!-- Generator: Adobe Illustrator 25.2.1, SVG Export Plug-In . SVG Version: 6.00 Build 0)  -->
<svg version="1.1" id="logo_VV" xmlns="http://www.w3.org/2000/svg" xmlns:xlink="http://www.w3.org/1999/xlink" x="0px" y="0px"
	 viewBox="0 0 1445.8 869.8" style="enable-background:new 0 0 1445.8 869.8;" xml:space="preserve">
<style type="text/css">
	.st0{fill:#EFEFEF;}
	.st1{fill:url(#SVGID_1_);}
</style>
<path class="st0" d="M35.2,0c-60.7,157.9-50,325.2,87.9,476.3c209.3,229.3,419.6,38,574.1,160.6c234.9,186.6,569.2,417,720.4-5.9
	c73.9-206.8-6.3-437.3-136.9-631H35.2z"/>
<linearGradient id="SVGID_1_" gradientUnits="userSpaceOnUse" x1="508.5457" y1="606.3514" x2="1109.8644" y2="115.802">
	<stop  offset="0" style="stop-color:#F8B500"/>
	<stop  offset="1" style="stop-color:#F27F00"/>
</linearGradient>
<path class="st1" d="M264.1,0c-27.6,93.9-19,196.3,43.7,303C444.1,535.4,657,410.9,766,542.8c165.8,200.7,407.9,456.4,612.4,124.8
	C1498,473.6,1436.5,211,1326.2,0H264.1z"/>
</svg>
