<svg xmlns="http://www.w3.org/2000/svg" viewBox="0 0 41.5 41.43"><defs><style>.cls-1,.cls-2{fill:#bed000;}.cls-2{fill-rule:evenodd;}</style></defs><g id="Calque_2" data-name="Calque 2"><g id="Calque_3" data-name="Calque 3"><g id="AI_telephone" data-name="AI telephone"><circle id="Ellipse_4" data-name="Ellipse 4" class="cls-1" cx="12.99" cy="15.54" r="2.62"/><circle id="Ellipse_5" data-name="Ellipse 5" class="cls-1" cx="20.72" cy="15.54" r="2.62"/><circle id="Ellipse_6" data-name="Ellipse 6" class="cls-1" cx="28.46" cy="15.54" r="2.62"/><circle id="Ellipse_7" data-name="Ellipse 7" class="cls-1" cx="12.99" cy="23.34" r="2.62"/><circle id="Ellipse_8" data-name="Ellipse 8" class="cls-1" cx="20.72" cy="23.34" r="2.62"/><circle id="Ellipse_9" data-name="Ellipse 9" class="cls-1" cx="28.46" cy="23.34" r="2.62"/><circle id="Ellipse_10" data-name="Ellipse 10" class="cls-1" cx="12.99" cy="31.07" r="2.62"/><circle id="Ellipse_11" data-name="Ellipse 11" class="cls-1" cx="20.72" cy="31.07" r="2.62"/><circle id="Ellipse_12" data-name="Ellipse 12" class="cls-1" cx="28.46" cy="31.07" r="2.62"/><path id="Tracé_325" data-name="Tracé 325" class="cls-2" d="M40.81,5.52a39.32,39.32,0,0,0-40.18,0A1.36,1.36,0,0,0,.21,7.39h0L3,11.81a1.33,1.33,0,0,0,1.8.41,27.69,27.69,0,0,1,6.22-2.76,1.25,1.25,0,0,0,.84-1.54.43.43,0,0,1,0,0L11.2,5.32A36.14,36.14,0,0,1,20.79,4a37,37,0,0,1,9.6,1.31L29.7,7.87a1.3,1.3,0,0,0,.83,1.58,31.13,31.13,0,0,1,6.21,2.77,1.41,1.41,0,0,0,1.8-.42l2.84-4.42A1.51,1.51,0,0,0,40.81,5.52Z"/><circle id="Ellipse_13" data-name="Ellipse 13" class="cls-1" cx="20.72" cy="38.8" r="2.62"/></g></g></g></svg>