<svg xmlns="http://www.w3.org/2000/svg" xmlns:xlink="http://www.w3.org/1999/xlink" width="1922" height="1650.191" viewBox="0 0 1922 1650.191">
  <defs>
    <linearGradient id="linear-gradient" x1="0.567" y1="0.062" x2="0.458" y2="0.556" gradientUnits="objectBoundingBox">
      <stop offset="0" stop-color="#494b52"/>
      <stop offset="1" stop-color="#1f1f1f"/>
    </linearGradient>
  </defs>
  <path id="Soustraction_7" data-name="Soustraction 7" d="M-10637.5,14652.761v0c-41.719-24.146-85.354-50.45-129.693-78.183-40.677-25.442-83.444-53.026-127.113-81.985-73.483-48.732-150.666-102-242.9-167.641-14.881-10.59-30.279-20.516-45.77-29.5-15.1-8.76-30.735-16.888-46.477-24.16-15.3-7.07-31.173-13.548-47.17-19.253-15.513-5.53-31.613-10.5-47.855-14.778-15.7-4.132-32.028-7.745-48.528-10.738-15.881-2.881-32.432-5.28-49.191-7.133-16.028-1.772-32.8-3.105-49.842-3.962-16.155-.812-33.14-1.224-50.482-1.224-21,0-42.58.574-65.972,1.757-20.889,1.055-42.8,2.576-66.993,4.65-44.961,3.855-89.6,8.907-136.852,14.256l-.121.014-7.787.882-.315.035c-51.263,5.8-97.57,10.916-145.19,14.847-26.34,2.175-50.562,3.776-74.048,4.894-26.255,1.249-50.782,1.855-74.983,1.855-82.531,0-157.162-7.3-228.158-22.319-19.574-4.141-39.162-8.947-58.222-14.286-19.708-5.521-39.448-11.778-58.674-18.6-19.832-7.036-39.721-14.885-59.116-23.328-19.961-8.69-40-18.271-59.549-28.473V13003.5h1921v1649.261Z" transform="translate(12559 -13003)" stroke="rgba(0,0,0,0)" stroke-miterlimit="10" stroke-width="1" fill="url(#linear-gradient)"/>
</svg>
