<svg xmlns="http://www.w3.org/2000/svg" width="1022.804" height="952.185" viewBox="0 0 1022.804 952.185">
  <g id="shape_3" data-name="shape 3" transform="translate(807.849 -196.345) rotate(69)">
    <path id="forme_fond_grise_foncée" data-name="forme fond grise foncée" d="M201.429,53.344C126.529,99.011,70.382,172.171,35.261,251.731.41,330.685-15.176,423.059,19.392,504.918a199.411,199.411,0,0,0,14.9,28.614c2.057,5.132,4.247,10.04,6.343,14.509,16.512,35.194,44.945,64.062,82.034,77.078,35.973,12.625,72.307,7.651,105.814-9.377,31.369-15.943,59.773-40.144,94.343-49.094,41.3-10.693,81.556,8.447,117.205,27.542,42.133,22.569,83.648,45.751,130.448,57.289,39.322,9.695,81.437,10.366,119.914-3.373,37.013-13.215,67.5-40.935,87.488-74.417C821.536,500.569,817.556,408.475,798.7,328.2c-18.266-77.743-55.269-151.145-116-204.247-34.887-30.5-76.083-53.269-117.435-73.721-43.174-21.355-88.666-39.687-136.55-46.908C349.852-8.563,268.93,12.189,201.429,53.344Z" transform="translate(1043.152 481.676) rotate(137)" fill="none" stroke="#e1e1e1" stroke-width="3"/>
    <path id="forme_fond_grise_foncée-2" data-name="forme fond grise foncée" d="M168.142,44.529c-62.523,38.12-109.391,99.19-138.708,165.6C.342,276.039-12.668,353.147,16.187,421.479a166.469,166.469,0,0,0,12.441,23.885c1.717,4.284,3.545,8.381,5.3,12.112,13.783,29.378,37.518,53.476,68.478,64.341,30.028,10.539,60.358,6.387,88.328-7.827,26.185-13.308,49.9-33.51,78.752-40.981,34.475-8.926,68.079,7.051,97.837,22.991,35.17,18.839,69.825,38.191,108.891,47.822,32.824,8.092,67.979,8.653,100.1-2.816,30.9-11.031,56.344-34.17,73.031-62.119,36.439-61.036,33.116-137.911,17.372-204.92-15.247-64.9-46.135-126.168-96.832-170.495C540.755,78.007,506.367,59,471.848,41.932,435.809,24.106,397.835,8.8,357.863,2.776,292.038-7.148,224.489,10.175,168.142,44.529Z" transform="translate(956.96 487.644) rotate(137)" fill="none" stroke="#e1e1e1" stroke-width="2"/>
    <path id="forme_fond_grise_foncée-3" data-name="forme fond grise foncée" d="M150.676,39.9c-56.028,34.16-98.028,88.887-124.3,148.4C.307,247.365-11.352,316.464,14.506,377.7a149.16,149.16,0,0,0,11.148,21.4c1.539,3.839,3.177,7.51,4.745,10.854,12.352,26.326,33.621,47.921,61.364,57.657,26.909,9.444,54.088,5.724,79.152-7.014,23.465-11.926,44.712-30.029,70.572-36.724,30.894-8,61.007,6.319,87.674,20.6,31.517,16.882,62.572,34.224,97.58,42.854,29.414,7.252,60.917,7.754,89.7-2.523,27.687-9.885,50.491-30.621,65.445-55.667,32.653-54.7,29.676-123.586,15.568-183.634C583.79,187.352,556.111,132.445,510.68,92.722c-26.1-22.818-56.913-39.847-87.845-55.146C390.539,21.6,356.51,7.889,320.69,2.488,261.7-6.406,201.17,9.118,150.676,39.9Z" transform="translate(911.734 490.775) rotate(137)" fill="#efefef"/>
  </g>
</svg>
