<svg xmlns="http://www.w3.org/2000/svg" width="886.653" height="770.691" viewBox="0 0 886.653 770.691">
  <g id="Groupe_16597" data-name="Groupe 16597" transform="translate(882.447 -33.833)">
    <path id="Tracé_21043" data-name="Tracé 21043" d="M1325.443,602.578c0-11.323-66.913-20.5-149.471-20.5s-149.469,9.179-149.469,20.5,66.913,20.487,149.469,20.487S1325.443,613.89,1325.443,602.578Z" transform="translate(-1908.95 175.968)" fill="#1f1f1f" opacity="0.2" style="isolation: isolate"/>
    <path id="Tracé_21043-2" data-name="Tracé 21043" d="M1325.443,602.578c0-11.323-66.913-20.5-149.471-20.5s-149.469,9.179-149.469,20.5,66.913,20.487,149.469,20.487S1325.443,613.89,1325.443,602.578Z" transform="translate(-1329.95 175.968)" fill="#1f1f1f" opacity="0.2" style="isolation: isolate"/>
    <g id="Groupe_16571" data-name="Groupe 16571" transform="translate(-196.025 106.884)">
      <g id="Groupe_16570" data-name="Groupe 16570">
        <path id="_151448784" data-name=" 151448784" d="M-213.325,220.044c14.5-11.244,29.006-27.507,28.179-42.969l-.159-2.986L-241.526,136.6q1.25-1.839,2.5-3.713c-15.1-6.151-31.539-16.347-42.488-33.158-4.572,12.1-9.416,24.492-14.683,37.759-5.628-11.6-6.112-19.083-14.979-30.473-5.519-7.093-16.622-17.874-25.5-20.356-27.15-7.6-51.472,20.262-48.407,32,1.192,4.569,5.519,7.434,9.06,10.156,17.545,13.493,30.68,29.087,43.453,46.976,6.564,9.189,8.588,21.193,15.492,30.2,3.605,4.705,11.363,12.9,27.621,17.007,17.076,32.532,58.987,10.353,76.129-2.949Z" transform="translate(385.344 -85.361)" fill="#494b52"/>
        <path id="_151447968" data-name=" 151447968" d="M-286.847,218.03c-9.857-3.066-21.895-10.472-27.232-17.437-6.049-7.894-8.563-20.5-15.372-30.041-11.422-15.993-24.785-32.943-44.671-48.237-7.82-6.015-9.555-6.809-3.123-16.38,7.617-11.337,23-19.286,37.224-15.305,7.263,2.032,23.115,15.312,29.189,29.468,3.086,7.193,6.639,17.725,10.268,23.066-2.718,8.9-7.621,20.646-5.315,28.891,10.539-27.056,18.987-47.765,26.862-68.233,9.221,11.523,21.1,19.441,32.7,24.865q-2.648,3.966-5.3,7.738l58.78,39.2c.034,23.234-52.711,62.457-76.922,55.461a48.251,48.251,0,0,1-17.085-13.058Z" transform="translate(387.082 -83.595)" fill="#fff"/>
      </g>
    </g>
    <g id="Groupe_16573" data-name="Groupe 16573" transform="translate(-587.259 49.113)">
      <path id="Tracé_25141" data-name="Tracé 25141" d="M-469.687,144.462q0-55.585-13.73-69.306-12.349-11.662-52.836-11.666-41.869,0-54.214,11.666-13.735,15.1-13.73,69.306V252.2q0,46.673,10.3,62.45,6.848,9.614,21.275,14.068,14.418,4.474,36.372,4.461,44.6,0,57.644-19.217,5.482-6.847,7.2-22.3a371,371,0,0,0,1.72-39.464Z" transform="translate(685.166 -36.726)" fill="#fff"/>
      <path id="Tracé_25142" data-name="Tracé 25142" d="M-547.675,127.724a8.054,8.054,0,0,1,8.057-8.051,8.052,8.052,0,0,1,8.054,8.051" transform="translate(708.775 -13.259)" fill="none" stroke="#f59a00" stroke-linecap="round" stroke-miterlimit="10" stroke-width="4"/>
      <path id="Tracé_25143" data-name="Tracé 25143" d="M-560.606,127.724a8.059,8.059,0,0,1-8.06,8.062,8.058,8.058,0,0,1-8.054-8.062,8.055,8.055,0,0,1,8.054-8.051A8.055,8.055,0,0,1-560.606,127.724Z" transform="translate(696.643 -13.259)" fill="#f59a00"/>
      <g id="Groupe_16572" data-name="Groupe 16572">
        <path id="Tracé_25144" data-name="Tracé 25144" d="M-479.893,58.884c-.13-.082-.251-.159-.38-.237.128.077.245.163.371.24Z" transform="translate(736.927 -38.748)" fill="#fff" opacity="0.16"/>
        <path id="Tracé_25145" data-name="Tracé 25145" d="M-404.285,64.749c-.126-.077-.244-.163-.372-.24Q-437.6,44.618-512.4,44.611q-73.442,0-104.312,17.837-44.617,24.7-44.6,89.9V260.09c0,2.393.062,4.731.154,7.042.025.635.058,1.265.091,1.894q.145,2.843.384,5.6c.037.425.064.861.1,1.283.207,2.165.465,4.283.76,6.368.082.573.176,1.134.265,1.7q.372,2.409.828,4.746c.114.577.219,1.158.339,1.73.407,1.939.852,3.848,1.344,5.712.126.476.269.938.4,1.411q.6,2.163,1.283,4.256c.206.629.413,1.259.628,1.88q.787,2.265,1.667,4.447.3.738.608,1.469.9,2.129,1.9,4.172c.3.628.621,1.246.94,1.861q.84,1.625,1.745,3.194c.308.536.6,1.085.92,1.612.845,1.4,1.731,2.757,2.65,4.09.408.59.835,1.164,1.258,1.741q.946,1.3,1.942,2.548c.459.576.913,1.157,1.386,1.718.092.109.193.21.285.318a81.208,81.208,0,0,0,22.716,18.421q30.879,17.854,104.312,17.842t107.741-19.9q40.487-24.015,40.489-87.155V152.348Q-364.168,88.831-404.285,64.749ZM-445.832,260.09a371,371,0,0,1-1.72,39.464q-1.712,15.438-7.2,22.3-13.036,19.224-57.644,19.217-21.971,0-36.372-4.461-14.416-4.451-21.275-14.068-10.294-15.777-10.3-62.45V152.348q0-54.2,13.73-69.306Q-554.265,71.38-512.4,71.375q40.476,0,52.836,11.666a27.99,27.99,0,0,1,5.219,7.8q8.5,17.822,8.512,61.509Z" transform="translate(661.311 -44.611)" fill="#494b52"/>
        <path id="Tracé_25146" data-name="Tracé 25146" d="M-580.341,152.348q0-54.2,13.73-69.306Q-554.265,71.38-512.4,71.375q40.476,0,52.836,11.666a27.99,27.99,0,0,1,5.219,7.8,564.175,564.175,0,0,1,50.058-26.09c-.126-.077-.244-.163-.372-.24Q-437.6,44.618-512.4,44.611q-73.442,0-104.312,17.837-44.617,24.7-44.6,89.9V260.09c0,2.393.062,4.731.154,7.042.025.635.058,1.265.091,1.894q.145,2.843.384,5.6c.037.425.064.861.1,1.283.207,2.165.465,4.283.76,6.368.082.573.176,1.134.265,1.7q.372,2.409.828,4.746c.114.577.219,1.158.339,1.73.407,1.939.852,3.848,1.344,5.712.126.476.269.938.4,1.411q.6,2.163,1.283,4.256c.206.629.413,1.259.628,1.88q.787,2.265,1.667,4.447.3.738.608,1.469.9,2.129,1.9,4.172c.3.628.621,1.246.94,1.861q.84,1.625,1.745,3.194c.308.536.6,1.085.92,1.612.845,1.4,1.731,2.757,2.65,4.09.408.59.835,1.164,1.258,1.741q.946,1.3,1.942,2.548c.459.576.913,1.157,1.386,1.718.092.109.193.21.285.318A324.674,324.674,0,0,1-580.341,200.4Z" transform="translate(661.311 -44.611)" fill="#63646c"/>
      </g>
      <path id="Tracé_25147" data-name="Tracé 25147" d="M-589.963,194.465c-21.313-8.529-33.571-28.775-45.294-46.888,10.66,13.316,26.644,27.171,45.294,19.184,15.987-5.333,29.3-15.458,44.758-21.848,7.453,1.6,14.917,4.262,21.846,6.389,7.463-2.128,14.384-4.793,21.842-6.389,14.387,5.329,26.647,15.447,40.495,21.315,18.65,9.056,36.236-2.138,49.028-14.925-13.318,18.118-26.644,37.831-49.028,45.295-22.9,3.2-42.624-9.056-62.337-19.181-20.783,11.19-42.094,22.905-66.6,17.049Z" transform="translate(672.193 -2.717)" fill="#f59a00"/>
    </g>
    <g id="Groupe_16576" data-name="Groupe 16576" transform="translate(-630.196 417.526)">
      <path id="Tracé_25148" data-name="Tracé 25148" d="M-648.88,514.954c58.353,24.1,86.755-32.145,90.742-51.115,3.971-18.963,38.443-124.471-.42-145.061s-104.415,38.462-122.866,90.271C-692.4,439.888-707.232,490.846-648.88,514.954Z" transform="translate(691.598 -300.265)" fill="#494b52"/>
      <path id="Tracé_25149" data-name="Tracé 25149" d="M-647.261,497.274c51.168,21.027,75.879-27.54,79.312-43.934s33.293-107.544-.807-125.476-91.323,32.943-107.333,77.716C-685.618,432.223-698.441,476.25-647.261,497.274Z" transform="translate(694.413 -296.256)" fill="#fff"/>
      <g id="Groupe_16574" data-name="Groupe 16574" transform="translate(88.598)">
        <path id="Tracé_25150" data-name="Tracé 25150" d="M-591.78,306.972c-18.264-8.332-39.875,5.211-37.077,26.193,2.782,20.977,41.623,37.53,54.7,28.891S-563.664,319.795-591.78,306.972Z" transform="translate(629.103 -304.481)" fill="#494b52"/>
      </g>
      <g id="Groupe_16575" data-name="Groupe 16575" transform="translate(95.431 6.066)">
        <path id="Tracé_25151" data-name="Tracé 25151" d="M-596.318,310.105c-14.438-5.566-30.591,6.873-27.605,23.753s33.632,27.791,43.394,19.893C-570.784,345.861-574.1,318.672-596.318,310.105Z" transform="translate(624.283 -308.76)" fill="#fff"/>
      </g>
    </g>
    <g id="Groupe_16579" data-name="Groupe 16579" transform="translate(-399.219 467.909)">
      <path id="Tracé_25152" data-name="Tracé 25152" d="M-420.042,550.493c-58.353,24.1-86.754-32.145-90.742-51.116-3.971-18.963-38.442-124.47.42-145.06s104.415,38.462,122.866,90.271C-376.519,475.427-361.689,526.385-420.042,550.493Z" transform="translate(528.672 -335.803)" fill="#494b52"/>
      <path id="Tracé_25153" data-name="Tracé 25153" d="M-427.28,532.813c-51.168,21.026-75.879-27.541-79.311-43.934s-33.293-107.544.807-125.476,91.323,32.943,107.331,77.716C-388.923,467.762-376.1,511.789-427.28,532.813Z" transform="translate(531.475 -331.794)" fill="#fff"/>
      <g id="Groupe_16577" data-name="Groupe 16577" transform="translate(0.228)">
        <path id="Tracé_25154" data-name="Tracé 25154" d="M-503.311,342.511c18.264-8.333,39.874,5.211,37.075,26.193-2.781,20.977-41.622,37.53-54.7,28.891C-533.994,388.95-531.428,355.334-503.311,342.511Z" transform="translate(528.511 -340.02)" fill="#494b52"/>
      </g>
      <g id="Groupe_16578" data-name="Groupe 16578" transform="translate(6.98 6.066)">
        <path id="Tracé_25155" data-name="Tracé 25155" d="M-502.777,345.644c14.438-5.566,30.592,6.872,27.605,23.752s-33.632,27.791-43.394,19.894C-528.311,381.4-525,354.211-502.777,345.644Z" transform="translate(523.749 -344.299)" fill="#fff"/>
      </g>
    </g>
    <g id="Groupe_16581" data-name="Groupe 16581" transform="translate(-831.095 101.9)">
      <g id="Groupe_16580" data-name="Groupe 16580">
        <path id="_151448784-2" data-name=" 151448784" d="M-786.343,269.154c-18.149-2.684-38.771-9.735-45.638-23.613l-1.326-2.679,30.588-60.256q-1.992-.989-4-2.01c10.139-12.769,19.459-29.72,20.751-49.739,9.921,8.3,20.223,16.72,31.322,25.7-.788-12.871-4.039-19.628-1.9-33.9,1.328-8.887,5.712-23.731,12.227-30.248,19.93-19.941,54.791-7.6,57.881,4.13,1.2,4.566-1.163,9.187-2.911,13.3-8.668,20.366-12.461,40.4-14.812,62.253-1.211,11.228,2.916,22.68,1.318,33.918-.832,5.868-3.573,16.812-15.721,28.371,1.083,36.724-46.317,37.965-67.781,34.787Z" transform="translate(833.307 -81.846)" fill="#494b52"/>
        <path id="_151447968-2" data-name=" 151447968" d="M-725.883,231.976c7.084-7.509,13.939-19.869,15.172-28.556,1.4-9.846-2.6-22.066-1.347-33.72,2.105-19.54,5.433-40.866,15.254-63.949,3.862-9.079,4.985-10.623-5.316-15.8-12.2-6.141-29.506-5.519-39.946,4.929-5.33,5.332-12.627,24.683-10.971,40,.841,7.782,2.912,18.7,2.37,25.135,6.737,6.425,16.771,14.251,18.807,22.567-22.459-18.4-39.98-32.3-56.887-46.273-2.38,14.565-8.849,27.295-16.288,37.709q4.253,2.156,8.415,4.141l-31.982,63c11.371,20.261,76.575,28.556,94.239,10.58a48.272,48.272,0,0,0,8.479-19.761Z" transform="translate(835.273 -80.105)" fill="#fff"/>
      </g>
    </g>
    <g id="freepik--character-1--inject-2" transform="translate(-838.516 33.833)">
      <path id="Tracé_25156" data-name="Tracé 25156" d="M-793.665,541.722l-3.979,16.754s-27.409,35.584-35.862,33.85c-5.542-1.134,1.262-10.42,11.683-37.466l2.139-11.149Z" transform="translate(839.818 178.304)" fill="#f59a00"/>
      <path id="Tracé_25157" data-name="Tracé 25157" d="M-834.874,583.286a3.317,3.317,0,0,0,1.455,1.412,5.113,5.113,0,0,0,5.243-.727,155.128,155.128,0,0,0,13.652-12.839c5.071-5.328,9.328-10.441,12.324-14.229l3.51-4.493c.321-.449.641-.856.941-1.242a1.862,1.862,0,0,1,.363-.405s0,.17-.278.471a10.27,10.27,0,0,0-.877,1.283c-.77,1.113-1.925,2.7-3.38,4.6a175.215,175.215,0,0,1-12.261,14.358,134.331,134.331,0,0,1-13.8,12.839,6.412,6.412,0,0,1-3.081,1.155,4.58,4.58,0,0,1-2.44-.536,3.146,3.146,0,0,1-1.155-1.069A1.439,1.439,0,0,1-834.874,583.286Z" transform="translate(840.073 182.08)" fill="#333"/>
      <path id="Tracé_25158" data-name="Tracé 25158" d="M-832.142,565.735a4.423,4.423,0,0,1,2.268-.258,11.754,11.754,0,0,1,5.156,1.8,9.408,9.408,0,0,1,3.746,3.958,4.929,4.929,0,0,1,.6,2.141,12.671,12.671,0,0,0-.9-2.033,9.964,9.964,0,0,0-3.7-3.7,13.153,13.153,0,0,0-4.942-1.883C-831.264,565.627-832.121,565.82-832.142,565.735Z" transform="translate(841.215 188.206)" fill="#333"/>
      <path id="Tracé_25159" data-name="Tracé 25159" d="M-813.535,564.7a3.406,3.406,0,0,1-.342-.791,14.785,14.785,0,0,1-.536-2.29A12.438,12.438,0,0,1-813.128,554a11.654,11.654,0,0,1,5.542-5.391,9.266,9.266,0,0,1,2.139-.706,2.535,2.535,0,0,1,.878,0,17.42,17.42,0,0,0-2.974,1.07,12.087,12.087,0,0,0-5.264,5.285,13.052,13.052,0,0,0-1.369,7.361C-813.834,563.462-813.45,564.682-813.535,564.7Z" transform="translate(848.562 180.871)" fill="#333"/>
      <path id="Tracé_25160" data-name="Tracé 25160" d="M-806.506,543.774c.128,0-.492,2.376-1.006,5.35a18.041,18.041,0,0,1-1.412,5.264c-.106,0,.428-2.4.941-5.372A18.515,18.515,0,0,1-806.506,543.774Z" transform="translate(850.906 179.161)" fill="#333"/>
      <path id="Tracé_25161" data-name="Tracé 25161" d="M-826.18,552.737a6.286,6.286,0,0,1,3.509,0,6.085,6.085,0,0,1,3.167,1.5c0,.128-1.433-.6-3.273-1.028S-826.18,552.973-826.18,552.737Z" transform="translate(843.705 182.8)" fill="#333"/>
      <path id="Tracé_25162" data-name="Tracé 25162" d="M-826.588,554.782a4.287,4.287,0,0,1,2.974-.108,4.288,4.288,0,0,1,2.59,1.435,13.52,13.52,0,0,0-2.718-.964C-825.282,554.782-826.567,554.932-826.588,554.782Z" transform="translate(843.534 183.624)" fill="#333"/>
      <path id="Tracé_25163" data-name="Tracé 25163" d="M-828.127,557.387a3.7,3.7,0,0,1,3.059-.386,3.783,3.783,0,0,1,2.61,1.669,16.167,16.167,0,0,0-2.631-1.092A14.541,14.541,0,0,0-828.127,557.387Z" transform="translate(842.892 184.614)" fill="#333"/>
      <path id="Tracé_25164" data-name="Tracé 25164" d="M-824.852,553.863a33.427,33.427,0,0,0,3.21-1.113,25.111,25.111,0,0,0,3.316-1.584c.6-.342,1.2-.727,1.819-1.155a2.2,2.2,0,0,0,1.134-1.669c-.021-.642-.812-1.005-1.455-.856a3.876,3.876,0,0,0-1.69,1.134c-1.007.941-1.862,1.862-2.569,2.633-1.391,1.583-2.139,2.631-2.139,2.567a5.1,5.1,0,0,1,.471-.791c.343-.493.835-1.178,1.52-1.99a27.384,27.384,0,0,1,2.5-2.739,4.277,4.277,0,0,1,1.9-1.284,1.627,1.627,0,0,1,2.07,1,1.6,1.6,0,0,1,.07.281,2.8,2.8,0,0,1-1.369,2.139,20.2,20.2,0,0,1-1.883,1.177,22.283,22.283,0,0,1-3.4,1.52,22.227,22.227,0,0,1-2.417.663A3.711,3.711,0,0,1-824.852,553.863Z" transform="translate(844.26 180.477)" fill="#333"/>
      <path id="Tracé_25165" data-name="Tracé 25165" d="M-822.331,554.223a30.543,30.543,0,0,1-.492-3.061,13.471,13.471,0,0,0-.941-3.188,6.8,6.8,0,0,0-1.026-1.6c-.407-.472-1.049-.878-1.562-.578s-.578,1.049-.515,1.669a8.374,8.374,0,0,0,.536,1.84,10.636,10.636,0,0,0,1.8,2.76c1.262,1.412,2.268,2.141,2.139,2.141a3.121,3.121,0,0,1-.727-.428,16.13,16.13,0,0,1-1.734-1.5,10.2,10.2,0,0,1-1.946-2.824,6.9,6.9,0,0,1-.6-1.948,2.139,2.139,0,0,1,.748-2.139,1.8,1.8,0,0,1,2.141.685,6.4,6.4,0,0,1,1.069,1.755,11.447,11.447,0,0,1,.878,3.295c.108.963.15,1.734.172,2.268A2.559,2.559,0,0,1-822.331,554.223Z" transform="translate(843.172 179.775)" fill="#333"/>
      <g id="Groupe_16582" data-name="Groupe 16582" transform="translate(4.383 728.734)" opacity="0.4">
        <path id="Tracé_25166" data-name="Tracé 25166" d="M-797.659,555.91l1.927-8.045s-6.72,1.24-8.452,6.269a21.05,21.05,0,0,0-1.327,8.559L-820.1,578.441s-3.659-7.146-10.291-5.435c0,0-5.221,11.49-5.05,14.358s3.509,2.525,4.685,1.989a58.548,58.548,0,0,0,13.074-10.314C-809.962,571.017-801.4,560.852-797.659,555.91Z" transform="translate(835.45 -547.865)"/>
      </g>
      <path id="Tracé_25167" data-name="Tracé 25167" d="M-700.968,556.041l.129-22.34-41.854-.492-.534,32.675,2.589.191c11.555.792,58.736,3.167,66.5.92C-665.512,564.492-700.968,556.041-700.968,556.041Z" transform="translate(878.352 174.748)" fill="#f59a00"/>
      <g id="Groupe_16583" data-name="Groupe 16583" transform="translate(135.188 728.324)" opacity="0.4">
        <path id="Tracé_25168" data-name="Tracé 25168" d="M-728.055,559.733a14.59,14.59,0,0,0-5.243-8.987,14.056,14.056,0,0,0-9.735-3.146l-.15,11.683Z" transform="translate(743.183 -547.575)"/>
      </g>
      <g id="Groupe_16584" data-name="Groupe 16584" transform="translate(135.124 735.538)" opacity="0.4">
        <path id="Tracé_25169" data-name="Tracé 25169" d="M-683.636,552.664s12.41,3.746,10.827,5.779-49.364,1.433-70.419-.685v-.92l55.633,1.177S-686.076,552.75-683.636,552.664Z" transform="translate(743.228 -552.664)"/>
      </g>
      <path id="Tracé_25170" data-name="Tracé 25170" d="M-743.635,555.577h.727l2.139.15,7.617.428c6.419.3,15.3.621,25.1.749s18.7,0,25.12,0l7.617-.235h2.139a5.9,5.9,0,0,0,.708,0,2.616,2.616,0,0,0-.729,0h-34.878c-9.82,0-18.679-.407-25.1-.621l-7.6-.257h-2.139Z" transform="translate(878.182 184.091)" fill="#333"/>
      <path id="Tracé_25171" data-name="Tracé 25171" d="M-703.864,558.8a16.064,16.064,0,0,1,1.455-3.615,16.4,16.4,0,0,1,2.633-2.868,6.741,6.741,0,0,0-4.087,6.419Z" transform="translate(894.792 182.729)" fill="#333"/>
      <path id="Tracé_25172" data-name="Tracé 25172" d="M-712.528,553.378a5.343,5.343,0,0,0,1.348-1.584,4.817,4.817,0,0,0,.92-1.861,4.975,4.975,0,0,0-1.348,1.582A4.635,4.635,0,0,0-712.528,553.378Z" transform="translate(891.175 181.733)" fill="#333"/>
      <path id="Tracé_25173" data-name="Tracé 25173" d="M-714.9,551.749c0,.108.749-.32,1.476-.963s1.263-1.24,1.155-1.348-.749.343-1.476.964S-714.98,551.643-714.9,551.749Z" transform="translate(890.182 181.52)" fill="#333"/>
      <path id="Tracé_25174" data-name="Tracé 25174" d="M-716.377,548.368a4.942,4.942,0,0,0,2.139.322,4.741,4.741,0,0,0,2.139-.214,4.888,4.888,0,0,0-2.139-.3A5.375,5.375,0,0,0-716.377,548.368Z" transform="translate(889.567 180.986)" fill="#333"/>
      <path id="Tracé_25175" data-name="Tracé 25175" d="M-716.875,546.3a4.266,4.266,0,0,0,2.438.727,4.275,4.275,0,0,0,2.525-.3,13.991,13.991,0,0,0-2.481-.193A11.319,11.319,0,0,0-716.875,546.3Z" transform="translate(889.359 180.213)" fill="#333"/>
      <path id="Tracé_25176" data-name="Tracé 25176" d="M-711.487,550.9a7.573,7.573,0,0,0,2.675,0,15.794,15.794,0,0,0,2.888-.6,7.536,7.536,0,0,0,1.647-.642,1.475,1.475,0,0,0,.663-.833,1.007,1.007,0,0,0-.384-1.07,4.944,4.944,0,0,0-6.12,1.348,4.794,4.794,0,0,0-.9,1.8,1.468,1.468,0,0,0,0,.727,7.539,7.539,0,0,1,1.263-2.29,4.716,4.716,0,0,1,2.311-1.455,4.085,4.085,0,0,1,3.21.257c.405.32.235.812-.235,1.09a7.74,7.74,0,0,1-1.52.621,20.25,20.25,0,0,1-2.781.706A15.162,15.162,0,0,1-711.487,550.9Z" transform="translate(891.61 180.598)" fill="#333"/>
      <path id="Tracé_25177" data-name="Tracé 25177" d="M-710.011,551.447a2.658,2.658,0,0,0,.343-1.861,4.58,4.58,0,0,0-.707-1.968,2.716,2.716,0,0,0-2.139-1.413,1.115,1.115,0,0,0-.856,1.242,2.872,2.872,0,0,0,.449,1.2,8.277,8.277,0,0,0,1.242,1.647,3.9,3.9,0,0,0,1.541,1.113,16.484,16.484,0,0,1-1.263-1.348,9.383,9.383,0,0,1-1.113-1.626c-.363-.577-.6-1.6,0-1.711s1.348.62,1.755,1.155a4.289,4.289,0,0,1,.727,1.754A9.516,9.516,0,0,1-710.011,551.447Z" transform="translate(890.819 180.176)" fill="#333"/>
      <path id="Tracé_25178" data-name="Tracé 25178" d="M-742.971,547.577s1.2,0,3.081.149a13.073,13.073,0,0,1,10.848,8.88c.621,1.8.664,3.017.771,3a2.849,2.849,0,0,0,0-.835,9.748,9.748,0,0,0-.428-2.268,12.842,12.842,0,0,0-4.151-6.29,12.69,12.69,0,0,0-7-2.824,11.448,11.448,0,0,0-2.311,0A2.588,2.588,0,0,0-742.971,547.577Z" transform="translate(878.46 180.644)" fill="#333"/>
      <path id="Tracé_25179" data-name="Tracé 25179" d="M-739.533,535.262a72.252,72.252,0,0,0-.471,8.559,68.425,68.425,0,0,0,0,8.558,79.5,79.5,0,0,0,.471-8.558A73.063,73.063,0,0,0-739.533,535.262Z" transform="translate(879.643 175.605)" fill="#333"/>
      <path id="Tracé_25180" data-name="Tracé 25180" d="M-728.769,553.337a23.506,23.506,0,0,0,6.1.685,24,24,0,0,0,6.141-.405c0-.15-2.76,0-6.12,0S-728.748,553.188-728.769,553.337Z" transform="translate(884.392 183.142)" fill="#333"/>
      <path id="Tracé_25181" data-name="Tracé 25181" d="M-734.543,553.241c-.108.106.214.6.492,1.219s.407,1.2.556,1.177.214-.641,0-1.37S-734.458,553.156-734.543,553.241Z" transform="translate(881.971 183.11)" fill="#333"/>
      <path id="Tracé_25182" data-name="Tracé 25182" d="M-736.693,550.513a2.624,2.624,0,0,0,.578.984c.428.449.856.727.962.621s-.172-.534-.6-.984S-736.607,550.406-736.693,550.513Z" transform="translate(881.082 181.966)" fill="#333"/>
      <path id="Tracé_25183" data-name="Tracé 25183" d="M-739.8,549.288c0,.15.578.15,1.2.364s1.049.556,1.155.471-.235-.685-.984-.941S-739.844,549.161-739.8,549.288Z" transform="translate(879.783 181.371)" fill="#333"/>
      <path id="Tracé_25184" data-name="Tracé 25184" d="M-742.02,548.635c0,.129.192.364.535.492s.663.15.727,0-.193-.342-.535-.492S-741.956,548.507-742.02,548.635Z" transform="translate(878.857 181.147)" fill="#333"/>
      <path id="Tracé_25185" data-name="Tracé 25185" d="M-632.849,245.367l-16.069,419.453-65.176,1.369,10.827-363.456L-776.575,668.97h-61.967L-758.708,246.2Z" transform="translate(838.542 54.521)" fill="#333"/>
      <path id="Tracé_25186" data-name="Tracé 25186" d="M-727.774,256.128a44,44,0,0,1-.748,6.911c-.621,4.28-1.52,10.1-2.611,16.561A68.034,68.034,0,0,1-733,288.7a12.84,12.84,0,0,1-4.279,6.419A10.055,10.055,0,0,1-742,297.254a3.8,3.8,0,0,1-1.9,0,11.726,11.726,0,0,0,9.885-8.815,81.69,81.69,0,0,0,1.732-8.965c1.091-6.419,2.141-12.3,2.932-16.5A41.988,41.988,0,0,1-727.774,256.128Z" transform="translate(878.069 59.016)" fill="#494b52"/>
      <path id="Tracé_25187" data-name="Tracé 25187" d="M-741.852,257.869c.15.106-.386.77,0,1.883a2.139,2.139,0,0,0,1.092,1.391,1.753,1.753,0,0,0,1.947-.386,1.816,1.816,0,0,0,.642-1.861,2.142,2.142,0,0,0-1.262-1.262c-1.049-.449-1.8,0-1.884-.172s.6-.941,2.141-.6a2.862,2.862,0,0,1,1.989,1.669,2.952,2.952,0,0,1-1.945,3.694,2.952,2.952,0,0,1-2.119-.143,2.908,2.908,0,0,1-1.391-2.139C-742.879,258.339-741.895,257.719-741.852,257.869Z" transform="translate(878.581 59.287)" fill="#494b52"/>
      <path id="Tracé_25188" data-name="Tracé 25188" d="M-766.515,265.188a12.281,12.281,0,0,1,1.24-11.641c.32.15-.621,2.611-.941,5.8S-766.174,265.124-766.515,265.188Z" transform="translate(868.239 57.938)" fill="#494b52"/>
      <path id="Tracé_25189" data-name="Tracé 25189" d="M-760.932,264.986a10.078,10.078,0,0,1-.941-6.163,10.178,10.178,0,0,1,1.775-5.97,53.865,53.865,0,0,1-.641,6.055A55.372,55.372,0,0,1-760.932,264.986Z" transform="translate(870.508 57.648)" fill="#494b52"/>
      <path id="Tracé_25190" data-name="Tracé 25190" d="M-713.732,266.331a37.205,37.205,0,0,1,.364-6.29,40.157,40.157,0,0,1,.278-6.313,11.812,11.812,0,0,1,.878,6.419A12.237,12.237,0,0,1-713.732,266.331Z" transform="translate(890.667 58.014)" fill="#494b52"/>
      <path id="Tracé_25191" data-name="Tracé 25191" d="M-707.711,266.069c-.32-.128.685-2.867.92-6.419s-.363-6.419,0-6.419a10.286,10.286,0,0,1,1.2,6.548A10.385,10.385,0,0,1-707.711,266.069Z" transform="translate(893.161 57.806)" fill="#494b52"/>
      <path id="Tracé_25192" data-name="Tracé 25192" d="M-755.6,153.275l40.227-3.208c.257-4.708,0-22.874,0-22.874s16.754-2.61,16.947-19.258-2.7-55.183-2.7-55.183h0a58.157,58.157,0,0,0-58.457,7.361l-2.482,1.9Z" transform="translate(870.485 -27.905)" fill="#ffbe9d"/>
      <path id="Tracé_25193" data-name="Tracé 25193" d="M-722.731,105.509a38.825,38.825,0,0,1-21.825-6.184s5.156,12.046,21.846,10.528Z" transform="translate(877.798 -6.478)" fill="#eb996e"/>
      <path id="Tracé_25194" data-name="Tracé 25194" d="M-757.374,70.215c-.278-.128-11.512-3.4-11.147,8.045s11.789,8.709,11.789,8.388S-757.374,70.215-757.374,70.215Z" transform="translate(867.784 -18.857)" fill="#ffbe9d"/>
      <path id="Tracé_25195" data-name="Tracé 25195" d="M-761.211,81.329s-.214.129-.534.3a2.01,2.01,0,0,1-1.5,0,4.967,4.967,0,0,1-2.419-4.28,6.586,6.586,0,0,1,.471-2.867,2.266,2.266,0,0,1,1.455-1.584,1.006,1.006,0,0,1,1.178.513c.17.32.106.556.17.556s.235-.193.129-.663a1.246,1.246,0,0,0-.471-.706,1.586,1.586,0,0,0-1.113-.257,2.89,2.89,0,0,0-2.033,1.84,6.823,6.823,0,0,0-.577,3.21,5.174,5.174,0,0,0,3.059,4.857,2.14,2.14,0,0,0,1.819-.363A.716.716,0,0,0-761.211,81.329Z" transform="translate(868.646 -17.754)" fill="#eb996e"/>
      <path id="Tracé_25196" data-name="Tracé 25196" d="M-721.6,70.1a2.4,2.4,0,0,1-2.311,2.419,2.29,2.29,0,0,1-2.458-2.107l0-.033a2.4,2.4,0,0,1,2.311-2.419A2.289,2.289,0,0,1-721.6,70.07Z" transform="translate(885.394 -19.58)" fill="#333"/>
      <path id="Tracé_25197" data-name="Tracé 25197" d="M-718.575,68.66c-.3.3-2.139-1.028-4.664-1.028s-4.473,1.284-4.751.985.172-.706.984-1.306a6.659,6.659,0,0,1,3.809-1.177,6.421,6.421,0,0,1,3.723,1.2C-718.681,67.954-718.425,68.51-718.575,68.66Z" transform="translate(884.683 -20.341)" fill="#333"/>
      <path id="Tracé_25198" data-name="Tracé 25198" d="M-739.784,70.213a2.376,2.376,0,0,1-2.266,2.481h-.045a2.29,2.29,0,0,1-2.46-2.107v-.033a2.4,2.4,0,0,1,2.311-2.4A2.291,2.291,0,0,1-739.784,70.213Z" transform="translate(877.798 -19.498)" fill="#333"/>
      <path id="Tracé_25199" data-name="Tracé 25199" d="M-736.4,68.986c-.3.32-2.139-1.028-4.685-1.028s-4.452,1.306-4.729.985.15-.706.984-1.306a6.424,6.424,0,0,1,3.788-1.155,6.248,6.248,0,0,1,3.723,1.2C-736.528,68.28-736.272,68.857-736.4,68.986Z" transform="translate(877.237 -20.196)" fill="#333"/>
      <path id="Tracé_25200" data-name="Tracé 25200" d="M-732.3,88.028a16.716,16.716,0,0,1,4.172-.77c.663,0,1.283-.193,1.391-.642a3.547,3.547,0,0,0-.428-1.948l-1.948-5.006a84.241,84.241,0,0,1-4.279-13.074,89.484,89.484,0,0,1,5.413,12.71l1.861,5.029a3.806,3.806,0,0,1,.322,2.567,1.582,1.582,0,0,1-1.07.963,4.534,4.534,0,0,1-1.113.15A17.769,17.769,0,0,1-732.3,88.028Z" transform="translate(882.463 -20.151)" fill="#333"/>
      <path id="Tracé_25201" data-name="Tracé 25201" d="M-737.844,82.964c.427,0,.427,2.76,2.824,4.749s5.349,1.67,5.37,2.141-.664.556-1.9.577a6.957,6.957,0,0,1-4.515-1.561,6.013,6.013,0,0,1-2.139-3.981C-738.337,83.628-738.036,82.943-737.844,82.964Z" transform="translate(880.436 -13.312)" fill="#333"/>
      <path id="Tracé_25202" data-name="Tracé 25202" d="M-735.27,61.708c-.257.706-2.824.364-5.842.727s-5.455,1.2-5.862.557c-.172-.3.235-.943,1.219-1.626a9.66,9.66,0,0,1,4.28-1.52,9.852,9.852,0,0,1,4.579.534C-735.72,60.831-735.164,61.367-735.27,61.708Z" transform="translate(876.771 -22.997)" fill="#333"/>
      <path id="Tracé_25203" data-name="Tracé 25203" d="M-719.477,63.433c-.449.578-2.139,0-4.28,0s-3.937.407-4.279-.213,0-.878.9-1.435a6.29,6.29,0,0,1,7.017.214C-719.519,62.536-719.2,63.134-719.477,63.433Z" transform="translate(884.643 -22.561)" fill="#333"/>
      <path id="Tracé_25204" data-name="Tracé 25204" d="M-691.27,48.023a6.139,6.139,0,0,0-2.268-5.52,4.408,4.408,0,0,0-5.691.428,5.114,5.114,0,0,0-3.846-6.126c-.143-.033-.288-.06-.434-.079-2.739-.172-5.05,1.9-7.7,2.61a12.363,12.363,0,0,1-7.81-.9c-2.481-.984-4.792-2.375-7.3-3.295a21.4,21.4,0,0,0-27.39,12.582,9.48,9.48,0,0,0-10.078,3.808,15.62,15.62,0,0,0-2.375,10.977,34.813,34.813,0,0,0,1.9,7.511v.642c.193,9.222,1.221,20.028,5.157,20.091,6.847,0,5.2-12.839,5.2-12.839,8.41-3.252,5.287-15.834,7.383-17.738s6.419-6.419,24.071,2.633a34.236,34.236,0,0,0,20.863,2.267h.6a15.515,15.515,0,0,0,4.515-1.925,8.922,8.922,0,0,0,3.723-4.13,4.947,4.947,0,0,0-.963-5.243A10.576,10.576,0,0,0-691.27,48.023Z" transform="translate(868.696 -33.833)" fill="#333"/>
      <path id="Tracé_25205" data-name="Tracé 25205" d="M-729.111,72.729a18.518,18.518,0,0,0-.534-2.482,10.23,10.23,0,0,0-3.809-5.457A9.906,9.906,0,0,0-747.319,66.8a9.906,9.906,0,0,0,2.012,13.865,9.9,9.9,0,0,0,11.853,0,10.374,10.374,0,0,0,3.809-5.455c.449-1.562.428-2.482.534-2.482s0,.214,0,.663a7.929,7.929,0,0,1-.193,1.925,10.332,10.332,0,0,1-3.744,5.97,10.7,10.7,0,0,1-10.25,1.669,10.849,10.849,0,0,1-6.625-13.838,10.849,10.849,0,0,1,13.838-6.625,10.847,10.847,0,0,1,3.037,1.654,10.377,10.377,0,0,1,3.744,5.993,7.849,7.849,0,0,1,.193,1.925Z" transform="translate(875.297 -22.12)" fill="#333"/>
      <path id="Tracé_25206" data-name="Tracé 25206" d="M-709.5,72.731a8.552,8.552,0,0,0-.535-2.482,10.3,10.3,0,0,0-3.787-5.457A9.908,9.908,0,0,0-727.687,66.8a9.906,9.906,0,0,0,2.012,13.865,9.9,9.9,0,0,0,11.855,0,10.447,10.447,0,0,0,3.787-5.455c.449-1.562.428-2.482.535-2.482s0,.214,0,.663a8,8,0,0,1-.192,1.925,10.333,10.333,0,0,1-3.745,5.97,10.693,10.693,0,0,1-10.227,1.669,10.848,10.848,0,0,1-6.612-13.844,10.854,10.854,0,0,1,6.612-6.612,10.7,10.7,0,0,1,10.227,1.647,10.378,10.378,0,0,1,3.745,5.993,7.908,7.908,0,0,1,.192,1.925Z" transform="translate(883.502 -22.122)" fill="#333"/>
      <path id="Tracé_25207" data-name="Tracé 25207" d="M-727.549,69.439c-.128.3-1.861-.214-4.022-.106s-3.852.706-4,.427,1.52-1.455,3.96-1.54S-727.4,69.182-727.549,69.439Z" transform="translate(881.546 -19.472)" fill="#333"/>
      <path id="Tracé_25208" data-name="Tracé 25208" d="M-745.868,69.106a25.089,25.089,0,0,1-7.3.963,25.315,25.315,0,0,1-7.361-.15,24.061,24.061,0,0,1,7.3-.963A25.414,25.414,0,0,1-745.868,69.106Z" transform="translate(871.128 -19.245)" fill="#333"/>
      <path id="Tracé_25209" data-name="Tracé 25209" d="M-668.535,190.884l13.288,23.943,8.111-65.111a26.091,26.091,0,0,0-2.7-13.674,27.14,27.14,0,0,0-3.295-5.306,28.793,28.793,0,0,0-5.671-5.328,2.376,2.376,0,0,1-1.181-3.144,2.379,2.379,0,0,1,1.609-1.328c2.139-.235,7.916,2.868,12.474,9.116s5.028-5.777,5.285-10.142,1.669-17.8,3.059-18.766c2.141-1.391,3.981.6,3.638,4.965s-.513,17.481,1.8,17.567,3.252-22.167,3.252-22.167-.556-4.814,2.141-4.793c4.792,0,2.01,23.536,1.69,25.677-.214,1.54,2.29,1.732,2.44,0s.471-22.211,5.349-22.253c3.765,0-2.139,19.385.172,23.729s2.952-15.213,6.547-15.086c1.327,0,2.332.257.343,11.384-1.07,5.991-5.029,14.615-6.226,26.3l-.322,3.018c-.235,14.55-3.445,58.393-16.669,91.772a27.046,27.046,0,0,1-35.225,14.906,27.052,27.052,0,0,1-12.362-10.091c-8.13-12.26-20.99-44.314-20.99-44.314Z" transform="translate(895.582 -7.568)" fill="#ffbe9d"/>
      <path id="Tracé_25210" data-name="Tracé 25210" d="M-641.612,129.257a12.031,12.031,0,0,0-1.9.492,6.915,6.915,0,0,0-3.7,3.059l-.448.814-.258-.9a11.293,11.293,0,0,0-1.775-3.553,13,13,0,0,0-6.141-4.537c-1.883-.662-3.167-.62-3.167-.791a6.267,6.267,0,0,1,3.339.235,12.2,12.2,0,0,1,6.655,4.579,11.066,11.066,0,0,1,1.84,3.831h-.706a6.717,6.717,0,0,1,4.279-3.125A3.23,3.23,0,0,1-641.612,129.257Z" transform="translate(913.529 3.711)" fill="#eb996e"/>
      <path id="Tracé_25211" data-name="Tracé 25211" d="M-692.994,129.617l37.766,71.467,6.419-63.186h33.83l-12.432,90.061a26.429,26.429,0,0,1-17.824,21.912h0c-12.283,4.13-28.609-.685-34.664-12.133l-22.124-37.659Z" transform="translate(895.563 6.175)" fill="#f59a00"/>
      <path id="Tracé_25212" data-name="Tracé 25212" d="M-665.671,210.009a13.328,13.328,0,0,1-2.525-4.023,33.315,33.315,0,0,1-2.141-22.51,14.039,14.039,0,0,1,1.755-4.429,41.663,41.663,0,0,0,2.867,30.962Z" transform="translate(908.36 26.821)" fill="#333"/>
      <g id="Groupe_16585" data-name="Groupe 16585" transform="translate(232.037 204.863)" opacity="0.3">
        <path id="Tracé_25213" data-name="Tracé 25213" d="M-667.639,178.338a15.987,15.987,0,0,0-6.591,10.227,38.018,38.018,0,0,0-.235,12.454,7.329,7.329,0,0,0,.941,3.424,2.634,2.634,0,0,0,3.081,1.155,2.736,2.736,0,0,0,1.369-2.525,10.057,10.057,0,0,0-.662-2.932,24.949,24.949,0,0,1,3.1-21.055" transform="translate(674.868 -178.338)"/>
      </g>
      <path id="Tracé_25214" data-name="Tracé 25214" d="M-753.6,118.816c5.648-1.07,11.126-3.125,17.759-3.4h0a71.077,71.077,0,0,0,42.794,0c1.755.235,4.28.449,7.212.814,18.637,2.139,25.784,6.14,39.178,19.258l-1.476,75.425s4.494,85.846,4.28,99.713H-771.212l-.193-58.159V236.63l-41.81,15.321,3.808-22s18.744-73.008,21.7-82.851C-784.243,135.164-771.4,122.219-753.6,118.816Z" transform="translate(849.12 0.242)" fill="#f59a00"/>
      <path id="Tracé_25215" data-name="Tracé 25215" d="M-794.022,201.707l61.133-15.9,17.481,28.437-62.266,26.212A25.045,25.045,0,0,1-788.03,242.6h0a25.229,25.229,0,0,1-23.3-15.62l-1.883-4.622Z" transform="translate(849.12 29.645)" fill="#f59a00"/>
      <path id="Tracé_25216" data-name="Tracé 25216" d="M-777.039,207.416c-.3,0-.556-11.234-.556-25.077s.257-25.056.556-25.056.578,11.212.578,25.056S-776.717,207.416-777.039,207.416Z" transform="translate(863.998 17.73)" fill="#333"/>
      <g id="Groupe_16586" data-name="Groupe 16586" transform="translate(77.266 236.1)" opacity="0.3">
        <path id="Tracé_25217" data-name="Tracé 25217" d="M-784.04,232.128a21.233,21.233,0,0,0,8.153,7.6c7.638,4.13,17.117,4.023,25.313,1.327a72.429,72.429,0,0,0,22.275-13.18,187.119,187.119,0,0,0,24.778-24.094,2.639,2.639,0,0,0,.9-2.033c-.214-1.327-2.141-1.5-3.381-1.306-12.667,2.012-24.223,8.153-35.777,13.737q-20.606,9.971-42.153,17.931" transform="translate(784.04 -200.372)"/>
      </g>
      <path id="Tracé_25218" data-name="Tracé 25218" d="M-667.819,180.666a2.936,2.936,0,0,1-.235.578l-.793,1.647c-.363.706-.9,1.541-1.5,2.546a35.29,35.29,0,0,1-2.461,3.231,36.558,36.558,0,0,1-8.387,7.276,38.157,38.157,0,0,1-13.674,5.349,36.633,36.633,0,0,1-17.738-1.219,42.057,42.057,0,0,1-17.311-10.827,40.047,40.047,0,0,1-10.7-19.857,31.252,31.252,0,0,1-.108-12.046,26.607,26.607,0,0,1,5.179-11.278,21.809,21.809,0,0,1,10.1-7.232,13.717,13.717,0,0,1,6.163-.642,9.954,9.954,0,0,1,5.542,2.675,7.9,7.9,0,0,1,2.44,5.563,10.3,10.3,0,0,1-1.734,5.671,15.2,15.2,0,0,1-9.436,5.927,42.641,42.641,0,0,1-20.435-.407,42.386,42.386,0,0,1-29.892-29.186,32.389,32.389,0,0,1-1.541-9.309,3.071,3.071,0,0,1,.106.6l.258,1.8a45.818,45.818,0,0,0,1.6,6.782,43.432,43.432,0,0,0,14.207,20.734,42.469,42.469,0,0,0,15.664,7.725,42,42,0,0,0,19.942.32,14.309,14.309,0,0,0,8.794-5.52,9.119,9.119,0,0,0,1.541-5.071,6.66,6.66,0,0,0-2.141-4.793,8.826,8.826,0,0,0-4.942-2.375,12.587,12.587,0,0,0-5.671.6,20.945,20.945,0,0,0-9.565,6.869A25.666,25.666,0,0,0-739.5,157.6a30.278,30.278,0,0,0,0,11.618,39.18,39.18,0,0,0,10.27,19.366,41.633,41.633,0,0,0,16.862,10.7,36.107,36.107,0,0,0,17.331,1.327,38.049,38.049,0,0,0,13.481-5.114,37.649,37.649,0,0,0,8.388-7.019A42.281,42.281,0,0,0-667.819,180.666Z" transform="translate(865.359 1.793)" fill="#e0e0e0"/>
      <path id="Tracé_25219" data-name="Tracé 25219" d="M-661.663,237.838a38.674,38.674,0,0,0-3.487-7.745A26.637,26.637,0,0,0-683.7,217.639a36.581,36.581,0,0,0-15.769.727,43.969,43.969,0,0,0-8.3,3.082,30.9,30.9,0,0,0-7.745,5.2,14.187,14.187,0,0,0-4.452,8.344,8.559,8.559,0,0,0,3.659,8.559,6.419,6.419,0,0,0,8.965-1.369,23.806,23.806,0,0,0,4.28-9.907,39.149,39.149,0,0,0-1.412-21.291,39.755,39.755,0,0,0-11.041-16.6A45.594,45.594,0,0,0-731.2,185.2a46.214,46.214,0,0,0-37.829,3.295c-2.419,1.306-4.174,2.5-5.393,3.3l-1.348.92-.492.3a41.62,41.62,0,0,1,7.019-4.9,45.7,45.7,0,0,1,22.36-6.27,47.3,47.3,0,0,1,15.984,2.482,46.079,46.079,0,0,1,16.069,9.287,41.072,41.072,0,0,1,11.4,17.011,40.316,40.316,0,0,1,1.456,21.91,24.966,24.966,0,0,1-4.452,10.377,7.573,7.573,0,0,1-10.4,1.562,8.872,8.872,0,0,1-3.509-4.279,10.692,10.692,0,0,1-.621-5.329,14.978,14.978,0,0,1,4.729-8.944,32.118,32.118,0,0,1,8-5.349,44.927,44.927,0,0,1,8.56-3.1,37.878,37.878,0,0,1,16.154-.621,27.046,27.046,0,0,1,18.787,13.01,28.266,28.266,0,0,1,2.567,5.82,16.137,16.137,0,0,1,.428,1.6A2.157,2.157,0,0,1-661.663,237.838Z" transform="translate(864.553 27.985)" fill="#e0e0e0"/>
      <path id="Tracé_25220" data-name="Tracé 25220" d="M-765.882,170.763a9.5,9.5,0,0,1-1.07,1.348,26.047,26.047,0,0,1-3.337,3.231,31.329,31.329,0,0,1-5.842,3.7,34.555,34.555,0,0,1-8.045,2.739,42.606,42.606,0,0,1-15.321,0,45.079,45.079,0,0,1-4.535-1.026c-1.049-.322-1.626-.515-1.6-.6s2.4.363,6.248.835a48.043,48.043,0,0,0,14.978-.364,37.2,37.2,0,0,0,7.81-2.567,34.783,34.783,0,0,0,5.82-3.424C-767.7,172.389-766.011,170.634-765.882,170.763Z" transform="translate(852.285 23.358)" fill="#e0e0e0"/>
      <path id="Tracé_25221" data-name="Tracé 25221" d="M-774.784,228.87a38.462,38.462,0,0,0-2.353-6.655,20.927,20.927,0,0,0-27.964-9.69q-.357.174-.709.362a39.134,39.134,0,0,0-5.82,3.979,5.186,5.186,0,0,1,1.219-1.5,18.763,18.763,0,0,1,4.28-3.188,21.052,21.052,0,0,1,28.765,7.689,20.922,20.922,0,0,1,1.019,2,19.258,19.258,0,0,1,1.541,5.05A5.475,5.475,0,0,1-774.784,228.87Z" transform="translate(849.782 39.478)" fill="#e0e0e0"/>
      <path id="Tracé_25222" data-name="Tracé 25222" d="M-690.071,212.6a7.434,7.434,0,0,1-.578-2.139,37.719,37.719,0,0,1-.791-5.842,47.613,47.613,0,0,1,.214-8.773,50.907,50.907,0,0,1,2.46-10.485,50.084,50.084,0,0,1,4.751-9.65,46.123,46.123,0,0,1,5.392-6.932,40.711,40.711,0,0,1,4.28-4.022,8.1,8.1,0,0,1,1.755-1.242c.149.172-2.268,2.141-5.5,5.8a53.02,53.02,0,0,0-5.114,6.932,50.43,50.43,0,0,0-7.04,19.728,51.873,51.873,0,0,0-.449,8.559C-690.5,209.628-689.857,212.6-690.071,212.6Z" transform="translate(899.937 20.334)" fill="#e0e0e0"/>
      <path id="Tracé_25223" data-name="Tracé 25223" d="M-636.653,173.508a6.705,6.705,0,0,1-1.177,1.262,14.388,14.388,0,0,1-4.109,2.375,18.4,18.4,0,0,1-15.234-1.177,15.581,15.581,0,0,1-6.078-6.119,22.321,22.321,0,0,1-2.353-6.612,27.976,27.976,0,0,1-.577-4.643,4.25,4.25,0,0,1,0-1.734c.193,0,.342,2.44,1.262,6.205a25.077,25.077,0,0,0,2.482,6.269A15.178,15.178,0,0,0-656.7,175a18.383,18.383,0,0,0,14.443,1.391A26.126,26.126,0,0,0-636.653,173.508Z" transform="translate(910.496 17.554)" fill="#e0e0e0"/>
      <path id="Tracé_25224" data-name="Tracé 25224" d="M-684.686,139.863a4.89,4.89,0,0,1-1.541.985,16.531,16.531,0,0,1-4.729,1.518,19.258,19.258,0,0,1-7.361-.235,22.985,22.985,0,0,1-8.217-3.744,21.679,21.679,0,0,1-8.559-13.652,19,19,0,0,1-.257-4.942,5.524,5.524,0,0,1,.343-1.8,45.805,45.805,0,0,0,.685,6.57,22.231,22.231,0,0,0,8.408,12.839,23.043,23.043,0,0,0,7.81,3.638,19.731,19.731,0,0,0,7.019.448A36.215,36.215,0,0,0-684.686,139.863Z" transform="translate(889.972 1.32)" fill="#e0e0e0"/>
      <path id="Tracé_25225" data-name="Tracé 25225" d="M-723.5,262.058a103.458,103.458,0,0,0-5.563-9.031,55.314,55.314,0,0,0-19.15-16.476,58.559,58.559,0,0,0-13.118-4.9,49.914,49.914,0,0,0-11.361-1.306,100.728,100.728,0,0,0-10.549.964,11.779,11.779,0,0,1,2.76-.793,43.382,43.382,0,0,1,7.789-.963,47.436,47.436,0,0,1,11.6,1.092,56.473,56.473,0,0,1,13.4,4.921,52.817,52.817,0,0,1,19.258,17.011,48.456,48.456,0,0,1,3.894,6.784A11.486,11.486,0,0,1-723.5,262.058Z" transform="translate(861.64 47.909)" fill="#e0e0e0"/>
      <path id="Tracé_25226" data-name="Tracé 25226" d="M-697.9,152.74c.3,0,2.139,31.539,4.087,70.483s3.295,70.5,2.974,70.61-2.141-31.539-4.087-70.483S-698.226,152.761-697.9,152.74Z" transform="translate(897.264 15.833)" fill="#333"/>
      <path id="Tracé_25227" data-name="Tracé 25227" d="M-756.555,193.277a26.226,26.226,0,0,0,10.484-9.372,27.771,27.771,0,0,0,2.911-5.584,29.668,29.668,0,0,0,1.69-7.64c0-2.417,2.8-3.68,4.108-1.946s1.562,8.344-1.5,15.491,7.6,1.413,11.512-.62,16.3-7.725,17.846-7c2.268,1.07,1.518,3.767-2.44,5.692s-15.406,8.559-14.293,10.7,20.884-8.56,20.884-8.56,3.894-2.952,5.243-.641c2.46,4.279-19.258,13.844-21.4,14.721-1.455.6-.32,2.867,1.221,2.139s19.493-11.041,22.039-6.8c1.968,3.231-17.867,8.132-20.477,12.347s14.7-5.264,16.454-2.139c.642,1.2.963,2.139-9.714,6.163-5.734,2.139-15.234,3.167-25.976,8.13l-2.8,1.263" transform="translate(872.786 22.177)" fill="#ffbe9d"/>
      <path id="Tracé_25228" data-name="Tracé 25228" d="M-784.015,239.636a6.25,6.25,0,0,1,1.155-.6l3.36-1.52,12.582-5.478,42.559-18.122-.257.812-5.692-9.116-12.111-19.258.621.214L-778,198.038l-10.484,3.254-2.825.812-.984.235a3.513,3.513,0,0,1,.941-.407l2.76-.984,10.377-3.53,36.033-11.918.407-.129.214.343,12.154,19.258,5.692,9.114.342.536-.6.257-42.8,17.781-12.71,5.158-3.445,1.348A7.078,7.078,0,0,1-784.015,239.636Z" transform="translate(857.857 29.462)" fill="#333"/>
      <path id="Tracé_25229" data-name="Tracé 25229" d="M-787.466,189.5a13.632,13.632,0,0,1,14.422,3.873,48.34,48.34,0,0,0-6.934-3.017A50.529,50.529,0,0,0-787.466,189.5Z" transform="translate(859.875 30.901)" fill="#333"/>
    </g>
    <g id="freepik--character-2--inject-2" transform="translate(-310.354 33.833)">
      <path id="Tracé_25230" data-name="Tracé 25230" d="M-341.272,446.722l21.852,152.019,36.055-2.447s-13.373-161-14.684-164.935Z" transform="translate(518.08 132.207)" fill="#ffbe9d"/>
      <path id="Tracé_25231" data-name="Tracé 25231" d="M-354,135.6l-59.173,18.7.743-5.026a70.658,70.658,0,0,1,6.161-7.867,13.519,13.519,0,0,0,3.475-9.134c-.218-2.732-1.769-5.179-2.185-7.888-.94-6.207,4.021-11.648,8.74-15.777s10.074-8.872,10.227-15.165c.086-3.561-1.574-6.948-1.748-10.532-.262-5.179,2.535-9.942,4.719-14.684,3.8-8.347,6.14-15.318,10.007-25.827" transform="translate(488.047 -30.254)" fill="#333"/>
      <path id="Tracé_25232" data-name="Tracé 25232" d="M-411.387,427.029l2.359,172.516,35.945,2.709s9.7-171.226,10.708-175.226Z" transform="translate(488.794 130.398)" fill="#ffbe9d"/>
      <path id="Tracé_25233" data-name="Tracé 25233" d="M-427.6,559.767c6.993,2.1,50.04,1.378,60.572,1.028h2.36l.24-12.477-38.3-.787-.109,3.781S-435.382,557.5-427.6,559.767Z" transform="translate(481.519 180.729)" fill="#f59a00"/>
      <g id="Groupe_16587" data-name="Groupe 16587" transform="translate(102.951 731.051)" opacity="0.3">
        <path id="Tracé_25234" data-name="Tracé 25234" d="M-379.581,559.469l.218-9.92a13.527,13.527,0,0,0-8.96,2.426,12.2,12.2,0,0,0-5.047,7.451Z" transform="translate(393.369 -549.5)"/>
      </g>
      <g id="Groupe_16588" data-name="Groupe 16588" transform="translate(52.6 735.646)" opacity="0.3">
        <path id="Tracé_25235" data-name="Tracé 25235" d="M-415.42,557.373l50.783.525v.787c-19.229,1.224-62.757.394-64.133-1.354s10.051-4.589,10.051-4.589C-416.513,552.741-415.42,557.373-415.42,557.373Z" transform="translate(428.885 -552.741)"/>
      </g>
      <path id="Tracé_25236" data-name="Tracé 25236" d="M-364.1,556.564h-9.484c-5.855,0-13.94-.021-22.879-.174s-17.022-.415-22.877-.634l-6.927-.241h-1.88l1.88.132,6.927.393c5.834.306,13.94.656,22.877.766s17.024,0,22.879,0l6.949-.153h2.535Z" transform="translate(481.519 184.064)" fill="#333"/>
      <path id="Tracé_25237" data-name="Tracé 25237" d="M-419.2,554.681a4.964,4.964,0,0,0-2.711-2.3A13.965,13.965,0,0,1-419.6,554.9a13.626,13.626,0,0,1,1.223,3.1A4.367,4.367,0,0,0-419.2,554.681Z" transform="translate(484.397 182.757)" fill="#333"/>
      <path id="Tracé_25238" data-name="Tracé 25238" d="M-411.589,552.007c-.546-.831-1.07-1.442-1.179-1.376s.261.766.785,1.595a4.562,4.562,0,0,0,1.158,1.4C-410.715,553.625-411.043,552.838-411.589,552.007Z" transform="translate(488.209 182.022)" fill="#333"/>
      <path id="Tracé_25239" data-name="Tracé 25239" d="M-409.512,551.146c-.655-.568-1.245-.94-1.333-.852s.394.59,1.028,1.158a5.739,5.739,0,0,0,1.31.873C-408.419,552.239-408.856,551.714-409.512,551.146Z" transform="translate(489.016 181.878)" fill="#333"/>
      <path id="Tracé_25240" data-name="Tracé 25240" d="M-408.582,549.238a4.359,4.359,0,0,0-1.988.2,4.771,4.771,0,0,0,1.988.218,4.367,4.367,0,0,0,1.989-.2A4.952,4.952,0,0,0-408.582,549.238Z" transform="translate(489.135 181.426)" fill="#333"/>
      <path id="Tracé_25241" data-name="Tracé 25241" d="M-408.215,547.951a15.61,15.61,0,0,0-2.186,0,4.031,4.031,0,0,0,2.3.328,4.113,4.113,0,0,0,2.185-.547A11.224,11.224,0,0,0-408.215,547.951Z" transform="translate(489.206 180.813)" fill="#333"/>
      <path id="Tracé_25242" data-name="Tracé 25242" d="M-412.594,551.212a18.29,18.29,0,0,1-2.512-.678,6.326,6.326,0,0,1-1.377-.568c-.415-.24-.569-.678-.176-.94a4.243,4.243,0,0,1,2.929-.13,4.545,4.545,0,0,1,2.076,1.311,6.518,6.518,0,0,1,1.07,1.966,1.18,1.18,0,0,0,0-.612,4.359,4.359,0,0,0-.764-1.551,4.72,4.72,0,0,0-5.55-1.311.85.85,0,0,0-.371.9,1.224,1.224,0,0,0,.59.722,8.032,8.032,0,0,0,1.465.611,16.106,16.106,0,0,0,2.6.568,7.863,7.863,0,0,0,2.447,0C-410.168,551.43-411.085,551.407-412.594,551.212Z" transform="translate(486.329 181.048)" fill="#333"/>
      <path id="Tracé_25243" data-name="Tracé 25243" d="M-412.538,550.366a3.377,3.377,0,0,1,.722-1.464,2.187,2.187,0,0,1,1.639-.94c.611.109.349.984,0,1.465a7.767,7.767,0,0,1-1.049,1.333,15.619,15.619,0,0,1-1.181,1.114,3.727,3.727,0,0,0,1.42-.9,7.561,7.561,0,0,0,1.181-1.354,2.2,2.2,0,0,0,.437-1.005c.006-.026.011-.052.016-.078a.876.876,0,0,0-.737-.994,2.537,2.537,0,0,0-2.076,1.116,3.663,3.663,0,0,0-.7,1.66,2.184,2.184,0,0,0,.24,1.595A8.232,8.232,0,0,1-412.538,550.366Z" transform="translate(488.153 180.735)" fill="#333"/>
      <path id="Tracé_25244" data-name="Tracé 25244" d="M-380.184,549.26a9.713,9.713,0,0,0-2.185,0,12.1,12.1,0,0,0-6.446,2.185,10.93,10.93,0,0,0-3.977,5.2,7.97,7.97,0,0,0-.459,1.9,1.812,1.812,0,0,0,0,.72c.088.023.153-1.005.787-2.512a11.516,11.516,0,0,1,3.955-4.983,12.725,12.725,0,0,1,6.184-2.185,25.211,25.211,0,0,1,2.818,0A6.35,6.35,0,0,0-380.184,549.26Z" transform="translate(496.354 181.426)" fill="#333"/>
      <path id="Tracé_25245" data-name="Tracé 25245" d="M-398.925,553.928H-404.5a21.644,21.644,0,0,0,5.572.525,22.464,22.464,0,0,0,5.571-.415A50.893,50.893,0,0,0-398.925,553.928Z" transform="translate(491.672 183.401)" fill="#333"/>
      <path id="Tracé_25246" data-name="Tracé 25246" d="M-391.929,554.932c-.306.611-.262,1.136-.132,1.158s.285-.459.547-.984.481-1.005.481-1.005C-391.121,554.013-391.623,554.32-391.929,554.932Z" transform="translate(496.825 183.467)" fill="#333"/>
      <path id="Tracé_25247" data-name="Tracé 25247" d="M-389.789,552.34c-.393.372-.678.743-.567.831s.481-.176.9-.525a2.019,2.019,0,0,0,.567-.809C-388.979,551.75-389.395,551.968-389.789,552.34Z" transform="translate(497.568 182.52)" fill="#333"/>
      <path id="Tracé_25248" data-name="Tracé 25248" d="M-387.067,550.763c-.7.218-1.005.721-.919.787s.5-.2,1.072-.371,1.092-.153,1.092-.284C-385.778,550.784-386.368,550.545-387.067,550.763Z" transform="translate(498.562 182.042)" fill="#333"/>
      <path id="Tracé_25249" data-name="Tracé 25249" d="M-384.743,550.388c-.3.109-.546.306-.5.415s.327.109.655,0a1.034,1.034,0,0,0,.5-.393C-384.13,550.3-384.436,550.279-384.743,550.388Z" transform="translate(499.711 181.892)" fill="#333"/>
      <path id="Tracé_25250" data-name="Tracé 25250" d="M-303.778,291.22h0A6.557,6.557,0,0,0-297,295.59l14.4-1.18a2.313,2.313,0,0,1,1.966.873h0a2.167,2.167,0,0,1,.286.437,2.185,2.185,0,0,1-.985,2.929l-10.248,5.615a16.731,16.731,0,0,1-2.753,1.205,16.716,16.716,0,0,1-21.152-10.557l-2.186-6.795a27.207,27.207,0,0,1,2.4-26.223l33.979-50.148s-47.767-43.572-48.882-44.206l12.018-44.511,63.129,60.9a36.34,36.34,0,0,1,4.021,47.679Z" transform="translate(522.715 3.423)" fill="#ffbe9d"/>
      <path id="Tracé_25251" data-name="Tracé 25251" d="M-287.939,179.227c-2.579,3.322-5.812,6.643-8.326,10.358" transform="translate(536.878 26.895)" fill="#ffbe9d"/>
      <path id="Tracé_25252" data-name="Tracé 25252" d="M-366.73,198.483s-13.679,34.22-22.419,47.331c-12.827,19.295-44.4,17.109-50.8-5.135-10.708-37.148-17.918-98.091-17.918-98.091l-.35-3.234c-1.2-12.477-5.418-21.678-6.555-28.057-2.141-11.887-1.07-12.172.35-12.172,3.846-.13,4.632,20.759,6.992,16.1s-3.824-25.347.174-25.347c5.223.043,5.594,21.939,5.747,23.773s2.818,1.662,2.579,0c-.371-2.382-3.322-27.51,1.813-27.51,2.776-.023,2.185,5.114,2.185,5.114s1.049,23.752,3.5,23.664,2.316-14.137,1.922-18.77,1.683-6.751,3.867-5.265c1.486,1.005,3.015,15.274,3.278,20.038s.766,17.591,5.638,10.925,11.144-9.986,13.329-9.745a2.533,2.533,0,0,1,1.734,1.443,2.536,2.536,0,0,1-1.3,3.343,31.333,31.333,0,0,0-6.052,5.681,30.638,30.638,0,0,0-3.519,5.659,28.026,28.026,0,0,0-2.884,14.619l8.74,69.53,14.139-25.588Z" transform="translate(465.988 -11.983)" fill="#ffbe9d"/>
      <path id="Tracé_25253" data-name="Tracé 25253" d="M-454.379,120.247a7.32,7.32,0,0,1,4.524,3.343h-.766a11.912,11.912,0,0,1,1.968-4.086,13.1,13.1,0,0,1,7.1-4.917,6.691,6.691,0,0,1,3.561-.241c.023.176-1.354.132-3.387.852a13.8,13.8,0,0,0-6.555,4.83,11.964,11.964,0,0,0-1.878,3.78l-.285.984-.481-.875a7.426,7.426,0,0,0-3.955-3.278c-1.223-.415-2.032-.415-2.032-.525A3.653,3.653,0,0,1-454.379,120.247Z" transform="translate(469.924 -0.261)" fill="#eb996e"/>
      <path id="Tracé_25254" data-name="Tracé 25254" d="M-262.717,559.638c-6.971,2.119-50.04,1.4-60.572,1.049h-2.36l-.24-12.477,38.306-.787.109,3.781S-254.916,557.365-262.717,559.638Z" transform="translate(524.505 180.684)" fill="#f59a00"/>
      <g id="Groupe_16589" data-name="Groupe 16589" transform="translate(198.66 730.896)" opacity="0.3">
        <path id="Tracé_25255" data-name="Tracé 25255" d="M-325.64,559.341l-.218-9.9a13.6,13.6,0,0,1,8.981,2.4,12.35,12.35,0,0,1,5.026,7.474Z" transform="translate(325.858 -549.39)"/>
      </g>
      <g id="Groupe_16590" data-name="Groupe 16590" transform="translate(198.856 735.428)" opacity="0.3">
        <path id="Tracé_25256" data-name="Tracé 25256" d="M-274.893,557.175l-50.827.547v.808c19.229,1.2,62.779.415,64.156-1.355s-10.051-4.588-10.051-4.588C-273.844,552.805-274.893,557.175-274.893,557.175Z" transform="translate(325.72 -552.587)"/>
      </g>
      <path id="Tracé_25257" data-name="Tracé 25257" d="M-325.377,556.462h8.74c5.856,0,13.942-.021,22.879-.174s17.022-.415,22.879-.634l6.927-.262h1.9l-1.88.153-6.927.393c-5.856.285-13.941.656-22.879.766s-17.043,0-22.9,0l-6.927-.153h-2.556Z" transform="translate(524.409 184.013)" fill="#333"/>
      <path id="Tracé_25258" data-name="Tracé 25258" d="M-289.024,554.573a5.109,5.109,0,0,1,2.709-2.3,14.914,14.914,0,0,0-2.316,2.514,14.51,14.51,0,0,0-1.223,3.1A4.563,4.563,0,0,1-289.024,554.573Z" transform="translate(539.537 182.712)" fill="#333"/>
      <path id="Tracé_25259" data-name="Tracé 25259" d="M-297.091,551.922c.525-.831,1.049-1.465,1.158-1.4s-.218.787-.766,1.618a4.543,4.543,0,0,1-1.18,1.377C-297.987,553.451-297.615,552.751-297.091,551.922Z" transform="translate(536.197 181.977)" fill="#333"/>
      <path id="Tracé_25260" data-name="Tracé 25260" d="M-299.079,551.044c.655-.567,1.245-.961,1.333-.873s-.349.611-1.005,1.18a5.548,5.548,0,0,1-1.333.852C-300.172,552.116-299.734,551.612-299.079,551.044Z" transform="translate(535.279 181.827)" fill="#333"/>
      <path id="Tracé_25261" data-name="Tracé 25261" d="M-299.51,549.11a5.177,5.177,0,0,1,1.988.2,4.37,4.37,0,0,1-1.988.24,5.376,5.376,0,0,1-2.01-.2A4.787,4.787,0,0,1-299.51,549.11Z" transform="translate(534.684 181.379)" fill="#333"/>
      <path id="Tracé_25262" data-name="Tracé 25262" d="M-299.691,547.849a11.469,11.469,0,0,1,2.185,0,5.944,5.944,0,0,1-4.522-.241A17.465,17.465,0,0,1-299.691,547.849Z" transform="translate(534.471 180.761)" fill="#333"/>
      <path id="Tracé_25263" data-name="Tracé 25263" d="M-294.572,551.082a19.477,19.477,0,0,0,2.512-.655,7.372,7.372,0,0,0,1.355-.569c.437-.24.567-.676.174-.938a3.989,3.989,0,0,0-2.927-.132,4.376,4.376,0,0,0-2.054,1.311,5.712,5.712,0,0,0-1.072,1.966v-.634a4.126,4.126,0,0,1,.766-1.53,4.678,4.678,0,0,1,5.529-1.311.853.853,0,0,1,.393.9,1.224,1.224,0,0,1-.59.721,6.845,6.845,0,0,1-1.486.59,15.893,15.893,0,0,1-2.6.59,7.876,7.876,0,0,1-2.448,0A20.7,20.7,0,0,1-294.572,551.082Z" transform="translate(536.563 181.002)" fill="#333"/>
      <path id="Tracé_25264" data-name="Tracé 25264" d="M-295.7,550.258a3.677,3.677,0,0,0-.722-1.464,2.187,2.187,0,0,0-1.639-.94c-.59.109-.35.963,0,1.443a8.086,8.086,0,0,0,1.049,1.354c.7.7,1.2,1.114,1.2,1.114a3.731,3.731,0,0,1-1.419-.9,8.327,8.327,0,0,1-1.2-1.354,2.755,2.755,0,0,1-.437-1.028l0-.026a.9.9,0,0,1,.747-1.023,2.429,2.429,0,0,1,2.054,1.116,3.639,3.639,0,0,1,.72,1.66,2.048,2.048,0,0,1-.262,1.574A8.907,8.907,0,0,0-295.7,550.258Z" transform="translate(535.786 180.69)" fill="#333"/>
      <path id="Tracé_25265" data-name="Tracé 25265" d="M-325.151,549.118a11.719,11.719,0,0,1,2.186,0,12.629,12.629,0,0,1,6.555,2.186,10.933,10.933,0,0,1,3.977,5.221,9.339,9.339,0,0,1,.459,1.9v.722a22.239,22.239,0,0,0-.766-2.513,11.559,11.559,0,0,0-3.955-4.982,13.109,13.109,0,0,0-6.205-2.185,19.2,19.2,0,0,0-2.82,0A3.266,3.266,0,0,1-325.151,549.118Z" transform="translate(524.576 181.371)" fill="#333"/>
      <path id="Tracé_25266" data-name="Tracé 25266" d="M-307.078,553.837c3.082,0,5.573-.132,5.573,0a22.61,22.61,0,0,1-5.55.525,24.278,24.278,0,0,1-5.594-.415A44.919,44.919,0,0,1-307.078,553.837Z" transform="translate(530.035 183.339)" fill="#333"/>
      <path id="Tracé_25267" data-name="Tracé 25267" d="M-317.024,554.824c.328.59.262,1.135.13,1.158s-.284-.459-.546-.984-.481-1.005-.481-1.005C-317.811,553.906-317.353,554.234-317.024,554.824Z" transform="translate(527.834 183.422)" fill="#333"/>
      <path id="Tracé_25268" data-name="Tracé 25268" d="M-319.059,552.232c.394.372.655.722.569.808s-.5-.13-.9-.5a2.536,2.536,0,0,1-.569-.809C-319.867,551.642-319.452,551.86-319.059,552.232Z" transform="translate(526.984 182.475)" fill="#333"/>
      <path id="Tracé_25269" data-name="Tracé 25269" d="M-321.575,550.652c.7.2,1.049.678.94.766s-.5-.176-1.072-.35-1.114-.153-1.114-.284C-322.865,550.675-322.274,550.455-321.575,550.652Z" transform="translate(525.785 182)" fill="#333"/>
      <path id="Tracé_25270" data-name="Tracé 25270" d="M-324.2,550.283c.327.109.546.285.5.394s-.329.086-.656,0-.5-.285-.5-.394C-324.813,550.174-324.529,550.174-324.2,550.283Z" transform="translate(524.937 181.844)" fill="#333"/>
      <path id="Tracé_25271" data-name="Tracé 25271" d="M-387.071,211.257l-16.76,34.284a64.258,64.258,0,0,0-6.555,25.917l-10.248,333.385,69.749,2.185,7.474-283.127L-318.7,604.8l76.043-8.216L-272.221,271-297.5,212Z" transform="translate(484.931 40.274)" fill="#333"/>
      <path id="Tracé_25272" data-name="Tracé 25272" d="M-368.158,299.279a8,8,0,0,0,6.906-5.2c1.53-3.628,1.158-8.456,1.158-13.788V263.029c.065-12.259.174-23.338.306-31.358.086-3.867.218-7.057.218-9.5a23.843,23.843,0,0,1,.24-3.5,19.381,19.381,0,0,1,.218,3.5c.023,2.447.132,5.637.132,9.5v31.358c-.109,6.117.021,12.018-.109,17.262s.262,10.2-1.465,14.095a8.914,8.914,0,0,1-3.605,4.218,7.943,7.943,0,0,1-4.043,1.114,4.878,4.878,0,0,1-2.533-.7,2.93,2.93,0,0,1-.7-.591A6.541,6.541,0,0,0-368.158,299.279Z" transform="translate(505.481 43.37)" fill="#494b52"/>
      <path id="Tracé_25273" data-name="Tracé 25273" d="M-401.97,245.57a25.013,25.013,0,0,0,8.347-.546,39.1,39.1,0,0,0,9.593-3.758,32.789,32.789,0,0,0,12.892-13.22c2.25-4.283,2.8-7.233,3.015-7.233a7.445,7.445,0,0,1-.306,2.185,27.854,27.854,0,0,1-1.989,5.485,31.433,31.433,0,0,1-13.111,13.854,36.036,36.036,0,0,1-9.9,3.781,24.262,24.262,0,0,1-8.74.349,22.548,22.548,0,0,1-5.615-1.574,6.227,6.227,0,0,1-1.88-1.026A47.586,47.586,0,0,0-401.97,245.57Z" transform="translate(489.515 44.265)" fill="#494b52"/>
      <path id="Tracé_25274" data-name="Tracé 25274" d="M-344.4,228.655a32.316,32.316,0,0,0,26.221,21.523c4.566.656,7.473.241,7.473.459a6.234,6.234,0,0,1-2.01.371,27.5,27.5,0,0,1-5.55,0,31.38,31.38,0,0,1-26.943-22.092,27.141,27.141,0,0,1-1.092-5.441,5.82,5.82,0,0,1,0-2.032C-346.082,221.422-345.929,224.329-344.4,228.655Z" transform="translate(515.942 44.529)" fill="#494b52"/>
      <path id="Tracé_25275" data-name="Tracé 25275" d="M-369.493,219.25a3.15,3.15,0,0,0-.7,2.448,2.666,2.666,0,0,0,2.185,1.966,2.623,2.623,0,0,0,2.732-.984,3.1,3.1,0,0,0,.3-2.535,3.793,3.793,0,0,0-1.53-2.185c0-.065.306-.088.787.153a3.232,3.232,0,0,1,1.486,1.66,3.754,3.754,0,0,1-.153,3.366,3.8,3.8,0,0,1-2.273,1.52,3.8,3.8,0,0,1-4.545-2.875,3.871,3.871,0,0,1,1.137-3.169,3.233,3.233,0,0,1,2.01-.961,1.3,1.3,0,0,1,.808.153C-367.243,218.005-368.444,217.9-369.493,219.25Z" transform="translate(505.571 42.943)" fill="#494b52"/>
      <path id="Tracé_25276" data-name="Tracé 25276" d="M-346.238,477.028l7.865-.9c6.622-.808,15.821-1.792,25.917-2.993s19.316-2.491,25.871-3.387l7.823-1.049a12.569,12.569,0,0,1,2.906-.241,15.785,15.785,0,0,1-2.818.678c-1.836.371-4.5.852-7.8,1.4-6.6,1.114-15.733,2.491-25.85,3.736s-19.425,2.142-25.982,2.667c-3.32.262-6.031.546-7.888.546a13.456,13.456,0,0,1-2.906,0A13.508,13.508,0,0,1-346.238,477.028Z" transform="translate(514.809 147.701)" fill="#494b52"/>
      <path id="Tracé_25277" data-name="Tracé 25277" d="M-415.386,472.437h7.21c6.075.044,14.487.327,23.752,1.07s17.613,1.748,23.644,2.644c2.993.459,5.441.852,7.1,1.18a11.276,11.276,0,0,1,2.579.612,14.111,14.111,0,0,1-2.644-.174l-7.145-.81c-6.032-.7-14.378-1.595-23.621-2.315s-17.613-1.158-23.687-1.421l-7.189-.306a10.97,10.97,0,0,1-2.644-.262A14.237,14.237,0,0,1-415.386,472.437Z" transform="translate(486.019 149.363)" fill="#494b52"/>
      <path id="Tracé_25278" data-name="Tracé 25278" d="M-412.4,469.681a13.1,13.1,0,0,1-.808,5.42,26.985,26.985,0,0,1,.459-10.926A14.008,14.008,0,0,1-412.4,469.681Z" transform="translate(487.885 145.913)" fill="#494b52"/>
      <path id="Tracé_25279" data-name="Tracé 25279" d="M-411.755,454.241a13.124,13.124,0,0,1-.787,5.441,14.007,14.007,0,0,1-.35-5.485,13.1,13.1,0,0,1,.809-5.42A13.713,13.713,0,0,1-411.755,454.241Z" transform="translate(488.113 139.481)" fill="#494b52"/>
      <path id="Tracé_25280" data-name="Tracé 25280" d="M-411.154,438.849a13.542,13.542,0,0,1-.787,5.441,26.562,26.562,0,0,1,.437-10.926A13.1,13.1,0,0,1-411.154,438.849Z" transform="translate(488.408 133.044)" fill="#494b52"/>
      <path id="Tracé_25281" data-name="Tracé 25281" d="M-410.486,423.451a14.121,14.121,0,0,1-.787,5.441,13.1,13.1,0,0,1-.35-5.485,14.006,14.006,0,0,1,.787-5.441A13.1,13.1,0,0,1-410.486,423.451Z" transform="translate(488.636 126.612)" fill="#494b52"/>
      <path id="Tracé_25282" data-name="Tracé 25282" d="M-409.854,408.053a13.95,13.95,0,0,1-.787,5.418,13.1,13.1,0,0,1-.35-5.485,13.507,13.507,0,0,1,.787-5.418A14.114,14.114,0,0,1-409.854,408.053Z" transform="translate(488.9 120.181)" fill="#494b52"/>
      <path id="Tracé_25283" data-name="Tracé 25283" d="M-409.243,392.655a12.924,12.924,0,0,1-.787,5.418,14.005,14.005,0,0,1-.349-5.485,13.26,13.26,0,0,1,.808-5.418A13.793,13.793,0,0,1-409.243,392.655Z" transform="translate(489.163 113.749)" fill="#494b52"/>
      <path id="Tracé_25284" data-name="Tracé 25284" d="M-408.611,377.234a13.515,13.515,0,0,1-.787,5.441,14,14,0,0,1-.349-5.485,13.816,13.816,0,0,1,.787-5.418A13.116,13.116,0,0,1-408.611,377.234Z" transform="translate(489.427 107.318)" fill="#494b52"/>
      <path id="Tracé_25285" data-name="Tracé 25285" d="M-407.974,361.843a13.98,13.98,0,0,1-.787,5.441,13.127,13.127,0,0,1-.349-5.485,14.093,14.093,0,0,1,.787-5.441A13.617,13.617,0,0,1-407.974,361.843Z" transform="translate(489.686 100.88)" fill="#494b52"/>
      <path id="Tracé_25286" data-name="Tracé 25286" d="M-407.345,346.445a13.418,13.418,0,0,1-.808,5.441,13.844,13.844,0,0,1-.327-5.485,13.643,13.643,0,0,1,.785-5.441A14.061,14.061,0,0,1-407.345,346.445Z" transform="translate(489.952 94.448)" fill="#494b52"/>
      <path id="Tracé_25287" data-name="Tracé 25287" d="M-406.731,331.047a13.124,13.124,0,0,1-.787,5.441,14.087,14.087,0,0,1-.35-5.485,13.423,13.423,0,0,1,.808-5.441A13.846,13.846,0,0,1-406.731,331.047Z" transform="translate(490.212 88.017)" fill="#494b52"/>
      <path id="Tracé_25288" data-name="Tracé 25288" d="M-406.129,315.649a13.661,13.661,0,0,1-.787,5.441,26.563,26.563,0,0,1,.437-10.926A13.1,13.1,0,0,1-406.129,315.649Z" transform="translate(490.507 81.585)" fill="#494b52"/>
      <path id="Tracé_25289" data-name="Tracé 25289" d="M-405.461,300.251a13.847,13.847,0,0,1-.787,5.42,12.958,12.958,0,0,1-.35-5.464,14.014,14.014,0,0,1,.787-5.441A13.541,13.541,0,0,1-405.461,300.251Z" transform="translate(490.735 75.154)" fill="#494b52"/>
      <path id="Tracé_25290" data-name="Tracé 25290" d="M-404.832,284.853a13.1,13.1,0,0,1-.808,5.42,13.793,13.793,0,0,1-.327-5.485,12.931,12.931,0,0,1,.787-5.42A13.982,13.982,0,0,1-404.832,284.853Z" transform="translate(491.001 68.722)" fill="#494b52"/>
      <path id="Tracé_25291" data-name="Tracé 25291" d="M-404.218,269.434a13.125,13.125,0,0,1-.787,5.441,13.982,13.982,0,0,1-.349-5.485,13.1,13.1,0,0,1,.808-5.42A13.637,13.637,0,0,1-404.218,269.434Z" transform="translate(491.261 62.291)" fill="#494b52"/>
      <path id="Tracé_25292" data-name="Tracé 25292" d="M-403.571,254.042a13.513,13.513,0,0,1-.787,5.441,26.587,26.587,0,0,1,.438-10.926A13.127,13.127,0,0,1-403.571,254.042Z" transform="translate(491.575 55.853)" fill="#494b52"/>
      <path id="Tracé_25293" data-name="Tracé 25293" d="M-403.1,240.1c-.044.984-.306,1.771-.634,1.748s-.546-.808-.5-1.792.329-1.748.635-1.748C-403.272,238.307-403.054,239.115-403.1,240.1Z" transform="translate(491.779 51.572)" fill="#494b52"/>
      <path id="Tracé_25294" data-name="Tracé 25294" d="M-303.98,461.771a27,27,0,0,1,1.026,10.926,13.265,13.265,0,0,1-1.092-5.4,14,14,0,0,1,0-5.484Z" transform="translate(533.516 144.909)" fill="#494b52"/>
      <path id="Tracé_25295" data-name="Tracé 25295" d="M-304.356,451.878a13.149,13.149,0,0,1,0,5.485,13.752,13.752,0,0,1-1.072-5.376,13.248,13.248,0,0,1,0-5.506A13.91,13.91,0,0,1-304.356,451.878Z" transform="translate(532.931 138.522)" fill="#494b52"/>
      <path id="Tracé_25296" data-name="Tracé 25296" d="M-305.977,436.564a13.744,13.744,0,0,1,0,5.506,27,27,0,0,1-1.028-10.926A13.12,13.12,0,0,1-305.977,436.564Z" transform="translate(532.323 132.116)" fill="#494b52"/>
      <path id="Tracé_25297" data-name="Tracé 25297" d="M-308.3,415.762a27.023,27.023,0,0,1,1.028,10.925,13.255,13.255,0,0,1-1.093-5.4,14.108,14.108,0,0,1,0-5.484Z" transform="translate(531.714 125.692)" fill="#494b52"/>
      <path id="Tracé_25298" data-name="Tracé 25298" d="M-308.718,405.832a13.149,13.149,0,0,1,0,5.485,13.753,13.753,0,0,1-1.072-5.376,13.149,13.149,0,0,1,0-5.485A13.755,13.755,0,0,1-308.718,405.832Z" transform="translate(531.109 119.299)" fill="#494b52"/>
      <path id="Tracé_25299" data-name="Tracé 25299" d="M-310.248,390.524a14.168,14.168,0,0,1,0,5.506,27,27,0,0,1-1.026-10.926A13.238,13.238,0,0,1-310.248,390.524Z" transform="translate(530.54 112.886)" fill="#494b52"/>
      <path id="Tracé_25300" data-name="Tracé 25300" d="M-312.612,369.722a27,27,0,0,1,1.028,10.926,13.23,13.23,0,0,1-1.093-5.376,14.169,14.169,0,0,1,0-5.506Z" transform="translate(529.911 106.462)" fill="#494b52"/>
      <path id="Tracé_25301" data-name="Tracé 25301" d="M-313.034,359.792a13.1,13.1,0,0,1,0,5.485,13.725,13.725,0,0,1-1.07-5.376,13.1,13.1,0,0,1,0-5.485A13.778,13.778,0,0,1-313.034,359.792Z" transform="translate(529.306 100.068)" fill="#494b52"/>
      <path id="Tracé_25302" data-name="Tracé 25302" d="M-314.564,344.483a14.166,14.166,0,0,1,0,5.506,27,27,0,0,1-1.026-10.925A13.226,13.226,0,0,1-314.564,344.483Z" transform="translate(528.737 93.657)" fill="#494b52"/>
      <path id="Tracé_25303" data-name="Tracé 25303" d="M-316.924,323.682a27.029,27.029,0,0,1,1.026,10.926,13.133,13.133,0,0,1-1.093-5.376,13.745,13.745,0,0,1,0-5.506Z" transform="translate(528.105 87.231)" fill="#494b52"/>
      <path id="Tracé_25304" data-name="Tracé 25304" d="M-317.35,313.752a13.25,13.25,0,0,1,0,5.506,13.933,13.933,0,0,1-1.07-5.4,13.1,13.1,0,0,1,0-5.485A13.726,13.726,0,0,1-317.35,313.752Z" transform="translate(527.503 80.838)" fill="#494b52"/>
      <path id="Tracé_25305" data-name="Tracé 25305" d="M-318.878,298.466a14.053,14.053,0,0,1,0,5.484,27,27,0,0,1-1.028-10.925A13.264,13.264,0,0,1-318.878,298.466Z" transform="translate(526.935 74.427)" fill="#494b52"/>
      <path id="Tracé_25306" data-name="Tracé 25306" d="M-321.24,277.642a27,27,0,0,1,1.026,10.926,13.108,13.108,0,0,1-1.092-5.376,13.692,13.692,0,0,1,0-5.506Z" transform="translate(526.303 68.001)" fill="#494b52"/>
      <path id="Tracé_25307" data-name="Tracé 25307" d="M-321.666,267.711a13.209,13.209,0,0,1,0,5.508,13.945,13.945,0,0,1-1.07-5.4,13.093,13.093,0,0,1,0-5.484A13.72,13.72,0,0,1-321.666,267.711Z" transform="translate(525.701 61.609)" fill="#494b52"/>
      <path id="Tracé_25308" data-name="Tracé 25308" d="M-323.194,252.426a13.846,13.846,0,0,1,0,5.485,26.906,26.906,0,0,1-1.028-10.926A13.118,13.118,0,0,1-323.194,252.426Z" transform="translate(525.132 55.196)" fill="#494b52"/>
      <path id="Tracé_25309" data-name="Tracé 25309" d="M-295.3,254.045l5.156-69.662,17.328,14.139,37.584-34.35-47.2-42.786a42.847,42.847,0,0,0-33.847-10.925,33.57,33.57,0,0,0-3.54.611l-41.518.481s-28.013-4-45.493,18.618c-6.752,8.7-19.034,55.2-19.034,55.2L-385.631,190c-.109,1.136.611,63.368.611,63.368Z" transform="translate(482.749 -1.947)" fill="#f59a00"/>
      <path id="Tracé_25310" data-name="Tracé 25310" d="M-357.382,185.32c34.9,21.851,63.02,39.813,62.888,40.054s-28.6-17.24-63.5-39.093-63.063-39.792-62.888-40.054C-420.729,145.966-392.279,163.47-357.382,185.32Z" transform="translate(484.828 13.111)" fill="#333"/>
      <path id="Tracé_25311" data-name="Tracé 25311" d="M-347.257,164.574c22.2,29.39,39.945,53.23,39.682,53.425s-18.421-23.359-40.6-52.749-39.923-53.23-39.661-53.425C-387.594,111.628-369.458,135.185-347.257,164.574Z" transform="translate(498.63 -1.258)" fill="#333"/>
      <path id="Tracé_25312" data-name="Tracé 25312" d="M-340.149,142.958-367.135,40.432a21.326,21.326,0,0,1,25.588-4.021A27.986,27.986,0,0,1-326.558,57.52c.568,4.371.067,8.74.35,13.111a17.486,17.486,0,0,0,4.676,11.952c3.563,3.256,8.938,4.021,12.3,7.473,4.086,4.218,3.781,10.926,2.906,16.695s-2.447,11.778,0,17.328,8.522,8.96,10.708,14.619c2.95,7.626-1.246,16.017-.961,24.188A104.447,104.447,0,0,0-340.149,142.958Z" transform="translate(507.277 -33.833)" fill="#333"/>
      <path id="Tracé_25313" data-name="Tracé 25313" d="M-307.322,112.151a3.886,3.886,0,0,1,1.443,2.338,4.571,4.571,0,0,1-1.158,4.2,5.68,5.68,0,0,1-5.615,1.18,7.432,7.432,0,0,1-4.83-5.026,13.677,13.677,0,0,1,0-8c.7-2.732,1.989-5.376,2.885-8.194a18.043,18.043,0,0,0,.634-8.916,18.552,18.552,0,0,0-10.051-13.461c-2.448-1.18-5.026-1.988-7.212-3.081a14.59,14.59,0,0,1-5.462-4.371,14.437,14.437,0,0,1-2.928-9.462,11.461,11.461,0,0,1,.458-2.688,7.566,7.566,0,0,1,.371-.873,31.569,31.569,0,0,0-.371,3.561,14.232,14.232,0,0,0,3.1,8.96,13.675,13.675,0,0,0,5.244,3.977c2.163,1.026,4.7,1.792,7.233,2.994a19.447,19.447,0,0,1,10.729,14.2,18.8,18.8,0,0,1-.678,9.44c-.961,2.928-2.207,5.529-2.928,8.15a12.905,12.905,0,0,0-.218,7.43,6.553,6.553,0,0,0,4.174,4.545,5.069,5.069,0,0,0,4.938-.875,4.175,4.175,0,0,0,1.158-3.649,3.805,3.805,0,0,0-1.158-2.185,5.517,5.517,0,0,0-.722-.568A2,2,0,0,1-307.322,112.151Z" transform="translate(518.764 -24.659)" fill="#333"/>
      <path id="Tracé_25314" data-name="Tracé 25314" d="M-367.732,43.774a481.38,481.38,0,0,0,3.714,77.529c1.464,11.407-11.755,4.436-12.674,15.908" transform="translate(503.286 -29.681)" fill="#333"/>
      <path id="Tracé_25315" data-name="Tracé 25315" d="M-318.848,143.168l-37.3,40.4s-31.969-43-30.439-43.374c4-1.005,9.877-1.968,13.526-2.557.678-7.823,1.181-14.2,1.181-14.2s-14.182-3.8-15.3-22.769c-1.092-18.115,8.02-55.983,8.02-55.983,21.546-6.446,39.026-2.644,52.137,15.3l-5.112,78.381A51.687,51.687,0,0,1-318.848,143.168Z" transform="translate(498.868 -30.525)" fill="#ffbe9d"/>
      <path id="Tracé_25316" data-name="Tracé 25316" d="M-378.84,63.358a2.45,2.45,0,0,1,2.077,2.667l-.011.067a2.3,2.3,0,0,1-2.677,1.834,2.4,2.4,0,0,1-2.077-2.644A2.34,2.34,0,0,1-378.84,63.358Z" transform="translate(501.26 -21.514)" fill="#333"/>
      <path id="Tracé_25317" data-name="Tracé 25317" d="M-382.509,62.652a6.554,6.554,0,0,1,7.538.7c.766.678,1.158,1.114.875,1.4s-2.033-1.18-4.654-1.442-4.524.9-4.807.568C-383.69,63.723-383.361,63.177-382.509,62.652Z" transform="translate(500.406 -22.162)" fill="#333"/>
      <path id="Tracé_25318" data-name="Tracé 25318" d="M-362.932,67.4a2.316,2.316,0,0,1,2.681-1.883,2.4,2.4,0,0,1,2.076,2.644l-.007.041a2.316,2.316,0,0,1-2.681,1.883,2.4,2.4,0,0,1-2.076-2.644Z" transform="translate(509.024 -20.614)" fill="#333"/>
      <path id="Tracé_25319" data-name="Tracé 25319" d="M-363.89,64.782a6.179,6.179,0,0,1,3.846-.852,6.552,6.552,0,0,1,3.693,1.551c.873.678,1.158,1.114.873,1.4s-2.031-1.181-4.654-1.443-4.545.9-4.807.568C-365.069,65.853-364.742,65.307-363.89,64.782Z" transform="translate(508.183 -21.277)" fill="#333"/>
      <path id="Tracé_25320" data-name="Tracé 25320" d="M-375.464,83.8a6.713,6.713,0,0,1-1.116-.262,1.723,1.723,0,0,1-.982-1.07,3.912,3.912,0,0,1,.59-2.556c.764-1.552,1.551-3.169,2.36-4.874a86.088,86.088,0,0,1,6.686-12.192,85.7,85.7,0,0,1-5.659,12.7c-.852,1.683-1.683,3.278-2.447,4.807a3.4,3.4,0,0,0-.634,1.922c.065.459.678.656,1.333.787a17.326,17.326,0,0,1,4.108,1.158A16.326,16.326,0,0,1-375.464,83.8Z" transform="translate(502.911 -21.717)" fill="#333"/>
      <path id="Tracé_25321" data-name="Tracé 25321" d="M-376.538,105.09c18.531,3.5,25.873-8.74,25.873-8.74a47.732,47.732,0,0,1-25.7,4.216Z" transform="translate(503.35 -7.721)" fill="#eb996e"/>
      <path id="Tracé_25322" data-name="Tracé 25322" d="M-372.687,82.874a.9.9,0,0,0-.109.961,3.054,3.054,0,0,0,.655.831,10.17,10.17,0,0,0,3.1,2.3,3.15,3.15,0,0,0,3.475-.525,2.73,2.73,0,0,0,0-3.1,4.363,4.363,0,0,0-2.776-1.857,4.676,4.676,0,0,0-4.369,1.333" transform="translate(504.874 -13.978)" fill="#eb996e"/>
      <path id="Tracé_25323" data-name="Tracé 25323" d="M-365.042,81.583a6.008,6.008,0,0,1-2.579,3.78,7.063,7.063,0,0,1-4.654,1.137c-1.267-.153-1.9-.371-1.857-.766s3.015.2,5.594-1.551,2.862-4.48,3.278-4.48C-365.063,79.7-364.824,80.425-365.042,81.583Z" transform="translate(504.354 -14.674)" fill="#333"/>
      <path id="Tracé_25324" data-name="Tracé 25324" d="M-379.008,59.589c-2.47-.023-4.261,1.092-4.108,1.419s1.945,0,4.108,0,3.933.394,4.086,0C-374.748,60.637-376.54,59.61-379.008,59.589Z" transform="translate(500.599 -23.076)" fill="#333"/>
      <path id="Tracé_25325" data-name="Tracé 25325" d="M-355.967,61.915h0l-.176-.3a6.025,6.025,0,0,0-4.239-2.01,6.728,6.728,0,0,0-3.584.611c-.829.415-1.354.656-1.136,1.028s2.163-.415,4.589-.176a18.558,18.558,0,0,1,4.042,1.005v.067C-356.383,62.177-356.23,62.135-355.967,61.915Z" transform="translate(508.106 -23.086)" fill="#333"/>
      <path id="Tracé_25326" data-name="Tracé 25326" d="M-358.127,72.908c-.044-.371-.174-.656-.458-.634s-.329.349-.285.72.241.634.459.634C-358.213,73.607-358.083,73.28-358.127,72.908Z" transform="translate(510.724 -17.778)" fill="#eb996e"/>
      <path id="Tracé_25327" data-name="Tracé 25327" d="M-362.191,72.953c.13-.241.152-.5,0-.634s-.5,0-.656.349,0,.7.2.7C-362.388,73.39-362.323,73.193-362.191,72.953Z" transform="translate(509.042 -17.779)" fill="#eb996e"/>
      <path id="Tracé_25328" data-name="Tracé 25328" d="M-359.963,74.759a.457.457,0,0,0-.35-.481.435.435,0,0,0-.393.437.416.416,0,0,0,.327.481C-360.16,75.2-359.984,74.912-359.963,74.759Z" transform="translate(509.96 -16.94)" fill="#eb996e"/>
      <path id="Tracé_25329" data-name="Tracé 25329" d="M-383.73,72.009c.043-.371-.067-.7-.285-.722s-.415.241-.458.612.086.722.284.722C-383.971,72.643-383.774,72.38-383.73,72.009Z" transform="translate(500.032 -18.19)" fill="#eb996e"/>
      <path id="Tracé_25330" data-name="Tracé 25330" d="M-379.571,72.118a.5.5,0,0,0-.349-.568c-.2-.021-.371.22-.394.525s.132.568.35.568C-379.768,72.642-379.592,72.424-379.571,72.118Z" transform="translate(501.772 -18.08)" fill="#eb996e"/>
      <path id="Tracé_25331" data-name="Tracé 25331" d="M-381.652,73.361c0-.371-.174-.656-.371-.656s-.371.285-.371.656.176.678.394.678C-381.8,74.039-381.652,73.733-381.652,73.361Z" transform="translate(500.904 -17.597)" fill="#eb996e"/>
      <path id="Tracé_25332" data-name="Tracé 25332" d="M-353.88,35.977a22.57,22.57,0,0,0-23.293,3.8c-4.983,4.413-7.714,10.838-9.659,17.2s-2.47,12.5-4.873,20.147c8.937-1.616,15.8-7.429,21.851-14.093a41.724,41.724,0,0,0,10.6-24.32" transform="translate(497.015 -33.64)" fill="#333"/>
      <path id="Tracé_25333" data-name="Tracé 25333" d="M-384.78,65.739a29.167,29.167,0,0,0,11.166-7.648,69.128,69.128,0,0,0,8.479-10.925A35.416,35.416,0,0,1-361.88,42.4a24.319,24.319,0,0,1-2.382,5.288,55.579,55.579,0,0,1-8.369,11.231,41.7,41.7,0,0,1-5.966,4.96,18.735,18.735,0,0,1-5.791,2.644,14.172,14.172,0,0,1-4.369.393,5.855,5.855,0,0,1-1.53-.262A41.387,41.387,0,0,0-384.78,65.739Z" transform="translate(497.608 -30.254)" fill="#494b52"/>
      <path id="Tracé_25334" data-name="Tracé 25334" d="M-381.7,62.923a25.713,25.713,0,0,0-3.5,8.455,24.861,24.861,0,0,0-.546,6.272,42.909,42.909,0,0,0,1.114,7.212,44.449,44.449,0,0,1,1.223,8.15,18.754,18.754,0,0,1-1.836,8.74,19.321,19.321,0,0,1-5.615,6.949c-2.382,1.769-4.829,2.906-6.752,4.522a7.911,7.911,0,0,0-3.255,5.9,12.526,12.526,0,0,0,1.944,5.813,29.625,29.625,0,0,1,2.4,4.785,10.117,10.117,0,0,1,.59,4.043,5.279,5.279,0,0,1-.831,2.447,2.833,2.833,0,0,1-.611.656,6.575,6.575,0,0,0,1.005-3.126,9.87,9.87,0,0,0-.766-3.8,30.5,30.5,0,0,0-2.491-4.61,13.111,13.111,0,0,1-2.185-6.205,8.742,8.742,0,0,1,3.517-6.687c2.054-1.769,4.568-2.95,6.752-4.61a18.447,18.447,0,0,0,5.267-6.555,17.624,17.624,0,0,0,1.748-8.215,44.411,44.411,0,0,0-1.137-7.955,43.5,43.5,0,0,1-1.026-7.386,25.078,25.078,0,0,1,.7-6.555,24.044,24.044,0,0,1,3.911-8.522,17.386,17.386,0,0,1,1.639-1.966,5.048,5.048,0,0,1,.678-.59C-379.687,60.147-380.518,61.064-381.7,62.923Z" transform="translate(492.798 -22.87)" fill="#494b52"/>
      <path id="Tracé_25335" data-name="Tracé 25335" d="M-398.515,109.129a7.106,7.106,0,0,0,4.371.59,6.925,6.925,0,0,0,4.589-3.366,10.617,10.617,0,0,0,1.289-6.9,18.33,18.33,0,0,0-3.211-7.627c-1.618-2.491-3.869-4.741-5.7-7.6a12.452,12.452,0,0,1-1.639-10.182,13.1,13.1,0,0,1,6.555-7.932,17.112,17.112,0,0,1,4.741-1.508c1.552-.306,3.059-.634,4.48-1.026a34.646,34.646,0,0,0,13.5-8.02,41.246,41.246,0,0,0,7.276-7.844,37.635,37.635,0,0,0,1.9-3.453,4.381,4.381,0,0,1-.24,1.005,16.378,16.378,0,0,1-1.29,2.688,37.125,37.125,0,0,1-7.124,8.194,60.26,60.26,0,0,1-5.878,4.719,25.267,25.267,0,0,1-7.844,3.716c-1.486.437-3.015.764-4.545,1.092a15.679,15.679,0,0,0-4.371,1.421,12.131,12.131,0,0,0-6.075,7.256,11.274,11.274,0,0,0,1.508,9.286c1.683,2.709,3.955,5.026,5.615,7.6a19.209,19.209,0,0,1,3.278,8.085,11.517,11.517,0,0,1-1.551,7.473,7.428,7.428,0,0,1-5.158,3.54,7.277,7.277,0,0,1-4.676-.808,5.263,5.263,0,0,1-2.186-2.185,2.708,2.708,0,0,1-.349-.984A6.208,6.208,0,0,0-398.515,109.129Z" transform="translate(493.03 -29.481)" fill="#333"/>
      <path id="Tracé_25336" data-name="Tracé 25336" d="M-312.4,144a18.4,18.4,0,0,0,1.311-11.3,16.436,16.436,0,0,0-3.343-7.08,43.946,43.946,0,0,0-6.774-6.27,30.884,30.884,0,0,1-7.233-7.518,14.16,14.16,0,0,1-2.054-5.265,10.932,10.932,0,0,1,.764-5.791c1.487-3.67,4.022-6.49,5.355-9.7a9.692,9.692,0,0,0,.787-4.851,10.242,10.242,0,0,0-1.836-4.371,24.041,24.041,0,0,0-6.927-5.878,36.7,36.7,0,0,1-6.555-4.851,12.825,12.825,0,0,1-4.371-10.773,8.576,8.576,0,0,1,1.049-3.059c.393-.632.634-.939.634-.939a15.622,15.622,0,0,0-1.246,4.064,12.476,12.476,0,0,0,4.524,10.117,36.77,36.77,0,0,0,6.555,4.654,24.249,24.249,0,0,1,7.254,6.053,10.681,10.681,0,0,1,2.077,4.829,10.922,10.922,0,0,1-.81,5.441c-1.442,3.431-4,6.272-5.353,9.68a9.965,9.965,0,0,0-.678,5.2,12.4,12.4,0,0,0,1.857,4.851,30.416,30.416,0,0,0,6.971,7.3,45.2,45.2,0,0,1,6.84,6.555,17.038,17.038,0,0,1,3.387,7.518,18.293,18.293,0,0,1-1.705,11.646,14.951,14.951,0,0,1-1.813,2.688,9.982,9.982,0,0,1-.787.787A37.028,37.028,0,0,0-312.4,144Z" transform="translate(517.223 -24.427)" fill="#494b52"/>
      <path id="Tracé_25337" data-name="Tracé 25337" d="M-300.1,175.3a10.246,10.246,0,0,1-7.24,5.333,10.248,10.248,0,0,1-11.923-8.24,48.606,48.606,0,0,0,1.354,11.778,136.816,136.816,0,0,0-26.681,8.74c-4.021-4.61-8.325-10.446-6.446-16.258,1.334-4.195,5.529-6.73,6.8-11.21s-1.223-9.067-2.841-13.438c-4.369-11.755-5.725-21.96,1.989-31.86a13.474,13.474,0,0,0,2.185-6.337c.174-4.239-3.015-8.237-2.185-12.41.722-3.716,4.327-6.1,6.1-9.44a10.532,10.532,0,0,0,0-9.331,13.08,13.08,0,0,1-2.73-2.424,14.985,14.985,0,0,1-1.574-2.186l-.415-.218.174-.24a14.354,14.354,0,0,1-1.574-6.928A35.614,35.614,0,0,1-363.757,59.7a24.237,24.237,0,0,1-5.682-20.453l-1.7,1.616a13.268,13.268,0,0,1,8.064-5.746,28.565,28.565,0,0,1,10.117-.459,31.453,31.453,0,0,1,13.832,4.195c6.555,4.262,10.182,11.975,11.231,19.666.9,6.4-3.736,5.923-4.632,12.368,1.4,3.5,6.9,13.9,8.413,17.328a105.44,105.44,0,0,1,6.27,17.089c-4.522,9.309,2.755,19.84,2.755,27.751-.044,8.631,1.639,12.192,2.621,20.758C-311.488,162.405-307.6,171.3-300.1,175.3Z" transform="translate(505.603 -33.592)" fill="#333"/>
      <path id="Tracé_25338" data-name="Tracé 25338" d="M-326.918,60.364a24.99,24.99,0,0,1-5.4,3.235,27.689,27.689,0,0,1-20.453.873,26.767,26.767,0,0,1-9.549-6.337,29.257,29.257,0,0,1-5.418-7.626,28.614,28.614,0,0,1-2.186-5.922,7.366,7.366,0,0,1-.327-2.185,63.027,63.027,0,0,0,3.256,7.823,26.769,26.769,0,0,0,34.481,12.586,45.918,45.918,0,0,0,7.363-4.087A7.287,7.287,0,0,1-326.918,60.364Z" transform="translate(505.977 -30.254)" fill="#494b52"/>
      <path id="Tracé_25339" data-name="Tracé 25339" d="M-335.335,51.979a27.769,27.769,0,0,1-12.673-1.727A28.2,28.2,0,0,1-358.585,43a13.829,13.829,0,0,1-2.971-4.371c.153-.109,1.267,1.639,3.563,3.825a30.11,30.11,0,0,0,22.616,8.74c3.19-.13,5.2-.612,5.2-.437A12.99,12.99,0,0,1-335.335,51.979Z" transform="translate(509.608 -31.833)" fill="#494b52"/>
      <path id="Tracé_25340" data-name="Tracé 25340" d="M-339.752,54.35a8.012,8.012,0,0,1-5.943,1.026c-.023-.327,2.577-.655,5.418-2.053s4.61-3.366,4.873-3.147C-335.142,50.306-336.671,52.8-339.752,54.35Z" transform="translate(516.232 -27.014)" fill="#494b52"/>
      <path id="Tracé_25341" data-name="Tracé 25341" d="M-337.186,175.132a6.56,6.56,0,0,0-2.185-3.169c-.656-.546-1.486-1.026-2.317-1.725a7.8,7.8,0,0,1-2.075-2.841,12.767,12.767,0,0,1-1.005-3.933,7.008,7.008,0,0,1,1.157-4.371,9.958,9.958,0,0,1,3.8-3.278,6.9,6.9,0,0,0,3.431-3.431,6.011,6.011,0,0,0,.481-2.491,7.677,7.677,0,0,0-.655-2.6,36.146,36.146,0,0,0-2.927-5.114,20.949,20.949,0,0,1-3.1-12.565,21.349,21.349,0,0,1,5.441-12.783A9.547,9.547,0,0,0-334.324,111a10.378,10.378,0,0,0-2.338-5.878c-1.267-1.771-2.818-3.343-4.021-5.2a8.586,8.586,0,0,1,.722-11.777,19.018,19.018,0,0,0,3.058-4.568,10.639,10.639,0,0,0-.2-9.374,19.419,19.419,0,0,0-6.075-5.376,9.7,9.7,0,0,1-3.911-5,6.808,6.808,0,0,1-.285-4.022,2.924,2.924,0,0,1,.634-1.245c.067.021-.24.437-.414,1.289a7.124,7.124,0,0,0,.481,3.825A9.258,9.258,0,0,0-342.8,68.3a19.7,19.7,0,0,1,6.381,5.506,11.474,11.474,0,0,1,.393,10.139,18.812,18.812,0,0,1-3.212,4.939,9.349,9.349,0,0,0-2.426,5.026,9.024,9.024,0,0,0,1.836,5.528c1.136,1.748,2.665,3.322,4,5.158a11.425,11.425,0,0,1,2.577,6.555,10.772,10.772,0,0,1-3.058,6.555,20.431,20.431,0,0,0-2.186,24.037,40.261,40.261,0,0,1,2.95,5.288,8.461,8.461,0,0,1,.678,2.95,6.776,6.776,0,0,1-.59,2.884,7.742,7.742,0,0,1-3.89,3.846,9.141,9.141,0,0,0-3.517,2.928,8.081,8.081,0,0,0-.262,7.648,10.922,10.922,0,0,0,4.107,4.371,6.56,6.56,0,0,1,2.077,3.452,5.442,5.442,0,0,1,.2,1.377A8.887,8.887,0,0,1-337.186,175.132Z" transform="translate(515.458 -23.507)" fill="#494b52"/>
      <path id="Tracé_25342" data-name="Tracé 25342" d="M-326.979,60.1a19.662,19.662,0,0,1-5.179,3.846,21.256,21.256,0,0,1-9.331,2.185,24.973,24.973,0,0,1-11.428-2.644,17.2,17.2,0,0,1-7.976-8.588c-1.486-3.3-2.338-6.4-3.32-8.893a24.672,24.672,0,0,0-4.371-7.451c.044-.021.218.088.525.35a9.308,9.308,0,0,1,1.245,1.245,21.086,21.086,0,0,1,3.235,5.55c1.092,2.47,2.031,5.573,3.517,8.741a16.527,16.527,0,0,0,7.56,8.02,25.25,25.25,0,0,0,10.926,2.6,21.153,21.153,0,0,0,8.981-1.966,28.475,28.475,0,0,0,6.948-5A6.685,6.685,0,0,1-326.979,60.1Z" transform="translate(506.672 -31.864)" fill="#494b52"/>
    </g>
    <g id="Groupe_16593" data-name="Groupe 16593" transform="translate(-838.603 142.595)">
      <g id="Groupe_16591" data-name="Groupe 16591" transform="translate(14.151)">
        <path id="_151441192" data-name=" 151441192" d="M-755.6,169.451c-10.033.023-16.646.25-24.8-1.058-15.387-3.052-33.725-10.651-45.361-16.265-5.36-10.26-2.558-23.375,3.231-32.568,4.8-7.631,6.9-7.044,15.463-7.546,14.282-.842,28.379-2.654,39.67-.3,8.75,2.963,26.64,22.046,27.581,23.232-.126,12.128-1.972,25.273-15.784,34.509Z" transform="translate(828.621 -110.551)" fill="#494b52"/>
        <path id="_151440064" data-name=" 151440064" d="M-769.411,115.989c7.78,5.893,16.615,11.487,22.25,20.546.841,7.929-2.865,19.341-11.071,26.061-10.623,4.328-57.571-12.48-65.5-16.892-2.134-6.839-.35-15.4,4.829-24.347,3.066-5.3,3.159-4.994,9.266-5.319,13.929-.747,31.305-2.58,40.223-.05Z" transform="translate(830.296 -108.82)" fill="#fff"/>
        <path id="_151438592" data-name=" 151438592" d="M-779.883,115.65c7.78,5.893,16.615,11.487,22.252,20.548.839,7.928-2.867,19.34-11.072,26.06-4.945,2.015-17.752-.549-30.835-4.311a189.591,189.591,0,0,1,18.152-42.438c.5.043,1,.094,1.5.142Z" transform="translate(840.769 -108.48)" fill="#fff"/>
      </g>
      <g id="Groupe_16592" data-name="Groupe 16592" transform="translate(0 38.62)">
        <path id="_151437656" data-name=" 151437656" d="M-749.439,153.216c5.193,10.679,4.718,24.872-1.853,34.874-.987,1.5-.49,1.041-2.06,1.921a20.615,20.615,0,0,1-2.176,1.056l.091.162c5.142,9.214,5.242,21.74-.136,30.886-.89,1.515-.43,1.038-1.91,1.99-22.465,14.466-51.9,11.147-60.918-12.415l-11.146,10.582c-6.717-11.575-3.924-24.159.173-35.7-.939-.4-1.874-.817-2.811-1.272-2.244-1.09-1.586-.444-2.715-2.668-4.979-9.83-4.342-20.011-1.575-29.8,2.835-10.019,2.685-11.153,12.656-12.452,14.31-1.866,29.5-3.248,41.734-2.268,7.77.621,30.561,12.07,31.777,13.309l.869,1.791Z" transform="translate(838.603 -137.792)" fill="#494b52"/>
        <path id="_151436832" data-name=" 151436832" d="M-787.152,184.963c10.234,2.346,16.6,3.884,24.729,7.371,4.026,7.212,4.318,17.5-.065,24.954-20.972,13.5-42.83,8.255-63.677.186-4.182-7.206-4.223-17.27-.333-28.032,14.591-1.745,25.679-4.186,39.346-4.478Zm3.005-42.692c11.646,3.544,18.409,7.049,27.567,11.75,4.232,8.7,3.991,20.675-1.472,28.99a21.533,21.533,0,0,1-6.28,2.136,167.622,167.622,0,0,0-21.486-6c-3.53-.808-20.783,1.494-33.426,3.238a55.45,55.45,0,0,1-12.11-4.253c-3.446-6.8-3.886-15.429-1.491-24.692,1.158-4.478,3.037-7.946,7.889-8.539,14-1.711,26.781-3.3,40.809-2.631Z" transform="translate(840.379 -135.988)" fill="#fff"/>
        <path id="_151435360" data-name=" 151435360" d="M-799.8,184.823c10.234,2.346,16.6,3.884,24.729,7.371,4.026,7.212,4.318,17.5-.064,24.951a50.926,50.926,0,0,1-28.454,8.291,365.514,365.514,0,0,1,.157-40.482q1.788-.091,3.632-.13Zm-3.17-5.917c1.163-13.081,3.381-25.8,7.21-36.457,11.02,3.439,17.649,6.871,26.532,11.432,4.232,8.7,3.991,20.675-1.472,28.99a21.533,21.533,0,0,1-6.28,2.136,167.131,167.131,0,0,0-21.485-6,20.125,20.125,0,0,0-4.505-.1Z" transform="translate(853.026 -135.848)" fill="#fff"/>
      </g>
    </g>
    <g id="Groupe_16596" data-name="Groupe 16596" transform="translate(-126.225 102.28)">
      <g id="Groupe_16594" data-name="Groupe 16594">
        <path id="_151441192-2" data-name=" 151441192" d="M-305.422,161.018c8.753-4.9,14.628-7.952,21.088-13.089,11.911-10.212,24.162-25.83,31.545-36.432-.363-11.57-9.242-21.622-18.8-26.794-7.928-4.291-9.467-2.752-17.177,1.014-12.858,6.275-26.03,11.614-34.715,19.2-6.171,6.877-12.393,32.282-12.632,33.778,6.059,10.506,14.119,21.054,30.686,22.324Z" transform="translate(336.108 -82.114)" fill="#494b52"/>
        <path id="_151440064-2" data-name=" 151440064" d="M-322.168,108.21c-3.889,8.953-8.842,18.163-9.306,28.821,3.157,7.321,11.986,15.446,22.433,17.274,11.38-1.44,44.039-39.122,48.782-46.857-1.5-7.006-7.254-13.591-16.156-18.844-5.275-3.117-5.2-2.8-10.684-.089-12.5,6.184-28.544,13.114-35.071,19.694Z" transform="translate(338.044 -80.335)" fill="#fff"/>
        <path id="_151438592-2" data-name=" 151438592" d="M-322.168,102.03c-3.889,8.953-8.842,18.163-9.307,28.823,3.159,7.319,11.988,15.444,22.435,17.273,5.3-.671,15.2-9.188,24.751-18.886a189.6,189.6,0,0,0-36.64-28.07c-.415.282-.825.571-1.239.861Z" transform="translate(338.043 -74.155)" fill="#fff"/>
      </g>
      <g id="Groupe_16595" data-name="Groupe 16595" transform="translate(26.444 25.851)">
        <path id="_151437656-2" data-name=" 151437656" d="M-317.333,150.148c.716,11.853,8.094,23.986,18.726,29.476,1.6.824.94.666,2.738.662a20.076,20.076,0,0,0,2.416-.147v.186c.04,10.552,6.1,21.516,15.273,26.845,1.52.883.885.693,2.641.8,26.672,1.581,50.695-15.758,46.988-40.71l14.9,3.751c.173-13.383-8.435-22.975-17.667-31.019.624-.805,1.232-1.632,1.826-2.488,1.421-2.051,1.165-1.164,1.056-3.658-.485-11.008-6.035-19.565-13.25-26.736-7.386-7.339-7.813-8.4-17.137-4.639-13.384,5.4-27.3,11.643-37.476,18.5-6.466,4.355-20.707,25.513-21.159,27.19l.122,1.988Z" transform="translate(317.455 -100.349)" fill="#494b52"/>
        <path id="_151436832-2" data-name=" 151436832" d="M-271.346,159.613c12.052-6.453,22.911-9.765,36.48-15.406,8.671,7.468,13.574,16.258,13.465,24.59-14.205,17.26-30.676,32.56-55.575,31.083-7.48-4.347-12.271-13.451-12.3-21.71,5.369-7.025,10.165-11.49,17.932-18.556Zm-23.569-35.726c11.893-7.47,23.816-12.355,36.85-17.731,4.52-1.864,7.858.234,11.065,3.568,6.632,6.9,10.482,14.63,10.815,22.248a55.452,55.452,0,0,1-8.465,9.647c-11.872,4.685-28.035,11.144-30.713,13.58a167.174,167.174,0,0,0-15.777,15.772,21.525,21.525,0,0,1-6.523,1.219c-8.839-4.564-14.924-14.879-15.507-24.537,5.674-8.59,9.846-14.962,18.254-23.766Z" transform="translate(319.245 -98.214)" fill="#fff"/>
        <path id="_151435360-2" data-name=" 151435360" d="M-271.346,153.952q1.625-.872,3.228-1.67a365.857,365.857,0,0,1,20,35.2,50.909,50.909,0,0,1-28.861,6.738c-7.478-4.345-12.27-13.45-12.3-21.709,5.369-7.025,10.165-11.49,17.932-18.556Zm-.143-6.713a20.1,20.1,0,0,0-3.875,2.3,166.794,166.794,0,0,0-15.776,15.769,21.524,21.524,0,0,1-6.523,1.219c-8.839-4.564-14.924-14.879-15.507-24.537,5.5-8.333,9.595-14.577,17.508-22.981,8.564,7.4,16.74,17.4,24.171,28.227Z" transform="translate(319.245 -92.553)" fill="#fff"/>
      </g>
    </g>
  </g>
</svg>
