<svg xmlns="http://www.w3.org/2000/svg" width="1206.848" height="1300.907" viewBox="0 0 1206.848 1300.907">
  <path id="shape_1" data-name="shape 1" d="M-490.133,12049.406h-.055a293.724,293.724,0,0,1-46.418-3.7,304.841,304.841,0,0,1-44.676-10.733,338.144,338.144,0,0,1-42.974-17.206,394.114,394.114,0,0,1-41.31-23.116,474.2,474.2,0,0,1-39.685-28.467c-12.693-10.105-25.512-21.295-38.1-33.258-12.152-11.548-24.45-24.16-36.552-37.486-11.646-12.826-23.437-26.673-35.044-41.156-11.144-13.906-22.44-28.8-33.574-44.266-10.647-14.79-21.462-30.54-32.144-46.814-10.163-15.483-20.51-31.9-30.752-48.8-9.683-15.976-19.574-32.876-29.4-50.23-17.877-31.576-35.833-65.105-54.9-102.5-15.394-30.2-31.734-63.4-49.952-101.489-49.141-102.74-145.113-142.576-246.719-184.751l-.036-.015c-34.472-14.31-70.118-29.106-104.907-46.739-18.783-9.521-35.63-19-51.5-28.963-8.624-5.417-17.04-11.042-25.013-16.72-8.39-5.976-16.577-12.211-24.333-18.534-8.109-6.612-16.02-13.539-23.512-20.589-7.792-7.333-15.379-15.033-22.55-22.885-7.428-8.133-14.643-16.686-21.446-25.42-7.026-9.022-13.823-18.51-20.2-28.2-6.575-9.988-12.905-20.49-18.815-31.216-6.077-11.029-11.894-22.628-17.288-34.475-5.536-12.156-10.791-24.932-15.619-37.973-4.947-13.361-9.593-27.4-13.809-41.713-4.4-14.939-8.356-29.988-11.759-44.729-3.367-14.58-6.287-29.269-8.679-43.656-2.366-14.229-4.281-28.558-5.69-42.586-1.395-13.875-2.334-27.844-2.792-41.518H-474.5v1299.494C-479.654,12049.267-484.913,12049.405-490.133,12049.406Z" transform="translate(1680.849 -10748.999)" fill="#efefef" stroke="rgba(0,0,0,0)" stroke-miterlimit="10" stroke-width="1" opacity="0.7"/>
</svg>
