<svg xmlns="http://www.w3.org/2000/svg" width="1176.987" height="1107.159" viewBox="0 0 1176.987 1107.159">
  <path id="shape_5" data-name="shape 5" d="M-1624.387,1196.8h-.051c-11.527,0-23.154-.433-34.557-1.288-11.563-.867-23.24-2.192-34.7-3.938-17.4-2.651-34.21-5.854-49.969-9.52-15.478-3.6-30.378-7.75-44.288-12.334a405.353,405.353,0,0,1-38.861-14.983,324.887,324.887,0,0,1-33.687-17.468,268.815,268.815,0,0,1-28.766-19.787,232.8,232.8,0,0,1-24.1-21.941,213.616,213.616,0,0,1-19.686-23.931,209,209,0,0,1-15.526-25.755,217.925,217.925,0,0,1-11.829-28.023,240.5,240.5,0,0,1-8.022-29.579,277.052,277.052,0,0,1-4.486-30.959c-.918-10.33-1.328-21.152-1.22-32.165.106-10.687.7-21.855,1.776-33.193,1.039-10.982,2.554-22.437,4.5-34.046,1.883-11.22,4.224-22.9,6.958-34.724,2.635-11.394,5.712-23.246,9.143-35.225,6.444-22.495,14.438-46.467,23.762-71.252,8.436-22.426,18.28-46.364,29.261-71.149,9.753-22.016,20.416-44.795,32.6-69.639,9.925-20.241,20.973-42.067,33.775-66.723,37.316-71.874,18.869-143.424-.661-219.176-7.948-30.826-16.166-62.7-20.989-95.793a391.551,391.551,0,0,1-4.252-50.656c-.14-8.812.068-17.612.616-26.155.577-8.984,1.551-17.987,2.895-26.758h995.368c5.973,11.037,11.592,22.359,16.7,33.649,5.414,11.965,10.407,24.225,14.838,36.44,4.672,12.879,8.852,26.065,12.422,39.194,3.749,13.786,6.93,27.887,9.454,41.911,2.642,14.679,4.637,29.681,5.931,44.591,1.35,15.56,1.975,31.452,1.856,47.234-.124,16.427-1.057,33.2-2.773,49.84-1.782,17.284-4.458,34.917-7.955,52.41a459.415,459.415,0,0,1-12.711,48.447c-5.415,17.063-12.047,35.152-19.713,53.765-15.608,37.9-35.391,77.876-58.8,118.821a1362.558,1362.558,0,0,1-81.919,126.112,1405.914,1405.914,0,0,1-101.78,124.084,1221.951,1221.951,0,0,1-118.382,112.736c-21.22,17.563-42.886,34.116-64.4,49.2-22.275,15.619-44.927,30.042-67.327,42.868a746.057,746.057,0,0,1-69.848,35.371c-11.873,5.226-23.9,10.108-35.742,14.511-12.045,4.478-24.231,8.582-36.22,12.2-12.19,3.678-24.52,6.956-36.646,9.743-12.328,2.833-24.784,5.235-37.022,7.141-12.44,1.937-25.005,3.415-37.347,4.393C-1599.306,1196.294-1611.964,1196.8-1624.387,1196.8Z" transform="translate(1974.655 -90.14)" fill="#f4f4f4" stroke="rgba(0,0,0,0)" stroke-miterlimit="10" stroke-width="1"/>
</svg>
