<svg xmlns="http://www.w3.org/2000/svg" width="1922" height="424.009" viewBox="0 0 1922 424.009">
  <path id="shape_2" data-name="shape 2" d="M1492.339,1011.51h-.046c-23.778,0-46.927-1.016-68.8-3.021-20.864-1.912-41.239-4.785-60.56-8.538a524.413,524.413,0,0,1-53.392-13.266,487.27,487.27,0,0,1-47.3-17.206c-14.148-6-28.377-12.847-42.29-20.359-12.708-6.861-25.254-14.294-38.354-22.723-25.43-16.362-49.058-34.071-69.21-49.386-3.625-2.755-7.348-5.594-10.632-8.1l-.369-.281-.006,0c-20.622-15.729-41.946-31.993-63.9-46.846-11.793-7.98-22.866-14.957-33.85-21.33-12.3-7.139-24.2-13.357-36.379-19.008a400.555,400.555,0,0,0-84.135-28.274,453.5,453.5,0,0,0-49.652-7.878,546.773,546.773,0,0,0-55.972-2.78c-20.68,0-42.614,1.074-65.191,3.191-23.413,2.2-48.282,5.586-73.916,10.076-26.48,4.638-54.635,10.6-83.681,17.719-29.9,7.329-61.691,16.116-94.484,26.118-12.665,3.862-25.308,7.274-37.579,10.141-12.049,2.815-24.08,5.185-35.757,7.043-11.442,1.821-22.873,3.2-33.976,4.109-10.876.885-21.722,1.334-32.236,1.335-10.584,0-21.13-.453-31.347-1.347-10.008-.876-19.97-2.2-29.61-3.927-9.434-1.692-18.828-3.822-27.922-6.331-8.887-2.452-17.729-5.332-26.28-8.561-8.347-3.15-16.654-6.721-24.689-10.614-7.835-3.8-15.622-8-23.145-12.493a319.365,319.365,0,0,1-41.851-29.918C69.978,710.413,31.177,656.678.5,589.339V588.5h1921V805.785c-9.522,13.607-19.644,26.734-30.086,39.018a486.983,486.983,0,0,1-34.391,36.5,459.589,459.589,0,0,1-38.981,33.316,447.018,447.018,0,0,1-43.86,29.462,451.676,451.676,0,0,1-49.025,24.939,475.417,475.417,0,0,1-54.478,19.748,521.884,521.884,0,0,1-60.218,13.889,595.4,595.4,0,0,1-66.245,7.36C1526.479,1011.008,1509.025,1011.51,1492.339,1011.51Z" transform="translate(0 -588)" fill="#f4f4f4" stroke="rgba(0,0,0,0)" stroke-miterlimit="10" stroke-width="1"/>
</svg>
