<svg xmlns="http://www.w3.org/2000/svg" width="123.073" height="568.045" viewBox="0 0 123.073 568.045">
  <g id="Groupe_16975" data-name="Groupe 16975" transform="translate(486.058 -284.934) rotate(90)" opacity="0.38" style="mix-blend-mode: overlay;isolation: isolate">
    <g id="Groupe_16973" data-name="Groupe 16973" transform="translate(284.934 363.176)">
      <path id="Tracé_27214" data-name="Tracé 27214" d="M293.933,373.534" transform="translate(-232.822 -302.09)" fill="#fff"/>
      <path id="Tracé_27215" data-name="Tracé 27215" d="M295.819,389.08a3.75,3.75,0,0,0,1.684,6.274l9.67,2.594h0l37.674,10.091a3.781,3.781,0,0,0,4.686-4.373,61.029,61.029,0,0,0-16.766-31.318,59.9,59.9,0,0,0-8.787-7.225,3.721,3.721,0,0,0-4.706.5Z" transform="translate(-228.278 -354.373)" fill="#fff"/>
      <path id="Tracé_27216" data-name="Tracé 27216" d="M298.442,405.475a3.75,3.75,0,0,0,6.274,1.684l7.083-7.076h0L339.375,372.5a3.78,3.78,0,0,0-1.446-6.241,60.939,60.939,0,0,0-35.5-1.141,59.453,59.453,0,0,0-10.654,3.993,3.723,3.723,0,0,0-1.915,4.326Z" transform="translate(-257.18 -363.013)" fill="#fff"/>
      <path id="Tracé_27217" data-name="Tracé 27217" d="M319.771,419.863a3.754,3.754,0,0,0,4.6-4.6l-2.594-9.67h0l-10.091-37.675a3.789,3.789,0,0,0-6.166-1.84,61,61,0,0,0-18.708,30.144,60.065,60.065,0,0,0-1.867,11.225,3.731,3.731,0,0,0,2.791,3.823Z" transform="translate(-284.934 -350.755)" fill="#fff"/>
      <path id="Tracé_27218" data-name="Tracé 27218" d="M338.852,392.255a3.749,3.749,0,0,0-1.684-6.275l-9.67-2.594h0l-37.674-10.1a3.779,3.779,0,0,0-4.679,4.38A60.966,60.966,0,0,0,301.9,408.987a60.258,60.258,0,0,0,8.787,7.225,3.722,3.722,0,0,0,4.706-.5Z" transform="translate(-284.151 -304.269)" fill="#fff"/>
      <path id="Tracé_27219" data-name="Tracé 27219" d="M332.705,377.2a3.75,3.75,0,0,0-6.275-1.684l-7.082,7.076h0l-27.577,27.584a3.78,3.78,0,0,0,1.446,6.241,61,61,0,0,0,35.5,1.141,59.484,59.484,0,0,0,10.654-3.993,3.735,3.735,0,0,0,1.922-4.326Z" transform="translate(-251.725 -296.973)" fill="#fff"/>
      <path id="Tracé_27220" data-name="Tracé 27220" d="M301.837,371.016a3.754,3.754,0,0,0-4.6,4.6l2.594,9.67h0l10.091,37.674a3.789,3.789,0,0,0,6.166,1.84A61,61,0,0,0,334.8,394.654a60.052,60.052,0,0,0,1.867-11.225,3.724,3.724,0,0,0-2.791-3.823Z" transform="translate(-214.434 -317.432)" fill="#fff"/>
    </g>
    <g id="Groupe_16974" data-name="Groupe 16974" transform="translate(445.67 362.985)">
      <path id="Tracé_27221" data-name="Tracé 27221" d="M308.6,463.012v-95.1h6.526v15.9c5.3-10.186,16.026-16.848,29.071-16.848,18.2.679,32.6,12.909,32.6,34.5,0,22.559-15.218,34.782-34.1,34.782-11.408,0-22-5.575-27.706-16.705v43.467Zm61.537-61.544c0-18.878-12.223-28.113-27.441-28.113-15.618,0-27.163,11.816-27.163,28.256S327.353,429.86,342.7,429.86C357.918,429.86,370.141,420.353,370.141,401.468Z" transform="translate(-308.604 -339.938)" fill="#fff"/>
      <path id="Tracé_27222" data-name="Tracé 27222" d="M331.494,368.4c0,7.069-10.729,7.069-10.729,0S331.494,361.338,331.494,368.4ZM322.66,390v67.383h6.661V390Z" transform="translate(-238.184 -362.296)" fill="#fff"/>
      <path id="Tracé_27223" data-name="Tracé 27223" d="M354.209,394.546,374.174,367.1h8.02v.272l-24.046,32.065,25.947,34.5v.272h-7.877L354.209,404.2,332.2,434.217h-7.877v-.272l25.947-34.5-24.046-32.065V367.1h8.013Z" transform="translate(-217.575 -339.127)" fill="#fff"/>
      <path id="Tracé_27224" data-name="Tracé 27224" d="M360.205,362.985v35.182c4.76-6.118,9.921-8.7,17.934-8.7,13.588,0,26.355,8.835,26.355,31.379v37.226H379.633V420.991c-.272-7.612-4.074-9.921-9.1-9.921-4.889,0-10.328,3.667-10.458,11.544v35.461H334.944V362.985Z" transform="translate(-156.079 -362.985)" fill="#fff"/>
      <path id="Tracé_27225" data-name="Tracé 27225" d="M397.9,362.985h25v95.089h-22.28l-1.087-7.2c-5.7,6.519-14.668,8.835-22.144,8.427-19.693-1.222-30.7-13.581-30.7-34.782,0-20.508,13.045-35.046,32.608-35.046,8.556,0,14.939,2.723,18.606,7.2Zm-26.355,61.53c0,9.378,5.976,14.675,13.452,14.675,8.42,0,13.445-6.926,13.445-13.989,0-8.155-4.618-15.489-13.445-15.489C377.519,409.711,371.543,415.151,371.543,424.515Z" transform="translate(-88.102 -362.985)" fill="#fff"/>
      <path id="Tracé_27226" data-name="Tracé 27226" d="M382.479,368.489l1.494,7.341c3.531-6.254,9.785-8.964,16.3-8.964a24.3,24.3,0,0,1,17.656,7.191l-10.05,18.07c-4.074-3.259-7.062-4.074-11.272-4.074-6.254,0-11.544,3.8-11.544,12.631V435.6h-25V368.489Z" transform="translate(-10.624 -340.511)" fill="#fff"/>
    </g>
  </g>
</svg>
