<svg xmlns="http://www.w3.org/2000/svg" width="100.222" height="60.364" viewBox="0 0 100.222 60.364">
  <g id="activité" transform="translate(0 -101.809)">
    <path id="Tracé_15697" data-name="Tracé 15697" d="M182.884,142.2l-2.546-20.681-4.771.587,0,0-9.249-5.205a5.574,5.574,0,0,0-3.246-.693l-14.6,1.351a5.572,5.572,0,0,0-4.305,2.749l-10.293,17.716a2.448,2.448,0,0,0,1.252,3.52l.421.159a9.133,9.133,0,0,0,2.475.552l-1.3,1.136-2.609,2.273-7.421,6.33a3.171,3.171,0,0,0-.308,4.474l.753.862a4.075,4.075,0,0,0,5.748.392l2.836,3.253a4.067,4.067,0,0,0,5.748.392l2.833,3.253a4.077,4.077,0,0,0,5.751.4l1.54,1.331a4.077,4.077,0,0,0,5.751.4l2.093-1.826,17.6-13.7.019-.017,6.943-.007Z" transform="translate(-101.013 -11.56)" fill="#dc6e00"/>
    <path id="Tracé_15698" data-name="Tracé 15698" d="M175.352,264.059l-.019.017-17.6,13.7-2.093,1.826a4.077,4.077,0,0,1-5.751-.4l-1.54-1.331a4.077,4.077,0,0,1-5.751-.4l-2.833-3.253a4.067,4.067,0,0,1-5.748-.392l-2.836-3.253a4.074,4.074,0,0,1-5.046.24,3.17,3.17,0,0,0,.251,3.833l.753.862a4.075,4.075,0,0,0,5.748.392l2.836,3.253a4.068,4.068,0,0,0,5.748.392l2.833,3.254a4.077,4.077,0,0,0,5.751.4l1.54,1.331a4.077,4.077,0,0,0,5.751.4l2.093-1.826,17.6-13.7.019-.017,6.943-.007-.768-6.24Z" transform="translate(-101.022 -129.752)" fill="#c25400"/>
    <path id="Tracé_15699" data-name="Tracé 15699" d="M139.243,158.173l-9.428-8.129-2.622-2.259-1.876-1.616-8.066-6.953.932-7.93a5.472,5.472,0,0,0-3.976-5.913l-17.583-4.865a4.069,4.069,0,0,0-4.707,2.066l-2.211,4.316-9.491-.644-2.431,20.695-1.057,8.993,9.239.614.019.017,19.3,16.637,2.1,1.815a4.077,4.077,0,0,0,5.749-.427l2.815-3.266a4.077,4.077,0,0,0,5.749-.427l2.815-3.269a4.068,4.068,0,0,0,5.746-.424l2.818-3.269a4.075,4.075,0,0,0,5.746-.424l.748-.867A3.17,3.17,0,0,0,139.243,158.173Z" transform="translate(-61.708 -14.92)" fill="#ffd69a"/>
    <g id="Groupe_10387" data-name="Groupe 10387" transform="translate(44.409 140.776)">
      <path id="Tracé_15700" data-name="Tracé 15700" d="M260,303.358l-2.872-2.476a3.366,3.366,0,0,1-.139,4.221l-.794.92a4.326,4.326,0,0,1-6.1.45l-2.992,3.47a4.318,4.318,0,0,1-6.1.45l-2.989,3.471a4.328,4.328,0,0,1-6.1.453l-2.988,3.467a4.3,4.3,0,0,1-2.05,1.322l1.272,1.1a4.077,4.077,0,0,0,5.749-.427l2.815-3.266a4.077,4.077,0,0,0,5.749-.427l2.815-3.269a4.068,4.068,0,0,0,5.746-.424l2.818-3.269a4.075,4.075,0,0,0,5.746-.424l.748-.867A3.171,3.171,0,0,0,260,303.358Z" transform="translate(-226.872 -300.882)" fill="#f59a00"/>
      <path id="Tracé_15701" data-name="Tracé 15701" d="M338.3,317.65l-5.166-4.454a1.468,1.468,0,0,0-1.917,2.224l5.157,4.447.972-1.127a4.064,4.064,0,0,0,1.276.742A1.469,1.469,0,0,0,338.3,317.65Z" transform="translate(-310.384 -310.499)" fill="#f59a00"/>
      <path id="Tracé_15702" data-name="Tracé 15702" d="M297.008,340.1a1.468,1.468,0,0,0-.306-1.856l-4.641-4a1.468,1.468,0,0,0-1.917,2.224l4.641,4,.006,0,.959-1.113A4.059,4.059,0,0,0,297.008,340.1Z" transform="translate(-277.35 -327.425)" fill="#f59a00"/>
    </g>
    <g id="Groupe_10388" data-name="Groupe 10388" transform="translate(22.88 104.622)">
      <path id="Tracé_15703" data-name="Tracé 15703" d="M118.746,299.187l-1.118,1.477a3.653,3.653,0,0,0,.707,5.117h0a3.653,3.653,0,0,0,5.117-.707l1.118-1.477a3.653,3.653,0,0,0-.707-5.117h0A3.653,3.653,0,0,0,118.746,299.187Z" transform="translate(-116.887 -262.2)" fill="#dc6e00"/>
      <path id="Tracé_15704" data-name="Tracé 15704" d="M149.484,315.054l-2.106,2.781a3.653,3.653,0,0,0,.707,5.117h0a3.653,3.653,0,0,0,5.117-.707l2.106-2.781a3.653,3.653,0,0,0-.707-5.117h0A3.653,3.653,0,0,0,149.484,315.054Z" transform="translate(-140.814 -274.961)" fill="#dc6e00"/>
      <path id="Tracé_15705" data-name="Tracé 15705" d="M180,332.428l-2.87,3.79a3.653,3.653,0,0,0,.707,5.117h0a3.653,3.653,0,0,0,5.117-.707l2.87-3.79a3.653,3.653,0,0,0-.707-5.117h0A3.652,3.652,0,0,0,180,332.428Z" transform="translate(-164.739 -288.935)" fill="#dc6e00"/>
      <path id="Tracé_15706" data-name="Tracé 15706" d="M209.914,353.835l-3.037,4.01a3.653,3.653,0,0,0,.707,5.117h0a3.653,3.653,0,0,0,5.117-.707l3.037-4.01a3.653,3.653,0,0,0-.707-5.117h0A3.652,3.652,0,0,0,209.914,353.835Z" transform="translate(-188.666 -306.151)" fill="#dc6e00"/>
      <path id="Tracé_15707" data-name="Tracé 15707" d="M208.205,122.1l-9.249-5.205a5.574,5.574,0,0,0-3.246-.693l-14.6,1.351a5.572,5.572,0,0,0-4.305,2.749l-10.293,17.716a2.448,2.448,0,0,0,1.252,3.52l.421.159a9.152,9.152,0,0,0,10.491-2.985l3.944-5.132s9.48,10.976,19.917-1.842" transform="translate(-156.528 -116.182)" fill="#dc6e00"/>
    </g>
    <path id="Tracé_15708" data-name="Tracé 15708" d="M419.507,142.395l-4.837-39.3a1.468,1.468,0,0,0-1.636-1.278l-11.312,1.393a5.374,5.374,0,0,0-4.672,5.984l3.884,31.554a5.366,5.366,0,0,0,5.984,4.672l11.312-1.393A1.468,1.468,0,0,0,419.507,142.395Z" transform="translate(-319.296 -0.001)" fill="#f59a00"/>
    <path id="Tracé_15709" data-name="Tracé 15709" d="M434.006,289.183l-.531-4.313a1.534,1.534,0,0,1-1.083.662l-11.858,1.46a5.621,5.621,0,0,1-5.5-2.667l.4,3.215a5.366,5.366,0,0,0,5.984,4.672l11.312-1.393A1.468,1.468,0,0,0,434.006,289.183Z" transform="translate(-333.796 -146.79)" fill="#dc6e00"/>
    <path id="Tracé_15710" data-name="Tracé 15710" d="M17.8,103.212,6.485,101.82A1.468,1.468,0,0,0,4.849,103.1l-4.837,39.3a1.468,1.468,0,0,0,1.278,1.636L12.6,145.422a5.366,5.366,0,0,0,5.984-4.672L22.469,109.2A5.374,5.374,0,0,0,17.8,103.212Z" transform="translate(0)" fill="#f59a00"/>
    <path id="Tracé_15711" data-name="Tracé 15711" d="M.011,289.183l.531-4.313a1.534,1.534,0,0,0,1.083.662l11.858,1.46a5.621,5.621,0,0,0,5.5-2.667l-.4,3.215a5.366,5.366,0,0,1-5.984,4.672L1.289,290.82A1.468,1.468,0,0,1,.011,289.183Z" transform="translate(0 -146.79)" fill="#dc6e00"/>
    <g id="Groupe_10389" data-name="Groupe 10389" transform="translate(6.399 133.264)">
      <circle id="Ellipse_251" data-name="Ellipse 251" cx="2.838" cy="2.838" r="2.838" transform="translate(81.588 0)" fill="#ebeef2"/>
      <circle id="Ellipse_252" data-name="Ellipse 252" cx="2.838" cy="2.838" r="2.838" transform="translate(0 0)" fill="#ebeef2"/>
    </g>
  </g>
</svg>
