<svg xmlns="http://www.w3.org/2000/svg" xmlns:xlink="http://www.w3.org/1999/xlink" width="121" height="121" viewBox="0 0 121 121">
  <defs>
    <clipPath id="clip-ag_indé">
      <rect width="121" height="121"/>
    </clipPath>
  </defs>
  <g id="ag_indé" data-name="ag indé" clip-path="url(#clip-ag_indé)">
    <g id="Groupe_19576" data-name="Groupe 19576" transform="translate(-224.997 -149.276)">
      <circle id="Ellipse_253" data-name="Ellipse 253" cx="1.44" cy="1.44" r="1.44" transform="translate(272.331 226.269)" fill="#fff"/>
      <path id="Tracé_15719" data-name="Tracé 15719" d="M323.7,238.873h-3.329V205.682a6.909,6.909,0,0,0,5.509-6.748.918.918,0,0,0-.014-.193l-2.41-16.912a4.16,4.16,0,0,0-4.09-3.553h-66.85a4.16,4.16,0,0,0-4.09,3.553l-2.41,16.912a.923.923,0,0,0-.014.193,6.909,6.909,0,0,0,5.509,6.748v33.191h-3.329a1.377,1.377,0,1,0,0,2.754H323.7a1.377,1.377,0,1,0,0-2.754ZM303.84,181.03H312.1v17.9a4.132,4.132,0,1,1-8.263,0Zm-11.018,0h8.263v17.9a4.132,4.132,0,1,1-8.263,0Zm-11.018,0h8.263v17.9a4.132,4.132,0,1,1-8.263,0Zm-11.018,0h8.263v17.9a4.132,4.132,0,1,1-8.263,0Zm-11.018,0h8.263v17.9a4.132,4.132,0,1,1-8.263,0Zm-11.018,18,2.41-16.816a1.365,1.365,0,0,1,1.349-1.184h4.5v17.9a4.132,4.132,0,1,1-8.263.1ZM276.3,238.873H259.77V219.592a8.263,8.263,0,1,1,16.527,0Zm41.316,0H279.051V219.592a11.018,11.018,0,1,0-22.035,0v19.281h-2.754v-33.2a6.875,6.875,0,0,0,4.132-2.6,6.886,6.886,0,0,0,11.018,0,6.886,6.886,0,0,0,11.018,0,6.886,6.886,0,0,0,11.018,0,6.886,6.886,0,0,0,11.018,0,6.886,6.886,0,0,0,11.018,0,6.875,6.875,0,0,0,4.132,2.6Zm-2.754-39.939v-17.9h4.5a1.365,1.365,0,0,1,1.349,1.184l2.41,16.816a4.132,4.132,0,1,1-8.263-.1Z" transform="translate(0 0)" fill="#333"/>
      <path id="Tracé_15720" data-name="Tracé 15720" d="M440.167,310.276H418.132A4.132,4.132,0,0,0,414,314.408v19.281a4.132,4.132,0,0,0,4.132,4.132h22.035a4.132,4.132,0,0,0,4.132-4.132V314.408A4.132,4.132,0,0,0,440.167,310.276Zm-12.395,24.79h-9.64a1.377,1.377,0,0,1-1.377-1.377V314.408a1.377,1.377,0,0,1,1.377-1.377h9.64v2.117h-2.857a1.923,1.923,0,0,0-1.923,1.923V321a1.923,1.923,0,0,0,1.923,1.923h2.857v2.117h-2.857a1.923,1.923,0,0,0-1.923,1.923V330.9a1.923,1.923,0,0,0,1.923,1.923h2.857Zm4.659-17.164v2.27h-6.684V317.9Zm0,9.9v2.27h-6.684V327.8Zm9.113,5.891a1.377,1.377,0,0,1-1.377,1.377h-9.641v-2.243h2.736a1.923,1.923,0,0,0,1.923-1.923v-3.933a1.923,1.923,0,0,0-1.923-1.923h-2.736v-2.117h2.736A1.923,1.923,0,0,0,435.185,321V317.07a1.923,1.923,0,0,0-1.923-1.923h-2.736V313.03h9.641a1.377,1.377,0,0,1,1.377,1.377Z" transform="translate(-129.44 -101.701)" fill="#fff"/>
    </g>
  </g>
</svg>
