<svg xmlns="http://www.w3.org/2000/svg" xmlns:xlink="http://www.w3.org/1999/xlink" width="101" height="83" viewBox="0 0 101 83">
  <defs>
    <clipPath id="clip-config">
      <rect width="101" height="83"/>
    </clipPath>
  </defs>
  <g id="config" clip-path="url(#clip-config)">
    <g id="Groupe_19596" data-name="Groupe 19596" transform="translate(-225 -106.276)">
      <path id="Tracé_15712" data-name="Tracé 15712" d="M265.967,187.072l-3.632-11.063a31.6,31.6,0,0,1-4.892-2.856l-11.294,2.311a2.409,2.409,0,0,1-2.576-1.158l-7.246-12.549a2.409,2.409,0,0,1,.283-2.81l7.642-8.626a27.4,27.4,0,0,1,0-5.643l-7.642-8.626a2.41,2.41,0,0,1-.283-2.81l7.246-12.549a2.389,2.389,0,0,1,2.576-1.158l11.294,2.311A31.558,31.558,0,0,1,262.329,119l3.637-11.068a2.421,2.421,0,0,1,2.293-1.651h14.493a2.421,2.421,0,0,1,2.293,1.651L288.683,119a31.6,31.6,0,0,1,4.887,2.852l11.294-2.311a2.392,2.392,0,0,1,2.576,1.158l7.246,12.549a2.409,2.409,0,0,1-.283,2.81l-7.642,8.626a27.4,27.4,0,0,1,0,5.643l7.642,8.626a2.41,2.41,0,0,1,.283,2.81l-7.246,12.549a2.412,2.412,0,0,1-2.576,1.158l-11.294-2.311a31.5,31.5,0,0,1-4.9,2.859l-3.623,11.058Z" transform="translate(0)" fill="#f59a00"/>
      <path id="Tracé_15713" data-name="Tracé 15713" d="M375.57,482.585" transform="translate(-109.604 -295.513)" fill="#4086f4"/>
      <path id="Tracé_15714" data-name="Tracé 15714" d="M459.18,133.243l-7.246-12.549a2.392,2.392,0,0,0-2.576-1.158l-11.294,2.311A31.559,31.559,0,0,0,433.177,119l-3.637-11.068a2.421,2.421,0,0,0-2.293-1.651H420v80.795h9.539l3.623-11.059a31.5,31.5,0,0,0,4.9-2.859l11.294,2.311a2.413,2.413,0,0,0,2.576-1.158l7.246-12.549a2.41,2.41,0,0,0-.283-2.81l-7.643-8.626a27.274,27.274,0,0,0,0-5.643l7.643-8.626a2.41,2.41,0,0,0,.283-2.81Zm0,0" transform="translate(-144.494)" fill="#dc6e00"/>
      <path id="Tracé_15715" data-name="Tracé 15715" d="M391.908,396.049H377.415A2.414,2.414,0,0,1,375,393.633V372.7a2.415,2.415,0,0,1,3.378-2.215,16.516,16.516,0,0,0,12.568,0,2.415,2.415,0,0,1,3.377,2.215v20.933a2.414,2.414,0,0,1-2.415,2.415Zm0,0" transform="translate(-109.156 -207.326)" fill="#ffd69a"/>
      <path id="Tracé_15716" data-name="Tracé 15716" d="M427.246,396.055a2.414,2.414,0,0,0,2.415-2.415V372.707a2.415,2.415,0,0,0-3.378-2.215A15.934,15.934,0,0,1,420,371.734v24.321Zm0,0" transform="translate(-144.494 -207.332)" fill="#f59a00"/>
      <path id="Tracé_15717" data-name="Tracé 15717" d="M332.28,243.968a21.717,21.717,0,0,1,.043-40.246,2.415,2.415,0,0,1,3.335,2.234v16.63l4.831,3.22,4.831-3.22v-16.63a2.415,2.415,0,0,1,3.335-2.234,21.717,21.717,0,0,1-.019,40.272,21.229,21.229,0,0,1-16.356-.026Zm0,0" transform="translate(-64.983 -76.378)" fill="#ffefd8"/>
      <path id="Tracé_15718" data-name="Tracé 15718" d="M428.147,243.994a21.717,21.717,0,0,0,.019-40.272,2.415,2.415,0,0,0-3.335,2.234v16.63L420,225.8v19.807a20.575,20.575,0,0,0,8.147-1.618Zm0,0" transform="translate(-144.494 -76.378)" fill="#ffd69a"/>
    </g>
  </g>
</svg>
