<svg xmlns="http://www.w3.org/2000/svg" xmlns:xlink="http://www.w3.org/1999/xlink" width="121" height="121" viewBox="0 0 121 121">
  <defs>
    <clipPath id="clip-groupement_ag">
      <rect width="121" height="121"/>
    </clipPath>
  </defs>
  <g id="groupement_ag" data-name="groupement ag" clip-path="url(#clip-groupement_ag)">
    <g id="Groupe_19578" data-name="Groupe 19578" transform="translate(-134.959 -144.276)">
      <path id="Tracé_15721" data-name="Tracé 15721" d="M220.611,367.4a.817.817,0,1,0,.817-.817A.817.817,0,0,0,220.611,367.4Z" transform="translate(-64.128 -151.606)" fill="#fff"/>
      <path id="Tracé_15722" data-name="Tracé 15722" d="M163.574,255.805h-3.007V244.367a6.536,6.536,0,0,0-13.072,0v11.438h-1.634v-19.7a4.078,4.078,0,0,0,2.451-1.544,4.085,4.085,0,0,0,6.536,0,4.085,4.085,0,0,0,6.23.362q-.148-.163-.289-.335a8.359,8.359,0,0,1-.709-1.017,2.449,2.449,0,0,1-4.415-1.461V221.491h4.306l.233-1.634H144.824a2.468,2.468,0,0,0-2.427,2.108L140.967,232a.55.55,0,0,0-.008.114,4.1,4.1,0,0,0,3.268,4v19.69h-1.975a.817.817,0,1,0,0,1.634h21.322Zm-14.445-34.314h4.9v10.621a2.451,2.451,0,0,1-4.9,0Zm-6.536,10.679,1.43-9.976a.81.81,0,0,1,.8-.7H147.5v10.621a2.451,2.451,0,0,1-4.9.057Zm16.34,23.636h-9.8V244.367a4.9,4.9,0,0,1,9.8,0Z" transform="translate(0 -33.477)" fill="#333"/>
      <circle id="Ellipse_254" data-name="Ellipse 254" cx="1.169" cy="1.169" r="1.169" transform="translate(183.648 219.203)" fill="#f59a00"/>
      <path id="Tracé_15723" data-name="Tracé 15723" d="M311.969,229.727h-2.827V201.546a5.866,5.866,0,0,0,4.677-5.729.78.78,0,0,0-.012-.164l-2.046-14.36a3.532,3.532,0,0,0-3.473-3.017H251.528a3.532,3.532,0,0,0-3.473,3.017l-2.046,14.36a.782.782,0,0,0-.012.164,5.866,5.866,0,0,0,4.677,5.729v28.182h-2.827a1.169,1.169,0,0,0,0,2.339h64.121a1.169,1.169,0,1,0,0-2.339ZM295.11,180.615h7.016v15.2a3.508,3.508,0,1,1-7.016,0Zm-9.355,0h7.016v15.2a3.508,3.508,0,0,1-7.016,0Zm-9.355,0h7.016v15.2a3.508,3.508,0,1,1-7.016,0Zm-9.355,0h7.016v15.2a3.508,3.508,0,1,1-7.016,0Zm-9.355,0h7.016v15.2a3.508,3.508,0,1,1-7.016,0ZM248.336,195.9l2.046-14.278a1.159,1.159,0,0,1,1.146-1.006h3.824v15.2a3.508,3.508,0,0,1-7.016.082Zm23.387,33.829H257.691V213.357a7.016,7.016,0,0,1,14.032,0Zm35.081,0H274.062V213.357a9.355,9.355,0,0,0-18.71,0v16.371h-2.339V201.534a5.838,5.838,0,0,0,3.508-2.21,5.847,5.847,0,0,0,9.355,0,5.847,5.847,0,0,0,9.355,0,5.847,5.847,0,0,0,9.355,0,5.847,5.847,0,0,0,9.355,0,5.847,5.847,0,0,0,9.355,0,5.837,5.837,0,0,0,3.508,2.21Zm-2.339-33.911v-15.2h3.824a1.159,1.159,0,0,1,1.146,1.006l2.046,14.278a3.508,3.508,0,0,1-7.016-.082Z" transform="translate(-84.567)" fill="#333"/>
      <path id="Tracé_15724" data-name="Tracé 15724" d="M436.218,310.276h-18.71A3.508,3.508,0,0,0,414,313.784v16.371a3.508,3.508,0,0,0,3.508,3.508h18.71a3.508,3.508,0,0,0,3.508-3.508V313.784A3.508,3.508,0,0,0,436.218,310.276Zm-10.524,21.048h-8.185a1.169,1.169,0,0,1-1.169-1.169V313.784a1.169,1.169,0,0,1,1.169-1.169h8.185v1.8h-2.426a1.633,1.633,0,0,0-1.633,1.633v3.339a1.633,1.633,0,0,0,1.633,1.633h2.426v1.8h-2.426a1.633,1.633,0,0,0-1.633,1.633v3.34a1.633,1.633,0,0,0,1.633,1.633h2.426Zm3.956-14.573v1.927h-5.675v-1.927Zm0,8.4v1.927h-5.675v-1.927Zm7.738,5a1.169,1.169,0,0,1-1.169,1.169h-8.185v-1.9h2.323a1.633,1.633,0,0,0,1.633-1.633v-3.34a1.633,1.633,0,0,0-1.633-1.633h-2.323v-1.8h2.323a1.633,1.633,0,0,0,1.633-1.633v-3.339a1.633,1.633,0,0,0-1.633-1.633h-2.323v-1.8h8.185a1.169,1.169,0,0,1,1.169,1.169Z" transform="translate(-219.828 -106.274)" fill="#fff"/>
      <path id="Tracé_15725" data-name="Tracé 15725" d="M604.322,255.805h-1.975v-19.69a4.1,4.1,0,0,0,3.268-4,.549.549,0,0,0-.008-.114l-1.43-10.033a2.468,2.468,0,0,0-2.427-2.108H586.37l.233,1.634h4.306v10.621a2.449,2.449,0,0,1-4.415,1.461,8.374,8.374,0,0,1-.709,1.017q-.14.172-.289.335a4.085,4.085,0,0,0,6.23-.362,4.085,4.085,0,0,0,6.536,0,4.078,4.078,0,0,0,2.451,1.544v19.7H583v1.634h21.322a.817.817,0,0,0,0-1.634Zm-6.877-24.51v.817a2.451,2.451,0,0,1-4.9,0V221.491h4.9Zm1.634.817V221.491h2.672a.81.81,0,0,1,.8.7l1.43,9.976a2.451,2.451,0,0,1-4.9-.057Z" transform="translate(-355.891 -33.477)" fill="#333"/>
      <path id="Tracé_15726" data-name="Tracé 15726" d="M583.556,326.79a.812.812,0,0,1-.556-.221v1.79a2.444,2.444,0,0,0,.556.066h13.072a2.451,2.451,0,0,0,2.451-2.451V314.535a2.451,2.451,0,0,0-2.451-2.451H583.556a2.444,2.444,0,0,0-.556.066v1.789a.812.812,0,0,1,.556-.221h5.719v1.256H587.58a1.141,1.141,0,0,0-1.141,1.141v2.333a1.141,1.141,0,0,0,1.141,1.141h1.695v1.256H587.58a1.141,1.141,0,0,0-1.141,1.141v2.333a1.141,1.141,0,0,0,1.141,1.141h1.695v1.331Zm7.353-13.072h5.719a.817.817,0,0,1,.817.817v11.438a.817.817,0,0,1-.817.817h-5.719v-1.331h1.623a1.141,1.141,0,0,0,1.141-1.141v-2.333a1.141,1.141,0,0,0-1.141-1.141h-1.623v-1.256h1.623a1.141,1.141,0,0,0,1.141-1.141v-2.333a1.141,1.141,0,0,0-1.141-1.141h-1.623Zm-2.836,4.237v-1.347h3.965v1.347Zm0,5.871v-1.347h3.965v1.347Z" transform="translate(-355.891 -107.73)" fill="#fff"/>
    </g>
  </g>
</svg>
