<svg xmlns="http://www.w3.org/2000/svg" xmlns:xlink="http://www.w3.org/1999/xlink" width="121" height="121" viewBox="0 0 121 121">
  <defs>
    <clipPath id="clip-immo_pro">
      <rect width="121" height="121"/>
    </clipPath>
  </defs>
  <g id="immo_pro" data-name="immo pro" clip-path="url(#clip-immo_pro)">
    <g id="Groupe_19575" data-name="Groupe 19575" transform="translate(-224.997 -149.276)">
      <path id="Tracé_15692" data-name="Tracé 15692" d="M418.132,337.82h22.035a4.132,4.132,0,0,0,4.132-4.132V314.408a4.132,4.132,0,0,0-4.132-4.132H418.132A4.132,4.132,0,0,0,414,314.408v19.281A4.132,4.132,0,0,0,418.132,337.82Zm-1.377-23.413a1.378,1.378,0,0,1,1.377-1.377h22.035a1.378,1.378,0,0,1,1.377,1.377v19.281a1.378,1.378,0,0,1-1.377,1.377H418.132a1.378,1.378,0,0,1-1.377-1.377Z" transform="translate(-129.441 -101.701)" fill="#fff"/>
      <path id="Tracé_15693" data-name="Tracé 15693" d="M497.509,341.162h0a1.377,1.377,0,0,0,1.377-1.377v-4.132a1.377,1.377,0,0,0-1.377-1.377h-4.132A1.377,1.377,0,0,0,492,335.653h0a1.377,1.377,0,0,0,1.377,1.377h2.754v2.754A1.377,1.377,0,0,0,497.509,341.162Z" transform="translate(-189.537 -120.193)" fill="#333"/>
      <rect id="Rectangle_2026" data-name="Rectangle 2026" width="3" height="2" rx="1" transform="translate(272.343 226.627)" fill="#333"/>
      <path id="Tracé_15694" data-name="Tracé 15694" d="M251.506,205.682v33.191h-3.329a1.377,1.377,0,0,0-1.377,1.377h0a1.377,1.377,0,0,0,1.377,1.377H323.7a1.377,1.377,0,0,0,1.377-1.377h0a1.377,1.377,0,0,0-1.377-1.377h-3.329V205.682a6.909,6.909,0,0,0,5.509-6.748.919.919,0,0,0-.014-.193l-2.41-16.912a4.16,4.16,0,0,0-4.09-3.553h-66.85a4.16,4.16,0,0,0-4.09,3.553l-2.41,16.912a.923.923,0,0,0-.014.193A6.909,6.909,0,0,0,251.506,205.682Zm24.79,33.191H259.77V219.592a8.263,8.263,0,1,1,16.527,0Zm38.562-57.843h4.5a1.365,1.365,0,0,1,1.349,1.184l2.41,16.816a4.132,4.132,0,1,1-8.263-.1Zm-11.018,0H312.1v17.9a4.132,4.132,0,0,1-8.263,0Zm-11.018,0h8.263v17.9a4.132,4.132,0,1,1-8.263,0Zm-11.018,0h8.263v17.9a4.132,4.132,0,0,1-8.263,0Zm-11.018,0h8.263v17.9a4.132,4.132,0,1,1-8.263,0Zm-11.018,0h8.263v17.9a4.132,4.132,0,0,1-8.263,0Zm-1.377,22.035a6.886,6.886,0,0,0,11.018,0,6.886,6.886,0,0,0,11.018,0,6.886,6.886,0,0,0,11.018,0,6.886,6.886,0,0,0,11.018,0,6.886,6.886,0,0,0,11.018,0,6.875,6.875,0,0,0,4.132,2.6v33.2H279.051V219.592a11.018,11.018,0,0,0-22.035,0v19.281h-2.754v-33.2A6.875,6.875,0,0,0,258.393,203.066Zm-7.23-20.851a1.365,1.365,0,0,1,1.349-1.184h4.5v17.9a4.132,4.132,0,1,1-8.263.1Z" fill="#fff"/>
    </g>
  </g>
</svg>
