<svg xmlns="http://www.w3.org/2000/svg" xmlns:xlink="http://www.w3.org/1999/xlink" width="121" height="121" viewBox="0 0 121 121">
  <defs>
    <clipPath id="clip-loc_saison">
      <rect width="121" height="121"/>
    </clipPath>
  </defs>
  <g id="loc_saison" data-name="loc saison" clip-path="url(#clip-loc_saison)">
    <g id="Groupe_19574" data-name="Groupe 19574" transform="translate(-214 -106.276)">
      <path id="Tracé_15690" data-name="Tracé 15690" d="M590.62,454.276h-1.31a1.31,1.31,0,0,0,0,2.62h1.31a1.31,1.31,0,1,0,0-2.62Zm0,0" transform="translate(-276.709 -253.259)" fill="#333"/>
      <path id="Tracé_15691" data-name="Tracé 15691" d="M308.671,201.017h-.586l-4.3-10.752a5.248,5.248,0,0,0,3.578-4.968v-11.79a1.31,1.31,0,0,0-1.31-1.31,17.049,17.049,0,0,0-17.03,17.03,1.31,1.31,0,0,0,1.31,1.31h1.995l-4.193,10.48h-5.794a6.561,6.561,0,0,0-6.419-5.24V185.3H286.4a1.31,1.31,0,0,0,1.31-1.31v-3.93a1.31,1.31,0,0,0-1.31-1.31H275.92v-26.2h32.75a1.308,1.308,0,0,0,1.31-1.31c0-4.739-3.814-9.11-10.737-12.306a57.54,57.54,0,0,0-20.7-4.621v-2.723a1.31,1.31,0,0,0-1.31-1.31h-5.24a1.31,1.31,0,0,0-1.31,1.31v2.723a57.54,57.54,0,0,0-20.7,4.621c-6.923,3.2-10.737,7.568-10.737,12.306a1.308,1.308,0,0,0,1.31,1.31H273.3v26.2H262.82a1.31,1.31,0,0,0-1.31,1.31v3.93a1.31,1.31,0,0,0,1.31,1.31H273.3v10.48a6.561,6.561,0,0,0-6.419,5.24h-5.958l-4.193-10.48h2.159a1.31,1.31,0,0,0,1.31-1.31,17.049,17.049,0,0,0-17.03-17.03,1.31,1.31,0,0,0-1.31,1.31V185.3a5.248,5.248,0,0,0,3.434,4.919l-4.322,10.8H235.31a1.31,1.31,0,0,0,0,2.62h73.361a1.31,1.31,0,1,0,0-2.62ZM244.48,185.3V174.875a14.434,14.434,0,0,1,13.041,13.041H247.1a2.623,2.623,0,0,1-2.62-2.62Zm.422,15.72H243.8l4.193-10.48H249.1Zm2.823,0,3.223-8.058,3.223,8.058Zm9.269,0-4.193-10.48h1.107l4.193,10.48Zm41.152-59.707c5.145,2.376,8.363,5.458,9.069,8.617H295.508c-.447-4.754-3.306-8.969-7.583-11.833a46.155,46.155,0,0,1,10.221,3.216Zm-5.271,8.617H275.92V136.862c8.953.5,16.149,6.069,16.955,13.064ZM273.3,132.9h2.62v1.31H273.3Zm-19.588,17.03H242.006c.705-3.159,3.923-6.24,9.069-8.617a46.155,46.155,0,0,1,10.221-3.216c-4.277,2.864-7.136,7.079-7.583,11.833Zm2.633,0c.806-7,8-12.565,16.955-13.064v13.064Zm7.785,32.75v-1.31h20.96v1.31Zm5.464,18.34a3.937,3.937,0,0,1,3.706-2.62h2.62a3.937,3.937,0,0,1,3.706,2.62Zm22.1-13.1a14.434,14.434,0,0,1,13.041-13.041V185.3a2.623,2.623,0,0,1-2.62,2.62Zm.363,13.1h-1.107l4.193-10.48h1.107Zm2.823,0,3.223-8.058,3.223,8.058Zm9.269,0-4.193-10.48h1.107l4.193,10.48Zm0,0" transform="translate(0 0)" fill="#fff"/>
    </g>
  </g>
</svg>
