<svg xmlns="http://www.w3.org/2000/svg" xmlns:xlink="http://www.w3.org/1999/xlink" width="121" height="121" viewBox="0 0 121 121">
  <defs>
    <clipPath id="clip-prog_neuf">
      <rect width="121" height="121"/>
    </clipPath>
  </defs>
  <g id="prog_neuf" data-name="prog neuf" clip-path="url(#clip-prog_neuf)">
    <g id="Groupe_19573" data-name="Groupe 19573" transform="translate(-212 -116.276)">
      <path id="Tracé_15681" data-name="Tracé 15681" d="M309.244,211.017v-5.477a6.5,6.5,0,1,0-2.618,0v5.477h-7.812V141.585a1.309,1.309,0,0,0-1.309-1.309H263.469a1.309,1.309,0,0,0-1.309,1.309v9.872l-15.7,11.7v47.866H238.5v-5.477a6.5,6.5,0,1,0-2.618,0v5.477h-6.574A1.309,1.309,0,0,0,228,212.326h0a1.309,1.309,0,0,0,1.309,1.309h86.567a1.309,1.309,0,0,0,1.309-1.309h0a1.309,1.309,0,0,0-1.309-1.309Zm-5.192-11.846a3.883,3.883,0,1,1,3.883,3.883,3.887,3.887,0,0,1-3.883-3.883Zm-70.742,0a3.883,3.883,0,1,1,3.883,3.883,3.887,3.887,0,0,1-3.883-3.883Zm15.765-32.657h9.033a1.309,1.309,0,0,0,1.309-1.309h0a1.309,1.309,0,0,0-1.309-1.309H249.84l12.32-9.176v44.427a1.309,1.309,0,0,0,1.309,1.309h0a1.309,1.309,0,0,0,1.309-1.309V142.893H296.2v7.912H268.578a1.309,1.309,0,0,0-1.309,1.309h0a1.309,1.309,0,0,0,1.309,1.309H296.2v57.594h-2.749V199.236a1.309,1.309,0,0,0-1.309-1.309H268.661a1.309,1.309,0,0,0-1.309,1.309v11.782h-2.575v-1.4a1.309,1.309,0,0,0-1.309-1.309h0a1.309,1.309,0,0,0-1.309,1.309v1.4H249.074Zm41.755,44.5H269.969V200.544h20.859Zm0,0" fill="#fff"/>
      <rect id="Rectangle_2022" data-name="Rectangle 2022" width="2.617" height="2.618" rx="1.309" transform="translate(262.16 203.076)" fill="#fff"/>
      <path id="Tracé_15682" data-name="Tracé 15682" d="M329.824,265.835v5.236a1.309,1.309,0,0,0,1.309,1.309h5.236a1.309,1.309,0,0,0,1.309-1.309v-5.236a1.309,1.309,0,0,0-1.309-1.309h-5.236A1.309,1.309,0,0,0,329.824,265.835Zm5.236,3.927h-2.617v-2.617h2.617Zm0,0" transform="translate(-78.175 -95.393)" fill="#fff"/>
      <path id="Tracé_15683" data-name="Tracé 15683" d="M331.133,317.469h5.236a1.309,1.309,0,0,0,1.309-1.309v-5.236a1.309,1.309,0,0,0-1.309-1.309h-5.236a1.309,1.309,0,0,0-1.309,1.309v5.236A1.309,1.309,0,0,0,331.133,317.469Zm1.31-5.236h2.617v2.617h-2.617Zm0,0" transform="translate(-78.175 -130.011)" fill="#fff"/>
      <path id="Tracé_15684" data-name="Tracé 15684" d="M331.133,362.556h5.236a1.309,1.309,0,0,0,1.309-1.309v-5.236a1.309,1.309,0,0,0-1.309-1.309h-5.236a1.309,1.309,0,0,0-1.309,1.309v5.236A1.309,1.309,0,0,0,331.133,362.556Zm1.31-5.235h2.617v2.617h-2.617Zm0,0" transform="translate(-78.175 -164.625)" fill="#fff"/>
      <path id="Tracé_15685" data-name="Tracé 15685" d="M331.133,407.645h5.236a1.309,1.309,0,0,0,1.309-1.309V401.1a1.309,1.309,0,0,0-1.309-1.309h-5.236a1.309,1.309,0,0,0-1.309,1.309v5.235A1.309,1.309,0,0,0,331.133,407.645Zm1.31-5.235h2.617v2.617h-2.617Zm0,0" transform="translate(-78.175 -199.243)" fill="#fff"/>
      <path id="Tracé_15686" data-name="Tracé 15686" d="M401.282,213.283h-1.227v-2.5h20.859v2.5h-14.4a1.309,1.309,0,0,0-1.309,1.309h0a1.309,1.309,0,0,0,1.309,1.309h15.707a1.309,1.309,0,0,0,1.309-1.309v-5.12a1.309,1.309,0,0,0-1.309-1.309H398.747a1.309,1.309,0,0,0-1.309,1.309v5.12a1.309,1.309,0,0,0,1.309,1.309h2.536a1.309,1.309,0,0,0,1.309-1.309h0A1.309,1.309,0,0,0,401.282,213.283Zm1.309,0" transform="translate(-130.086 -52.12)" fill="#fff"/>
      <path id="Tracé_15687" data-name="Tracé 15687" d="M422.224,253.511h-2.616a1.309,1.309,0,0,0-1.309,1.309h0a1.309,1.309,0,0,0,1.309,1.309h1.307v2.5H400.055v-2.5H414.5a1.309,1.309,0,0,0,1.309-1.309h0a1.309,1.309,0,0,0-1.309-1.309H398.747a1.309,1.309,0,0,0-1.309,1.309v5.119a1.309,1.309,0,0,0,1.309,1.309h23.477a1.309,1.309,0,0,0,1.309-1.309V254.82A1.309,1.309,0,0,0,422.224,253.511Zm1.309,0" transform="translate(-130.086 -86.936)" fill="#333"/>
      <path id="Tracé_15688" data-name="Tracé 15688" d="M422.224,298.1H406.517a1.309,1.309,0,0,0-1.309,1.309h0a1.309,1.309,0,0,0,1.309,1.309h14.4V303.4H400.055v-2.675h1.227a1.309,1.309,0,0,0,1.309-1.309h0a1.309,1.309,0,0,0-1.309-1.309h-2.536a1.309,1.309,0,0,0-1.309,1.309v5.295a1.309,1.309,0,0,0,1.309,1.309h23.477a1.309,1.309,0,0,0,1.309-1.309v-5.295A1.309,1.309,0,0,0,422.224,298.1Zm1.309,0" transform="translate(-130.086 -121.172)" fill="#fff"/>
      <path id="Tracé_15689" data-name="Tracé 15689" d="M422.224,343.452h-2.616a1.309,1.309,0,0,0-1.309,1.309h0a1.309,1.309,0,0,0,1.309,1.309h1.307v2.676H400.055v-2.676h14.316a1.309,1.309,0,0,0,1.309-1.309h0a1.309,1.309,0,0,0-1.309-1.309H398.747a1.309,1.309,0,0,0-1.309,1.309v5.294a1.309,1.309,0,0,0,1.309,1.309h23.477a1.309,1.309,0,0,0,1.309-1.309v-5.294A1.309,1.309,0,0,0,422.224,343.452Zm1.309,0" transform="translate(-130.086 -155.988)" fill="#fff"/>
      <rect id="Rectangle_2023" data-name="Rectangle 2023" width="2.618" height="2.618" rx="1.309" transform="translate(273.941 145.453)" fill="#333"/>
      <rect id="Rectangle_2024" data-name="Rectangle 2024" width="2.617" height="2.618" rx="1.309" transform="translate(279.178 145.453)" fill="#fff"/>
      <rect id="Rectangle_2025" data-name="Rectangle 2025" width="2.617" height="2.618" rx="1.309" transform="translate(284.413 145.453)" fill="#fff"/>
    </g>
  </g>
</svg>
