<svg xmlns="http://www.w3.org/2000/svg" xmlns:xlink="http://www.w3.org/1999/xlink" width="121" height="121" viewBox="0 0 121 121">
  <defs>
    <clipPath id="clip-réseau_mandataire">
      <rect width="121" height="121"/>
    </clipPath>
  </defs>
  <g id="réseau_mandataire" data-name="réseau mandataire" clip-path="url(#clip-réseau_mandataire)">
    <g id="Groupe_19579" data-name="Groupe 19579" transform="translate(-251 -88.276)">
      <path id="Tracé_15747" data-name="Tracé 15747" d="M361.394,388.164h-7.238v-8.832a3.859,3.859,0,0,0-.209-1.292,2.962,2.962,0,0,0-1.4-1.671,4.058,4.058,0,0,0-1.961-.456,7.65,7.65,0,0,0-2.459.461,10.913,10.913,0,0,0-2.815,1.576,5.642,5.642,0,0,1-3.419,1.392,6.038,6.038,0,0,1-4.278-1.477,5.939,5.939,0,0,1,0-8.039,6.02,6.02,0,0,1,4.278-1.481,5.669,5.669,0,0,1,3.419,1.391,10.919,10.919,0,0,0,2.815,1.581,7.773,7.773,0,0,0,2.459.461,4.067,4.067,0,0,0,1.961-.461,2.933,2.933,0,0,0,1.4-1.671,3.856,3.856,0,0,0,.209-1.292V363.29a1.256,1.256,0,0,0-1.256-1.256h0a1.256,1.256,0,0,0-1.256,1.256v5.064a1.584,1.584,0,0,1-.062.48.5.5,0,0,1-.243.285,1.567,1.567,0,0,1-.75.143,5.146,5.146,0,0,1-1.643-.313,8.694,8.694,0,0,1-2.189-1.254,7.707,7.707,0,0,0-4.862-1.862,8.455,8.455,0,0,0-6,2.175,8.4,8.4,0,0,0,0,11.671,8.457,8.457,0,0,0,6,2.179,7.709,7.709,0,0,0,4.862-1.866,8.819,8.819,0,0,1,2.189-1.254,3.751,3.751,0,0,1,2.393-.171.792.792,0,0,1,.3.765v8.832h-6.272a1.294,1.294,0,0,0-1.305,1.134,1.253,1.253,0,0,0,1.248,1.377h16.139A1.252,1.252,0,0,0,362.7,389.3,1.3,1.3,0,0,0,361.394,388.164Z" transform="translate(-41.578 -198.637)" fill="#fff"/>
      <path id="Tracé_15748" data-name="Tracé 15748" d="M341.385,252.222a1.261,1.261,0,0,0-1.258,1.258v5.864a6.042,6.042,0,0,1-4.753,5.878V245.28a1.256,1.256,0,1,0-2.512,0v20.076h-43.08V245.28a1.256,1.256,0,1,0-2.512,0v19.943a6.037,6.037,0,0,1-4.757-5.878V253.48a1.256,1.256,0,1,0-2.513,0v5.864a8.557,8.557,0,0,0,7.27,8.433v28.048a3.193,3.193,0,0,0,3.2,3.2h7.582a1.256,1.256,0,1,0,0-2.512h-7.582a.687.687,0,0,1-.684-.684V267.867h43.08v27.958a.7.7,0,0,1-.2.484.679.679,0,0,1-.48.2h-6.614a1.256,1.256,0,0,0,0,2.512h6.614a3.2,3.2,0,0,0,3.2-3.2V267.777a8.566,8.566,0,0,0,7.27-8.433V253.48A1.261,1.261,0,0,0,341.385,252.222Z" transform="translate(0 -106.982)" fill="#333"/>
      <path id="Tracé_15749" data-name="Tracé 15749" d="M444.688,128.921a8.5,8.5,0,0,0-6.021-2.5h-1.676a9.436,9.436,0,0,0,1.719-5.436v-8.832a5.886,5.886,0,0,0-5.869-5.873h-7.26a5.886,5.886,0,0,0-5.869,5.873v8.832a9.434,9.434,0,0,0,1.719,5.436h-5.339a1.475,1.475,0,0,0-1.475,1.475v10.272a3.869,3.869,0,0,0,.209,1.291,2.961,2.961,0,0,0,1.4,1.672,4.06,4.06,0,0,0,1.961.456,7.65,7.65,0,0,0,2.459-.461,10.845,10.845,0,0,0,2.816-1.581,5.666,5.666,0,0,1,3.418-1.391,6.018,6.018,0,0,1,4.274,1.481,5.926,5.926,0,0,1,0,8.038,6.019,6.019,0,0,1-4.274,1.481,5.67,5.67,0,0,1-3.418-1.391,11,11,0,0,0-2.816-1.582,7.772,7.772,0,0,0-2.459-.461,4.022,4.022,0,0,0-1.961.461,2.934,2.934,0,0,0-1.4,1.671,3.839,3.839,0,0,0-.209,1.292v5.407a1.293,1.293,0,0,0,1.133,1.3,1.257,1.257,0,0,0,1.38-1.25v-5.461a.793.793,0,0,1,.3-.764,3.727,3.727,0,0,1,2.4.166,8.936,8.936,0,0,1,2.189,1.258,7.7,7.7,0,0,0,4.862,1.862,8.456,8.456,0,0,0,6-2.175,8.406,8.406,0,0,0,0-11.671,8.439,8.439,0,0,0-6-2.179,7.726,7.726,0,0,0-4.862,1.861,8.922,8.922,0,0,1-2.189,1.259,5.169,5.169,0,0,1-1.643.313c-.7,0-1.055-.143-1.055-.907V128.93h6.89a9.461,9.461,0,0,0,10.384,0h4.264a6.031,6.031,0,0,1,6.011,6.011v5.808a1.3,1.3,0,0,0,1.132,1.308,1.261,1.261,0,0,0,1.385-1.252v-5.864A8.485,8.485,0,0,0,444.688,128.921Zm-8.49-7.939a6.987,6.987,0,0,1-13.974,0V116.95a7.744,7.744,0,0,0,4.986-1.153,10.5,10.5,0,0,0,8.989,2.359Zm0-5.371c-1.629.356-5.29.721-7.9-2.279a1.25,1.25,0,0,0-1.767-.124,5.153,5.153,0,0,1-4.311,1.206v-2.266a3.372,3.372,0,0,1,3.357-3.362h7.26a3.374,3.374,0,0,1,3.357,3.362Z" transform="translate(-104.551)" fill="#fff"/>
      <path id="Tracé_15750" data-name="Tracé 15750" d="M305.764,126.418a9.435,9.435,0,0,0,1.72-5.436V107.534a1.262,1.262,0,0,0-1.258-1.258H294.354a5.885,5.885,0,0,0-5.873,5.873v8.832a9.439,9.439,0,0,0,1.719,5.437h-1.676A8.544,8.544,0,0,0,280,134.941v5.806a1.3,1.3,0,0,0,1.134,1.31,1.256,1.256,0,0,0,1.378-1.252v-5.864a6.03,6.03,0,0,1,6.011-6.012h4.269a9.448,9.448,0,0,0,10.379,0H306.3a1.256,1.256,0,0,0,1.256-1.256h0a1.256,1.256,0,0,0-1.256-1.256Zm-.792-5.436a6.987,6.987,0,0,1-13.974,0v-4.914h13.974Zm0-7.426H291v-1.406a3.372,3.372,0,0,1,3.357-3.362h10.617Z" fill="#333"/>
    </g>
  </g>
</svg>
