<svg xmlns="http://www.w3.org/2000/svg" xmlns:xlink="http://www.w3.org/1999/xlink" width="121" height="121" viewBox="0 0 121 121">
  <defs>
    <clipPath id="clip-réseau_ag">
      <rect width="121" height="121"/>
    </clipPath>
  </defs>
  <g id="réseau_ag" data-name="réseau ag" clip-path="url(#clip-réseau_ag)">
    <g id="Groupe_19577" data-name="Groupe 19577" transform="translate(647.208 -55.276)">
      <circle id="Ellipse_256" data-name="Ellipse 256" cx="0.796" cy="0.796" r="0.796" transform="translate(-627.239 140.519) rotate(-13.282)" fill="#fff"/>
      <g id="Groupe_10404" data-name="Groupe 10404" transform="translate(-619.629 82.276)">
        <rect id="Rectangle_2052" data-name="Rectangle 2052" width="2.155" height="2.155" rx="1.077" transform="translate(4.31 25.857)" fill="#fff"/>
        <rect id="Rectangle_2053" data-name="Rectangle 2053" width="2.155" height="2.155" rx="1.077" transform="translate(4.31 30.167)" fill="#333"/>
        <rect id="Rectangle_2054" data-name="Rectangle 2054" width="2.155" height="2.155" rx="1.077" transform="translate(60.334 30.167)" fill="#fff"/>
        <rect id="Rectangle_2055" data-name="Rectangle 2055" width="2.155" height="2.155" rx="1.077" transform="translate(60.334 25.857)" fill="#fff"/>
        <path id="Tracé_15737" data-name="Tracé 15737" d="M-413.385,162.9h10.774a1.077,1.077,0,0,0,1.077-1.077v-6.464a1.077,1.077,0,0,0-1.077-1.077h-10.774a1.077,1.077,0,0,0-1.077,1.077v6.464A1.078,1.078,0,0,0-413.385,162.9Zm1.077-6.464h8.619v4.31h-8.619Zm0,0" transform="translate(432.778 -141.347)" fill="#333"/>
        <path id="Tracé_15738" data-name="Tracé 15738" d="M-317.385,162.9h10.774a1.077,1.077,0,0,0,1.077-1.077v-6.464a1.077,1.077,0,0,0-1.077-1.077h-10.774a1.077,1.077,0,0,0-1.077,1.077v6.464A1.078,1.078,0,0,0-317.385,162.9Zm1.077-6.464h8.619v4.31h-8.619Zm0,0" transform="translate(354.016 -141.347)" fill="#333"/>
        <rect id="Rectangle_2056" data-name="Rectangle 2056" width="2.155" height="2.155" rx="1.077" transform="translate(48.483 4.309)" fill="#333"/>
        <rect id="Rectangle_2057" data-name="Rectangle 2057" width="25.857" height="2.155" rx="1.077" transform="translate(20.471 4.309)" fill="#333"/>
        <rect id="Rectangle_2058" data-name="Rectangle 2058" width="2.155" height="2.155" rx="1.077" transform="translate(16.161 4.309)" fill="#fff"/>
        <path id="Tracé_15739" data-name="Tracé 15739" d="M-479.385,309.05h6.464a1.077,1.077,0,0,0,1.077-1.077v-8.619a1.077,1.077,0,0,0-1.077-1.077h-6.464a1.078,1.078,0,0,0-1.077,1.077v8.619A1.078,1.078,0,0,0-479.385,309.05Zm1.077-8.619H-474V306.9h-4.31Zm0,0" transform="translate(486.926 -259.49)" fill="#fff"/>
        <path id="Tracé_15740" data-name="Tracé 15740" d="M-479.385,381.05h6.464a1.077,1.077,0,0,0,1.077-1.077v-8.619a1.077,1.077,0,0,0-1.077-1.077h-6.464a1.077,1.077,0,0,0-1.077,1.077v8.619A1.078,1.078,0,0,0-479.385,381.05Zm1.077-8.619H-474V378.9h-4.31Zm0,0" transform="translate(486.926 -318.561)" fill="#333"/>
        <path id="Tracé_15741" data-name="Tracé 15741" d="M-227.385,309.05h6.464a1.077,1.077,0,0,0,1.077-1.077v-8.619a1.077,1.077,0,0,0-1.077-1.077h-6.464a1.077,1.077,0,0,0-1.077,1.077v8.619A1.077,1.077,0,0,0-227.385,309.05Zm1.077-8.619H-222V306.9h-4.31Zm0,0" transform="translate(280.177 -259.49)" fill="#333"/>
        <path id="Tracé_15742" data-name="Tracé 15742" d="M-227.385,381.05h6.464a1.077,1.077,0,0,0,1.077-1.077v-8.619a1.077,1.077,0,0,0-1.077-1.077h-6.464a1.077,1.077,0,0,0-1.077,1.077v8.619A1.078,1.078,0,0,0-227.385,381.05Zm1.077-8.619H-222V378.9h-4.31Zm0,0" transform="translate(280.177 -318.561)" fill="#f59a00"/>
        <path id="Tracé_15743" data-name="Tracé 15743" d="M-452.9,99.514H-463.67V92.852a3.228,3.228,0,0,0,2.155-3.034v-4.31a3.236,3.236,0,0,0-3.232-3.232h-36.631a3.236,3.236,0,0,0-3.232,3.232v4.31a3.228,3.228,0,0,0,2.155,3.034v6.663H-513.23a3.236,3.236,0,0,0-3.232,3.232v12.929a3.228,3.228,0,0,0,2.155,3.034v30.365h62.489V118.709a3.228,3.228,0,0,0,2.155-3.034V102.746a3.236,3.236,0,0,0-3.232-3.232Zm0,2.155a1.078,1.078,0,0,1,1.077,1.077v1.077H-463.67v-2.155Zm-31.244,30.167V146.92h-4.31V131.836Zm2.155,0h4.31V146.92h-4.31Zm6.464,0h1.077a1.077,1.077,0,0,0,1.077-1.077h0a1.077,1.077,0,0,0-1.077-1.077h-17.238a1.077,1.077,0,0,0-1.077,1.077h0a1.078,1.078,0,0,0,1.077,1.077h1.077V146.92h-6.464V123.164a4.844,4.844,0,0,0,.526.053h1.1a4.806,4.806,0,0,0,3.758-1.831,4.814,4.814,0,0,0,3.76,1.831h1.1a4.806,4.806,0,0,0,3.758-1.831,4.813,4.813,0,0,0,3.76,1.831h1.1a4.806,4.806,0,0,0,3.758-1.831,4.814,4.814,0,0,0,3.76,1.831h1.1a4.815,4.815,0,0,0,.525-.053V146.92h-6.464V131.836ZM-501.1,116.753H-513.23a1.078,1.078,0,0,1-1.077-1.077v-9.7h11.851v2.155h3.939Zm23.621-8.619,1.909,9.542a2.786,2.786,0,0,1,.052.527v.179a2.683,2.683,0,0,1-2.681,2.681h-1.1a2.683,2.683,0,0,1-2.682-2.681V108.133Zm-6.658,9.7v.551a2.683,2.683,0,0,1-2.681,2.681h-1.1a2.683,2.683,0,0,1-2.682-2.681V118.2a2.75,2.75,0,0,1,.052-.525l1.909-9.544h4.5Zm-8.525-.575a4.891,4.891,0,0,0-.057.575h-.036v.551a2.683,2.683,0,0,1-2.681,2.681h-1.1a2.684,2.684,0,0,1-2.682-2.681,2.7,2.7,0,0,1,.113-.77l2.844-9.478h5.426Zm23.083,3.807h-1.1a2.683,2.683,0,0,1-2.682-2.681v-.551h-.036a4.972,4.972,0,0,0-.057-.577l-1.824-9.12h5.426l2.844,9.479a2.675,2.675,0,0,1,.113.769,2.683,2.683,0,0,1-2.681,2.681ZM-500.3,105.979V93.05h34.477v12.929Zm-2.155-20.47a1.078,1.078,0,0,1,1.077-1.077h36.631a1.078,1.078,0,0,1,1.077,1.077v4.31a1.078,1.078,0,0,1-1.077,1.077h-36.631a1.078,1.078,0,0,1-1.077-1.077Zm-10.774,16.161h10.774v2.155h-11.851v-1.077a1.078,1.078,0,0,1,1.077-1.077Zm1.077,17.238h10.827a4.827,4.827,0,0,0,2.1,3.494V146.92h-12.929ZM-466.9,146.92V122.4a4.825,4.825,0,0,0,2.1-3.494h10.827V146.92Zm14.006-30.167h-12.127l-2.586-8.619h3.939v-2.155h11.851v9.7a1.078,1.078,0,0,1-1.077,1.077Zm0,0" transform="translate(516.462 -82.276)" fill="#333"/>
      </g>
      <path id="Tracé_15744" data-name="Tracé 15744" d="M-128.407,363.768a2.389,2.389,0,0,0,2.389-2.389V350.23a2.389,2.389,0,0,0-2.389-2.389h-12.741a2.41,2.41,0,0,0-.312.023V349.5a.793.793,0,0,1,.312-.064h5.574v1.224h-1.652a1.112,1.112,0,0,0-1.112,1.112v2.274a1.112,1.112,0,0,0,1.112,1.112h1.652v1.224h-1.652a1.112,1.112,0,0,0-1.112,1.112v2.274a1.112,1.112,0,0,0,1.112,1.112h1.652v1.3h-5.574a.79.79,0,0,1-.312-.064v1.634a2.388,2.388,0,0,0,.312.023Zm-5.574-14.334h5.574a.8.8,0,0,1,.8.8v11.149a.8.8,0,0,1-.8.8h-5.574v-1.3h1.582a1.112,1.112,0,0,0,1.112-1.112v-2.274a1.112,1.112,0,0,0-1.112-1.112h-1.582v-1.224h1.582a1.112,1.112,0,0,0,1.112-1.112V351.77a1.112,1.112,0,0,0-1.112-1.112h-1.582Zm-2.764,4.129V352.25h3.865v1.313Zm0,5.722v-1.313h3.865v1.313Z" transform="translate(-410.83 -217.879)" fill="#fff"/>
      <path id="Tracé_15745" data-name="Tracé 15745" d="M-632.652,250.276h-5.789a2.4,2.4,0,0,0-2.365,2.054l-1.394,9.779a.531.531,0,0,0-.008.111,4,4,0,0,0,3.185,3.9v19.192h-1.925a.8.8,0,0,0-.8.8.8.8,0,0,0,.8.8h20.78v-1.593H-623.1V274.166a6.371,6.371,0,0,0-6.371-6.371,6.371,6.371,0,0,0-6.371,6.371v11.149h-1.593v-19.2a3.975,3.975,0,0,0,2.389-1.5,3.982,3.982,0,0,0,3.185,1.593,3.982,3.982,0,0,0,3.185-1.593,3.981,3.981,0,0,0,3.185,1.593,3.981,3.981,0,0,0,3.185-1.593,3.98,3.98,0,0,0,2.132,1.449v-1.7a2.387,2.387,0,0,1-1.336-2.142V250.276Zm4.778,1.593h4.778v10.352a2.389,2.389,0,0,1-2.389,2.389,2.389,2.389,0,0,1-2.389-2.389Zm-6.371,0h4.778v10.352a2.389,2.389,0,0,1-2.389,2.389,2.389,2.389,0,0,1-2.389-2.389Zm0,22.3a4.778,4.778,0,0,1,4.778-4.778,4.778,4.778,0,0,1,4.778,4.778v11.149h-9.556Zm-3.954-9.528a2.39,2.39,0,0,1-2.417-2.361l1.394-9.723a.79.79,0,0,1,.78-.685h2.6v10.352A2.39,2.39,0,0,1-638.2,264.638Z" transform="translate(0 -137.833)" fill="#333"/>
      <path id="Tracé_15746" data-name="Tracé 15746" d="M-140.353,250.276v11.945a2.385,2.385,0,0,1-1.108,2.015v1.754a3.979,3.979,0,0,0,1.9-1.38,3.982,3.982,0,0,0,3.185,1.593,3.981,3.981,0,0,0,3.185-1.593A3.982,3.982,0,0,0-130,266.2a3.981,3.981,0,0,0,3.185-1.593,3.975,3.975,0,0,0,2.389,1.5v19.2h-17.035v1.593h20.553a.8.8,0,0,0,.8-.8.8.8,0,0,0-.8-.8h-1.925V266.123a4,4,0,0,0,3.185-3.9.529.529,0,0,0-.008-.111l-1.394-9.779a2.4,2.4,0,0,0-2.365-2.054h-16.938Zm6.371,11.945a2.389,2.389,0,0,1-2.389,2.389,2.389,2.389,0,0,1-2.389-2.389V251.869h4.778Zm6.371-.8v.8A2.389,2.389,0,0,1-130,264.61a2.389,2.389,0,0,1-2.389-2.389V251.869h4.778Zm1.593.8V251.869h2.6a.789.789,0,0,1,.78.685l1.394,9.723a2.39,2.39,0,0,1-2.417,2.361A2.389,2.389,0,0,1-126.019,262.221Z" transform="translate(-410.83 -137.833)" fill="#333"/>
    </g>
  </g>
</svg>
