<svg xmlns="http://www.w3.org/2000/svg" xmlns:xlink="http://www.w3.org/1999/xlink" width="31.664" height="42.572" viewBox="0 0 31.664 42.572">
  <defs>
    <linearGradient id="linear-gradient" x1="0.5" x2="0.5" y2="1" gradientUnits="objectBoundingBox">
      <stop offset="0" stop-color="#f8b500"/>
      <stop offset="1" stop-color="#f27f00"/>
    </linearGradient>
  </defs>
  <g id="offres" transform="translate(-12888 6091)">
    <rect id="Rectangle_4561" data-name="Rectangle 4561" width="23" height="23" rx="5" transform="translate(12888 -6091)" fill="url(#linear-gradient)"/>
    <g id="Groupe_19367" data-name="Groupe 19367" transform="translate(11373.091 -6071.072)">
      <path id="Tracé_27111" data-name="Tracé 27111" d="M1546.57-11.4c0-.014,0-.028-.006-.041s0-.01,0-.014-.007-.032-.012-.048l0-.006c0-.016-.011-.032-.017-.047l0-.006c-.006-.015-.013-.029-.02-.043l0-.007c-.007-.013-.015-.026-.023-.038l-.006-.01c-.008-.012-.017-.023-.026-.035l-.008-.01c-.012-.014-.025-.028-.038-.042l-4.587-4.587q-.02-.02-.042-.038l-.011-.009-.033-.025-.011-.007-.037-.022-.008,0-.042-.02-.006,0-.046-.017-.007,0-.047-.012-.015,0-.041-.006a.548.548,0,0,0-.057,0h-20.641a.573.573,0,0,0-.573.573v34.67a.573.573,0,0,0,.573.573h13a.573.573,0,0,0,0-1.147h-12.424V-15.353h19.495v4.014a.573.573,0,0,0,.573.573h4.013V18.17h-3.248a.573.573,0,1,0,0,1.147H1546a.573.573,0,0,0,.573-.573V-11.34A.556.556,0,0,0,1546.57-11.4Zm-4.584-3.146,2.629,2.629h-2.629Z" transform="translate(0)"/>
      <path id="Tracé_27112" data-name="Tracé 27112" d="M1580.769,198.14h16.054a.573.573,0,0,0,0-1.147h-16.054a.573.573,0,1,0,0,1.147Z" transform="translate(-55.411 -197.171)"/>
      <path id="Tracé_27113" data-name="Tracé 27113" d="M1580.769,238.149h16.054a.573.573,0,0,0,0-1.147h-16.054a.573.573,0,1,0,0,1.147Z" transform="translate(-55.411 -234.121)"/>
      <path id="Tracé_27114" data-name="Tracé 27114" d="M1597.4,277.574a.573.573,0,0,0-.573-.573h-16.054a.573.573,0,1,0,0,1.147h16.054A.573.573,0,0,0,1597.4,277.574Z" transform="translate(-55.411 -271.062)"/>
      <path id="Tracé_27115" data-name="Tracé 27115" d="M1580.769,317a.573.573,0,1,0,0,1.147h6.88a.573.573,0,0,0,0-1.147Z" transform="translate(-55.411 -308.004)"/>
      <path id="Tracé_27116" data-name="Tracé 27116" d="M1597.4,92.871a.573.573,0,0,0-.573-.573h-16.054a.573.573,0,1,0,0,1.147h16.054A.573.573,0,0,0,1597.4,92.871Z" transform="translate(-55.411 -100.48)"/>
      <path id="Tracé_27117" data-name="Tracé 27117" d="M1580.769,52.3a.573.573,0,1,0,0,1.147h6.88a.573.573,0,0,0,0-1.147Z" transform="translate(-55.411 -63.538)"/>
      <path id="Tracé_27118" data-name="Tracé 27118" d="M1708.224,341.016a4.014,4.014,0,1,0-6.5,3.149v4.382c0,.006,0,.012,0,.018s0,.023,0,.035,0,.016,0,.024,0,.021,0,.031l.006.026c0,.01,0,.019.007.029s.006.018.009.027l.01.026.012.027.012.024c0,.009.01.018.016.027l.013.021.02.028.011.015,0,0a.545.545,0,0,0,.041.045l.013.011.032.029.021.015.028.02.022.014.031.017.022.01.036.014.02.007.041.012.017,0,.047.008.013,0,.057,0h.006a.581.581,0,0,0,.082-.007l.017,0a.563.563,0,0,0,.08-.02l.014-.005a.557.557,0,0,0,.08-.035l0,0a.559.559,0,0,0,.076-.051l.005,0,1.553-1.242,1.553,1.242.005,0a.573.573,0,0,0,.076.051h0a.563.563,0,0,0,.08.035l.014.005a.577.577,0,0,0,.08.02l.017,0a.569.569,0,0,0,.082.007h.006l.057,0,.013,0,.047-.008.016,0,.042-.012.019-.007.036-.015.021-.01.031-.017.022-.014.028-.02.021-.015.032-.029.013-.012a.547.547,0,0,0,.041-.046l0,0,.011-.015.02-.028.013-.021.016-.028.011-.024.012-.027.01-.026c0-.009.006-.018.009-.027s.005-.019.007-.029l.006-.026c0-.01,0-.021,0-.031s0-.016,0-.024,0-.023,0-.035,0-.012,0-.018v-4.382A4.009,4.009,0,0,0,1708.224,341.016Zm-6.881,0a2.867,2.867,0,1,1,2.867,2.867A2.87,2.87,0,0,1,1701.343,341.016Zm4.2,6.337-.971-.777h0l-.008-.007-.013-.009-.031-.022-.019-.011-.029-.017-.024-.012-.026-.012-.028-.01-.024-.008-.03-.008-.024-.005-.03,0-.025,0-.027,0h-.053l-.032,0-.021,0-.034.005-.02,0-.034.009-.021.007-.031.011-.024.011-.026.012-.029.016-.02.012-.031.022-.013.009-.008.006h0l-.971.777V344.8a4,4,0,0,0,2.676,0Z" transform="translate(-166.236 -326.476)"/>
      <path id="Tracé_27119" data-name="Tracé 27119" d="M1731.917,370.441a1.72,1.72,0,1,0-1.72-1.72A1.722,1.722,0,0,0,1731.917,370.441Zm0-2.294a.573.573,0,1,1-.573.573A.574.574,0,0,1,1731.917,368.148Z" transform="translate(-193.944 -354.181)"/>
    </g>
  </g>
</svg>
