<svg xmlns="http://www.w3.org/2000/svg" xmlns:xlink="http://www.w3.org/1999/xlink" width="36.193" height="34.385" viewBox="0 0 36.193 34.385">
  <defs>
    <linearGradient id="linear-gradient" x1="0.5" x2="0.5" y2="1" gradientUnits="objectBoundingBox">
      <stop offset="0" stop-color="#f8b500"/>
      <stop offset="1" stop-color="#f27f00"/>
    </linearGradient>
  </defs>
  <g id="mandats" transform="translate(-12645 6154.192)">
    <rect id="Rectangle_4559" data-name="Rectangle 4559" width="23" height="23" rx="5" transform="translate(12645 -6149)" fill="url(#linear-gradient)"/>
    <g id="Groupe_19364" data-name="Groupe 19364" transform="translate(11995.088 -6138.192)">
      <path id="Tracé_27088" data-name="Tracé 27088" d="M692.391,435.992a.672.672,0,0,0-.672.672h0a.672.672,0,1,0,.672-.672Zm0,0" transform="translate(-37.314 -421.637)"/>
      <path id="Tracé_27089" data-name="Tracé 27089" d="M733.95-16h-5.373a.672.672,0,0,0-.672.672v.7l-.9-.006h0a.672.672,0,0,0-.672.667.672.672,0,0,0,.667.676l.9.006v6.968c-1.758,1.108-3.346.47-5.021-.2a7.012,7.012,0,0,0-3.385-.761c-.359.045-1.33.186-2.356.335-.973.141-1.979.287-2.325.331a.666.666,0,0,1-.494-.138.685.685,0,0,1-.261-.459c-.015-.119-.054-.435.788-.826a33.764,33.764,0,0,1,5.209-1.94.672.672,0,0,0,.476-.822.672.672,0,0,0-.822-.476,35.154,35.154,0,0,0-5.428,2.02,2.963,2.963,0,0,0-1.271,1l-6.733,1.836c-.708.178-1.072-.1-1.176-.427a.749.749,0,0,1,.528-.929c.527-.2,1.785-.754,3.377-1.455,2.11-.928,4.735-2.084,6.828-2.933a11.7,11.7,0,0,1,5.793-1.152h0a.672.672,0,0,0,.672-.669.672.672,0,0,0-.67-.674,13,13,0,0,0-6.3,1.251c-2.112.857-4.747,2.016-6.865,2.948-1.515.667-2.825,1.243-3.317,1.431l-.006,0a2.078,2.078,0,0,0-1.319,2.592,2.181,2.181,0,0,0,2.79,1.317l.012,0,6.147-1.676A2.018,2.018,0,0,0,713.5-5.7a2,2,0,0,0,1.487.411c.359-.045,1.326-.186,2.351-.334.976-.142,1.984-.288,2.331-.332a6.025,6.025,0,0,1,2.716.674,9.521,9.521,0,0,0,3.532.9,4.842,4.842,0,0,0,1.99-.423v.213a.672.672,0,0,0,.672.672h5.373a.672.672,0,0,0,.672-.672V-15.328A.672.672,0,0,0,733.95-16Zm-.672,10.745h-4.029v-8.692h0v-.709h4.029Zm0,0" transform="translate(-48.517 0)"/>
      <path id="Tracé_27090" data-name="Tracé 27090" d="M1104.391,25.347a.672.672,0,0,0,.672-.672h0a.672.672,0,1,0-.672.672Zm0,0" transform="translate(-421.645 -37.317)"/>
      <path id="Tracé_27091" data-name="Tracé 27091" d="M772.421,179.4a4.7,4.7,0,0,0,3.854-2.015h2.481a.672.672,0,0,0,.475-.2l1.146-1.146h.787l1.146,1.146a.672.672,0,0,0,.475.2h1.052a.672.672,0,0,0,.475-.2l2.015-2.015a.672.672,0,0,0,.2-.475v-2.015a.672.672,0,0,0-.672-.672h-9.577a4.7,4.7,0,1,0-3.855,7.387Zm12.76-6.044v1.065l-1.621,1.621h-.5l-1.147-1.146a.672.672,0,0,0-.475-.2H780.1a.672.672,0,0,0-.475.2l-1.146,1.146h-1.553a4.688,4.688,0,0,0,0-2.686Zm-12.76-2.015a3.358,3.358,0,1,1-3.358,3.358,3.362,3.362,0,0,1,3.358-3.358Zm0,0" transform="translate(-108.21 -173.509)"/>
      <path id="Tracé_27092" data-name="Tracé 27092" d="M808.392,231.339a.672.672,0,1,0-.672-.672h0a.671.671,0,0,0,.672.671Zm0,0" transform="translate(-145.523 -229.475)"/>
      <path id="Tracé_27093" data-name="Tracé 27093" d="M1000.986,5.448h0a.672.672,0,1,0-.672-.672.671.671,0,0,0,.672.672Zm0,0" transform="translate(-325.183 -18.755)"/>
      <path id="Tracé_27094" data-name="Tracé 27094" d="M679.725,317.218l-.012,0-6.147,1.676a2.027,2.027,0,0,0-2.21-1.521c-.359.045-1.326.186-2.351.334-.976.142-1.984.288-2.331.332a6.03,6.03,0,0,1-2.716-.674c-1.568-.631-3.463-1.394-5.523-.48v-.212a.672.672,0,0,0-.672-.672h-5.373a.672.672,0,0,0-.672.672v10.745a.672.672,0,0,0,.672.672h5.373a.672.672,0,0,0,.672-.672v-.7l.9.006h0a.672.672,0,0,0,0-1.343l-.9-.006v-6.968c1.758-1.108,3.346-.47,5.021.2a7.008,7.008,0,0,0,3.385.761c.36-.045,1.329-.186,2.356-.335.973-.141,1.979-.287,2.325-.331a.665.665,0,0,1,.494.138.684.684,0,0,1,.261.459c.015.119.054.435-.788.825a33.745,33.745,0,0,1-5.209,1.94.672.672,0,1,0,.345,1.3,35.158,35.158,0,0,0,5.429-2.02,2.966,2.966,0,0,0,1.272-1l6.733-1.836c.708-.178,1.072.1,1.176.427a.749.749,0,0,1-.528.929c-.527.2-1.785.754-3.377,1.455-2.109.928-4.735,2.084-6.828,2.933a11.692,11.692,0,0,1-5.793,1.152h0a.672.672,0,0,0,0,1.343h.162a12.888,12.888,0,0,0,6.139-1.251c2.112-.857,4.747-2.016,6.864-2.948,1.516-.667,2.825-1.243,3.317-1.431l.007,0a2.078,2.078,0,0,0,1.319-2.592,2.181,2.181,0,0,0-2.79-1.317Zm-26.662,9.531v-9.4h4.029v9.4Zm0,0" transform="translate(0 -309.707)"/>
      <path id="Tracé_27095" data-name="Tracé 27095" d="M795.8,455.895h0a.672.672,0,1,0,.672.672.671.671,0,0,0-.672-.672Zm0,0" transform="translate(-133.775 -440.204)"/>
    </g>
  </g>
</svg>
