<svg xmlns="http://www.w3.org/2000/svg" xmlns:xlink="http://www.w3.org/1999/xlink" width="33" height="40.59" viewBox="0 0 33 40.59">
  <defs>
    <linearGradient id="linear-gradient" x1="0.5" x2="0.5" y2="1" gradientUnits="objectBoundingBox">
      <stop offset="0" stop-color="#f8b500"/>
      <stop offset="1" stop-color="#f27f00"/>
    </linearGradient>
  </defs>
  <g id="estimation" transform="translate(-12892 6160)">
    <rect id="Rectangle_4558" data-name="Rectangle 4558" width="23" height="23" rx="11.5" transform="translate(12902 -6160)" fill="url(#linear-gradient)"/>
    <g id="Groupe_19365" data-name="Groupe 19365" transform="translate(11748.28 -6215)">
      <path id="Tracé_27096" data-name="Tracé 27096" d="M1168.04,95.59h-20.168a4.157,4.157,0,0,1-4.152-4.152V64.152A4.157,4.157,0,0,1,1147.872,60h20.168a4.157,4.157,0,0,1,4.152,4.152V91.438a4.157,4.157,0,0,1-4.152,4.152Zm-20.168-34.4a2.97,2.97,0,0,0-2.966,2.966V91.438a2.97,2.97,0,0,0,2.966,2.966h20.168a2.97,2.97,0,0,0,2.966-2.966V64.152a2.97,2.97,0,0,0-2.966-2.966Zm0,0"/>
      <path id="Tracé_27097" data-name="Tracé 27097" d="M1257.058,341.932H1253.5a1.78,1.78,0,0,1-1.779-1.78V337.78A1.78,1.78,0,0,1,1253.5,336h3.559a1.78,1.78,0,0,1,1.78,1.78v2.373a1.78,1.78,0,0,1-1.78,1.78Zm-3.559-4.745a.593.593,0,0,0-.593.593v2.373a.593.593,0,0,0,.593.593h3.559a.593.593,0,0,0,.593-.593V337.78a.593.593,0,0,0-.593-.593Zm0,0" transform="translate(-97.323 -248.714)"/>
      <path id="Tracé_27098" data-name="Tracé 27098" d="M1173.058,341.932H1169.5a1.78,1.78,0,0,1-1.78-1.78V337.78a1.78,1.78,0,0,1,1.78-1.78h3.559a1.78,1.78,0,0,1,1.78,1.78v2.373a1.78,1.78,0,0,1-1.78,1.78Zm-3.559-4.745a.593.593,0,0,0-.593.593v2.373a.593.593,0,0,0,.593.593h3.559a.593.593,0,0,0,.593-.593V337.78a.593.593,0,0,0-.593-.593Zm0,0" transform="translate(-21.627 -248.714)"/>
      <path id="Tracé_27099" data-name="Tracé 27099" d="M1341.059,277.05H1337.5a1.78,1.78,0,0,1-1.78-1.78V265.78a1.78,1.78,0,0,1,1.78-1.78h3.559a1.78,1.78,0,0,1,1.779,1.78v9.491a1.78,1.78,0,0,1-1.779,1.78Zm-3.559-11.863a.593.593,0,0,0-.593.593v9.491a.593.593,0,0,0,.593.593h3.559a.593.593,0,0,0,.593-.593V265.78a.593.593,0,0,0-.593-.593Zm0,0" transform="translate(-173.019 -183.832)"/>
      <path id="Tracé_27100" data-name="Tracé 27100" d="M1257.058,269.932H1253.5a1.78,1.78,0,0,1-1.779-1.78V265.78A1.78,1.78,0,0,1,1253.5,264h3.559a1.78,1.78,0,0,1,1.78,1.78v2.373a1.78,1.78,0,0,1-1.78,1.78Zm-3.559-4.745a.593.593,0,0,0-.593.593v2.373a.593.593,0,0,0,.593.593h3.559a.593.593,0,0,0,.593-.593V265.78a.593.593,0,0,0-.593-.593Zm0,0" transform="translate(-97.323 -183.832)"/>
      <path id="Tracé_27101" data-name="Tracé 27101" d="M1173.058,269.932H1169.5a1.78,1.78,0,0,1-1.78-1.78V265.78a1.78,1.78,0,0,1,1.78-1.78h3.559a1.78,1.78,0,0,1,1.78,1.78v2.373a1.78,1.78,0,0,1-1.78,1.78Zm-3.559-4.745a.593.593,0,0,0-.593.593v2.373a.593.593,0,0,0,.593.593h3.559a.593.593,0,0,0,.593-.593V265.78a.593.593,0,0,0-.593-.593Zm0,0" transform="translate(-21.627 -183.832)"/>
      <path id="Tracé_27102" data-name="Tracé 27102" d="M1257.058,197.932H1253.5a1.78,1.78,0,0,1-1.779-1.78V193.78A1.78,1.78,0,0,1,1253.5,192h3.559a1.78,1.78,0,0,1,1.78,1.78v2.373a1.78,1.78,0,0,1-1.78,1.78Zm-3.559-4.745a.593.593,0,0,0-.593.593v2.373a.593.593,0,0,0,.593.593h3.559a.593.593,0,0,0,.593-.593V193.78a.593.593,0,0,0-.593-.593Zm0,0" transform="translate(-97.323 -118.95)"/>
      <path id="Tracé_27103" data-name="Tracé 27103" d="M1173.058,197.932H1169.5a1.78,1.78,0,0,1-1.78-1.78V193.78a1.78,1.78,0,0,1,1.78-1.78h3.559a1.78,1.78,0,0,1,1.78,1.78v2.373a1.78,1.78,0,0,1-1.78,1.78Zm-3.559-4.745a.593.593,0,0,0-.593.593v2.373a.593.593,0,0,0,.593.593h3.559a.593.593,0,0,0,.593-.593V193.78a.593.593,0,0,0-.593-.593Zm0,0" transform="translate(-21.627 -118.95)"/>
      <path id="Tracé_27104" data-name="Tracé 27104" d="M1341.059,197.932H1337.5a1.78,1.78,0,0,1-1.78-1.78V193.78a1.78,1.78,0,0,1,1.78-1.78h3.559a1.78,1.78,0,0,1,1.779,1.78v2.373a1.78,1.78,0,0,1-1.779,1.78Zm-3.559-4.745a.593.593,0,0,0-.593.593v2.373a.593.593,0,0,0,.593.593h3.559a.593.593,0,0,0,.593-.593V193.78a.593.593,0,0,0-.593-.593Zm0,0" transform="translate(-173.019 -118.95)"/>
      <path id="Tracé_27105" data-name="Tracé 27105" d="M1189.667,92.3H1169.5a1.78,1.78,0,0,1-1.78-1.78V85.78A1.78,1.78,0,0,1,1169.5,84h20.168a1.779,1.779,0,0,1,1.78,1.78v4.745a1.779,1.779,0,0,1-1.78,1.78ZM1169.5,85.186a.593.593,0,0,0-.593.593v4.745a.593.593,0,0,0,.593.593h20.168a.593.593,0,0,0,.593-.593V85.78a.593.593,0,0,0-.593-.593Zm0,0" transform="translate(-21.627 -21.627)"/>
    </g>
  </g>
</svg>
