<svg xmlns="http://www.w3.org/2000/svg" xmlns:xlink="http://www.w3.org/1999/xlink" width="37" height="37.219" viewBox="0 0 37 37.219">
  <defs>
    <linearGradient id="linear-gradient" x1="0.5" x2="0.5" y2="1" gradientUnits="objectBoundingBox">
      <stop offset="0" stop-color="#f8b500"/>
      <stop offset="1" stop-color="#f27f00"/>
    </linearGradient>
  </defs>
  <g id="temps" transform="translate(-13081 6322)">
    <rect id="Rectangle_4556" data-name="Rectangle 4556" width="23" height="23" rx="5" transform="translate(13095 -6322)" fill="url(#linear-gradient)"/>
    <g id="Layer_9" data-name="Layer 9" transform="translate(10160.791 -6481.288)">
      <path id="Tracé_26110" data-name="Tracé 26110" d="M2920.209,178.4a18.109,18.109,0,1,0,18.109-18.109A18.11,18.11,0,0,0,2920.209,178.4Zm34.644,0a16.534,16.534,0,1,1-16.534-16.535A16.534,16.534,0,0,1,2954.853,178.4Z" fill="#1f1f1f"/>
      <path id="Tracé_26111" data-name="Tracé 26111" d="M2952.209,207.248a14.96,14.96,0,1,0,14.96-14.96A14.96,14.96,0,0,0,2952.209,207.248Zm23.941-7.864,1.026-1.026a13.322,13.322,0,0,1,3.378,8.1h-1.575a.787.787,0,0,0-.787.787h0a.787.787,0,0,0,.787.787h1.575a13.323,13.323,0,0,1-3.354,8.086l-1.018-1.018a.787.787,0,0,0-1.114,0l0,0a.788.788,0,0,0,0,1.114l1.018,1.018a13.323,13.323,0,0,1-8.125,3.394v-1.575a.787.787,0,0,0-.788-.787h0a.787.787,0,0,0-.787.787v1.575a13.321,13.321,0,0,1-8.086-3.354l1.018-1.018a.787.787,0,0,0,0-1.114l0,0a.788.788,0,0,0-1.114,0l-1.018,1.018a13.321,13.321,0,0,1-3.354-8.126h1.535a.787.787,0,0,0,.788-.787h0a.787.787,0,0,0-.788-.787h-1.535a13.321,13.321,0,0,1,3.354-8.086l1.018,1.018a.788.788,0,0,0,1.114,0l0,0a.787.787,0,0,0,0-1.114l-1.018-1.018a13.321,13.321,0,0,1,8.086-3.354v1.535a.787.787,0,0,0,.787.787h0a.787.787,0,0,0,.788-.787V193.9a13.323,13.323,0,0,1,8.086,3.354l-1.01,1.01a.788.788,0,0,0,.008,1.121l0,0A.787.787,0,0,0,2976.15,199.384Z" transform="translate(-28.851 -28.851)" fill="#1f1f1f"/>
      <path id="Tracé_26112" data-name="Tracé 26112" d="M3097,248.288h0a.787.787,0,0,0-.787.787v8.661a.787.787,0,0,0,.228.559l4.167,4.167a.787.787,0,0,0,1.114,0l0,0a.787.787,0,0,0,0-1.114l-3.938-3.931v-8.338A.787.787,0,0,0,3097,248.288Z" transform="translate(-158.678 -79.339)" fill="#1f1f1f"/>
    </g>
  </g>
</svg>
