<svg xmlns="http://www.w3.org/2000/svg" xmlns:xlink="http://www.w3.org/1999/xlink" width="36.236" height="36" viewBox="0 0 36.236 36">
  <defs>
    <linearGradient id="linear-gradient" x1="0.5" x2="0.5" y2="1" gradientUnits="objectBoundingBox">
      <stop offset="0" stop-color="#f8b500"/>
      <stop offset="1" stop-color="#f27f00"/>
    </linearGradient>
  </defs>
  <g id="envois" transform="translate(-12887 6321)">
    <rect id="Rectangle_4557" data-name="Rectangle 4557" width="23" height="23" rx="11.5" transform="translate(12887 -6308)" fill="url(#linear-gradient)"/>
    <g id="Groupe_19363" data-name="Groupe 19363" transform="translate(13411.639 -6381.542)">
      <path id="Tracé_27084" data-name="Tracé 27084" d="M-523.146,73.509l15.751,6.052,6.806,15.756a.767.767,0,0,0,.7.462h.038a.767.767,0,0,0,.692-.533l10.727-33.713a.57.57,0,0,0,.01-.073.722.722,0,0,0,.018-.128.763.763,0,0,0-.006-.126.724.724,0,0,0-.024-.12.8.8,0,0,0-.051-.124.726.726,0,0,0-.028-.067.472.472,0,0,0-.032-.036.8.8,0,0,0-.087-.1.752.752,0,0,0-.1-.086c-.013-.009-.021-.022-.034-.03a.724.724,0,0,0-.067-.027.8.8,0,0,0-.128-.051.806.806,0,0,0-.113-.02.786.786,0,0,0-.134-.006.689.689,0,0,0-.124.021.708.708,0,0,0-.079.013L-523.12,72.069a.764.764,0,0,0-.519.71A.766.766,0,0,0-523.146,73.509ZM-500,92.829l-5.915-13.694,15.066-15.067Zm7.964-29.74L-507.01,78.067l-13.614-5.231Z" transform="translate(0 0)"/>
      <path id="Tracé_27085" data-name="Tracé 27085" d="M-522.873,312.719a.764.764,0,0,0,.542-.224l10.727-10.727a.765.765,0,0,0,0-1.083.765.765,0,0,0-1.083,0l-10.727,10.727a.765.765,0,0,0,0,1.083A.764.764,0,0,0-522.873,312.719Z" transform="translate(0 -216.94)"/>
      <path id="Tracé_27086" data-name="Tracé 27086" d="M-430.051,356.685l-5.363,5.363a.765.765,0,0,0,0,1.083.764.764,0,0,0,.542.224.764.764,0,0,0,.542-.224l5.363-5.363a.765.765,0,0,0,0-1.083A.765.765,0,0,0-430.051,356.685Z" transform="translate(-79.572 -267.577)"/>
      <path id="Tracé_27087" data-name="Tracé 27087" d="M-522.873,275.356a.764.764,0,0,0,.542-.224l5.363-5.363a.765.765,0,0,0,0-1.083.765.765,0,0,0-1.083,0l-5.363,5.363a.765.765,0,0,0,0,1.083A.764.764,0,0,0-522.873,275.356Z" transform="translate(0 -188.005)"/>
    </g>
  </g>
</svg>
