<svg xmlns="http://www.w3.org/2000/svg" xmlns:xlink="http://www.w3.org/1999/xlink" width="40.034" height="38.607" viewBox="0 0 40.034 38.607">
  <defs>
    <linearGradient id="linear-gradient" x1="0.5" x2="0.5" y2="1" gradientUnits="objectBoundingBox">
      <stop offset="0" stop-color="#f8b500"/>
      <stop offset="1" stop-color="#f27f00"/>
    </linearGradient>
  </defs>
  <g id="bons-de-vente" transform="translate(-12645.729 6091.764)">
    <rect id="Rectangle_4560" data-name="Rectangle 4560" width="23" height="23" rx="5" transform="translate(12653.236 -6075.5) rotate(-45)" fill="url(#linear-gradient)"/>
    <g id="Groupe_19366" data-name="Groupe 19366" transform="translate(10660.525 -6088.146)">
      <path id="Tracé_27106" data-name="Tracé 27106" d="M2017.891,2h-23.628a3.7,3.7,0,0,0-3.719,3.678l-.152,20.806h-4.611a.6.6,0,0,0-.576.616v2.863a5.017,5.017,0,0,0,4.734,4.993v.034h19.9v-.039c.148.006.238.039.339.039h.014a5,5,0,0,0,4.972-5.028v-18.2h6.007a.606.606,0,0,0,.576-.622V5.888A3.881,3.881,0,0,0,2017.891,2ZM1990.2,33.807h0a3.835,3.835,0,0,1-3.805-3.844v-2.3h18.788v2.285a5.008,5.008,0,0,0,1.462,3.554,2.123,2.123,0,0,1,.312.3Zm23.781-27.9V29.962a3.821,3.821,0,0,1-3.79,3.845h-.012a3.845,3.845,0,0,1-3.817-3.854V27.1a.613.613,0,0,0-.592-.616h-14.192l.152-20.8a2.521,2.521,0,0,1,2.536-2.5H2015.1A4.038,4.038,0,0,0,2013.978,5.9Zm6.583-.005V10.58h-5.4V5.9a2.74,2.74,0,0,1,2.712-2.719h.017a2.7,2.7,0,0,1,2.671,2.71Z" transform="translate(0 0)"/>
      <path id="Tracé_27107" data-name="Tracé 27107" d="M2150.04,66.177l3.051,2.086a.583.583,0,0,0,.661,0l3.042-2.085a4.6,4.6,0,0,0,1.837-3.506v-4.22a.579.579,0,0,0-.315-.531l-4.645-2.285a.582.582,0,0,0-.517,0l-4.636,2.279a.577.577,0,0,0-.315.531v4.227A4.6,4.6,0,0,0,2150.04,66.177Zm-.655-7.363,4.031-1.989,4.031,1.995v3.852a3.41,3.41,0,0,1-1.321,2.528l-2.717,1.858L2150.7,65.2a3.408,3.408,0,0,1-1.318-2.528Z" transform="translate(-150.94 -49.612)"/>
      <path id="Tracé_27108" data-name="Tracé 27108" d="M2188.108,121.493a.592.592,0,0,0,.419.177h0a.592.592,0,0,0,.418-.175l2.354-2.355a.592.592,0,0,0-.837-.838l-1.933,1.933-.773-.78a.592.592,0,0,0-.841.834Z" transform="translate(-186.633 -107.54)"/>
      <path id="Tracé_27109" data-name="Tracé 27109" d="M2118.8,251.184H2133a.592.592,0,1,0,0-1.184h-14.2a.592.592,0,1,0,0,1.184Z" transform="translate(-123.162 -229.656)"/>
      <path id="Tracé_27110" data-name="Tracé 27110" d="M2118.8,288.183H2133a.592.592,0,1,0,0-1.184h-14.2a.592.592,0,1,0,0,1.184Z" transform="translate(-123.162 -263.919)"/>
    </g>
  </g>
</svg>
