<svg xmlns="http://www.w3.org/2000/svg" xmlns:xlink="http://www.w3.org/1999/xlink" width="40.447" height="40.447" viewBox="0 0 40.447 40.447">
  <defs>
    <linearGradient id="linear-gradient" x1="0.5" x2="0.5" y2="1" gradientUnits="objectBoundingBox">
      <stop offset="0" stop-color="#f8b500"/>
      <stop offset="1" stop-color="#f27f00"/>
    </linearGradient>
  </defs>
  <g id="impressions" transform="translate(-12646.316 6320.684)">
    <rect id="Rectangle_4562" data-name="Rectangle 4562" width="23" height="23" rx="5" transform="translate(12654.236 -6296.5) rotate(-45)" fill="url(#linear-gradient)"/>
    <g id="Groupe_19362" data-name="Groupe 19362" transform="translate(12630.316 -6336.684)">
      <path id="Tracé_27082" data-name="Tracé 27082" d="M50.778,27.789H47.83V23.663a.589.589,0,0,0-.589-.589H45.473V16.589A.589.589,0,0,0,44.883,16h-22.4a.589.589,0,0,0-.589.589v6.484H20.126a.589.589,0,0,0-.589.589v4.126H16.589a.589.589,0,0,0-.589.589v16.5a.589.589,0,0,0,.589.589h5.305v5.305a.589.589,0,0,0,.589.589h22.4a.589.589,0,0,0,.589-.589V45.473h5.305a.589.589,0,0,0,.589-.589v-16.5A.589.589,0,0,0,50.778,27.789Zm-4.126-3.537v3.537H45.473V24.252ZM23.073,17.179h21.22v10.61H23.073Zm-2.358,7.073h1.179v3.537H20.716Zm1.179,17.684h-.589V40.168h.589Zm22.4,8.252H23.073V40.168h21.22Zm1.768-10.021v1.768h-.589V40.168Zm4.126,4.126H45.473V43.115h1.179a.589.589,0,0,0,.589-.589V39.578a.589.589,0,0,0-.589-.589H20.716a.589.589,0,0,0-.589.589v2.947a.589.589,0,0,0,.589.589h1.179v1.179H17.179V28.968H50.188Z"/>
      <path id="Tracé_27083" data-name="Tracé 27083" d="M53.305,208H48.589a.589.589,0,0,0-.589.589v2.358a.589.589,0,0,0,.589.589h4.716a.589.589,0,0,0,.589-.589v-2.358A.589.589,0,0,0,53.305,208Zm-.589,2.358H49.179v-1.179h3.537Z" transform="translate(-29.642 -177.853)"/>
    </g>
  </g>
</svg>
