<svg xmlns="http://www.w3.org/2000/svg" width="26.838" height="29.278" viewBox="0 0 26.838 29.278">
  <g id="accès" transform="translate(-2749.394 -115.467)">
    <path id="Tracé_25590" data-name="Tracé 25590" d="M2847.083,203.866h-14.639a3.053,3.053,0,0,1-3.05-3.05v-18.3a3.053,3.053,0,0,1,3.05-3.05h14.639a3.053,3.053,0,0,1,3.05,3.05v18.3a3.053,3.053,0,0,1-3.05,3.05Zm-14.639-23.179a1.832,1.832,0,0,0-1.83,1.83v18.3a1.832,1.832,0,0,0,1.83,1.83h14.639a1.833,1.833,0,0,0,1.83-1.83v-18.3a1.833,1.833,0,0,0-1.83-1.83Zm0,0" transform="translate(-73.9 -59.12)" fill="#f59a00"/>
    <path id="Tracé_25591" data-name="Tracé 25591" d="M2753.664,141.086h-1.22a3.053,3.053,0,0,1-3.05-3.05V118.517a3.053,3.053,0,0,1,3.05-3.05h14.639a3.053,3.053,0,0,1,3.05,3.05.61.61,0,1,1-1.22,0,1.832,1.832,0,0,0-1.83-1.83h-14.639a1.832,1.832,0,0,0-1.83,1.83v19.519a1.832,1.832,0,0,0,1.83,1.83h1.22a.61.61,0,0,1,0,1.22Zm0,0" fill="#f59a00"/>
    <path id="Tracé_25592" data-name="Tracé 25592" d="M2903.763,372.687H2894a.61.61,0,0,1,0-1.22h9.76a.61.61,0,1,1,0,1.22Zm0,0" transform="translate(-133.021 -236.481)" fill="#f59a00"/>
    <path id="Tracé_25593" data-name="Tracé 25593" d="M2903.763,436.687H2894a.61.61,0,0,1,0-1.22h9.76a.61.61,0,1,1,0,1.22Zm0,0" transform="translate(-133.021 -295.601)" fill="#f59a00"/>
    <path id="Tracé_25594" data-name="Tracé 25594" d="M2903.763,308.687H2894a.61.61,0,0,1,0-1.22h9.76a.61.61,0,1,1,0,1.22Zm0,0" transform="translate(-133.021 -177.361)" fill="#f59a00"/>
    <path id="Tracé_25595" data-name="Tracé 25595" d="M2903.763,244.687H2894a.61.61,0,0,1,0-1.22h9.76a.61.61,0,1,1,0,1.22Zm0,0" transform="translate(-133.021 -118.241)" fill="#f59a00"/>
  </g>
</svg>
