<svg xmlns="http://www.w3.org/2000/svg" width="33.017" height="33.017" viewBox="0 0 33.017 33.017">
  <g id="action" transform="translate(-751.232 -42.717)">
    <path id="Tracé_25584" data-name="Tracé 25584" d="M768.777,75.734H766.7a3.043,3.043,0,0,1-3.04-3.04v-.7a13.325,13.325,0,0,1-2.07-.859l-.5.5a3.04,3.04,0,0,1-4.3,0l-1.465-1.464a3.039,3.039,0,0,1,0-4.3l.5-.5a13.317,13.317,0,0,1-.859-2.07h-.7a3.043,3.043,0,0,1-3.04-3.039V58.189a3.043,3.043,0,0,1,3.04-3.039h.7a13.316,13.316,0,0,1,.859-2.07l-.5-.5a3.04,3.04,0,0,1,0-4.3L756.8,46.82a3.039,3.039,0,0,1,4.3,0l.5.5a13.317,13.317,0,0,1,2.07-.859v-.7a3.043,3.043,0,0,1,3.039-3.04h2.072a3.043,3.043,0,0,1,3.039,3.04v.7a13.314,13.314,0,0,1,2.07.859l.5-.5a3.039,3.039,0,0,1,4.3,0l1.464,1.464a3.039,3.039,0,0,1,0,4.3l-.5.5a13.31,13.31,0,0,1,.859,2.07h.7a3.043,3.043,0,0,1,3.04,3.039v2.072a3.043,3.043,0,0,1-3.04,3.039h-.7a13.31,13.31,0,0,1-.859,2.07l.5.5a3.04,3.04,0,0,1,0,4.3l-1.465,1.465a3.039,3.039,0,0,1-4.3,0l-.5-.5a13.347,13.347,0,0,1-2.07.859v.7a3.043,3.043,0,0,1-3.039,3.039ZM761.919,69.1a11.41,11.41,0,0,0,2.955,1.227.968.968,0,0,1,.726.937v1.428a1.106,1.106,0,0,0,1.1,1.105h2.072a1.106,1.106,0,0,0,1.1-1.105V71.266a.968.968,0,0,1,.726-.937,11.417,11.417,0,0,0,2.956-1.227.967.967,0,0,1,1.176.148l1.012,1.012a1.1,1.1,0,0,0,1.562,0l1.466-1.466a1.1,1.1,0,0,0,0-1.562l-1.012-1.012a.968.968,0,0,1-.149-1.177,11.4,11.4,0,0,0,1.227-2.955.967.967,0,0,1,.936-.726h1.428a1.106,1.106,0,0,0,1.105-1.1V58.189a1.106,1.106,0,0,0-1.105-1.1h-1.428a.967.967,0,0,1-.936-.726,11.4,11.4,0,0,0-1.227-2.956.967.967,0,0,1,.149-1.176l1.012-1.012a1.1,1.1,0,0,0,0-1.562l-1.465-1.465a1.1,1.1,0,0,0-1.562,0L774.739,49.2a.967.967,0,0,1-1.176.149,11.406,11.406,0,0,0-2.956-1.227.967.967,0,0,1-.726-.937V45.757a1.106,1.106,0,0,0-1.1-1.105H766.7a1.106,1.106,0,0,0-1.1,1.105v1.428a.968.968,0,0,1-.726.937,11.416,11.416,0,0,0-2.955,1.227.968.968,0,0,1-1.177-.148l-1.012-1.012a1.1,1.1,0,0,0-1.562,0L756.7,49.653a1.1,1.1,0,0,0,0,1.562l1.012,1.012a.968.968,0,0,1,.148,1.177,11.413,11.413,0,0,0-1.227,2.955.968.968,0,0,1-.937.726h-1.428a1.107,1.107,0,0,0-1.105,1.1v2.072a1.106,1.106,0,0,0,1.105,1.1H755.7a.968.968,0,0,1,.937.726,11.413,11.413,0,0,0,1.227,2.955.968.968,0,0,1-.148,1.177L756.7,67.236a1.1,1.1,0,0,0,0,1.562l1.465,1.465a1.1,1.1,0,0,0,1.562,0l1.012-1.012a.972.972,0,0,1,1.177-.148Zm0,0" fill="#f59a00"/>
    <path id="Tracé_25585" data-name="Tracé 25585" d="M866.865,165.534a7.184,7.184,0,1,1,7.184-7.184,7.192,7.192,0,0,1-7.184,7.184Zm0-12.433a5.249,5.249,0,1,0,5.249,5.249,5.255,5.255,0,0,0-5.249-5.249Zm0,0" transform="translate(-99.124 -99.124)" fill="#f59a00"/>
  </g>
</svg>
