<svg xmlns="http://www.w3.org/2000/svg" width="31.256" height="28.472" viewBox="0 0 31.256 28.472">
  <g id="communication" transform="translate(-3308.695 -174.705)">
    <path id="Tracé_25596" data-name="Tracé 25596" d="M3332.609,181.417a2.593,2.593,0,0,1-1.193,1.945c-.19.16-.545.452-.544.561a.763.763,0,0,1-.769.77h-.007a.765.765,0,0,1-.774-.757,2.318,2.318,0,0,1,1.1-1.755c.386-.324.64-.552.64-.761a.767.767,0,0,0-1.534,0,.775.775,0,0,1-1.55,0,2.317,2.317,0,0,1,4.633,0Zm-2.491,3.992a.76.76,0,0,0-.758.775v.006a.758.758,0,0,0,.758.772.777.777,0,0,0,0-1.553Zm-15.62,5.4a.775.775,0,1,0,0,1.55h.064a.775.775,0,1,0,0-1.55Zm2.694,0a.775.775,0,1,0,0,1.55h.064a.775.775,0,1,0,0-1.55Zm22.76-12.378v8.722a3.725,3.725,0,0,1-3.721,3.741h-10.05c-.2,0-.358,0-.493,0s-.3,0-.364,0c-.065.043-.224.188-.377.33l-.2.185L3321.9,194a.793.793,0,0,1-1.322-.572V185.21h-8.118a2.221,2.221,0,0,0-2.215,2.2v8.722a2.187,2.187,0,0,0,2.215,2.163h11.226a.779.779,0,0,1,.517.219l2.317,2.136v-7.365a.775.775,0,1,1,1.55,0v9.122a.764.764,0,0,1-.457.7.74.74,0,0,1-.307.062.784.784,0,0,1-.523-.211l-3.4-3.118H3312.46a3.738,3.738,0,0,1-3.765-3.712v-8.722a3.772,3.772,0,0,1,3.765-3.753h8.118v-5.231a3.759,3.759,0,0,1,3.778-3.724h11.875a3.711,3.711,0,0,1,3.721,3.724Zm-1.55,0a2.159,2.159,0,0,0-2.171-2.174h-11.875a2.207,2.207,0,0,0-2.228,2.174v13.24l1.558-1.408c.072-.066.153-.126.212-.18a1.955,1.955,0,0,1,1.822-.741c.126,0,.277,0,.461,0h10.05a2.174,2.174,0,0,0,2.171-2.191Zm0,0" transform="translate(0 0)" fill="#f59a00"/>
  </g>
</svg>
