<svg xmlns="http://www.w3.org/2000/svg" width="29.934" height="20.462" viewBox="0 0 29.934 20.462">
  <g id="email" transform="translate(-1923.744 31.033)">
    <path id="Tracé_25588" data-name="Tracé 25588" d="M1999.779,48.713a.877.877,0,0,0,1.236-.1l5.062-5.951,3.5,2a.877.877,0,0,0,.869,0l3.5-2L2019,48.613a.877.877,0,1,0,1.336-1.136l-4.847-5.7,4.305-2.456a.877.877,0,0,0-.869-1.523l-8.92,5.089-8.92-5.089a.877.877,0,1,0-.869,1.523l4.305,2.456-4.847,5.7A.877.877,0,0,0,1999.779,48.713Z" transform="translate(-71.299 -64.698)" fill="#f59a00"/>
    <path id="Tracé_25589" data-name="Tracé 25589" d="M1951.047-31.033h-24.672a2.634,2.634,0,0,0-2.631,2.631v15.2a2.634,2.634,0,0,0,2.631,2.631h24.672a2.634,2.634,0,0,0,2.631-2.631V-28.4A2.634,2.634,0,0,0,1951.047-31.033Zm.877,17.831a.878.878,0,0,1-.877.877h-24.672a.878.878,0,0,1-.877-.877V-28.4a.878.878,0,0,1,.877-.877h24.672a.878.878,0,0,1,.877.877Z" transform="translate(0 0)" fill="#f59a00"/>
  </g>
</svg>
