<svg xmlns="http://www.w3.org/2000/svg" width="26.316" height="28.197" viewBox="0 0 26.316 28.197">
  <g id="liste" transform="translate(-301.7 121.8)">
    <path id="Tracé_25578" data-name="Tracé 25578" d="M435.51,40H420.521a.821.821,0,1,0,0,1.642H435.51a.821.821,0,1,0,0-1.642Z" transform="translate(-108.314 -148.518)" fill="#f59a00"/>
    <path id="Tracé_25579" data-name="Tracé 25579" d="M305.517,3.5a3.817,3.817,0,1,0,3.817,3.817A3.815,3.815,0,0,0,305.517,3.5Zm0,5.992a2.175,2.175,0,1,1,2.175-2.175A2.174,2.174,0,0,1,305.517,9.492Z" transform="translate(0 -115.015)" fill="#f59a00"/>
    <path id="Tracé_25580" data-name="Tracé 25580" d="M435.51-85H420.521a.823.823,0,0,0-.821.821.823.823,0,0,0,.821.821H435.51a.823.823,0,0,0,.821-.821A.818.818,0,0,0,435.51-85Z" transform="translate(-108.314 -33.779)" fill="#f59a00"/>
    <path id="Tracé_25581" data-name="Tracé 25581" d="M305.517-121.8a3.815,3.815,0,0,0-3.817,3.817,3.815,3.815,0,0,0,3.817,3.817,3.815,3.815,0,0,0,3.817-3.817h0A3.826,3.826,0,0,0,305.517-121.8Zm0,6a2.174,2.174,0,0,1-2.175-2.175,2.179,2.179,0,0,1,2.175-2.175,2.174,2.174,0,0,1,2.175,2.175h0A2.179,2.179,0,0,1,305.517-115.8Z" fill="#f59a00"/>
    <path id="Tracé_25582" data-name="Tracé 25582" d="M435.51,165H420.521a.821.821,0,0,0,0,1.642H435.51a.821.821,0,1,0,0-1.642Z" transform="translate(-108.314 -263.258)" fill="#f59a00"/>
    <path id="Tracé_25583" data-name="Tracé 25583" d="M305.517,128.7a3.817,3.817,0,1,0,3.817,3.817h0A3.82,3.82,0,0,0,305.517,128.7Zm0,6a2.175,2.175,0,1,1,2.175-2.175h0a2.179,2.179,0,0,1-2.175,2.175Z" transform="translate(0 -229.937)" fill="#f59a00"/>
  </g>
</svg>
