<svg xmlns="http://www.w3.org/2000/svg" width="32.329" height="20.606" viewBox="0 0 32.329 20.606">
  <g id="visite" transform="translate(-1342.747 19.198)">
    <path id="Tracé_25586" data-name="Tracé 25586" d="M1358.912,1.408c-8.789,0-15.671-9.279-15.959-9.674a1.066,1.066,0,0,1,0-1.258c.288-.395,7.17-9.674,15.959-9.674s15.671,9.279,15.959,9.674a1.066,1.066,0,0,1,0,1.258C1374.582-7.871,1367.7,1.408,1358.912,1.408ZM1345.17-8.9c1.66,2.013,7.267,8.172,13.741,8.172S1371-6.879,1372.653-8.894c-1.661-2.014-7.268-8.172-13.741-8.172S1346.828-10.911,1345.17-8.9Z" transform="translate(0 0)" fill="#f59a00"/>
    <path id="Tracé_25587" data-name="Tracé 25587" d="M1503.864,55.482a6.395,6.395,0,1,1,6.395-6.395A6.4,6.4,0,0,1,1503.864,55.482Zm0-10.658a4.263,4.263,0,1,0,4.263,4.263A4.268,4.268,0,0,0,1503.864,44.824Z" transform="translate(-144.952 -57.982)" fill="#f59a00"/>
  </g>
</svg>
