<svg xmlns="http://www.w3.org/2000/svg" width="963.495" height="739.926" viewBox="0 0 963.495 739.926">
  <path id="shape_appli" data-name="shape appli" d="M577.426,14.254c-150.542,70.5-95.637,248.85-306.1,219.335C22.929,198.753-.122,321.326,0,368.706c-.123,47.38,22.929,169.953,271.328,135.117,210.46-29.515,155.556,148.84,306.1,219.335,63.5,29.736,120.333,7.188,174.665-15.357,71.32-29.6,138.324-59.194,210.4,29.462V.151C890.414,88.807,823.411,59.21,752.09,29.614,716.412,14.807,679.648,0,640.632,0A146.566,146.566,0,0,0,577.426,14.254Z" transform="translate(962.995 738.67) rotate(180)" fill="#1f1f1f" stroke="rgba(0,0,0,0)" stroke-miterlimit="10" stroke-width="1"/>
</svg>
