<svg xmlns="http://www.w3.org/2000/svg" width="78.988" height="80.289" viewBox="0 0 78.988 80.289">
  <g id="internationale" transform="translate(-909.746 -1790.96)">
    <path id="Tracé_30941" data-name="Tracé 30941" d="M670.4,78.956A39.639,39.639,0,0,1,637.98,62.125a1.337,1.337,0,0,1,2.182-1.547,36.929,36.929,0,0,0,41.161,14.035,36.807,36.807,0,0,0,6.068-67.741,36.808,36.808,0,0,0-52.553,42.38,1.333,1.333,0,0,1-.892,1.621h0a1.341,1.341,0,0,1-1.692-.931,39.484,39.484,0,1,1,49.868,27.221A39.1,39.1,0,0,1,670.4,78.956" transform="translate(278.906 1790.96)" fill="#333"/>
    <path id="Tracé_30942" data-name="Tracé 30942" d="M737.618,87.7l-12.037-5.35a1.338,1.338,0,0,1-.4-2.168l2.675-2.675a1.336,1.336,0,0,1,1.329-.336l13.375,4.013-.768,2.563-12.61-3.784-.733.733,10.257,4.56Z" transform="translate(199.692 1725.936)" fill="#bed000"/>
    <path id="Tracé_30943" data-name="Tracé 30943" d="M736.825,89.5a1.314,1.314,0,0,1-.163-.009,1.336,1.336,0,0,1-.983-.639l-3.841-6.4-6.4-3.841a1.336,1.336,0,0,1-.257-2.092l2.675-2.675a1.337,1.337,0,0,1,1.271-.352l4.616,1.154L745.083,63.3a10.946,10.946,0,0,1,7.791-3.227h0a1.337,1.337,0,0,1,1.337,1.337,11.033,11.033,0,0,1-3.045,7.731L739.646,80.549l1.153,4.61a1.34,1.34,0,0,1-.352,1.271L737.772,89.1a1.347,1.347,0,0,1-.947.39m-8.544-12.3,5.219,3.131a1.332,1.332,0,0,1,.459.459L737.09,86l.928-.928-1.154-4.616a1.338,1.338,0,0,1,.357-1.275l12.037-11.917a8.246,8.246,0,0,0,2.173-4.4,8.274,8.274,0,0,0-4.459,2.321L735.1,77.066a1.337,1.337,0,0,1-1.27.352l-4.616-1.154Z" transform="translate(199.692 1740.308)" fill="#bed000"/>
    <path id="Tracé_30944" data-name="Tracé 30944" d="M834.25,152.17a1.359,1.359,0,0,1-.293-.032,1.338,1.338,0,0,1-.936-.776l-5.19-12.037,2.457-1.059,4.459,10.344.812-.717-3.77-12.73,2.565-.76,4.012,13.549a1.337,1.337,0,0,1-.4,1.383l-2.835,2.5a1.333,1.333,0,0,1-.884.334" transform="translate(112.806 1677.633)" fill="#bed000"/>
    <path id="Tracé_30945" data-name="Tracé 30945" d="M642.761,258.685c-3.568,0-6.445-1.015-8.482-3.051-7.161-7.159-1.274-24.975,14.3-43.58a1.338,1.338,0,1,1,2.054,1.714c-14.194,16.973-20.41,34.028-14.464,39.974,3.5,3.5,10.971,2.914,20.5-1.6l1.145,2.417c-5.794,2.746-10.892,4.125-15.052,4.125" transform="translate(278.554 1612.564)" fill="#333"/>
    <path id="Tracé_30946" data-name="Tracé 30946" d="M934.335,268.6h-6.687a1.336,1.336,0,0,1-1.338-1.338V252.548H922.3a1.336,1.336,0,0,1-1.337-1.337v-10.7a1.337,1.337,0,0,1,1.337-1.338h13.375a1.339,1.339,0,0,1,1.2.74l3.643,7.285h4.523a1.336,1.336,0,0,1,1.113,2.078l-5.125,7.688v4.945a1.332,1.332,0,0,1-.392.946l-5.35,5.35a1.337,1.337,0,0,1-.947.393m-5.35-2.675h4.8l4.566-4.566v-4.8a1.346,1.346,0,0,1,.225-.743l3.964-5.945h-2.852a1.339,1.339,0,0,1-1.2-.74l-3.643-7.285H923.634v8.025h4.013a1.336,1.336,0,0,1,1.337,1.337v14.712Z" transform="translate(34.282 1589.293)" fill="#bed000"/>
    <path id="Tracé_30947" data-name="Tracé 30947" d="M966.107,116.916h-5.35a1.337,1.337,0,0,1-1.161-.674l-4.965-8.688H948.1l-2.278,3.417a1.339,1.339,0,0,1-1.113.6h-5.35a1.337,1.337,0,0,1-1.337-1.337v-9.362a1.337,1.337,0,0,1,1.337-1.337h7.471l4.958-4.958a1.334,1.334,0,0,1,.946-.392h6.687v2.675h-6.134l-4.958,4.958a1.335,1.335,0,0,1-.946.392h-6.687v6.687h3.3l2.278-3.417a1.339,1.339,0,0,1,1.113-.6h8.025a1.337,1.337,0,0,1,1.161.674l4.965,8.688h4.574Z" transform="translate(19.897 1711.55)" fill="#333"/>
    <path id="Tracé_30948" data-name="Tracé 30948" d="M758.4,308.569a1.336,1.336,0,0,1-1.337-1.337V293.856h-5.35a1.337,1.337,0,0,1-1.338-1.337v-9.362a1.337,1.337,0,0,1,1.338-1.338H758.4a1.334,1.334,0,0,1,.946.392l3.621,3.621h7.471a1.337,1.337,0,0,1,1.337,1.337v6.687a1.339,1.339,0,0,1-.5,1.045l-6.186,4.947v3.37a1.339,1.339,0,0,1-.535,1.07l-5.35,4.012a1.333,1.333,0,0,1-.8.268m-5.35-17.387h5.35a1.337,1.337,0,0,1,1.338,1.337v12.037l2.675-2.006v-3.344a1.339,1.339,0,0,1,.5-1.045l6.186-4.947v-4.708h-6.687a1.334,1.334,0,0,1-.946-.392l-3.62-3.621h-4.8Z" transform="translate(178.113 1553.334)" fill="#333"/>
    <path id="Tracé_30949" data-name="Tracé 30949" d="M644.852,155.55H639.5v-2.675h4.012v-4.012a1.334,1.334,0,0,1,.392-.946l3.274-3.274-3.086-5.143h-.581v-2.675h1.338a1.336,1.336,0,0,1,1.146.649l4.012,6.687a1.339,1.339,0,0,1-.2,1.634l-3.621,3.621v4.8a1.338,1.338,0,0,1-1.337,1.337" transform="translate(271.603 1675.591)" fill="#333"/>
    <path id="Tracé_30950" data-name="Tracé 30950" d="M797.836,16.914a1.342,1.342,0,0,1-.6-.141l-8.025-4.012,1.2-2.393,7.331,3.666,3.366-2.244a1.362,1.362,0,0,1,.417-.185l4.338-1.085V8.889h2.675v2.675a1.338,1.338,0,0,1-1.014,1.3L802.4,14.143l-3.82,2.547a1.338,1.338,0,0,1-.741.225" transform="translate(145.369 1783.465)" fill="#333"/>
  </g>
</svg>
