<svg xmlns="http://www.w3.org/2000/svg" width="80.438" height="80.125" viewBox="0 0 80.438 80.125">
  <g id="technologique" transform="translate(-786 -1811.041)">
    <path id="Tracé_30931" data-name="Tracé 30931" d="M79.289,123.4l-5.192-.741a1.335,1.335,0,0,1-1.132-1.518,1.4,1.4,0,0,1,.56-.9l4.156-3.117a1.335,1.335,0,0,0,.267-1.869l-5.339-7.118a.742.742,0,0,0-1.335.445l-4.195,3.147a1.335,1.335,0,0,1-2.128-1.256l.742-5.192a1.335,1.335,0,0,0-1.132-1.511h0l-7.923-1.132a1.335,1.335,0,0,0-1.511,1.131h0l-.742,5.192a1.335,1.335,0,0,1-2.389.613l-3.146-4.2a1.334,1.334,0,0,0-1.868-.267l-4.011,3.01a25.824,25.824,0,0,0-5.459,0,25.359,25.359,0,0,0-22.36,22.739c-.036.378-.049.753-.068,1.128h-.4a1.335,1.335,0,0,0-1.306,1.068l-.922,4.386-3.694-2.548a1.335,1.335,0,0,0-1.7.155l-4,4a1.334,1.334,0,0,0-.155,1.7l2.536,3.688-4.387.922A1.335,1.335,0,0,0,0,146.669v5.339a1.335,1.335,0,0,0,1.06,1.307l4.387.922-2.536,3.688a1.335,1.335,0,0,0,.155,1.7l4,4a1.334,1.334,0,0,0,1.7.155l3.688-2.543.922,4.387a1.335,1.335,0,0,0,1.305,1.068h5.339a1.335,1.335,0,0,0,1.307-1.06l.922-4.387,3.688,2.536a1.335,1.335,0,0,0,1.7-.155l2.073-2.079v3.8a5.321,5.321,0,0,0,2.669,4.6v7.416a5.339,5.339,0,0,0,5.339,5.339h5.339a5.339,5.339,0,0,0,5.339-5.339v-7.416a5.322,5.322,0,0,0,2.669-4.6v-5.283a6.54,6.54,0,0,1,3.087-5.448q1.07-.694,2.067-1.492a1.335,1.335,0,0,0,.159-1.933h0a1.333,1.333,0,0,0-1.827-.15,22.735,22.735,0,0,1-1.85,1.335,9.193,9.193,0,0,0-4.306,7.689v5.283a2.669,2.669,0,0,1-2.669,2.669H35.055a2.669,2.669,0,0,1-2.669-2.669v-5.394a8.98,8.98,0,0,0-4.234-7.533,22.622,22.622,0,0,1,11.955-41.776,1.494,1.494,0,0,0-.052.145,1.335,1.335,0,0,0,.255.989l3.146,4.195a1.307,1.307,0,0,1,.08,1.482,1.327,1.327,0,0,1-1.335.642l-5.192-.742a1.335,1.335,0,0,0-1.511,1.132v0l-1.133,7.927a1.335,1.335,0,0,0,1.132,1.511h0l5.192.742a1.335,1.335,0,0,1,1.132,1.518,1.4,1.4,0,0,1-.56.9l-4.155,3.116a1.334,1.334,0,0,0-.267,1.869l4.8,6.407a1.335,1.335,0,0,0,1.869.267l4.2-3.146a1.335,1.335,0,0,1,2.121,1.256l-.741,5.192a1.335,1.335,0,0,0,1.131,1.511h0L58.15,148.7a1.478,1.478,0,0,0,.188.012,1.335,1.335,0,0,0,1.323-1.145l.741-5.192a1.335,1.335,0,0,1,1.518-1.132,1.4,1.4,0,0,1,.9.559l3.117,4.155a1.335,1.335,0,0,0,1.869.267l6.407-4.8a1.335,1.335,0,0,0,.267-1.869l-3.146-4.195a1.312,1.312,0,0,1-.08-1.482,1.3,1.3,0,0,1,1.335-.641l5.192.741a1.335,1.335,0,0,0,1.511-1.131h0l1.132-7.928a1.335,1.335,0,0,0-1.131-1.511h0ZM17.4,144a25.268,25.268,0,0,0,4.954,7.135A5.331,5.331,0,1,1,17.351,144Zm25.661,36.037H37.724a2.669,2.669,0,0,1-2.669-2.669v-1.335H45.732v1.335a2.669,2.669,0,0,1-2.669,2.669m2.669-6.674H35.055v-2.669H45.732ZM29.4,158.093l-2.863,2.857-2.772-1.911a2.67,2.67,0,0,0-4.127,1.649l-.7,3.333H15.765l-.7-3.327a2.669,2.669,0,0,0-4.127-1.648l-2.774,1.906-2.432-2.426,1.91-2.771A2.669,2.669,0,0,0,6,151.625l-3.327-.7v-3.171l3.327-.7a2.669,2.669,0,0,0,1.648-4.12l-1.911-2.779,2.432-2.426,2.775,1.911a2.67,2.67,0,0,0,4.126-1.65l.233-1.11a25.421,25.421,0,0,0,1.059,4.526,8.008,8.008,0,1,0,8.071,11.612,25.281,25.281,0,0,0,2.281,1.662,6.514,6.514,0,0,1,2.69,3.416m47.431-26.954-3.871-.553a4,4,0,0,0-3.769,6.367l2.345,3.127-4.271,3.2-2.346-3.126a4,4,0,0,0-7.167,1.835l-.541,3.876-5.284-.755.553-3.871a4,4,0,0,0-6.367-3.771l-3.127,2.345-3.2-4.271,3.126-2.346a4,4,0,0,0-1.835-7.167L37.2,125.48l.755-5.284,3.871.553a4,4,0,0,0,3.771-6.367l-2.353-3.13,4.271-3.2,2.346,3.127a4,4,0,0,0,7.167-1.835l.553-3.871,5.284.754-.553,3.871a4,4,0,0,0,6.367,3.769l3.127-2.345,3.2,4.271-3.127,2.346A4,4,0,0,0,73.72,125.3l3.871.553Z" transform="translate(786 1708.46)" fill="#333"/>
    <path id="Tracé_30932" data-name="Tracé 30932" d="M290.678,176.738a10.678,10.678,0,1,0,10.678,10.678,10.678,10.678,0,0,0-10.678-10.678m0,18.686a8.008,8.008,0,1,1,8.008-8.008,8.008,8.008,0,0,1-8.008,8.008" transform="translate(552.715 1646.71)" fill="#bed000"/>
    <path id="Tracé_30933" data-name="Tracé 30933" d="M235.446,454.626h0a1.334,1.334,0,0,1,1.334,1.334V457.3a1.334,1.334,0,0,1-1.334,1.334h0a1.334,1.334,0,0,1-1.334-1.334V455.96a1.334,1.334,0,0,1,1.334-1.334" transform="translate(590.947 1415.185)" fill="#333"/>
    <path id="Tracé_30934" data-name="Tracé 30934" d="M142.9,225.307a16.016,16.016,0,0,1-3.734-27.768,1.34,1.34,0,0,0,.344-1.791l0,0a1.329,1.329,0,0,0-1.909-.369,18.687,18.687,0,0,0,4.332,32.416,8.522,8.522,0,0,1,5.393,6.794,1.327,1.327,0,0,0,1.308,1.161h.034a1.32,1.32,0,0,0,1.307-1.5,11.169,11.169,0,0,0-7.073-8.94" transform="translate(677.651 1631.396)" fill="#333"/>
    <path id="Tracé_30935" data-name="Tracé 30935" d="M395.446,398.626h6.675a1.334,1.334,0,0,1,1.334,1.334h0a1.334,1.334,0,0,1-1.334,1.334h-6.675a1.334,1.334,0,0,1-1.334-1.334h0a1.334,1.334,0,0,1,1.334-1.334" transform="translate(457.641 1461.842)" fill="#bed000"/>
    <path id="Tracé_30936" data-name="Tracé 30936" d="M384.566,444.233h0a1.334,1.334,0,0,1,1.879-.171l5.959,4.965a1.334,1.334,0,0,1,.171,1.879h0a1.334,1.334,0,0,1-1.879.171l-5.959-4.965a1.334,1.334,0,0,1-.171-1.879" transform="translate(465.852 1424.245)" fill="#bed000"/>
    <path id="Tracé_30937" data-name="Tracé 30937" d="M347.446,462.626h0a1.334,1.334,0,0,1,1.334,1.334v6.675a1.334,1.334,0,0,1-1.334,1.334h0a1.334,1.334,0,0,1-1.334-1.334V463.96a1.334,1.334,0,0,1,1.334-1.334" transform="translate(497.633 1408.519)" fill="#333"/>
    <path id="Tracé_30938" data-name="Tracé 30938" d="M10.882,226.626l8.089-2.022a1.334,1.334,0,0,1,.647,2.588l-8.089,2.022a1.334,1.334,0,0,1-.647-2.589" transform="translate(777.776 1606.864)" fill="#bed000"/>
    <path id="Tracé_30939" data-name="Tracé 30939" d="M24.868,147.842h0a1.334,1.334,0,0,1,1.861-.31l7.172,5.123a1.334,1.334,0,1,1-1.551,2.171L25.178,149.7a1.334,1.334,0,0,1-.31-1.861" transform="translate(765.488 1671.251)" fill="#bed000"/>
    <path id="Tracé_30940" data-name="Tracé 30940" d="M92.741,102.41h0a1.334,1.334,0,0,1,1.623.962l2.069,8.092a1.334,1.334,0,0,1-.962,1.623h0a1.334,1.334,0,0,1-1.623-.962l-2.069-8.092a1.334,1.334,0,0,1,.962-1.623" transform="translate(709.568 1708.673)" fill="#333"/>
  </g>
</svg>
