<svg xmlns="http://www.w3.org/2000/svg" width="79.887" height="80.556" viewBox="0 0 79.887 80.556">
  <g id="vraies_gens" data-name="vraies gens" transform="translate(-1060.264 -1835.19)">
    <path id="Tracé_30951" data-name="Tracé 30951" d="M1472.681,402.48a7.514,7.514,0,0,0,.856-3.489v-3a7.58,7.58,0,0,0-4.985-7.112,12.013,12.013,0,0,0-5.163-7.856,7.516,7.516,0,0,0,.855-3.488v-3a7.565,7.565,0,1,0-15.13,0v3a7.521,7.521,0,0,0,.856,3.488,12.113,12.113,0,0,0-2.587,2.332,12.1,12.1,0,0,0-2.579-2.33,7.519,7.519,0,0,0,.857-3.491v-3a7.565,7.565,0,1,0-15.13,0v3a7.514,7.514,0,0,0,.858,3.491,12.072,12.072,0,0,0-2.592,2.346,12.2,12.2,0,0,0-2.577-2.344,7.516,7.516,0,0,0,.857-3.493v-3a7.565,7.565,0,1,0-15.13,0v3a7.522,7.522,0,0,0,.855,3.488,12.022,12.022,0,0,0-5.162,7.857,7.579,7.579,0,0,0-4.985,7.112v3a7.519,7.519,0,0,0,.856,3.489,12,12,0,0,0-5.36,10.021v3.776a1.56,1.56,0,0,0,1.56,1.56h76.766a1.56,1.56,0,0,0,1.561-1.56V412.5a12,12,0,0,0-5.36-10.021m-2.264-6.491v3a4.444,4.444,0,0,1-8.889,0v-3a4.444,4.444,0,1,1,8.889,0m-5.175-7.529a7.575,7.575,0,0,0-6.834,7.529v3a7.519,7.519,0,0,0,.857,3.492,12.1,12.1,0,0,0-2.576,2.327,12.133,12.133,0,0,0-2.592-2.33,7.511,7.511,0,0,0,.856-3.489v-3a7.575,7.575,0,0,0-6.834-7.529,9.109,9.109,0,0,1,3.852-5.013,7.541,7.541,0,0,0,9.418,0,9.1,9.1,0,0,1,3.852,5.013m-22.3,10.532v-3a4.444,4.444,0,1,1,8.889,0v3a4.444,4.444,0,0,1-8.889,0m9.292-24.461a4.444,4.444,0,1,1,8.888,0v3a4.444,4.444,0,0,1-8.888,0Zm-18.584,0a4.445,4.445,0,0,1,8.889,0v3a4.445,4.445,0,0,1-8.889,0Zm-.264,8.917a7.539,7.539,0,0,0,9.417,0,9,9,0,0,1,2.813,2.77,11.988,11.988,0,0,0-.81,2.661,7.577,7.577,0,0,0-4.985,7.112v3a7.521,7.521,0,0,0,.856,3.489,12.117,12.117,0,0,0-2.59,2.328,12.089,12.089,0,0,0-2.576-2.327,7.512,7.512,0,0,0,.857-3.491v-3a7.578,7.578,0,0,0-4.987-7.112,11.923,11.923,0,0,0-.817-2.645,8.986,8.986,0,0,1,2.822-2.785m-9.027,15.545v-3a4.444,4.444,0,1,1,8.888,0v3a4.444,4.444,0,0,1-8.888,0m-9.292-24.461a4.444,4.444,0,0,1,8.889,0v3a4.444,4.444,0,0,1-8.889,0Zm-.264,8.917a7.54,7.54,0,0,0,9.418,0,9.1,9.1,0,0,1,3.853,5.013,7.576,7.576,0,0,0-6.835,7.529v3a7.517,7.517,0,0,0,.856,3.489,12.116,12.116,0,0,0-2.589,2.328,12.044,12.044,0,0,0-2.578-2.326,7.51,7.51,0,0,0,.857-3.491v-3a7.575,7.575,0,0,0-6.834-7.529,9.108,9.108,0,0,1,3.852-5.013m-9.027,12.543a4.444,4.444,0,1,1,8.888,0v3a4.444,4.444,0,0,1-8.888,0Zm-4.5,16.513a8.9,8.9,0,0,1,4.238-7.6,7.544,7.544,0,0,0,9.419,0,8.981,8.981,0,0,1,2.81,2.765,12.059,12.059,0,0,0-1,4.831v2.216h-15.463Zm18.583,0a8.9,8.9,0,0,1,4.238-7.6,7.543,7.543,0,0,0,9.418,0,9,9,0,0,1,2.811,2.766,12.039,12.039,0,0,0-1,4.83v2.216h-15.462Zm18.583,0a8.9,8.9,0,0,1,4.238-7.6,7.544,7.544,0,0,0,9.42,0,8.9,8.9,0,0,1,4.238,7.6v2.216h-17.9Zm36.48,2.216h-15.463V412.5a12.062,12.062,0,0,0-1-4.83,9.005,9.005,0,0,1,2.81-2.766,7.544,7.544,0,0,0,9.419,0,8.9,8.9,0,0,1,4.237,7.6v2.217Z" transform="translate(-337.89 1497.907)" fill="#333"/>
    <path id="Tracé_30952" data-name="Tracé 30952" d="M1518.244,238.74a1.56,1.56,0,0,0,.937-2c-.981-2.716-.627-4.866,1.083-6.571a5.429,5.429,0,0,1,7.652,0,4.1,4.1,0,0,0,5.854,0,5.43,5.43,0,0,1,7.653,0,5.491,5.491,0,0,1,1.349,5.735c-1.563,5.843-8.815,11.812-11.926,12.988a15.668,15.668,0,0,1-3.429-2.056,1.56,1.56,0,0,0-1.875,2.495,15.955,15.955,0,0,0,4.9,2.708,1.572,1.572,0,0,0,.805,0c2.077-.555,5.238-2.681,8.055-5.416,1.934-1.877,5.349-5.663,6.485-9.913a8.6,8.6,0,0,0-14.219-8.752.993.993,0,0,1-1.447,0,8.555,8.555,0,0,0-12.058,0c-2.583,2.575-3.211,5.978-1.816,9.841a1.561,1.561,0,0,0,2,.938" transform="translate(-430.636 1609.714)" fill="#f91b58"/>
    <path id="Tracé_30953" data-name="Tracé 30953" d="M1537.549,302.831a1.56,1.56,0,1,0,1.561,1.56,1.56,1.56,0,0,0-1.561-1.56Z" transform="translate(-446.809 1548.586)" fill="#f91b58"/>
  </g>
</svg>
