<svg xmlns="http://www.w3.org/2000/svg" viewBox="0 0 35.9 26.1"><defs><style>.cls-1{fill:#1f1f1f;}</style></defs><g id="Calque_2" data-name="Calque 2"><g id="Calque_1-2" data-name="Calque 1"><path class="cls-1" d="M34.68,0H1.22A1.21,1.21,0,0,0,0,1.22V24.88A1.22,1.22,0,0,0,1.22,26.1H34.68a1.22,1.22,0,0,0,1.22-1.22V1.22A1.22,1.22,0,0,0,34.68,0ZM33.47,23.66h-31V2.44h31Z"/><path class="cls-1" d="M5.62,8.17h0l11.69,7.2a1.23,1.23,0,0,0,1.28,0l11.68-7.2a1.22,1.22,0,0,0,.4-1.68A1.21,1.21,0,0,0,29,6.1L18,12.9,6.9,6.1A1.22,1.22,0,1,0,5.62,8.17Z"/></g></g></svg>