<svg xmlns="http://www.w3.org/2000/svg" viewBox="0 0 35 35"><defs><style>.cls-1{fill:#494b52;}</style></defs><g id="Calque_2" data-name="Calque 2"><g id="Calque_1-2" data-name="Calque 1"><path class="cls-1" d="M24.57,0H10.43A10.44,10.44,0,0,0,0,10.43V24.57A10.44,10.44,0,0,0,10.43,35H24.57A10.44,10.44,0,0,0,35,24.57V10.43A10.44,10.44,0,0,0,24.57,0Zm0,31.48H19.23l0-10.47H23.1a.68.68,0,0,0,.68-.6l.43-3.6a.69.69,0,0,0-.6-.76H19.23V13c0-1.37.38-2.3,2.33-2.3h1.81a.68.68,0,0,0,.69-.68V7a.68.68,0,0,0-.69-.68H20.42c-3.6,0-6.06,2.19-6.06,6.22v3.48H11.47a.67.67,0,0,0-.68.68h0v3.6a.68.68,0,0,0,.68.68h2.9V31.48H10.43a6.9,6.9,0,0,1-6.91-6.9V10.43a6.91,6.91,0,0,1,6.91-6.91H24.57a6.91,6.91,0,0,1,6.91,6.91V24.57A6.91,6.91,0,0,1,24.57,31.48Z"/></g></g></svg>