<svg xmlns="http://www.w3.org/2000/svg" viewBox="0 0 35 35"><defs><style>.cls-1{fill:#494b52;}</style></defs><g id="Calque_2" data-name="Calque 2"><g id="Calque_1-2" data-name="Calque 1"><path class="cls-1" d="M24.57,0H10.43A10.44,10.44,0,0,0,0,10.43V24.57A10.44,10.44,0,0,0,10.43,35H24.57A10.44,10.44,0,0,0,35,24.57V10.43A10.44,10.44,0,0,0,24.57,0Zm6.91,24.57h0a6.91,6.91,0,0,1-6.91,6.91H10.43a6.91,6.91,0,0,1-6.91-6.91h0V10.43a6.91,6.91,0,0,1,6.91-6.91H24.57a6.91,6.91,0,0,1,6.91,6.91Z"/><path class="cls-1" d="M17.5,7.93a9.57,9.57,0,1,0,9.57,9.57A9.59,9.59,0,0,0,17.5,7.93Zm5.85,9.57a5.85,5.85,0,0,1-5.85,5.85h0a5.85,5.85,0,0,1-5.85-5.85h0a5.85,5.85,0,0,1,5.85-5.85h0a5.85,5.85,0,0,1,5.85,5.85Z"/><path class="cls-1" d="M26.65,6.4a2,2,0,1,0,2,2A2,2,0,0,0,26.65,6.4Z"/></g></g></svg>