<svg xmlns="http://www.w3.org/2000/svg" viewBox="0 0 35 35"><defs><style>.cls-1{fill:#494b52;}</style></defs><g id="Calque_2" data-name="Calque 2"><g id="Calque_1-2" data-name="Calque 1"><path class="cls-1" d="M24.57,0H10.43A10.44,10.44,0,0,0,0,10.43V24.57A10.44,10.44,0,0,0,10.43,35H24.57A10.44,10.44,0,0,0,35,24.57V10.43A10.44,10.44,0,0,0,24.57,0Zm6.91,24.57a6.91,6.91,0,0,1-6.91,6.91H10.43a6.91,6.91,0,0,1-6.91-6.91V10.43a6.91,6.91,0,0,1,6.91-6.91H24.57a6.91,6.91,0,0,1,6.91,6.91Z"/><path class="cls-1" d="M11.18,15a1.73,1.73,0,0,0-1.72,1.73v7.5a1.73,1.73,0,1,0,3.45,0v-7.5A1.73,1.73,0,0,0,11.18,15Z"/><path class="cls-1" d="M11.17,8.88a2.23,2.23,0,1,0,2.23,2.23A2.23,2.23,0,0,0,11.17,8.88Z"/><path class="cls-1" d="M21.87,14.81a3.47,3.47,0,0,0-3.25,1.54v-.86a.51.51,0,0,0-.51-.51H15.67a.51.51,0,0,0-.51.51v9.94a.52.52,0,0,0,.51.51h2.44a.51.51,0,0,0,.51-.51h0V20.1c.06-.72.38-2.31,1.93-2.31,2,0,1.8,2.33,1.8,3v4.62a.52.52,0,0,0,.51.51h2.52a.51.51,0,0,0,.51-.51h0V20.66C25.89,18.58,25.91,14.81,21.87,14.81Z"/></g></g></svg>