<svg xmlns="http://www.w3.org/2000/svg" viewBox="0 0 35 35"><defs><style>.cls-1{fill:#494b52;}</style></defs><g id="Calque_2" data-name="Calque 2"><g id="Calque_1-2" data-name="Calque 1"><path class="cls-1" d="M24.57,0H10.43A10.44,10.44,0,0,0,0,10.43V24.57A10.44,10.44,0,0,0,10.43,35H24.57A10.44,10.44,0,0,0,35,24.57V10.43A10.44,10.44,0,0,0,24.57,0Zm6.91,24.57a6.91,6.91,0,0,1-6.91,6.91H10.43a6.91,6.91,0,0,1-6.91-6.91h0V10.43a6.9,6.9,0,0,1,6.9-6.91H24.57a6.91,6.91,0,0,1,6.91,6.91Z"/><path class="cls-1" d="M27.22,11.78a9.27,9.27,0,0,1-1.39.41A3.78,3.78,0,0,0,27,10.57c.07-.18-.15-.33-.33-.23a8.77,8.77,0,0,1-2.11.78H24.4A.64.64,0,0,1,24,11a4.56,4.56,0,0,0-2.86-1,4.92,4.92,0,0,0-1.37.19A4,4,0,0,0,17,12.93a3.78,3.78,0,0,0-.1,1.42.14.14,0,0,1,0,.11.21.21,0,0,1-.12,0h0a11.81,11.81,0,0,1-7.8-3.72.24.24,0,0,0-.34,0l0,0a3.55,3.55,0,0,0,.7,4.7,3.8,3.8,0,0,1-1-.34.23.23,0,0,0-.31.09.11.11,0,0,0,0,.08,3.87,3.87,0,0,0,2.53,3.57h-.09a4.4,4.4,0,0,1-.73-.06.21.21,0,0,0-.26.15.21.21,0,0,0,0,.11,4.24,4.24,0,0,0,3.43,2.64A8.74,8.74,0,0,1,8.3,23H7.8a.32.32,0,0,0-.32.22.3.3,0,0,0,.16.34,12.92,12.92,0,0,0,6,1.44,13.11,13.11,0,0,0,5.1-1,11.08,11.08,0,0,0,3.73-2.5,10.7,10.7,0,0,0,2.29-3.42,9.78,9.78,0,0,0,.78-3.74v-.06a.63.63,0,0,1,.27-.51,7.66,7.66,0,0,0,1.72-1.69C27.63,11.9,27.43,11.69,27.22,11.78Z"/></g></g></svg>