<svg xmlns="http://www.w3.org/2000/svg" width="1016.5" height="701.457" viewBox="0 0 1016.5 701.457">
  <g id="Groupe_16911" data-name="Groupe 16911" transform="translate(576.824 -123.1)">
    <g id="Groupe_16857" data-name="Groupe 16857" transform="translate(74.094 421.476)">
      <path id="Tracé_26267" data-name="Tracé 26267" d="M-260.968,259c2.57-9.769,14.074-15.122,23.45-12.351,4.116,2.273,6.067,7.52,5.395,12.054-1.171,6.082-5.824,11.006-5.974,17.382-.592,9.592,3.485,18.7,3.7,28.253.712,7.788-1.063,16.035-6.256,22.078-2.852,3.08-7.253,3.738-11.018,5.083,3.134,4.374,8.178.2,12.054-.727a33.532,33.532,0,0,1-9.769,23.33c-4.506,4.224-10.841,5.449-16.815,5.611,1.8-6.323,2.017-13.588-2.852-18.661,1.534-3.2,3.645-6.416,3.471-10.1-.378-4.17-2.852-7.67-5.125-11.018,3.537-4.992,6.794-11.438,4.384-17.625-1.681-4.951-6.59-7.439-11.045-9.418-4.155-1.723-7.2-5.422-11.6-6.62,2.5,9.069,14.383,8.114,18.5,15.821,3.942,9.364-4.1,20.531-14.005,20.868-16.062,1.306-29.961-17.208-24.054-32.288,2.393-8.328,11.393-13.374,19.736-12.849,8.328,1.345,15.807,6.418,24.54,5.5-.054,2.4-.108,4.789-.135,7.184,3.846-.282,4.413-4.629,3.753-7.655C-261.856,274.979-263.805,266.774-260.968,259Z" transform="translate(314.115 -242.842)" fill="#fff"/>
      <path id="Tracé_26268" data-name="Tracé 26268" d="M-309.669,275.946c.6-.768,1.222-1.534,1.829-2.3,5.53,6.539,13.306,12.446,22.306,11.852,4.71.459,9.015-1.654,13.2-3.471,3.512,4.791,4.548,11.975.309,16.656-8.61,8.328-24.633,9.121-32.556-.633C-310.059,292.1-310.719,283.6-309.669,275.946Z" transform="translate(313.86 -202.518)" fill="#fff"/>
      <path id="Tracé_26269" data-name="Tracé 26269" d="M-307.477,285.986c9.982,6.431,23.033,5.878,32.921-.486,1.009,1.387,2.045,2.786,3.1,4.185.618,6.109-.552,13.036-6.013,16.71-10.63,6.806-28.172.457-30.163-12.567A46.255,46.255,0,0,1-307.477,285.986Z" transform="translate(317.249 -185.274)" fill="#fff"/>
      <g id="Groupe_16856" data-name="Groupe 16856">
        <path id="Tracé_26270" data-name="Tracé 26270" d="M-257.1,251.458c7.319-8.3,23.128-9.754,29.853-.081,5.127,8.085-1.615,16.7-3.726,24.594-2.624,6.35.147,13.009,1.507,19.3,2.555,8.718,2.6,18.379-1.09,26.788-1.225,3.053-3.338,5.959-2.96,9.418.243,13.117-6.7,28.022-20.087,31.937-4.762,1.522-10.79-.565-14.609,3.377-11.84,10.333-33.138,2.732-36.674-12.309-.957-5.086,1.762-11.06-2.059-15.326-5.248-7.6-6.863-18.983-.714-26.542a33.784,33.784,0,0,1-2.381-21.27c2.327-7.643,9.688-13.065,17.449-14.194,10.576-2.477,19.712,6.337,30.312,4.762C-263.71,271.72-264.908,259.543-257.1,251.458Zm-1.372,9.364c-2.837,7.776-.889,15.981.336,23.852.66,3.026.093,7.373-3.753,7.655.027-2.4.081-4.789.135-7.184-8.733.916-16.212-4.158-24.54-5.5-8.343-.525-17.343,4.521-19.736,12.849-5.908,15.08,7.992,33.594,24.054,32.288,9.9-.336,17.947-11.5,14.005-20.868-4.116-7.707-16-6.752-18.5-15.821,4.4,1.2,7.442,4.9,11.6,6.62,4.455,1.978,9.364,4.467,11.045,9.418,2.41,6.188-.847,12.633-4.384,17.625,2.273,3.348,4.747,6.848,5.125,11.018.174,3.687-1.937,6.9-3.471,10.1,4.87,5.073,4.654,12.338,2.852,18.661,5.974-.162,12.309-1.387,16.815-5.611a33.532,33.532,0,0,0,9.769-23.33c-3.876.93-8.919,5.1-12.054.727,3.765-1.345,8.166-2,11.018-5.083,5.194-6.043,6.968-14.29,6.256-22.078-.216-9.553-4.293-18.661-3.7-28.253.15-6.377,4.8-11.3,5.974-17.382.672-4.533-1.279-9.781-5.395-12.054C-244.4,245.7-255.907,251.053-258.477,260.822Zm-48.956,57.272c-1.051,7.653-.39,16.158,5.086,22.1,7.923,9.754,23.946,8.961,32.556.633,4.239-4.681,3.2-11.865-.309-16.656-4.182,1.816-8.488,3.93-13.2,3.471-9,.594-16.776-5.314-22.306-11.852C-306.211,316.56-306.83,317.326-307.433,318.094Zm5.581,27.284a46.252,46.252,0,0,0-.16,7.842c1.991,13.023,19.533,19.373,30.163,12.567,5.461-3.674,6.632-10.6,6.013-16.71-1.05-1.4-2.086-2.8-3.1-4.185C-278.82,351.256-291.87,351.808-301.852,345.378Z" transform="translate(311.625 -244.665)" fill="#494b52"/>
      </g>
    </g>
    <g id="Groupe_16859" data-name="Groupe 16859" transform="translate(351.529 421.476)">
      <path id="Tracé_26271" data-name="Tracé 26271" d="M-167.932,259c-2.57-9.769-14.074-15.122-23.45-12.351-4.119,2.273-6.067,7.52-5.395,12.054,1.171,6.082,5.824,11.006,5.972,17.382.594,9.592-3.483,18.7-3.7,28.253-.712,7.788,1.063,16.035,6.256,22.078,2.852,3.08,7.25,3.738,11.018,5.083-3.134,4.374-8.181.2-12.054-.727a33.53,33.53,0,0,0,9.766,23.33c4.506,4.224,10.844,5.449,16.818,5.611-1.8-6.323-2.018-13.588,2.852-18.661-1.534-3.2-3.647-6.416-3.471-10.1.375-4.17,2.852-7.67,5.125-11.018-3.537-4.992-6.794-11.438-4.386-17.625,1.681-4.951,6.593-7.439,11.045-9.418,4.158-1.723,7.2-5.422,11.6-6.62-2.5,9.069-14.381,8.114-18.5,15.821-3.942,9.364,4.1,20.531,14.005,20.868,16.064,1.306,29.961-17.208,24.056-32.288-2.4-8.328-11.4-13.374-19.736-12.849-8.328,1.345-15.809,6.418-24.54,5.5.054,2.4.108,4.789.135,7.184-3.849-.282-4.413-4.629-3.753-7.655C-167.046,274.979-165.095,266.774-167.932,259Z" transform="translate(201.041 -242.842)" fill="#fff"/>
      <path id="Tracé_26272" data-name="Tracé 26272" d="M-141.207,275.946c-.606-.768-1.225-1.534-1.829-2.3-5.53,6.539-13.306,12.446-22.306,11.852-4.71.459-9.015-1.654-13.2-3.471-3.51,4.791-4.546,11.975-.309,16.656,8.61,8.328,24.635,9.121,32.558-.633C-140.816,292.1-140.156,283.6-141.207,275.946Z" transform="translate(223.272 -202.518)" fill="#fff"/>
      <path id="Tracé_26273" data-name="Tracé 26273" d="M-146,285.986c-9.982,6.431-23.033,5.878-32.919-.486-1.009,1.387-2.047,2.786-3.1,4.185-.619,6.109.552,13.036,6.013,16.71,10.628,6.806,28.172.457,30.163-12.567A46.258,46.258,0,0,0-146,285.986Z" transform="translate(222.483 -185.274)" fill="#fff"/>
      <g id="Groupe_16858" data-name="Groupe 16858">
        <path id="Tracé_26274" data-name="Tracé 26274" d="M-161.676,281.916c10.6,1.576,19.736-7.238,30.31-4.762,7.763,1.129,15.122,6.551,17.451,14.194a33.785,33.785,0,0,1-2.383,21.27c6.148,7.56,4.536,18.941-.712,26.542-3.822,4.266-1.1,10.24-2.059,15.326-3.537,15.041-24.834,22.642-36.674,12.309-3.822-3.942-9.847-1.856-14.611-3.377-13.384-3.915-20.328-18.821-20.085-31.937.375-3.458-1.735-6.364-2.96-9.418-3.687-8.409-3.647-18.07-1.09-26.788,1.36-6.3,4.131-12.955,1.507-19.3-2.113-7.9-8.853-16.509-3.726-24.594,6.725-9.673,22.534-8.22,29.853.081C-159.052,259.543-160.25,271.72-161.676,281.916Zm-27.257-33.444c-4.119,2.273-6.067,7.52-5.395,12.054,1.171,6.082,5.824,11.006,5.972,17.382.594,9.592-3.483,18.7-3.7,28.253-.712,7.788,1.063,16.035,6.256,22.078,2.852,3.08,7.25,3.738,11.018,5.083-3.134,4.374-8.181.2-12.054-.727a33.53,33.53,0,0,0,9.766,23.33c4.506,4.224,10.844,5.449,16.818,5.611-1.8-6.323-2.018-13.588,2.852-18.661-1.534-3.2-3.647-6.416-3.471-10.1.375-4.17,2.852-7.67,5.125-11.018-3.537-4.992-6.794-11.438-4.386-17.625,1.681-4.951,6.593-7.439,11.045-9.418,4.158-1.723,7.2-5.422,11.6-6.62-2.5,9.069-14.381,8.114-18.5,15.821-3.942,9.364,4.1,20.531,14.005,20.868,16.064,1.306,29.961-17.208,24.056-32.288-2.4-8.328-11.4-13.374-19.736-12.849-8.328,1.345-15.809,6.418-24.54,5.5.054,2.4.108,4.789.135,7.184-3.849-.282-4.413-4.629-3.753-7.655,1.222-7.871,3.174-16.077.336-23.852C-168.053,251.053-179.556,245.7-188.932,248.471Zm70.578,67.321c-5.53,6.539-13.306,12.446-22.306,11.852-4.71.459-9.015-1.654-13.2-3.471-3.51,4.791-4.546,11.975-.309,16.656,8.61,8.328,24.635,9.121,32.558-.633,5.476-5.945,6.136-14.449,5.086-22.1C-117.133,317.326-117.751,316.56-118.355,315.792Zm-36.674,29.1c-1.009,1.387-2.047,2.786-3.1,4.185-.619,6.109.552,13.036,6.013,16.71,10.628,6.806,28.172.457,30.163-12.567a46.258,46.258,0,0,0-.162-7.842C-132.092,351.808-145.143,351.256-155.029,344.892Z" transform="translate(198.591 -244.665)" fill="#494b52"/>
      </g>
    </g>
    <path id="Tracé_25672" data-name="Tracé 25672" d="M439.676,413.777c0-14.552-227.527-26.351-508.255-26.351s-508.245,11.8-508.245,26.351S-349.3,440.108-68.579,440.108,439.676,428.315,439.676,413.777Z" transform="translate(0 384.448)" fill="#000100" opacity="0.2" style="isolation: isolate"/>
    <g id="Groupe_16874" data-name="Groupe 16874" transform="translate(-441.839 665.037)">
      <path id="Tracé_26275" data-name="Tracé 26275" d="M-402.845,351.731V469.358c1.244.67,2.513,1.316,3.8,1.865a5.407,5.407,0,0,0,.67.312,65.179,65.179,0,0,0,25.111,5.6c.574.049,1.149.049,1.723.049h269.7v-5.957H-398.371V349.792h296.534v-5.883h-269.7a66.094,66.094,0,0,0-26.835,5.645,4.43,4.43,0,0,0-.5.238C-400.238,350.367-401.552,351.037-402.845,351.731Z" transform="translate(694.883 -343.882)" fill="#eaeaea"/>
      <path id="Tracé_26276" data-name="Tracé 26276" d="M-521.828,410.545a66.4,66.4,0,0,0,19.518,47.118,66.494,66.494,0,0,0,47.118,19.518H71.218v-.049h9.543v-5.908H-225.316V349.792H80.761v-5.883H-455.192A66.63,66.63,0,0,0-521.8,409.85,6.577,6.577,0,0,0-521.828,410.545Zm256.735,0a6.577,6.577,0,0,1,.025-.695,66.533,66.533,0,0,1,35.278-58.119V469.358a66.534,66.534,0,0,1-15.784-11.7A66.4,66.4,0,0,1-265.093,410.545Z" transform="translate(521.828 -343.882)" fill="#494b52"/>
      <path id="Tracé_26277" data-name="Tracé 26277" d="M-521.828,371.47a66.4,66.4,0,0,0,19.518,47.118,66.494,66.494,0,0,0,47.118,19.518H71.218v-.049h9.543v-5.908H71.218V370.775H-521.8A6.577,6.577,0,0,0-521.828,371.47Z" transform="translate(521.828 -304.807)" fill="#333"/>
      <rect id="Rectangle_3062" data-name="Rectangle 3062" width="296.535" height="121.431" transform="translate(296.511 5.911)" fill="#eaeaea"/>
      <g id="Groupe_16872" data-name="Groupe 16872" transform="translate(296.511 13.294)">
        <g id="Groupe_16860" data-name="Groupe 16860" transform="translate(0 105.239)">
          <line id="Ligne_192" data-name="Ligne 192" x1="296.525" fill="none" stroke="#989a9b" stroke-miterlimit="10" stroke-width="0.974"/>
        </g>
        <g id="Groupe_16861" data-name="Groupe 16861" transform="translate(0 95.672)">
          <line id="Ligne_193" data-name="Ligne 193" x1="296.525" fill="none" stroke="#989a9b" stroke-miterlimit="10" stroke-width="0.974"/>
        </g>
        <g id="Groupe_16862" data-name="Groupe 16862" transform="translate(0 86.105)">
          <line id="Ligne_194" data-name="Ligne 194" x1="296.525" fill="none" stroke="#989a9b" stroke-miterlimit="10" stroke-width="0.974"/>
        </g>
        <g id="Groupe_16863" data-name="Groupe 16863" transform="translate(0 76.538)">
          <line id="Ligne_195" data-name="Ligne 195" x1="296.525" fill="none" stroke="#989a9b" stroke-miterlimit="10" stroke-width="0.974"/>
        </g>
        <g id="Groupe_16864" data-name="Groupe 16864" transform="translate(0 66.97)">
          <line id="Ligne_196" data-name="Ligne 196" x1="296.525" fill="none" stroke="#989a9b" stroke-miterlimit="10" stroke-width="0.974"/>
        </g>
        <g id="Groupe_16865" data-name="Groupe 16865" transform="translate(0 57.403)">
          <line id="Ligne_197" data-name="Ligne 197" x1="296.525" fill="none" stroke="#989a9b" stroke-miterlimit="10" stroke-width="0.974"/>
        </g>
        <g id="Groupe_16866" data-name="Groupe 16866" transform="translate(0 47.836)">
          <line id="Ligne_198" data-name="Ligne 198" x1="296.525" fill="none" stroke="#989a9b" stroke-miterlimit="10" stroke-width="0.974"/>
        </g>
        <g id="Groupe_16867" data-name="Groupe 16867" transform="translate(0 38.269)">
          <line id="Ligne_199" data-name="Ligne 199" x1="296.525" fill="none" stroke="#989a9b" stroke-miterlimit="10" stroke-width="0.974"/>
        </g>
        <g id="Groupe_16868" data-name="Groupe 16868" transform="translate(0 28.702)">
          <line id="Ligne_200" data-name="Ligne 200" x1="296.525" fill="none" stroke="#989a9b" stroke-miterlimit="10" stroke-width="0.974"/>
        </g>
        <g id="Groupe_16869" data-name="Groupe 16869" transform="translate(0 19.134)">
          <line id="Ligne_201" data-name="Ligne 201" x1="296.525" fill="none" stroke="#989a9b" stroke-miterlimit="10" stroke-width="0.974"/>
        </g>
        <g id="Groupe_16870" data-name="Groupe 16870" transform="translate(0 9.567)">
          <line id="Ligne_202" data-name="Ligne 202" x1="296.525" fill="none" stroke="#989a9b" stroke-miterlimit="10" stroke-width="0.974"/>
        </g>
        <g id="Groupe_16871" data-name="Groupe 16871">
          <line id="Ligne_203" data-name="Ligne 203" x1="296.525" fill="none" stroke="#989a9b" stroke-miterlimit="10" stroke-width="0.974"/>
        </g>
      </g>
      <path id="Tracé_26278" data-name="Tracé 26278" d="M-417.228,405.91a66.4,66.4,0,0,0,19.518,47.118,66.535,66.535,0,0,0,15.784,11.7V347.1A66.586,66.586,0,0,0-417.228,405.91Z" transform="translate(673.963 -339.247)" fill="#eaeaea"/>
      <path id="Tracé_26279" data-name="Tracé 26279" d="M-448.163,343.906h18.273a66.626,66.626,0,0,0-65.774,66.611,66.4,66.4,0,0,0,19.518,47.118,66.476,66.476,0,0,0,46.4,19.5l0,.042h-18.411a66.492,66.492,0,0,1-47.118-19.515A66.412,66.412,0,0,1-514.8,410.542,66.656,66.656,0,0,1-448.163,343.906Z" transform="translate(532.051 -343.886)" fill="#f59a00"/>
      <g id="Groupe_16873" data-name="Groupe 16873" transform="translate(196.039)">
        <path id="Tracé_26280" data-name="Tracé 26280" d="M-375.321,343.9h18.273a66.624,66.624,0,0,0-65.774,66.611,66.41,66.41,0,0,0,19.515,47.118,66.481,66.481,0,0,0,46.4,19.5l0,.042h-18.411a66.492,66.492,0,0,1-47.118-19.515,66.406,66.406,0,0,1-19.518-47.118A66.655,66.655,0,0,1-375.321,343.9Z" transform="translate(441.957 -343.898)" fill="#f59a00"/>
      </g>
    </g>
    <g id="Groupe_16891" data-name="Groupe 16891" transform="translate(-337.861 563.548)">
      <path id="Tracé_26281" data-name="Tracé 26281" d="M-467.771,304.385v92.488h226.288c1.009-.452,1.966-1,2.943-1.519v.037c.2-.108.4-.233.6-.346.744-.407,1.475-.825,2.194-1.271,1.222-.746,2.42-1.527,3.571-2.376.5-.383.979-.741,1.483-1.149.479-.383.957-.788,1.436-1.2.955-.79,1.866-1.649,2.749-2.535a47.123,47.123,0,0,0,3.277-3.61c.5-.6,1-1.222,1.482-1.865a43,43,0,0,0,2.489-3.66c.309-.479.621-.982.884-1.485a2.01,2.01,0,0,0,.191-.334c.312-.525.6-1.053.861-1.578a37.2,37.2,0,0,0,1.674-3.564c.287-.646.55-1.291.79-1.961.216-.574.4-1.149.6-1.723.216-.6.407-1.2.574-1.816.025-.1.049-.169.074-.265.167-.574.334-1.171.476-1.745.169-.67.312-1.316.457-1.986.1-.55.213-1.124.309-1.7.025-.1.025-.191.049-.287v-.1c.142-.812.263-1.649.358-2.486.071-.646.142-1.291.167-1.937a6.108,6.108,0,0,0,.071-.695,4.11,4.11,0,0,0,.025-.55c.049-.837.071-1.674.071-2.535a50.018,50.018,0,0,0-.287-5.383c-.047-.6-.118-1.171-.213-1.77-.071-.525-.145-1.05-.241-1.554-.022-.1-.022-.167-.047-.241-.191-1.1-.432-2.175-.695-3.228-.287-1.2-.621-2.344-.979-3.493-.191-.525-.361-1.075-.55-1.6-.191-.55-.407-1.075-.623-1.6s-.43-1.053-.67-1.578c-.214-.525-.454-1.053-.717-1.554a47.894,47.894,0,0,0-4.592-7.677c-.55-.79-1.124-1.532-1.723-2.273-.454-.55-.908-1.077-1.362-1.6-.383-.454-.79-.884-1.2-1.316a50.675,50.675,0,0,0-4.018-3.8c-.407-.361-.839-.695-1.269-1.028a51.716,51.716,0,0,0-7.724-5.071c-.982-.528-1.964-1.028-2.992-1.483Z" transform="translate(496.473 -299.879)" fill="#eaeaea"/>
      <path id="Tracé_26282" data-name="Tracé 26282" d="M-224.929,399.54H-479.465v4.521H-78.551a50.664,50.664,0,0,0,35.877-14.876,50.635,50.635,0,0,0,14.182-27.578c.263-1.7.479-3.444.574-5.213.071-1,.1-2.057.1-3.085a50.763,50.763,0,0,0-50.729-50.755H-479.465v4.5h254.536Zm3.4-91.006a51.715,51.715,0,0,1,7.724,5.071c.43.334.862.668,1.269,1.028a50.683,50.683,0,0,1,4.018,3.8c.4.432.812.861,1.2,1.316.454.525.908,1.053,1.362,1.6.6.741,1.173,1.483,1.723,2.273a47.9,47.9,0,0,1,4.592,7.677c.263.5.5,1.028.717,1.554.24.525.454,1.053.67,1.578s.432,1.053.623,1.6c.189.528.358,1.078.55,1.6.358,1.149.692,2.3.979,3.493.263,1.053.5,2.128.695,3.228.025.074.025.145.047.241.1.5.169,1.028.241,1.554.1.6.167,1.173.213,1.77a50.023,50.023,0,0,1,.287,5.383c0,.837-.022,1.7-.071,2.535a4.11,4.11,0,0,1-.025.55,6.108,6.108,0,0,1-.071.695c-.025.645-.1,1.291-.167,1.937-.1.837-.216,1.674-.358,2.486v.1c-.025.1-.025.191-.049.287-.1.574-.213,1.149-.309,1.7-.145.67-.287,1.316-.457,1.986-.142.574-.309,1.171-.476,1.745-.025.1-.049.169-.074.265-.167.621-.358,1.22-.574,1.816-.191.574-.38,1.149-.6,1.723-.24.67-.5,1.316-.79,1.961a37.2,37.2,0,0,1-1.674,3.564c-.263.525-.55,1.053-.861,1.578a2.011,2.011,0,0,1-.191.334c-.263.5-.574,1.006-.884,1.485a43,43,0,0,1-2.489,3.66c-.479.643-.955,1.266-1.482,1.865a47.126,47.126,0,0,1-3.277,3.61c-.884.886-1.794,1.745-2.749,2.535-.479.407-.957.812-1.436,1.2-.5.407-.982.766-1.483,1.149-1.141.854-2.354,1.622-3.571,2.376q-1.079.659-2.194,1.271c-.2.108-.4.2-.6.309Z" transform="translate(479.465 -302.545)" fill="#f59a00"/>
      <path id="Tracé_26283" data-name="Tracé 26283" d="M-479.465,367.635v4.521H-78.551a50.664,50.664,0,0,0,35.877-14.876A50.635,50.635,0,0,0-28.492,329.7c.263-1.7.479-3.444.574-5.213h-166.8a6.108,6.108,0,0,1-.071.695c-.025.646-.1,1.291-.167,1.937-.1.837-.216,1.674-.358,2.486v.1c-.025.1-.025.191-.049.287-.1.574-.213,1.149-.309,1.7-.145.67-.287,1.316-.457,1.986-.142.574-.309,1.171-.476,1.745-.025.1-.049.169-.074.265-.167.621-.358,1.22-.574,1.816-.191.574-.38,1.149-.6,1.723-.24.67-.5,1.316-.79,1.961a37.2,37.2,0,0,1-1.674,3.564c-.263.525-.55,1.053-.861,1.578a2.011,2.011,0,0,1-.191.334c-.263.5-.574,1.006-.884,1.485a43.008,43.008,0,0,1-2.489,3.66c-.479.643-.955,1.266-1.482,1.865a47.126,47.126,0,0,1-3.277,3.61c-.884.886-1.794,1.745-2.749,2.535-.479.407-.957.812-1.436,1.2-.5.407-.982.766-1.483,1.149-1.149.862-2.344,1.625-3.564,2.368-.719.454-1.46.859-2.2,1.291-.191.1-.4.191-.6.287V324.488h-3.4v43.125H-450.763v.022Z" transform="translate(479.465 -270.64)" fill="#ea6f00"/>
      <g id="Groupe_16887" data-name="Groupe 16887" transform="translate(28.709 10.123)">
        <g id="Groupe_16875" data-name="Groupe 16875" transform="translate(0 80.147)">
          <line id="Ligne_204" data-name="Ligne 204" x2="225.821" fill="none" stroke="#989a9b" stroke-miterlimit="10" stroke-width="0.974"/>
        </g>
        <g id="Groupe_16876" data-name="Groupe 16876" transform="translate(0 72.86)">
          <line id="Ligne_205" data-name="Ligne 205" x2="225.821" fill="none" stroke="#989a9b" stroke-miterlimit="10" stroke-width="0.974"/>
        </g>
        <g id="Groupe_16877" data-name="Groupe 16877" transform="translate(0 65.574)">
          <line id="Ligne_206" data-name="Ligne 206" x2="225.821" fill="none" stroke="#989a9b" stroke-miterlimit="10" stroke-width="0.974"/>
        </g>
        <g id="Groupe_16878" data-name="Groupe 16878" transform="translate(0 58.288)">
          <line id="Ligne_207" data-name="Ligne 207" x2="225.821" fill="none" stroke="#989a9b" stroke-miterlimit="10" stroke-width="0.974"/>
        </g>
        <g id="Groupe_16879" data-name="Groupe 16879" transform="translate(0 51.002)">
          <line id="Ligne_208" data-name="Ligne 208" x2="225.821" fill="none" stroke="#989a9b" stroke-miterlimit="10" stroke-width="0.974"/>
        </g>
        <g id="Groupe_16880" data-name="Groupe 16880" transform="translate(0 43.716)">
          <line id="Ligne_209" data-name="Ligne 209" x2="225.821" fill="none" stroke="#989a9b" stroke-miterlimit="10" stroke-width="0.974"/>
        </g>
        <g id="Groupe_16881" data-name="Groupe 16881" transform="translate(0 36.43)">
          <line id="Ligne_210" data-name="Ligne 210" x2="225.821" fill="none" stroke="#989a9b" stroke-miterlimit="10" stroke-width="0.974"/>
        </g>
        <g id="Groupe_16882" data-name="Groupe 16882" transform="translate(0 29.144)">
          <line id="Ligne_211" data-name="Ligne 211" x2="225.821" fill="none" stroke="#989a9b" stroke-miterlimit="10" stroke-width="0.974"/>
        </g>
        <g id="Groupe_16883" data-name="Groupe 16883" transform="translate(0 21.858)">
          <line id="Ligne_212" data-name="Ligne 212" x2="225.821" fill="none" stroke="#989a9b" stroke-miterlimit="10" stroke-width="0.974"/>
        </g>
        <g id="Groupe_16884" data-name="Groupe 16884" transform="translate(0 14.572)">
          <line id="Ligne_213" data-name="Ligne 213" x2="225.821" fill="none" stroke="#989a9b" stroke-miterlimit="10" stroke-width="0.974"/>
        </g>
        <g id="Groupe_16885" data-name="Groupe 16885" transform="translate(0 7.286)">
          <line id="Ligne_214" data-name="Ligne 214" x2="225.821" fill="none" stroke="#989a9b" stroke-miterlimit="10" stroke-width="0.974"/>
        </g>
        <g id="Groupe_16886" data-name="Groupe 16886">
          <line id="Ligne_215" data-name="Ligne 215" x2="225.821" fill="none" stroke="#989a9b" stroke-miterlimit="10" stroke-width="0.974"/>
        </g>
      </g>
      <g id="Groupe_16890" data-name="Groupe 16890" transform="translate(266.278)">
        <g id="Groupe_16889" data-name="Groupe 16889">
          <g id="Groupe_16888" data-name="Groupe 16888">
            <path id="Tracé_26284" data-name="Tracé 26284" d="M-356.955,302.549h-13.917a50.741,50.741,0,0,1,50.093,50.729,50.584,50.584,0,0,1-14.864,35.884,50.632,50.632,0,0,1-35.334,14.849v.032h14.022a50.644,50.644,0,0,0,35.884-14.864,50.574,50.574,0,0,0,14.864-35.884A50.762,50.762,0,0,0-356.955,302.549Z" transform="translate(370.977 -302.549)" fill="#026299"/>
          </g>
        </g>
      </g>
    </g>
    <g id="Groupe_16893" data-name="Groupe 16893" transform="translate(-532.366 540.159)">
      <path id="Tracé_26285" data-name="Tracé 26285" d="M-405.141,419.4l81.169-36.5a8.918,8.918,0,0,0,4.062-12.6l-18.013-19.913-.191-.209-9.666-10.674L-421.8,372.786l1.573,14.314.653,5.9,2.3,21.079A8.92,8.92,0,0,0-405.141,419.4Z" transform="translate(757.844 -225.416)" fill="#93593a"/>
      <path id="Tracé_26286" data-name="Tracé 26286" d="M-416.78,373.71l-27.885-30.8a8.919,8.919,0,0,1,4.065-12.6l81.171-36.5a8.919,8.919,0,0,1,12.123,5.321l4.538,41.3Z" transform="translate(722.839 -293.02)" fill="#93593a"/>
      <rect id="Rectangle_3063" data-name="Rectangle 3063" width="103.497" height="108.752" rx="8.445" transform="translate(329.08 165.531) rotate(-114.213)" fill="#93593a"/>
      <path id="Tracé_26287" data-name="Tracé 26287" d="M-438.463,356.866l27.438,61.03a3.108,3.108,0,0,0,4.1,1.559l83.486-37.553,10.051-4.526a3.072,3.072,0,0,0,1.559-4.079l-27.463-61.03a3.07,3.07,0,0,0-4.079-1.556l-92.314,41.534-1.222.542A3.073,3.073,0,0,0-438.463,356.866Z" transform="translate(733.205 -267.693)" fill="#333"/>
      <g id="Groupe_16892" data-name="Groupe 16892" transform="translate(0 100.159)">
        <path id="Tracé_26288" data-name="Tracé 26288" d="M-556.836,491.231a21.471,21.471,0,0,0,28.319,10.736l14.587-6.553,12.282-5.515,138.011-62.068,12.284-5.515,15.88-7.167a1.231,1.231,0,0,1,.265-.093l.022-.025A172.335,172.335,0,0,1-293.2,388.3a171.566,171.566,0,0,1,31.451-10.65l5.368-1.257,14.923-3.515-8.792-19.528-8.77-19.528-6.752,4.789-10.262,7.226A172.085,172.085,0,0,1-304.89,362.3a173.046,173.046,0,0,1-47.857,13.676l-16.167,7.26v.025l-3.265,1.463-9.042,4.052L-519.21,450.818l-12.282,5.54-14.587,6.553a21.435,21.435,0,0,0-11.982,14.368A21.233,21.233,0,0,0-556.836,491.231Z" transform="translate(558.711 -333.827)" fill="#93593a"/>
        <path id="Tracé_26289" data-name="Tracé 26289" d="M-556.836,443.042a21.471,21.471,0,0,0,28.319,10.736l14.587-6.553,12.282-5.515,138.011-62.068,12.284-5.515,15.88-7.167c-1.343.518-7.265,2.8-16.3,6.256-3.719,1.409-7.938,3.009-12.589,4.8-37.646,14.221-103.079,38.545-143.058,50.839-4.744,1.451-9.13,2.739-13.06,3.812-8.507,2.361-14.925,3.728-18.371,3.777-6.625.076-13.158-2.908-19.206-7.349A21.233,21.233,0,0,0-556.836,443.042Z" transform="translate(558.711 -285.638)" fill="#7f482f"/>
        <path id="Tracé_26290" data-name="Tracé 26290" d="M-486.4,359.5l16.855,37.424.731,1.631,12.283-5.516-.425-.912-17.137-38.143v-.024l-3.263,1.485Z" transform="translate(663.887 -304.548)" fill="#333"/>
        <path id="Tracé_26291" data-name="Tracé 26291" d="M-547.621,387.032l11.008,24.493,6.553,14.562,12.283-5.516-5.775-12.859-11.786-26.221Z" transform="translate(574.84 -264.501)" fill="#333"/>
      </g>
      <path id="Tracé_26292" data-name="Tracé 26292" d="M-420.5,386.672l81.647-42.613-.192-.208-82.108,36.924Z" transform="translate(758.777 -219.09)" fill="#7f482f"/>
      <path id="Tracé_26293" data-name="Tracé 26293" d="M-440.43,338.245l86.058-32.8.028.282-82.108,36.924Z" transform="translate(730.744 -274.953)" fill="#7f482f"/>
      <path id="Tracé_26294" data-name="Tracé 26294" d="M-438.463,332.09l27.438,61.03a3.108,3.108,0,0,0,4.1,1.559l83.486-37.553c-28.265-.974-79.49-6.168-112.247-29.657l-1.222.542A3.073,3.073,0,0,0-438.463,332.09Z" transform="translate(733.205 -242.917)" fill="#1f1f1f"/>
      <path id="Tracé_26295" data-name="Tracé 26295" d="M-439.36,338.614l9.39,37.782,14.924-3.513-8.793-19.527-8.769-19.528Z" transform="translate(732.3 -233.667)" fill="#7f482f"/>
      <path id="Tracé_26296" data-name="Tracé 26296" d="M-394.362,327.638-400,315.326" transform="translate(789.544 -260.577)" fill="none" stroke="#fff" stroke-linecap="round" stroke-linejoin="round" stroke-width="1"/>
      <path id="Tracé_26297" data-name="Tracé 26297" d="M-476.193,372.011q-1.207-3.28-2.418-6.558" transform="translate(675.212 -187.67)" fill="none" stroke="#fff" stroke-linecap="round" stroke-linejoin="round" stroke-width="1"/>
      <path id="Tracé_26298" data-name="Tracé 26298" d="M-536.231,402.757a16.464,16.464,0,0,0-3.917-10.711" transform="translate(585.709 -148.992)" fill="none" stroke="#fff" stroke-linecap="round" stroke-linejoin="round" stroke-width="1"/>
      <path id="Tracé_26299" data-name="Tracé 26299" d="M-377.215,360.806l-10.684-13.05" transform="translate(807.147 -213.409)" fill="none" stroke="#fff" stroke-linecap="round" stroke-linejoin="round" stroke-width="1"/>
      <path id="Tracé_26300" data-name="Tracé 26300" d="M-407.772,312.633q-.353-8.184-.709-16.369" transform="translate(777.212 -288.302)" fill="none" stroke="#fff" stroke-linecap="round" stroke-linejoin="round" stroke-width="1"/>
    </g>
    <path id="Tracé_26301" data-name="Tracé 26301" d="M-115.234,384.611v6.17a13.592,13.592,0,0,1-13.561,13.536H-415.666a13.592,13.592,0,0,1-13.563-13.536v-6.17a13.6,13.6,0,0,1,13.563-13.563h286.871a2.8,2.8,0,0,1,.454.025A13.566,13.566,0,0,1-115.234,384.611Z" transform="translate(214.669 360.627)" fill="#494b52"/>
    <path id="Tracé_26302" data-name="Tracé 26302" d="M-33.924,398.166v6.17a13.592,13.592,0,0,1-13.561,13.536h-389a13.587,13.587,0,0,1-13.539-13.536v-6.17A13.593,13.593,0,0,1-436.485,384.6h389A13.6,13.6,0,0,1-33.924,398.166Z" transform="translate(184.424 380.342)" fill="#222"/>
    <path id="Tracé_26303" data-name="Tracé 26303" d="M-298.879,528.395a50.683,50.683,0,0,1-6.028,8.777h-59.938c-47.955-55.775,0-280.342,0-280.342h59.938S-261.281,461.138-298.879,528.395Z" transform="translate(277.314 194.503)" fill="#f8b500"/>
    <path id="Tracé_26304" data-name="Tracé 26304" d="M-342.122,528.4l-1.748-.336s21.727-100.254-12.557-271.236l8.276.007S-304.524,461.143-342.122,528.4Z" transform="translate(320.557 194.499)" fill="#ea6f00"/>
    <path id="Tracé_26305" data-name="Tracé 26305" d="M-322.945,277.941c0,44.057-5.834,82.3-14.373,101.268-3.635,8.156-7.8,12.748-12.2,12.748-14.663,0-26.574-51.065-26.574-114.016,0-62.976,11.911-114.017,26.574-114.017,6.841,0,13.06,11.075,17.77,29.277C-326.339,214.081-322.945,244.312-322.945,277.941Z" transform="translate(291.956 59.376)" fill="#f8b500"/>
    <path id="Tracé_26306" data-name="Tracé 26306" d="M-338.692,260.592c0,44.057-5.834,82.3-14.373,101.268l-12.2,12.748c34.514-87.683,11.958-195.362,11.958-195.362a9.513,9.513,0,0,1,5.812-3.394C-342.087,196.732-338.692,226.963-338.692,260.592Z" transform="translate(307.703 76.725)" fill="#ea6f00"/>
    <path id="Tracé_26307" data-name="Tracé 26307" d="M-213.317,371.056v6.17a13.592,13.592,0,0,1-13.563,13.536H-390.575a13.592,13.592,0,0,1-13.561-13.536v-6.17a13.6,13.6,0,0,1,13.561-13.563h163.694A13.6,13.6,0,0,1-213.317,371.056Z" transform="translate(251.166 340.912)" fill="#f59a00"/>
    <path id="Tracé_26308" data-name="Tracé 26308" d="M-292.205,275.68c0,17.557-20.544,31.788-45.874,31.788A63.95,63.95,0,0,1-355.827,305h-.022c-16.5-4.83-28.106-16.143-28.106-29.323,0-17.579,20.546-31.81,45.876-31.81,14.66,0,27.721,4.759,36.115,12.2C-295.84,261.473-292.205,268.289-292.205,275.68Z" transform="translate(280.518 175.654)" fill="#f59a00"/>
    <path id="Tracé_26309" data-name="Tracé 26309" d="M-308.873,268.451c0,17.557-20.544,31.788-45.874,31.788a63.95,63.95,0,0,1-17.748-2.464c1.269-.071,46.713-2.391,53.792-25.377a40.379,40.379,0,0,0,.071-23.558C-312.508,254.245-308.873,261.061-308.873,268.451Z" transform="translate(297.186 182.882)" fill="#ea6f00"/>
    <path id="Tracé_26310" data-name="Tracé 26310" d="M-282.709,371.056v6.17a13.592,13.592,0,0,1-13.563,13.536H-348.15a24.465,24.465,0,0,0,9.138-15.068c1.865-10.164-17.414-18.2-17.414-18.2h60.154A13.6,13.6,0,0,1-282.709,371.056Z" transform="translate(320.557 340.912)" fill="#ea6f00"/>
    <path id="Tracé_26311" data-name="Tracé 26311" d="M-206.624,384.6v6.171A13.592,13.592,0,0,1-220.185,404.3h-78.69s-1.1-33.245-67.519-33.245h146.663A13.566,13.566,0,0,1-206.624,384.6Z" transform="translate(306.059 360.642)" fill="#333"/>
    <path id="Tracé_26312" data-name="Tracé 26312" d="M-187.944,398.166v6.17A13.592,13.592,0,0,1-201.5,417.873H-318.3c2.248-24.036-18.823-31.476-25.831-33.27H-201.5A13.6,13.6,0,0,1-187.944,398.166Z" transform="translate(338.444 380.342)" fill="#1f1f1f"/>
    <path id="Tracé_26313" data-name="Tracé 26313" d="M-370.215,188a27.469,27.469,0,0,0-1.841,14.727" transform="translate(297.38 94.394)" fill="none" stroke="#fff" stroke-linecap="round" stroke-linejoin="round" stroke-width="1"/>
    <path id="Tracé_26314" data-name="Tracé 26314" d="M-379.319,263.065a18.016,18.016,0,0,1,10.044-12.793" transform="translate(287.261 184.965)" fill="none" stroke="#fff" stroke-linecap="round" stroke-linejoin="round" stroke-width="1"/>
    <path id="Tracé_26315" data-name="Tracé 26315" d="M-376.777,276.754q-.567,6.141-1.129,12.28" transform="translate(289.316 223.482)" fill="none" stroke="#fff" stroke-linecap="round" stroke-linejoin="round" stroke-width="1"/>
    <path id="Tracé_26316" data-name="Tracé 26316" d="M-400.156,365.572a5.369,5.369,0,0,1,5.977-5.554" transform="translate(256.924 344.492)" fill="none" stroke="#fff" stroke-linecap="round" stroke-linejoin="round" stroke-width="1"/>
    <path id="Tracé_26317" data-name="Tracé 26317" d="M-425.291,378.031a5.225,5.225,0,0,1,5.041-4.7" transform="translate(220.397 363.948)" fill="none" stroke="#fff" stroke-linecap="round" stroke-linejoin="round" stroke-width="1"/>
    <path id="Tracé_26318" data-name="Tracé 26318" d="M-445.965,393.314a6.667,6.667,0,0,1,3.6-5.591" transform="translate(190.328 384.88)" fill="none" stroke="#fff" stroke-linecap="round" stroke-linejoin="round" stroke-width="1"/>
    <path id="Tracé_26319" data-name="Tracé 26319" d="M-381.039,333.251a126.165,126.165,0,0,0,5.508,46.625" transform="translate(284.313 305.654)" fill="none" stroke="#fff" stroke-linecap="round" stroke-linejoin="round" stroke-width="1"/>
    <g id="Groupe_16899" data-name="Groupe 16899" transform="translate(170.349 432.373)">
      <g id="Groupe_16898" data-name="Groupe 16898">
        <g id="Groupe_16897" data-name="Groupe 16897">
          <g id="Groupe_16896" data-name="Groupe 16896">
            <g id="Groupe_16895" data-name="Groupe 16895">
              <g id="Groupe_16894" data-name="Groupe 16894">
                <path id="Tracé_26320" data-name="Tracé 26320" d="M-125.23,422.652q-19.679,11.421-61.783,11.413t-59.817-10.233q-25.588-14.163-25.578-51.16V310.888q0-37.38,25.578-51.553,17.709-10.228,59.817-10.23,42.888,0,61.783,11.411,23.22,13.777,23.219,50.373v61.783Q-102.01,408.885-125.23,422.652Zm-23.612-111.763q0-31.876-7.874-39.747-7.08-6.686-30.3-6.688-24.008,0-31.091,6.688-7.875,8.663-7.871,39.747v61.783q0,26.766,5.9,35.813,3.928,5.511,12.2,8.068t20.858,2.56q25.577,0,33.057-11.02,3.144-3.928,4.131-12.788a212.864,212.864,0,0,0,.984-22.632Z" transform="translate(272.408 -249.105)" fill="#494b52"/>
                <path id="Tracé_26321" data-name="Tracé 26321" d="M-176.357,301.794q0-31.876-7.874-39.747-7.08-6.686-30.3-6.688-24.008,0-31.09,6.688-7.875,8.663-7.871,39.747v61.783q0,26.766,5.9,35.813,3.928,5.511,12.2,8.068t20.858,2.56q25.577,0,33.057-11.02,3.144-3.928,4.131-12.788a212.864,212.864,0,0,0,.984-22.632Z" transform="translate(299.923 -240.01)" fill="#fff"/>
                <path id="Tracé_26322" data-name="Tracé 26322" d="M-125.011,260.651c-.074-.047-.142-.091-.218-.135q-18.887-11.406-61.783-11.411-42.115,0-59.817,10.23-25.588,14.163-25.578,51.553v61.783q0,25.915,12.547,40.614C-244.656,339.294-188.6,289.915-125.011,260.651Z" transform="translate(272.408 -249.105)" fill="#fff" opacity="0.16"/>
                <path id="Tracé_26323" data-name="Tracé 26323" d="M-237.8,310.745c-12.223-4.892-19.253-16.5-25.975-26.888,6.114,7.636,15.279,15.581,25.975,11,9.167-3.061,16.8-8.868,25.664-12.533,4.273.916,8.554,2.445,12.53,3.665,4.278-1.22,8.247-2.749,12.525-3.665,8.249,3.058,15.279,8.861,23.222,12.226,10.694,5.191,20.779-1.227,28.116-8.561-7.638,10.39-15.281,21.695-28.116,25.975-13.136,1.833-24.444-5.194-35.747-11-11.919,6.418-24.139,13.136-38.194,9.779Z" transform="translate(284.96 -200.785)" fill="#f59a00"/>
                <path id="Tracé_26324" data-name="Tracé 26324" d="M-235.169,278.646a4.734,4.734,0,0,1-4.73,4.737,4.732,4.732,0,0,1-4.727-4.737,4.727,4.727,0,0,1,4.727-4.725A4.729,4.729,0,0,1-235.169,278.646Z" transform="translate(312.815 -213.011)" fill="#f59a00"/>
                <path id="Tracé_26325" data-name="Tracé 26325" d="M-225.325,278.646a4.729,4.729,0,0,1-4.725,4.737,4.734,4.734,0,0,1-4.73-4.737,4.729,4.729,0,0,1,4.73-4.725A4.725,4.725,0,0,1-225.325,278.646Z" transform="translate(327.136 -213.011)" fill="#f59a00"/>
              </g>
            </g>
          </g>
        </g>
      </g>
    </g>
    <g id="Groupe_16900" data-name="Groupe 16900" transform="translate(-490.794 123.1)">
      <path id="Tracé_26326" data-name="Tracé 26326" d="M-283.669,513.059H-57.21l-113.23-329.893Z" transform="translate(917.173 -35.738)" fill="none" stroke="#333" stroke-linecap="round" stroke-linejoin="round" stroke-width="1.949"/>
      <path id="Tracé_26327" data-name="Tracé 26327" d="M-539.274,467.989h226.459L-426.044,138.1Z" transform="translate(545.41 -101.289)" fill="none" stroke="#333" stroke-linecap="round" stroke-linejoin="round" stroke-width="1.949"/>
      <path id="Tracé_26328" data-name="Tracé 26328" d="M176.346,273.807c-15.937,3.188-32.335,2.8-48.073.459a217.621,217.621,0,0,1-23.253-4.754c-7.66-2.008-15.033-4.278-22.542-6.865C75.243,260.155,68,257.4,61,254.682l-20.659-8.038c-13.561-5.184-26.7-9.734-39.534-12.7-1.566-.349-3.284-.8-4.678-1.019l-4.558-.879-2.737-.456-2.4-.425a1.594,1.594,0,0,1,.28.074h-.145l-4.705-.589a163.227,163.227,0,0,0-19-.945,193.5,193.5,0,0,0-38.11,4.16l-4.352.982-2.683.621-1.345.322-.68.147-.155.044c.076-.01.125-.025.145,0-.022,0-.027.02-.074.012l-.076.01-.13.049c-3.129.81-6.22,1.674-9.324,2.607-6.183,1.873-12.314,4-18.438,6.367a368.757,368.757,0,0,0-36.488,16.712,34.979,34.979,0,0,1-33.454-.628,34.582,34.582,0,0,1-8.51-6.7l-.056-.083-.044-.032a366.624,366.624,0,0,0-28.516-28.221c-4.921-4.317-9.975-8.438-15.144-12.314l-3.647-2.732c-1.247-.923-2.99-2.057-4.462-3.068l-.02-.029-.214-.16-.5-.329-1-.663-2-1.347-4.062-2.587a195.228,195.228,0,0,0-34.382-16.992c-2.982-1.132-6.009-2.153-9.023-3.1-1.517-.486-3.051-.876-4.573-1.34l-4.239-1.159c-1.559-.4-3.556-.773-5.311-1.156l-.186-.034c.069.015.169.007.238.02l-.3-.079-.589-.1-1.173-.231-2.351-.439c-3.156-.557-6.367-1.075-9.629-1.456-13.077-1.578-27.023-1.826-41.512-1.613l-22.183.461-11.369.157c-3.841.027-7.707.049-11.6-.054a255.418,255.418,0,0,1-46.855-4.789,163.637,163.637,0,0,1-23.072-6.475c-3.785-1.394-7.444-2.963-11.17-4.688-1.875-.938-3.844-1.892-5.574-2.83l-4.8-2.788A8.976,8.976,0,0,1-504.564,146a9.011,9.011,0,0,1,1.23-4.082,8.958,8.958,0,0,1,10.812-3.876l5.223,1.917c1.632.53,3.117.916,4.663,1.382,3.206.832,6.539,1.615,9.864,2.177A139.929,139.929,0,0,0-452.4,145.5a228.784,228.784,0,0,0,41.6-3.156c3.473-.555,6.961-1.178,10.451-1.826l10.682-2.049,21.85-4.357c14.859-2.869,30.447-5.464,46.914-6.421,4.1-.25,8.271-.363,12.476-.376l3.154.022,1.571.034.8,0,.41.025.55.047.169.007c1.907.069,3.581.071,5.694.2,2.207.172,4.582.324,6.686.523,2.121.228,4.226.4,6.34.682,4.182.518,8.372,1.136,12.537,1.895a255.4,255.4,0,0,1,48.475,13.914l5.844,2.391,2.886,1.262,1.446.618.722.322.361.162.469.228.157.076c1.753.8,3.245,1.421,5.2,2.349l5.874,2.906c7.476,3.745,14.751,7.8,21.845,12.061,7.231,4.31,14.219,8.895,21.017,13.59,8-2.111,16.133-4.028,24.4-5.63,8.1-1.583,16.347-2.9,24.633-3.89,4.141-.484,8.318-.889,12.5-1.2l.2-.037.1-.007.444-.044.341-.012.69-.049,1.4-.069,2.8-.162,6.632-.287a254,254,0,0,1,50.348,3.436,225.754,225.754,0,0,1,24.783,5.731l6.1,1.9.184.059.606.155.317.128.663.238,1.3.474,2.626.947L10.9,184.6c2.143.79,3.893,1.61,5.839,2.415,15.173,6.512,28.938,14.258,41.924,22.012L77.729,220.57c6.276,3.8,12.341,7.422,18.6,10.883,6.04,3.348,12.368,6.575,18.659,9.459a192.527,192.527,0,0,0,19.253,7.619c12.982,4.33,26.4,7.012,39.841,6.686l.194.01a9.383,9.383,0,0,1,2.067,18.58Z" transform="translate(595.878 -116.965)" fill="#f8b500"/>
      <path id="Tracé_26329" data-name="Tracé 26329" d="M-179.458,233.953l-2.837,16.089a34.582,34.582,0,0,1-8.51-6.7l-.056-.083-.044-.032a366.626,366.626,0,0,0-28.516-28.221c-4.921-4.317-9.975-8.438-15.144-12.314l-3.647-2.732c-1.247-.923-2.99-2.057-4.462-3.068l-.02-.029-.214-.16-.5-.329-1-.663-2-1.347-4.062-2.587a195.228,195.228,0,0,0-34.382-16.992c-2.982-1.132-6.009-2.153-9.023-3.1-1.517-.486-3.051-.876-4.573-1.34l-4.239-1.159c-1.559-.4-3.556-.773-5.311-1.156l-.186-.034c.069.015.169.007.238.02l-.3-.079-.589-.1-1.173-.231-2.351-.439c-3.156-.557-6.367-1.075-9.629-1.456-13.077-1.578-27.023-1.826-41.512-1.613l-22.183.461-11.369.157c-3.841.027-7.707.049-11.6-.054a255.419,255.419,0,0,1-46.855-4.789,163.641,163.641,0,0,1-23.072-6.475c-3.785-1.394-7.444-2.963-11.17-4.688-1.875-.938-3.844-1.892-5.574-2.83l-4.8-2.788a8.976,8.976,0,0,1-4.438-8.166c14.133,9.8,39.607,22.89,72.163,20.35,50.883-4,126.826-15.7,178.986,16.163C-201.258,203.321-179.458,233.953-179.458,233.953Z" transform="translate(595.878 -105.897)" fill="#ea6f00"/>
      <path id="Tracé_26330" data-name="Tracé 26330" d="M-360.929,198.177l-2.835,16.089a34.416,34.416,0,0,0,10.287-3.385l.083-.059.052-.015A367.234,367.234,0,0,1-316.9,194.041c6.1-2.373,12.26-4.519,18.445-6.391l4.362-1.318c1.485-.442,3.512-.911,5.243-1.36l.027-.02.255-.076.584-.14,1.166-.28,2.339-.584,4.7-1.041a195.3,195.3,0,0,1,38.12-4.207c3.188-.044,6.382.032,9.538.177,1.59.061,3.166.218,4.754.3l4.381.358c1.6.16,3.606.491,5.385.731l.187.032c-.069-.012-.16-.052-.231-.064l.312.029.587.106,1.183.184,2.359.39c3.156.557,6.352,1.168,9.545,1.927,12.832,2.99,26.02,7.525,39.563,12.682l20.686,8.021,10.63,4.035c3.6,1.34,7.226,2.683,10.917,3.917a255.268,255.268,0,0,0,45.667,11.524,163.573,163.573,0,0,0,23.9,1.809c4.035-.017,8.009-.238,12.1-.584,2.081-.241,4.258-.464,6.2-.754l5.466-.979a8.966,8.966,0,0,0,6.963-6.156c-16.631,4.379-45.049,7.965-74.77-5.557-46.448-21.16-113.81-58.126-173.721-46.028C-329.966,176.848-360.929,198.177-360.929,198.177Z" transform="translate(800.679 -66.008)" fill="#ea6f00"/>
      <path id="Tracé_26331" data-name="Tracé 26331" d="M-306.95,270.513a3.913,3.913,0,0,1,3.11,6.308c-24.594,30.867-68.491,51.406-118.582,51.406-50,0-93.853-20.487-118.464-51.293a3.929,3.929,0,0,1,3.024-6.421Z" transform="translate(541.774 91.304)" fill="#f59a00"/>
      <path id="Tracé_26332" data-name="Tracé 26332" d="M-48.246,321.895c-24.586,30.855-68.477,51.4-118.584,51.4a172.918,172.918,0,0,1-54.175-8.514.706.706,0,0,1-.167-.049c-26.6-8.753-48.986-23.8-64.1-42.717a3.928,3.928,0,0,1,3.014-6.433h230.9A3.915,3.915,0,0,1-48.246,321.895Z" transform="translate(913.539 156.855)" fill="#f59a00"/>
      <path id="Tracé_26333" data-name="Tracé 26333" d="M-276.109,224.641a55.887,55.887,0,0,1-17.211,31.5A55.96,55.96,0,0,1-341.142,270.2,55.794,55.794,0,0,1-369.8,255.844a55.425,55.425,0,0,1-11.416-15.151l-.039-.056a55.7,55.7,0,0,1-5.422-35.491c5.383-30.528,71.466-82.045,71.466-82.045s40.805,65.144,39.5,97.456A26.97,26.97,0,0,1-276.109,224.641Z" transform="translate(766.106 -123.1)" fill="#f59a00"/>
      <circle id="Ellipse_490" data-name="Ellipse 490" cx="28.701" cy="28.701" r="28.701" transform="translate(396.674 117.834) rotate(-70.749)" fill="none" stroke="#f8b500" stroke-miterlimit="10" stroke-width="0.974"/>
      <path id="Tracé_26334" data-name="Tracé 26334" d="M-86.86,321.895c-24.586,30.855-68.477,51.4-118.584,51.4a172.918,172.918,0,0,1-54.175-8.514c4.425.979,97.034,20.735,159.1-49.2H-89.97A3.915,3.915,0,0,1-86.86,321.895Z" transform="translate(952.153 156.855)" fill="#ea6f00"/>
      <path id="Tracé_26335" data-name="Tracé 26335" d="M-342.462,276.828c-24.589,30.852-68.477,51.4-118.587,51.4a172.9,172.9,0,0,1-54.172-8.514c4.423.979,97.034,20.738,159.1-49.2h10.549A3.917,3.917,0,0,1-342.462,276.828Z" transform="translate(580.393 91.304)" fill="#ea6f00"/>
      <path id="Tracé_26336" data-name="Tracé 26336" d="M-297.067,186.458a55.96,55.96,0,0,1-47.823,14.057,55.794,55.794,0,0,1-28.653-14.354,55.424,55.424,0,0,1-11.416-15.151C-383.645,172.794-351.548,215.274-297.067,186.458Z" transform="translate(769.854 -53.417)" fill="#ea6f00"/>
      <path id="Tracé_26337" data-name="Tracé 26337" d="M-367.949,144.933q7.6-7.691,15.191-15.377" transform="translate(794.592 -113.71)" fill="none" stroke="#fff" stroke-linecap="round" stroke-linejoin="round" stroke-width="1"/>
      <path id="Tracé_26338" data-name="Tracé 26338" d="M-434.32,132.958a39.148,39.148,0,0,1,16.776-3.274" transform="translate(698.059 -113.546)" fill="none" stroke="#fff" stroke-linecap="round" stroke-linejoin="round" stroke-width="1"/>
      <path id="Tracé_26339" data-name="Tracé 26339" d="M-324.187,147.465a62.668,62.668,0,0,1,18.548.528" transform="translate(858.242 -88.32)" fill="none" stroke="#fff" stroke-linecap="round" stroke-linejoin="round" stroke-width="1"/>
      <path id="Tracé_26340" data-name="Tracé 26340" d="M-491.249,135.7a18.291,18.291,0,0,0,10.773,2.518" transform="translate(615.259 -104.781)" fill="none" stroke="#fff" stroke-linecap="round" stroke-linejoin="round" stroke-width="1"/>
      <path id="Tracé_26341" data-name="Tracé 26341" d="M-257.015,173.461a11.118,11.118,0,0,0,9.29,4.052" transform="translate(955.94 -49.853)" fill="none" stroke="#fff" stroke-linecap="round" stroke-linejoin="round" stroke-width="1"/>
      <path id="Tracé_26342" data-name="Tracé 26342" d="M-535.1,274.393a55.119,55.119,0,0,0,17.567,15.554" transform="translate(551.483 96.948)" fill="none" stroke="#fff" stroke-linecap="round" stroke-linejoin="round" stroke-width="1"/>
      <path id="Tracé_26343" data-name="Tracé 26343" d="M-278.311,321.925q9.057,6.874,18.119,13.75" transform="translate(924.966 166.08)" fill="none" stroke="#fff" stroke-linecap="round" stroke-linejoin="round" stroke-width="1"/>
      <path id="Tracé_26344" data-name="Tracé 26344" d="M-373.758,161.664c-2.9,9.889,2.707,21.526,12.255,25.411" transform="translate(785.028 -67.011)" fill="none" stroke="#fff" stroke-linecap="round" stroke-linejoin="round" stroke-width="1"/>
    </g>
    <g id="Groupe_16905" data-name="Groupe 16905" transform="translate(295.078 510.398)">
      <g id="Groupe_16904" data-name="Groupe 16904">
        <g id="Groupe_16901" data-name="Groupe 16901" transform="translate(0 74.424)">
          <path id="Tracé_26345" data-name="Tracé 26345" d="M-207.486,347.345c11,5.984,25.04-1.5,24.216-14.68s-24.262-25.173-32.777-20.367S-224.422,338.139-207.486,347.345Z" transform="translate(221.59 -311.216)" fill="#494b52"/>
        </g>
        <g id="Groupe_16902" data-name="Groupe 16902" transform="translate(4.11 78.49)">
          <path id="Tracé_26346" data-name="Tracé 26346" d="M-208.137,341.983c8.743,4.1,19.336-2.938,18.217-13.573s-19.717-18.764-26.135-14.275S-221.588,335.683-208.137,341.983Z" transform="translate(219.916 -312.873)" fill="#fff"/>
        </g>
        <g id="Groupe_16903" data-name="Groupe 16903" transform="translate(10.904)">
          <path id="Tracé_26347" data-name="Tracé 26347" d="M-142.793,285.854c-35.261-17.549-55.389,16.212-58.7,27.843s-29.358,75.776-6.075,90.287,66.655-19.373,80.4-50.807C-118.99,334.467-107.535,303.4-142.793,285.854Z" transform="translate(217.148 -280.894)" fill="#494b52"/>
          <path id="Tracé_26348" data-name="Tracé 26348" d="M-149.866,288.889c-30.924-15.321-48.421,13.823-51.273,23.874s-25.413,65.467-4.978,78.118,58.269-16.511,70.185-43.674C-128.838,331.044-118.935,304.207-149.866,288.889Z" transform="translate(220.863 -275.616)" fill="#fff"/>
        </g>
      </g>
      <line id="Ligne_216" data-name="Ligne 216" x2="28.504" y2="9.987" transform="translate(53.539 30.711)" fill="none" stroke="#494b52" stroke-miterlimit="10" stroke-width="1.994"/>
      <line id="Ligne_217" data-name="Ligne 217" x2="36.938" y2="12.943" transform="translate(40.129 56.538)" fill="none" stroke="#494b52" stroke-miterlimit="10" stroke-width="1.994"/>
      <line id="Ligne_218" data-name="Ligne 218" x2="28.504" y2="9.987" transform="translate(34.122 83.545)" fill="none" stroke="#494b52" stroke-miterlimit="10" stroke-width="1.994"/>
    </g>
    <g id="Groupe_16910" data-name="Groupe 16910" transform="translate(107.439 510.398)">
      <g id="Groupe_16909" data-name="Groupe 16909">
        <g id="Groupe_16906" data-name="Groupe 16906" transform="translate(71.044 74.424)">
          <path id="Tracé_26349" data-name="Tracé 26349" d="M-244.844,347.345c-11,5.984-25.04-1.5-24.216-14.68s24.262-25.173,32.777-20.367S-227.908,338.139-244.844,347.345Z" transform="translate(269.094 -311.216)" fill="#494b52"/>
        </g>
        <g id="Groupe_16907" data-name="Groupe 16907" transform="translate(75.211 78.49)">
          <path id="Tracé_26350" data-name="Tracé 26350" d="M-249.1,341.983c-8.74,4.1-19.336-2.938-18.217-13.573s19.717-18.764,26.135-14.275S-235.645,335.683-249.1,341.983Z" transform="translate(267.396 -312.873)" fill="#fff"/>
        </g>
        <g id="Groupe_16908" data-name="Groupe 16908">
          <path id="Tracé_26351" data-name="Tracé 26351" d="M-273.9,285.854c35.261-17.549,55.39,16.212,58.7,27.843s29.358,75.776,6.075,90.287-66.655-19.373-80.4-50.807C-297.7,334.467-309.158,303.4-273.9,285.854Z" transform="translate(298.039 -280.894)" fill="#494b52"/>
          <path id="Tracé_26352" data-name="Tracé 26352" d="M-274.234,288.889c30.924-15.321,48.421,13.823,51.273,23.874s25.413,65.467,4.978,78.118-58.266-16.511-70.185-43.674C-295.261,331.044-305.165,304.207-274.234,288.889Z" transform="translate(301.731 -275.616)" fill="#fff"/>
        </g>
      </g>
      <line id="Ligne_219" data-name="Ligne 219" x1="28.504" y2="9.987" transform="translate(27.356 30.711)" fill="none" stroke="#494b52" stroke-miterlimit="10" stroke-width="1.994"/>
      <line id="Ligne_220" data-name="Ligne 220" x1="36.938" y2="12.943" transform="translate(32.332 56.538)" fill="none" stroke="#494b52" stroke-miterlimit="10" stroke-width="1.994"/>
      <line id="Ligne_221" data-name="Ligne 221" x1="28.504" y2="9.987" transform="translate(46.773 83.545)" fill="none" stroke="#494b52" stroke-miterlimit="10" stroke-width="1.994"/>
    </g>
    <g id="freepik--Character--inject-2" transform="translate(-512.191 233.473)">
      <g id="freepik--group--inject-2">
        <path id="Tracé_26353" data-name="Tracé 26353" d="M-500,202.047c15.863,5.564,49.816,57.905,45.569,81.012s-48.682,30.177-48.682,30.177Z" transform="translate(619.406 -118.648)" fill="#333"/>
        <path id="Tracé_26354" data-name="Tracé 26354" d="M-500,202.047c15.863,5.564,49.816,57.905,45.569,81.012s-48.682,30.177-48.682,30.177Z" transform="translate(619.406 -118.648)" opacity="0.3" style="isolation: isolate"/>
        <path id="Tracé_26355" data-name="Tracé 26355" d="M-505.552,413.131l15.315,1.6.792-9.2-.283-.17,1.773-23.52v-.094l-14.995-1.622.094.189-2.075,25.048v.17Z" transform="translate(615.852 140.354)" fill="#ddac85"/>
        <path id="Tracé_26356" data-name="Tracé 26356" d="M-536.428,412.9H-521.6l.17-4.527.019-.415.679-19.088.019-.415.339-9.506H-534.92v.453l-.283.377-1.6,27.217v.434Z" transform="translate(570.396 138.644)" fill="#ddac85"/>
        <path id="Tracé_26357" data-name="Tracé 26357" d="M-516.592,392.42H-534.6a1.285,1.285,0,0,0-1.264,1.019l-2.923,13.2a2.187,2.187,0,0,0,1.7,2.582,1.885,1.885,0,0,0,.471,0c5.827-.093,10.071-.452,17.39-.452,4.509,0,18.106.471,24.331.471s7.035-6.148,4.489-6.715c-11.431-2.489-20.031-5.94-23.69-9.221A3.562,3.562,0,0,0-516.592,392.42Z" transform="translate(567.44 158.235)" fill="#333"/>
        <path id="Tracé_26358" data-name="Tracé 26358" d="M-485.468,392.228h-18.013a1.284,1.284,0,0,0-1.264,1.019l-2.923,13.2a2.187,2.187,0,0,0,1.7,2.585,1.894,1.894,0,0,0,.471,0c5.829-.093,10.073-.452,17.392-.452,4.506,0,18.106.471,24.331.471s7.035-6.148,4.489-6.715c-11.43-2.489-20.031-5.94-23.69-9.224A3.564,3.564,0,0,0-485.468,392.228Z" transform="translate(612.707 157.956)" fill="#333"/>
        <path id="Tracé_26359" data-name="Tracé 26359" d="M-505.276,405.451h15.448l2.056-23.69-15.3-1.584-.019.057-2.169,25.048Z" transform="translate(616.254 140.432)" opacity="0.2" style="isolation: isolate"/>
        <path id="Tracé_26360" data-name="Tracé 26360" d="M-536.452,407.258l14.5,1.32h.019l.7-19.861-.019-.208-13.9-9.186-1.264,27.368Z" transform="translate(570.91 139.191)" opacity="0.2" style="isolation: isolate"/>
        <path id="Tracé_26361" data-name="Tracé 26361" d="M-537.966,582.166l22.748,2.661s16.806-112.49,23.877-160.982c.115-.773.209-1.529.321-2.263,2.791-19.145,6-55.151,8.713-88.988,1.546,4.148,2.963,8.733,4.283,13.73.282,1.038.565,2.094.83,3.169s.621,2.545.923,3.773.567,2.489.849,3.772c.491,2.3.982,4.678,1.453,7.091,15.276,78.331,15.578,216.7,15.578,216.7l21.5,1.3c15.654-120.015-1.622-264.062-10.11-316.364a1.016,1.016,0,0,1,0,.245c-.152-.982-.321-1.887-.471-2.923a.99.99,0,0,0,0-.209c-.415-2.545-.812-4.263-1.171-6.148h-78.633v18.521c-.245,19.994-.754,52.812-1.527,84.877,0,1.264,0,2.528-.1,3.772s0,2,0,3c-.282,11.317-.6,22.294-.979,32.5s-.773,19.486-1.208,27.35a14.96,14.96,0,0,1-.113,2.226c0,1.075-.113,2.187-.189,3.338C-534.383,481.259-537.966,582.166-537.966,582.166Z" transform="translate(568.708 -39.113)" fill="#333"/>
        <path id="Tracé_26362" data-name="Tracé 26362" d="M-537.966,582.166l22.748,2.661s16.806-112.49,23.877-160.982c.115-.773.209-1.529.321-2.263,2.791-19.145,6-55.151,8.713-88.988,1.546,4.148,2.963,8.733,4.283,13.73.282,1.038.565,2.094.83,3.169s.621,2.545.923,3.773.567,2.489.849,3.772c.491,2.3.982,4.678,1.453,7.091,15.276,78.331,15.578,216.7,15.578,216.7l21.5,1.3c15.654-120.015-1.622-264.062-10.11-316.364a.86.86,0,0,0,0-.226c-.152-.849-.321-1.662-.471-2.452a.99.99,0,0,0,0-.209c-.434-2.3-.83-4.263-1.171-6.148H-527.4v18.521c-.245,19.994-.753,52.812-1.527,84.877,0,1.264,0,2.528-.093,3.772s0,2,0,3c-.285,11.317-.6,22.294-.982,32.5s-.754,19.844-1.208,27.821a9.367,9.367,0,0,1-.113,1.755c0,1.075-.113,2.187-.189,3.338C-534.383,481.259-537.966,582.166-537.966,582.166Z" transform="translate(568.708 -39.113)" opacity="0.3" style="isolation: isolate"/>
        <path id="Tracé_26363" data-name="Tracé 26363" d="M-542.83,590.615s59.319,15.485,132.916,0c0,0-3.318-125.165-15.24-251.311-2.641-28.008-5.658-56.094-9.28-82.84-2.376-17.861-4.96-35.138-7.79-51.416a154.347,154.347,0,0,0-91.742,4.15s1.492,38.307,2.226,92.516c.133,9.43.246,19.221.3,29.444C-530.835,414.675-532.514,522.3-542.83,590.615Z" transform="translate(561.634 -121.649)" fill="#333"/>
        <path id="Tracé_26364" data-name="Tracé 26364" d="M-499.086,177.877c3.451,7.223-.245,22.409-8.394,25.465-12.542,4.7-10.844-30.18-10.844-30.18S-503.217,169.144-499.086,177.877Z" transform="translate(597.164 -162.002)" fill="#333"/>
        <path id="Tracé_26365" data-name="Tracé 26365" d="M-528.522,224.259c7.226,6.563,24.918,4.128,24.918,4.128s11.052-3.017,8.733-6.467c-6.507-1.075-9.658-4.114-10.959-8a18.861,18.861,0,0,1-.66-7.43,38.748,38.748,0,0,1,.547-4.15l-21.879-16.278C-524.956,196.833-521.448,216.506-528.522,224.259Z" transform="translate(582.444 -141.896)" fill="#ddac85"/>
        <path id="Tracé_26366" data-name="Tracé 26366" d="M-526.178,190.29c.869,13.2,11.656,16.749,16.975,17.483a18.909,18.909,0,0,1-.66-7.43Z" transform="translate(585.853 -135.748)" opacity="0.2" style="isolation: isolate"/>
        <path id="Tracé_26367" data-name="Tracé 26367" d="M-524.224,221.094a18.54,18.54,0,0,0,21.295,7.187,20.751,20.751,0,0,0,11.789-9.6,20.769,20.769,0,0,0,.979-1.885c5.338-12.486,7.037-34.328-6.168-42.513a20.108,20.108,0,0,0-27.721,6.332,20.119,20.119,0,0,0-2.985,8.755C-528.657,203.91-530.3,212.454-524.224,221.094Z" transform="translate(582.428 -163.516)" fill="#ddac85"/>
        <path id="Tracé_26368" data-name="Tracé 26368" d="M-519.213,182.9c-.265,1.151.265,2.226,1.038,2.359s1.566-.717,1.772-1.887-.282-2.224-1.038-2.356S-518.911,181.693-519.213,182.9Z" transform="translate(595.883 -149.258)" fill="#333"/>
        <path id="Tracé_26369" data-name="Tracé 26369" d="M-513.776,183.822c-.282,1.151.265,2.246,1.038,2.378s1.546-.736,1.752-1.887-.263-2.243-1.036-2.376S-513.607,182.654-513.776,183.822Z" transform="translate(603.781 -147.917)" fill="#333"/>
        <path id="Tracé_26370" data-name="Tracé 26370" d="M-520.414,181.609a.7.7,0,0,0,.717-.15,5.66,5.66,0,0,1,4.828-1.566.7.7,0,0,0,.849-.508.7.7,0,0,0-.508-.849h0a6.957,6.957,0,0,0-6.112,1.885.7.7,0,0,0,0,.982h0A.787.787,0,0,0-520.414,181.609Z" transform="translate(593.613 -153.004)" fill="#333"/>
        <path id="Tracé_26371" data-name="Tracé 26371" d="M-512.39,192.679h0a10.724,10.724,0,0,1-8.733-4.754.377.377,0,0,1,.132-.508.36.36,0,0,1,.491.113h0a10.3,10.3,0,0,0,8.129,4.376.378.378,0,0,1,.358.358h0a.359.359,0,0,1-.358.358h0Z" transform="translate(593.134 -140.005)" fill="#333"/>
        <path id="Tracé_26372" data-name="Tracé 26372" d="M-508.61,184.492a.823.823,0,0,0,.415.113.7.7,0,0,0,.474-.866h0A6.955,6.955,0,0,0-512.041,179a.7.7,0,0,0-.869.469v0h0a.737.737,0,0,0,.471.866h0a5.66,5.66,0,0,1,3.358,3.772A.663.663,0,0,0-508.61,184.492Z" transform="translate(605.121 -152.207)" fill="#333"/>
        <path id="Tracé_26373" data-name="Tracé 26373" d="M-518.465,168.855c-12.015,3.149-13.6,19.8-11.9,34.988,1.47,13.2,8.431,19.388,8.431,19.388-3.149-6.281-2.207-18.541-.15-18.86s1.885,2.054,1.885,2.054c4.546-2.847,11.165-7.393,6.092-21.067-.6-1.622-1.055-5.415,1.151-6.828,4.244-2.754,10.166-.133,10.166-.133s14.749,18.521,21.822,3.188C-477.441,173.985-505.263,165.4-518.465,168.855Z" transform="translate(578.933 -168.068)" fill="#333"/>
        <path id="Tracé_26374" data-name="Tracé 26374" d="M-518.1,200.145a20.752,20.752,0,0,0,11.789-9.6c-3.566,0-8.753.209-10.11,1.038S-518.084,196.957-518.1,200.145Z" transform="translate(597.6 -135.38)" opacity="0.2" style="isolation: isolate"/>
        <path id="Tracé_26375" data-name="Tracé 26375" d="M-531.154,187.974a14.039,14.039,0,0,0,6.713,8.318c4.32,2.319,7.545-1.3,7.243-5.923-.3-4.131-2.847-10.429-7.638-10.787S-532.381,183.6-531.154,187.974Z" transform="translate(578.193 -151.352)" fill="#ddac85"/>
        <path id="Tracé_26376" data-name="Tracé 26376" d="M-517.044,200.456s31.461,86.33,17.674,380.57l-28.16-4s24.822-213.851-8.961-372.666Z" transform="translate(570.853 -120.962)" fill="#f59a00"/>
        <path id="Tracé_26377" data-name="Tracé 26377" d="M-516.057,199.2s31.724,86.1,45.984,380.813l17.446-2.827s-18.86-327.72-46.87-377.533Z" transform="translate(600.573 -122.783)" fill="#f59a00"/>
        <path id="Tracé_26378" data-name="Tracé 26378" d="M-488.81,244.438l-17.748-28.9a12.59,12.59,0,0,1-7.376-4.7c-2.717-3.772-4.433-18.862-3.149-19.5s15.088.942,16.03,2.791,3.679,17.164,3.679,17.164l20.446,23.975Z" transform="translate(598.45 -134.426)" fill="#ddac85"/>
        <path id="Tracé_26379" data-name="Tracé 26379" d="M-508.057,215.073s11.315,89.686,32.328,102.284c-2.641-28.008-5.658-56.094-9.28-82.84Z" transform="translate(612.209 -99.703)" opacity="0.2" style="isolation: isolate"/>
        <path id="Tracé_26380" data-name="Tracé 26380" d="M-519.287,198.256a36.815,36.815,0,0,0-12.977,9.9l9.185,14.41,5.753-1.885.623,50.756s28.651,4.867,47.624-4.283L-485.713,218.4l4.96.415s-1.095-16.6-19.635-21.371c0,0,4.376,8.564,3.772,9.752l-16.749,1.038Z" transform="translate(577.001 -125.343)" fill="#f59a00"/>
        <path id="Tracé_26381" data-name="Tracé 26381" d="M-519.287,198.256a36.815,36.815,0,0,0-12.977,9.9l9.185,14.41,5.753-1.885.623,50.756s28.651,4.867,47.624-4.283L-485.713,218.4l4.96.415s-1.095-16.6-19.635-21.371c0,0,4.376,8.564,3.772,9.752l-16.749,1.038Z" transform="translate(577.001 -125.343)" fill="#fff" style="isolation: isolate"/>
        <path id="Tracé_26382" data-name="Tracé 26382" d="M-522.769,212.48l1.339-9.45-7.092,11.411Z" transform="translate(582.444 -117.217)" opacity="0.2" style="isolation: isolate"/>
        <path id="Tracé_26383" data-name="Tracé 26383" d="M-508.828,211.975l-7.545-10.166,12.505,10.581Z" transform="translate(600.115 -118.994)" opacity="0.2" style="isolation: isolate"/>
        <path id="Tracé_26384" data-name="Tracé 26384" d="M-538.343,241.439c.133,9.43.246,19.218.3,29.441,34.858,3.245,54.378-14.938,54.378-14.938Z" transform="translate(568.16 -61.355)" opacity="0.2" style="isolation: isolate"/>
        <path id="Tracé_26385" data-name="Tracé 26385" d="M-447,269.759c-.435-8.942-46.08-63.639-46.08-63.639l-14.975,21.975,29.574,74.748S-445.609,299.392-447,269.759Z" transform="translate(612.209 -112.724)" fill="#333"/>
        <path id="Tracé_26386" data-name="Tracé 26386" d="M-461.287,228.342l-32.4,33.054a1.187,1.187,0,0,1-1.681.015h0L-497.834,259a1.17,1.17,0,0,1-.017-1.654l32.416-33.066h0l4.148,4.067Z" transform="translate(626.567 -86.319)" fill="#93593a"/>
        <path id="Tracé_26387" data-name="Tracé 26387" d="M-469.936,248.057l10.223-10.449a49.887,49.887,0,0,0-19.275-18.862l-10.242,10.316A49.841,49.841,0,0,0-469.936,248.057Z" transform="translate(639.592 -94.361)" fill="#f59a00"/>
        <path id="Tracé_26388" data-name="Tracé 26388" d="M-469.936,248.057l10.223-10.449a49.887,49.887,0,0,0-19.275-18.862l-10.242,10.316A49.841,49.841,0,0,0-469.936,248.057Z" transform="translate(639.592 -94.361)" fill="#7f482f"/>
        <rect id="Rectangle_3064" data-name="Rectangle 3064" width="19.126" height="4.583" rx="0.384" transform="translate(146.981 134.638) rotate(-45.57)" fill="#93593a"/>
        <rect id="Rectangle_3065" data-name="Rectangle 3065" width="19.126" height="4.583" rx="0.384" transform="translate(166.619 153.889) rotate(-45.57)" fill="#93593a"/>
        <path id="Tracé_26389" data-name="Tracé 26389" d="M-512.284,235.87l33.837-2.356a12.565,12.565,0,0,1,7.545-4.3c4.7-.643,18.75,4.771,18.75,6.224s-7.81,12.92-9.9,12.92-16.975-4.7-16.975-4.7l-30.708,7.034Z" transform="translate(606.061 -79.213)" fill="#ddac85"/>
        <path id="Tracé_26390" data-name="Tracé 26390" d="M-522.825,203.738c-17.351,8.939-37.155,68.825-22.633,94.307S-453.15,318.3-453.15,318.3l16.712-48.549s-61.3,7.979-74.031-1.208c-7.847-5.658-8.225-30.705-9.28-47.756A63.779,63.779,0,0,0-522.825,203.738Z" transform="translate(550.491 -116.189)" fill="#333"/>
        <path id="Tracé_26391" data-name="Tracé 26391" d="M-522.825,203.738c-17.351,8.939-37.155,68.825-22.633,94.307S-453.15,318.3-453.15,318.3l16.712-48.549s-61.3,7.979-74.031-1.208c-7.847-5.658-8.225-30.705-9.28-47.756A63.779,63.779,0,0,0-522.825,203.738Z" transform="translate(550.491 -116.189)" opacity="0.3" style="isolation: isolate"/>
        <path id="Tracé_26392" data-name="Tracé 26392" d="M-512.4,186.76a3.663,3.663,0,0,1-3.64,3.679,3.66,3.66,0,0,1-3.679-3.64,3.66,3.66,0,0,1,3.64-3.679h.02A3.662,3.662,0,0,1-512.4,186.76Z" transform="translate(595.253 -146.177)" fill="none" stroke="#263238" stroke-miterlimit="10" stroke-width="0.384"/>
        <path id="Tracé_26393" data-name="Tracé 26393" d="M-507.109,187.518a3.659,3.659,0,0,1-3.66,3.657,3.658,3.658,0,0,1-3.659-3.66,3.657,3.657,0,0,1,3.659-3.657h.02a3.622,3.622,0,0,1,3.64,3.6Z" transform="translate(602.943 -145.103)" fill="none" stroke="#263238" stroke-miterlimit="10" stroke-width="0.384"/>
        <line id="Ligne_222" data-name="Ligne 222" x2="14.542" y2="7.526" transform="translate(61.015 32.398)" fill="none" stroke="#263238" stroke-miterlimit="10" stroke-width="0.384"/>
        <path id="Tracé_26394" data-name="Tracé 26394" d="M-516.733,185.323s3.772-2.133,5.658,1.075" transform="translate(599.59 -143.984)" fill="none" stroke="#263238" stroke-miterlimit="10" stroke-width="0.384"/>
      </g>
    </g>
    <path id="Tracé_26395" data-name="Tracé 26395" d="M-313.175,302.555h-13.917A50.74,50.74,0,0,1-277,353.284a50.583,50.583,0,0,1-14.864,35.884A50.632,50.632,0,0,1-327.2,404.017l0,.032h14.02a50.634,50.634,0,0,0,35.884-14.864A50.575,50.575,0,0,0-262.427,353.3,50.762,50.762,0,0,0-313.175,302.555Z" transform="translate(363.069 261.008)" fill="#f8b500"/>
  </g>
</svg>
