<svg xmlns="http://www.w3.org/2000/svg" width="1048.812" height="483.443" viewBox="0 0 1048.812 483.443">
  <g id="Pattern" transform="translate(11 -11259.999)" opacity="0.32">
    <path id="Tracé_32491" data-name="Tracé 32491" d="M509.01,367.25l-14.443-8.408v-16.83l.159-.079L509.01,333.6l14.443,8.408v16.83l-.147.08Zm-13.833-8.767,13.833,8.065,13.845-8.065V342.371l-13.845-8.063-13.833,8.063Z" transform="translate(-236.908 11107.617)" fill="#808285"/>
    <rect id="Rectangle_4339" data-name="Rectangle 4339" width="28.886" height="33.646" transform="translate(257.659 11441.222)" fill="none"/>
    <path id="Tracé_32492" data-name="Tracé 32492" d="M56.862,375.116l-.152-.093L0,341.986V275.741l.152-.092,56.71-33.038.152.093,56.71,33.036v66.245l-.152.094ZM.6,341.641l56.259,32.771,56.259-32.771V276.086L56.862,243.315.6,276.086Z" transform="translate(-11 11149.18)" fill="#808285"/>
    <rect id="Rectangle_4340" data-name="Rectangle 4340" width="113.723" height="132.504" transform="translate(-11 11391.792)" fill="none"/>
    <path id="Tracé_32493" data-name="Tracé 32493" d="M92.53,367.25l-14.443-8.408v-16.83l.153-.079L92.53,333.6l14.443,8.408v16.83l-.152.08Zm-13.839-8.767,13.839,8.065,13.84-8.065V342.371l-13.84-8.063-13.839,8.063Z" transform="translate(-46.668 11107.617)" fill="#808285"/>
    <rect id="Rectangle_4341" data-name="Rectangle 4341" width="28.886" height="33.646" transform="translate(31.418 11441.222)" fill="none"/>
    <path id="Tracé_32494" data-name="Tracé 32494" d="M288.882,733.8,260.3,717.144V683.855l.152-.092L288.882,667.2l28.581,16.658v33.289l-.147.092Zm-27.977-17,27.977,16.3,27.983-16.3V684.2l-27.983-16.3L260.9,684.2Z" transform="translate(-129.9 10955.238)" fill="#808285"/>
    <rect id="Rectangle_4342" data-name="Rectangle 4342" width="57.16" height="66.603" transform="translate(130.402 11622.436)" fill="none"/>
    <path id="Tracé_32495" data-name="Tracé 32495" d="M265.1,739.043,208.24,705.928V639.67l.152-.079,56.71-33.036,56.862,33.115v66.258l-.146.08Zm-56.258-33.473L265.1,738.342l56.266-32.771V640.028L265.1,607.257l-56.258,32.771Z" transform="translate(-106.12 10982.938)" fill="#808285"/>
    <rect id="Rectangle_4343" data-name="Rectangle 4343" width="113.723" height="132.489" transform="translate(102.121 11589.493)" fill="none"/>
    <path id="Tracé_32496" data-name="Tracé 32496" d="M425.784,264.3l-.147-.093-113.272-65.98V66.072l.153-.087L425.784,0l.159.086L539.215,66.072V198.222l-.159.08Zm-112.815-66.43,112.815,65.727,112.821-65.727V66.423L425.784.7,312.969,66.423Z" transform="translate(-153.682 11260)" fill="#808285"/>
    <rect id="Rectangle_4344" data-name="Rectangle 4344" width="226.85" height="264.296" transform="translate(158.684 11259.999)" fill="none"/>
    <path id="Tracé_32497" data-name="Tracé 32497" d="M265.1,132.5l-.145-.092L208.24,99.367V33.121l.152-.086L265.1,0l.153.086,56.71,33.036V99.367l-.146.092ZM208.843,99.022l56.258,32.77,56.266-32.77V33.473L265.1.7,208.843,33.473Z" transform="translate(-106.12 11260)" fill="#808285"/>
    <rect id="Rectangle_4345" data-name="Rectangle 4345" width="113.723" height="132.496" transform="translate(102.121 11259.999)" fill="none"/>
    <path id="Tracé_32498" data-name="Tracé 32498" d="M681.6,375.116l-.146-.093-56.71-33.036V275.741l.147-.092L681.6,242.612l.146.093,56.71,33.036v66.245l-.147.094Zm-56.258-33.474L681.6,374.412l56.258-32.771V276.086L681.6,243.315l-56.258,32.771Z" transform="translate(-296.368 11149.18)" fill="#808285"/>
    <rect id="Rectangle_4346" data-name="Rectangle 4346" width="113.711" height="132.504" transform="translate(328.373 11391.792)" fill="none"/>
    <path id="Tracé_32499" data-name="Tracé 32499" d="M497.122,491.175l-28.58-16.644v-33.3l.159-.092,28.421-16.564L525.7,441.228v33.3l-.147.079Zm-27.97-17,27.97,16.3,27.983-16.3v-32.6l-27.983-16.3-27.97,16.3Z" transform="translate(-225.02 11066.064)" fill="#808285"/>
    <rect id="Rectangle_4347" data-name="Rectangle 4347" width="57.161" height="66.603" transform="translate(243.522 11490.636)" fill="none"/>
    <path id="Tracé_32500" data-name="Tracé 32500" d="M300.775,367.25l-14.436-8.408v-16.83l.147-.079,14.289-8.329,14.443,8.408v16.83l-.154.08Zm-13.839-8.767,13.839,8.065,13.839-8.065V342.371l-13.839-8.063-13.839,8.063Z" transform="translate(-141.793 11107.617)" fill="#808285"/>
    <rect id="Rectangle_4348" data-name="Rectangle 4348" width="28.879" height="33.646" transform="translate(144.546 11441.222)" fill="none"/>
    <path id="Tracé_32501" data-name="Tracé 32501" d="M705.375,369.871l-28.581-16.644v-33.3l.146-.08,28.435-16.564,28.581,16.644v33.3l-.147.094Zm-27.984-17,27.984,16.3,27.982-16.3v-32.6l-27.982-16.286L677.39,320.271Z" transform="translate(-320.145 11121.467)" fill="#808285"/>
    <rect id="Rectangle_4349" data-name="Rectangle 4349" width="57.161" height="66.59" transform="translate(356.65 11424.749)" fill="none"/>
    <path id="Tracé_32502" data-name="Tracé 32502" d="M681.6,617.744l-.146-.094-56.71-33.036V518.37l.147-.094L681.6,485.24l.146.093,56.71,33.037v66.244l-.147.08Zm-56.258-33.488L681.6,617.041l56.258-32.785V518.715L681.6,485.944l-56.258,32.771Z" transform="translate(-296.368 11038.353)" fill="#808285"/>
    <rect id="Rectangle_4350" data-name="Rectangle 4350" width="113.711" height="132.504" transform="translate(328.373 11523.593)" fill="none"/>
    <path id="Tracé_32503" data-name="Tracé 32503" d="M350.7,705.088l-37.731-21.976V551.657l112.815-65.714,112.822,65.714V683.112l-37.731,21.976h1.207l36.975-21.537.159-.094V551.313l-113.273-65.98-.159-.094-113.266,65.98-.153.094V683.457l37.128,21.631Z" transform="translate(-153.681 11038.353)" fill="#808285"/>
    <rect id="Rectangle_4351" data-name="Rectangle 4351" width="226.85" height="219.848" transform="translate(158.684 11523.593)" fill="none"/>
    <path id="Tracé_32504" data-name="Tracé 32504" d="M452.354,871.318l36.822-21.459,36.829,21.459h1.208l-38.037-22.161-38.03,22.161Z" transform="translate(-217.074 10872.122)" fill="#808285"/>
    <rect id="Rectangle_4352" data-name="Rectangle 4352" width="76.066" height="22.161" transform="translate(234.073 11721.279)" fill="none"/>
    <path id="Tracé_32505" data-name="Tracé 32505" d="M312.969,815.915V794.284L425.784,728.57l112.821,65.714v21.631h.61V793.939L425.943,727.947l-.159-.08-113.266,65.98-.153.092v21.976Z" transform="translate(-153.682 10927.525)" fill="#808285"/>
    <rect id="Rectangle_4353" data-name="Rectangle 4353" width="226.85" height="88.048" transform="translate(158.684 11655.393)" fill="none"/>
    <path id="Tracé_32506" data-name="Tracé 32506" d="M473.347,739.043l-56.855-33.116V639.67l.146-.079,56.71-33.036,56.868,33.115v66.258l-.159.08Zm-56.259-33.473,56.259,32.771,56.258-32.771V640.028l-56.258-32.771-56.259,32.771Z" transform="translate(-201.245 10982.938)" fill="#808285"/>
    <rect id="Rectangle_4354" data-name="Rectangle 4354" width="113.723" height="132.489" transform="translate(215.248 11589.493)" fill="none"/>
    <path id="Tracé_32507" data-name="Tracé 32507" d="M686.847,843.616l-9.457-5.5v-32.6l27.984-16.3,27.983,16.3v32.6l-9.456,5.5h1.208l8.846-5.159v-33.3l-28.581-16.644-28.58,16.644v33.3l8.845,5.159Z" transform="translate(-320.145 10899.824)" fill="#808285"/>
    <rect id="Rectangle_4355" data-name="Rectangle 4355" width="57.161" height="55.104" transform="translate(356.65 11688.336)" fill="none"/>
    <path id="Tracé_32508" data-name="Tracé 32508" d="M452.354,871.318l36.822-21.459,36.829,21.459h1.208l-38.037-22.161-38.03,22.161Z" transform="translate(-217.074 10872.122)" fill="#808285"/>
    <rect id="Rectangle_4356" data-name="Rectangle 4356" width="76.066" height="22.161" transform="translate(234.073 11721.279)" fill="none"/>
    <path id="Tracé_32509" data-name="Tracé 32509" d="M509.01,124.629l-14.443-8.415V99.391l.159-.086,14.284-8.329,14.443,8.415v16.823l-.147.094Zm-13.833-8.766,13.833,8.064,13.845-8.064V99.743L509.01,91.679l-13.833,8.063Z" transform="translate(-236.908 11218.444)" fill="#808285"/>
    <rect id="Rectangle_4357" data-name="Rectangle 4357" width="28.886" height="33.653" transform="translate(257.659 11309.421)" fill="none"/>
    <path id="Tracé_32510" data-name="Tracé 32510" d="M913.626,127.258,885.047,110.6v-33.3l.146-.086,28.433-16.565,28.581,16.651v33.3l-.159.092Zm-27.982-17.008,27.982,16.306,27.97-16.306V77.657l-27.97-16.3-27.982,16.3Z" transform="translate(-415.27 11232.294)" fill="#808285"/>
    <rect id="Rectangle_4358" data-name="Rectangle 4358" width="57.159" height="66.603" transform="translate(469.777 11292.949)" fill="none"/>
    <path id="Tracé_32511" data-name="Tracé 32511" d="M705.375,491.175l-28.581-16.644v-33.3l.146-.092,28.435-16.564,28.581,16.656v33.3l-.147.079Zm-27.984-17,27.984,16.3,27.982-16.3v-32.6l-27.982-16.3-27.984,16.3Z" transform="translate(-320.145 11066.064)" fill="#808285"/>
    <rect id="Rectangle_4359" data-name="Rectangle 4359" width="57.161" height="66.603" transform="translate(356.65 11490.636)" fill="none"/>
    <path id="Tracé_32512" data-name="Tracé 32512" d="M509.01,367.25l-14.443-8.408v-16.83l.159-.079L509.01,333.6l14.443,8.408v16.83l-.147.08Zm-13.833-8.767,13.833,8.065,13.845-8.065V342.371l-13.845-8.063-13.833,8.063Z" transform="translate(-236.908 11107.617)" fill="#808285"/>
    <rect id="Rectangle_4360" data-name="Rectangle 4360" width="28.886" height="33.646" transform="translate(257.659 11441.222)" fill="none"/>
    <path id="Tracé_32513" data-name="Tracé 32513" d="M509.01,609.878l-14.443-8.422V584.64l.159-.092,14.284-8.316,14.443,8.408v16.816l-.147.092Zm-13.833-8.766,13.833,8.064,13.845-8.064V584.985l-13.845-8.063-13.833,8.063Z" transform="translate(-236.908 10996.789)" fill="#808285"/>
    <rect id="Rectangle_4361" data-name="Rectangle 4361" width="28.886" height="33.646" transform="translate(257.659 11573.021)" fill="none"/>
    <path id="Tracé_32514" data-name="Tracé 32514" d="M889.838,617.744l-.159-.094-56.71-33.036V518.37l.147-.094,56.722-33.036.147.093,56.71,33.037v66.244l-.147.08Zm-56.271-33.488,56.271,32.785L946.1,584.256V518.715l-56.259-32.771-56.271,32.771Z" transform="translate(-391.482 11038.353)" fill="#808285"/>
    <rect id="Rectangle_4362" data-name="Rectangle 4362" width="113.723" height="132.504" transform="translate(441.487 11523.593)" fill="none"/>
    <path id="Tracé_32515" data-name="Tracé 32515" d="M925.513,852.494l-14.442-8.421V827.256l14.442-8.421,14.429,8.421v16.817Zm-13.845-8.767,13.845,8.063,13.833-8.063V827.6l-13.833-8.064L911.667,827.6Z" transform="translate(-427.158 10885.975)" fill="#808285"/>
    <rect id="Rectangle_4363" data-name="Rectangle 4363" width="28.871" height="33.659" transform="translate(483.914 11704.809)" fill="none"/>
    <path id="Tracé_32516" data-name="Tracé 32516" d="M833.567,815.915V761.34l56.271-32.77L946.1,761.34v54.575h.6V760.983l-56.71-33.036-.147-.08L833.116,760.9l-.147.08v54.932Z" transform="translate(-391.482 10927.525)" fill="#808285"/>
    <rect id="Rectangle_4364" data-name="Rectangle 4364" width="113.723" height="88.048" transform="translate(441.487 11655.393)" fill="none"/>
    <path id="Tracé_32517" data-name="Tracé 32517" d="M1121.853,127.258,1093.274,110.6v-33.3l.159-.086,28.42-16.565,28.581,16.651v33.3l-.146.092Zm-27.983-17.008,27.983,16.306,27.984-16.306V77.657l-27.984-16.3-27.983,16.3Z" transform="translate(-510.384 11232.294)" fill="#808285"/>
    <rect id="Rectangle_4365" data-name="Rectangle 4365" width="57.158" height="66.603" transform="translate(582.893 11292.949)" fill="none"/>
    <path id="Tracé_32518" data-name="Tracé 32518" d="M1098.077,617.744l-.145-.094-56.71-33.036V518.37l.147-.094,56.708-33.036.16.093,56.708,33.037v66.244l-.159.08Zm-56.258-33.488,56.258,32.785,56.259-32.785V518.715l-56.259-32.771-56.258,32.771Z" transform="translate(-486.608 11038.353)" fill="#808285"/>
    <rect id="Rectangle_4366" data-name="Rectangle 4366" width="113.723" height="132.504" transform="translate(554.613 11523.593)" fill="none"/>
    <path id="Tracé_32519" data-name="Tracé 32519" d="M767.185,705.088l-37.731-21.976V551.657l112.821-65.714L955.1,551.657V683.112l-37.732,21.976h1.194l36.99-21.537.145-.094V551.313l-113.272-65.98-.147-.094L729,551.219l-.159.094V683.457l37.135,21.631Z" transform="translate(-343.92 11038.353)" fill="#808285"/>
    <rect id="Rectangle_4367" data-name="Rectangle 4367" width="226.852" height="219.848" transform="translate(384.924 11523.593)" fill="none"/>
    <path id="Tracé_32520" data-name="Tracé 32520" d="M1133.741,852.494l-14.441-8.421V827.256l14.441-8.421,14.443,8.421v16.817Zm-13.832-8.767,13.832,8.063,13.847-8.063V827.6l-13.847-8.064-13.832,8.064Z" transform="translate(-522.272 10885.975)" fill="#808285"/>
    <rect id="Rectangle_4368" data-name="Rectangle 4368" width="28.883" height="33.659" transform="translate(597.028 11704.809)" fill="none"/>
    <path id="Tracé_32521" data-name="Tracé 32521" d="M625.339,815.915V761.34L681.6,728.57l56.258,32.77v54.575h.6V760.983l-56.71-33.036-.146-.08L624.888,760.9l-.147.08v54.932Z" transform="translate(-296.368 10927.525)" fill="#808285"/>
    <rect id="Rectangle_4369" data-name="Rectangle 4369" width="113.711" height="88.048" transform="translate(328.373 11655.393)" fill="none"/>
    <path id="Tracé_32522" data-name="Tracé 32522" d="M717.262,852.494l-14.443-8.421V827.256l14.443-8.421,14.442,8.421v16.817Zm-13.846-8.767,13.846,8.063,13.846-8.063V827.6l-13.846-8.064L703.415,827.6Z" transform="translate(-332.033 10885.975)" fill="#808285"/>
    <rect id="Rectangle_4370" data-name="Rectangle 4370" width="28.884" height="33.659" transform="translate(370.787 11704.809)" fill="none"/>
    <path id="Tracé_32523" data-name="Tracé 32523" d="M625.339,815.915V761.34L681.6,728.57l56.258,32.77v54.575h.6V760.983l-56.71-33.036-.146-.08L624.888,760.9l-.147.08v54.932Z" transform="translate(-296.368 10927.525)" fill="#808285"/>
    <rect id="Rectangle_4371" data-name="Rectangle 4371" width="113.711" height="88.048" transform="translate(328.373 11655.393)" fill="none"/>
    <path id="Tracé_32524" data-name="Tracé 32524" d="M868.846,871.318l36.829-21.459,36.817,21.459H943.7l-38.023-22.161L867.64,871.318Z" transform="translate(-407.319 10872.122)" fill="#808285"/>
    <rect id="Rectangle_4372" data-name="Rectangle 4372" width="76.056" height="22.161" transform="translate(460.321 11721.279)" fill="none"/>
    <path id="Tracé_32525" data-name="Tracé 32525" d="M925.513,124.629l-14.442-8.415V99.391l.146-.086,14.3-8.329,14.429,8.415v16.823l-.145.094Zm-13.845-8.766,13.845,8.064,13.833-8.064V99.743l-13.833-8.063-13.845,8.063Z" transform="translate(-427.158 11218.444)" fill="#808285"/>
    <rect id="Rectangle_4373" data-name="Rectangle 4373" width="28.871" height="33.653" transform="translate(483.914 11309.421)" fill="none"/>
    <path id="Tracé_32526" data-name="Tracé 32526" d="M925.513,367.25l-14.442-8.408v-16.83l.146-.079,14.3-8.329,14.429,8.408v16.83l-.145.08Zm-13.845-8.767,13.845,8.065,13.833-8.065V342.371l-13.833-8.063-13.845,8.063Z" transform="translate(-427.158 11107.617)" fill="#808285"/>
    <rect id="Rectangle_4374" data-name="Rectangle 4374" width="28.871" height="33.646" transform="translate(483.914 11441.222)" fill="none"/>
    <path id="Tracé_32527" data-name="Tracé 32527" d="M889.838,617.744l-.159-.094-56.71-33.036V518.37l.147-.094,56.722-33.036.147.093,56.71,33.037v66.244l-.147.08Zm-56.271-33.488,56.271,32.785L946.1,584.256V518.715l-56.259-32.771-56.271,32.771Z" transform="translate(-391.482 11038.353)" fill="#808285"/>
    <rect id="Rectangle_4375" data-name="Rectangle 4375" width="113.723" height="132.504" transform="translate(441.487 11523.593)" fill="none"/>
    <path id="Tracé_32528" data-name="Tracé 32528" d="M1330.1,612.487l-28.581-16.644v-33.3l.147-.094,28.434-16.564,28.581,16.658v33.3l-.146.081Zm-27.982-17,27.982,16.3,27.984-16.3v-32.6l-27.984-16.3-27.982,16.3Z" transform="translate(-605.508 11010.651)" fill="#808285"/>
    <rect id="Rectangle_4376" data-name="Rectangle 4376" width="57.158" height="66.603" transform="translate(696.019 11556.535)" fill="none"/>
    <path id="Tracé_32529" data-name="Tracé 32529" d="M1098.077,739.043l-56.855-33.116V639.67l.147-.079,56.708-33.036,56.868,33.115v66.258l-.159.08Zm-56.258-33.473,56.258,32.771,56.259-32.771V640.028l-56.259-32.771-56.258,32.771Z" transform="translate(-486.608 10982.938)" fill="#808285"/>
    <rect id="Rectangle_4377" data-name="Rectangle 4377" width="113.723" height="132.489" transform="translate(554.613 11589.493)" fill="none"/>
    <path id="Tracé_32530" data-name="Tracé 32530" d="M1258.767,506.916l-.145-.094L1145.35,440.83V308.686l.146-.08,113.272-65.993.147.093,113.273,65.98V440.83l-.147.093Zm-112.822-66.431,112.822,65.727,112.823-65.727V309.043l-112.823-65.727-112.822,65.727Z" transform="translate(-534.171 11149.18)" fill="#808285"/>
    <rect id="Rectangle_4378" data-name="Rectangle 4378" width="226.838" height="264.305" transform="translate(611.179 11391.792)" fill="none"/>
    <path id="Tracé_32531" data-name="Tracé 32531" d="M1133.741,367.25l-14.441-8.408v-16.83l.158-.079,14.282-8.329,14.443,8.408v16.83l-.146.08Zm-13.832-8.767,13.832,8.065,13.847-8.065V342.371l-13.847-8.063-13.832,8.063Z" transform="translate(-522.272 11107.617)" fill="#808285"/>
    <rect id="Rectangle_4379" data-name="Rectangle 4379" width="28.883" height="33.646" transform="translate(597.028 11441.222)" fill="none"/>
    <path id="Tracé_32532" data-name="Tracé 32532" d="M1514.571,375.116l-.159-.093-56.71-33.036V275.741l.145-.092,56.724-33.038.145.093,56.71,33.036v66.245l-.146.094ZM1458.3,341.641l56.272,32.771,56.258-32.771V276.086l-56.258-32.771L1458.3,276.086Z" transform="translate(-676.847 11149.18)" fill="#808285"/>
    <rect id="Rectangle_4380" data-name="Rectangle 4380" width="113.723" height="132.504" transform="translate(780.854 11391.792)" fill="none"/>
    <path id="Tracé_32533" data-name="Tracé 32533" d="M1330.1,733.8l-28.581-16.656V683.855l.147-.092L1330.1,667.2l28.581,16.658v33.289l-.146.092Zm-27.982-17,27.982,16.3,27.984-16.3V684.2L1330.1,667.9l-27.982,16.3Z" transform="translate(-605.508 10955.238)" fill="#808285"/>
    <rect id="Rectangle_4381" data-name="Rectangle 4381" width="57.158" height="66.603" transform="translate(696.019 11622.436)" fill="none"/>
    <path id="Tracé_32534" data-name="Tracé 32534" d="M1306.318,496.429l-.145-.092L1249.45,463.3V397.055l.159-.092,56.709-33.037.147.092,56.709,33.037V463.3l-.146.092Zm-56.259-33.473,56.259,32.771,56.259-32.771V397.4l-56.259-32.771L1250.06,397.4Z" transform="translate(-581.722 11093.767)" fill="#808285"/>
    <rect id="Rectangle_4382" data-name="Rectangle 4382" width="113.723" height="132.503" transform="translate(667.728 11457.692)" fill="none"/>
    <path id="Tracé_32535" data-name="Tracé 32535" d="M1285.324,871.318l36.829-21.459,36.829,21.459h1.206l-38.036-22.161-38.036,22.161Z" transform="translate(-597.557 10872.122)" fill="#808285"/>
    <rect id="Rectangle_4383" data-name="Rectangle 4383" width="76.073" height="22.161" transform="translate(686.562 11721.279)" fill="none"/>
    <path id="Tracé_32536" data-name="Tracé 32536" d="M1041.819,815.915V761.34l56.258-32.77,56.259,32.77v54.575h.61V760.983l-56.708-33.036-.16-.08L1041.369,760.9l-.147.08v54.932Z" transform="translate(-486.608 10927.525)" fill="#808285"/>
    <rect id="Rectangle_4384" data-name="Rectangle 4384" width="113.723" height="88.048" transform="translate(554.613 11655.393)" fill="none"/>
    <path id="Tracé_32537" data-name="Tracé 32537" d="M1306.318,739.043l-56.868-33.116V639.67l.159-.079,56.709-33.036,56.856,33.115v66.258l-.146.08Zm-56.259-33.473,56.259,32.771,56.259-32.771V640.028l-56.259-32.771-56.259,32.771Z" transform="translate(-581.722 10982.938)" fill="#808285"/>
    <rect id="Rectangle_4385" data-name="Rectangle 4385" width="113.723" height="132.489" transform="translate(667.728 11589.493)" fill="none"/>
    <path id="Tracé_32538" data-name="Tracé 32538" d="M1519.806,843.616l-9.442-5.5v-32.6l27.983-16.3,27.97,16.3v32.6l-9.442,5.5h1.194l8.858-5.159v-33.3l-28.58-16.644-28.594,16.644v33.3l8.86,5.159Z" transform="translate(-700.622 10899.824)" fill="#808285"/>
    <rect id="Rectangle_4386" data-name="Rectangle 4386" width="57.174" height="55.104" transform="translate(809.129 11688.336)" fill="none"/>
    <path id="Tracé_32539" data-name="Tracé 32539" d="M1285.324,871.318l36.829-21.459,36.829,21.459h1.206l-38.036-22.161-38.036,22.161Z" transform="translate(-597.557 10872.122)" fill="#808285"/>
    <rect id="Rectangle_4387" data-name="Rectangle 4387" width="76.073" height="22.161" transform="translate(686.562 11721.279)" fill="none"/>
    <path id="Tracé_32540" data-name="Tracé 32540" d="M1341.993,124.629l-14.443-8.415V99.391l.147-.086,14.3-8.329,14.443,8.415v16.823l-.159.094Zm-13.845-8.766,13.845,8.064,13.833-8.064V99.743l-13.833-8.063-13.845,8.063Z" transform="translate(-617.396 11218.444)" fill="#808285"/>
    <rect id="Rectangle_4388" data-name="Rectangle 4388" width="28.883" height="33.653" transform="translate(710.154 11309.421)" fill="none"/>
    <path id="Tracé_32541" data-name="Tracé 32541" d="M1306.318,132.5l-.145-.092L1249.45,99.367V33.121l.159-.086L1306.318,0l.147.086,56.709,33.036V99.367l-.146.092ZM1250.06,99.022l56.259,32.77,56.259-32.77V33.473L1306.318.7,1250.06,33.473Z" transform="translate(-581.722 11260)" fill="#808285"/>
    <rect id="Rectangle_4389" data-name="Rectangle 4389" width="113.723" height="132.496" transform="translate(667.728 11259.999)" fill="none"/>
    <path id="Tracé_32542" data-name="Tracé 32542" d="M1722.809,132.5l-.145-.092-56.71-33.036V33.121l.146-.086L1722.809,0l56.869,33.122V99.367l-.159.092ZM1666.55,99.022l56.259,32.77,56.259-32.77V33.473L1722.809.7,1666.55,33.473Z" transform="translate(-771.972 11260)" fill="#808285"/>
    <rect id="Rectangle_4390" data-name="Rectangle 4390" width="113.723" height="132.496" transform="translate(893.98 11259.999)" fill="none"/>
    <path id="Tracé_32543" data-name="Tracé 32543" d="M1722.809,375.116l-56.855-33.129V275.741l.146-.092,56.709-33.038,56.869,33.129v66.245l-.159.094Zm-56.259-33.474,56.259,32.771,56.259-32.771V276.086l-56.259-32.771-56.259,32.771Z" transform="translate(-771.972 11149.18)" fill="#808285"/>
    <rect id="Rectangle_4391" data-name="Rectangle 4391" width="113.723" height="132.504" transform="translate(893.98 11391.792)" fill="none"/>
    <path id="Tracé_32544" data-name="Tracé 32544" d="M1467.009,506.916l-.159-.094L1353.578,440.83V308.686l.159-.08,113.273-65.993.144.093,113.275,65.98V440.83l-.147.093Zm-112.822-66.431,112.822,65.727,112.822-65.727V309.043l-112.822-65.727-112.822,65.727Z" transform="translate(-629.285 11149.18)" fill="#808285"/>
    <rect id="Rectangle_4392" data-name="Rectangle 4392" width="226.849" height="264.305" transform="translate(724.294 11391.792)" fill="none"/>
    <path id="Tracé_32545" data-name="Tracé 32545" d="M1341.993,367.25l-14.443-8.408v-16.83l.147-.079,14.3-8.329,14.443,8.408v16.83l-.159.08Zm-13.845-8.767,13.845,8.065,13.833-8.065V342.371l-13.833-8.063-13.845,8.063Z" transform="translate(-617.396 11107.617)" fill="#808285"/>
    <rect id="Rectangle_4393" data-name="Rectangle 4393" width="28.883" height="33.646" transform="translate(710.154 11441.222)" fill="none"/>
    <path id="Tracé_32546" data-name="Tracé 32546" d="M1341.993,609.878l-14.443-8.422V584.64l.147-.092,14.3-8.316,14.443,8.408v16.816l-.159.092Zm-13.845-8.766,13.845,8.064,13.833-8.064V584.985l-13.833-8.063-13.845,8.063Z" transform="translate(-617.396 10996.789)" fill="#808285"/>
    <rect id="Rectangle_4394" data-name="Rectangle 4394" width="28.883" height="33.646" transform="translate(710.154 11573.021)" fill="none"/>
    <path id="Tracé_32547" data-name="Tracé 32547" d="M1758.473,852.494l-14.443-8.421V827.256l14.443-8.421,14.443,8.421v16.817Zm-13.834-8.767,13.834,8.063,13.845-8.063V827.6l-13.845-8.064-13.834,8.064Z" transform="translate(-807.635 10885.975)" fill="#808285"/>
    <rect id="Rectangle_4395" data-name="Rectangle 4395" width="28.883" height="33.659" transform="translate(936.395 11704.809)" fill="none"/>
    <path id="Tracé_32548" data-name="Tracé 32548" d="M1550.245,367.25l-14.443-8.408v-16.83l.147-.079,14.3-8.329,14.429,8.408v16.83l-.146.08Zm-13.846-8.767,13.846,8.065,13.833-8.065V342.371l-13.833-8.063-13.846,8.063Z" transform="translate(-712.521 11107.617)" fill="#808285"/>
    <rect id="Rectangle_4396" data-name="Rectangle 4396" width="28.872" height="33.646" transform="translate(823.28 11441.222)" fill="none"/>
    <path id="Tracé_32549" data-name="Tracé 32549" d="M1514.571,375.116l-.159-.093-56.71-33.036V275.741l.145-.092,56.724-33.038.145.093,56.71,33.036v66.245l-.146.094ZM1458.3,341.641l56.272,32.771,56.258-32.771V276.086l-56.258-32.771L1458.3,276.086Z" transform="translate(-676.847 11149.18)" fill="#808285"/>
    <rect id="Rectangle_4397" data-name="Rectangle 4397" width="113.723" height="132.504" transform="translate(780.854 11391.792)" fill="none"/>
    <path id="Tracé_32550" data-name="Tracé 32550" d="M1904.9,614.615l-30.105-17.546V531.528l30.105-17.546v-.69l-30.556,17.8-.159.094v66.244l30.716,17.891Z" transform="translate(-867.086 11025.539)" fill="#808285"/>
    <rect id="Rectangle_4398" data-name="Rectangle 4398" width="30.714" height="102.027" transform="translate(1007.095 11538.831)" fill="none"/>
    <path id="Tracé_32551" data-name="Tracé 32551" d="M1722.809,739.043l-56.855-33.116V639.67l.146-.079,56.709-33.036,56.869,33.115v66.258l-.159.08Zm-56.259-33.473,56.259,32.771,56.259-32.771V640.028l-56.259-32.771-56.259,32.771Z" transform="translate(-771.972 10982.938)" fill="#808285"/>
    <rect id="Rectangle_4399" data-name="Rectangle 4399" width="113.723" height="132.489" transform="translate(893.98 11589.493)" fill="none"/>
    <path id="Tracé_32552" data-name="Tracé 32552" d="M1928.684,609.361l-1.831-1.062V575.7l1.831-1.062v-.7l-2.282,1.325-.146.094v33.3l2.427,1.405Z" transform="translate(-890.873 10997.837)" fill="#808285"/>
    <rect id="Rectangle_4400" data-name="Rectangle 4400" width="2.423" height="36.126" transform="translate(1035.386 11571.774)" fill="none"/>
    <path id="Tracé_32553" data-name="Tracé 32553" d="M1701.8,871.318l36.829-21.459,36.829,21.459h1.207l-38.036-22.161L1700.6,871.318Z" transform="translate(-787.796 10872.122)" fill="#808285"/>
    <rect id="Rectangle_4401" data-name="Rectangle 4401" width="76.073" height="22.161" transform="translate(912.803 11721.279)" fill="none"/>
    <path id="Tracé_32554" data-name="Tracé 32554" d="M1458.3,815.915V761.34l56.272-32.77,56.258,32.77v54.575h.6V760.983l-56.71-33.036-.144-.08-56.71,33.036-.159.08v54.932Z" transform="translate(-676.847 10927.525)" fill="#808285"/>
    <rect id="Rectangle_4402" data-name="Rectangle 4402" width="113.723" height="88.048" transform="translate(780.854 11655.393)" fill="none"/>
    <path id="Tracé_32555" data-name="Tracé 32555" d="M1722.809,739.043l-56.855-33.116V639.67l.146-.079,56.709-33.036,56.869,33.115v66.258l-.159.08Zm-56.259-33.473,56.259,32.771,56.259-32.771V640.028l-56.259-32.771-56.259,32.771Z" transform="translate(-771.972 10982.938)" fill="#808285"/>
    <rect id="Rectangle_4403" data-name="Rectangle 4403" width="113.723" height="132.489" transform="translate(893.98 11589.493)" fill="none"/>
    <path id="Tracé_32556" data-name="Tracé 32556" d="M1857.345,503.788,1770.677,453.3V321.857l86.668-50.488v-.7l-87.119,50.754-.147.081V453.644l87.267,50.848Z" transform="translate(-819.534 11136.365)" fill="#808285"/>
    <rect id="Rectangle_4404" data-name="Rectangle 4404" width="87.263" height="233.827" transform="translate(950.546 11407.03)" fill="none"/>
    <path id="Tracé_32557" data-name="Tracé 32557" d="M1808.408,717.9l-37.731-21.976V564.47l86.668-50.489v-.69l-87.119,50.741-.147.094V696.271L1807.2,717.9Z" transform="translate(-819.534 11025.539)" fill="#808285"/>
    <rect id="Rectangle_4405" data-name="Rectangle 4405" width="87.263" height="204.61" transform="translate(950.546 11538.831)" fill="none"/>
    <path id="Tracé_32558" data-name="Tracé 32558" d="M1904.9,493.3l-30.105-17.532V410.214l30.105-17.532v-.7l-30.556,17.8-.159.092v66.246l30.716,17.891Z" transform="translate(-867.086 11080.951)" fill="#808285"/>
    <rect id="Rectangle_4406" data-name="Rectangle 4406" width="30.714" height="102.027" transform="translate(1007.095 11472.931)" fill="none"/>
    <path id="Tracé_32559" data-name="Tracé 32559" d="M1910.057,884.13l10.676-6.22v-.7l-11.883,6.923Z" transform="translate(-882.921 10859.311)" fill="#808285"/>
    <rect id="Rectangle_4407" data-name="Rectangle 4407" width="11.88" height="6.923" transform="translate(1025.928 11736.518)" fill="none"/>
    <path id="Tracé_32560" data-name="Tracé 32560" d="M1910.057,884.13l10.676-6.22v-.7l-11.883,6.923Z" transform="translate(-882.921 10859.311)" fill="#808285"/>
    <rect id="Rectangle_4408" data-name="Rectangle 4408" width="11.88" height="6.923" transform="translate(1025.928 11736.518)" fill="none"/>
    <path id="Tracé_32561" data-name="Tracé 32561" d="M1904.9,129.381l-30.105-17.546V46.286l30.105-17.54v-.7l-30.556,17.8-.159.085V112.18l30.716,17.89Z" transform="translate(-867.086 11247.188)" fill="#808285"/>
    <rect id="Rectangle_4409" data-name="Rectangle 4409" width="30.714" height="102.02" transform="translate(1007.095 11275.235)" fill="none"/>
    <path id="Tracé_32562" data-name="Tracé 32562" d="M1874.792,828.717V774.142L1904.9,756.6v-.7l-30.556,17.811-.159.081v54.932Z" transform="translate(-867.086 10914.725)" fill="#808285"/>
    <rect id="Rectangle_4410" data-name="Rectangle 4410" width="30.714" height="72.823" transform="translate(1007.095 11670.619)" fill="none"/>
    <path id="Tracé_32563" data-name="Tracé 32563" d="M495.7,376.68a3.608,3.608,0,1,1-3.608-3.648,3.625,3.625,0,0,1,3.608,3.648" transform="translate(-234.13 11089.606)" fill="#808285"/>
    <rect id="Rectangle_4411" data-name="Rectangle 4411" width="7.216" height="7.282" transform="translate(254.357 11462.639)" fill="none"/>
    <path id="Tracé_32564" data-name="Tracé 32564" d="M521.728,391.841a3.607,3.607,0,1,1-3.607-3.647,3.616,3.616,0,0,1,3.607,3.647" transform="translate(-246.019 11082.681)" fill="#808285"/>
    <rect id="Rectangle_4412" data-name="Rectangle 4412" width="7.214" height="7.281" transform="translate(268.496 11470.875)" fill="none"/>
    <path id="Tracé_32565" data-name="Tracé 32565" d="M547.767,376.68a3.614,3.614,0,1,1-3.621-3.648,3.628,3.628,0,0,1,3.621,3.648" transform="translate(-257.907 11089.606)" fill="#808285"/>
    <rect id="Rectangle_4413" data-name="Rectangle 4413" width="7.228" height="7.282" transform="translate(282.633 11462.639)" fill="none"/>
    <path id="Tracé_32566" data-name="Tracé 32566" d="M105.248,482.819a3.607,3.607,0,1,1-3.606-3.634,3.623,3.623,0,0,1,3.606,3.634" transform="translate(-55.78 11041.118)" fill="#808285"/>
    <rect id="Rectangle_4414" data-name="Rectangle 4414" width="7.214" height="7.282" transform="translate(42.255 11520.303)" fill="none"/>
    <path id="Tracé_32567" data-name="Tracé 32567" d="M79.217,346.345a3.61,3.61,0,1,1-3.607-3.633,3.628,3.628,0,0,1,3.607,3.633" transform="translate(-43.887 11103.456)" fill="#808285"/>
    <rect id="Rectangle_4415" data-name="Rectangle 4415" width="7.221" height="7.28" transform="translate(28.11 11446.168)" fill="none"/>
    <path id="Tracé_32568" data-name="Tracé 32568" d="M365.551,755.769a3.607,3.607,0,1,1-3.607-3.634,3.623,3.623,0,0,1,3.607,3.634" transform="translate(-174.681 10916.44)" fill="#808285"/>
    <rect id="Rectangle_4416" data-name="Rectangle 4416" width="7.214" height="7.281" transform="translate(183.656 11668.575)" fill="none"/>
    <path id="Tracé_32569" data-name="Tracé 32569" d="M209.369,786.091a3.611,3.611,0,1,1-3.608-3.634,3.628,3.628,0,0,1,3.608,3.634" transform="translate(-103.336 10902.59)" fill="#808285"/>
    <rect id="Rectangle_4417" data-name="Rectangle 4417" width="7.222" height="7.281" transform="translate(98.811 11685.047)" fill="none"/>
    <path id="Tracé_32570" data-name="Tracé 32570" d="M417.615,664.791a3.608,3.608,0,1,1-3.609-3.647,3.625,3.625,0,0,1,3.609,3.647" transform="translate(-198.462 10958.004)" fill="#808285"/>
    <rect id="Rectangle_4418" data-name="Rectangle 4418" width="7.215" height="7.28" transform="translate(211.938 11619.148)" fill="none"/>
    <path id="Tracé_32571" data-name="Tracé 32571" d="M209.369,664.791a3.611,3.611,0,1,1-3.608-3.647,3.625,3.625,0,0,1,3.608,3.647" transform="translate(-103.336 10958.004)" fill="#808285"/>
    <rect id="Rectangle_4419" data-name="Rectangle 4419" width="7.222" height="7.28" transform="translate(98.811 11619.148)" fill="none"/>
    <path id="Tracé_32572" data-name="Tracé 32572" d="M313.5,361.506a3.61,3.61,0,1,1-3.614-3.634,3.629,3.629,0,0,1,3.614,3.634" transform="translate(-150.9 11096.531)" fill="#808285"/>
    <rect id="Rectangle_4420" data-name="Rectangle 4420" width="7.22" height="7.281" transform="translate(155.375 11454.403)" fill="none"/>
    <path id="Tracé_32573" data-name="Tracé 32573" d="M313.5,118.892a3.61,3.61,0,1,1-3.614-3.648,3.627,3.627,0,0,1,3.614,3.648" transform="translate(-150.9 11207.359)" fill="#808285"/>
    <rect id="Rectangle_4421" data-name="Rectangle 4421" width="7.22" height="7.288" transform="translate(155.375 11322.604)" fill="none"/>
    <path id="Tracé_32574" data-name="Tracé 32574" d="M417.615,179.549a3.608,3.608,0,1,1-3.609-3.634,3.624,3.624,0,0,1,3.609,3.634" transform="translate(-198.462 11179.646)" fill="#808285"/>
    <rect id="Rectangle_4422" data-name="Rectangle 4422" width="7.215" height="7.28" transform="translate(211.938 11355.561)" fill="none"/>
    <path id="Tracé_32575" data-name="Tracé 32575" d="M209.369,58.24a3.611,3.611,0,1,1-3.608-3.641,3.628,3.628,0,0,1,3.608,3.641" transform="translate(-103.336 11235.06)" fill="#808285"/>
    <rect id="Rectangle_4423" data-name="Rectangle 4423" width="7.222" height="7.281" transform="translate(98.811 11289.659)" fill="none"/>
    <path id="Tracé_32576" data-name="Tracé 32576" d="M521.728,543.478a3.607,3.607,0,1,1-3.607-3.648,3.617,3.617,0,0,1,3.607,3.648" transform="translate(-246.019 11013.416)" fill="#808285"/>
    <rect id="Rectangle_4424" data-name="Rectangle 4424" width="7.214" height="7.282" transform="translate(268.496 11553.246)" fill="none"/>
    <path id="Tracé_32577" data-name="Tracé 32577" d="M573.792,452.486a3.614,3.614,0,1,1-3.608-3.646,3.629,3.629,0,0,1,3.608,3.646" transform="translate(-269.794 11054.979)" fill="#808285"/>
    <rect id="Rectangle_4425" data-name="Rectangle 4425" width="7.228" height="7.294" transform="translate(296.77 11503.818)" fill="none"/>
    <path id="Tracé_32578" data-name="Tracé 32578" d="M469.678,452.486a3.608,3.608,0,1,1-3.608-3.646,3.629,3.629,0,0,1,3.608,3.646" transform="translate(-222.243 11054.979)" fill="#808285"/>
    <rect id="Rectangle_4426" data-name="Rectangle 4426" width="7.216" height="7.294" transform="translate(240.219 11503.818)" fill="none"/>
    <path id="Tracé_32579" data-name="Tracé 32579" d="M677.918,391.841a3.615,3.615,0,1,1-3.609-3.647,3.625,3.625,0,0,1,3.609,3.647" transform="translate(-317.356 11082.681)" fill="#808285"/>
    <rect id="Rectangle_4427" data-name="Rectangle 4427" width="7.229" height="7.281" transform="translate(353.333 11470.875)" fill="none"/>
    <path id="Tracé_32580" data-name="Tracé 32580" d="M729.98,422.163a3.608,3.608,0,1,1-3.607-3.646,3.616,3.616,0,0,1,3.607,3.646" transform="translate(-341.143 11068.831)" fill="#808285"/>
    <rect id="Rectangle_4428" data-name="Rectangle 4428" width="7.215" height="7.28" transform="translate(381.622 11487.348)" fill="none"/>
    <path id="Tracé_32581" data-name="Tracé 32581" d="M625.855,664.791a3.608,3.608,0,1,1-3.609-3.647,3.626,3.626,0,0,1,3.609,3.647" transform="translate(-293.581 10958.004)" fill="#808285"/>
    <rect id="Rectangle_4429" data-name="Rectangle 4429" width="7.215" height="7.28" transform="translate(325.059 11619.148)" fill="none"/>
    <path id="Tracé_32582" data-name="Tracé 32582" d="M729.98,846.748a3.608,3.608,0,1,1-3.607-3.646,3.625,3.625,0,0,1,3.607,3.646" transform="translate(-341.143 10874.889)" fill="#808285"/>
    <rect id="Rectangle_4430" data-name="Rectangle 4430" width="7.215" height="7.281" transform="translate(381.622 11717.99)" fill="none"/>
    <path id="Tracé_32583" data-name="Tracé 32583" d="M521.728,725.435a3.607,3.607,0,1,1-3.607-3.648,3.62,3.62,0,0,1,3.607,3.648" transform="translate(-246.019 10930.303)" fill="#808285"/>
    <rect id="Rectangle_4431" data-name="Rectangle 4431" width="7.214" height="7.294" transform="translate(268.496 11652.09)" fill="none"/>
    <path id="Tracé_32584" data-name="Tracé 32584" d="M677.918,877.071a3.615,3.615,0,1,1-3.609-3.646,3.629,3.629,0,0,1,3.609,3.646" transform="translate(-317.356 10861.037)" fill="#808285"/>
    <rect id="Rectangle_4432" data-name="Rectangle 4432" width="7.229" height="7.294" transform="translate(353.333 11734.462)" fill="none"/>
    <path id="Tracé_32585" data-name="Tracé 32585" d="M521.728,88.563a3.607,3.607,0,1,1-3.607-3.641,3.615,3.615,0,0,1,3.607,3.641" transform="translate(-246.019 11221.208)" fill="#808285"/>
    <rect id="Rectangle_4433" data-name="Rectangle 4433" width="7.214" height="7.282" transform="translate(268.496 11306.13)" fill="none"/>
    <path id="Tracé_32586" data-name="Tracé 32586" d="M782.044,513.141a3.614,3.614,0,1,1-3.621-3.634,3.632,3.632,0,0,1,3.621,3.634" transform="translate(-364.919 11027.268)" fill="#808285"/>
    <rect id="Rectangle_4434" data-name="Rectangle 4434" width="7.228" height="7.282" transform="translate(409.897 11536.774)" fill="none"/>
    <path id="Tracé_32587" data-name="Tracé 32587" d="M677.918,452.486a3.615,3.615,0,1,1-3.609-3.646,3.629,3.629,0,0,1,3.609,3.646" transform="translate(-317.356 11054.979)" fill="#808285"/>
    <rect id="Rectangle_4435" data-name="Rectangle 4435" width="7.229" height="7.294" transform="translate(353.333 11503.818)" fill="none"/>
    <path id="Tracé_32588" data-name="Tracé 32588" d="M495.7,376.68a3.608,3.608,0,1,1-3.608-3.648,3.625,3.625,0,0,1,3.608,3.648" transform="translate(-234.13 11089.606)" fill="#808285"/>
    <rect id="Rectangle_4436" data-name="Rectangle 4436" width="7.216" height="7.282" transform="translate(254.357 11462.639)" fill="none"/>
    <path id="Tracé_32589" data-name="Tracé 32589" d="M547.767,588.961a3.614,3.614,0,1,1-3.621-3.647,3.632,3.632,0,0,1,3.621,3.647" transform="translate(-257.907 10992.641)" fill="#808285"/>
    <rect id="Rectangle_4437" data-name="Rectangle 4437" width="7.228" height="7.294" transform="translate(282.633 11577.955)" fill="none"/>
    <path id="Tracé_32590" data-name="Tracé 32590" d="M834.106,664.791a3.607,3.607,0,1,1-3.608-3.647,3.625,3.625,0,0,1,3.608,3.647" transform="translate(-388.706 10958.004)" fill="#808285"/>
    <rect id="Rectangle_4438" data-name="Rectangle 4438" width="7.214" height="7.28" transform="translate(438.186 11619.148)" fill="none"/>
    <path id="Tracé_32591" data-name="Tracé 32591" d="M938.221,725.435a3.615,3.615,0,1,1-3.609-3.648,3.629,3.629,0,0,1,3.609,3.648" transform="translate(-436.257 10930.303)" fill="#808285"/>
    <rect id="Rectangle_4439" data-name="Rectangle 4439" width="7.229" height="7.294" transform="translate(494.735 11652.09)" fill="none"/>
    <path id="Tracé_32592" data-name="Tracé 32592" d="M1042.347,664.791a3.614,3.614,0,1,1-3.621-3.647,3.628,3.628,0,0,1,3.621,3.647" transform="translate(-483.82 10958.004)" fill="#808285"/>
    <rect id="Rectangle_4440" data-name="Rectangle 4440" width="7.23" height="7.28" transform="translate(551.299 11619.148)" fill="none"/>
    <path id="Tracé_32593" data-name="Tracé 32593" d="M1042.347,543.478a3.614,3.614,0,1,1-3.621-3.648,3.629,3.629,0,0,1,3.621,3.648" transform="translate(-483.82 11013.416)" fill="#808285"/>
    <rect id="Rectangle_4441" data-name="Rectangle 4441" width="7.23" height="7.282" transform="translate(551.299 11553.246)" fill="none"/>
    <path id="Tracé_32594" data-name="Tracé 32594" d="M938.221,482.819a3.615,3.615,0,1,1-3.609-3.634,3.629,3.629,0,0,1,3.609,3.634" transform="translate(-436.257 11041.118)" fill="#808285"/>
    <rect id="Rectangle_4442" data-name="Rectangle 4442" width="7.229" height="7.282" transform="translate(494.735 11520.303)" fill="none"/>
    <path id="Tracé_32595" data-name="Tracé 32595" d="M912.2,831.587a3.615,3.615,0,1,1-3.62-3.648,3.629,3.629,0,0,1,3.62,3.648" transform="translate(-424.369 10881.815)" fill="#808285"/>
    <rect id="Rectangle_4443" data-name="Rectangle 4443" width="7.229" height="7.282" transform="translate(480.597 11709.755)" fill="none"/>
    <path id="Tracé_32596" data-name="Tracé 32596" d="M1146.46,58.24a3.608,3.608,0,1,1-3.609-3.641,3.619,3.619,0,0,1,3.609,3.641" transform="translate(-531.383 11235.06)" fill="#808285"/>
    <rect id="Rectangle_4444" data-name="Rectangle 4444" width="7.219" height="7.281" transform="translate(607.86 11289.659)" fill="none"/>
    <path id="Tracé_32597" data-name="Tracé 32597" d="M1146.46,725.435a3.608,3.608,0,1,1-3.609-3.648,3.62,3.62,0,0,1,3.609,3.648" transform="translate(-531.383 10930.303)" fill="#808285"/>
    <rect id="Rectangle_4445" data-name="Rectangle 4445" width="7.219" height="7.294" transform="translate(607.86 11652.09)" fill="none"/>
    <path id="Tracé_32598" data-name="Tracé 32598" d="M729.98,846.748a3.608,3.608,0,1,1-3.607-3.646,3.625,3.625,0,0,1,3.607,3.646" transform="translate(-341.143 10874.889)" fill="#808285"/>
    <rect id="Rectangle_4446" data-name="Rectangle 4446" width="7.215" height="7.281" transform="translate(381.622 11717.99)" fill="none"/>
    <path id="Tracé_32599" data-name="Tracé 32599" d="M1120.435,861.909a3.608,3.608,0,1,1-3.609-3.648,3.629,3.629,0,0,1,3.609,3.648" transform="translate(-519.494 10867.965)" fill="#808285"/>
    <rect id="Rectangle_4447" data-name="Rectangle 4447" width="7.214" height="7.294" transform="translate(593.725 11726.227)" fill="none"/>
    <path id="Tracé_32600" data-name="Tracé 32600" d="M703.955,861.909a3.608,3.608,0,1,1-3.607-3.648,3.628,3.628,0,0,1,3.607,3.648" transform="translate(-329.256 10867.965)" fill="#808285"/>
    <rect id="Rectangle_4448" data-name="Rectangle 4448" width="7.215" height="7.294" transform="translate(367.484 11726.227)" fill="none"/>
    <path id="Tracé_32601" data-name="Tracé 32601" d="M912.2,134.06a3.615,3.615,0,1,1-3.62-3.64,3.63,3.63,0,0,1,3.62,3.64" transform="translate(-424.369 11200.428)" fill="#808285"/>
    <rect id="Rectangle_4449" data-name="Rectangle 4449" width="7.229" height="7.28" transform="translate(480.597 11330.848)" fill="none"/>
    <path id="Tracé_32602" data-name="Tracé 32602" d="M938.221,331.184a3.615,3.615,0,1,1-3.609-3.634,3.629,3.629,0,0,1,3.609,3.634" transform="translate(-436.257 11110.383)" fill="#808285"/>
    <rect id="Rectangle_4450" data-name="Rectangle 4450" width="7.229" height="7.281" transform="translate(494.735 11437.931)" fill="none"/>
    <path id="Tracé_32603" data-name="Tracé 32603" d="M1354.712,664.791a3.607,3.607,0,1,1-3.607-3.647,3.624,3.624,0,0,1,3.607,3.647" transform="translate(-626.508 10958.004)" fill="#808285"/>
    <rect id="Rectangle_4451" data-name="Rectangle 4451" width="7.214" height="7.28" transform="translate(720.991 11619.148)" fill="none"/>
    <path id="Tracé_32604" data-name="Tracé 32604" d="M1250.587,664.791a3.607,3.607,0,1,1-3.607-3.647,3.624,3.624,0,0,1,3.607,3.647" transform="translate(-578.946 10958.004)" fill="#808285"/>
    <rect id="Rectangle_4452" data-name="Rectangle 4452" width="7.214" height="7.28" transform="translate(664.425 11619.148)" fill="none"/>
    <path id="Tracé_32605" data-name="Tracé 32605" d="M1146.46,604.122a3.608,3.608,0,1,1-3.609-3.648,3.62,3.62,0,0,1,3.609,3.648" transform="translate(-531.383 10985.716)" fill="#808285"/>
    <rect id="Rectangle_4453" data-name="Rectangle 4453" width="7.219" height="7.294" transform="translate(607.86 11586.189)" fill="none"/>
    <path id="Tracé_32606" data-name="Tracé 32606" d="M1146.46,361.506a3.608,3.608,0,1,1-3.609-3.634,3.62,3.62,0,0,1,3.609,3.634" transform="translate(-531.383 11096.531)" fill="#808285"/>
    <rect id="Rectangle_4454" data-name="Rectangle 4454" width="7.219" height="7.281" transform="translate(607.86 11454.403)" fill="none"/>
    <path id="Tracé_32607" data-name="Tracé 32607" d="M1172.5,376.68a3.615,3.615,0,1,1-3.621-3.648,3.629,3.629,0,0,1,3.621,3.648" transform="translate(-543.27 11089.606)" fill="#808285"/>
    <rect id="Rectangle_4455" data-name="Rectangle 4455" width="7.23" height="7.282" transform="translate(622 11462.639)" fill="none"/>
    <path id="Tracé_32608" data-name="Tracé 32608" d="M1562.953,240.206a3.614,3.614,0,1,1-3.607-3.647,3.624,3.624,0,0,1,3.607,3.647" transform="translate(-721.622 11151.944)" fill="#808285"/>
    <rect id="Rectangle_4456" data-name="Rectangle 4456" width="7.23" height="7.281" transform="translate(834.101 11388.503)" fill="none"/>
    <path id="Tracé_32609" data-name="Tracé 32609" d="M1458.838,300.85a3.608,3.608,0,1,1-3.607-3.648,3.628,3.628,0,0,1,3.607,3.648" transform="translate(-674.07 11124.244)" fill="#808285"/>
    <rect id="Rectangle_4457" data-name="Rectangle 4457" width="7.214" height="7.294" transform="translate(777.551 11421.446)" fill="none"/>
    <path id="Tracé_32610" data-name="Tracé 32610" d="M1302.65,695.113a3.614,3.614,0,1,1-3.607-3.648,3.624,3.624,0,0,1,3.607,3.648" transform="translate(-602.721 10944.154)" fill="#808285"/>
    <rect id="Rectangle_4458" data-name="Rectangle 4458" width="7.23" height="7.282" transform="translate(692.7 11635.618)" fill="none"/>
    <path id="Tracé_32611" data-name="Tracé 32611" d="M1458.838,543.478a3.608,3.608,0,1,1-3.607-3.648,3.626,3.626,0,0,1,3.607,3.648" transform="translate(-674.07 11013.416)" fill="#808285"/>
    <rect id="Rectangle_4459" data-name="Rectangle 4459" width="7.214" height="7.282" transform="translate(777.551 11553.246)" fill="none"/>
    <path id="Tracé_32612" data-name="Tracé 32612" d="M1354.712,846.748a3.607,3.607,0,1,1-3.607-3.646,3.625,3.625,0,0,1,3.607,3.646" transform="translate(-626.508 10874.889)" fill="#808285"/>
    <rect id="Rectangle_4460" data-name="Rectangle 4460" width="7.214" height="7.281" transform="translate(720.991 11717.99)" fill="none"/>
    <path id="Tracé_32613" data-name="Tracé 32613" d="M1146.46,725.435a3.608,3.608,0,1,1-3.609-3.648,3.62,3.62,0,0,1,3.609,3.648" transform="translate(-531.383 10930.303)" fill="#808285"/>
    <rect id="Rectangle_4461" data-name="Rectangle 4461" width="7.219" height="7.294" transform="translate(607.86 11652.09)" fill="none"/>
    <path id="Tracé_32614" data-name="Tracé 32614" d="M1458.827,786.091a3.614,3.614,0,1,1-3.607-3.634,3.628,3.628,0,0,1,3.607,3.634" transform="translate(-674.059 10902.59)" fill="#808285"/>
    <rect id="Rectangle_4462" data-name="Rectangle 4462" width="7.225" height="7.281" transform="translate(777.541 11685.047)" fill="none"/>
    <path id="Tracé_32615" data-name="Tracé 32615" d="M1250.587,664.791a3.607,3.607,0,1,1-3.607-3.647,3.624,3.624,0,0,1,3.607,3.647" transform="translate(-578.946 10958.004)" fill="#808285"/>
    <rect id="Rectangle_4463" data-name="Rectangle 4463" width="7.214" height="7.28" transform="translate(664.425 11619.148)" fill="none"/>
    <path id="Tracé_32616" data-name="Tracé 32616" d="M1615.015,877.071a3.608,3.608,0,1,1-3.609-3.646,3.629,3.629,0,0,1,3.609,3.646" transform="translate(-745.408 10861.037)" fill="#808285"/>
    <rect id="Rectangle_4464" data-name="Rectangle 4464" width="7.214" height="7.294" transform="translate(862.391 11734.462)" fill="none"/>
    <path id="Tracé_32617" data-name="Tracé 32617" d="M1562.953,786.091a3.614,3.614,0,1,1-3.607-3.634,3.627,3.627,0,0,1,3.607,3.634" transform="translate(-721.622 10902.59)" fill="#808285"/>
    <rect id="Rectangle_4465" data-name="Rectangle 4465" width="7.23" height="7.281" transform="translate(834.101 11685.047)" fill="none"/>
    <path id="Tracé_32618" data-name="Tracé 32618" d="M1354.712,88.563a3.607,3.607,0,1,1-3.607-3.641,3.623,3.623,0,0,1,3.607,3.641" transform="translate(-626.508 11221.208)" fill="#808285"/>
    <rect id="Rectangle_4466" data-name="Rectangle 4466" width="7.214" height="7.282" transform="translate(720.991 11306.13)" fill="none"/>
    <path id="Tracé_32619" data-name="Tracé 32619" d="M1250.587,179.549a3.607,3.607,0,1,1-3.607-3.634,3.628,3.628,0,0,1,3.607,3.634" transform="translate(-578.946 11179.646)" fill="#808285"/>
    <rect id="Rectangle_4467" data-name="Rectangle 4467" width="7.214" height="7.28" transform="translate(664.425 11355.561)" fill="none"/>
    <path id="Tracé_32620" data-name="Tracé 32620" d="M1667.079,179.549a3.614,3.614,0,1,1-3.62-3.634,3.631,3.631,0,0,1,3.62,3.634" transform="translate(-769.184 11179.646)" fill="#808285"/>
    <rect id="Rectangle_4468" data-name="Rectangle 4468" width="7.23" height="7.28" transform="translate(890.666 11355.561)" fill="none"/>
    <path id="Tracé_32621" data-name="Tracé 32621" d="M1771.191,482.819a3.607,3.607,0,1,1-3.607-3.634,3.619,3.619,0,0,1,3.607,3.634" transform="translate(-816.747 11041.118)" fill="#808285"/>
    <rect id="Rectangle_4469" data-name="Rectangle 4469" width="7.214" height="7.282" transform="translate(947.232 11520.303)" fill="none"/>
    <path id="Tracé_32622" data-name="Tracé 32622" d="M1875.317,422.163a3.608,3.608,0,1,1-3.608-3.646,3.617,3.617,0,0,1,3.608,3.646" transform="translate(-864.309 11068.831)" fill="#808285"/>
    <rect id="Rectangle_4470" data-name="Rectangle 4470" width="7.214" height="7.28" transform="translate(1003.792 11487.348)" fill="none"/>
    <path id="Tracé_32623" data-name="Tracé 32623" d="M1328.686,376.68a3.607,3.607,0,1,1-3.608-3.648,3.625,3.625,0,0,1,3.608,3.648" transform="translate(-614.62 11089.606)" fill="#808285"/>
    <rect id="Rectangle_4471" data-name="Rectangle 4471" width="7.214" height="7.282" transform="translate(706.851 11462.639)" fill="none"/>
    <path id="Tracé_32624" data-name="Tracé 32624" d="M1354.712,331.184a3.607,3.607,0,1,1-3.607-3.634,3.628,3.628,0,0,1,3.607,3.634" transform="translate(-626.508 11110.383)" fill="#808285"/>
    <rect id="Rectangle_4472" data-name="Rectangle 4472" width="7.214" height="7.281" transform="translate(720.991 11437.931)" fill="none"/>
    <path id="Tracé_32625" data-name="Tracé 32625" d="M1328.686,619.294a3.607,3.607,0,1,1-3.608-3.634,3.629,3.629,0,0,1,3.608,3.634" transform="translate(-614.62 10978.779)" fill="#808285"/>
    <rect id="Rectangle_4473" data-name="Rectangle 4473" width="7.214" height="7.282" transform="translate(706.851 11594.439)" fill="none"/>
    <path id="Tracé_32626" data-name="Tracé 32626" d="M1354.712,634.456a3.607,3.607,0,1,1-3.607-3.633,3.628,3.628,0,0,1,3.607,3.633" transform="translate(-626.508 10971.854)" fill="#808285"/>
    <rect id="Rectangle_4474" data-name="Rectangle 4474" width="7.214" height="7.281" transform="translate(720.991 11602.676)" fill="none"/>
    <path id="Tracé_32627" data-name="Tracé 32627" d="M1380.738,588.961a3.608,3.608,0,1,1-3.609-3.647,3.63,3.63,0,0,1,3.609,3.647" transform="translate(-638.395 10992.641)" fill="#808285"/>
    <rect id="Rectangle_4475" data-name="Rectangle 4475" width="7.214" height="7.294" transform="translate(735.126 11577.955)" fill="none"/>
    <path id="Tracé_32628" data-name="Tracé 32628" d="M1328.686,588.961a3.607,3.607,0,1,1-3.608-3.647,3.629,3.629,0,0,1,3.608,3.647" transform="translate(-614.62 10992.641)" fill="#808285"/>
    <rect id="Rectangle_4476" data-name="Rectangle 4476" width="7.214" height="7.294" transform="translate(706.851 11577.955)" fill="none"/>
    <path id="Tracé_32629" data-name="Tracé 32629" d="M1771.191,877.071a3.607,3.607,0,1,1-3.607-3.646,3.619,3.619,0,0,1,3.607,3.646" transform="translate(-816.747 10861.037)" fill="#808285"/>
    <rect id="Rectangle_4477" data-name="Rectangle 4477" width="7.214" height="7.294" transform="translate(947.232 11734.462)" fill="none"/>
    <path id="Tracé_32630" data-name="Tracé 32630" d="M1771.191,816.426a3.607,3.607,0,1,1-3.607-3.647,3.616,3.616,0,0,1,3.607,3.647" transform="translate(-816.747 10888.739)" fill="#808285"/>
    <rect id="Rectangle_4478" data-name="Rectangle 4478" width="7.214" height="7.281" transform="translate(947.232 11701.519)" fill="none"/>
    <path id="Tracé_32631" data-name="Tracé 32631" d="M1588.989,376.68a3.607,3.607,0,1,1-3.608-3.648,3.625,3.625,0,0,1,3.608,3.648" transform="translate(-733.521 11089.606)" fill="#808285"/>
    <rect id="Rectangle_4479" data-name="Rectangle 4479" width="7.209" height="7.282" transform="translate(848.257 11462.639)" fill="none"/>
    <path id="Tracé_32632" data-name="Tracé 32632" d="M1536.927,346.345a3.614,3.614,0,1,1-3.621-3.633,3.631,3.631,0,0,1,3.621,3.633" transform="translate(-709.734 11103.456)" fill="#808285"/>
    <rect id="Rectangle_4480" data-name="Rectangle 4480" width="7.225" height="7.28" transform="translate(819.966 11446.168)" fill="none"/>
    <path id="Tracé_32633" data-name="Tracé 32633" d="M1667.079,300.85a3.615,3.615,0,1,1-3.62-3.648,3.631,3.631,0,0,1,3.62,3.648" transform="translate(-769.184 11124.244)" fill="#808285"/>
    <rect id="Rectangle_4481" data-name="Rectangle 4481" width="7.23" height="7.294" transform="translate(890.666 11421.446)" fill="none"/>
    <path id="Tracé_32634" data-name="Tracé 32634" d="M1562.953,240.206a3.614,3.614,0,1,1-3.607-3.647,3.624,3.624,0,0,1,3.607,3.647" transform="translate(-721.622 11151.944)" fill="#808285"/>
    <rect id="Rectangle_4482" data-name="Rectangle 4482" width="7.23" height="7.281" transform="translate(834.101 11388.503)" fill="none"/>
    <path id="Tracé_32635" data-name="Tracé 32635" d="M1458.838,300.85a3.608,3.608,0,1,1-3.607-3.648,3.628,3.628,0,0,1,3.607,3.648" transform="translate(-674.07 11124.244)" fill="#808285"/>
    <rect id="Rectangle_4483" data-name="Rectangle 4483" width="7.214" height="7.294" transform="translate(777.551 11421.446)" fill="none"/>
    <path id="Tracé_32636" data-name="Tracé 32636" d="M1875.317,664.791a3.608,3.608,0,1,1-3.608-3.647,3.625,3.625,0,0,1,3.608,3.647" transform="translate(-864.309 10958.004)" fill="#808285"/>
    <rect id="Rectangle_4484" data-name="Rectangle 4484" width="7.214" height="7.28" transform="translate(1003.792 11619.148)" fill="none"/>
    <path id="Tracé_32637" data-name="Tracé 32637" d="M1875.317,543.478a3.608,3.608,0,1,1-3.608-3.648,3.626,3.626,0,0,1,3.608,3.648" transform="translate(-864.309 11013.416)" fill="#808285"/>
    <rect id="Rectangle_4485" data-name="Rectangle 4485" width="7.214" height="7.282" transform="translate(1003.792 11553.246)" fill="none"/>
    <path id="Tracé_32638" data-name="Tracé 32638" d="M1925.9,570.868a3.647,3.647,0,1,0,0,5.862Z" transform="translate(-888.084 10999.566)" fill="#808285"/>
    <rect id="Rectangle_4486" data-name="Rectangle 4486" width="5.742" height="7.294" transform="translate(1032.067 11569.719)" fill="none"/>
    <path id="Tracé_32639" data-name="Tracé 32639" d="M1458.838,786.091a3.608,3.608,0,1,1-3.607-3.634,3.628,3.628,0,0,1,3.607,3.634" transform="translate(-674.07 10902.59)" fill="#808285"/>
    <rect id="Rectangle_4487" data-name="Rectangle 4487" width="7.214" height="7.281" transform="translate(777.551 11685.047)" fill="none"/>
    <path id="Tracé_32640" data-name="Tracé 32640" d="M1875.317,786.091a3.608,3.608,0,1,1-3.608-3.634,3.628,3.628,0,0,1,3.608,3.634" transform="translate(-864.309 10902.59)" fill="#808285"/>
    <rect id="Rectangle_4488" data-name="Rectangle 4488" width="7.214" height="7.281" transform="translate(1003.792 11685.047)" fill="none"/>
    <path id="Tracé_32641" data-name="Tracé 32641" d="M1771.191,361.506a3.607,3.607,0,1,1-3.607-3.634,3.618,3.618,0,0,1,3.607,3.634" transform="translate(-816.747 11096.531)" fill="#808285"/>
    <rect id="Rectangle_4489" data-name="Rectangle 4489" width="7.214" height="7.281" transform="translate(947.232 11454.403)" fill="none"/>
    <path id="Tracé_32642" data-name="Tracé 32642" d="M1771.191,604.122a3.607,3.607,0,1,1-3.607-3.648,3.619,3.619,0,0,1,3.607,3.648" transform="translate(-816.747 10985.716)" fill="#808285"/>
    <rect id="Rectangle_4490" data-name="Rectangle 4490" width="7.214" height="7.294" transform="translate(947.232 11586.189)" fill="none"/>
  </g>
</svg>
