<?xml version="1.0" encoding="utf-8"?>
<!-- Generator: Adobe Illustrator 25.2.1, SVG Export Plug-In . SVG Version: 6.00 Build 0)  -->
<svg version="1.1" id="logo_SC" xmlns="http://www.w3.org/2000/svg" xmlns:xlink="http://www.w3.org/1999/xlink" x="0px" y="0px"
	 viewBox="0 0 98.7 98.7" style="enable-background:new 0 0 98.7 98.7;" xml:space="preserve">
<style type="text/css">
	.st0{fill:#F39300;}
</style>
<g>
	<g id="Groupe_19132" transform="translate(0 0)">
		<path id="Tracé_32440" class="st0" d="M49.4,9.4c9.4,0,18.5,3.3,25.7,9.4l6.7-6.7C63.2-4.1,35.5-4.1,17,12.2l6.7,6.7
			C30.8,12.8,39.9,9.4,49.4,9.4"/>
		<path id="Tracé_32441" class="st0" d="M49.4,89.3c-9.4,0-18.5-3.3-25.7-9.4L17,86.6c9,7.9,20.5,12.2,32.4,12.2
			c11.9,0,23.4-4.3,32.4-12.2l-6.7-6.7C67.9,86,58.8,89.3,49.4,89.3"/>
		<path id="Tracé_32442" class="st0" d="M86.6,17l-6.7,6.7c4.8,5.7,7.9,12.7,9,20.1H67.4c-3.1-10-13.7-15.5-23.7-12.3
			S28.2,45.1,31.4,55.1s13.7,15.5,23.7,12.3c5.9-1.9,10.5-6.5,12.3-12.3h21.5c-1.1,7.4-4.2,14.3-9,20.1l6.7,6.7
			C102.8,63.2,102.8,35.5,86.6,17"/>
		<path id="Tracé_32443" class="st0" d="M9.4,49.4c0-9.4,3.3-18.6,9.4-25.7L12.2,17c-16.3,18.6-16.3,46.3,0,64.8l6.7-6.7
			C12.8,67.9,9.4,58.8,9.4,49.4"/>
	</g>
</g>
</svg>
