<svg xmlns="http://www.w3.org/2000/svg" width="370" height="49.371" viewBox="0 0 370 49.371">
  <g id="logo_lbi" data-name="logo lbi" transform="translate(264.704 398.515)">
    <g id="Groupe_27" data-name="Groupe 27" transform="translate(-192.334 -398.515)">
      <g id="Groupe_1" data-name="Groupe 1" transform="translate(0 38.334)">
        <path id="Tracé_1" data-name="Tracé 1" d="M-42.228-276.487l1.178,4.049,1.233-4.049h1.474l-1.877,5.413h-1.55l-.556-1.593-.481-1.8-.481,1.8-.557,1.593h-1.549l-1.889-5.413H-45.8l1.234,4.049,1.168-4.049Z" transform="translate(47.283 278.77)" fill="#bed000"/>
        <path id="Tracé_2" data-name="Tracé 2" d="M6.366-273.614a1.433,1.433,0,0,0,1.6,1.146,2.221,2.221,0,0,0,1.441-.5l.851.842a3.312,3.312,0,0,1-2.315.872,2.712,2.712,0,0,1-2.957-2.87,2.694,2.694,0,0,1,2.861-2.817c1.8,0,2.924,1.114,2.716,3.33Zm2.926-1.1a1.232,1.232,0,0,0-1.4-1.045,1.45,1.45,0,0,0-1.507,1.045Z" transform="translate(12.409 279.075)" fill="#bed000"/>
        <path id="Tracé_3" data-name="Tracé 3" d="M48.919-283.21v2.98a2.223,2.223,0,0,1,1.768-.861,2.577,2.577,0,0,1,2.739,2.817,2.641,2.641,0,0,1-2.772,2.815,1.963,1.963,0,0,1-1.736-.861l-.088.74H47.586v-7.629Zm.087,4.936a1.527,1.527,0,0,0,1.561,1.582,1.512,1.512,0,0,0,1.527-1.582,1.485,1.485,0,0,0-1.527-1.573A1.537,1.537,0,0,0,49.006-278.274Z" transform="translate(-16.008 283.255)" fill="#bed000"/>
        <path id="Tracé_4" data-name="Tracé 4" d="M94.1-271.272v-2.881c0-.711-.372-1.353-1.1-1.353a1.227,1.227,0,0,0-1.146,1.353v2.881H90.514v-5.392h1.234l.1.656a1.561,1.561,0,0,1,1.419-.744,1.612,1.612,0,0,1,1.593,1.005,1.948,1.948,0,0,1,1.8-.983c1.528,0,2.282.94,2.282,2.555v2.9H97.609v-2.9c0-.709-.294-1.309-1.015-1.309a1.224,1.224,0,0,0-1.168,1.331v2.881Z" transform="translate(-44.648 278.946)" fill="#bed000"/>
        <path id="Tracé_5" data-name="Tracé 5" d="M146.334-276.714h1.278v5.381h-1.256l-.065-.784a2.046,2.046,0,0,1-1.747.949,2.6,2.6,0,0,1-2.772-2.859,2.619,2.619,0,0,1,2.8-2.817,1.974,1.974,0,0,1,1.714.871Zm-3.23,2.687a1.543,1.543,0,0,0,1.593,1.637,1.633,1.633,0,0,0,0-3.263A1.532,1.532,0,0,0,143.1-274.027Z" transform="translate(-78.844 279.008)" fill="#bed000"/>
        <path id="Tracé_6" data-name="Tracé 6" d="M186.685-276.737l.1.623a1.585,1.585,0,0,1,1.518-.764,2.039,2.039,0,0,1,1.386.511l-.6,1.157a1.329,1.329,0,0,0-.961-.348,1.241,1.241,0,0,0-1.342,1.364v2.837h-1.332v-5.381Z" transform="translate(-107.985 279.031)" fill="#bed000"/>
        <path id="Tracé_7" data-name="Tracé 7" d="M223.677-283.21v4.41l1.811-2.161h1.594v.075l-2.194,2.457,2.5,2.749v.1h-1.605l-2.106-2.434v2.434h-1.332v-7.629Z" transform="translate(-132.598 283.255)" fill="#bed000"/>
        <path id="Tracé_8" data-name="Tracé 8" d="M262.745-273.614a1.434,1.434,0,0,0,1.605,1.146,2.225,2.225,0,0,0,1.441-.5l.851.842a3.316,3.316,0,0,1-2.316.872,2.712,2.712,0,0,1-2.957-2.87,2.693,2.693,0,0,1,2.86-2.817c1.8,0,2.925,1.114,2.717,3.33Zm2.926-1.1c-.087-.7-.633-1.045-1.4-1.045a1.449,1.449,0,0,0-1.506,1.045Z" transform="translate(-158.634 279.075)" fill="#bed000"/>
        <path id="Tracé_9" data-name="Tracé 9" d="M304.238-281.015v1.527h1.485v1.148h-1.5v2.326a.669.669,0,0,0,.7.764,1.516,1.516,0,0,0,.644-.165l.371,1.135a2.958,2.958,0,0,1-1.1.229,1.739,1.739,0,0,1-1.932-1.963v-2.326h-1v-1.148h1v-1.385Z" transform="translate(-185.674 281.791)" fill="#bed000"/>
        <path id="Tracé_10" data-name="Tracé 10" d="M340.333-282.57a.786.786,0,0,1-1.572,0A.786.786,0,0,1,340.333-282.57Zm-1.452,1.5v5.4h1.331v-5.4Z" transform="translate(-210.265 283.346)" fill="#bed000"/>
        <path id="Tracé_11" data-name="Tracé 11" d="M373.386-271.249v-2.815a1.285,1.285,0,0,0-1.3-1.441A1.416,1.416,0,0,0,370.711-274v2.749H369.39v-5.392h1.19l.087.733a2.422,2.422,0,0,1,1.768-.81,2.342,2.342,0,0,1,2.281,2.643v2.826Z" transform="translate(-230.699 278.924)" fill="#bed000"/>
        <path id="Tracé_12" data-name="Tracé 12" d="M415.273-278.093l.983.742-.6.766a2.292,2.292,0,0,1,.568,1.593,2.138,2.138,0,0,1-1.136,2.009,1.808,1.808,0,0,1,1.113,1.78,2.424,2.424,0,0,1-2.7,2.4,2.471,2.471,0,0,1-2.73-2.4H412.1a1.269,1.269,0,0,0,1.408,1.156c.764,0,1.364-.414,1.364-1.156s-.7-1.083-1.364-1.083a2.518,2.518,0,0,1-2.73-2.707,2.625,2.625,0,0,1,2.73-2.728,2.145,2.145,0,0,1,1.233.306Zm-3.176,3.1A1.387,1.387,0,0,0,413.5-273.5a1.391,1.391,0,0,0,1.4-1.494,1.41,1.41,0,0,0-1.4-1.516A1.406,1.406,0,0,0,412.1-274.993Z" transform="translate(-258.309 279.841)" fill="#bed000"/>
        <path id="Tracé_13" data-name="Tracé 13" d="M483.051-282.57a.786.786,0,0,1-1.571,0A.786.786,0,0,1,483.051-282.57Zm-1.452,1.5v5.4h1.332v-5.4Z" transform="translate(-305.479 283.346)" fill="#bed000"/>
        <path id="Tracé_14" data-name="Tracé 14" d="M515.785-271.272v-2.881c0-.711-.371-1.353-1.1-1.353a1.227,1.227,0,0,0-1.146,1.353v2.881H512.2v-5.392h1.234l.1.656a1.562,1.562,0,0,1,1.419-.744,1.611,1.611,0,0,1,1.593,1.005,1.949,1.949,0,0,1,1.8-.983c1.527,0,2.282.94,2.282,2.555v2.9H519.3v-2.9c0-.709-.295-1.309-1.015-1.309a1.223,1.223,0,0,0-1.168,1.331v2.881Z" transform="translate(-325.977 278.946)" fill="#bed000"/>
        <path id="Tracé_15" data-name="Tracé 15" d="M567.929-271.272v-2.881c0-.711-.372-1.353-1.1-1.353a1.228,1.228,0,0,0-1.146,1.353v2.881h-1.33v-5.392h1.233l.1.656a1.563,1.563,0,0,1,1.419-.744,1.612,1.612,0,0,1,1.594,1.005,1.947,1.947,0,0,1,1.8-.983c1.529,0,2.281.94,2.281,2.555v2.9h-1.331v-2.9c0-.709-.295-1.309-1.015-1.309a1.224,1.224,0,0,0-1.168,1.331v2.881Z" transform="translate(-360.765 278.946)" fill="#bed000"/>
        <path id="Tracé_16" data-name="Tracé 16" d="M621.335-273.977a2.686,2.686,0,0,1-2.806,2.8,2.677,2.677,0,0,1-2.794-2.8,2.694,2.694,0,0,1,2.783-2.807A2.722,2.722,0,0,1,621.335-273.977Zm-4.269,0a1.458,1.458,0,0,0,1.463,1.582,1.458,1.458,0,0,0,1.463-1.582,1.52,1.52,0,0,0-1.463-1.6A1.48,1.48,0,0,0,617.067-273.977Z" transform="translate(-395.047 278.968)" fill="#bed000"/>
        <path id="Tracé_17" data-name="Tracé 17" d="M659.4-283.21v2.98a2.225,2.225,0,0,1,1.768-.861,2.576,2.576,0,0,1,2.74,2.817,2.64,2.64,0,0,1-2.771,2.815,1.965,1.965,0,0,1-1.736-.861l-.087.74h-1.244v-7.629Zm.088,4.936a1.526,1.526,0,0,0,1.561,1.582,1.512,1.512,0,0,0,1.528-1.582,1.485,1.485,0,0,0-1.528-1.573A1.536,1.536,0,0,0,659.492-278.274Z" transform="translate(-423.293 283.255)" fill="#bed000"/>
        <path id="Tracé_18" data-name="Tracé 18" d="M702.538-282.57a.786.786,0,0,1-1.572,0A.786.786,0,0,1,702.538-282.57Zm-1.452,1.5v5.4h1.332v-5.4Z" transform="translate(-451.908 283.346)" fill="#bed000"/>
        <path id="Tracé_19" data-name="Tracé 19" d="M733.014-283.21v7.629h-1.32v-7.629Z" transform="translate(-472.408 283.255)" fill="#bed000"/>
        <path id="Tracé_20" data-name="Tracé 20" d="M763.138-282.57a.786.786,0,0,1-1.572,0A.786.786,0,0,1,763.138-282.57Zm-1.452,1.5v5.4h1.332v-5.4Z" transform="translate(-492.337 283.346)" fill="#bed000"/>
        <path id="Tracé_21" data-name="Tracé 21" d="M792.949-273.614a1.433,1.433,0,0,0,1.6,1.146,2.22,2.22,0,0,0,1.441-.5l.852.842a3.31,3.31,0,0,1-2.314.872,2.712,2.712,0,0,1-2.959-2.87,2.694,2.694,0,0,1,2.861-2.817c1.8,0,2.926,1.114,2.718,3.33Zm2.925-1.1a1.231,1.231,0,0,0-1.4-1.045,1.449,1.449,0,0,0-1.507,1.045Z" transform="translate(-512.356 279.075)" fill="#bed000"/>
        <path id="Tracé_22" data-name="Tracé 22" d="M835.405-276.737l.1.623a1.585,1.585,0,0,1,1.518-.764,2.039,2.039,0,0,1,1.386.511l-.6,1.157a1.332,1.332,0,0,0-.96-.348,1.242,1.242,0,0,0-1.343,1.364v2.837h-1.331v-5.381Z" transform="translate(-540.776 279.031)" fill="#bed000"/>
      </g>
      <g id="Groupe_26" data-name="Groupe 26" transform="translate(0 0)">
        <g id="Groupe_25" data-name="Groupe 25">
          <g id="Groupe_24" data-name="Groupe 24">
            <g id="Groupe_3" data-name="Groupe 3" transform="translate(0 0.346)">
              <g id="Groupe_2" data-name="Groupe 2">
                <path id="Tracé_23" data-name="Tracé 23" d="M-39.421-397.476v30.283h-7.862v-30.283Z" transform="translate(47.283 397.476)" fill="#525254"/>
              </g>
            </g>
            <g id="Groupe_5" data-name="Groupe 5" transform="translate(12.873 8.813)">
              <g id="Groupe_4" data-name="Groupe 4" transform="translate(0)">
                <path id="Tracé_24" data-name="Tracé 24" d="M8.411-371.563h7.474v21.34H8.541l-.346-2.29a8.8,8.8,0,0,1-7.042,2.679c-6.264-.389-9.763-4.838-9.763-11.059,0-6.307,4.147-11.145,10.367-11.145,3.024,0,5.141,1.036,6.264,2.765ZM-.7-360.893c0,2.981,1.9,4.666,4.277,4.666a4.431,4.431,0,0,0,4.406-4.666c0-2.851-1.6-4.709-4.406-4.709C1.2-365.6-.7-363.873-.7-360.893Z" transform="translate(8.609 372.038)" fill="#525254"/>
              </g>
            </g>
            <g id="Groupe_7" data-name="Groupe 7" transform="translate(54.861 0.389)">
              <g id="Groupe_6" data-name="Groupe 6" transform="translate(0)">
                <path id="Tracé_25" data-name="Tracé 25" d="M125.485-386.633c1.166-1.426,3.2-2.29,5.918-2.29,6.221,0,10.368,4.622,10.368,11.145,0,6.739-3.5,10.67-9.763,11.059a8.8,8.8,0,0,1-7.042-2.678l-.345,2.29h-7.084v-30.24h7.949Zm-.173,9.072a4.292,4.292,0,0,0,4.277,4.449c2.376,0,4.277-1.685,4.277-4.666s-1.9-4.708-4.277-4.708C126.781-382.486,125.311-380.153,125.311-377.561Z" transform="translate(-117.536 397.347)" fill="#525254"/>
              </g>
            </g>
            <g id="Groupe_9" data-name="Groupe 9" transform="translate(82.982 8.813)">
              <g id="Groupe_8" data-name="Groupe 8">
                <path id="Tracé_26" data-name="Tracé 26" d="M226.386-360.849c0,7.776-6.177,11.145-12.182,11.145-6.134,0-12.182-3.369-12.182-11.145,0-7.906,6-11.189,12.182-11.189C220.511-372.038,226.386-368.626,226.386-360.849Zm-7.775,0a4.378,4.378,0,0,0-4.406-4.666,4.378,4.378,0,0,0-4.407,4.666,4.342,4.342,0,0,0,4.407,4.622A4.346,4.346,0,0,0,218.61-360.849Z" transform="translate(-202.022 372.038)" fill="#525254"/>
              </g>
            </g>
            <g id="Groupe_11" data-name="Groupe 11" transform="translate(112.357 9.288)">
              <g id="Groupe_10" data-name="Groupe 10" transform="translate(0)">
                <path id="Tracé_27" data-name="Tracé 27" d="M298.221-349.27v-21.34h-7.949v21.34Z" transform="translate(-290.272 370.61)" fill="#525254"/>
              </g>
            </g>
            <g id="Groupe_13" data-name="Groupe 13" transform="translate(124.97 3.24)">
              <g id="Groupe_12" data-name="Groupe 12">
                <path id="Tracé_28" data-name="Tracé 28" d="M339.485-388.78v6.177h4.8v6.091h-4.838v7a1.9,1.9,0,0,0,2.117,2.074,4.506,4.506,0,0,0,2.333-.735l1.728,5.875a12.247,12.247,0,0,1-6.134,1.425c-4.233,0-8.035-1.944-7.906-8.64v-7h-3.412V-382.6h3.412v-5.313Z" transform="translate(-328.167 388.78)" fill="#525254"/>
              </g>
            </g>
            <g id="Groupe_15" data-name="Groupe 15" transform="translate(145.316 8.77)">
              <g id="Groupe_14" data-name="Groupe 14">
                <path id="Tracé_29" data-name="Tracé 29" d="M412.232-358.732h-14.9c.561,1.9,3.024,2.721,4.752,2.721a8.843,8.843,0,0,0,5.486-1.728l3.888,4.363a14.12,14.12,0,0,1-9.72,3.542c-6.739,0-12.441-3.326-12.441-11.1s6.091-11.231,11.88-11.231C408.732-372.167,414.046-367.156,412.232-358.732Zm-7.128-5.1c-.216-3.37-7.214-3.5-7.732,0Z" transform="translate(-389.293 372.167)" fill="#525254"/>
              </g>
            </g>
            <g id="Groupe_17" data-name="Groupe 17" transform="translate(184.841 9.202)">
              <g id="Groupe_16" data-name="Groupe 16">
                <path id="Tracé_30" data-name="Tracé 30" d="M508.04-370.87v21.427h2.117V-370.87Z" transform="translate(-508.04 370.87)" fill="#525254"/>
              </g>
            </g>
            <g id="Groupe_19" data-name="Groupe 19" transform="translate(194.518 8.856)">
              <g id="Groupe_18" data-name="Groupe 18">
                <path id="Tracé_31" data-name="Tracé 31" d="M568.733-350.136v-12.787c0-4.1-2.765-7-6.826-7s-6.869,3.024-6.869,7.128v12.658h-2.117v-12.658a6.705,6.705,0,0,0-6.869-7.085c-4.061,0-6.825,2.981-6.825,7.085v12.658h-2.117v-21.34H539.1l.043,3.542a7.515,7.515,0,0,1,6.955-3.974c3.24,0,6.653,1.469,7.905,5.27a8.247,8.247,0,0,1,7.906-5.27,8.584,8.584,0,0,1,8.942,8.985v12.787Z" transform="translate(-537.111 371.908)" fill="#525254"/>
              </g>
            </g>
            <g id="Groupe_21" data-name="Groupe 21" transform="translate(235.728 8.856)">
              <g id="Groupe_20" data-name="Groupe 20">
                <path id="Tracé_32" data-name="Tracé 32" d="M692.542-350.136v-12.787c0-4.1-2.765-7-6.826-7s-6.869,3.024-6.869,7.128v12.658h-2.117v-12.658a6.7,6.7,0,0,0-6.868-7.085c-4.061,0-6.826,2.981-6.826,7.085v12.658H660.92v-21.34h1.987l.043,3.542a7.516,7.516,0,0,1,6.955-3.974c3.24,0,6.653,1.469,7.906,5.27a8.245,8.245,0,0,1,7.905-5.27,8.584,8.584,0,0,1,8.942,8.985v12.787Z" transform="translate(-660.92 371.908)" fill="#525254"/>
              </g>
            </g>
            <g id="Groupe_23" data-name="Groupe 23" transform="translate(275.945 8.899)">
              <g id="Groupe_22" data-name="Groupe 22">
                <path id="Tracé_33" data-name="Tracé 33" d="M781.744-360.676c0-6.782,4.838-11.1,10.843-11.1s10.843,4.32,10.843,11.1-4.838,10.93-10.843,10.93S781.744-353.894,781.744-360.676Zm19.612,0c0-5.529-3.931-9.115-8.769-9.115s-8.769,3.586-8.769,9.115a8.434,8.434,0,0,0,8.769,8.856A8.434,8.434,0,0,0,801.356-360.676Z" transform="translate(-781.744 371.778)" fill="#525254"/>
              </g>
            </g>
            <path id="Tracé_34" data-name="Tracé 34" d="M287.748-398.514l5.789,6.869v.346H287.4l-1.857-1.944L283.6-391.3h-6.048v-.346l5.832-6.869Z" transform="translate(-169.43 398.514)" fill="#bed000"/>
            <path id="Tracé_35" data-name="Tracé 35" d="M509.636-394.882a1.706,1.706,0,0,1-3.413,0A1.706,1.706,0,0,1,509.636-394.882Z" transform="translate(-321.986 397.215)" fill="#bed000"/>
          </g>
        </g>
      </g>
    </g>
    <g id="Groupe_28" data-name="Groupe 28" transform="translate(-264.704 -398.515)">
      <path id="Tracé_36" data-name="Tracé 36" d="M-95.224-324.352h0Z" transform="translate(151.636 349.038)" fill="#bed000"/>
      <path id="Tracé_37" data-name="Tracé 37" d="M-236.788-370.869l-7.958,13.783a1,1,0,0,1-1.365.366l-.845-.488a1,1,0,0,1-.366-1.365l7.958-13.783a2.946,2.946,0,0,0,0-2.945l-7.958-13.783a1,1,0,0,1,.366-1.365l.845-.488a1,1,0,0,1,1.365.366l7.958,13.783a2.946,2.946,0,0,0,2.551,1.473h21.662a1.977,1.977,0,0,0,1.712-2.966l-10.568-18.3a3.856,3.856,0,0,0-3.34-1.929h-24.051a3.857,3.857,0,0,0-3.34,1.929l-12.026,20.829a3.858,3.858,0,0,0,0,3.856l12.026,20.829a3.857,3.857,0,0,0,3.34,1.928h24.051a3.856,3.856,0,0,0,3.34-1.928l10.568-18.3a1.977,1.977,0,0,0-1.712-2.965h-21.662A2.944,2.944,0,0,0-236.788-370.869Z" transform="translate(264.704 398.515)" fill="#bed000"/>
    </g>
  </g>
</svg>
