<svg id="logo_lbi_academy" data-name="logo lbi academy" xmlns="http://www.w3.org/2000/svg" xmlns:xlink="http://www.w3.org/1999/xlink" width="286.05" height="72.593" viewBox="0 0 286.05 72.593">
  <defs>
    <clipPath id="clip-path">
      <rect id="Rectangle_4156" data-name="Rectangle 4156" width="286.05" height="72.593" fill="none"/>
    </clipPath>
  </defs>
  <g id="Groupe_18944" data-name="Groupe 18944" clip-path="url(#clip-path)">
    <path id="Tracé_31038" data-name="Tracé 31038" d="M33.416,0,0,8.446V39.658C0,56.586,22.409,65.547,33.416,72.593c11.006-7.046,33.415-16.007,33.415-32.935V8.446Z" fill="#dadada"/>
    <path id="Tracé_31039" data-name="Tracé 31039" d="M37.265,6.2,5.712,14.179V43.652c0,15.985,21.16,24.446,31.553,31.1,10.393-6.653,31.553-15.114,31.553-31.1V14.179Z" transform="translate(-3.849 -4.181)" fill="#fff"/>
    <path id="Tracé_31040" data-name="Tracé 31040" d="M36.051,74.2l-.317-.2c-1.859-1.19-4.089-2.452-6.451-3.789-5.508-3.117-11.75-6.649-16.71-11.11C6.744,53.853,3.91,48.392,3.91,42.4V12.47L36.051,4.346l.144.037,32,8.087V42.4c0,5.992-2.833,11.453-8.662,16.7-4.96,4.46-11.2,7.993-16.71,11.11-2.361,1.337-4.592,2.6-6.451,3.789ZM5.085,13.385V42.4c0,5.639,2.706,10.815,8.273,15.821,4.864,4.375,11.048,7.874,16.5,10.961,2.244,1.27,4.371,2.474,6.189,3.62,1.818-1.147,3.945-2.35,6.189-3.62,5.456-3.087,11.639-6.586,16.5-10.961,5.567-5.007,8.273-10.182,8.273-15.822V13.385L36.051,5.558Z" transform="translate(-2.635 -2.929)" fill="#fff"/>
    <path id="Tracé_31041" data-name="Tracé 31041" d="M69.833,25.962l-.022-.013L47.46,20.3l-1.369-.346-1.37.346-8.247,2.085L18.8,26.852V39.061a.336.336,0,1,0,.671,0V27.375L37.9,22.715l8.189-2.07L54.229,22.7a.328.328,0,0,0,.1.048L72.7,27.375V39.061a.336.336,0,1,0,.671,0V26.852Z" transform="translate(-12.667 -13.447)" fill="#494b52"/>
    <path id="Tracé_31042" data-name="Tracé 31042" d="M46.083,136.551l-.181-.116c-1.592-1.019-3.5-2.1-5.518-3.241-4.7-2.658-10.02-5.67-14.243-9.469-4.942-4.444-7.344-9.068-7.344-14.136v-4.273a.336.336,0,0,1,.671,0v4.273c0,4.867,2.329,9.327,7.121,13.637,4.169,3.749,9.458,6.742,14.125,9.383,1.952,1.1,3.8,2.15,5.368,3.144,1.569-.994,3.416-2.04,5.368-3.144,4.667-2.641,9.957-5.634,14.125-9.383,4.792-4.31,7.121-8.771,7.121-13.637v-4.273a.336.336,0,0,1,.671,0v4.273c0,5.068-2.4,9.692-7.344,14.136-4.223,3.8-9.546,6.811-14.243,9.469-2.019,1.142-3.926,2.222-5.518,3.241Z" transform="translate(-12.668 -70.749)" fill="#494b52"/>
    <path id="Tracé_31043" data-name="Tracé 31043" d="M82.915,141.632a.515.515,0,0,0-.426-.2c-.251,0-.372.1-.372.239,0,.157.185.2.4.226.375.046.723.144.723.572,0,.4-.354.572-.754.572a.746.746,0,0,1-.783-.441l.282-.146a.512.512,0,0,0,.505.285c.213,0,.413-.074.413-.27,0-.169-.177-.238-.416-.264-.367-.043-.705-.141-.705-.544,0-.369.364-.52.7-.523a.726.726,0,0,1,.705.357Z" transform="translate(-55.062 -95.116)" fill="#86878c"/>
    <rect id="Rectangle_4152" data-name="Rectangle 4152" width="0.336" height="1.796" transform="translate(29.98 46.083)" fill="#86878c"/>
    <path id="Tracé_31044" data-name="Tracé 31044" d="M99.9,141.318h.338v1.8h-.21v0l-.944-1.213v1.211h-.339v-1.8h.275l.88,1.113Z" transform="translate(-66.547 -95.238)" fill="#86878c"/>
    <path id="Tracé_31045" data-name="Tracé 31045" d="M110.468,142.821a.946.946,0,0,1-.682.267.883.883,0,0,1-.952-.926.9.9,0,0,1,.952-.947.927.927,0,0,1,.659.275l-.226.218a.616.616,0,0,0-.433-.17.589.589,0,0,0-.618.623.576.576,0,0,0,.618.608.661.661,0,0,0,.452-.182Z" transform="translate(-73.346 -95.168)" fill="#86878c"/>
    <path id="Tracé_31046" data-name="Tracé 31046" d="M120.471,143.121h-1.344v-1.8h1.344v.328h-1.008v.413h.972v.315h-.972v.405h1.008Z" transform="translate(-80.283 -95.243)" fill="#86878c"/>
    <path id="Tracé_31047" data-name="Tracé 31047" d="M81.714,150.18c0-.486.463-.7.887-.7.46,0,.96.188.96.733,0,.585-.441.7-.923.7-.19,0-.5.049-.5.3v.2h1.43v.4H81.7v-.6c0-.529.48-.687.934-.687.174,0,.493-.029.493-.3,0-.25-.227-.368-.523-.368-.227,0-.46.115-.463.322Z" transform="translate(-55.062 -100.74)" fill="#cad510"/>
    <path id="Tracé_31048" data-name="Tracé 31048" d="M94.28,150.461a1.009,1.009,0,1,1,2.018,0v.332a1.009,1.009,0,1,1-2.018,0Zm.43.332a.58.58,0,1,0,1.157,0v-.332a.58.58,0,1,0-1.157,0Z" transform="translate(-63.538 -100.706)" fill="#cad510"/>
    <path id="Tracé_31049" data-name="Tracé 31049" d="M107.1,151.507h.345v-1.538h-.358v-.394h.789v1.933h.319v.368H107.1Z" transform="translate(-72.168 -100.802)" fill="#cad510"/>
    <path id="Tracé_31050" data-name="Tracé 31050" d="M118.917,149.584v1.44h.27v.421h-.27v.437h-.427v-.437H117.26l-.039-.44,1.035-1.42Zm-.427,1.44v-1.065l-.779,1.065Z" transform="translate(-78.998 -100.808)" fill="#cad510"/>
    <path id="Tracé_31051" data-name="Tracé 31051" d="M98.517,177.273l.46,1.382,1.456.01-1.172.864.441,1.388-1.184-.847-1.185.847.441-1.388-1.172-.864,1.457-.01Z" transform="translate(-65.102 -119.469)" fill="#86878c"/>
    <path id="Tracé_31052" data-name="Tracé 31052" d="M82.661,172.641l-.157.928.828.448-.932.137-.171.926-.418-.844-.934.124.673-.658-.406-.85.834.437Z" transform="translate(-54.506 -116.347)" fill="#cad510"/>
    <path id="Tracé_31053" data-name="Tracé 31053" d="M117.22,172.641l.158.928-.828.448.932.137.171.926.418-.844.934.124-.673-.658.406-.85-.834.437Z" transform="translate(-78.546 -116.347)" fill="#cad510"/>
    <path id="Tracé_31054" data-name="Tracé 31054" d="M22.262,58.057,48.044,43.189,49.537,66.2l-19.115,2L30.271,62.9,21.7,59.4Z" transform="translate(-14.621 -29.106)" fill="#86878c"/>
    <path id="Tracé_31055" data-name="Tracé 31055" d="M62.505,61.892l9.362-5.2a1.584,1.584,0,0,0,.008-2.381l-9.37-5.387-6.921-3.979L44.512,38.577a.555.555,0,0,0-.573,0L25.946,48.922l-9.37,5.387a1.584,1.584,0,0,0,.008,2.381l9.362,5.2.007,3.39c0,.427.246.752.52.691a81.4,81.4,0,0,1,11.7-1.745L44.226,64l6.057.23a81.611,81.611,0,0,1,11.709,1.745c.275.061.521-.267.52-.7Zm-18.313-.546-6.057.23h-.021l-.021,0a82.829,82.829,0,0,0-10.42,1.46V60.028L26.536,59.4,19.48,55.475l7.075-4.067L44.234,41.243v20.1Z" transform="translate(-10.81 -25.944)" fill="#494b52"/>
    <path id="Tracé_31056" data-name="Tracé 31056" d="M173.562,106.9h-.773v-1.7l.773-.415Z" transform="translate(-116.447 -70.617)" fill="#494b52"/>
    <path id="Tracé_31057" data-name="Tracé 31057" d="M172.777,114.644h-2.242l.3-2.634a.824.824,0,0,1,1.637,0Z" transform="translate(-114.928 -74.995)" fill="#86878c"/>
    <path id="Tracé_31058" data-name="Tracé 31058" d="M172.315,114.233h-3.109l.352-3.064a1.21,1.21,0,0,1,2.405,0Zm-2.242-.773h1.375l-.253-2.2a.438.438,0,0,0-.87,0Z" transform="translate(-114.032 -74.196)" fill="#494b52"/>
    <path id="Tracé_31059" data-name="Tracé 31059" d="M248.071,143.339h1.771l5.1-14.2H252.7v-3.107h11.558v3.107h-2.237l5.1,14.2h1.771v3.138h-7.861V143.37h2.361l-1.149-3.356H254.6l-1.15,3.356h2.486v3.107h-7.86Zm13.2-6.245-2.858-8.047-2.858,8.047Z" transform="translate(-167.181 -84.937)" fill="#cad510"/>
    <path id="Tracé_31060" data-name="Tracé 31060" d="M344.217,135.485a10.469,10.469,0,0,1,10.75-10.595c4.754,0,7.923,2.485,7.923,4.94a2.3,2.3,0,0,1-2.237,2.517,2.164,2.164,0,0,1-2.361-2.206,2.545,2.545,0,0,1,.218-1.057,5.967,5.967,0,0,0-3.635-.932,7.337,7.337,0,0,0,.155,14.665,7.838,7.838,0,0,0,5.872-2.7l2.33,2.423a10.985,10.985,0,0,1-8.2,3.542c-6.307,0-10.812-4.226-10.812-10.594" transform="translate(-231.977 -84.167)" fill="#cad510"/>
    <path id="Tracé_31061" data-name="Tracé 31061" d="M434.168,143.339h1.771l5.1-14.2H438.8v-3.107h11.558v3.107h-2.237l5.095,14.2h1.771v3.138h-7.861V143.37h2.361l-1.149-3.356h-7.643l-1.15,3.356h2.486v3.107h-7.86Zm13.2-6.245-2.859-8.047-2.858,8.047Z" transform="translate(-292.597 -84.937)" fill="#cad510"/>
    <path id="Tracé_31062" data-name="Tracé 31062" d="M531.363,143.339h2.33V129.171h-2.33v-3.138H539.1c7.395,0,11.775,3.853,11.775,10.036,0,6.245-4.132,10.408-12.148,10.408h-7.363Zm7.86,0c5.281,0,8.016-2.858,8.016-7.239,0-4.474-3.169-6.928-8.265-6.928H537.2v14.168Z" transform="translate(-358.099 -84.937)" fill="#cad510"/>
    <path id="Tracé_31063" data-name="Tracé 31063" d="M627.7,143.339h2.33V129.171H627.7v-3.138h15.255v5.841H639.6V129.14h-6.059v5.468h6.183v2.983h-6.183v5.779h6.09v-2.734h3.355v5.841H627.7Z" transform="translate(-423.022 -84.937)" fill="#cad510"/>
    <path id="Tracé_31064" data-name="Tracé 31064" d="M710.787,143.339h2.424l.652-14.168h-2.548v-3.138h5.593l6.277,11.372,6.276-11.372h5.561v3.138h-2.548l.652,14.168h2.423v3.138h-8.388v-3.138h2.454l-.4-10.533L723.37,143.06H722.9l-5.841-10.253-.4,10.533h2.454v3.138h-8.327Z" transform="translate(-479.017 -84.937)" fill="#cad510"/>
    <path id="Tracé_31065" data-name="Tracé 31065" d="M823.554,143.339h2.579v-4.66l-5.81-9.507h-2.051v-3.138h7.736v3.138h-1.8l3.759,6.556,3.729-6.556h-1.927v-3.138H837.5v3.138h-2.05l-5.81,9.507v4.66h2.579v3.138h-8.668Z" transform="translate(-551.454 -84.937)" fill="#cad510"/>
    <rect id="Rectangle_4153" data-name="Rectangle 4153" width="5.419" height="20.874" transform="translate(80.89 10.918)" fill="#535355"/>
    <path id="Tracé_31066" data-name="Tracé 31066" d="M287.016,51.71h5.151v14.71H287.1l-.238-1.578a6.062,6.062,0,0,1-4.854,1.846c-4.318-.268-6.73-3.335-6.73-7.623,0-4.348,2.859-7.683,7.147-7.683,2.085,0,3.544.714,4.318,1.906Zm-6.283,7.355a2.923,2.923,0,0,0,2.948,3.216,3.054,3.054,0,0,0,3.037-3.216c0-1.965-1.1-3.246-3.037-3.246a2.949,2.949,0,0,0-2.948,3.246" transform="translate(-185.52 -34.628)" fill="#535355"/>
    <path id="Tracé_31067" data-name="Tracé 31067" d="M369.523,40.96a5.086,5.086,0,0,1,4.08-1.578c4.288,0,7.147,3.186,7.147,7.683,0,4.645-2.412,7.355-6.729,7.623a6.063,6.063,0,0,1-4.854-1.846l-.238,1.578h-4.883V33.575h5.479Zm-.119,6.253a2.959,2.959,0,0,0,2.948,3.067,2.923,2.923,0,0,0,2.948-3.216,2.948,2.948,0,0,0-2.948-3.246c-1.936,0-2.948,1.608-2.948,3.395" transform="translate(-245.338 -22.627)" fill="#535355"/>
    <path id="Tracé_31068" data-name="Tracé 31068" d="M440.287,59.1c0,5.36-4.258,7.683-8.4,7.683-4.229,0-8.4-2.323-8.4-7.683,0-5.449,4.139-7.712,8.4-7.712,4.348,0,8.4,2.352,8.4,7.712m-5.36,0a3.041,3.041,0,1,0-3.037,3.186,3.017,3.017,0,0,0,3.037-3.186" transform="translate(-285.403 -34.628)" fill="#535355"/>
    <rect id="Rectangle_4154" data-name="Rectangle 4154" width="5.479" height="14.71" transform="translate(158.338 17.082)" fill="#535355"/>
    <path id="Tracé_31069" data-name="Tracé 31069" d="M520.055,39.6v4.258h3.306v4.2h-3.335v4.824a1.307,1.307,0,0,0,1.459,1.43,3.105,3.105,0,0,0,1.608-.506l1.192,4.05a8.444,8.444,0,0,1-4.229.982c-2.918,0-5.538-1.34-5.449-5.955V48.06h-2.353v-4.2h2.353V40.2Z" transform="translate(-345.22 -26.689)" fill="#535355"/>
    <path id="Tracé_31070" data-name="Tracé 31070" d="M571.075,60.553H560.8c.387,1.31,2.084,1.876,3.275,1.876a6.093,6.093,0,0,0,3.782-1.191l2.68,3.008a9.731,9.731,0,0,1-6.7,2.442c-4.645,0-8.576-2.293-8.576-7.653s4.2-7.742,8.189-7.742c5.211,0,8.874,3.454,7.623,9.261m-4.913-3.514c-.149-2.323-4.973-2.412-5.331,0Z" transform="translate(-374.206 -34.567)" fill="#535355"/>
    <rect id="Rectangle_4155" data-name="Rectangle 4155" width="1.459" height="14.77" transform="translate(208.303 17.023)" fill="#535355"/>
    <path id="Tracé_31071" data-name="Tracé 31071" d="M681.073,66.482V57.668a4.55,4.55,0,0,0-4.705-4.824,4.646,4.646,0,0,0-4.734,4.913v8.725h-1.459V57.757a4.723,4.723,0,1,0-9.44,0v8.725h-1.459V51.772h1.37l.029,2.442a5.181,5.181,0,0,1,4.794-2.74,5.41,5.41,0,0,1,5.449,3.633,5.685,5.685,0,0,1,5.449-3.633,5.917,5.917,0,0,1,6.164,6.194v8.814Z" transform="translate(-444.302 -34.69)" fill="#535355"/>
    <path id="Tracé_31072" data-name="Tracé 31072" d="M768.189,66.482V57.668a4.55,4.55,0,0,0-4.7-4.824,4.646,4.646,0,0,0-4.734,4.913v8.725h-1.459V57.757a4.723,4.723,0,1,0-9.44,0v8.725h-1.459V51.772h1.37l.029,2.442a5.182,5.182,0,0,1,4.794-2.74,5.41,5.41,0,0,1,5.449,3.633,5.684,5.684,0,0,1,5.449-3.633,5.917,5.917,0,0,1,6.164,6.194v8.814Z" transform="translate(-503.012 -34.69)" fill="#535355"/>
    <path id="Tracé_31073" data-name="Tracé 31073" d="M831.41,59.218a7.476,7.476,0,1,1,14.948,0,7.474,7.474,0,1,1-14.948,0m13.519,0a6.049,6.049,0,1,0-12.09,0,6.045,6.045,0,1,0,12.09,0" transform="translate(-560.308 -34.751)" fill="#535355"/>
    <path id="Tracé_31074" data-name="Tracé 31074" d="M483.666,32.753l3.99,4.735v.238h-4.228l-1.28-1.34-1.34,1.34h-4.169v-.238l4.02-4.735Z" transform="translate(-321.219 -22.073)" fill="#bed00b"/>
    <path id="Tracé_31075" data-name="Tracé 31075" d="M639.894,35.284a1.176,1.176,0,0,1-2.353,0,1.176,1.176,0,0,1,2.353,0" transform="translate(-429.655 -22.996)" fill="#bed00b"/>
  </g>
</svg>
