<svg id="logo_prev" data-name="logo prev" xmlns="http://www.w3.org/2000/svg" xmlns:xlink="http://www.w3.org/1999/xlink" width="249.668" height="65.55" viewBox="0 0 249.668 65.55">
  <defs>
    <clipPath id="clip-path">
      <rect id="Rectangle_4142" data-name="Rectangle 4142" width="249.668" height="65.55" fill="none"/>
    </clipPath>
  </defs>
  <g id="Groupe_18936" data-name="Groupe 18936" clip-path="url(#clip-path)">
    <path id="Tracé_30971" data-name="Tracé 30971" d="M7.01,70.018h7.006c2.291,0,3.441-1.124,3.441-3.352a3.337,3.337,0,0,0-.84-2.516,3.664,3.664,0,0,0-2.6-.815H7.01Zm0,15.624H0v-28.4H16.7a8.047,8.047,0,0,1,6.18,2.38Q25.133,62,25.131,66.666t-2.254,7.057a8.053,8.053,0,0,1-6.168,2.393H7.01Z" transform="translate(0 -38.081)" fill="#f90"/>
    <path id="Tracé_30972" data-name="Tracé 30972" d="M92.651,75.488V85.641H85.643v-28.4h15.982a12.1,12.1,0,0,1,3.929.562,6.4,6.4,0,0,1,2.677,1.7,6.947,6.947,0,0,1,1.527,2.843,14.178,14.178,0,0,1,.5,4.015c0,2.854-.523,4.869-1.564,6.073a8.033,8.033,0,0,1-3.7,2.464l-.175.049,5.947,10.692h-7.878L97.357,75.488Zm0-5.694h6.9c2.363,0,3.554-1.111,3.554-3.341a2.751,2.751,0,0,0-.966-2.475,4.573,4.573,0,0,0-2.588-.642h-6.9Z" transform="translate(-56.975 -38.08)" fill="#f90"/>
    <path id="Tracé_30973" data-name="Tracé 30973" d="M194.33,74.362H179.187l.024.187a10.5,10.5,0,0,0,.651,2.089A4.652,4.652,0,0,0,181.5,78.62a5.688,5.688,0,0,0,3.292.926h9.537v6.1H183.04A11.952,11.952,0,0,1,176.62,84a10.092,10.092,0,0,1-3.99-4.832,19.77,19.77,0,0,1-1.351-7.737,19.7,19.7,0,0,1,1.351-7.72,10.078,10.078,0,0,1,3.99-4.83,11.928,11.928,0,0,1,6.42-1.639h11.29v6.094h-9.537a5.6,5.6,0,0,0-3.292.925,4.433,4.433,0,0,0-1.639,1.966,10.4,10.4,0,0,0-.651,2.066l-.024.188H194.33Z" transform="translate(-113.946 -38.08)" fill="#f90"/>
    <path id="Tracé_30974" data-name="Tracé 30974" d="M136.653,1.823A31.792,31.792,0,0,0,119.7,6.687L122.645,0H119.2l-5.3,11.352c-.577.592-1.14,1.209-1.676,1.848h4.337a28.68,28.68,0,1,1,0,40.967h-4.337A31.874,31.874,0,1,0,136.653,1.823" transform="translate(-74.662)" fill="#f90"/>
    <path id="Tracé_30975" data-name="Tracé 30975" d="M657.987,74.344H642.862l.039.188a9.533,9.533,0,0,0,.648,2.084,4.587,4.587,0,0,0,1.622,1.977,5.671,5.671,0,0,0,3.29.925h9.526v6.089H646.711a11.97,11.97,0,0,1-6.415-1.636,10.192,10.192,0,0,1-3.987-4.827,19.82,19.82,0,0,1-1.349-7.727,19.749,19.749,0,0,1,1.349-7.713,10.147,10.147,0,0,1,3.987-4.822,11.915,11.915,0,0,1,6.415-1.639h11.278v6.089h-9.526a5.6,5.6,0,0,0-3.29.923,4.4,4.4,0,0,0-1.636,1.964,9.284,9.284,0,0,0-.634,2.064l-.039.186h15.126Z" transform="translate(-422.415 -38.081)" fill="#555655"/>
    <path id="Tracé_30976" data-name="Tracé 30976" d="M296.471,57.241l7.762,20.19h.148l7.985-20.19h7.639l-12.982,28.4h-6.146l-12.04-28.4Z" transform="translate(-192.153 -38.081)" fill="#555655"/>
    <rect id="Rectangle_4140" data-name="Rectangle 4140" width="7.019" height="28.4" transform="translate(131.401 19.161)" fill="#555655"/>
    <rect id="Rectangle_4141" data-name="Rectangle 4141" width="7.021" height="28.39" transform="translate(173.322 19.161)" fill="#555655"/>
    <path id="Tracé_30977" data-name="Tracé 30977" d="M450.422,63.337H434.074a3.092,3.092,0,0,0-1.963.6,2.264,2.264,0,0,0-.775,1.878,2.2,2.2,0,0,0,.811,1.877,3.26,3.26,0,0,0,2.027.611h9.313a11.234,11.234,0,0,1,2.877.377,7.389,7.389,0,0,1,2.692,1.327,6.9,6.9,0,0,1,2.055,2.665,10.151,10.151,0,0,1,.8,4.291,9.225,9.225,0,0,1-1.315,5.26,6.873,6.873,0,0,1-3.215,2.678,10.465,10.465,0,0,1-3.894.737H425.3v-6.1h16.658c1.831,0,2.756-.852,2.756-2.581s-.952-2.563-2.856-2.563h-9.31a11.048,11.048,0,0,1-3.92-.713,6.773,6.773,0,0,1-3.2-2.63,9.207,9.207,0,0,1-1.312-5.243,9.207,9.207,0,0,1,1.312-5.234,6.685,6.685,0,0,1,3.206-2.627,10.957,10.957,0,0,1,3.9-.714h17.887Z" transform="translate(-282.147 -38.081)" fill="#555655"/>
    <path id="Tracé_30978" data-name="Tracé 30978" d="M574.494,57.241v6.1h-9.03V85.646h-7.018V63.339h-9.04v-6.1Z" transform="translate(-365.5 -38.081)" fill="#555655"/>
    <path id="Tracé_30979" data-name="Tracé 30979" d="M716.519,63.4V58.023h-2.051v-.718h4.9v.718H717.33V63.4Z" transform="translate(-475.309 -38.123)" fill="#555655"/>
    <path id="Tracé_30980" data-name="Tracé 30980" d="M735.485,63.4h-.81V58.146l-1.586,3.58H732.6l-1.576-3.58V63.4h-.756v-6.1h1.1l1.521,3.394,1.475-3.394h1.125Z" transform="translate(-485.817 -38.123)" fill="#555655"/>
  </g>
</svg>
