<svg id="logo_lbi_n" data-name="logo lbi n" xmlns="http://www.w3.org/2000/svg" xmlns:xlink="http://www.w3.org/1999/xlink" width="370" height="47.601" viewBox="0 0 370 47.601">
  <defs>
    <clipPath id="clip-path">
      <rect id="Rectangle_4139" data-name="Rectangle 4139" width="370" height="47.601" fill="none"/>
    </clipPath>
  </defs>
  <rect id="Rectangle_4136" data-name="Rectangle 4136" width="7.963" height="30.67" transform="translate(68.499 0.35)" fill="#404043"/>
  <g id="Groupe_18934" data-name="Groupe 18934">
    <g id="Groupe_18933" data-name="Groupe 18933" clip-path="url(#clip-path)">
      <path id="Tracé_30955" data-name="Tracé 30955" d="M259.476,27h7.569V48.613h-7.438l-.35-2.319a8.906,8.906,0,0,1-7.131,2.713c-6.344-.394-9.888-4.9-9.888-11.2,0-6.388,4.2-11.288,10.5-11.288,3.063,0,5.206,1.05,6.344,2.8Zm-9.232,10.807c0,3.019,1.925,4.725,4.332,4.725a4.488,4.488,0,0,0,4.463-4.725c0-2.888-1.619-4.769-4.463-4.769-2.406,0-4.332,1.75-4.332,4.769" transform="translate(-160.701 -17.592)" fill="#404043"/>
      <path id="Tracé_30956" data-name="Tracé 30956" d="M376.627,12.022c1.181-1.444,3.238-2.319,5.994-2.319,6.3,0,10.5,4.681,10.5,11.288,0,6.825-3.544,10.807-9.888,11.2a8.907,8.907,0,0,1-7.132-2.713l-.35,2.319h-7.176V1.171h8.05Zm-.175,9.188a4.347,4.347,0,0,0,4.332,4.506c2.406,0,4.331-1.706,4.331-4.725s-1.925-4.769-4.331-4.769c-2.844,0-4.332,2.363-4.332,4.988" transform="translate(-244.515 -0.777)" fill="#404043"/>
      <path id="Tracé_30957" data-name="Tracé 30957" d="M477.869,37.85c0,7.875-6.256,11.288-12.338,11.288-6.213,0-12.338-3.413-12.338-11.288,0-8.007,6.082-11.332,12.338-11.332,6.388,0,12.338,3.457,12.338,11.332m-7.875,0a4.47,4.47,0,1,0-8.926,0,4.468,4.468,0,1,0,8.926,0" transform="translate(-300.65 -17.592)" fill="#404043"/>
      <rect id="Rectangle_4137" data-name="Rectangle 4137" width="8.05" height="21.614" transform="translate(182.294 9.407)" fill="#404043"/>
      <path id="Tracé_30958" data-name="Tracé 30958" d="M591,9.751v6.256h4.857v6.169h-4.9v7.087a1.92,1.92,0,0,0,2.144,2.1,4.565,4.565,0,0,0,2.363-.744l1.75,5.95A12.4,12.4,0,0,1,591,38.015c-4.287,0-8.138-1.969-8.006-8.751V22.177h-3.457V16.007h3.457V10.626Z" transform="translate(-384.464 -6.469)" fill="#404043"/>
      <path id="Tracé_30959" data-name="Tracé 30959" d="M663.985,39.995H648.891c.568,1.925,3.062,2.756,4.812,2.756A8.958,8.958,0,0,0,659.26,41L663.2,45.42a14.3,14.3,0,0,1-9.845,3.587c-6.825,0-12.6-3.369-12.6-11.244s6.169-11.375,12.032-11.375c7.657,0,13.038,5.075,11.2,13.607m-7.219-5.163c-.219-3.413-7.307-3.544-7.832,0Z" transform="translate(-425.078 -17.506)" fill="#404043"/>
      <rect id="Rectangle_4138" data-name="Rectangle 4138" width="2.144" height="21.701" transform="translate(255.707 9.32)" fill="#404043"/>
      <path id="Tracé_30960" data-name="Tracé 30960" d="M820.826,48.7V35.749c0-4.157-2.8-7.088-6.913-7.088s-6.956,3.063-6.956,7.219V48.7h-2.143V35.88a6.791,6.791,0,0,0-6.957-7.175c-4.112,0-6.913,3.019-6.913,7.175V48.7H788.8V27.086h2.012l.044,3.588a7.612,7.612,0,0,1,7.044-4.025c3.281,0,6.738,1.488,8.007,5.338a8.352,8.352,0,0,1,8.007-5.338,8.694,8.694,0,0,1,9.057,9.1V48.7Z" transform="translate(-523.292 -17.678)" fill="#404043"/>
      <path id="Tracé_30961" data-name="Tracé 30961" d="M944.826,48.7V35.749c0-4.157-2.8-7.088-6.913-7.088s-6.957,3.063-6.957,7.219V48.7h-2.144V35.88a6.79,6.79,0,0,0-6.956-7.175c-4.113,0-6.913,3.019-6.913,7.175V48.7H912.8V27.086h2.012l.044,3.588a7.613,7.613,0,0,1,7.044-4.025c3.281,0,6.738,1.488,8.007,5.338a8.351,8.351,0,0,1,8.007-5.338,8.694,8.694,0,0,1,9.057,9.1V48.7Z" transform="translate(-605.554 -17.678)" fill="#404043"/>
      <path id="Tracé_30962" data-name="Tracé 30962" d="M1033.811,38.022c0-6.869,4.9-11.244,10.981-11.244s10.981,4.375,10.981,11.244-4.9,11.07-10.981,11.07-10.981-4.2-10.981-11.07m19.863,0c0-5.6-3.982-9.231-8.882-9.231s-8.881,3.631-8.881,9.231a8.882,8.882,0,1,0,17.763,0" transform="translate(-685.834 -17.765)" fill="#404043"/>
      <path id="Tracé_30963" data-name="Tracé 30963" d="M539.167,0l5.863,6.957v.35h-6.213l-1.882-1.969-1.969,1.969h-6.125v-.35L534.747,0Z" transform="translate(-350.835 0)" fill="#2697cf"/>
      <path id="Tracé_30964" data-name="Tracé 30964" d="M761.32,3.658a1.729,1.729,0,0,1-3.457,0,1.729,1.729,0,0,1,3.457,0" transform="translate(-502.769 -1.295)" fill="#2697cf"/>
      <path id="Tracé_30965" data-name="Tracé 30965" d="M161.189,70.535h0Z" transform="translate(-106.933 -46.793)" fill="#404043"/>
      <path id="Tracé_30966" data-name="Tracé 30966" d="M26.849,26.59,19.2,39.846a.961.961,0,0,1-1.313.352l-.813-.469a.961.961,0,0,1-.352-1.313l7.654-13.256a2.833,2.833,0,0,0,0-2.833L16.718,9.071a.961.961,0,0,1,.352-1.313l.812-.469A.961.961,0,0,1,19.2,7.64L26.849,20.9A2.832,2.832,0,0,0,29.3,22.312H50.137a1.9,1.9,0,0,0,1.646-2.852L41.619,1.856A3.708,3.708,0,0,0,38.407,0H15.275a3.709,3.709,0,0,0-3.212,1.855L.5,21.888A3.709,3.709,0,0,0,.5,25.6L12.063,45.63a3.709,3.709,0,0,0,3.212,1.855H38.407a3.708,3.708,0,0,0,3.212-1.855l10.165-17.6a1.9,1.9,0,0,0-1.647-2.852H29.3a2.832,2.832,0,0,0-2.453,1.416" transform="translate(0 -0.001)" fill="#2697cf"/>
      <path id="Tracé_30967" data-name="Tracé 30967" d="M919.775,114.768c-.076-1.285-.076-1.775-.092-2.189v-3.673h3.046V119.62h-2.571l-4.469-5.77.047,2.342v3.428h-3.061V108.907h2.571Z" transform="translate(-605.471 -72.249)" fill="#2697cf"/>
      <path id="Tracé_30968" data-name="Tracé 30968" d="M977.474,119.62H968.9V108.907h8.357v2.541h-5.372v1.531h5.065v2.464h-5.065v1.622h5.586Z" transform="translate(-642.774 -72.25)" fill="#2697cf"/>
      <path id="Tracé_30969" data-name="Tracé 30969" d="M1029.008,108.953v5.984c.015,3.168-1.914,4.943-5.051,4.943s-5.051-1.7-5.051-4.974v-5.953h3.016v5.953c0,1.683.811,2.387,2.035,2.387s2.036-.735,2.036-2.357v-5.984Z" transform="translate(-675.946 -72.28)" fill="#2697cf"/>
      <path id="Tracé_30970" data-name="Tracé 30970" d="M1074.822,119.62V108.907h8.218v2.541h-5.219v2h4.9v2.479h-4.9v3.688Z" transform="translate(-713.041 -72.25)" fill="#2697cf"/>
    </g>
  </g>
</svg>
