<?xml version="1.0" encoding="utf-8"?>
<!-- Generator: Adobe Illustrator 25.2.1, SVG Export Plug-In . SVG Version: 6.00 Build 0)  -->
<svg version="1.1" id="logo_LV" xmlns="http://www.w3.org/2000/svg" xmlns:xlink="http://www.w3.org/1999/xlink" x="0px" y="0px"
	 viewBox="0 0 142.2 168.9" style="enable-background:new 0 0 142.2 168.9;" xml:space="preserve">
<style type="text/css">
	.st0{fill:#F39300;}
</style>
<g>
	<g id="Groupe_19059" transform="translate(0 0)">
		<path id="Tracé_32238" class="st0" d="M56.7,86.4c8.1,8.1,21.1,8.1,29.2,0c5-5,7.1-12.2,5.5-19.1c-2.4,2.2-7.6,0.6-11.9-3.7
			c-4.2-4.2-5.9-9.5-3.7-11.9c-11.1-2.5-22.2,4.4-24.7,15.5C49.6,74.1,51.7,81.3,56.7,86.4"/>
		<path id="Tracé_32239" class="st0" d="M111.7,130.2c32.3-22.4,40.3-66.7,17.8-99c-6.3-9.1-14.7-16.6-24.5-21.9
			c0,0.6,0.1,1.2,0.1,1.8c0,4.8-1,9.5-2.9,13.8c-0.5,1.1-1.5,1.7-2.7,1.7c-0.4,0-0.8-0.1-1.2-0.3c-1.5-0.7-2.1-2.4-1.5-3.8
			c1.6-3.6,2.4-7.5,2.4-11.5c0-1.6-0.2-3.2-0.4-4.8c-17.7-7.5-37.8-7.5-55.5,0c-0.3,1.6-0.4,3.2-0.4,4.8c0,4,0.8,7.9,2.4,11.5
			c0.7,1.5,0,3.2-1.5,3.8c0,0,0,0,0,0c-0.4,0.2-0.8,0.2-1.2,0.3c-1.2,0-2.2-0.7-2.7-1.7c-1.9-4.4-3-9.1-2.9-13.8
			c0-0.6,0-1.2,0.1-1.8C2.7,28-10.1,71.2,8.6,105.7c5.3,9.8,12.8,18.1,21.9,24.5l-16.9,17.5c-1.2,1.6-1.8,3.6-1.8,5.6v5.9
			c0,5.4,4.4,9.7,9.7,9.7c0,0,0,0,0,0h99.2c5.4,0,9.7-4.4,9.7-9.7c0,0,0,0,0,0v-5.9c0-2-0.6-4-1.8-5.6L111.7,130.2z M71.1,8
			c1.7,0,3.1,1.4,3.1,3.1s-1.4,3.1-3.1,3.1S68,12.8,68,11.1c0,0,0,0,0,0C68,9.4,69.4,8,71.1,8 M71.1,38.6
			c18.3,0,33.2,14.9,33.2,33.2S89.5,105,71.1,105c-18.3,0-33.2-14.9-33.2-33.2C37.9,53.4,52.8,38.6,71.1,38.6 M33.4,151.9l13-13.4
			c16,5.9,33.6,5.9,49.6,0l13,13.4H33.4z"/>
	</g>
</g>
</svg>
