<svg xmlns="http://www.w3.org/2000/svg" width="148.014" height="108.025" viewBox="0 0 148.014 108.025">
  <path id="_1h" data-name="1h" d="M987.07-1211.22a66.71,66.71,0,0,1-28.428-28.32c-5.962-11.271-8.629-24.457-2.715-36.142a27.147,27.147,0,0,1,2.55-4.085c.352-.733.727-1.433,1.085-2.071a23.582,23.582,0,0,1,14.035-11,26.624,26.624,0,0,1,18.1,1.339c5.367,2.276,10.226,5.73,16.14,7.008,7.066,1.526,13.953-1.206,20.052-3.932,7.208-3.222,14.311-6.531,22.317-8.178a42.558,42.558,0,0,1,20.515.481,28.5,28.5,0,0,1,14.968,10.623c7.468,10.438,6.787,23.584,3.56,35.043a53.392,53.392,0,0,1-19.846,29.156c-5.969,4.354-13.016,7.6-20.091,10.524a91.472,91.472,0,0,1-23.361,6.7A68.261,68.261,0,0,1,987.07-1211.22Z" transform="matrix(0.995, 0.105, -0.105, 0.995, -1073.202, 1190.938)" fill="#efefef"/>
</svg>
