<svg xmlns="http://www.w3.org/2000/svg" width="2097.776" height="2209.674" viewBox="0 0 2097.776 2209.674">
  <g id="shape_2" data-name="shape 2" transform="matrix(-0.454, 0.891, -0.891, -0.454, 4861.263, 1301.458)">
    <path id="forme_fond_grise_foncée" data-name="forme fond grise foncée" d="M429.07,113.631C269.523,210.905,149.924,366.747,75.11,536.221.874,704.4-32.327,901.171,41.307,1075.541a424.747,424.747,0,0,0,31.746,60.951c4.381,10.931,9.046,21.387,13.512,30.907,35.173,74.967,95.739,136.461,174.743,164.186,76.626,26.894,154.023,16.3,225.4-19.974,66.82-33.96,127.323-85.511,200.962-104.577,87.974-22.777,173.725,17.995,249.663,58.669,89.748,48.075,178.18,97.456,277.871,122.033,83.76,20.651,173.47,22.08,255.432-7.185,78.842-28.149,143.781-87.2,186.362-158.518,92.985-155.754,84.506-351.927,44.331-522.92-38.908-165.6-117.729-321.958-247.1-435.073C1379.914,199.061,1292.162,150.569,1204.076,107c-91.967-45.488-188.869-84.539-290.87-99.919C745.23-18.241,572.857,25.964,429.07,113.631Z" transform="matrix(-0.53, 0.848, -0.848, -0.53, 2608.813, 3124.251)" fill="none" stroke="#fff" stroke-width="3"/>
    <path id="forme_fond_grise_foncée-2" data-name="forme fond grise foncée" d="M329.974,87.387C207.275,162.2,115.3,282.045,57.763,412.378c-57.091,129.339-82.624,280.663-26,414.761a326.65,326.65,0,0,0,24.414,46.874c3.369,8.406,6.957,16.447,10.391,23.769,27.049,57.653,73.628,104.945,134.385,126.267,58.929,20.683,118.451,12.534,173.34-15.361,51.387-26.117,97.917-65.762,154.549-80.424,67.656-17.517,133.6,13.839,192,45.119,69.02,36.972,137.029,74.948,213.7,93.849,64.415,15.881,133.407,16.981,196.438-5.526,60.633-21.648,110.574-67.058,143.321-121.907,71.509-119.782,64.989-270.647,34.093-402.149-29.922-127.357-90.539-247.6-190.03-334.591C1061.216,153.087,993.73,115.795,925.989,82.29,855.261,47.308,780.74,17.276,702.3,5.448,573.115-14.028,440.552,19.968,329.974,87.387Z" transform="matrix(-0.53, 0.848, -0.848, -0.53, 2365.558, 3207.823)" fill="none" stroke="#fff" stroke-width="2"/>
    <path id="forme_fond_grise_foncée-3" data-name="forme fond grise foncée" d="M274.142,72.6C172.2,134.752,95.789,234.322,47.99,342.6.558,450.058-20.654,575.777,26.392,687.186a271.381,271.381,0,0,0,20.283,38.943c2.8,6.984,5.78,13.664,8.633,19.747,22.473,47.9,61.17,87.188,111.647,104.9,48.958,17.183,98.409,10.413,144.011-12.762,42.693-21.7,81.35-54.635,128.4-66.817,56.208-14.553,111,11.5,159.515,37.485,57.342,30.716,113.843,62.266,177.538,77.969,53.516,13.194,110.834,14.107,163.2-4.591,50.374-17.985,91.865-55.711,119.071-101.28,59.41-99.514,53.993-224.853,28.324-334.1-24.859-105.808-75.22-205.706-157.877-277.978C881.656,127.184,825.589,96.2,769.31,68.367,710.55,39.3,648.638,14.353,583.467,4.526,476.143-11.654,366.01,16.589,274.142,72.6Z" transform="matrix(-0.53, 0.848, -0.848, -0.53, 2228.504, 3254.909)" fill="none" stroke="#fff" stroke-width="1"/>
  </g>
</svg>
