<svg xmlns="http://www.w3.org/2000/svg" width="1502.617" height="1582.706" viewBox="0 0 1502.617 1582.706">
  <g id="shape_3" data-name="shape 3" transform="matrix(-0.454, 0.891, -0.891, -0.454, 4147.796, 1112.112)">
    <path id="forme_fond_grise_foncée" data-name="forme fond grise foncée" d="M307.1,81.329C192.907,150.952,107.305,262.493,53.759,383.791.625,504.165-23.137,645,29.565,769.8a304,304,0,0,0,22.722,43.624c3.136,7.824,6.475,15.307,9.671,22.121,25.174,53.657,68.524,97.67,125.07,117.514,54.844,19.249,110.24,11.665,161.324-14.3,47.825-24.306,91.13-61.2,143.835-74.849,62.966-16.3,124.341,12.879,178.692,41.991,64.236,34.409,127.53,69.752,198.882,87.343,59.95,14.78,124.159,15.8,182.821-5.143,56.43-20.147,102.908-62.409,133.385-113.457,66.552-111.478,60.484-251.886,31.729-374.271-27.848-118.528-84.262-230.436-176.857-311.4-53.189-46.506-116-81.214-179.042-112.4C795.973,44.028,726.618,16.078,653.612,5.07,533.386-13.055,410.013,18.583,307.1,81.329Z" transform="matrix(-0.53, 0.848, -0.848, -0.53, 2010, 2912.917)" fill="none" stroke="#fff" stroke-width="3"/>
    <path id="forme_fond_grise_foncée-2" data-name="forme fond grise foncée" d="M236.174,62.546c-87.82,53.543-153.651,139.323-194.83,232.607C.481,387.725-17.794,496.033,22.737,592.011A233.8,233.8,0,0,0,40.211,625.56c2.412,6.017,4.979,11.772,7.437,17.012,19.36,41.264,52.7,75.112,96.184,90.373,42.177,14.8,84.779,8.971,124.065-10.994,36.78-18.693,70.083-47.068,110.616-57.562,48.423-12.537,95.624,9.9,137.422,32.293,49.4,26.462,98.076,53.643,152.949,67.171,46.1,11.367,95.484,12.154,140.6-3.955,43.4-15.494,79.141-48,102.58-87.253,51.182-85.732,46.515-193.711,24.4-287.831-21.416-91.153-64.8-177.216-136.011-239.478-40.9-35.766-89.206-62.457-137.691-86.437C612.139,33.86,558.8,12.365,502.657,3.9,410.2-10.04,315.318,14.291,236.174,62.546Z" transform="matrix(-0.53, 0.848, -0.848, -0.53, 1835.894, 2972.732)" fill="none" stroke="#fff" stroke-width="2"/>
    <path id="forme_fond_grise_foncée-3" data-name="forme fond grise foncée" d="M196.213,51.963C123.252,96.446,68.56,167.712,34.348,245.212.4,322.121-14.783,412.1,18.89,491.842a194.235,194.235,0,0,0,14.517,27.872c2,5,4.137,9.78,6.179,14.134,16.084,34.282,43.781,62.4,79.91,75.082,35.041,12.3,70.434,7.453,103.073-9.134,30.556-15.53,58.225-39.1,91.9-47.823,40.23-10.416,79.444,8.229,114.17,26.829,41.042,21.984,81.481,44.566,127.07,55.805,38.3,9.443,79.328,10.1,116.808-3.286,36.054-12.873,65.751-39.874,85.223-72.49,42.522-71.226,38.644-160.935,20.273-239.13-17.793-75.73-53.837-147.231-113-198.958C631.031,91.03,590.9,68.855,550.621,48.932c-42.056-20.8-86.369-38.66-133.014-45.693C340.792-8.341,261.966,11.873,196.213,51.963Z" transform="matrix(-0.53, 0.848, -0.848, -0.53, 1737.8, 3006.433)" fill="none" stroke="#fff" stroke-width="1"/>
  </g>
</svg>
