<svg xmlns="http://www.w3.org/2000/svg" width="83" height="83" viewBox="0 0 83 83">
  <g id="RGPD" transform="translate(6760.099 -58.015)">
    <circle id="Ellipse_542" data-name="Ellipse 542" cx="41.5" cy="41.5" r="41.5" transform="translate(-6760.099 58.014)" fill="#0052b4"/>
    <g id="Groupe_17037" data-name="Groupe 17037" transform="translate(-6752.698 65.446)">
      <path id="Tracé_27324" data-name="Tracé 27324" d="M-6543.809,103.831l1.813,5.58h5.867l-4.747,3.448,1.813,5.58-4.746-3.448-4.747,3.448,1.813-5.58-4.746-3.448h5.867Z" transform="translate(6577.893 -103.831)" fill="#ffda44"/>
      <path id="Tracé_27325" data-name="Tracé 27325" d="M-6660.5,157.757l5.228,2.663,4.148-4.148-.918,5.794,5.228,2.663-5.795.918-.917,5.795-2.664-5.227-5.794.918,4.148-4.148Z" transform="translate(6670.484 -147.774)" fill="#ffda44"/>
      <path id="Tracé_27326" data-name="Tracé 27326" d="M-6714.428,274.45l5.58-1.813v-5.867l3.448,4.746,5.58-1.813-3.449,4.746,3.449,4.746-5.58-1.813-3.448,4.746v-5.867Z" transform="translate(6714.428 -240.367)" fill="#ffda44"/>
      <path id="Tracé_27327" data-name="Tracé 27327" d="M-6660.5,392.123l2.664-5.228-4.148-4.148,5.794.918,2.663-5.227.918,5.794,5.794.918-5.227,2.663.917,5.794-4.148-4.148Z" transform="translate(6670.484 -333.938)" fill="#ffda44"/>
      <path id="Tracé_27328" data-name="Tracé 27328" d="M-6543.809,448.96l-1.813-5.58h-5.866l4.747-3.448-1.813-5.579,4.747,3.448,4.746-3.448-1.813,5.579,4.747,3.448H-6542Z" transform="translate(6577.893 -380.792)" fill="#ffda44"/>
      <path id="Tracé_27329" data-name="Tracé 27329" d="M-6426.135,392.123l-5.228-2.663-4.148,4.148.918-5.795-5.227-2.663,5.794-.918.917-5.794,2.664,5.227,5.794-.918-4.148,4.149Z" transform="translate(6484.319 -333.938)" fill="#ffda44"/>
      <path id="Tracé_27330" data-name="Tracé 27330" d="M-6369.3,274.45l-5.58,1.813v5.867l-3.448-4.746-5.579,1.813,3.448-4.746-3.448-4.746,5.579,1.813,3.448-4.746v5.867Z" transform="translate(6437.468 -240.367)" fill="#ffda44"/>
      <path id="Tracé_27331" data-name="Tracé 27331" d="M-6426.135,157.758l-2.664,5.228,4.148,4.148-5.794-.918-2.663,5.227-.917-5.794-5.794-.918,5.227-2.663-.918-5.794,4.148,4.148Z" transform="translate(6484.319 -147.776)" fill="#ffda44"/>
    </g>
  </g>
</svg>
