<svg xmlns="http://www.w3.org/2000/svg" width="83" height="83" viewBox="0 0 83 83">
  <g id="Réseaux_sociaux" data-name="Réseaux sociaux" transform="translate(4358.929 -226.122)">
    <rect id="Rectangle_3159" data-name="Rectangle 3159" width="3" height="28" transform="translate(-4316.929 270.122)" fill="#424a60"/>
    <rect id="Rectangle_3160" data-name="Rectangle 3160" width="33.02" height="3.113" transform="translate(-4311.775 258.209) rotate(-45)" fill="#424a60"/>
    <rect id="Rectangle_3161" data-name="Rectangle 3161" width="44.027" height="3.113" transform="translate(-4350.69 297.125) rotate(-45)" fill="#424a60"/>
    <rect id="Rectangle_3162" data-name="Rectangle 3162" width="3.113" height="24.214" transform="translate(-4339.794 241.732) rotate(-45)" fill="#424a60"/>
    <rect id="Rectangle_3163" data-name="Rectangle 3163" width="3.113" height="33.02" transform="translate(-4313.332 268.193) rotate(-45)" fill="#424a60"/>
    <circle id="Ellipse_535" data-name="Ellipse 535" cx="8" cy="8" r="8" transform="translate(-4291.929 226.122)" fill="#43b05c"/>
    <ellipse id="Ellipse_536" data-name="Ellipse 536" cx="7.5" cy="8" rx="7.5" ry="8" transform="translate(-4322.929 293.122)" fill="#7383bf"/>
    <circle id="Ellipse_537" data-name="Ellipse 537" cx="8" cy="8" r="8" transform="translate(-4358.929 290.122)" fill="#57d8ab"/>
    <ellipse id="Ellipse_538" data-name="Ellipse 538" cx="4.5" cy="5" rx="4.5" ry="5" transform="translate(-4344.929 234.122)" fill="#d75a4a"/>
    <circle id="Ellipse_539" data-name="Ellipse 539" cx="4.5" cy="4.5" r="4.5" transform="translate(-4294.929 284.122)" fill="#ebba16"/>
    <ellipse id="Ellipse_540" data-name="Ellipse 540" cx="10.5" cy="11" rx="10.5" ry="11" transform="translate(-4325.929 253.122)" fill="#4b6daa"/>
  </g>
</svg>
