<svg xmlns="http://www.w3.org/2000/svg" width="74.063" height="82.853" viewBox="0 0 74.063 82.853">
  <g id="MAJ_Auto" data-name="MAJ Auto" transform="translate(5630.02 -57.73)">
    <path id="Tracé_27314" data-name="Tracé 27314" d="M-5624.792,124.267a31.41,31.41,0,0,0,13.38,25.743,2.593,2.593,0,0,1,.132,4.164l-.039.03a2.584,2.584,0,0,1-3.08.1,36.634,36.634,0,0,1-15.622-30.034c0-20.146,16.676-36.5,36.781-36.673v5.229C-5610.459,92.994-5624.792,107.007-5624.792,124.267Z" transform="translate(0 -25.031)" fill="#1ed688"/>
    <path id="Tracé_27315" data-name="Tracé 27315" d="M-5403.972,57.887l9.608,6.572a.887.887,0,0,1,0,1.463l-9.608,6.572a.887.887,0,0,1-1.387-.731V58.619A.887.887,0,0,1-5403.972,57.887Z" transform="translate(-188.306)" fill="#1ab975"/>
    <path id="Tracé_27316" data-name="Tracé 27316" d="M-5367.931,155.28a31.41,31.41,0,0,0-13.381-25.743,2.593,2.593,0,0,1-.132-4.164l.039-.03a2.584,2.584,0,0,1,3.08-.1A36.632,36.632,0,0,1-5362.7,155.28c0,20.146-16.647,36.5-36.753,36.673v-5.229C-5382.237,186.552-5367.931,172.54-5367.931,155.28Z" transform="translate(-193.254 -56.202)" fill="#1ed688"/>
    <path id="Tracé_27317" data-name="Tracé 27317" d="M-5457.324,492.294l-9.608-6.572a.887.887,0,0,1,0-1.463l9.608-6.572a.887.887,0,0,1,1.387.731v13.144A.887.887,0,0,1-5457.324,492.294Z" transform="translate(-136.374 -351.867)" fill="#1ab975"/>
    <path id="Tracé_27318" data-name="Tracé 27318" d="M-5477.167,250.3l-15.738,13.052-3.968,3.291a5.222,5.222,0,0,1-3.322,1.195,5.221,5.221,0,0,1-.6-.035,5.2,5.2,0,0,1-3.543-2.042l-6.121-8.158a4.176,4.176,0,0,1,.836-5.843,4.174,4.174,0,0,1,5.842.835l4.132,5.509.034-.027,17.125-14.2a4.174,4.174,0,0,1,5.876.549A4.173,4.173,0,0,1-5477.167,250.3Z" transform="translate(-99.513 -155.213)" fill="#1ed688"/>
    <path id="Tracé_27319" data-name="Tracé 27319" d="M-5416.685,250.3l-15.739,13.052a21.145,21.145,0,0,1-6.713-5.275l17.125-14.2a4.174,4.174,0,0,1,5.876.549A4.173,4.173,0,0,1-5416.685,250.3Z" transform="translate(-159.994 -155.213)" fill="#35e298"/>
  </g>
</svg>
