<svg xmlns="http://www.w3.org/2000/svg" width="98.138" height="92.305" viewBox="0 0 98.138 92.305">
  <g id="Partenaires" transform="translate(3120.645 -14.43)">
    <path id="Tracé_27279" data-name="Tracé 27279" d="M-2811.506,111.914l-4.809-4.3a10.77,10.77,0,0,0-7.178-2.739h-8.542v14.877h-4.656v23.636h38.329V111.914Z" transform="translate(-229.527 -73.11)" fill="#eb9c8d"/>
    <path id="Tracé_27280" data-name="Tracé 27280" d="M-2815,203.55c.024-.264.04-.53.04-.8a8.949,8.949,0,0,0-1.677-5.232L-2832.6,179.3l-1.3.611h-2.787V203.55h21.7Z" transform="translate(-229.527 -133.272)" fill="#d78878"/>
    <g id="Groupe_17016" data-name="Groupe 17016" transform="translate(-3115.33 33.501)">
      <g id="Groupe_17015" data-name="Groupe 17015" transform="translate(0)">
        <g id="Groupe_17014" data-name="Groupe 17014">
          <path id="Tracé_27281" data-name="Tracé 27281" d="M-3036.453,151.1a5.066,5.066,0,0,1-1.2,7.028,5.047,5.047,0,0,1-2.945.947,5.061,5.061,0,0,1-4.121-2.116l-.557-.778a5.063,5.063,0,0,1-1.172,7.06,5.036,5.036,0,0,1-2.942.947,5.059,5.059,0,0,1-4.123-2.118l-.314-.438a5.064,5.064,0,0,1-1.168,7.065,5.037,5.037,0,0,1-2.943.947,5.059,5.059,0,0,1-4.123-2.118l-11.68-16.519a.731.731,0,0,0-.6-.31l-18.583.032v-31.9h14.022l1.526-1.575a10.973,10.973,0,0,1,7.879-3.335h16.207l12.266,13.142,14.054,19.894a5.038,5.038,0,0,1,.947,2.945,5.057,5.057,0,0,1-2.118,4.121,5.064,5.064,0,0,1-7.063-1.17Z" transform="translate(3092.917 -113.926)" fill="#fed2a4"/>
        </g>
      </g>
    </g>
    <g id="Groupe_17025" data-name="Groupe 17025" transform="translate(-3120.645 14.43)">
      <g id="Groupe_17018" data-name="Groupe 17018" transform="translate(0 21.114)">
        <g id="Groupe_17017" data-name="Groupe 17017">
          <path id="Tracé_27282" data-name="Tracé 27282" d="M-2673.588,126.118v34.906a1.535,1.535,0,0,1-1.535,1.535h-11.94a1.924,1.924,0,0,1-1.925-1.924V126.507a1.924,1.924,0,0,1,1.925-1.924h11.94a1.535,1.535,0,0,1,1.535,1.535Z" transform="translate(2771.727 -124.583)" fill="#fdb97e"/>
          <path id="Tracé_27283" data-name="Tracé 27283" d="M-3058.866,183.848a5.058,5.058,0,0,0,4.123,2.118,5.045,5.045,0,0,0,1.7-.3,5.044,5.044,0,0,1-1.952,2.842,5.037,5.037,0,0,1-2.943.947,5.059,5.059,0,0,1-4.123-2.118l-11.68-16.519a.731.731,0,0,0-.6-.31l-18.583.032v-31.9h14.022l.208-.214v25a3.6,3.6,0,0,0,3.6,3.6l2.83,0a3,3,0,0,1,2.454,1.276Z" transform="translate(3098.232 -135.773)" fill="#ffbd86"/>
          <path id="Tracé_27284" data-name="Tracé 27284" d="M-3105.048,126.507v34.127a1.924,1.924,0,0,1-1.924,1.924h-12.574a1.1,1.1,0,0,1-1.1-1.1V125.682a1.1,1.1,0,0,1,1.1-1.1h12.574a1.924,1.924,0,0,1,1.924,1.924Z" transform="translate(3120.645 -124.583)" fill="#ade194"/>
          <path id="Tracé_27285" data-name="Tracé 27285" d="M-3106.972,277.551h-12.574a1.1,1.1,0,0,1-1.1-1.1v7.1a1.1,1.1,0,0,0,1.1,1.1h12.574a1.924,1.924,0,0,0,1.924-1.924v-7.1A1.924,1.924,0,0,1-3106.972,277.551Z" transform="translate(3120.645 -246.675)" fill="#97da7b"/>
        </g>
      </g>
      <g id="Groupe_17019" data-name="Groupe 17019" transform="translate(47.589 0)">
        <path id="Tracé_27286" data-name="Tracé 27286" d="M-2870.887,22.532a1.48,1.48,0,0,1-1.48-1.48V15.91a1.48,1.48,0,0,1,1.48-1.48,1.48,1.48,0,0,1,1.48,1.48v5.142A1.48,1.48,0,0,1-2870.887,22.532Z" transform="translate(2872.367 -14.43)" fill="#fee97d"/>
      </g>
      <g id="Groupe_17020" data-name="Groupe 17020" transform="translate(62.908 3.578)">
        <path id="Tracé_27287" data-name="Tracé 27287" d="M-2790.967,40.769a1.474,1.474,0,0,1-.59-.123,1.48,1.48,0,0,1-.766-1.948l2.053-4.714a1.48,1.48,0,0,1,1.948-.766,1.48,1.48,0,0,1,.766,1.948l-2.052,4.714A1.48,1.48,0,0,1-2790.967,40.769Z" transform="translate(2792.447 -33.095)" fill="#fee97d"/>
      </g>
      <g id="Groupe_17021" data-name="Groupe 17021" transform="translate(30.216 3.577)">
        <path id="Tracé_27288" data-name="Tracé 27288" d="M-2959.468,40.768a1.481,1.481,0,0,1-1.358-.89l-2.053-4.714a1.48,1.48,0,0,1,.766-1.948,1.48,1.48,0,0,1,1.948.766l2.053,4.714a1.48,1.48,0,0,1-.766,1.948,1.473,1.473,0,0,1-.59.124Z" transform="translate(2963.002 -33.094)" fill="#fee97d"/>
      </g>
      <g id="Groupe_17022" data-name="Groupe 17022" transform="translate(47.589 84.203)">
        <path id="Tracé_27289" data-name="Tracé 27289" d="M-2870.887,461.831a1.48,1.48,0,0,1-1.48-1.48v-5.142a1.48,1.48,0,0,1,1.48-1.48,1.48,1.48,0,0,1,1.48,1.48v5.141A1.48,1.48,0,0,1-2870.887,461.831Z" transform="translate(2872.367 -453.729)" fill="#fee97d"/>
      </g>
      <g id="Groupe_17023" data-name="Groupe 17023" transform="translate(62.908 81.053)">
        <path id="Tracé_27290" data-name="Tracé 27290" d="M-2788.912,444.969a1.48,1.48,0,0,1-1.358-.889l-2.053-4.714a1.48,1.48,0,0,1,.766-1.948,1.48,1.48,0,0,1,1.948.766l2.052,4.714a1.48,1.48,0,0,1-.766,1.948A1.478,1.478,0,0,1-2788.912,444.969Z" transform="translate(2792.447 -437.294)" fill="#fee97d"/>
      </g>
      <g id="Groupe_17024" data-name="Groupe 17024" transform="translate(30.216 81.053)">
        <path id="Tracé_27291" data-name="Tracé 27291" d="M-2961.522,444.968a1.477,1.477,0,0,1-.59-.123,1.48,1.48,0,0,1-.766-1.948l2.053-4.714a1.48,1.48,0,0,1,1.948-.766,1.48,1.48,0,0,1,.766,1.948l-2.053,4.714a1.481,1.481,0,0,1-1.358.889Z" transform="translate(2963.002 -437.293)" fill="#fee97d"/>
      </g>
    </g>
    <path id="Tracé_27292" data-name="Tracé 27292" d="M-2945.547,127.068l-12.266-13.142h-5.194l-9.778,11.433a8.418,8.418,0,0,0-2.023,5.473,8.362,8.362,0,0,0,2.465,5.951,8.362,8.362,0,0,0,5.952,2.465,8.442,8.442,0,0,0,5.269-1.854l7.945-6.378h10.419Z" transform="translate(-117.884 -80.425)" fill="#ffbd86"/>
    <path id="Tracé_27293" data-name="Tracé 27293" d="M-2927.032,104.876H-2937.4a4.96,4.96,0,0,0-3.767,1.735l-11.974,14a4.454,4.454,0,0,0-1.074,2.905,4.46,4.46,0,0,0,1.309,3.16,4.468,4.468,0,0,0,5.958.324l8.539-6.855a1.78,1.78,0,0,1,1.113-.391h10.263V104.876Z" transform="translate(-134.53 -73.11)" fill="#eb9c8d"/>
  </g>
</svg>
