<svg xmlns="http://www.w3.org/2000/svg" width="109.093" height="83.098" viewBox="0 0 109.093 83.098">
  <g id="Responsive" transform="translate(5086.282 -118.445)">
    <path id="Tracé_27308" data-name="Tracé 27308" d="M-4966.366,128.033v67.118h-89.917V128.033a9.575,9.575,0,0,1,9.588-9.588h70.74A9.575,9.575,0,0,1-4966.366,128.033Z" transform="translate(-23.608)" fill="#47568c"/>
    <path id="Tracé_27309" data-name="Tracé 27309" d="M-5012.346,448.445v12.784h-67.544a6.411,6.411,0,0,1-6.392-6.392v-3.2a3.165,3.165,0,0,1,3.2-3.2Z" transform="translate(0 -259.686)" fill="#efefef"/>
    <g id="Groupe_17031" data-name="Groupe 17031" transform="translate(-5073.498 124.837)">
      <path id="Tracé_27310" data-name="Tracé 27310" d="M-4949.15,151.641v54.333h-77.132V151.641a3.165,3.165,0,0,1,3.2-3.2h70.74A3.165,3.165,0,0,1-4949.15,151.641Z" transform="translate(5026.282 -148.445)" fill="#76e2f8"/>
    </g>
    <g id="Groupe_17032" data-name="Groupe 17032" transform="translate(-5021.935 131.229)">
      <path id="Tracé_27311" data-name="Tracé 27311" d="M-4749.125,178.445h-25.568a9.6,9.6,0,0,0-9.588,9.588V239.17a9.6,9.6,0,0,0,9.588,9.588h25.568a9.6,9.6,0,0,0,9.588-9.588V188.033A9.6,9.6,0,0,0-4749.125,178.445Z" transform="translate(4784.282 -178.445)" fill="#61729b"/>
      <path id="Tracé_27312" data-name="Tracé 27312" d="M-4725.518,208.445h-25.568a3.2,3.2,0,0,0-3.2,3.2v51.137a3.2,3.2,0,0,0,3.2,3.2h25.568a3.2,3.2,0,0,0,3.2-3.2V211.641A3.2,3.2,0,0,0-4725.518,208.445Z" transform="translate(4760.674 -202.053)" fill="#76e2f8"/>
    </g>
    <path id="Tracé_27313" data-name="Tracé 27313" d="M-4696.5,421.641a3.165,3.165,0,0,1-3.2,3.2h-6.392a3.165,3.165,0,0,1-3.2-3.2,3.165,3.165,0,0,1,3.2-3.2h6.392A3.165,3.165,0,0,1-4696.5,421.641Z" transform="translate(-296.672 -236.078)" fill="#edf5ff"/>
    <circle id="Ellipse_541" data-name="Ellipse 541" cx="3" cy="3" r="3" transform="translate(-5002.282 144.445)" fill="#edf5ff"/>
  </g>
</svg>
