<svg xmlns="http://www.w3.org/2000/svg" width="81.204" height="81.204" viewBox="0 0 81.204 81.204">
  <g id="Moteur_recherche" data-name="Moteur recherche" transform="translate(1216.416 0.786)">
    <path id="Tracé_27258" data-name="Tracé 27258" d="M-1079.573,315.716l5.2,5.2-6.931,6.931-5.2-5.2Z" transform="translate(-109.307 -266.304)" fill="#a4bde0"/>
    <path id="Tracé_27259" data-name="Tracé 27259" d="M-1090.5,304.792l3.465,3.465-6.931,6.931-3.465-3.465Z" transform="translate(-100.113 -257.113)" fill="#b0d0ff"/>
    <path id="Tracé_27260" data-name="Tracé 27260" d="M-1191.8,380.648s10.87-14.242,10.87-14.242l-3.466-6.932-18.447,21.913a7.353,7.353,0,0,0,10.4,0,7.371,7.371,0,0,0,.645-.739Z" transform="translate(-11.424 -303.122)" fill="#8d6ed1"/>
    <path id="Tracé_27261" data-name="Tracé 27261" d="M-1207.33,377.921a7.436,7.436,0,0,0,.645-.739s10.87-14.242,10.87-14.242v-3.466h-3.466l-14.242,10.869a7.639,7.639,0,0,0-.738.646,7.352,7.352,0,0,0,0,10.4C-1213.305,382.344-1210.2,380.792-1207.33,377.921Z" transform="translate(0 -303.122)" fill="#a381e6"/>
    <circle id="Ellipse_534" data-name="Ellipse 534" cx="29.41" cy="29.41" r="29.41" transform="translate(-1194.031 -0.786)" fill="#a4bde0"/>
    <path id="Tracé_27262" data-name="Tracé 27262" d="M-1035.89,319.233l-3.466-3.466-3.466,3.466,3.466,3.466a2.451,2.451,0,0,0,3.466,0A2.451,2.451,0,0,0-1035.89,319.233Z" transform="translate(-146.061 -266.347)" fill="#b0d0ff"/>
    <path id="Tracé_27263" data-name="Tracé 27263" d="M-1061.552,297.037a2.451,2.451,0,0,0,0-3.466l-3.466-3.466a2.451,2.451,0,0,0-3.466,0,2.451,2.451,0,0,0,0,3.466l3.466,3.466A2.451,2.451,0,0,0-1061.552,297.037Z" transform="translate(-123.866 -244.151)" fill="#c4e3fa"/>
    <path id="Tracé_27264" data-name="Tracé 27264" d="M-1079.6,362.94l-3.466-3.466-3.466,3.466,3.466,3.466a2.451,2.451,0,0,0,3.466,0A2.451,2.451,0,0,0-1079.6,362.94Z" transform="translate(-109.286 -303.122)" fill="#b0d0ff"/>
    <path id="Tracé_27265" data-name="Tracé 27265" d="M-1105.259,340.745a2.451,2.451,0,0,0,0-3.466l-3.466-3.466a2.451,2.451,0,0,0-3.466,0,2.451,2.451,0,0,0,0,3.466l3.466,3.466A2.451,2.451,0,0,0-1105.259,340.745Z" transform="translate(-87.09 -280.927)" fill="#c4e3fa"/>
    <path id="Tracé_27266" data-name="Tracé 27266" d="M-964.456,75.379l-34.66,34.66a24.508,24.508,0,0,0,34.66,0A24.508,24.508,0,0,0-964.456,75.379Z" transform="translate(-182.835 -64.085)" fill="#e3f5ff"/>
    <path id="Tracé_27267" data-name="Tracé 27267" d="M-1006,68.491c9.571-9.571,11.123-23.537,3.466-31.194a24.508,24.508,0,0,0-34.66,0,24.508,24.508,0,0,0,0,34.66c7.657,7.657,21.623,6.105,31.194-3.466Z" transform="translate(-144.754 -26.003)" fill="#fff"/>
  </g>
</svg>
