<svg xmlns="http://www.w3.org/2000/svg" width="75.963" height="81.486" viewBox="0 0 75.963 81.486">
  <g id="Alerte_mail" data-name="Alerte mail" transform="translate(527.504 -24.593)">
    <path id="Tracé_27245" data-name="Tracé 27245" d="M-451.54,61.064a13.584,13.584,0,0,0-3.979-9.606L-477.337,29.64a17.232,17.232,0,0,0-24.37,0l-21.818,21.818a13.584,13.584,0,0,0-3.979,9.606Z" transform="translate(0 0)" fill="#efa702"/>
    <rect id="Rectangle_3156" data-name="Rectangle 3156" width="61.896" height="52.049" rx="4" transform="translate(-520.47 34.336)" fill="#d3e1e9"/>
    <g id="Groupe_17004" data-name="Groupe 17004" transform="translate(-508.815 44.956)">
      <path id="Tracé_27246" data-name="Tracé 27246" d="M-418.688,140.4h5.061a2.53,2.53,0,0,1,2.53,2.53h0a2.53,2.53,0,0,1-2.53,2.53h-5.061a2.53,2.53,0,0,1-2.53-2.53h0A2.53,2.53,0,0,1-418.688,140.4Z" transform="translate(421.218 -140.396)" fill="#8acce7"/>
    </g>
    <g id="Groupe_17005" data-name="Groupe 17005" transform="translate(-508.815 54.138)">
      <path id="Tracé_27247" data-name="Tracé 27247" d="M-418.688,192.615h33.535a2.53,2.53,0,0,1,2.53,2.53h0a2.53,2.53,0,0,1-2.53,2.53h-33.535a2.53,2.53,0,0,1-2.53-2.53h0A2.53,2.53,0,0,1-418.688,192.615Z" transform="translate(421.218 -192.615)" fill="#8acce7"/>
    </g>
    <g id="Groupe_17006" data-name="Groupe 17006" transform="translate(-508.815 63.336)">
      <path id="Tracé_27248" data-name="Tracé 27248" d="M-418.688,244.922h33.535a2.53,2.53,0,0,1,2.53,2.53h0a2.53,2.53,0,0,1-2.53,2.53h-33.535a2.53,2.53,0,0,1-2.53-2.53h0A2.53,2.53,0,0,1-418.688,244.922Z" transform="translate(421.218 -244.922)" fill="#8acce7"/>
    </g>
    <path id="Tracé_27249" data-name="Tracé 27249" d="M-451.54,205.627v39.389a5.628,5.628,0,0,1-5.627,5.627h-64.71a5.628,5.628,0,0,1-5.627-5.627V205.627A5.628,5.628,0,0,1-521.877,200a8.376,8.376,0,0,1,6.733,3.392l18.84,25.434a8.441,8.441,0,0,0,11.808,1.757,8.44,8.44,0,0,0,1.757-1.757l18.84-25.434A8.376,8.376,0,0,1-457.167,200,5.628,5.628,0,0,1-451.54,205.627Z" transform="translate(0 -144.563)" fill="#eebe33"/>
    <path id="Tracé_27250" data-name="Tracé 27250" d="M-495.5,336.881a8.378,8.378,0,0,0,6.732-3.391l18.84-25.434a8.44,8.44,0,0,1,11.806-1.758,8.445,8.445,0,0,1,1.758,1.758l18.84,25.434a8.378,8.378,0,0,0,6.732,3.391Z" transform="translate(-26.373 -230.802)" fill="#eedc9a"/>
  </g>
</svg>
