<svg xmlns="http://www.w3.org/2000/svg" width="81" height="81" viewBox="0 0 81 81">
  <g id="Big_Data" data-name="Big Data" transform="translate(1894.542 0.786)">
    <g id="_043---Data-Cloud" data-name="043---Data-Cloud" transform="translate(-1894.542 -0.786)">
      <g id="Groupe_17011" data-name="Groupe 17011" transform="translate(12.569 12.569)">
        <path id="Shape" d="M-1645.973,94.094a1.4,1.4,0,0,1-1.4-1.4V80.059a1.4,1.4,0,0,1,1.4-1.4,1.4,1.4,0,0,1,1.4,1.4V92.7A1.4,1.4,0,0,1-1645.973,94.094Z" transform="translate(1673.904 -78.662)" fill="#955ba5"/>
        <path id="Shape-2" data-name="Shape" d="M-1755.266,139.886a1.387,1.387,0,0,1-.987-.409l-9.441-9.441a1.4,1.4,0,0,1-.381-1.358,1.4,1.4,0,0,1,1-1,1.4,1.4,0,0,1,1.358.381l9.441,9.441a1.4,1.4,0,0,1,.3,1.522,1.4,1.4,0,0,1-1.29.862Z" transform="translate(1773.868 -119.887)" fill="#955ba5"/>
        <path id="Shape-3" data-name="Shape" d="M-1805.946,249.179h-7.751a1.4,1.4,0,0,1-1.4-1.4,1.4,1.4,0,0,1,1.4-1.4h7.751a1.4,1.4,0,0,1,1.4,1.4A1.4,1.4,0,0,1-1805.946,249.179Z" transform="translate(1815.093 -219.852)" fill="#955ba5"/>
        <path id="Shape-4" data-name="Shape" d="M-1764.614,327.489a1.4,1.4,0,0,1-1.29-.862,1.4,1.4,0,0,1,.3-1.522l7.6-7.6a1.4,1.4,0,0,1,1.958.017,1.4,1.4,0,0,1,.017,1.958l-7.6,7.6A1.387,1.387,0,0,1-1764.614,327.489Z" transform="translate(1773.775 -279.391)" fill="#955ba5"/>
        <path id="Shape-5" data-name="Shape" d="M-1645.973,335.162a1.4,1.4,0,0,1-1.4-1.4V318.4a1.4,1.4,0,0,1,1.4-1.4,1.4,1.4,0,0,1,1.4,1.4v15.362A1.4,1.4,0,0,1-1645.973,335.162Z" transform="translate(1673.904 -279.3)" fill="#955ba5"/>
        <path id="Shape-6" data-name="Shape" d="M-1567.825,327.316a1.387,1.387,0,0,1-.987-.409l-7.611-7.611a1.4,1.4,0,0,1,0-1.977,1.4,1.4,0,0,1,1.977,0l7.611,7.611a1.4,1.4,0,0,1,.3,1.522,1.4,1.4,0,0,1-1.29.862Z" transform="translate(1614.525 -279.219)" fill="#955ba5"/>
        <path id="Shape-7" data-name="Shape" d="M-1516.741,249.179h-7.234a1.4,1.4,0,0,1-1.4-1.4,1.4,1.4,0,0,1,1.4-1.4h7.234a1.4,1.4,0,0,1,1.4,1.4A1.4,1.4,0,0,1-1516.741,249.179Z" transform="translate(1571.207 -219.852)" fill="#955ba5"/>
        <path id="Shape-8" data-name="Shape" d="M-1595.3,141.2a1.4,1.4,0,0,1-1.29-.862,1.4,1.4,0,0,1,.3-1.522l10.753-10.753a1.4,1.4,0,0,1,1.358-.381,1.4,1.4,0,0,1,1,1,1.4,1.4,0,0,1-.381,1.358l-10.753,10.753a1.4,1.4,0,0,1-.987.409Z" transform="translate(1631.248 -119.887)" fill="#955ba5"/>
      </g>
      <path id="Shape-9" data-name="Shape" d="M-1723.029,183.01a8.928,8.928,0,0,1-8.771,9.05h-22.778a7.681,7.681,0,0,1-7.555-7.793,7.978,7.978,0,0,1,.28-2.095,7.608,7.608,0,0,1,7.276-5.712,7.748,7.748,0,0,1,1.006.07,9.946,9.946,0,0,1,8.789-9.544,9.946,9.946,0,0,1,10.748,7.268,8.527,8.527,0,0,1,2.234-.293,8.829,8.829,0,0,1,8.519,6.955A8.616,8.616,0,0,1-1723.029,183.01Z" transform="translate(1783.081 -140.387)" fill="#d1d4d1"/>
      <path id="Shape-10" data-name="Shape" d="M-1721.789,180.915a8.829,8.829,0,0,1-8.519,6.955h-22.778a7.611,7.611,0,0,1-7.276-5.7,7.608,7.608,0,0,1,7.276-5.712,7.748,7.748,0,0,1,1.006.07,9.946,9.946,0,0,1,8.789-9.544,9.946,9.946,0,0,1,10.748,7.268,8.527,8.527,0,0,1,2.234-.293A8.829,8.829,0,0,1-1721.789,180.915Z" transform="translate(1781.59 -140.387)" fill="#ecf0f1"/>
      <circle id="Oval" cx="6.983" cy="6.983" r="6.983" transform="translate(33.517)" fill="#ff5364"/>
      <circle id="Oval-2" data-name="Oval" cx="6.983" cy="6.983" r="6.983" transform="translate(9.816 9.816)" fill="#f0c419"/>
      <circle id="Oval-3" data-name="Oval" cx="6.983" cy="6.983" r="6.983" transform="translate(0 33.517)" fill="#ff5364"/>
      <circle id="Oval-4" data-name="Oval" cx="6.983" cy="6.983" r="6.983" transform="translate(9.816 57.218)" fill="#f0c419"/>
      <circle id="Oval-5" data-name="Oval" cx="6.983" cy="6.983" r="6.983" transform="translate(33.517 67.034)" fill="#ff5364"/>
      <circle id="Oval-6" data-name="Oval" cx="6.983" cy="6.983" r="6.983" transform="translate(57.218 57.218)" fill="#f0c419"/>
      <circle id="Oval-7" data-name="Oval" cx="6.983" cy="6.983" r="6.983" transform="translate(67.034 33.517)" fill="#ff5364"/>
      <circle id="Oval-8" data-name="Oval" cx="6.983" cy="6.983" r="6.983" transform="translate(57.218 9.816)" fill="#f0c419"/>
    </g>
  </g>
</svg>
