<svg xmlns="http://www.w3.org/2000/svg" width="93.769" height="81.484" viewBox="0 0 93.769 81.484">
  <g id="CDC" transform="translate(-321 -1566.719)">
    <path id="Tracé_27232" data-name="Tracé 27232" d="M57.669,259.312h72.645v11.117H57.669Z" transform="translate(273.893 1348.755)" fill="#f69583"/>
    <g id="Groupe_16985" data-name="Groupe 16985" transform="translate(339.662 1622.778)">
      <g id="Groupe_16983" data-name="Groupe 16983">
        <path id="Tracé_27233" data-name="Tracé 27233" d="M123.149,365.062H103.785a1.887,1.887,0,0,1-1.887-1.887V339.638h23.138v23.537a1.887,1.887,0,0,1-1.887,1.887Z" transform="translate(-101.898 -339.638)" fill="#ffcec0"/>
      </g>
      <g id="Groupe_16984" data-name="Groupe 16984" transform="translate(33.307)">
        <path id="Tracé_27234" data-name="Tracé 27234" d="M305.015,365.062H285.651a1.887,1.887,0,0,1-1.887-1.887V339.638H306.9v23.537a1.887,1.887,0,0,1-1.887,1.887Z" transform="translate(-283.764 -339.638)" fill="#ffcec0"/>
      </g>
    </g>
    <g id="Groupe_16988" data-name="Groupe 16988" transform="translate(321 1592.796)">
      <g id="Groupe_16986" data-name="Groupe 16986">
        <path id="Tracé_27235" data-name="Tracé 27235" d="M14.29,193.708l-5.37-14.754A4.6,4.6,0,1,0,.278,182.1l5.37,14.754Z" transform="translate(0 -175.927)" fill="#fdb0a0"/>
        <path id="Tracé_27236" data-name="Tracé 27236" d="M11.393,178.957l5.37,14.753-5.742,2.09-5.37-14.753a4.587,4.587,0,0,0-2.624-2.7,4.6,4.6,0,0,1,8.366.611Z" transform="translate(-2.473 -175.93)" fill="#f69583"/>
      </g>
      <g id="Groupe_16987" data-name="Groupe 16987" transform="translate(79.478 0)">
        <path id="Tracé_27237" data-name="Tracé 27237" d="M442.612,196.854l5.37-14.754a4.6,4.6,0,0,0-8.642-3.145l-5.37,14.754Z" transform="translate(-433.97 -175.928)" fill="#fdb0a0"/>
        <path id="Tracé_27238" data-name="Tracé 27238" d="M467.255,182.106l-5.37,14.753-4.321-1.573,5.37-14.753a4.591,4.591,0,0,0-.8-4.528,4.6,4.6,0,0,1,5.12,6.1Z" transform="translate(-453.243 -175.933)" fill="#f69583"/>
      </g>
    </g>
    <g id="Groupe_16993" data-name="Groupe 16993" transform="translate(325.717 1566.719)">
      <g id="Groupe_16990" data-name="Groupe 16990">
        <g id="Groupe_16989" data-name="Groupe 16989">
          <path id="Tracé_27239" data-name="Tracé 27239" d="M102.872,75.706A24.714,24.714,0,0,0,69.158,39.6a1.889,1.889,0,0,1-2.474,0,24.714,24.714,0,0,0-33.714,36.1l33.751,33.752a1.7,1.7,0,0,0,2.4,0Z" transform="translate(-25.754 -33.539)" fill="#fb4a59"/>
        </g>
      </g>
      <g id="Groupe_16992" data-name="Groupe 16992" transform="translate(36.748 0.269)">
        <g id="Groupe_16991" data-name="Groupe 16991" transform="translate(0)">
          <path id="Tracé_27240" data-name="Tracé 27240" d="M266.78,76.9l-33.751,33.753a1.7,1.7,0,0,1-2.4,0l-4.219-4.221L258.648,74.2a24.733,24.733,0,0,0-5.727-39.191A24.714,24.714,0,0,1,266.78,76.9Z" transform="translate(-226.409 -35.006)" fill="#f82f40"/>
        </g>
      </g>
    </g>
    <g id="Groupe_16997" data-name="Groupe 16997" transform="translate(323.345 1599.816)">
      <g id="Groupe_16996" data-name="Groupe 16996">
        <g id="Groupe_16994" data-name="Groupe 16994">
          <path id="Tracé_27241" data-name="Tracé 27241" d="M25.815,231.464a1.471,1.471,0,0,1-1.234-1.176l-2.361-12.17a4.759,4.759,0,0,0-6.271-3.579A4.832,4.832,0,0,0,12.9,220.03l2.619,13.456,1.2,6.174A17,17,0,0,0,36.654,253.1l3.749-.73a1.471,1.471,0,0,0,1.163-1.726l-1-5.124a17.6,17.6,0,0,0-14.754-14.056Z" transform="translate(-12.805 -214.26)" fill="#ffdfd0"/>
        </g>
        <g id="Groupe_16995" data-name="Groupe 16995" transform="translate(0.853 0)">
          <path id="Tracé_27242" data-name="Tracé 27242" d="M44.206,252.371,40.994,253l-1.061-5.456a17.6,17.6,0,0,0-14.754-14.055,1.472,1.472,0,0,1-1.233-1.176l-2.362-12.171a4.759,4.759,0,0,0-4.121-3.825,4.667,4.667,0,0,1,2.291-1.773,4.758,4.758,0,0,1,6.271,3.578l2.362,12.171a1.472,1.472,0,0,0,1.233,1.176,17.6,17.6,0,0,1,14.753,14.055l1,5.124a1.472,1.472,0,0,1-1.164,1.727Z" transform="translate(-17.462 -214.262)" fill="#ffcec0"/>
        </g>
      </g>
    </g>
    <g id="Groupe_17001" data-name="Groupe 17001" transform="translate(383.635 1599.816)">
      <g id="Groupe_17000" data-name="Groupe 17000">
        <g id="Groupe_16998" data-name="Groupe 16998">
          <path id="Tracé_27243" data-name="Tracé 27243" d="M357.78,231.464a1.471,1.471,0,0,0,1.234-1.176l2.361-12.17a4.759,4.759,0,0,1,6.271-3.579,4.832,4.832,0,0,1,3.053,5.491l-2.619,13.456-1.2,6.174a17,17,0,0,1-19.937,13.44l-3.749-.73a1.471,1.471,0,0,1-1.163-1.726l1-5.124a17.6,17.6,0,0,1,14.754-14.056Z" transform="translate(-342.001 -214.26)" fill="#ffdfd0"/>
        </g>
        <g id="Groupe_16999" data-name="Groupe 16999" transform="translate(3.162 0)">
          <path id="Tracé_27244" data-name="Tracé 27244" d="M384.8,220.031l-2.619,13.457-1.2,6.175A17,17,0,0,1,361.045,253.1l-1.778-.346A17.008,17.008,0,0,0,376.339,239l1.2-6.175,2.62-13.455A4.886,4.886,0,0,0,378.4,214.6a4.729,4.729,0,0,1,3.346-.055,4.83,4.83,0,0,1,3.052,5.49Z" transform="translate(-359.267 -214.263)" fill="#ffcec0"/>
        </g>
      </g>
    </g>
  </g>
</svg>
