<svg xmlns="http://www.w3.org/2000/svg" width="81.354" height="82.757" viewBox="0 0 81.354 82.757">
  <g id="Modules" transform="translate(2513.949 0.786)">
    <path id="Tracé_27268" data-name="Tracé 27268" d="M-2134.307,349.755V333.039a5.613,5.613,0,0,0-2.393-4.6l-10.547-7.384a4.208,4.208,0,0,0-2.414-.76h-8.492l.14,24a5.858,5.858,0,0,0,4.068,5.456Z" transform="translate(-298.288 -269.187)" fill="#fec9a3"/>
    <path id="Tracé_27269" data-name="Tracé 27269" d="M-2142.723,444.333h-9.819a5.611,5.611,0,0,1-5.611-5.611v-5.611h9.819Z" transform="translate(-298.288 -363.765)" fill="#fabd91"/>
    <path id="Tracé_27270" data-name="Tracé 27270" d="M-2477.479,9.033a7,7,0,0,0-2.805.592V-.786h-25.248a8.416,8.416,0,0,0-8.416,8.416V32.878h10.411a7.012,7.012,0,0,1,3.6-9.241,7.012,7.012,0,0,1,9.241,3.6,7.011,7.011,0,0,1,0,5.64h10.41V22.469a7.012,7.012,0,0,0,9.241-3.6,7.012,7.012,0,0,0-3.6-9.241A6.981,6.981,0,0,0-2477.479,9.033Z" transform="translate(-0.001)" fill="#88b337"/>
    <path id="Tracé_27271" data-name="Tracé 27271" d="M-2272.021,7.63a8.415,8.415,0,0,0-8.416-8.416h-25.248V9.625a7.012,7.012,0,0,1,9.241,3.6,7.013,7.013,0,0,1-3.6,9.241,7.01,7.01,0,0,1-5.64,0V32.878h10.411a7.012,7.012,0,0,0,3.6,9.241,7.012,7.012,0,0,0,9.241-3.6,7.009,7.009,0,0,0,0-5.64h10.412V7.63Z" transform="translate(-174.6)" fill="#e8594a"/>
    <path id="Tracé_27272" data-name="Tracé 27272" d="M-2272.013,56.237c-8.018,11.154-22.492,17.49-33.664,20.9v3.547h10.41a7.013,7.013,0,0,0,3.6,9.241,7.012,7.012,0,0,0,9.241-3.6,7.009,7.009,0,0,0,0-5.64h10.411Z" transform="translate(-174.608 -47.806)" fill="#d65245"/>
    <path id="Tracé_27273" data-name="Tracé 27273" d="M-2483.089,167.7a7,7,0,0,1,2.805.592V156.477h-10.41a7.012,7.012,0,0,0-3.6-9.241,7.012,7.012,0,0,0-9.241,3.6,7.009,7.009,0,0,0,0,5.64h-10.411v25.248a8.416,8.416,0,0,0,8.416,8.416h25.248v-9.008a7.012,7.012,0,0,1-9.24-3.6,7.012,7.012,0,0,1,3.6-9.241A6.979,6.979,0,0,1-2483.089,167.7Z" transform="translate(-0.001 -123.599)" fill="#fdb62f"/>
    <path id="Tracé_27274" data-name="Tracé 27274" d="M-2513.949,328.608a8.415,8.415,0,0,0,8.416,8.416h25.248v-9.008a6.982,6.982,0,0,1-9.2-3.575,6.992,6.992,0,0,1-.589-2.6,61.349,61.349,0,0,1-23.871,5.309v1.455Z" transform="translate(0 -270.482)" fill="#ffa719"/>
    <path id="Tracé_27275" data-name="Tracé 27275" d="M-2300.656,265.9l-8.875-23.705-9.747,3.671a7.021,7.021,0,0,1-.093,9.929,7.022,7.022,0,0,1-9.929-.093,7.023,7.023,0,0,1-2-5.308l-9.746,3.671,4.152,11.094a6.948,6.948,0,0,0-2.833.432,7.033,7.033,0,0,0-4.011,9.1,7.032,7.032,0,0,0,8.942,4.07,6.959,6.959,0,0,0,2.419-1.546l3.165,8.46,23.638-8.9A8.451,8.451,0,0,0-2300.656,265.9Z" transform="translate(-142.297 -203.709)" fill="#4398d1"/>
    <path id="Tracé_27276" data-name="Tracé 27276" d="M-2302.452,313.226c-9.678,14.476-27.822,19.531-38.448,21.271a6.967,6.967,0,0,0,9.123,3.723,6.955,6.955,0,0,0,2.181-1.452l3.165,8.46,23.638-8.9a8.451,8.451,0,0,0,4.919-10.871Z" transform="translate(-145.078 -263.257)" fill="#3e8fc9"/>
    <path id="Tracé_27277" data-name="Tracé 27277" d="M-2477.479,52.473a7,7,0,0,0-2.805.592V51.03c-10.5,9.668-24.733,15.008-33.664,17.61v7.678h10.411a7.012,7.012,0,0,1,3.6-9.241,7.012,7.012,0,0,1,9.241,3.6,7.011,7.011,0,0,1,0,5.64h10.41V65.909a7.012,7.012,0,0,0,9.241-3.6,7.012,7.012,0,0,0-3.6-9.241A6.981,6.981,0,0,0-2477.479,52.473Z" transform="translate(-0.001 -43.441)" fill="#80a834"/>
    <path id="Tracé_27278" data-name="Tracé 27278" d="M-2145.471,384.477a3.472,3.472,0,0,0-4.91-.049,3.472,3.472,0,0,0-.049,4.909c.017.017.032.034.049.049l4.884,4.884a8.415,8.415,0,0,0,8.416,8.416h8.416v-1.4Z" transform="translate(-303.93 -322.118)" fill="#fec9a3"/>
  </g>
</svg>
