<svg xmlns="http://www.w3.org/2000/svg" width="108.092" height="82.598" viewBox="0 0 108.092 82.598">
  <g id="Réf" transform="translate(3653.459 -43.263)">
    <path id="Tracé_27294" data-name="Tracé 27294" d="M-3561.412,151.627h-90.39a1.558,1.558,0,0,1-1.558-1.558,1.558,1.558,0,0,1,1.558-1.558h88.832V76.821a1.559,1.559,0,0,1,1.559-1.558,1.559,1.559,0,0,1,1.558,1.558v73.247A1.558,1.558,0,0,1-3561.412,151.627Z" transform="translate(-0.079 -25.766)" fill="#415a6b"/>
    <path id="Tracé_27295" data-name="Tracé 27295" d="M-3605.361,251.263h18.7v34.286h-18.7Z" transform="translate(-38.728 -167.48)" fill="#fdbd40"/>
    <path id="Tracé_27296" data-name="Tracé 27296" d="M-3461.361,155.263h18.7V208.25h-18.7V155.263Z" transform="translate(-154.677 -90.182)" fill="#e9686a"/>
    <path id="Tracé_27297" data-name="Tracé 27297" d="M-3317.361,75.263h18.7v68.572h-18.7Z" transform="translate(-270.624 -25.766)" fill="#238892"/>
    <path id="Tracé_27298" data-name="Tracé 27298" d="M-3620.713,44.821l5.132,5.132-12.924,12.924-3.573-3.574a1.558,1.558,0,0,0-2.2,0l-18.7,18.7a1.558,1.558,0,0,0-.038,2.2,1.558,1.558,0,0,0,2.2.038l.038-.038,17.6-17.6,3.573,3.574a1.559,1.559,0,0,0,2.2,0l14.026-14.026,5.132,5.132,1.559-14.026Z" fill="#e9686a"/>
    <g id="Groupe_17027" data-name="Groupe 17027" transform="translate(-3639.414 69.757)">
      <path id="Tracé_27299" data-name="Tracé 27299" d="M-3579.8,377.5a1.559,1.559,0,0,1-1.558-1.558v-3.117a1.559,1.559,0,0,1,1.558-1.558,1.559,1.559,0,0,1,1.559,1.558v3.117A1.559,1.559,0,0,1-3579.8,377.5Z" transform="translate(3581.361 -333.86)" fill="#fff"/>
      <path id="Tracé_27300" data-name="Tracé 27300" d="M-3579.8,316.614a1.559,1.559,0,0,1-1.558-1.558v-6.234a1.559,1.559,0,0,1,1.558-1.558,1.559,1.559,0,0,1,1.559,1.558v6.234A1.559,1.559,0,0,1-3579.8,316.614Z" transform="translate(3581.361 -282.328)" fill="#fff"/>
      <path id="Tracé_27301" data-name="Tracé 27301" d="M-3435.8,377.5a1.558,1.558,0,0,1-1.558-1.558v-3.117a1.558,1.558,0,0,1,1.558-1.558,1.559,1.559,0,0,1,1.559,1.558v3.117A1.559,1.559,0,0,1-3435.8,377.5Z" transform="translate(3465.413 -333.86)" fill="#fff"/>
      <path id="Tracé_27302" data-name="Tracé 27302" d="M-3435.8,277.964a1.558,1.558,0,0,1-1.558-1.558V260.821a1.558,1.558,0,0,1,1.558-1.558,1.559,1.559,0,0,1,1.559,1.558v15.585A1.558,1.558,0,0,1-3435.8,277.964Z" transform="translate(3465.413 -243.678)" fill="#fff"/>
      <path id="Tracé_27303" data-name="Tracé 27303" d="M-3291.8,377.5a1.558,1.558,0,0,1-1.558-1.558v-3.117a1.558,1.558,0,0,1,1.558-1.558,1.559,1.559,0,0,1,1.559,1.558v3.117A1.559,1.559,0,0,1-3291.8,377.5Z" transform="translate(3349.466 -333.86)" fill="#fff"/>
      <path id="Tracé_27304" data-name="Tracé 27304" d="M-3291.8,213.549a1.558,1.558,0,0,1-1.558-1.558V180.821a1.558,1.558,0,0,1,1.558-1.558,1.559,1.559,0,0,1,1.559,1.558v31.169A1.559,1.559,0,0,1-3291.8,213.549Z" transform="translate(3349.466 -179.263)" fill="#fff"/>
    </g>
    <g id="Ellipse_543" data-name="Ellipse 543" transform="translate(-3600.802 68.763)" fill="#d8fffe" stroke="#707070" stroke-width="1">
      <circle cx="20.5" cy="20.5" r="20.5" stroke="none"/>
      <circle cx="20.5" cy="20.5" r="20" fill="none"/>
    </g>
    <g id="Groupe_17028" data-name="Groupe 17028" transform="translate(-3604.087 65.332)">
      <path id="Tracé_27305" data-name="Tracé 27305" d="M-3393.1,163.464a24.042,24.042,0,0,0,0,33.743,24.042,24.042,0,0,0,33.743,0,24.042,24.042,0,0,0,0-33.743A24.042,24.042,0,0,0-3393.1,163.464Zm28.7,28.7a16.588,16.588,0,0,1-23.655,0,16.588,16.588,0,0,1,0-23.655,16.744,16.744,0,0,1,23.655,0A16.744,16.744,0,0,1-3364.4,192.163Z" transform="translate(3400.017 -156.55)" fill="#415a6b"/>
      <path id="Tracé_27306" data-name="Tracé 27306" d="M-3204.961,343.454a1.892,1.892,0,0,1,0,2.609l-6.436,6.435a1.892,1.892,0,0,1-2.609,0,1.891,1.891,0,0,1,0-2.609l6.436-6.436A1.888,1.888,0,0,1-3204.961,343.454Z" transform="translate(3250.663 -306.624)" fill="#344a5e"/>
      <path id="Tracé_27307" data-name="Tracé 27307" d="M-3180.889,375.678h0a6.279,6.279,0,0,1-9.566-.7l-8-10.436,6.436-6.435,10.436,8A6.3,6.3,0,0,1-3180.889,375.678Z" transform="translate(3237.721 -318.846)" fill="#ffd15c"/>
    </g>
  </g>
</svg>
