<svg xmlns="http://www.w3.org/2000/svg" width="322.107" height="143.296" viewBox="0 0 322.107 143.296">
  <g id="logo_google_partner" data-name="logo google partner" transform="translate(-1295 -7507)">
    <path id="Tracé_30207" data-name="Tracé 30207" d="M25.453,51.9V75.2H18.062V17.667h19.6a17.729,17.729,0,0,1,12.7,4.981,16.029,16.029,0,0,1,5.3,12.133,15.945,15.945,0,0,1-5.3,12.213,17.69,17.69,0,0,1-12.7,4.9Zm0-27.162V44.825H37.829a9.773,9.773,0,0,0,7.312-2.975,9.8,9.8,0,0,0,0-14.06,9.645,9.645,0,0,0-7.312-3.054Z" transform="translate(1345.295 7556.197)" fill="#636364"/>
    <path id="Tracé_30208" data-name="Tracé 30208" d="M45.871,22.126q8.2,0,12.94,4.379t4.738,12.012V62.788H56.48V57.319h-.322q-4.581,6.756-12.213,6.748a15.865,15.865,0,0,1-10.888-3.853,12.316,12.316,0,0,1-4.379-9.643A11.7,11.7,0,0,1,33.3,40.848q4.621-3.616,12.334-3.614A21.853,21.853,0,0,1,56.48,39.641V37.953a8.4,8.4,0,0,0-3.054-6.544,10.464,10.464,0,0,0-7.153-2.695,11.327,11.327,0,0,0-9.8,5.223l-6.506-4.1q5.382-7.715,15.907-7.713m-9.56,28.6a5.893,5.893,0,0,0,2.449,4.822,9.02,9.02,0,0,0,5.749,1.93,11.794,11.794,0,0,0,8.315-3.455,10.814,10.814,0,0,0,3.656-8.114q-3.457-2.736-9.643-2.732a12.5,12.5,0,0,0-7.512,2.169,6.442,6.442,0,0,0-3.013,5.382" transform="translate(1374.857 7568.613)" fill="#636364"/>
    <path id="Tracé_30209" data-name="Tracé 30209" d="M40.1,31.334h7.073v6.43h.318q3.3-7.556,13.579-7.554l1.529.159v7.717l-3.293-.322a11.793,11.793,0,0,0-8.481,3.175,10.654,10.654,0,0,0-3.334,8.073v21.7H40.1ZM86.223,71.348a11.23,11.23,0,0,1-7.993-2.971A11.022,11.022,0,0,1,74.971,60.1V38.086H68.061V31.334h6.911V19.28h7.391V31.334h9.643v6.752H82.363V57.694q0,3.934,1.529,5.34a4.961,4.961,0,0,0,3.455,1.408,7.33,7.33,0,0,0,1.73-.2,8.85,8.85,0,0,0,1.567-.522l2.328,6.593a19.937,19.937,0,0,1-6.748,1.041" transform="translate(1406.663 7560.688)" fill="#636364"/>
    <path id="Tracé_30210" data-name="Tracé 30210" d="M55.79,23.409h7.07v5.465h.322a13.176,13.176,0,0,1,5.181-4.822,14.844,14.844,0,0,1,7.274-1.926q7.232,0,11.13,4.137t3.894,11.77V62.784H83.27V38.517q-.238-9.645-9.723-9.643a9.243,9.243,0,0,0-7.4,3.576,12.963,12.963,0,0,0-2.971,8.557V62.784H55.79Z" transform="translate(1450.353 7568.613)" fill="#636364"/>
    <path id="Tracé_30211" data-name="Tracé 30211" d="M86.629,64.067a18.814,18.814,0,0,1-14.3-5.946A20.986,20.986,0,0,1,66.7,43.1a21.386,21.386,0,0,1,5.465-14.987,18.085,18.085,0,0,1,13.98-5.983q8.759,0,13.942,5.662t5.181,15.869l-.079.806H74.257a12.829,12.829,0,0,0,3.857,9.321,12.33,12.33,0,0,0,8.837,3.535q7.073,0,11.093-7.07l6.585,3.213a19.631,19.631,0,0,1-7.35,7.792,20.327,20.327,0,0,1-10.65,2.812M74.817,38.354H97.4a9.814,9.814,0,0,0-3.338-6.79,11.664,11.664,0,0,0-8.076-2.691,10.722,10.722,0,0,0-7.187,2.57,12.3,12.3,0,0,0-3.981,6.911" transform="translate(1480.741 7568.613)" fill="#636364"/>
    <path id="Tracé_30212" data-name="Tracé 30212" d="M86.072,62.667h-7.4V23.292H85.75v6.43h.322a10.61,10.61,0,0,1,4.621-5.344,12.783,12.783,0,0,1,6.869-2.21,13.824,13.824,0,0,1,5.461.965l-2.248,7.149a12.351,12.351,0,0,0-4.341-.56,9.554,9.554,0,0,0-7.27,3.376,11.28,11.28,0,0,0-3.092,7.872Z" transform="translate(1514.084 7568.73)" fill="#636364"/>
    <path id="Tracé_30213" data-name="Tracé 30213" d="M36.2,21.084V26.1H48.213a10.61,10.61,0,0,1-3.94,7.4,12.565,12.565,0,0,1-8.069,2.6,12.58,12.58,0,0,1-9.367-3.9,12.928,12.928,0,0,1-3.807-9.454,12.942,12.942,0,0,1,3.807-9.458,12.58,12.58,0,0,1,9.367-3.9,12.867,12.867,0,0,1,9.053,3.584L48.8,9.431A17.689,17.689,0,0,0,36.2,4.367a18.508,18.508,0,0,0-9.321,2.509,18.13,18.13,0,0,0-6.854,6.767,18.091,18.091,0,0,0,0,18.242A17.85,17.85,0,0,0,26.883,38.6,18.47,18.47,0,0,0,36.2,41.112a17.128,17.128,0,0,0,12.323-4.659q4.842-4.615,4.841-12.232a15.945,15.945,0,0,0-.269-3.137Z" transform="translate(1343.903 7519.162)" fill="#4286f5"/>
    <path id="Tracé_30214" data-name="Tracé 30214" d="M39.373,7.824A11.492,11.492,0,0,0,30.9,11.23,11.333,11.333,0,0,0,27.5,19.655,11.7,11.7,0,0,0,39.373,31.485,11.71,11.71,0,0,0,51.249,19.655,11.286,11.286,0,0,0,47.8,11.23a11.443,11.443,0,0,0-8.425-3.406m4.7,16.94a6.46,6.46,0,0,1-9.458,0,7.2,7.2,0,0,1-1.926-5.109,7.009,7.009,0,0,1,1.926-5.109,6.5,6.5,0,0,1,9.5,0,7.009,7.009,0,0,1,1.926,5.109,7.209,7.209,0,0,1-1.972,5.109" transform="translate(1371.568 7528.788)" fill="#e71c1f"/>
    <rect id="Rectangle_3952" data-name="Rectangle 3952" width="5.196" height="34.773" transform="translate(1477.126 7524.784)" fill="#009e3a"/>
    <path id="Tracé_30215" data-name="Tracé 30215" d="M46.217,7.824a11.5,11.5,0,0,0-8.47,3.406,11.348,11.348,0,0,0-3.406,8.425A11.71,11.71,0,0,0,46.217,31.485,11.71,11.71,0,0,0,58.093,19.655a11.272,11.272,0,0,0-3.452-8.425,11.443,11.443,0,0,0-8.425-3.406m4.7,16.94a6.46,6.46,0,0,1-9.458,0,7.2,7.2,0,0,1-1.923-5.109,7.007,7.007,0,0,1,1.923-5.109,6.5,6.5,0,0,1,9.5,0,7.009,7.009,0,0,1,1.926,5.109,7.21,7.21,0,0,1-1.972,5.109" transform="translate(1390.626 7528.788)" fill="orange"/>
    <path id="Tracé_30216" data-name="Tracé 30216" d="M61.9,26.826a6.05,6.05,0,0,1-5.737-3.588l15.82-6.54-.537-1.347A13.027,13.027,0,0,0,69.809,12.3a11.656,11.656,0,0,0-2.3-2.4,9.881,9.881,0,0,0-2.869-1.548,10.121,10.121,0,0,0-3.319-.537,10.613,10.613,0,0,0-7.974,3.361,11.924,11.924,0,0,0-3.183,8.47,11.512,11.512,0,0,0,3.365,8.425,11.943,11.943,0,0,0,18.238-1.836l-4.034-2.691A6.725,6.725,0,0,1,61.9,26.826m-4.8-12.459A6.079,6.079,0,0,1,61.5,12.4a5.39,5.39,0,0,1,2.736.7A3.647,3.647,0,0,1,65.888,14.9L55.314,19.3a6.451,6.451,0,0,1,1.794-4.928" transform="translate(1434.673 7528.788)" fill="#e71c1f"/>
    <path id="Tracé_30217" data-name="Tracé 30217" d="M58.931,10.469h-.182A7.722,7.722,0,0,0,52.52,7.824a10.778,10.778,0,0,0-7.974,3.5A11.666,11.666,0,0,0,41.185,19.7a11.62,11.62,0,0,0,3.361,8.337,10.959,10.959,0,0,0,7.974,3.448A7.671,7.671,0,0,0,58.749,28.8h.182v1.211q0,7.437-6.32,7.437a5.858,5.858,0,0,1-3.584-1.166,7.285,7.285,0,0,1-2.377-3.047l-4.526,1.881a12.18,12.18,0,0,0,1.7,2.846,10.871,10.871,0,0,0,2.4,2.2A11.9,11.9,0,0,0,49.2,41.594a11.209,11.209,0,0,0,3.406.511q5.285,0,8.266-3.2t2.982-9.121V8.543H58.931Zm-1.48,14.34a5.846,5.846,0,0,1-4.485,2.017,6.175,6.175,0,0,1-4.7-2.063A7.226,7.226,0,0,1,46.381,19.7a7.208,7.208,0,0,1,1.926-5.109,6.182,6.182,0,0,1,4.659-2.1,5.691,5.691,0,0,1,4.485,2.063A7.567,7.567,0,0,1,59.287,19.7a7.514,7.514,0,0,1-1.836,5.109" transform="translate(1409.684 7528.788)" fill="#4286f5"/>
    <rect id="Rectangle_3953" data-name="Rectangle 3953" width="37.71" height="143.296" transform="translate(1295 7507)" fill="#4286f5"/>
  </g>
</svg>
