<svg xmlns="http://www.w3.org/2000/svg" width="1920" height="87.777" viewBox="0 0 1920 87.777">
  <path id="shape_4" data-name="shape 4" d="M1920,87.778H0V14.692C13.849,12.14,28.071,9.9,42.27,8.043c14-1.835,28.485-3.372,43.051-4.567C113.833,1.137,143.271,0,175.315,0c27.917,0,57.353.864,89.99,2.641,29.819,1.623,62.244,4.011,99.128,7.3,69.674,6.212,146.539,14.846,235.541,24.843l.028,0,.041,0C713.694,47.558,842.51,62.027,997.206,76.1c29.815,2.711,60.69,4.757,91.769,6.081,29.845,1.272,60.794,1.916,91.984,1.916,27.318,0,55.647-.495,84.2-1.47,27.231-.93,55.533-2.328,84.12-4.153,52.973-3.383,107.766-8.232,167.511-14.824,50.553-5.578,104.76-12.434,165.719-20.959,51.935-7.263,102.7-14.857,162.946-24.026,10.243-1.559,20.622-3.142,30.66-4.673l1.5-.228C1890.8,11.751,1905.757,9.47,1920,7.306V87.777Z" transform="translate(0 0)" fill="#333"/>
</svg>
