<svg xmlns="http://www.w3.org/2000/svg" xmlns:xlink="http://www.w3.org/1999/xlink" width="81.926" height="72.109" viewBox="0 0 81.926 72.109">
  <defs>
    <linearGradient id="linear-gradient" x1="0.5" x2="0.5" y2="1" gradientUnits="objectBoundingBox">
      <stop offset="0" stop-color="#bed000"/>
      <stop offset="1" stop-color="#62aa42"/>
    </linearGradient>
  </defs>
  <g id="comment" transform="translate(-166 -1895.996)">
    <path id="Tracé_29507" data-name="Tracé 29507" d="M-385.583,151.284v-5.047a4.916,4.916,0,0,0-4.916-4.916h-24.578v-6.637a16.387,16.387,0,0,0,14.727-17.123A16.386,16.386,0,0,0-416.715,102a16.386,16.386,0,0,0-16.365,15.565,16.387,16.387,0,0,0,14.727,17.123v6.637h-24.578a4.916,4.916,0,0,0-4.916,4.916v5.047a11.469,11.469,0,0,0-9.8,12.174,11.47,11.47,0,0,0,11.44,10.648,11.47,11.47,0,0,0,11.44-10.648,11.47,11.47,0,0,0-9.8-12.174v-5.047a1.639,1.639,0,0,1,1.639-1.639h24.578v6.685a11.47,11.47,0,0,0-9.8,12.174,11.47,11.47,0,0,0,11.44,10.648,11.47,11.47,0,0,0,11.44-10.648,11.47,11.47,0,0,0-9.8-12.174V144.6H-390.5a1.639,1.639,0,0,1,1.639,1.639v5.047a11.47,11.47,0,0,0-9.8,12.174,11.47,11.47,0,0,0,11.44,10.648,11.47,11.47,0,0,0,11.44-10.648,11.47,11.47,0,0,0-9.8-12.174Zm-44.24-32.9a13.109,13.109,0,0,1,8.092-12.111,13.108,13.108,0,0,1,14.285,2.842A13.108,13.108,0,0,1-404.6,123.4a13.109,13.109,0,0,1-12.111,8.092,13.124,13.124,0,0,1-13.108-13.108Zm-8.193,44.24a8.191,8.191,0,0,1-5.058,7.569A8.194,8.194,0,0,1-452,168.416a8.194,8.194,0,0,1-1.775-8.929,8.191,8.191,0,0,1,7.569-5.058,8.2,8.2,0,0,1,8.193,8.193Zm29.493,0a8.192,8.192,0,0,1-5.058,7.569,8.194,8.194,0,0,1-8.929-1.775,8.194,8.194,0,0,1-1.775-8.929,8.192,8.192,0,0,1,7.569-5.058,8.2,8.2,0,0,1,8.193,8.193Zm21.3,8.193a8.191,8.191,0,0,1-7.569-5.058,8.194,8.194,0,0,1,1.775-8.929,8.194,8.194,0,0,1,8.929-1.775,8.192,8.192,0,0,1,5.057,7.569,8.2,8.2,0,0,1-8.193,8.193Zm0,0" transform="translate(623.677 1794)" fill="url(#linear-gradient)"/>
    <path id="Tracé_29508" data-name="Tracé 29508" d="M-220.377,210H-240.04a1.639,1.639,0,0,0-1.639,1.639,1.639,1.639,0,0,0,1.639,1.639h19.662a1.639,1.639,0,0,0,1.639-1.639A1.639,1.639,0,0,0-220.377,210Zm0,0" transform="translate(466.665 1715.49)" fill="url(#linear-gradient)"/>
    <path id="Tracé_29509" data-name="Tracé 29509" d="M-207.293,174h-14.747a1.639,1.639,0,0,0-1.639,1.639,1.639,1.639,0,0,0,1.639,1.639h14.747a1.639,1.639,0,0,0,1.639-1.639A1.639,1.639,0,0,0-207.293,174Zm0,0" transform="translate(453.58 1741.659)" fill="url(#linear-gradient)"/>
  </g>
</svg>
