<svg xmlns="http://www.w3.org/2000/svg" xmlns:xlink="http://www.w3.org/1999/xlink" width="69.518" height="72.11" viewBox="0 0 69.518 72.11">
  <defs>
    <linearGradient id="linear-gradient" x1="0.5" x2="0.5" y2="1" gradientUnits="objectBoundingBox">
      <stop offset="0" stop-color="#bed000"/>
      <stop offset="1" stop-color="#62aa42"/>
    </linearGradient>
  </defs>
  <g id="par_qui" data-name="par qui" transform="translate(-820.178 -1390)">
    <path id="Tracé_29513" data-name="Tracé 29513" d="M673.865,57.526a33.641,33.641,0,0,1-18.452-3.446,1.2,1.2,0,0,0-.909-.116c-.129.035-13.017,3.489-23.4,1.185-6.471-1.439-12.574-6-17.031-9.325-.6-.447-1.166-.871-1.7-1.26a13.612,13.612,0,0,0-2.9-1.365c-.458-.175-1.085-.415-1.22-.5a.47.47,0,0,1-.18-.379V39.544c.058-2.2,9.275-36.026,10.7-40.329a.925.925,0,0,1,.274-.2l18.241-8.332,5.9,7.677a1.057,1.057,0,0,1-.064,1.321L637.3,6.216a1.038,1.038,0,0,1-1.422.142l-2.356-2.173a1.207,1.207,0,0,0-1.037-.271,1.258,1.258,0,0,0-.87.663c-.2.388-1.981.863-3.8.877l-.593-.06a1.185,1.185,0,0,0-1.169.61,1.2,1.2,0,0,0,.1,1.315c.506.654.9,1.18,1.124,1.481l1.166,19.826c-.723,2.816-1.385,3.616-1.55,3.776a1.2,1.2,0,0,0,.36,2.342c1.359,0,2.515-1.786,3.442-5.274a14.666,14.666,0,0,1,18.506.153c3.028,3.039,3.216,5.058,3.222,5.147a1.2,1.2,0,0,0,2.4-.026c0-.276-.1-2.641-3.2-6.058,2.926-3.6,6.257-5.669,9.926-6.12,6.326-.779,11.643,3.475,11.7,3.517a1.2,1.2,0,0,0,1.517-1.856c-.248-.2-6.134-4.937-13.482-4.043-4.295.521-8.15,2.844-11.474,6.909-2.7-1.834-10.432-5.986-19.081-.556L629.647,8.306a1.191,1.191,0,0,0-.174-.556,7.877,7.877,0,0,0,3.277-1.017l1.544,1.423a3.436,3.436,0,0,0,4.794-.344l5.827-6.533a3.474,3.474,0,0,0,.195-4.353l-6.5-8.458a1.2,1.2,0,0,0-1.449-.36L618.072-3.171a2.915,2.915,0,0,0-1.545,1.579c-.679,2.038-10.848,38.306-10.848,41.131v2.783a2.861,2.861,0,0,0,1.1,2.266,7.615,7.615,0,0,0,1.841.851,13,13,0,0,1,2.345,1.061c.527.385,1.087.8,1.679,1.246,4.631,3.458,10.972,8.194,17.946,9.744,9.928,2.206,21.582-.461,24.079-1.09a35.922,35.922,0,0,0,15.8,3.71,32.992,32.992,0,0,0,3.662-.2,1.2,1.2,0,1,0-.265-2.382Zm0,0" transform="translate(214.5 1402)" fill="url(#linear-gradient)"/>
    <path id="Tracé_29514" data-name="Tracé 29514" d="M1033.579,372.031a1.2,1.2,0,0,0-2.391.133c0,.8.592,3.511,8.194,4.777a1.2,1.2,0,1,0,.394-2.365c-5.316-.886-6.126-2.386-6.2-2.546Zm0,0" transform="translate(-151.082 1072.972)" fill="url(#linear-gradient)"/>
    <path id="Tracé_29515" data-name="Tracé 29515" d="M732.718,370.873c-15.7,3.363-22.417-7.379-22.694-7.837a1.2,1.2,0,0,0-2.054,1.236,20.571,20.571,0,0,0,6.065,5.93,23.25,23.25,0,0,0,12.891,3.709,30.01,30.01,0,0,0,6.294-.693,1.2,1.2,0,1,0-.5-2.345Zm0,0" transform="translate(126.762 1080.282)" fill="url(#linear-gradient)"/>
  </g>
</svg>
