<svg xmlns="http://www.w3.org/2000/svg" xmlns:xlink="http://www.w3.org/1999/xlink" width="70.012" height="72.106" viewBox="0 0 70.012 72.106">
  <defs>
    <linearGradient id="linear-gradient" x1="0.5" x2="0.5" y2="1" gradientUnits="objectBoundingBox">
      <stop offset="0" stop-color="#bed000"/>
      <stop offset="1" stop-color="#62aa42"/>
    </linearGradient>
  </defs>
  <g id="pourquoi" transform="translate(-257 -1013.5)">
    <path id="Tracé_29510" data-name="Tracé 29510" d="M228.333,314.5a9.833,9.833,0,1,0,9.833,9.833A9.844,9.844,0,0,0,228.333,314.5Zm0,16.781a6.948,6.948,0,1,1,6.948-6.948A6.956,6.956,0,0,1,228.333,331.281Z" transform="translate(63.672 724.172)" fill="url(#linear-gradient)"/>
    <path id="Tracé_29511" data-name="Tracé 29511" d="M188.313,352.527v-2.919l.437-.154a5.637,5.637,0,0,0-1.876-10.953h-4.2a5.644,5.644,0,0,0-5.637,5.637v8.391a2.756,2.756,0,0,1-2.753,2.753H140.723a2.756,2.756,0,0,1-2.753-2.753v-8.391a5.644,5.644,0,0,0-5.637-5.637h-4.2a5.636,5.636,0,0,0-1.879,10.949l.437.155v2.924a14.07,14.07,0,0,0,14.029,14.028h2.752V377.7a1.444,1.444,0,0,0,1.442,1.442H170.09a1.444,1.444,0,0,0,1.442-1.442V366.556h2.753A14.07,14.07,0,0,0,188.313,352.527ZM170.09,363.672a1.444,1.444,0,0,0-1.442,1.442v11.144H146.361V365.114a1.444,1.444,0,0,0-1.442-1.442h-4.2a11.174,11.174,0,0,1-11.143-11.143v-4.2a1.444,1.444,0,0,0-1.442-1.442,2.753,2.753,0,1,1,0-5.506h4.2a2.756,2.756,0,0,1,2.753,2.753v8.391a5.644,5.644,0,0,0,5.637,5.637h33.562a5.644,5.644,0,0,0,5.637-5.637v-8.391a2.756,2.756,0,0,1,2.753-2.753h4.2a2.753,2.753,0,1,1,0,5.506,1.444,1.444,0,0,0-1.442,1.442v4.2a11.175,11.175,0,0,1-11.143,11.144Z" transform="translate(134.5 706.464)" fill="url(#linear-gradient)"/>
    <path id="Tracé_29512" data-name="Tracé 29512" d="M243.859,220.258a5.876,5.876,0,0,0-4.166-1.758h-6.151a5.632,5.632,0,0,0-4.98,2.993,1.307,1.307,0,0,0,.039,1.314,1.376,1.376,0,0,0,1.187.674h.184a1.4,1.4,0,0,0,1.193-.734,2.765,2.765,0,0,1,2.377-1.363h6.221a2.8,2.8,0,0,1,2.819,2.571,2.732,2.732,0,0,1-.738,2.065,2.763,2.763,0,0,1-2.009.871,5.66,5.66,0,0,0-5.421,4.085.705.705,0,0,0,.68.9h1.352a.984.984,0,0,0,.9-.525,2.767,2.767,0,0,1,2.488-1.572,5.664,5.664,0,0,0,5.636-5.528A5.516,5.516,0,0,0,243.859,220.258Z" transform="translate(56.365 795)" fill="url(#linear-gradient)"/>
    <rect id="Rectangle_3746" data-name="Rectangle 3746" width="2" height="3" rx="1" transform="translate(291 1030.5)" fill="url(#linear-gradient)"/>
  </g>
</svg>
