<svg xmlns="http://www.w3.org/2000/svg" width="1081.819" height="1236.071" viewBox="0 0 1081.819 1236.071">
  <path id="shape_1" data-name="shape 1" d="M617.93,1464.572H617.9a224.4,224.4,0,0,1-37.953-3.159,200.687,200.687,0,0,1-34.561-9.156,197.653,197.653,0,0,1-31.329-14.661,213.449,213.449,0,0,1-28.286-19.675,247.858,247.858,0,0,1-25.432-24.2,302,302,0,0,1-22.765-28.224c-7-9.8-13.827-20.482-20.288-31.761-6.215-10.851-12.271-22.561-18-34.8-5.49-11.737-10.839-24.305-15.9-37.357-4.828-12.455-9.533-25.717-13.986-39.417-4.226-13-8.352-26.792-12.263-40.985-3.685-13.374-7.295-27.525-10.728-42.06-6.213-26.3-11.972-54.23-17.606-85.377-4.546-25.131-8.908-51.751-13.729-83.772-11.342-75.331-64.942-119.582-121.689-166.431-19.261-15.9-39.175-32.342-57.986-50.431-10.153-9.763-19.076-19.118-27.28-28.6a326.528,326.528,0,0,1-24.671-32.2,289.986,289.986,0,0,1-20.963-36.818c-3.162-6.657-6.1-13.54-8.747-20.456-2.729-7.143-5.222-14.541-7.408-21.988-2.252-7.671-4.247-15.627-5.931-23.648-1.731-8.245-3.183-16.8-4.317-25.433-1.164-8.858-2.026-18.058-2.565-27.346-.552-9.513-.779-19.4-.676-29.384.152-14.68.907-29.241,2.246-43.278,1.319-13.829,3.239-27.53,5.708-40.723,2.432-12.994,5.463-25.854,9.009-38.222,3.492-12.18,7.579-24.217,12.148-35.776,4.5-11.382,9.587-22.615,15.125-33.385,5.451-10.6,11.487-21.048,17.94-31.048,6.351-9.84,13.279-19.518,20.594-28.764,7.2-9.1,14.964-18.026,23.086-26.536H977.406c7.2,8.288,14.222,16.97,20.866,25.8,6.851,9.108,13.5,18.638,19.751,28.324,6.441,9.973,12.649,20.391,18.452,30.966,5.967,10.873,11.676,22.221,16.968,33.728,25.979,56.489,45.29,139.606,54.378,234.039a1302.567,1302.567,0,0,1,5.522,151.3A1299.984,1299.984,0,0,1,1100.208,893.8c-8.126,55.656-19.885,108.974-34.951,158.473-7.934,26.07-16.9,51.414-26.644,75.328a742.123,742.123,0,0,1-33.282,70.972c-52.745,98.151-122.53,170.169-207.416,214.052-17.222,8.9-34.214,16.765-50.506,23.368a455.02,455.02,0,0,1-46.727,16.162,345.626,345.626,0,0,1-43.107,9.384A271.42,271.42,0,0,1,617.93,1464.572Z" transform="translate(-32.32 -229)" fill="#efefef" stroke="rgba(0,0,0,0)" stroke-miterlimit="10" stroke-width="1"/>
</svg>
