<svg xmlns="http://www.w3.org/2000/svg" xmlns:xlink="http://www.w3.org/1999/xlink" width="1466.317" height="1540.756" viewBox="0 0 1466.317 1540.756">
  <defs>
    <linearGradient id="linear-gradient" x1="0.314" y1="0.064" x2="0.906" y2="0.769" gradientUnits="objectBoundingBox">
      <stop offset="0" stop-color="#f8b500"/>
      <stop offset="1" stop-color="#f27f00"/>
    </linearGradient>
  </defs>
  <g id="fond_header" transform="translate(-870.718 552.182)">
    <g id="Groupe_95" data-name="Groupe 95" transform="translate(512.338 551.063) rotate(-61)">
      <path id="forme_fond_grise_foncée" data-name="forme fond grise foncée" d="M326.809,86.549C205.288,160.64,114.192,279.34,57.209,408.423.665,536.522-24.622,686.394,31.462,819.206a323.537,323.537,0,0,0,24.18,46.424c3.337,8.326,6.89,16.289,10.292,23.541,26.79,57.1,72.922,103.938,133.1,125.056,58.364,20.484,117.315,12.414,171.678-15.214,50.895-25.867,96.978-65.131,153.067-79.653,67.007-17.349,132.321,13.706,190.16,44.686,68.358,36.617,135.714,74.229,211.646,92.948,63.8,15.729,132.127,16.818,194.555-5.472,60.052-21.441,109.513-66.415,141.946-120.738,70.824-118.633,64.366-268.051,33.766-398.292-29.635-126.135-89.671-245.226-188.208-331.382-56.6-49.491-123.44-86.426-190.532-119.609C847.059,46.854,773.252,17.11,695.561,5.4,567.619-13.893,436.327,19.776,326.809,86.549Z" transform="translate(1692.467 781.498) rotate(137)" fill="none" stroke="#86868c" stroke-width="3" opacity="0.196"/>
      <path id="forme_fond_grise_foncée-2" data-name="forme fond grise foncée" d="M272.8,72.246C171.363,134.094,95.322,233.178,47.755,340.93.555,447.86-20.553,572.966,26.263,683.83a270.094,270.094,0,0,0,20.184,38.753c2.786,6.95,5.752,13.6,8.591,19.65,22.363,47.664,60.871,86.762,111.1,104.39,48.719,17.1,97.928,10.363,143.308-12.7,42.484-21.592,80.952-54.368,127.772-66.49,55.934-14.482,110.454,11.441,158.736,37.3C653.018,835.3,709.243,866.7,772.626,882.323c53.255,13.13,110.293,14.039,162.4-4.568,50.128-17.9,91.416-55.439,118.489-100.786,59.12-99.029,53.729-223.755,28.186-332.473-24.738-105.291-74.852-204.7-157.106-276.62-47.249-41.313-103.042-72.144-159.047-99.843C707.08,39.111,645.47,14.283,580.617,4.5,473.818-11.6,364.223,16.508,272.8,72.246Z" transform="translate(1552.624 791.179) rotate(137)" fill="none" stroke="#86868c" stroke-width="2" opacity="0.196"/>
      <path id="forme_fond_grise_foncée-3" data-name="forme fond grise foncée" d="M244.466,64.742C153.563,120.165,85.42,208.956,42.795,305.515.5,401.338-18.418,513.448,23.535,612.8a242.011,242.011,0,0,0,18.087,34.727c2.5,6.228,5.154,12.185,7.7,17.609,20.04,42.713,54.548,77.75,99.561,93.546C192.54,774,236.638,767.965,277.3,747.3c38.071-19.349,72.543-48.72,114.5-59.583,50.123-12.977,98.981,10.252,142.247,33.427,51.135,27.391,101.52,55.526,158.319,69.529,47.723,11.766,98.836,12.58,145.534-4.094,44.921-16.039,81.92-49.681,106.181-90.317,52.979-88.742,48.148-200.512,25.258-297.937-22.168-94.354-67.077-183.438-140.786-247.886-42.341-37.021-92.338-64.65-142.525-89.472C633.631,35.049,578.421,12.8,520.3,4.036,424.6-10.393,326.389,14.793,244.466,64.742Z" transform="translate(1479.247 796.26) rotate(137)" fill="none" stroke="#86868c" stroke-width="1" opacity="0.196"/>
    </g>
    <circle id="Ellipse_141" data-name="Ellipse 141" cx="368" cy="368" r="368" transform="translate(1349 138)" fill="url(#linear-gradient)"/>
    <g id="Groupe_3594" data-name="Groupe 3594" transform="translate(823.374 27.66)">
      <g id="Groupe_3524" data-name="Groupe 3524" transform="translate(186.58 61.242)">
        <g id="Groupe_3523" data-name="Groupe 3523">
          <path id="Tracé_7102" data-name="Tracé 7102" d="M302.953,105.389a1.743,1.743,0,0,1-.525-.16c-.405-.16-.894-.354-1.491-.588q-2.1-.872-5.685-2.365c-5.02-2.151-12.106-5.185-20.816-8.912L205.949,63.528l-2.372-1.041h.493l-67.1,28.7c-8.5,3.572-15.41,6.473-20.3,8.532q-3.493,1.422-5.536,2.259a13.518,13.518,0,0,1-1.962.709,13.14,13.14,0,0,1,1.863-.937l5.446-2.471c4.858-2.142,11.712-5.167,20.149-8.89C153.8,82.94,177.39,72.708,203.58,61.35l.248-.108.248.11c.75.329,1.561.682,2.374,1.041L274.788,92.56c8.644,3.881,15.676,7.036,20.658,9.275l5.592,2.579,1.441.7A1.783,1.783,0,0,1,302.953,105.389Z" transform="translate(-109.164 -61.242)" fill="#e0e0e0"/>
        </g>
      </g>
      <g id="Groupe_3525" data-name="Groupe 3525" transform="translate(47.344 95.556)">
        <rect id="Rectangle_1899" data-name="Rectangle 1899" width="439.859" height="329.345" fill="#e0e0e0"/>
      </g>
      <g id="Groupe_3526" data-name="Groupe 3526" transform="translate(62.72 110.868)">
        <rect id="Rectangle_1900" data-name="Rectangle 1900" width="410.757" height="300.497" fill="#fafafa"/>
      </g>
      <g id="Groupe_3542" data-name="Groupe 3542" transform="translate(153.449 242.159)">
        <g id="Groupe_3527" data-name="Groupe 3527">
          <path id="Tracé_7103" data-name="Tracé 7103" d="M94.454,141.568s.428,50.444,2.991,65.834l63.271-2.993s-5.559-49.588-3.421-62.841Z" transform="translate(-94.454 -141.568)" fill="#e0e0e0"/>
        </g>
        <g id="Groupe_3541" data-name="Groupe 3541" transform="translate(16.995 7.065)">
          <g id="Groupe_3540" data-name="Groupe 3540">
            <g id="Groupe_3529" data-name="Groupe 3529">
              <g id="Groupe_3528" data-name="Groupe 3528">
                <path id="Tracé_7104" data-name="Tracé 7104" d="M116.167,144.773a.853.853,0,0,1,.232-.025l.682-.027a15.471,15.471,0,0,1,2.633.131,14.472,14.472,0,0,1,4.023,1.2,13.192,13.192,0,0,1,4.378,3.464,15.233,15.233,0,0,1,3.034,6.092,14.71,14.71,0,0,1-.664,7.818,23.153,23.153,0,0,1-1.777,3.905,41.666,41.666,0,0,0-2.027,3.948,33.846,33.846,0,0,0-2.556,8.978l-.027.209-.2,0c-2,.032-4.108.065-6.248.1-2.243.034-4.455.068-6.552.1l-.232,0-.009-.236c-.108-3.185-1.538-6.081-3.038-8.649-.761-1.3-1.592-2.511-2.369-3.741a37.5,37.5,0,0,1-2.223-3.624,12.218,12.218,0,0,1-.991-7.707,16.443,16.443,0,0,1,2.441-6.3,12.235,12.235,0,0,1,4.117-3.707,15.508,15.508,0,0,1,3.885-1.5,16.829,16.829,0,0,1,2.583-.421c.3-.016.527-.027.68-.025a.7.7,0,0,1,.23.016,1.293,1.293,0,0,1-.23.029l-.671.07a19.012,19.012,0,0,0-2.55.5,15.77,15.77,0,0,0-3.8,1.552,12.01,12.01,0,0,0-3.98,3.671,16.2,16.2,0,0,0-2.333,6.187,11.861,11.861,0,0,0,1,7.46,37.477,37.477,0,0,0,2.216,3.577c.773,1.209,1.617,2.437,2.387,3.741,1.523,2.595,3,5.532,3.122,8.872l-.241-.232,6.554-.106,6.248-.1-.232.214a34.02,34.02,0,0,1,2.613-9.115,40.984,40.984,0,0,1,2.059-3.978,22.958,22.958,0,0,0,1.761-3.829,14.372,14.372,0,0,0,.7-7.6,14.986,14.986,0,0,0-2.912-5.969,13.038,13.038,0,0,0-4.243-3.439,14.665,14.665,0,0,0-3.939-1.25,17.724,17.724,0,0,0-2.606-.212l-.682-.018A1.031,1.031,0,0,1,116.167,144.773Z" transform="translate(-102 -144.705)" fill="#fff"/>
              </g>
            </g>
            <g id="Groupe_3531" data-name="Groupe 3531" transform="translate(6.525 12.072)">
              <g id="Groupe_3530" data-name="Groupe 3530">
                <path id="Tracé_7105" data-name="Tracé 7105" d="M115.784,173.2s-.018-.068-.041-.2l-.095-.586c-.081-.525-.2-1.284-.345-2.259-.284-1.962-.707-4.806-.989-8.345-.068-.885-.131-1.813-.164-2.782s-.074-1.978-.018-3.025a8.487,8.487,0,0,1,.714-3.164,4.8,4.8,0,0,1,2.412-2.417,3.23,3.23,0,0,1,3.444.655,2.4,2.4,0,0,1,.739,1.732,3.077,3.077,0,0,1-.646,1.813,4.155,4.155,0,0,1-1.523,1.23,8.053,8.053,0,0,1-1.881.624,22.705,22.705,0,0,1-3.993.464,23.13,23.13,0,0,1-4.018-.194,7.593,7.593,0,0,1-1.9-.55,4.9,4.9,0,0,1-1.595-1.135,3.7,3.7,0,0,1-.919-1.691,2.868,2.868,0,0,1,.227-1.874,2.553,2.553,0,0,1,1.322-1.288,2.286,2.286,0,0,1,1.8.086,3.4,3.4,0,0,1,1.342,1.142,4.618,4.618,0,0,1,.671,1.574,19.076,19.076,0,0,1,.32,3.228l.3,5.8c.178,3.536.322,6.4.423,8.39.045.987.079,1.752.1,2.282l.023.595c0,.133,0,.2,0,.2s-.011-.068-.023-.2-.023-.34-.041-.592c-.034-.532-.081-1.3-.142-2.282-.117-1.989-.282-4.851-.486-8.388-.1-1.77-.209-3.71-.327-5.793a19.083,19.083,0,0,0-.324-3.2,4.487,4.487,0,0,0-.649-1.514,3.24,3.24,0,0,0-1.275-1.079,2.091,2.091,0,0,0-1.658-.077,2.351,2.351,0,0,0-1.221,1.2,2.683,2.683,0,0,0-.209,1.752,3.486,3.486,0,0,0,.874,1.6,5.689,5.689,0,0,0,3.387,1.622,23.091,23.091,0,0,0,3.982.191,22.485,22.485,0,0,0,3.957-.459,7.945,7.945,0,0,0,1.836-.606,3.937,3.937,0,0,0,1.453-1.171,2.882,2.882,0,0,0,.61-1.7,2.2,2.2,0,0,0-.678-1.6,3.048,3.048,0,0,0-3.246-.622A4.625,4.625,0,0,0,115,152.916a8.281,8.281,0,0,0-.7,3.1c-.061,1.036-.023,2.045,0,3.009s.09,1.894.151,2.777c.266,3.536.667,6.381.926,8.347.133.975.236,1.737.309,2.264l.077.588C115.78,173.133,115.784,173.2,115.784,173.2Z" transform="translate(-104.897 -150.065)" fill="#fff"/>
              </g>
            </g>
            <g id="Groupe_3533" data-name="Groupe 3533" transform="translate(9.041 34.947)">
              <g id="Groupe_3532" data-name="Groupe 3532">
                <path id="Tracé_7106" data-name="Tracé 7106" d="M106.057,160.818c.029.029.083.784.162,2.1q.118,2.287.284,5.48l-.052-.133c1.27,1.466,2.707,3.122,4.259,4.908l-.218-.092,4.924-.279-.207.106,2.45-3,1.23-1.5-.065.191c-.065-2.885-.128-5.619-.187-8.11l.27.254-9.2.1-2.658,0a7.3,7.3,0,0,1-.991-.036,4.43,4.43,0,0,1,.876-.083c.766-.041,1.622-.086,2.595-.135,2.545-.1,5.712-.225,9.365-.369l.261-.009.007.266c.074,2.491.158,5.223.245,8.108l0,.108-.07.086c-.4.491-.813.993-1.227,1.5-.842,1.023-1.667,2.025-2.459,2.989l-.081.1-.126.007-4.926.241-.135,0-.083-.1-4.18-4.978-.05-.061,0-.074q-.03-3.274-.054-5.622A16.634,16.634,0,0,1,106.057,160.818Z" transform="translate(-106.014 -160.221)" fill="#fff"/>
              </g>
            </g>
            <g id="Groupe_3535" data-name="Groupe 3535" transform="translate(9.503 41.088)">
              <g id="Groupe_3534" data-name="Groupe 3534">
                <path id="Tracé_7107" data-name="Tracé 7107" d="M118.508,164.53a2.747,2.747,0,0,1-.466-.2c-.3-.133-.73-.318-1.279-.5a12.456,12.456,0,0,0-8.845.268c-.536.223-.957.43-1.243.583a2.834,2.834,0,0,1-.455.225,2.268,2.268,0,0,1,.417-.291,9.745,9.745,0,0,1,1.227-.644,11.82,11.82,0,0,1,8.946-.273,9.881,9.881,0,0,1,1.266.568A2.09,2.09,0,0,1,118.508,164.53Z" transform="translate(-106.219 -162.948)" fill="#fff"/>
              </g>
            </g>
            <g id="Groupe_3537" data-name="Groupe 3537" transform="translate(9.5 39.117)">
              <g id="Groupe_3536" data-name="Groupe 3536">
                <path id="Tracé_7108" data-name="Tracé 7108" d="M118.509,163.655a2.716,2.716,0,0,1-.468-.2c-.3-.133-.73-.318-1.277-.5a12.445,12.445,0,0,0-8.847.27c-.536.221-.957.43-1.243.581a2.6,2.6,0,0,1-.455.225,2.412,2.412,0,0,1,.417-.291,10.23,10.23,0,0,1,1.227-.644,11.82,11.82,0,0,1,8.946-.273,10.061,10.061,0,0,1,1.266.568A2.255,2.255,0,0,1,118.509,163.655Z" transform="translate(-106.218 -162.073)" fill="#fff"/>
              </g>
            </g>
            <g id="Groupe_3539" data-name="Groupe 3539" transform="translate(9.385 37.243)">
              <g id="Groupe_3538" data-name="Groupe 3538">
                <path id="Tracé_7109" data-name="Tracé 7109" d="M118.456,162.823a2.829,2.829,0,0,1-.466-.2c-.3-.135-.73-.318-1.279-.507a12.44,12.44,0,0,0-8.845.27c-.536.221-.957.43-1.246.583a3.17,3.17,0,0,1-.453.225,2.115,2.115,0,0,1,.414-.293,10.63,10.63,0,0,1,1.23-.644,11.819,11.819,0,0,1,8.946-.273,10.556,10.556,0,0,1,1.266.568A2.424,2.424,0,0,1,118.456,162.823Z" transform="translate(-106.167 -161.241)" fill="#fff"/>
              </g>
            </g>
          </g>
        </g>
      </g>
      <g id="Groupe_3551" data-name="Groupe 3551" transform="translate(82.984 159.691)">
        <g id="Groupe_3550" data-name="Groupe 3550">
          <g id="Groupe_3543" data-name="Groupe 3543">
            <path id="Tracé_7110" data-name="Tracé 7110" d="M63.168,104.953s.428,50.447,2.991,65.834L129.43,167.8s-5.559-49.591-3.421-62.843Z" transform="translate(-63.168 -104.953)" fill="#efefef"/>
          </g>
          <g id="Groupe_3545" data-name="Groupe 3545" transform="translate(10.849 21.047)">
            <g id="Groupe_3544" data-name="Groupe 3544">
              <path id="Tracé_7111" data-name="Tracé 7111" d="M110.443,114.44c.02.342-9.469,1.191-21.192,1.9s-21.246,1-21.266.658,9.466-1.191,21.192-1.9S110.42,114.1,110.443,114.44Z" transform="translate(-67.985 -114.298)" fill="#fff"/>
            </g>
          </g>
          <g id="Groupe_3547" data-name="Groupe 3547" transform="translate(10.865 31.732)">
            <g id="Groupe_3546" data-name="Groupe 3546">
              <path id="Tracé_7112" data-name="Tracé 7112" d="M110.45,119.184c.02.342-9.469,1.191-21.189,1.9s-21.248,1-21.268.658,9.466-1.191,21.194-1.9S110.43,118.842,110.45,119.184Z" transform="translate(-67.992 -119.042)" fill="#fff"/>
            </g>
          </g>
          <g id="Groupe_3549" data-name="Groupe 3549" transform="translate(18.379 42.138)">
            <g id="Groupe_3548" data-name="Groupe 3548">
              <path id="Tracé_7113" data-name="Tracé 7113" d="M95.518,123.89c.02.342-5.378.944-12.056,1.347s-12.113.45-12.133.108S76.706,124.4,83.387,124,95.5,123.547,95.518,123.89Z" transform="translate(-71.328 -123.662)" fill="#fff"/>
            </g>
          </g>
        </g>
      </g>
      <g id="Groupe_3560" data-name="Groupe 3560" transform="translate(79.989 308.103)">
        <g id="Groupe_3559" data-name="Groupe 3559" transform="translate(0 0)">
          <g id="Groupe_3552" data-name="Groupe 3552">
            <path id="Tracé_7114" data-name="Tracé 7114" d="M61.838,170.847s.428,50.444,2.993,65.834l63.269-2.993s-5.559-49.588-3.419-62.841Z" transform="translate(-61.838 -170.847)" fill="#efefef"/>
          </g>
          <g id="Groupe_3554" data-name="Groupe 3554" transform="translate(10.849 21.046)">
            <g id="Groupe_3553" data-name="Groupe 3553">
              <path id="Tracé_7115" data-name="Tracé 7115" d="M109.113,180.333c.02.342-9.469,1.191-21.192,1.9s-21.246,1-21.266.658,9.466-1.189,21.192-1.894S109.092,179.993,109.113,180.333Z" transform="translate(-66.655 -180.191)" fill="#fff"/>
            </g>
          </g>
          <g id="Groupe_3556" data-name="Groupe 3556" transform="translate(10.867 31.73)">
            <g id="Groupe_3555" data-name="Groupe 3555">
              <path id="Tracé_7116" data-name="Tracé 7116" d="M109.119,185.077c.02.342-9.466,1.191-21.189,1.9s-21.246,1-21.266.658,9.464-1.189,21.192-1.9S109.1,184.737,109.119,185.077Z" transform="translate(-66.663 -184.935)" fill="#fff"/>
            </g>
          </g>
          <g id="Groupe_3558" data-name="Groupe 3558" transform="translate(18.379 42.135)">
            <g id="Groupe_3557" data-name="Groupe 3557">
              <path id="Tracé_7117" data-name="Tracé 7117" d="M94.188,189.783c.023.342-5.376.946-12.056,1.347s-12.111.45-12.133.108,5.378-.944,12.059-1.347S94.167,189.44,94.188,189.783Z" transform="translate(-69.998 -189.555)" fill="#fff"/>
            </g>
          </g>
        </g>
      </g>
      <g id="Groupe_3593" data-name="Groupe 3593" transform="translate(236.277 161.863)">
        <g id="Groupe_3561" data-name="Groupe 3561" transform="translate(16.616 11.2)">
          <path id="Tracé_7118" data-name="Tracé 7118" d="M138.606,110.89l6.267,145.5,181.631,2.19-8.154-145.764Z" transform="translate(-138.606 -110.89)" fill="#efefef"/>
        </g>
        <g id="Groupe_3590" data-name="Groupe 3590" transform="translate(13.892 9.536)">
          <g id="Groupe_3565" data-name="Groupe 3565">
            <g id="Groupe_3562" data-name="Groupe 3562" transform="translate(0.62 0.621)">
              <rect id="Rectangle_1901" data-name="Rectangle 1901" width="180.423" height="136.238" fill="#f5f5f5"/>
            </g>
            <g id="Groupe_3564" data-name="Groupe 3564">
              <g id="Groupe_3563" data-name="Groupe 3563">
                <path id="Tracé_7119" data-name="Tracé 7119" d="M318.44,247.011s-.036-.878-.056-2.527q-.02-2.53-.056-7.27c-.032-6.387-.074-15.694-.131-27.568-.065-23.755-.155-57.748-.266-98.873l.509.509-180.408.11h-.016l.622-.619c-.023,49-.043,95.391-.061,136.236l-.561-.559,130.144.279,37.014.149,9.838.068,2.545.032c.574.011.883.034.883.034s-.266.02-.818.031l-2.484.032-9.728.068c-8.586.036-21.075.086-36.886.149l-130.508.279h-.559v-.561c-.018-40.845-.038-87.24-.061-136.236v-.622h.635c67.143.043,129.4.081,180.408.11l.511,0,0,.509c-.11,41.257-.2,75.359-.263,99.193-.056,11.824-.1,21.09-.131,27.453q-.041,4.672-.059,7.174C318.478,246.207,318.44,247.011,318.44,247.011Z" transform="translate(-137.397 -110.151)" fill="#e0e0e0"/>
              </g>
            </g>
          </g>
          <g id="Groupe_3569" data-name="Groupe 3569" transform="translate(21.627 28.853)">
            <g id="Groupe_3566" data-name="Groupe 3566" transform="translate(0.758 0.63)">
              <rect id="Rectangle_1902" data-name="Rectangle 1902" width="73.139" height="92.048" fill="#f5f5f5"/>
            </g>
            <g id="Groupe_3568" data-name="Groupe 3568">
              <g id="Groupe_3567" data-name="Groupe 3567">
                <path id="Tracé_7120" data-name="Tracé 7120" d="M220.9,215.64a3.31,3.31,0,0,1-.032-.464l-.032-1.311q-.024-1.818-.068-5.034c-.034-4.446-.083-10.827-.146-18.883-.068-16.2-.164-39.131-.277-66.357l.554.556c-21.8.02-46.739.041-73.132.065-.146.131,1.169-1.164.613-.6v6.338q0,3.166,0,6.3,0,6.27,0,12.4c-.007,8.174-.013,16.151-.02,23.885-.029,15.46-.054,29.949-.079,43.1l-.514-.516,52.953.268,14.858.133c1.671.025,2.978.043,3.939.059.9.018,1.387.056,1.387.056a10.269,10.269,0,0,1-1.277.056l-3.84.059-14.743.133c-12.881.065-31.2.158-53.278.266l-.514,0,0-.518c-.023-13.153-.05-27.642-.077-43.1-.007-7.734-.014-15.712-.02-23.885q0-6.132-.007-12.4v-6.3l0-3.173v-3.164c-.552.547.752-.777.628-.637,26.392.023,51.336.045,73.132.065h.559l0,.554c-.115,27.374-.209,50.426-.279,66.717l-.146,18.757q-.041,3.149-.065,4.926c-.013.509-.025.914-.034,1.248A1.558,1.558,0,0,1,220.9,215.64Z" transform="translate(-146.999 -122.961)" fill="#e0e0e0"/>
              </g>
            </g>
          </g>
          <g id="Groupe_3573" data-name="Groupe 3573" transform="translate(24.509 7.8)">
            <g id="Groupe_3570" data-name="Groupe 3570" transform="translate(0.678 0.621)">
              <rect id="Rectangle_1903" data-name="Rectangle 1903" width="140.168" height="13.263" fill="#f5f5f5"/>
            </g>
            <g id="Groupe_3572" data-name="Groupe 3572">
              <g id="Groupe_3571" data-name="Groupe 3571">
                <path id="Tracé_7121" data-name="Tracé 7121" d="M289.124,127.5a7.247,7.247,0,0,1-.047-.908c-.016-.646-.036-1.5-.061-2.572-.034-2.3-.081-5.579-.142-9.782l.25.25c-23.638.218-77.519.369-140.159.369h-.007c1.239-1.239.342-.342.619-.617v6.746c0,2.221,0,4.4,0,6.514l-.617-.617,99.353.264,29.82.182c3.466.038,6.182.065,8.115.086l2.126.043a6.038,6.038,0,0,1,.752.043,3.325,3.325,0,0,1-.667.043l-2.047.043-7.973.086c-7.059.045-17.162.106-29.676.185-25.338.065-60.426.16-99.8.264h-.619v-7.133c0-1.11,0-2.232,0-3.358v-3.387c.277-.277-.619.617.622-.624h.007c62.64,0,116.522.153,140.159.369l.255,0,0,.25c-.063,4.266-.11,7.588-.144,9.926-.025,1.054-.043,1.885-.059,2.518A5,5,0,0,1,289.124,127.5Z" transform="translate(-148.279 -113.614)" fill="#e0e0e0"/>
              </g>
            </g>
          </g>
          <g id="Groupe_3577" data-name="Groupe 3577" transform="translate(103.72 28.853)">
            <g id="Groupe_3574" data-name="Groupe 3574" transform="translate(0.759 0.63)">
              <rect id="Rectangle_1904" data-name="Rectangle 1904" width="60.876" height="55.477" fill="#f5f5f5"/>
            </g>
            <g id="Groupe_3576" data-name="Groupe 3576">
              <g id="Groupe_3575" data-name="Groupe 3575">
                <path id="Tracé_7122" data-name="Tracé 7122" d="M245.082,179.069a8.85,8.85,0,0,1-.059-1.074l-.061-3.009c-.032-2.714-.079-6.516-.137-11.309-.065-9.761-.158-23.543-.27-40.086l.527.529c-17.581.025-38.487.059-60.87.092-.142.133,1.169-1.171.615-.613v7.5q0,3.73,0,7.387-.007,7.318-.016,14.311c-.018,9.306-.038,18.124-.054,26.266l-.545-.545,43.91.275,12.457.144,3.324.063a8.8,8.8,0,0,1,1.182.063,6.45,6.45,0,0,1-1.063.061l-3.216.065-12.336.142-44.26.275-.543,0,0-.547c-.018-8.142-.036-16.96-.056-26.266q-.007-6.983-.014-14.311,0-3.659,0-7.387v-3.743l0-1.885V123.6c-.554.55.754-.766.626-.628l60.87.092h.532l0,.527c-.113,16.683-.2,30.579-.273,40.419-.056,4.746-.1,8.507-.137,11.189-.025,1.207-.045,2.169-.061,2.91A5.211,5.211,0,0,1,245.082,179.069Z" transform="translate(-183.448 -122.962)" fill="#e0e0e0"/>
              </g>
            </g>
          </g>
          <g id="Groupe_3581" data-name="Groupe 3581" transform="translate(103.847 92.898)">
            <g id="Groupe_3578" data-name="Groupe 3578" transform="translate(0.631 0.758)">
              <rect id="Rectangle_1905" data-name="Rectangle 1905" width="60.876" height="27.874" fill="#f5f5f5"/>
            </g>
            <g id="Groupe_3580" data-name="Groupe 3580">
              <g id="Groupe_3579" data-name="Groupe 3579">
                <path id="Tracé_7123" data-name="Tracé 7123" d="M245.011,180.03a18.785,18.785,0,0,1-.095-2.02l-.113-5.6c-.059-4.917-.142-11.8-.243-20.255l.45.45c-15.876.043-37.3.1-60.87.169-.559.554.75-.755.615-.617v3.651q0,1.818,0,3.617,0,3.6,0,7.1c-.009,4.66-.016,9.18-.025,13.5l-.588-.588,43.532.279c5.32.068,9.6.124,12.685.162,1.405.032,2.538.054,3.426.074a8.912,8.912,0,0,1,1.232.072,5.724,5.724,0,0,1-1.09.072c-.858.018-1.95.043-3.306.074-3.054.038-7.286.092-12.55.162l-43.928.279-.588,0v-.592c-.009-4.324-.016-8.845-.025-13.5q0-3.5-.007-7.1v-5.442l0-.914v-.912c-.135.133,1.178-1.178.626-.624,23.575.068,44.994.126,60.87.171h.457l-.007.45c-.1,8.565-.182,15.545-.241,20.53-.047,2.291-.086,4.119-.113,5.5A12.993,12.993,0,0,1,245.011,180.03Z" transform="translate(-183.505 -151.397)" fill="#e0e0e0"/>
              </g>
            </g>
          </g>
          <g id="Groupe_3585" data-name="Groupe 3585" transform="translate(22.381 29.641)">
            <g id="Groupe_3582" data-name="Groupe 3582" transform="translate(0.004 0.001)">
              <path id="Tracé_7124" data-name="Tracé 7124" d="M218.666,123.312c-22.64,31.275-48.69,60.613-71.33,91.889" transform="translate(-147.336 -123.312)" fill="#fff"/>
            </g>
            <g id="Groupe_3584" data-name="Groupe 3584">
              <g id="Groupe_3583" data-name="Groupe 3583">
                <path id="Tracé_7125" data-name="Tracé 7125" d="M147.338,215.2a4.212,4.212,0,0,1,.6-1.027l1.91-2.8c1.673-2.426,4.178-5.876,7.324-10.1,6.284-8.453,15.277-19.892,25.347-32.4s19.167-23.856,25.624-32.165l7.628-9.851c.838-1.063,1.529-1.941,2.1-2.662.489-.6.764-.905.8-.881a4.386,4.386,0,0,1-.6,1.027c-.516.759-1.146,1.685-1.91,2.8-1.673,2.426-4.176,5.874-7.322,10.1-6.284,8.455-15.277,19.894-25.352,32.408S164.32,193.5,157.865,201.8c-3.133,4.045-5.712,7.374-7.631,9.854l-2.1,2.662A4.4,4.4,0,0,1,147.338,215.2Z" transform="translate(-147.334 -123.311)" fill="#e0e0e0"/>
              </g>
            </g>
          </g>
          <g id="Groupe_3589" data-name="Groupe 3589" transform="translate(22.382 29.481)">
            <g id="Groupe_3586" data-name="Groupe 3586" transform="translate(0.003 0.002)">
              <line id="Ligne_21" data-name="Ligne 21" x2="73.139" y2="92.048" fill="#fff"/>
            </g>
            <g id="Groupe_3588" data-name="Groupe 3588">
              <g id="Groupe_3587" data-name="Groupe 3587">
                <path id="Tracé_7126" data-name="Tracé 7126" d="M220.476,215.29c-.268.212-16.858-20.221-37.052-45.636s-36.354-46.2-36.086-46.413,16.856,20.219,37.057,45.64S220.744,215.076,220.476,215.29Z" transform="translate(-147.335 -123.24)" fill="#e0e0e0"/>
              </g>
            </g>
          </g>
        </g>
        <g id="Groupe_3591" data-name="Groupe 3591" transform="translate(0 27.773)">
          <path id="Tracé_7127" data-name="Tracé 7127" d="M154.112,129.69a11.442,11.442,0,1,1-11.442-11.442A11.442,11.442,0,0,1,154.112,129.69Z" transform="translate(-131.229 -118.248)" fill="#e0e0e0"/>
        </g>
        <g id="Groupe_3592" data-name="Groupe 3592" transform="translate(187.135)">
          <path id="Tracé_7128" data-name="Tracé 7128" d="M237.2,117.359a11.442,11.442,0,1,1-11.442-11.442A11.44,11.44,0,0,1,237.2,117.359Z" transform="translate(-214.316 -105.917)" fill="#e0e0e0"/>
        </g>
      </g>
    </g>
  </g>
</svg>
