<?xml version="1.0" encoding="utf-8"?>
<!-- Generator: Adobe Illustrator 25.2.1, SVG Export Plug-In . SVG Version: 6.00 Build 0)  -->
<svg version="1.1" id="logo_mooveo" xmlns="http://www.w3.org/2000/svg" xmlns:xlink="http://www.w3.org/1999/xlink" x="0px"
	 y="0px" viewBox="0 0 122.3 113" style="enable-background:new 0 0 122.3 113;" xml:space="preserve">
<style type="text/css">
	.st0{fill:#F39300;}
</style>
<g>
	<g id="Groupe_19066" transform="translate(0 0)">
		<path id="Tracé_32278" class="st0" d="M80.9,48.1L17.1,2.9c-1.8-1.3-4-2-6.2-2C4.9,0.8,0,5.6,0,11.6c0,0,0,0.1,0,0.1v90.5
			c0,6,4.9,10.9,10.8,10.9c0,0,0,0,0,0c2.2,0,4.4-0.7,6.2-2l63.8-45.3c4.9-3.4,6-10.2,2.6-15C82.8,49.7,81.9,48.8,80.9,48.1"/>
		<path id="Tracé_32279" class="st0" d="M121.9,7.3c0-0.1-0.1-0.2-0.1-0.3c-0.3-1-0.7-1.9-1.3-2.7l0-0.1c-0.1-0.2-0.3-0.3-0.4-0.4
			c-0.3-0.3-0.5-0.6-0.8-0.9c-0.2-0.2-0.4-0.4-0.6-0.5c-0.3-0.2-0.6-0.5-0.9-0.7c-0.2-0.2-0.5-0.3-0.7-0.4c-0.3-0.2-0.7-0.3-1-0.5
			c-0.3-0.1-0.5-0.2-0.8-0.2c-0.4-0.1-0.7-0.2-1.1-0.3c-0.3,0-0.6-0.1-0.9-0.1c-0.3,0-0.6-0.1-0.9-0.1c-0.1,0-0.1,0-0.2,0
			c-0.3,0-0.7,0-1,0.1c-0.3,0-0.7,0.1-1,0.1c-0.2,0.1-0.5,0.1-0.7,0.2c-0.4,0.1-0.8,0.2-1.2,0.4c-0.2,0.1-0.3,0.2-0.5,0.3
			c-0.4,0.2-0.8,0.4-1.2,0.7l-0.1,0.1L82.8,18.7c-4.5,3.2-5.5,9.5-2.3,14s9.5,5.5,14,2.3l7.8-5.5v54.1L94.5,78
			c-4.5-3.2-10.8-2-13.9,2.5c-3.1,4.5-2.1,10.6,2.3,13.8l23.6,16.8l0.1,0.1c0.4,0.3,0.8,0.5,1.2,0.7c0.2,0.1,0.3,0.2,0.5,0.3
			c0.4,0.2,0.8,0.3,1.2,0.4c0.2,0.1,0.5,0.2,0.7,0.2c0.3,0.1,0.7,0.1,1,0.1c0.3,0.1,0.6,0.1,1,0.1c0.1,0,0.1,0,0.2,0
			c0.3,0,0.6-0.1,0.9-0.1c0.3,0,0.6,0,0.9-0.1c0.4-0.1,0.7-0.2,1.1-0.3c0.3-0.1,0.5-0.1,0.8-0.2c0.3-0.1,0.7-0.3,1-0.5
			c0.3-0.1,0.5-0.3,0.7-0.4c0.3-0.2,0.6-0.4,0.9-0.7c0.2-0.2,0.4-0.3,0.6-0.5c0.3-0.3,0.6-0.6,0.8-0.9c0.1-0.2,0.3-0.3,0.4-0.4
			l0-0.1c0.6-0.8,1-1.8,1.3-2.8c0-0.1,0.1-0.2,0.1-0.3c0.3-0.9,0.4-1.8,0.4-2.7V10C122.3,9.1,122.2,8.2,121.9,7.3"/>
	</g>
</g>
</svg>
