<svg xmlns="http://www.w3.org/2000/svg" xmlns:xlink="http://www.w3.org/1999/xlink" width="130.677" height="154.102" viewBox="0 0 130.677 154.102">
  <defs>
    <clipPath id="clip-path">
      <rect id="Rectangle_3058" data-name="Rectangle 3058" width="53" height="7" transform="translate(-39.27 -0.128)" fill="#fff" stroke="#707070" stroke-width="1"/>
    </clipPath>
  </defs>
  <g id="editer" transform="translate(-1192 -3447.898)">
    <path id="Tracé_26250" data-name="Tracé 26250" d="M96,45.226V21.475A5.475,5.475,0,0,1,101.475,16h77.2a5.657,5.657,0,0,1,4,1.657L200.62,35.6a5.657,5.657,0,0,1,1.657,4V164.627A5.475,5.475,0,0,1,196.8,170.1H101.475A5.475,5.475,0,0,1,96,164.627V45.226Z" transform="translate(1118 3431.898)" fill="#f4f4f4"/>
    <path id="Tracé_26251" data-name="Tracé 26251" d="M336,16V37.095a5.475,5.475,0,0,0,5.475,5.475h21.095V39.6a5.657,5.657,0,0,0-1.657-4L342.971,17.657a5.657,5.657,0,0,0-4-1.657Z" transform="translate(957.708 3431.898)" fill="#86868c"/>
    <g id="Groupe_16848" data-name="Groupe 16848" transform="translate(1231.27 3469.154)">
      <path id="Tracé_26252" data-name="Tracé 26252" d="M150.657,80h23.912a2.657,2.657,0,0,1,2.657,2.657h0a2.657,2.657,0,0,1-2.657,2.657H150.657A2.657,2.657,0,0,1,148,82.657h0A2.657,2.657,0,0,1,150.657,80Z" transform="translate(-148 -80)" fill="#f59a00"/>
      <path id="Tracé_26253" data-name="Tracé 26253" d="M254.657,80h0a2.657,2.657,0,0,1,2.657,2.657h0a2.657,2.657,0,0,1-2.657,2.657h0A2.657,2.657,0,0,1,252,82.657h0A2.657,2.657,0,0,1,254.657,80Z" transform="translate(-217.46 -80)" fill="#333"/>
    </g>
    <g id="Groupe_16849" data-name="Groupe 16849" transform="translate(1231.27 3488.468)">
      <path id="Tracé_26254" data-name="Tracé 26254" d="M150.657,138.154h68.434a2.657,2.657,0,0,1,2.657,2.657h0a2.657,2.657,0,0,1-2.657,2.657H150.657A2.657,2.657,0,0,1,148,140.811h0A2.657,2.657,0,0,1,150.657,138.154Z" transform="translate(-148 -138.154)" fill="#494b52"/>
    </g>
    <g id="Groupe_16850" data-name="Groupe 16850" transform="translate(1231.27 3501.313)">
      <path id="Tracé_26255" data-name="Tracé 26255" d="M150.657,176.831h51.091a2.657,2.657,0,0,1,2.657,2.657h0a2.657,2.657,0,0,1-2.657,2.657H150.657A2.657,2.657,0,0,1,148,179.488h0A2.657,2.657,0,0,1,150.657,176.831Z" transform="translate(-148 -176.831)" fill="#f59a00"/>
    </g>
    <g id="Groupe_16851" data-name="Groupe 16851" transform="translate(1231.27 3514.204)">
      <path id="Tracé_26256" data-name="Tracé 26256" d="M150.657,215.646h59.85a2.657,2.657,0,0,1,2.657,2.657h0a2.657,2.657,0,0,1-2.657,2.657h-59.85A2.657,2.657,0,0,1,148,218.3h0A2.657,2.657,0,0,1,150.657,215.646Z" transform="translate(-148 -215.646)" fill="#494b52"/>
    </g>
    <g id="Groupe_16852" data-name="Groupe 16852" transform="translate(1231.27 3542.158)">
      <path id="Tracé_26257" data-name="Tracé 26257" d="M150.657,299.816H185.2a2.657,2.657,0,0,1,2.657,2.657h0a2.657,2.657,0,0,1-2.657,2.657h-34.54A2.657,2.657,0,0,1,148,302.473h0A2.657,2.657,0,0,1,150.657,299.816Z" transform="translate(-148 -299.816)" fill="#494b52"/>
    </g>
    <g id="Groupe_16853" data-name="Groupe 16853" transform="translate(1231.27 3555.049)">
      <path id="Tracé_26258" data-name="Tracé 26258" d="M150.657,338.631h68.434a2.657,2.657,0,0,1,2.657,2.657h0a2.657,2.657,0,0,1-2.657,2.657H150.657A2.657,2.657,0,0,1,148,341.288h0A2.657,2.657,0,0,1,150.657,338.631Z" transform="translate(-148 -338.631)" fill="#494b52"/>
    </g>
    <g id="Groupe_de_masques_79" data-name="Groupe de masques 79" transform="translate(1231.27 3567.128)" clip-path="url(#clip-path)">
      <g id="Groupe_16854" data-name="Groupe 16854" transform="translate(0 0.812)">
        <path id="Tracé_26259" data-name="Tracé 26259" d="M150.657,377.446h47.237a2.657,2.657,0,0,1,2.657,2.657h0a2.657,2.657,0,0,1-2.657,2.657H150.657A2.657,2.657,0,0,1,148,380.1h0A2.657,2.657,0,0,1,150.657,377.446Z" transform="translate(-148 -377.446)" fill="#f59a00"/>
      </g>
    </g>
    <g id="Groupe_16855" data-name="Groupe 16855" transform="translate(1239.878 3490.456)">
      <path id="Tracé_26260" data-name="Tracé 26260" d="M497.45,158.007l-6.593,6.593a2.33,2.33,0,0,1-3.3,0l-9.889-9.889a2.33,2.33,0,0,1,0-3.3l6.593-6.593a2.33,2.33,0,0,1,3.3,0l9.889,9.889a2.33,2.33,0,0,1,0,3.3Zm0,0" transform="translate(-415.334 -144.139)" fill="#f59a00"/>
      <path id="Tracé_26261" data-name="Tracé 26261" d="M292.713,365.6a4.659,4.659,0,0,0-1.366,3.3v4.2a.466.466,0,0,0,.466.466h4.2a4.659,4.659,0,0,0,3.3-1.366l1.931-1.93-6.593-6.593Zm0,0" transform="translate(-291.347 -290.761)" fill="#1f1f1f"/>
      <path id="Tracé_26262" data-name="Tracé 26262" d="M387,164.343,329.94,221.4a4.66,4.66,0,0,1-2.382,1.275l-6.669,1.334a3.491,3.491,0,0,1-3.155-.955l-2.634-2.634a3.491,3.491,0,0,1-.954-3.154l1.333-6.669a4.661,4.661,0,0,1,1.274-2.382l57.057-57.056Zm0,0" transform="translate(-306.529 -148.827)" fill="#494b52"/>
      <path id="Tracé_26263" data-name="Tracé 26263" d="M321.386,336.14l-3.633,3.633a4.661,4.661,0,0,1-6.593,0l-3.3,3.3-6.593-6.593,3.3-3.3a4.661,4.661,0,0,1,0-6.593l3.633-3.633Zm0,0" transform="translate(-297.975 -263.568)" fill="#f59a00"/>
    </g>
  </g>
</svg>
