<svg xmlns="http://www.w3.org/2000/svg" xmlns:xlink="http://www.w3.org/1999/xlink" width="168.666" height="141.058" viewBox="0 0 168.666 141.058">
  <defs>
    <linearGradient id="linear-gradient" x1="0.5" x2="0.5" y2="1" gradientUnits="objectBoundingBox">
      <stop offset="0" stop-color="#f8b500"/>
      <stop offset="1" stop-color="#f27f00"/>
    </linearGradient>
  </defs>
  <g id="synchronisation" transform="translate(-1203.875 -3002.596)">
    <g id="Groupe_16832" data-name="Groupe 16832" transform="translate(1203.875 3002.596)">
      <g id="Groupe_16822" data-name="Groupe 16822">
        <g id="Groupe_16817" data-name="Groupe 16817" transform="translate(0 27.903)">
          <path id="Tracé_26189" data-name="Tracé 26189" d="M126.182,200.372H3.3a3.3,3.3,0,0,1-3.3-3.3V131.333l1.648-4.728H127.83l1.648,4.728v65.743A3.3,3.3,0,0,1,126.182,200.372Z" transform="translate(0 -126.605)" fill="#f4f4f4"/>
        </g>
        <g id="Groupe_16818" data-name="Groupe 16818">
          <path id="Tracé_26190" data-name="Tracé 26190" d="M129.478,74.533H0V45.2A3.294,3.294,0,0,1,3.294,41.9H126.184a3.294,3.294,0,0,1,3.294,3.294Z" transform="translate(0 -41.902)" fill="#494b52"/>
        </g>
        <g id="Groupe_16819" data-name="Groupe 16819" transform="translate(10.98 11.402)">
          <ellipse id="Ellipse_456" data-name="Ellipse 456" cx="4.82" cy="4.82" rx="4.82" ry="4.82" fill="#ff624d"/>
        </g>
        <g id="Groupe_16820" data-name="Groupe 16820" transform="translate(25.64 11.402)">
          <ellipse id="Ellipse_457" data-name="Ellipse 457" cx="4.82" cy="4.82" rx="4.82" ry="4.82" fill="#fecc03"/>
        </g>
        <g id="Groupe_16821" data-name="Groupe 16821" transform="translate(40.299 11.402)">
          <ellipse id="Ellipse_458" data-name="Ellipse 458" cx="4.82" cy="4.82" rx="4.82" ry="4.82" fill="#5cd9a3"/>
        </g>
      </g>
      <g id="Groupe_16823" data-name="Groupe 16823" transform="translate(10.98 43.587)">
        <path id="Tracé_26191" data-name="Tracé 26191" d="M61.581,207.19H38.056a4.725,4.725,0,0,1-4.725-4.725V178.94a4.725,4.725,0,0,1,4.725-4.725H61.365a4.942,4.942,0,0,1,4.941,4.941v23.309A4.725,4.725,0,0,1,61.581,207.19Z" transform="translate(-33.331 -174.215)" fill="#f59a00"/>
      </g>
      <g id="Groupe_16827" data-name="Groupe 16827" transform="translate(53.176 43.587)">
        <g id="Groupe_16824" data-name="Groupe 16824">
          <path id="Tracé_26192" data-name="Tracé 26192" d="M206.353,179.159H163.892a2.472,2.472,0,1,1,0-4.944h42.461a2.472,2.472,0,0,1,0,4.944Z" transform="translate(-161.42 -174.215)" fill="#86868c"/>
        </g>
        <g id="Groupe_16825" data-name="Groupe 16825" transform="translate(0 28.031)">
          <path id="Tracé_26193" data-name="Tracé 26193" d="M206.353,264.251H163.892a2.472,2.472,0,1,1,0-4.944h42.461a2.472,2.472,0,0,1,0,4.944Z" transform="translate(-161.42 -259.307)" fill="#494b52"/>
        </g>
        <g id="Groupe_16826" data-name="Groupe 16826" transform="translate(0 14.016)">
          <path id="Tracé_26194" data-name="Tracé 26194" d="M191.412,221.705h-27.52a2.472,2.472,0,1,1,0-4.944h27.52a2.472,2.472,0,0,1,0,4.944Z" transform="translate(-161.42 -216.761)" fill="#86868c"/>
        </g>
      </g>
    </g>
    <g id="Groupe_16833" data-name="Groupe 16833" transform="translate(1284.609 3054.28)">
      <g id="Groupe_16829" data-name="Groupe 16829" transform="translate(43.357 0)">
        <path id="Tracé_26195" data-name="Tracé 26195" d="M393.321,202.335l.726-1.7a1.318,1.318,0,0,0-1.6-1.777l-14.826,4.621a1.318,1.318,0,0,0-.789,1.844l6.9,13.915a1.319,1.319,0,0,0,2.394-.067l.808-1.889a.659.659,0,0,1,.841-.359,29.007,29.007,0,0,1,0,54.117,2.085,2.085,0,0,0-1.233,2.567l3.206,10.287a2.1,2.1,0,0,0,2.733,1.338,43.942,43.942,0,0,0,1.21-82.03.658.658,0,0,1-.362-.87Z" transform="translate(-376.69 -198.797)" fill="url(#linear-gradient)"/>
      </g>
      <g id="Groupe_16830" data-name="Groupe 16830" transform="translate(0 3.787)">
        <path id="Tracé_26196" data-name="Tracé 26196" d="M273.865,210.423a43.939,43.939,0,0,0-2.068,81.671.658.658,0,0,1,.351.864l-.462,1.081a1.318,1.318,0,0,0,1.6,1.777l14.826-4.621a1.318,1.318,0,0,0,.789-1.844l-6.9-13.915a1.319,1.319,0,0,0-2.394.067l-1.076,2.515a.659.659,0,0,1-.86.351,29.006,29.006,0,0,1,.892-53.754,2.085,2.085,0,0,0,1.233-2.567L276.6,211.761a2.1,2.1,0,0,0-2.733-1.338Z" transform="translate(-245.075 -210.292)" fill="url(#linear-gradient)"/>
      </g>
    </g>
  </g>
</svg>
