<svg xmlns="http://www.w3.org/2000/svg" xmlns:xlink="http://www.w3.org/1999/xlink" width="2183.573" height="993.835" viewBox="0 0 2183.573 993.835">
  <defs>
    <linearGradient id="linear-gradient" x1="0.914" y1="-0.196" x2="0.413" y2="1" gradientUnits="objectBoundingBox">
      <stop offset="0" stop-color="#bed000"/>
      <stop offset="1" stop-color="#62aa42"/>
    </linearGradient>
  </defs>
  <path id="shape_3" data-name="shape 3" d="M7631.5,522.7c-470.122-19.95-518.873-404.662-523.92-487.458H7107s.127-.993.417-2.869c-.44-8.206-.417-12.744-.417-12.744h2.694c15.544-78.375,108.642-421.191,535.4-322.285,418.035,96.884,537.245,18.061,673.73-60.759,99.169-57.271,207.459-114.542,446.117-104.414,470.122,19.95,518.871,404.662,523.917,487.458h.582s-.127.993-.417,2.869c.44,8.206.417,12.744.417,12.744h-2.694c-15.544,78.376-108.64,421.193-535.4,322.285-418.038-96.886-537.248-18.063-673.733,60.757-91.416,52.793-190.587,105.586-392.475,105.587Q7659.454,523.872,7631.5,522.7Z" transform="translate(9290.005 524.372) rotate(180)" stroke="rgba(0,0,0,0)" stroke-miterlimit="10" stroke-width="1" fill="url(#linear-gradient)"/>
</svg>
